<?xml version="1.0" encoding="UTF-8"?>
<svg version="1.1" viewBox="0 0 1024 1024" xmlns="http://www.w3.org/2000/svg"><path transform="translate(332,160)" d="m0 0h10l7 3 6 7 2 5v12l21 10 18 12 11 9 9 8 5 5 11 12 13 17 13 19 14 24 3 6 4 1 14-7 12-3h15l14 4 11 6 4 1 2-5 7-14 8-13 9-13 10-14 11-13 9-10 5-5 15-13 15-10 16-9 11-5v-12l4-8 5-5 6-2h10l6 3 6 7 2 4v10l-5 8-6 5-3 1h-10l-8-2-9 3-15 8-14 9-9 7-12 11-14 14-13 17-10 14-9 15-13 24v4l3 1 5 8 5 14 1 5v16l-4 15-4 8-11 13-13 9-6 2 9 19 3 11 6 21 7-6 11-11 8-7 13-12 5-4h2v-2l19-14 19-13 5-4 11-6 15-8 16-8 27-11 28-7 23-3h20l18 3 20 6 11 6 12 8 11 10 11 14 9 15 7 19 5 19 3 21v19l-3 17-4 13-8 16-9 13-4 5-8 7-7 6-16 10-15 7-13 5-28 6-22 3h-47l-28-3-42-7-35-9-21-6-16-5v24l18 7 16 6 12 6 10 4 12 7 12 6 14 9 13 9 12 9 10 8 14 13 5 5 11 12 14 19 13 24 6 19 2 9 1 9v10l-3 16-6 17-8 11-7 9-10 9-13 8-18 6-17 1-17-3-19-7-18-12-11-9-15-15-10-13-8-11-10-18-10-21-10-28-2-8-2 4-8 17-7 9-4 4-6 2h-8l-7-3-8-9-9-17-2-7-2 4-10 30-11 24-12 20-12 16-11 12-11 11-12 9-16 10-21 7-13 2-16-1-16-5-10-5-14-11-8-9-8-12-3-6-5-15-2-14 1-18 4-16 5-14 6-11 7-12 11-15 12-14 5-4 7-8 10-9 17-13 16-11 18-11 13-7 14-7 25-11 22-8 2-1v-24l-25 8-35 9-17 4-44 7-19 2h-48l-23-3-18-4-12-3-16-6-17-9-14-10-13-13-9-12-6-12-7-19-3-19v-17l3-21 5-19 6-16 7-13 9-13 9-10 11-9 13-8 10-4 16-5 18-3h19l24 3 19 5 12 3 29 12 25 13 9 6 7 4 11 8 9 6 16 12 3 2v2l4 2 8 7 26 24 7 7 2-3 6-21 3-11 7-14v-2l-8-4-12-9-10-12-6-17-1-5v-15l3-12 4-10 5-7h2l-1-7-8-14-9-16-12-17-9-12-8-10-7-7-4-5-8-7-11-9-13-9-8-4v-2l-6-2-13-5-9 2h-10l-6-3-6-7-2-4v-10l5-8 6-5zm2 9-5 3-2 4v6l5 6 2 1h6l5-3 2-4v-6l-3-5-4-2zm350 0-5 3-2 4v6l3 5 5 2 7-1 5-6v-6l-2-4-5-3zm-178 141-11 2-11 6-10 9-5 8-5 12-1 5v13l4 13 6 11 8 7 3 1 1 3 12 5 9 2h12l15-4 7-4v-2l4-2 7-6 8-16 2-9v-12l-4-13-6-11-8-8-10-6-7-3-7-1zm-253 47-20 2-14 4-19 8-14 11-11 11-9 13-4 7-4 11-3 7-4 14-3 27v11l2 19 5 15 9 17 8 10 10 10 13 9 19 10 30 9 25 4 10 1h38l31-3 24-4 30-6 29-8 15-4 17-6 2-2 1-7 2-29 2-19 1-24-14-14-8-7-5-5-5-4-5-6-14-11-17-13-13-9-9-6-15-9-11-6-15-7-19-8-16-5-19-5-13-2zm513 0-22 2-19 4-22 7-13 5-24 12-20 11-12 8-11 8-19 14-13 11-5 4-17 17-8 7-8 8 1 23 3 31 2 25 4 3 21 7 16 4 26 7 43 8 24 3 13 1h39l25-3 25-6 15-5 24-13 11-9 11-11 7-11 9-19 2-7 2-18v-14l-2-21-5-19-8-20-5-9h-2l-2-5-9-10-8-8-11-8-16-7-13-4-10-2zm-263 58-4 5-4 8-9 27-3 12-1 10-4 25-3 32-1 20v39l2 36 4 32 3 17 2 11 4 15 7 19 6 11 6 5 6 1 6-4 6-9 6-14 6-19 3-15 6-40 2-22 1-21v-46l-2-30-4-32-3-18-2-11-6-20-6-15-5-8zm56 185-1 1-2 31-4 31-1 11-3 14 2 13 5 21 11 29 8 16 9 16 5 8 5 5 7 9 9 10 12 11 10 7h2v2l12 6 17 6 5 1h20l16-5 14-9 12-12 9-14 6-16 1-6v-22l-4-16-5-13-5-10-9-14-9-12-12-14-10-10-8-7-15-12-22-15-13-8-11-6-16-8-19-9-14-5zm-97 1-29 11-17 8-14 7-18 10-22 15-13 10-11 9-15 14-9 10-10 13-5 7-5 9-7 14-6 17-2 9v22l3 12 5 12 9 13 11 11 11 7 11 5 8 2h20l12-3 17-7 5-3v-2l5-2 10-8 12-11 9-10 7-9v-2h2l12-20 8-15 5-13 9-24 6-28-2-13-2-11-2-19-3-28-1-19z"/><path transform="translate(484,338)" d="m0 0h10l10 5 3 3v6l-2 2-5-1-6-4-6-1-8 3-4 3-5-1-2-4 3-5 6-4z"/><path transform="translate(532,338)" d="m0 0h8l9 3 6 5 1 4-3 4-5-1-7-4h-10l-9 5-4-2-1-5 5-5z"/><path transform="translate(492,372)" d="m0 0h5l6 8 4 2h10l6-4 4-6 5 1 2 2-1 6-7 8-6 3h-13l-9-3-6-7-2-4 1-5z"/><path transform="translate(280,408)" d="m0 0h15l10 3 10 5 8 7 7 11 4 9v24l-8 16-7 8-10 6-10 4-4 1h-15l-12-4-9-5-5-4-8-11-4-9-1-7v-15l2-9 6-11 7-8 7-5 13-5zm2 9-11 4-9 6-7 8-4 10-1 5v11l5 14 9 10 14 7 5 1h9l10-3 10-6 8-9 4-10 1-4v-13l-3-10-6-8-9-8-9-4-5-1z"/><path transform="translate(729,408)" d="m0 0h15l12 4 8 4 8 7 7 11 3 7 1 6v16l-2 9-6 11-7 8-10 6-10 4-4 1h-14l-13-4-9-5-6-5-7-10-5-12v-23l8-16 6-7 8-6 12-5zm2 9-9 3-10 6-8 9-4 10-1 5v11l4 12 6 8 7 6 11 5 5 1h9l10-3 10-6 8-9 5-14v-12l-5-14-9-10-14-7-4-1z"/><path transform="translate(352,713)" d="m0 0h12l10 3 11 8 7 10 2 9v13l-4 12-8 9-7 5-10 3h-13l-12-4-7-5-6-8-4-9-1-5v-11l4-10 6-9 8-6zm1 10-7 2-10 9-3 7-1 4v9l3 9 7 8 8 4 5 1h7l9-3 8-6 5-9 1-4v-10l-4-10-7-7-6-3-5-1z"/><path transform="translate(660,713)" d="m0 0h12l11 4 10 8 6 10 3 8v12l-4 11-4 6-4 5-8 5-10 3h-13l-10-3-10-8-6-8-3-11v-12l4-12 7-9 10-6zm1 10-8 2-9 8-4 8-1 5v8l4 10 5 6 9 5 5 1h7l10-3 9-8 3-6 1-5v-10l-3-9-8-8-6-3-4-1z"/></svg>
