<svg xmlns="http://www.w3.org/2000/svg" viewBox="0 0 1024 1024">
  <g fill="#fff" stroke="#000" stroke-width="10" stroke-linecap="round" stroke-linejoin="round">
    <path d="M470 300 C 430 220 380 175 330 160 M554 300 C 594 220 644 175 694 160" fill="none"/>
    <circle cx="322" cy="150" r="16"/>
    <circle cx="702" cy="150" r="16"/>
    <path d="M472 470 C 310 300 130 295 112 460 C 100 575 225 645 468 562 Z"/>
    <path d="M552 470 C 714 300 894 295 912 460 C 924 575 799 645 556 562 Z"/>
    <path d="M470 600 C 305 650 200 785 282 862 C 352 926 462 832 480 692 Z"/>
    <path d="M554 600 C 719 650 824 785 742 862 C 672 926 562 832 544 692 Z"/>
    <circle cx="268" cy="450" r="46"/>
    <circle cx="756" cy="450" r="46"/>
    <circle cx="345" cy="770" r="34"/>
    <circle cx="679" cy="770" r="34"/>
    <ellipse cx="512" cy="580" rx="46" ry="185"/>
    <circle cx="512" cy="345" r="58"/>
    <circle cx="493" cy="332" r="9" fill="#000"/>
    <circle cx="531" cy="332" r="9" fill="#000"/>
    <path d="M492 368 C 502 380 522 380 532 368" fill="none"/>
  </g>
</svg>
