<?xml version="1.0" encoding="UTF-8"?>
<svg version="1.1" viewBox="0 0 1024 1024" xmlns="http://www.w3.org/2000/svg"><path transform="translate(581,256)" d="m0 0h14l15 4 13 7 5 5-2 4-18 1-9 4-9 7-7 8-4 8-2 8v13l3 9 6 11 7 7 6 4 12 4 9 1h7l2 4-5 5-12 7-8 3-8 1h-15l-13-2-15-8-11-9-9-14-4-8-2-11v-21l3-12 4-8 9-12 9-8 14-8zm4 6-16 3-11 6-10 8-7 9-6 12-3 12v14l3 12 8 16 7 6 4 5 16 8 13 3h11l17-5 4-2v-2l-15-4-12-8-7-7-5-8-4-13-1-10 2-12 5-13 5-5 6-7 14-7 10-3v-2l-6-3-16-3z"/><path transform="translate(442,265)" d="m0 0h7l10 15 1 1 17 2 4 4-1 5-7 8-4 4 2 11 1 10-3 3h-6l-10-5h-8l-11 7h-5l-3-3v-21l-12-11v-6l5-3 15-4 5-13zm3 7-8 15-16 4 1 4 10 9v19l6-2 8-5 7 1 11 5 1-4-3-15 11-11v-4l-15-1-3-1-7-13z"/><path transform="translate(351,323)" d="m0 0 6 1 9 14 16 3 3 3-1 6-10 10 3 18-3 3h-7l-9-4h-5l-12 6-5-1-2-3 1-17-10-9-2-3 1-5 7-3 12-3 5-12zm2 8-4 7-3 6-14 3v4l9 8-1 17 2 1 11-7 5 1 11 5 1-5-1-6v-7l5-6 4-3-2-4-14-1-7-13z"/><path transform="translate(683,350)" d="m0 0h5l6 5 7 8 19-2 4 3v6l-6 10-2 3 1 5 6 12-1 5-2 2h-8l-12-2-7 7-7 5h-5l-3-4-2-17-14-7-3-3v-5l9-6 9-5 2-13 2-5zm2 7-3 16-4 4-12 5v3l14 7 2 10 2 9 4-2 9-9h7l11 2 1-3-6-13 1-5 6-11v-2h-20l-10-11z"/><path transform="translate(530,419)" d="m0 0 5 1 7 7 5 10 1 3v13l-4 9-4 5-7-1-7-6-3-7 1-9 4-8 1-16zm5 10-2 9-4 7v10l5 5 4 1 4-8v-13l-2-7-3-4z"/><path transform="translate(591,424)" d="m0 0 10 1 26 5 8 1h21l13-2h7l7 10 7 12 10 21 11 29 2 8h2l2-5 11-19 7-10 11-16 2-2 9 1 37 8 15 2h29l25-4 5 5 10 14 8 16 8 15 12 29 3 9 10 28 10 19 4 9 1 4h2l2-6 3-2 7 1 5 5-4 20-3 5-1 1-9-1-4-3 1-13-5-12-4-7 6 25v6l-2 2-43 14-37 12-13 5-5 11-2 2h-7l-4-2-3-4-5 1-14-4-16-4-24-7-17-4-23-7-24-6-20-6-9-2-1-1 1-9 4-11 4-12-5 9-7 12v11l-2 2-10 1-3-3-4-21 1-5 4-3h8l3 2 1 8 4-4 13-22h2l2-5 9-19-9 2-13 4-10 4-2 7-2 2h-6l-3-3-17-3-35-10-12-3 1 6v9l-3 17v3l5-4 5-10 3-2 4 6 3 12 1 8v22l-3 16-5 13-5 8-7 9h16l6 4 4 10 1 10 22 5 7 6 2 8-1 13-7 14-7 6-4 2h-6l-19-9-3-1v8l-5 8-9 7-9 4h-15l-7-4-10-17v-2h-2l2 8v9l-3 5-5 4-6 3-5 1h-18l-11-4-6-5-2-5 1-11 1-4-4 5-6 10-6 5-6 2h-7l-10-3-11-8-4-5-3-8v-3l-14 6-8 4-8-1-9-7-5-10-3-10v-9l5-9 3-3 22-5 1-1 3-15 4-6 3-2h15l-11-15-6-13-5-19v-28l6-23 2-2 5 1 4 10 1 3h2l-1-5v-15l2-10-10 2-17 4-7 1-4 3-4-1-3-5-3-3-19-7-16-5 1 6 13 26 4 6v2h2l9 16 5 8 2-7 5-4 6 1 4 3 1 5-4 21-4 3-8-1-3-3v-11l-6-10-5-7 6 18 3 7-1 4-5 2-16 4-25 7-23 6-20 6-17 4-23 7-16 4h-9l-5 5-7 1-4-4-3-9-60-20-34-11-2-2 1-10 5-21-8 16-1 7 1 9-5 3-7 1-4-3-4-17v-8l3-3 9-1 4 5v3h2l3-9 9-17 7-17 9-27 5-11 4-11 15-30 6-10 4-7 7-8 5-1 16 3 10 1h20l23-3 22-5 15-3h7l9 13 10 15 13 21 4 8v2l4-4 3-7 7-20 10-24 6-10 5-9 6-5 13 2h22l23-4 11-2 6 7 8 13 3 5v2h2l8 16 8 14 6 15 3 5 3 1 2-5 5-12 1-4v-13l-2-8v-6l3-1 14 7 13 10 10 11 9 16 3 5 21-42 8-14 9-15 8-11zm8 6v3l9 17 5 12 8 21 3 10 7 25 3 20 7 16 4 5 1-1h6l3 2 1 5 12-3 23-8 8-16 11-21-2-10-6-17-8-19-11-23-6-9-4-5-17 2h-22l-19-3-12-3zm-8 1-11 17v2h-2l-14 26-10 19-11 26v27l4 1 3-4 1-9-2-8 14-14 3-4v-2l3-1 6-9 8-16 4-9 2 1 6 23 6 16 8 14 6 11 4 6-2 4-2 5-3 1-5 8v3l25 7 2-1-1-20-5-27-5-21-5-17-7-18-5-13-8-16-5-8zm-165 8-20 4-10 1h-10l-19-2-9 13-8 17-5 12-7 19-5 17v7l7 14 30 11 12 3 2-5 1-1h8l7-15 3-18 5-20 7-21 5-14 10-20v-2zm9 1-9 16-9 23-9 30-5 25-1 6-1 20 8-1 15-4v-3l-9-13v-5l8-13 9-19 5-16 1-10 3 2 8 17 9 13 5 6 5 5 3 4 4-2 2-2-1-6-4-10-9-19-7-13-11-19-6-8zm-160 25-25 6-30 3h-12l-29-3-5 1-7 10v2h-2l-16 32-10 23-6 17-6 16-2 9-8 28-3 15 1 4 13 5 11 3 23 8 13 4 24 8h3v-8l3-3h9l4 2 5-13 7-17 2-15 7-30 7-26 10-29 9-21 5-12 9-17v-2zm12 0-8 13-7 16-5 10-6 16-8 21-3 11-7 24-8 42-5 37v7l4 2 24-7 11-3v-4l-10-14-7-10 2-6 7-11 10-19 6-12 9-24 5-22 2-7h3l6 14 10 19 3 5h2l2 5 10 13 11 12 8 8-1 8-9 21-1 4 11-1 21-6-1-7-6-16-12-30-4-8-7-15-8-16-10-18-8-14-21-33h-2l-2-5zm472 0-1 2 10 19 8 20 5 11 3 10 6 16 3 10 3 11 7 28 4 26 11 26 1 3 4-2h8l4 3 1 8 9-2 25-9 17-5 21-7 13-4 2-4-3-14-4-16-6-20-5-16-7-18-4-11-11-24-10-19-10-15h-11l-16 2h-25l-30-4-20-5zm-11 1-7 11-10 16v2h-2l-16 28-12 22-11 23-10 23-6 17-6 16v3l21 6 11 2-1-6-8-17-2-5v-6l8-7 11-12 13-18 11-18 9-21h3l6 26 7 19 5 13 8 16 6 11h2l2 5 5 9-1 5-12 16-4 6 1 4 16 4 17 5h5l-2-22-1-13-5-28-5-22-2-11-9-29-7-20-5-11-5-13-11-22-4-7zm-251 6-1 2v19l-3 11-7 12-9 12-5 10-1 9-1 5-5-1-4-5-3-10v-10l-4 2-6 7-6 9-5 11-3 13v19l1 9-5 1-8-5-4-4-2 1-2 11v28l3 13 9 19 11 12 9 8 13 7h2l-1-3-6-5-7-10-4-10-2-8v-15l5-14 5-12 3-14v-19l5 2 10 6 6 6h2l5-15 5-10 9-11 8-8 5-4h3l2 21 4 17 7 12 4-2 5-5 7-5 5-2h4l1 21 2 11 4 10 5 10 1 6v22l-4 10-6 9-4 5-6 4v2l6-2 14-9 10-9 8-11 5-10 3-16v-28l-1-7h-4l-6 5-3 1h-7l-1-5 5-18v-14l-5-15-6-10-2-3h-2l-5 13-5 5-3 2h-6l1-24-3-16-5-12-5-10-3-1-2-4-8-9-5-4h-2l-1-3-5-3zm89 16-8 26-4 11v4l15-1 3-3-4-28-1-9zm-146 3-3 22v10l12 1 2-2-2-10-5-14-2-7zm140 3-1 3h-2l-7 12-11 13-3 3 1 4 5 4 2 3h2l7-15 8-25zm-134 1 3 14 4 9 5-1 2-4-9-11-4-7zm145 2 1 13 8 40 3 10 4-2 9-13-2-5-6-9-9-17-6-17zm-156 2-5 12-8 16-6 9 2 4 8 10 2-2 5-19 4-24v-5zm30 21-2 5v12l3-1 5-11zm-29 6-4 15-2 11h3l8-16 5-7-1-3zm147 4-9 1-5 5-1 6 7 14 22 7 3-1-2-13-5-18-1-1zm157 13-8 29-11 29 1 3 6-1 20-1v-8l-3-19-3-32zm-444 2-1 3-3 28-3 19v6l26 2 1-2-5-13-11-33-2-10zm211 3-7 6-10 13-7 14-4 17h-3l-7-9-9-7-3 1v12l-3 15-7 19-2 4-1 6v10l3 12 3 7 6 9 8 7 14 7 16 4h19l16-4 10-4 12-11 3-5v-2h2l4-11 1-4v-16l-4-10-4-9-4-14-1-5-1-16-3-1-10 6-6 8h-4l-5-8-6-16-3-16-1-9zm-112 2-2 5 1 5h2l1-10zm-92 2 10 32 7 17 5 12 8 16 2-1 10-22-1-4-8-7-5-7-5-5-10-13-11-18zm83 0 2 11 1 2 3-1-2-10zm346 0-11 19-7 8-9 11-13 13 1 5 9 21 2 1 9-19 10-24 11-33v-2zm-442 1-3 8-5 14-6 12-4 10-6 9-5 10-5 7 1 5 11 15h2l2 5h2l4-16 7-31 3-16 3-32zm457 2v14l4 27 7 31 3 15 2 6 4-2 9-13 5-5v-4l-9-15-5-9-7-14-4-10-5-12-3-9zm-109 1 1 14h4v-7l-3-7zm11 5-2 2-2 8v5l3 1 4-14zm-361 45-1 3-6 25-4 16 3 1 26-7 24-7 1-3-8-17-4-8-6-2-7-1zm448 0-16 2-4 4-8 19-2 5 2 2 26 7 22 6h3l-1-9-9-36zm-348 1-2 4-2 16 4 2 2-2 2-14v-5zm257 1-1 4 3 16 5 1 1-5-3-15zm-555 2 2 14 3 7 4-2-2-12-2-7zm852 0-4 17 2 4 3-2 4-18zm-717 26-6 14v12l4 2 1-1 3-27zm586 2 1 15 2 10h3l2-6-1-5-5-14zm-603 11-1 1v9l3 10 2 2 4-1-2-12-3-8zm619 0-3 5-3 12 1 5 3 1 2-2 3-14v-6zm-409 31-4 5-1 3v8l2 1 32-8 1-2-9-6zm168 0-18 1-8 6v2l25 6 10 2 1-1v-7l-3-6-5-3zm-37 12-9 4 1 4 12 9 4 4 17 13 10 8 14 7h3v-12l-10-5-19-8-1-2 16 6 12 5 4-1 2-5-1-4-16-5-24-8 8 1 30 9 7 1 3-3v-2l-19-6-15-3-25-7zm-94 0-34 9-21 5-4 2 1 3 3 2 10-2 25-8 9-1-30 10-10 3-1 4 2 4 4 2 26-10 2 1-13 5-12 5-4 2-1 13 5-1 14-7 9-8 13-10 16-12 5-4-1-3-10-4zm21 8-14 11-13 10-10 7v2h9l12-10v-2l4-2 7-4-5 5-12 11-2 3 7 5 4-1 9-10 2-1-7 10v2l-3 1 1 6 2 6 4-2 5-9 7-10 5-22 1-5-4-1zm49 0-5 2 5 24 15 24 3-1 1-6-8-12h2l7 9 5-1 3-4-17-17-4-6 8 7 6 6h2l2 4 5 5 6-1 9-2v-2l-11-8-18-14-8-7zm-30 2-4 14-7 30v5h2v-2l12-3 14-1 1-2-2-17v-6h1l4 24 5 5 3-1-5-24-3-17-1-4-2-1zm-110 8-4 4-1 3v8l3 9 7 10 5 3 5-1 4-5v-13l-3-9-7-8-2-1zm233 0-6 4-6 9-2 6v10l3 6 2 2 7-1 5-4 5-10 2-7v-8l-3-6-1-1zm-182 23-8 5-1 1v8l4 6 6 6 10 4h11l5-3 1-2v-11l-7-10-11-4zm132 1-10 2-10 9-3 5-1 8 7 6h10l14-7 6-9v-9l-5-4zm-70 14-10 4-5 5v7l4 4 4 2 17 1 12-2 6-5 1-5-4-6-8-4-3-1z"/><path transform="translate(674,468)" d="m0 0 4 1 5 13 5 12 3 11-1 5-19 7-19 3-3-5-10-30-4-10 2-2h9l18-2zm-4 4-12 3-17 2-1 2 13 37 4 1 21-6 9-4 1-2-6-18-5-13-2-2z"/><path transform="translate(364,471)" d="m0 0 21 4 14 1 1 3-6 14-7 22-1 1-10-1-24-8 1-8 7-21zm2 3-7 14-3 10-1 7 8 3 14 4 7 1 5-12 4-14 2-4v-4l-20-3z"/><path transform="translate(171,518)" d="m0 0 11 3 15 4 7 1 23 1 1 3-9 23-3 10-8 25-1 3h-7l-24-5-15-5-11-5 1-8 10-29 5-12 4-8zm2 5-6 12-6 16-6 20 1 4 25 8 18 4 5-1 3-8 4-13 8-22 3-11-1-1-30-3z"/><path transform="translate(862,519)" d="m0 0 5 1 6 12 11 30 2 9v6l-14 6-13 4-20 4h-9l-2-7-9-26-5-15-5-12 1-3 25-2 15-3zm-1 5-14 4-31 3-1 3 7 20 11 33 13-1 17-5 18-6 1-4-9-28-6-15-3-4z"/><path transform="translate(476,619)" d="m0 0h6l4 4 1 6-2 5-7 2-6-3-1-2v-8l2-3zm-1 2-3 3 1 3 5-1-1-4z"/><path transform="translate(525,619)" d="m0 0h7l4 4 1 7-5 5-5 1-5-3-3-5 2-6zm-1 2-2 2 1 4 5-1-2-4z"/><path transform="translate(500,636)" d="m0 0h6l5 3 1 4h-3l-3-2h-5l-5 3-2-3 4-4z"/><path transform="translate(478,651)" d="m0 0 4 1 5 8 9 5 4 1h7l9-3 8-8 3-4h3l-1 6-7 8-5 3-9 3h-8l-10-3-8-6-5-7z"/><path transform="translate(498,708)" d="m0 0h3l-1 17-1 8h-3l1-16z"/><path transform="translate(388,716)" d="m0 0 5 2 5 7 2 7-1 6-2 2-5-1-4-5-3-7v-8zm1 4-1 1 1 7 3 7 4 1v-7l-4-8z"/><path transform="translate(619,716)" d="m0 0 4 3 1 5-4 12-5 4-5-1-1-2v-8l4-8zm-1 4-5 7-1 9 5-1 4-9v-5z"/><path transform="translate(441,738)" d="m0 0 9 2 7 6 1 2v6l-4 4h-8l-8-4-4-5v-6l4-4zm-2 4-3 4 5 6 7 3 6-1 1-1v-5l-6-5-2-1z"/><path transform="translate(566,739)" d="m0 0 7 1 2 2 1 6-7 8-7 3h-7l-3-3v-7l5-6zm-3 4-8 6-1 5 2 2h6l9-6 2-5-2-2z"/><path transform="translate(501,753)" d="m0 0h7l9 3 2 4-5 5-11 2-8-2-4-3v-5l6-3zm3 3-9 2v4l3 1h12l5-3-1-2z"/></svg>
