<?xml version="1.0" encoding="UTF-8"?>
<svg version="1.1" viewBox="0 0 1024 1024" xmlns="http://www.w3.org/2000/svg"><path transform="translate(570,277)" d="m0 0h24l11 4 10 6 4 3-2 5-18 2-8 4-12 11-1 2h-2l-1 5-2 7v15l3 10 6 8 9 8 11 4 16 2 1 5-12 9-10 4h-30l-10-4-14-9-10-13-5-10-2-8v-25l4-13 7-11 4-5 11-8 12-6zm7 5-16 4-9 6-10 9-8 13-4 12v16l4 13 7 12 6 5 4 5 13 7 12 3h12l18-6-1-3-13-4-12-8-6-8-4-9-2-5-1-7v-8l3-11 4-10 7-7v-2l6-2 10-5 8-3v-2l-8-3-10-2z"/><path transform="translate(447,285)" d="m0 0h7l7 9 3 4 16 3 4 5-2 5-9 10 2 13v7l-2 2h-7l-7-4h-9l-9 6h-6l-2-2-1-20-10-10v-6l5-4 12-3 7-14zm4 6-6 9-3 5-13 4 1 4 7 7 1 16 4 1 8-4 10 1 5 2 4-1-2-16 9-9-1-4-15-2-7-12z"/><path transform="translate(364,338)" d="m0 0 5 1 7 9 2 3 16 4 1 1-1 8-7 6-1 5 2 10-1 5-1 1h-11l-4-2h-6l-9 4-6-1-2-2v-16l-10-10 1-6 7-3 10-3 6-12zm2 7-5 8-2 4-12 3-1 4 8 7v16l5-1 6-4 7 1 6 3 3-1v-15l4-5 3-2-1-5-14-1-2-6-4-6z"/><path transform="translate(668,363)" d="m0 0h7l6 5 5 6 18-1 3 3v6l-6 11 2 9 3 6-1 7h-21l-8 8-3 2h-5l-3-3-3-17-14-7-1-1v-5l12-9 4-2 4-17zm4 6-3 8-2 10-6 2-7 3v4l12 6 2 9 2 7 4-1 7-7h11l6 1 2-4-5-9v-6l5-8v-4l-17-1-10-10z"/><path transform="translate(529,426)" d="m0 0 6 2 6 7 4 9v16l-6 9-4 2-5-2-6-6v-3h-2v-7l4-10 2-16zm5 10-4 9-2 4v11l4 4h5l3-6v-14l-3-6z"/><path transform="translate(585,431)" d="m0 0 12 1 19 4h47l4 5 9 14 12 26 8 23 2 4 2-3 4-8 13-20 11-16 12 1 36 8 7 1h31l17-3h5l9 11 8 14 12 23 10 25 10 27 4 11 8 14 3 10 2-1 3-5 9 1 4 3-1 8-3 12-4 5-9-1-3-3v-14l-4-9v-2h-2l4 13 1 5v7l-9 4-20 7-17 5-17 6-17 5-8 4-5 10-1 1h-8l-5-5h-7l-16-4-34-10-15-3-25-8-14-3-27-8-3-2 1-10 5-12h-2l-2 5-4 7-1 12-5 1h-7l-2-5-3-14v-6l3-4h10l2 2v5l6-5 9-16 3-2 9-20-15 4-12 4-4 8h-8l-3-2-19-4-13-4-24-6v15l-2 14 4-4 5-8 4 1 3 6 2 12v28l-2 13-8 16-6 9 14 1 5 4 3 7 2 10 9 3 11 3 6 7 1 3v9l-2 9-4 8-7 7-4 2h-6l-17-8h-2l-1 7-6 8-8 6-6 2h-16l-6-4-7-11-2-4v15l-6 7-8 4h-21l-10-4-5-5-1-3v-7l1-5h-2l-2 4-7 10-6 3h-11l-9-3-7-5-6-7-2-5v-4l-14 6-5 3-9-1-9-8-6-15v-11l6-10 22-6 2-12 4-6 3-3h14l-3-5-4-4-4-7-6-14-3-12v-30l6-19 5-1 5 8 2 3v-19l1-6-32 7-1 1h-5l-4-6-8-4-25-8 3 9 8 17v2h2l6 9 9 16 1 3 2-2 5-6 8 1 3 4-1 11-3 12-2 2-10-1-1-2-1-11-6-10-2-1 7 18-1 4-6 3-25 7-6 2-14 3-27 8-18 4-25 8-10 2-12 1-3 4-8 1-3-4-3-7-12-5-19-6-23-8-13-4-12-4-9-4 1-12 2-10-3 6-1 11v5l-4 3-8 1-4-4-3-13v-10l5-2h7l3 3 2 3 4-12 7-12 4-12 4-10 8-23 5-11 11-23 7-14 8-12 4-5 3-1h7l17 3h23l25-4 26-6h8l5 6v2h2l18 28 8 14 1 2 4-2 3-10 8-20 5-13 10-18 7-7 11 1h24l26-5 5 1 5 6 6 11 8 13 12 23 7 15v2h4l3-9 3-8v-15l-1-4v-7l4-1 13 7 12 9 7 8 10 17 3 1 8-16 10-21 6-10 10-17zm0 6-7 10-10 16-10 19-6 10-7 16-5 13v23l4 2 3-4 1-10-1-6 14-14 2-4 4-4-1 3-4 6-2 4-4 2-4 6 4 5 4 4 3-1 9-23 3-9-1-4-3 1 9-19v-2h3l4 18 5 14 8 16 6 10 4 7-4 8-5 4-2 3 1 4 8 3 15 3 1-1-1-21-4-24-10-36-5-13-5-12-8-16-5-7zm7 0 1 5 8 16 6 14 10 30 4 15 2 15 2 7 7 14 1 1 8 1 4 6 17-5 14-5 5-8 11-22 2-3-1-8-5-16-8-19-11-23-7-10-2-2-11 1h-28l-20-4zm-161 8-14 3h-39l-10 15-3 7-8 18-10 31v8l7 12 30 11 9 1 2-4 8-1 6-13 4-19 3-16 10-28 3-8 8-16-1-1zm10 2-5 8-1 4h-2l-9 24-9 29-3 19-2 18v6l4 1 16-4 1-3-7-11v-7l7-12 7-14 5-16 1-9 4 4 7 14 9 13 7 7 2 3 5-1 2-3-3-10-5-11-7-14-8-15-10-16zm-149 22-25 5-18 2h-22l-18-2h-6l-5 5-7 10-8 16-10 21-9 23-7 21-7 25-3 13-1 9 5 4 17 5 19 7 17 5 17 6h5l1-1 1-7 1-1h13l5-13 5-10 2-12 3-15 6-23 4-18 10-27 4-10 11-25 6-12-1-1zm447 0 1 6 8 16 9 20 6 18 7 19 4 17 6 23 2 18 6 16 5 10 1 3h12l3 5 1 4 9-1 24-9 18-5 19-7 8-2 2-3-2-12-4-18-11-35-8-20-5-13-11-22-12-20-2-2h-13l-7 1h-32l-32-5-8-2zm-435 1-7 11-7 16-4 9-10 25-3 9-8 27-7 36-5 32v15l1 1h7l19-6 7-2 1-5-12-17-2-3 1-6 8-14 10-19 5-10 5-15 3-10 4-16v-4l3 1 12 25 6 9 2 2 3 5 11 14 13 13-1 10-7 17-1 3 5 1 19-4 5-3-1-9-10-25-5-13-7-14-8-17-9-17-6-10-5-9-13-21h-2l-2-5-3-4h-2v-3zm425 0-8 12-13 20-8 14-16 29-12 26-6 14-6 17-5 14 3 3 19 5 7 1 1-3-9-21v-7l15-15 13-18 7-11 7-14 4-9 1-2h2l6 24 5 14 6 15 8 17 5 7 3 3 4 9-1 7-10 13-4 6 3 4 25 7 7 1 1-5-1-21-3-19-8-37-2-11-13-39-7-16-5-12-11-21zm-231 5-1 1-1 21-3 10-7 11-9 13-2 4-3 13-5-3-4-9-1-10-5 1-9 13-6 13-2 9v26l-5 1-7-5-1-2-3 1-2 7v31l5 16 6 11 9 10 7 7 12 7h3l-2-4-7-8-6-12-1-6v-18l4-12 5-13 2-8v-19l14 8 6 5 3-5 3-10 6-10 9-11 8-7 4-1 2 21 4 15 5 9 4-1 8-7 6-3h5l2 21 5 17 5 10v26l-6 12-8 9-3 2v2l6-1 11-7 10-9 8-11 4-8 3-14v-31l-2-3-5 1-2 4h-9l-1-1v-8l3-9v-17l-5-15-7-9-3 1-3 10-6 6h-6v-23l-4-16-7-16-5-5-9-10-5-3-4-4zm81 17-4 13-3 11-3 7 1 5 13-1 3-3-4-29-1-3zm-133 2-1 3v7h-2v-3h-3l-6 15-9 16 1 7 6 7 3-1 4-15 2-11v-5h2v7l7 2 5-1 1-3-1-7 3 6 5-2 1-4-9-11-3-3 1 8 1 2h-2l-1-5-3-9zm140 4-1 1 1 17 7 32 3 7 4-1 7-10-1-7-7-11-8-16-4-12zm-117 22-2 3v11h3l3-7-1-5zm-26 5-2 2-4 16v5h3l11-20-1-3zm126 4-5 5-1 6 6 12 17 6h6l1-3-3-14-3-11-1-1zm153 12-3 9-8 26-7 17 2 4 22-2 1-1v-9l-3-19-1-11v-8l-2-6zm-409 2-1 1-1 7-1 17-3 17v8l6 2 18 1 1-3-6-15-9-28-2-7zm194 2-12 12-6 10-5 11-2 11h-4l-9-10-3-2-4 1-1 1-1 16-4 14-5 12-2 6v13l5 15 9 11 11 8 9 4 10 2h22l16-4 10-6 9-9 4-8 3-8v-18l-8-21-3-10-2-18h-4l-9 6-4 5-5-1-4-8-5-15-4-19zm-103 2-2 6 1 2h2l1-7zm-84 2 3 12 6 18 6 16 7 15 5 8h3l7-15 1-7-7-8-9-10-3-4h-2l-2-4-13-21zm394 0-8 14v2h-2l-5 7v2l-4 2-9 11-8 8v6l9 19 3-1 3-7 8-18 10-26 5-16v-3zm-317 1 1 10h4l-2-9zm-90 2-4 10-8 18-8 16-9 16-2 4 7 11 5 6h2l1 4 3-2 6-24 2-11 5-26 2-22zm321 1 1 12 4-1v-6l-3-5zm100 0v14l4 24 3 12 3 16 4 16 4 1 12-16 1-1v-6l-8-13-11-21-10-26zm-91 5-3 8v5h4l2-8v-5zm-330 40-3 5-5 21-3 14 3 2 22-6 9-2 13-4 3-4-8-16-5-8-7-2zm408 0-11 2-5 5-8 18 1 5 16 5 14 3 16 4 1-4-4-21-4-15-2-2zm-317 1-2 3-2 16 5 1 2-5 1-12zm237 1-2 2 2 13 2 4h4l1-6-3-11zm-510 2-1 3 3 14 4 2 1-4-3-13zm784 0-2 2-3 14 3 3 2-4 3-13zm-661 24-6 12v12l5 1 3-24zm540 2-1 5 2 15 2 3h2l1-9-1-5-4-9zm14 10-3 4-3 10 1 6h4l3-8 1-4v-7zm-570 1-1 1v8l3 8 5 1 1-2-3-12-2-4zm193 28-4 5v9l4 1 24-6 3-1-1-4-6-4zm138 0-7 6 3 3 11 3 18 3 1-1v-7l-4-6-2-1zm-108 11-36 10-13 3 1 5 4 1 28-8 4-1v2l-8 1-18 6-4 1-1 5 1 3 5 2 21-8 2-1v2l-9 2-16 8-1 10 2 2 8-3 11-7 9-8 11-8 15-11 1-3-5-4-3-1zm90 0-6 2v5l10 8h2l2 4 18 14 10 7 9 5 4-1v-10l-10-6-16-6 12 3 11 5 4-1 3-4-2-5-32-10 17 4 18 5 4-2v-3l-9-3-19-5-17-5zm-66 7-28 21-6 5 1 2h7l9-7 5-5 3-1-12 11v4l5 3 5-2 5-4-5 9 2 7h4l7-10 5-10 5-21-2-2zm44 0-3 2 1 11 4 13 8 13 4 6 4-1v-6l-5-8 5 5 4 2 4-3-1-4-13-13-1-2 8 7 8 8h9l6-2-1-3-15-11-14-11-3-3zm-26 2-2 2-5 21-4 16v5l17-4 9-1 1-4-2-17h2l1 11 2 10 4 4 3-1-2-11-3-14-1-10-3-7zm-102 7-4 4v13l5 10 4 5 6 2 5-3 2-3v-13l-4-8-7-7zm214 0-7 6-5 10v11l2 5 2 2 7-1 5-4 6-13v-10l-4-6zm-168 21-3 2v2l-4 2v7l4 6 7 6 6 3h11l6-4v-11l-3-5h-2l-2-4-9-4zm121 1-8 2-10 9-2 4-1 7 7 6h9l12-6 6-7 1-10-5-4zm-64 13-9 5-4 4v6l6 5 19 1 12-3 4-5-1-5-7-6-5-2z"/><path transform="translate(657,472)" d="m0 0h7l3 5 7 18 3 9-1 6-11 5-10 3-15 1-4-8-4-12-4-13-3-9 1-1 27-3zm-1 3-13 3-12 2-1 3 8 23 4 9 2 2 9-2 15-5 6-4-3-10-6-18-3-3z"/><path transform="translate(376,474)" d="m0 0 13 2 19 3 1 4-5 12-7 20-5 1-9-2-18-6 1-10 5-16zm2 3-7 12-3 10v6l9 4 15 4 3-1 6-15 3-10v-5l-24-5z"/><path transform="translate(198,518)" d="m0 0 9 1 13 4 6 1 24 2 1 3-6 15-3 10-10 30-1 1h-9l-24-6-18-7-1-1 1-9 4-12 6-17 7-14zm1 5-6 14-7 18-2 9v5l5 3 29 8 8 1 5-5 3-11 8-21 2-9v-6l-24-2-15-4z"/><path transform="translate(833,518)" d="m0 0 5 1 8 14 5 13 5 18v8l-12 5-15 5-14 3h-9l-3-5-10-27-3-11-5-11 1-4 30-4zm-1 5-16 4-24 2-1 4 5 16 8 23 3 8 5 1 12-2 26-8 2-2v-7l-3-8-4-13-5-12-4-6z"/><path transform="translate(473,614)" d="m0 0h8l6 4 3 3-1 5-4-1-4-4h-9l-5 6-4-2-4-5 8-2z"/><path transform="translate(527,614)" d="m0 0 8 1 6 4 6 2-5 6-4-2-5-4h-8l-6 5h-2l1-7 6-4z"/><path transform="translate(492,636)" d="m0 0 8 8h8l5-7 4 1-1 5-5 6-5 2-8-1-5-5-2-4z"/><path transform="translate(500,692)" d="m0 0 2 1v9l-1 11-3 2-1-1 1-18z"/><path transform="translate(397,700)" d="m0 0 6 2 4 5 2 6-1 7-4 2-6-5-3-6v-9zm1 4 2 11 1 2h4l-1-9-3-4z"/><path transform="translate(609,700)" d="m0 0 4 1 2 3-1 7-3 7-3 4-6-1-1-1v-9l5-8zm1 3-4 5-2 9 3 1 3-2 2-6v-6z"/><path transform="translate(445,720)" d="m0 0 9 1 8 6v8l-3 3h-9l-6-3-4-4v-6zm-1 4-1 4 4 5 8 3 5-3-1-5-5-4z"/><path transform="translate(560,721)" d="m0 0h6l5 5-1 5-8 7-2 1h-9l-2-2v-8l7-6zm5 3-8 1-5 5v6h7l8-6v-5z"/><path transform="translate(499,734)" d="m0 0h11l7 3 1 5-3 3-8 2-9-1-5-4v-5zm4 2-7 3 2 4h12l4-2v-3z"/></svg>
