<?xml version="1.0" encoding="UTF-8"?>
<svg version="1.1" viewBox="0 0 1024 1024" xmlns="http://www.w3.org/2000/svg"><path transform="translate(598,207)" d="m0 0h25l8 4 8 8-1 2-8-7-10-5h-16l-11 4-12 8-5 5h-2l-2 4-7 9-4 7-2-3-6-10-4-5-10-6-8-1-9 5-6 9-3 8-1 6v26l2 13 4 14 6 16 11 20 3 2v2h-7l-3 3-1 7 3 4h9l3-5-1-7v-4l3 1 2 10 11 7 8 7 11-2 5-1v2l-11 4-1 4-7-7-9-7-6-3h-4l-1 2 1 9 5 6 8 5 7 3 1 3-2 1v-2l-5-2-12-6-4-5-4-9-9-2-3-4-1-5 1-9-10-6h-15v-3l1-1h13l12 6-6-8-6-4-9-2v-1h12l7 5-2-5-5-13-6-19-2-14v-26l3-13 6-11 8-6h14l9 5 9 10 4 4 3-5 15-15 10-7z"/><path transform="translate(639,221)" d="m0 0 4 2 5 17 4 30 4 13v16l-2 12-7 12-11 12-4 2v2l11 1 15 5 11 8 7 10 3 9v13l-6 12-5 6-15 8-4 1h-22l-13-4-12-5-10-6-3-1 3 8v9l-1 2h-9l-6-4-5-6v-2h-2l-5-11v-5l3 4 6 12 8 8 4 2h3l1-7-3-10-6-10-6-8 1-2 12 14 16 10 15 6 11 3h17l12-4 8-5 5-6 3-4 2-8v-10l-4-10-4-6-11-8-10-4-22-3 4-5 11-9 7-9 5-10 1-3v-20l-5-21-4-27-3-10-2-3z"/><path transform="translate(547,257)" d="m0 0 3 1-2 4-6 5-3 1h-8l-6-3-3-5h4l4 3 6 1 8-4z"/><path transform="translate(581,257)" d="m0 0 8 6 2 1h14l7-4 3-3 3 1-1 4-8 6-6 2h-9l-9-4-5-6z"/><path transform="translate(618,294)" d="m0 0h10l7 5 2 6v7l-3 6-4 4-3 1h-11l-6-4-2-4v-12l6-7zm1 2-6 4-4 5v8l4 6 5 3h8l6-4 2-3 1-9-3-6-3-3-3-1z"/><path transform="translate(404,342)" d="m0 0h10l7 4 5 9 2 9 2-3 4-9 3-2-1 4-5 15-2 10-1 11h2v2l-8-1 3-2v-26l-4-12-5-5-3-1h-8l-8 3-4 5-1 3v7l7 14 9 13 2 2 6 1-5 5-3 1v-6l-8-8-15-9-2-1v-2l5 1 7 4-2-6-3-6v-13l4-6 6-4z"/><path transform="translate(443,344)" d="m0 0h10l9 5 4 5 2 5-1 9-3 6-3 2-1-2 4-8v-9l-4-6-4-3-7-2-6 1-4 3h-2l2-4z"/><path transform="translate(638,351)" d="m0 0h4v2l-4 2-2 3 1 7 3 4-5-2-2-3v-7z"/><path transform="translate(646,351)" d="m0 0 4 1 4 5 1 4-2 5-6 5h-6l-1-2 9-2 2-3v-6l-5-5z"/><path transform="translate(371,373)" d="m0 0h4v2l-7 6-4 10 2 10 9 6 12 3 14 1 4-7 1 2-1 9 4 10 5 6-5 2-8 13-3 2 1-7-8 7-4 1-1-2 9-6 12-10-1-6-3-7-2-3h-15v-2l-16-5-6-5-3-6v-8l4-10z"/><path transform="translate(458,377)" d="m0 0 3 1-1 1 6-1 2-1h9l6 4 4 8 1 9-5 8-9 4-7 2 6 2 7 2 5 6v2h2v7l-4 10-6 5h-7l-8-3 3 11v6l-1 2h-2l-1 4-6 4-3 1h-8l-6-4-6-12v-4h-2v8h-2v-23h-4v-2l11-3 3-1v2l-7 4 3 14 6 15 5 3h7l6-3 3-5v-9l-4-8-11-12-6-3 5-8 1 4-1 4h2l4 5 16 9h9l6-5 1-4v-10l-5-5-11-3-19-1v2h-2v-9l2 1v3l16-2 16-5 3-1 1-4v-9l-3-7-6-3-10 1-15 10-6 5 1 8h-2l-6-9 8-3 8-8z"/><path transform="translate(635,384)" d="m0 0h4v2l-5 5v5l4 4h6l4-3v-7l-4-5h3l4 5v8l-4 5h-10l-5-6-1-5z"/><path transform="translate(732,390)" d="m0 0h15l8 2 4 5 2 5 1 10 5-5 6-4h15l6 4 8 7 3 4v14l-3 5-3 1 2-5 2-7-1-7-2-4-10-8-2-1h-15l-5 5-6 9-6 15h-2l3-12 1-3 1-16-4-8-6-3h-20l-6 5-3 5v15l3 14h-2l-7-16-5-8-4-4 4 1 5 6 3 3-1-8 4-10 7-5z"/><path transform="translate(691,402)" d="m0 0h12l2 2h-11l-7 3-8 6-4 6v9l7 12 9 8 15 11h6l3-3-1-5-9-13h3l8 11 3 3 3 2-11 10-3 3-3-6-16-11-16-9h-12l-5 4-4 5-3 9v11l7 8 3 2 9 2 11 1h21l3-1v4h-24l-14 2-9 3-5 5-2 5v11l5 10 6 6 9 1 7-3 13-7 9-6 2 1-13 10-10 10-3 6-1 6 3 8 8 8h-3l-7-6-4-6v-9l5-9v-2l-4 1h-9l-7-3-4-5-5-11v-14l7-8 10-5-2-2-8-4-6-8-1-2v-10l4-11 8-9 2-1h14 3l-4-7-2-5 1-9 8-9 8-5z"/><path transform="translate(378,415)" d="m0 0h7l-3 2-12 6-2 5v9l3 6 5 4 10 1-2 2-10-1-5-4-4-7v-13l6-7z"/><path transform="translate(739,421)" d="m0 0h2v27h8l3-9h2l-1 11 4 3h4l6-7v3l-4 5 2 6h6l12-8 8-6 5-6 1 2-1 2 8-3h12l8 6 4 8v5l-2-2-5-10-5-4h-11l-16 6-3 4-6 3-9 7-3 3-8-9-12-6-3-1h-14l-5 2-3-1 3-1-2-11 2 2 2 5 2 1h7z"/><path transform="translate(290,425)" d="m0 0h22l9 2 9 5 7 8 3 6v14l-4 13 5-3 7-7 9-4h12l7 2 7 7h-3l-5-4-10-3-7 1-8 4-9 7-8 10-9 12-1-3 5-9 5-10 4-14v-9l-3-9-4-5-10-6-9-3h-20l-9 3-5 4h-2l-2 4-3 9v18h-2l-1-4v-16l4-9 8-8 5-2z"/><path transform="translate(232,445)" d="m0 0h12l10 4 8 9 5 10 2 1v-2h2l5 19v5l-2-3-11-23-8-10-7-6-3-1h-13l-9 3-7 7-5 4h-2l-1 3-1-2 7-8 8-6z"/><path transform="translate(522,451)" d="m0 0h13l10 4 6 4 4 5v6l-2-1-3-7-5-4-11-4h-11l-6 4-4 9-2 17v18l3 1v2l-15 2-10 5-6 7-1-2 1-7-7-6-5-5-12-10-7-3h-7l-6 3-8 14-2 2-1-3 5-9 8-9 4-1h9l12 7-5-10-1-10 6-10 14-7h14l6 4 6 9 1 7v5h2l1-11 2-7h2l2-4 4-4zm-40 4-12 5-7 8-1 9 5 10 8 12 10 11 5-1 17-6 1-1v-11l-3-21-3-9-7-6z"/><path transform="translate(394,458)" d="m0 0h2l2 7 6 6 4 1h11l6-5 3-7 1 3-4 9-3 3-3 12-4 27-1 13-3 27-1 21v42l1 7 16 2 7 4 4 5v14l-1 2 6-4h4v2l-8 4-10 9v5l-5-5 5-5 5-8 2-4v-10h-2l-3-3-7-4h-13l-4 2-1-62-2-13 2-1 2 1 3-31 3-24 3-18v-5l-5 1-5 27h-2l1-12 2-18-9-4-4-6z"/><path transform="translate(204,467)" d="m0 0 2 2-6 12v11l6 9 5 5 10 7 18 8 1 2-22-4h-18l-9 3-6 5 2-5 8-5h26l2 1v-2l-6-2-11-8-7-9-2-5v-12l6-12z"/><path transform="translate(828,470)" d="m0 0h1l-1 7-7 6-7 3h-3v2l6 1 8 6 3 4 1 3v9l-2 9-6 9-5 3h-3v-2l6-4 5-7 3-11-1-7-4-6-8-4-11-2h-28l-3 1v-9h2l1 4h25l16-3 8-4z"/><path transform="translate(386,472)" d="m0 0 3 1 7 12 3 9v17l-4 9-10 7-8 3h-3l1 2 14 3 11 5 1-3 1-17 1-2 1-11 2-1v8l-3 26v9l-7-7-7-4-9-2h-30l-10 1-1 1-1 7h-2l-1-13h3l1 1h9l28-5 14-8 5-6 1-2v-19l-6-14-4-5z"/><path transform="translate(554,473)" d="m0 0h1v6l-4 9 9-7 6-2 11 1 8 7 6 12 1 3v8l-6 10-10 5-1 2h12l6 3 5 6v18h-1l-1-15-3-6-5-3-31-1 4-2 15-5 8-5 4-5 1-7-3-11-8-10-2-1h-12l-8 5-14 12-5 5 2-4 11-18z"/><path transform="translate(771,492)" d="m0 0h2v5l2 1v2l-4 1-2 4 1 6h-6l-3 2v6l2 5-7-6v-3l10-10 4-8z"/><path transform="translate(706,500)" d="m0 0 3 3 6 8 9 6 9 2v2l-7 2-2 1-1-5-4-2-6-1-2-8h-5z"/><path transform="translate(319,499)" d="m0 0 1 3 1 4 6 4 7 11v2h-2l-4-7-9-9-7-4v-2z"/><path transform="translate(536,505)" d="m0 0v3l-1 5 6 7-1 3-7-8-7-6-2-1 1-2 4 2 4-1z"/><path transform="translate(428,515)" d="m0 0h2l7 8 13 5 13 3v2l-25 1-8 4-4 7v10l3 10 4 6 2 2h15l12-6 15-9 4-4 6 9-4-1-1-2-5 1-10 7-13 11-4 5-1 4v10l5 7 5 5-4-1-7-8-2-4v-9l3-8 4-4-19-1-6-5-3-9-1-4v-15l4-7 8-4 6-1-5-4-8-7z"/><path transform="translate(776,516)" d="m0 0 4 1 21 13-2 1 5 11v9l-6 9-10 7h-2v2h9l6 7 1 8 2-1 2-5 1 3-3 14-1 6h2v2h-11l1-2 5-2v-11l-3-13-3-3h-9l-6 3-1 2h-2l2-4 4-2v-2h-8l-3-3h11l10-4 7-8 2-4v-7l-7-11-10-9-8-6z"/><path transform="translate(748,518)" d="m0 0h5l-3 4 2 9h-2l-4-9-1-3z"/><path transform="translate(242,523)" d="m0 0 10 1 2-1-2 9h-2l-1-4-7-4z"/><path transform="translate(184,527)" d="m0 0 1 4-3 8v18l3 12-2 1-4-12v-20l4-10z"/><path transform="translate(719,539)" d="m0 0 1 3-3 11v14l4 7 6 3h19l7-4 3-8v-9l-3-17h2l6 14 7 9 3 4-5-1-6-8-1 10-4 8-7 5-1 10h-2l-1-8h-8l-1 12h-2l-1-12-10-4-7-8-2-9-1-1-4 4-5 3-4 1h-7l-4-2 4-1 9-1 6-3 5-7 6-14z"/><path transform="translate(542,548)" d="m0 0h2v6l15 9 18 6 10-1 7-6 2-6 2 2-3 6-5 6-5 2h-8l-9-2h-4l-8-6-11-6-4-1-4 6-5 2 6-8z"/><path transform="translate(253,556)" d="m0 0 2 3 5 10h-6l-10 7-11 9-7 6-6 7-1-3 10-10-15 3h-12l-9-3-5-4-2-4 1-3 7 8 10 4h8l12-3 15-8 10-5 4-3z"/><path transform="translate(330,564)" d="m0 0 1 3-3 4v4l-7 2-4 3-3-1 9-7z"/><path transform="translate(530,565)" d="m0 0 2 1-4 4h-2l3 9 6 14 8 13 4 4-4-1-6-7v-2h-4l-8-24-4-4v-2z"/><path transform="translate(494,568)" d="m0 0 10 3-1 3-4 4-4 16-3 7h-2l-1 3h-2l2-6 5-13 3-9-1-5-2-1z"/><path transform="translate(675,571)" d="m0 0 9 2 11 4 14 8 7 7 8 10 7 14 1-9h2v12l-1 8h-2l-6-16-5-10-5-5-3-4v-2l-4-2-10-6-13-6-11-2 1 16 3 8 1 2-9 1-15 10-1 5-8-5v-1l6-2 5-10 1-4h2v5l-3 6 9-5 6-3-1-11v-13z"/><path transform="translate(813,571)" d="m0 0h7l3 3-11 1-4 1z"/><path transform="translate(568,572)" d="m0 0 5 2 5 6 2 4v8l-6 11-8 7-9 3h-6l-4-3 13-1 8-5 6-6 2-5v-10l-4-6z"/><path transform="translate(645,572)" d="m0 0 6 1 6 4 3 4v3h-2l-4-6-4-3-5-2z"/><path transform="translate(331,577)" d="m0 0 7 6 15 11-3 1-2-1 4 5-1 2-9-10-7-8-4-4z"/><path transform="translate(286,584)" d="m0 0h14l-1 2-7 2-1 3h-2v-5h-3z"/><path transform="translate(398,587)" d="m0 0h2v18h-2l-1-10h-3l2-5z"/><path transform="translate(775,579)" d="m0 0h2l3 10 8 13 5 1-2 4-5 3v-7l-7-7-11-7h-5l-3 1-2 4-2 5h-2v-5l7-7h10l6 3-2-4z"/><path transform="translate(288,595)" d="m0 0h2v25l-4-4-1 6h-2l4-17z"/><path transform="translate(630,574)" d="m0 0 3 1-5 5-2 3v12l5 13 2 1h12v1l-11 1-9 5 2-4 1-3-4-9-6-7-5-2h-8l-6 4-4 7v11l5 5 7 3 6 2h7l2-2v5l-2 1h-10l-10 2-6 4-3 4v10l5 9 5 3 9 1 8-5 7-8 1-3-3-5 1-2 7 6 3 3h-5l-7 12-2 12 3 6 4 3 3 1h13v3l-1 37-1 9h-2l-2-9-8-12-7-5h-6v10l7 9 11 9h6v9l-3 20-6 24-3 13v2h4l3-9h2l-1 9h10l1-4h2l1 5h12l2-5 2 1 2 4h12l1-3-3-11-5-9 1-2 4 3 1-2 4 18 2 6h15l2-4 1 4h28l-1-15-4-18h3l4-33h2v18l3-9 10-22 6-9h2l2-4 7-8 2 1-1 12-3 24v32l2-35 3-20 2-13 5-22 3-13-7-7v-10l4-8-7 3h-9l-5-5-2-4v-12l5-5 5-2h4v-2l-6-2-5-3-1-6h2l5 6 14 5h9v6l-3-2h-9l-13 3-4 3v10l4 6 2 1h7l8-5 8-4-2-10 2-1 3 7 3 5-5 2-8 10-3 6 1 8 6 5h9l3-1 3-10 1-15-1-3h5l1 3v11l3 12 1 3 9 1 8-5 1-1v-7l-10-16-6-2 8-8-1 8 11 9 5 3h7l5-5 1-2v-9l-5-4-15-4h-5-3v-7l-5-10 5-2 8-8 4-8-1-9-3-4 4 2 2 3v11l-4 6 8-3h7l7 6 1 2v12l-6 5-5 2h-6v2h6l9 6 1 3v7l-5 8-4 3h-8l-6-3 3 9-2 6-6 6h-13l-5-6-2-5v-3h-2l-2 9-5 5-5 18-3 12-1 9-5 30h-2l1-15 3-17 3-14 2-10 2-12h-4l-5 16-6 27-1 10-2 14-2 40 2-1 2-3 1 3-4 13-1 13h18l2-3h2l2 3h25l3-3 1 3h18l2-7h1v7l-3 3h-666l-1-1-3-25-1-11h5l9 8 4 6-1-10-8-21-4-10-6-11 1-3 6 2 11 7 10 9 7 6 8 11 10 18-1-15-4-16-6-20v-5l5 1 10 12 8 13 8 15 5 16v4h2l1-12 5-19 3-5 4 1 8 9 10 15h1l-3-28v-7l-24-4-10-3-16-8-6-4v-2l5 2 12 6 12 5 7 2 15 1-3-5-10-9-7-7h3l10 10 8 7 3 2-2-8v-5h2v-71l-7 3h-18l-11-4-10-7-7-6-6-10-1-3v-12l3-6h2l-2 7v10l4 10 11 10 16 8h20l8-6 2-3v13l-1 13v61l1 23 5 39v5h-2l-4-12-2-7h-2l-12-17-3-3-3 1-4 13-2 12v22h14l1-7 2 1 1 6h14l1-7h2l2 7h8v-9l-1-10 5 2 1 17h16l-1-7-2-5v-5l1 3h3v-6h2l1 19 1 1h8v-19l-1-25-2-1 2-4h3v24l3-1-1 7v16l1 3h12l-1-8-8-19h-2l1-5h2l4 10v2h4l3 19 1 1h14l1-2h2l1 2h3l1-6 1-17h2v3h3l-2 12v8h22v-10l4-2 1 3-1 2v7h8v-16l4-1 1 2-1 15h10l4-5 1 5h10l1-2 4 2h26l1-6 2 1 1 5 7-1v-13l-3-16-2-20v-31l5-2v4l10-2 9-4 10-5 14-12 7-10 6-12 5-16 1-15-8 1-15 6-10 6-10 9-8 9-7 11-3 9-4 14h-2v-17l3-26 5-27 3-15 6-20h2l1 9 5 8 7 3v2l-7-1-6-7-3-1-2 10-4 16-4 26-3 22-1 3h2l3-9 3-6 7-9 8-9 9-7 11-7 10-4 8-2h7v11l-4 19-5 11-7 12-11 12-8 6-15 8-18 4 1 20 3 29 2 1 1-9 7-16 6-10 8-8 7-8 5-2v7l-4 19-1 10 4-1 2 5 1 10 2 1 2-11 4-10 9-16 4 1 1 1 1 17 4 22 2 4 4-12 3-8 5-6 3 1 2 15 1 9 1 1 6-17h4l2 5v3h-2l-1-3-2-1-3 11-2 8v13h7l3-1v-18l-1-6 3-1-3-26v-4l-3-1 3-3 4-3v-9l-3-5-1-3 5-1 3 7 3 3h7l4-4 1-2v-6l-3-3-11-3-1 4h-1l-1-10-4-4-4-2v-2l3-2v-13l-3-3h-7l-4 4v11l4 4v2l-6 4-2-6-6-6-4-2h6l5 3v-11l3-4 3-1h10l5 4v10l7-4h7l4 2 4 8-1 5-2 1-2-10-2-2h-9l-6 6 1 4 4 6 10-2 3-1-2 4-4 1-1 2 7 1 3 3 1 8-6 8-2 1h-8l-3-2 2 9v6l-2-4v-2l-4 3v9l1 11v31l1 6h2l2-2 2 3h15l1-1 1-9h2v10h14l2-1v-15l-4-18-5-10-4 1-10 10-10 18-3 10-2-1v-47h2l1 7v26l2-1 5-10 4-6 8-7 3-4h5l5 10 5 14 1 5 2 1 5-25 3-16v-5l-11-7-9-9-5-9v-8l2-2h11l8 7 4 5v2h2l-1-30-12-3-7-6-2-5v-10l-6 2h-10l-10-8-3-7v-12l1-2h2l2-4 5-4 7-1v-2l-7-2-6-7-1-3v-7l4-8 5-6 4-2h11l6 4 2-10 4-6zm204 21-10 5-8 6 1 9 2 4h12l12-3 4-4v-10l-3-5-3-2zm-72 111-8 10-7 12-10 25-3 14-1 10v21l2 3h26l2-2v-9l-2-14v-42l3-22v-6zm-551 21-1 2 7 22 2 16 4 33 1 1h19l1-1v-7l-5-21-9-21-1-2h-2l-2-5-10-14zm299 1-10 10-8 13-7 15-2 8-1 9v17l1 1h17l1-3h2l1 3h22l1-1v-9h2v9l1 1h13l1-1v-20l-2-10-4-27-3-2-6 10-6 14-3 14v5l-2-1-2-14-1-5-4 1-3 6h-1l4-31 2-10zm-339 2-1 2 3 7 5 11 6 15 1 8 3 14 2 13 1 1h29l1-3-3-14-8-16-7-11-11-12-10-9-9-6zm386 32-5 10-4 13-1 6v9l1 1h16l1-1-1-17-4-21zm-388 8 3 30 1 1h14l1-5-3-10-4-6-9-10z"/><path transform="translate(534,602)" d="m0 0h2v13l-3 7-9 5h-6v-2l10-3 4-5z"/><path transform="translate(459,610)" d="m0 0 10 3 11-1-3 11-5 19-2 16-4 29h-2v-10l-6 2 3-5v-11l-3-8-6-5-3-2 4-1 6 4 5 11v3h2l5-32 3-11 1-6-3 1-7-2-6-3z"/><path transform="translate(743,616)" d="m0 0h2v20l-5 51-4 35h-1v-13l1-11 1-16 4-40z"/><path transform="translate(289,625)" d="m0 0h2l2 9 1 6-2-1v-2h-2l-1 2-1-1z"/><path transform="translate(657,628)" d="m0 0h2l1 4 21 1v2l-5 1 7 8 2 5h-2l-4-6-14-7-6-1-4 1z"/><path transform="translate(400,630)" d="m0 0h2v3h3v14l2 8 2 5-6 3-6 5 2-5 5-4-2-9-2-5-3-1v-2l2-1z"/><path transform="translate(696,632)" d="m0 0 5 2 17 8 10 1-3-5v-3l5 3 1-6h2l-1 16h-3l-8-3-10-3-13-7z"/><path transform="translate(178,645)" d="m0 0h7l1 2-5 1 2 13 2 8-2 1-3-8-3-12z"/><path transform="translate(645,644)" d="m0 0 4 1v6l2 6h2l5 8 4 3v2l-5-2-3-3v-2l-4 1-2-9-4-7-8-1v-2z"/><path transform="translate(187,646)" d="m0 0 9 1 13 4 14 6 10 7 9 7 11 11 6 8 6 10 6 13v2h-2l-12-24-5-5-9-11-10-8-14-8-14-6-18-5z"/><path transform="translate(286,665)" d="m0 0h2v60h-2l-1-24v-18z"/><path transform="translate(382,669)" d="m0 0 11 2 3-1-1 9h-2v-4h-16v-2l4-1z"/><path transform="translate(185,672)" d="m0 0 2 3 9 15 5 10-3-1-7-11-6-12z"/><path transform="translate(332,673)" d="m0 0 2 1-11 8-11 10-6 7-1-2 9-11 8-7z"/><path transform="translate(372,674)" d="m0 0h3v2l-7 3-2 2-1 10h-2v-9l3-6z"/><path transform="translate(432,676)" d="m0 0h2v4h18v2l-6 2 2 3-2 1-7-3h-5l-7 9-3 3 1 7 1 4h-5l-2-8-6-1v-2l9-3 5-3 4-7z"/><path transform="translate(396,687)" d="m0 0 7 6 3 3h-7l-7 11-2 4-1-3 1-3-3 3-5 9-2-2 2-6-3-1v-2l8-3 10-9z"/><path transform="translate(545,690)" d="m0 0 3 1-5 5v9l3 3 5 1h7l3-1 2 9 3 3 3 1v2l-3 2-1 4v7l3 4 3 1v2l-6-1-2-4v-9l-10 5-5-2 9-3 5-5v-4l-4-7-12 1v-3l-5-4v-12z"/><path transform="translate(840,694)" d="m0 0 2 1-1 7-5 14-6 16-2 12-3 19-2 19h2l-1 5-3 6h-2l2-27 4-22 4-19 6-15 3-7-1-4-16 8-12 8-16 16-6 8-1-3 9-11 10-10 11-8 9-6z"/><path transform="translate(543,715)" d="m0 0 2 1v10l3 5-4-2-3-5v-7h2z"/><path transform="translate(388,717)" d="m0 0h2l4 6 5 3v2l-5-2-3-2h-5z"/><path transform="translate(355,725)" d="m0 0 2 2v32h-1v-27l-4 4-2-1z"/><path transform="translate(287,730)" d="m0 0 2 4 2 1-1 15 7-5-2 5-1 4h4v2l-6 3-1 2h-2l-1-7v-9z"/><path transform="translate(432,736)" d="m0 0 5 2 11 10 6 8v2l-3-1-7-9-7-7-3-1-1 3h-2v-6z"/><path transform="translate(647,737)" d="m0 0 2 3 5 1-6 6-2 6h-2l2-15z"/><path transform="translate(721,737)" d="m0 0 2 1v13h-2l-3-7 1-4z"/><path transform="translate(774,739)" d="m0 0h2v11h2l2-6 4-5 2 1-13 25-2 3 1-14z"/><path transform="translate(403,742)" d="m0 0 2 1-3 11-2 1 1-7-4 2-5 5-2-1 4-5z"/><path transform="translate(665,746)" d="m0 0h2v9l-2 1-1-5-6 4-9 10-7 12-4 11h-2l7-28h1v6l5-5 7-8 7-6z"/><path transform="translate(389,755)" d="m0 0v3l-8 13-2 4-1-3 5-10z"/><path transform="translate(303,760)" d="m0 0h3l5 18-2 1-4-12v-2l-3 3h-2l2-7z"/><path transform="translate(846,760)" d="m0 0 4 1-8 24-1 6-2-2 1-9 5-16-5 3-9 9-3 1 1-4 8-7 6-5z"/><path transform="translate(465,767)" d="m0 0h2l3 19v5l-2 1-5-15v-5h1z"/><path transform="translate(422,768)" d="m0 0h2l1 6h3l-1 20h-1l-3-21z"/><path transform="translate(359,781)" d="m0 0h2v2l4 2-1 9h-2z"/></svg>
