<?xml version="1.0" encoding="UTF-8"?>
<svg version="1.1" viewBox="0 0 1024 1024" xmlns="http://www.w3.org/2000/svg"><path transform="translate(617,187)" d="m0 0h16l11 4 10 8 2 5h2l5 12 2 9 3 28 5 17 1 5v17l-4 11-6 10-11 12-5 4h-2v2l12 1 12 3 9 5 10 8 7 10 3 10v10l-4 12-6 8-6 5-11 5-7 2h-21l-12-3-15-6-10-6-6-3 3 10 1 6-2 5-1 1h-7l-9-6-7-9-4-9-3-10-3-4-12-5-6-5-4-8-1-4-8-1-5-4-2-5 1-7 1-4-11-8-6-2-9 1-4 1 1-3 3-1h12l7 3 10 8-7-11-7-6-8-2h-5l2-2h10l12 9-9-20-7-21-3-22v-20l3-16 6-12 8-7 5-2h8l10 4 8 7 9 12 12-15 8-8 9-6 12-6zm2 2-11 3-13 8-10 9-10 13-9 16-6 16-5 16-3 15-1 22v25l1 2 1 10 10 6 12 10 8-1 13-4 26-12 13-8 7-4 15-13 6-8 3-3 5-12 1-5v-14l-6-26-4-29-4-12-5-8-8-7-9-4-4-1zm-81 13-10 5-7 10-4 11-1 12v14l1 15 5 19 8 21 11 21 6 4 3-1v-31l2-18 2-15 5-16-1-3-5 7-6 3h-8l-6-4-3-6v-14l4-6 6-5 8-1 6 3 2 3h2l1 5v14l2-1 6-15 3-5-2-5-7-9-4-5-10-6zm3 24-7 5-3 6-1 10 3 7 5 4 2 1 9-1 5-5 3-5 1-4v-7l-3-7-5-4zm-7 96 2 5 1-3zm3 5m1 1 1 4 1-3zm103 5-18 11-24 11-20 7 2 5 8 9 9 11 9 6 19 10 19 5h18l13-4 6-3 8-7 5-10 2-8v-7l-3-10-6-9-9-8-15-7-15-2zm-103 1-4 4-1 6 3 5 4 2 7-1 4-5v-6l-4-5zm14 12-3 5 1 9 4 6 9 6 9 3 3 9 4 10 6 9 5 5 6 4h5l1-1v-9l-6-14-10-14-6-7-5-5-10-9-10-6z"/><path transform="translate(612,213)" d="m0 0h9l10 4 5 5 5 8 1 3v12l-4 9-6 7-7 4-12 1-10-2-5-4-6-8-2-6v-12l5-10 9-8zm2 2-9 3-7 6-5 8-1 4v9l4 9 5 6 9 4h10l9-4 5-4 5-9 1-4v-8l-4-10-8-7-8-3z"/><path transform="translate(633,282)" d="m0 0h10l8 6 3 8-2 9-5 6-8 3-8-1-6-3-4-7v-10l6-8zm0 2-6 4-3 4-1 9 3 6 5 4h12l6-5 2-4v-9l-4-6-5-3z"/><path transform="translate(401,334)" d="m0 0h8l7 4 4 5 3 6 3 12 5-14 1-2h2l2-4 3-3 4-2h8l10 5 5 5 3 9-2 9-4 7h-2l-1 4-2 3 10-5 3-1h7l7 4 5 10 1 8-4 8-6 4-14 4h-2v2l10 1 9 4 4 5 2 4-1 8-3 6-4 5-4 2h-7l-10-4h-1l5 9 1 9-3 6-6 5-5 2h-8l-6-3-6-10-2-5v-4h-2l-1 12-3 9-6 6-3 14-1 10-5 36-3 32-1 23v35l1 14h11l10 2 8 6 2 4v9l-3 8 8-5h12l6 5 5 11 1 5h1l6-35 5-18v-2h-7l-10-4v-2l-5-2-7-7-4-8 1-10 5-8 5-5-9 2h-12l-8-5-4-9-2-8v-13l5-9 7-4 13-2-9-4-6-4-5-6v-15l6-12 6-7 7-3h7l14 7 4 3v-2h-2l-6-12-1-9 3-7 4-5 14-7 3-1h12l7 4 5 8 3 10v6h2l1-11 3-9 6-7 6-3h10l12 4 8 5 4 5v16l-6 12 12-9 9-3 9 2 7 6 6 10 3 7v10l-6 9-11 6h-3v2h12l10 5 4 5 2 8-1 13-3 9-6 7-5 2h-11l-9-3v2l4 2 7 7 3 6v8l-5 10-7 7-8 5-3 1h-9l-8-4-7-9-2-2 1 5v12l-3 7-8 6-8 1h-13l-8-2-7-8-2-2-8 30-3 15-2 17-3 26h2l1-5 5-12 1-2h2l2-5 11-12 9-8 11-7 12-5 12-4h5l1 1v9l-3 16-6 17-7 12-9 11-9 8-17 10-10 3-13 3v17l4 40 1 4 2-12 7-17 5-10 11-13 4-5 8-7h2l-2 11-2 10-2 12v10l3-5 2 1 3 18h2l2-10 3-10 12-21 3-1 1 4 2 21 3 18 2 8 2 1 1-8 7-16 5-7 2 1 4 28 1 3 5-16 3-7 3 1 3 9v3h2l-2-24-2-10-11-1-4-5-1-7v-4l-5 4-5 2-5-1-5-4-3-7 1-6 7-6-6-4-3-3v-9l4-6 2-2h10l7 6-1-13 3-5 4-2h10l5 3 2 4v10l5-4 4-2 8 1 5 6 2 7-3 5-5 4-5 1v2l7 1 5 6v7l-4 6-3 3h-9l-5-3 2 6 3 21 1 11v18h2l2-6 7-11 5-4 7-8 2-2h4l4 10 4 9 3 11 1 7 3-8 7-30 2-16-8-5-8-6-7-7-6-12 1-8 1-1h11l8 7 7 8 2 4v-37l-13-2-8-6-3-7v-8-4l-5 3-10 1-8-4-6-7-3-7v-10l5-8 6-4 10-2-12-6-4-5-2-6 1-7 4-8 7-6 5-2h7l7 3 3 3h1v-10l4-8 6-4 7-2 11 1 7 3 5 5 1 3v15l-4 9v2l11-7 7-3-2-14v-13l5-1 15 4 19 10 6 5 4 5 5 5 8 14 2 7h2l1-23v-16l-11-3-7-8-2-5-1-12-4 7-10 6h-10l-11-6-8-7-4-8v-8l5-10 3-1v-2l-11 3-10-2-7-6-3-6-3-9v-13l6-9 8-4 7-2-14-7-5-6-2-4v-11l4-12 8-9 5-2h10l10 4-7-9-3-9 1-8 9-10 9-6 6-2h7l5 2 7 5 4 7 2 1-1-9 4-11 6-5 9-3h11l10 3 5 4 4 9 1 11 7-9 9-4h7l10 4 8 7 5 6 1 3v10l-4 8h-2l-3 6h-2v2l11-4h11l5 3 5 4 4 10 1 5v13l-4 6-8 6-10 3 12 4 6 5 3 6 1 3v8l-3 10-6 9-6 4h-13l-7-1 5 7 2 6v9l-6 9-9 7-6 3-9 1-10-5-9-12v13l-4 10-9 6-2 42v13l-5 57-6 57v9l-1 2v16l6-19 9-21 10-15 9-11h2l-1 14-3 20-1 13v23l2 20 1-45 3-25 5-26 4-17 3-14-5-5-3-4v-8l6-12-11 5h-7l-6-4-3-7v-10l3-5 6-3 9-2-10-4-5-4-1-3v-11l7-8 2-1h8l9 5-3-9 2-10 5-4 5-2h9l6 5 3 12 2 1 1-6 4-6 4-3h8l8 4 4 6-1 9-6 9 11-4h7l6 4 3 7v9l-5 5-6 3-9 1v2l7 1 9 5 2 3v9l-5 8-4 3-6 1-8-3-3-2 4 9-1 7-5 6-7 3-9-1-5-6-3-8-1-4-3 12-7 7-3 12-8 37-4 29v15l8-14h2l2-5 13-15 10-9 7-5h2v-2l12-7 15-7h2l-1 6-8 20-6 18-5 28-2 25h2l2-5 7-9 9-8 9-4 1 2-7 17-3 14-1 12-2 2h-728l-1-1-1-18-4-20 4-1 11 9 7 10-1-10-7-21-8-18-6-11v-3l6 2 12 7 10 9 6 5 7 8 7 10 9 17 1 6h2l-3-19-1-10-5-18-4-13-2-6v-3l4 2 10 11 10 15 9 17 7 21v3h2l1-12 5-21 3-7h3l9 9 7 10 7 11v2h2l-2-10-4-34-1-1-21-3-13-3-24-12-1-3-4-2-8-7-8-8-11-16-5-11-5-13-4-17 1-3 12 1 15 3 19 8 12 7 12 9 8 8 10 13 10 18 3 8v3h2v-51l2-28-8 4-4 1h-14l-10-3-11-6-9-7-7-8-4-11v-10l7-14 13-13-22 6h-8l-11-4-6-5-7-14-3-12v-19l3-9 6-9 9-6 4-1h20l7 2v-2l-6-2-11-7-7-8-3-4-2-6v-12l5-12 2-3h2l2-5 10-10 9-6 10-3h10l10 4 8 8 9 15 2 1-3-13v-11l3-10 4-6 8-6 9-3 6-1h11l15 2 13 7 7 8 3 7 1 9-4 16-3 8 5-5 10-9 10-5 3-1h7l9 3 9 7 8 9 6 10 3 9 1 4v14l-4 9-6 5h-2v2l-13 6-6 2 17 3 10 4 6 4 1-14 5-36 3-23-9-3-5-6-2-6 1-8 3-9 4-8-6 5-4 4-11 4-8-1-6-4-5-8-1-12 4-6 5-4 11-4h5v-3l-10-1-10-4-5-5-3-6v-8l4-11 8-7h14l12 7h1l-8-16v-11l4-6 7-6zm1 2-10 4-5 6-1 3v8l4 10 9 14 8 10 6-2 5-2 6-2v-16l-2-15-3-9-6-7-5-2zm43 2-8 4-5 8-4 13-3 18 1 6 12 5 5-1 8-8 10-13 5-10v-9l-4-7-9-5zm-76 31-6 3-6 8-2 8 1 9 5 5 7 4 13 3 16 1 4-9 4-7-1-5-10-9-14-9-4-2zm103 5-9 4-10 6-10 8-2 3 5 10 2 5 17-2 15-4 6-4 3-7-2-9-4-6-4-3zm-51 14-8 2-5 3-5 5-3 10v7l4 10 8 7 4 2h12l10-5 6-9 1-3v-12l-6-10-5-4-10-3zm335 1-7 3-4 5-2 5v14l6 25 4 9 3 1 8-1 1-31h2l-1 18v13l10 1 8-24 3-13v-12l-4-8-4-3-5-2zm-38 12-8 2-10 7-5 6-1 3v10l6 10 7 7 17 13 7 5 4-1 5-4-1-5-15-21v-2l3 5 5 5 9 13 3 2 7-4-6-22-6-14-6-9-6-5zm84 2-7 6-11 21-5 17-1 5 7 5 4-1 15-20 3-3-6 10-8 10-3 4 1 5 3 3 5-1 12-8 11-9 7-7 5-9 1-3v-7l-4-8-10-8-4-2zm-355 9-2 9-2 5 8 8 15 9 6 2 7-1 5-4 3-7v-9l-6-7-9-3-16-2zm-58 1-14 2-12 6-4 5-1 9 5 10 5 4h12l10-6 11-10 3-2-1-5-3-6-2-6-1-1zm-113 13-9 3-9 7-1 3h-2l-2 6-1 14 2 15 6 21 4 10 6-1h18l13 4 5-1v-2h2l12-23 3-6 4-14v-14l-4-8-8-7-10-5-9-2zm164 2-6 5-6 3 1 8 5 16 4 8 4 4h11l6-3 4-6 1-6-4-10-13-15-5-4zm-34 3-7 10-6 10-2 5v11l6 7 6 3 10 1 6-3 5-6 2-7v-25l-12-3-6-3zm275 10-6 4-3 3v2h-2l-4 11v13l4 6 5 4 16 4h33l1-5v-6l-27-9h-3v-2l18 6 10 3 5-1 3-5-1-4-18-13-8-5-11-5-3-1zm157 3-16 6-5 3v2l-5 2-13 9-2 4 4 7 8-1 23-6-2 1-26 8-2 1 1 10 1 1h25l14-2 11-4 5-4 3-6v-10l-5-13-4-5-6-3zm-625 4-10 4-9 7-10 10-8 16v11l4 9 7 8 9 6 20 10 12 4 5 1 7-11 9-10 8-5 4-2-2-10-8-19-11-18-7-7-8-4zm545 4-12 4-10 8-7 10-3 10v12l3 10 7 10 7 6 9 5 4 1h15l11-4 12-11 6-12 1-4v-14l-4-11-6-9-5-4-10-5-7-2zm-227 3-7 4-4 4-3 9-2 23v14l14 3 10 5 9-11 10-16 5-10v-9l-3-6-6-5-15-5zm-45 2-11 4-8 6-3 5-1 7 4 11 8 12 9 11 5 5 5-2 8-4 10-3 1-1v-9l-4-25-3-10-6-5-3-2zm-133 6-9 3-11 8-9 10-8 11-6 8-4 6 1 3 5 4h2l2 4 5 7 6 16 5 1 26-4 13-4 13-7 7-8 1-5v-16l-5-12-8-12-9-8-8-4zm56 17-2 2-5 30-1 12-3 26v7l4 11h2l3-31 4-29 4-25v-3zm-87 2m254 4-8 4-10 9-6 5-7 8-5 7 8 9 5 11 9-1 21-6 10-4 7-6 2-5v-7l-4-11-7-9-6-4zm-130 4-8 4-6 8-4 8-1 3v9l4 7 8 5 17 5 9 2h13l4-11 5-8v-4l-16-16-11-8-10-4zm264 0-17 1-16 3-8 6-3 6v14l6 12 8 6h11l16-8 18-13 5-4-1-5-3-5-5 1-18 5-8 3v-2l12-3 18-6v-10l-1-1zm93 3-2 10 9 4 18 6h3l-1 2-25-9h-5l-4 6 1 5 18 12 15 9 7 2h9l7-5 5-8 3-10v-8l-6-9-9-5-15-2zm-246 2m-286 10-10 2-8 5-11 10-7 12-3 10v14l5 15 6 9 5 5 8 6 13 5h21l10-4 10-7 9-10 4-7 2-9v-19l-3-10-6-10-8-8-10-6-4-2-7-1zm240 6-10 3-9 5-8 9-4 11-1 4v9l4 14 9 10 8 5 8 3 4 1h7l9-2 10-6 7-7 6-11 1-4v-13l-3-10-7-9-7-6-7-4-9-2zm219 4-19 14-8 7-8 9-3 8 1 8 7 9 6 5 8 3h7l8-4 6-7 8-18 5-14 1-8-7-4h-4l-11 16-6 8-2 1 12-17 6-8-1-5-3-3zm62 2-5 5 1 5 7 10 2 3h2l2 5 4 6-5-5-8-12-8-9-5 2-3 2 3 11 4 13 7 14 9 10 4 2h10l10-5 7-7 3-7v-7l-5-9-4-5-11-9-5-4h-2v-2l-11-7zm-614 9-10 3-6 5-5 11-1 5v17l3 12 4 10 6 7 9 4 9 1 15-3 27-14 5-4 3-2-1-4-4-11-1-19 1-7-5-3-16-5-18-3zm574 3-3 4-5 17-4 16v12l4 8 4 4 6 2h17l6-3 5-5 2-7v-8l-3-19-7-20-1-1-10 1-1 1-1 31-1-32-1-1zm-173 8-23 3-3 3-1 14-1 9 19 10 17 6h10l6-4 2-4h2l3-10v-14l-4-8-7-4-5-1zm-141 5-8 3-5 5-2 5v11l3 12 5 7 3 2h14l12-5 10-6 11-7 1-3-4-13-1-8-2-2-8-1zm-91 2-19 2-2 16-6 16-5 6v2l8 7 9 8 14 10 14 7 3 1h11l8-4 6-5 7-11 5-15 1-13-2-9-6-9-10-6-14-3zm202 23-6 8-12 9 9 20 6 11 5 7 6 4 9 1 9-4 10-9 4-9-1-9-3-5-10-9-13-8-10-6zm-67 3-13 9-13 11-7 8-2 7 1 8 4 6 10 8 7 3h10l5-3 6-8 5-11 6-16 2-7-10-7-5-4h-2l-2-4zm-80 8-4 16-3 7v23l1 22 1 6h2l4-5v-69zm-165 2-15 10-5 5-9 7-6 7-5 5-4 11v9l4 10 7 8 5 4 15 9 6 2h18l7-4 6-7v-2h2l3-8 5-19 4-23-1-4-15-4-9-6-7-6-3-4zm580 3-8 4-3 4 1 8 5 10 7 10 5-1 8-3v-15l-3-12-3-4zm-292 2-5 1h-15l-3 7-5 19-1 5v13l5 8 5 4 7 2h8l12-3 6-5 2-6 1-9-1-5-8-24-3-7zm127 1-6 3-6 9v9l4 12 3 6h15l6 2 8-14 2-7v-8l-4-6-5-4-5-2zm44 0-3 2 1 16 3 9 8 4 6 7 2 7v14l10 8 14 7 11 3h6l-1-4-11-13-10-13-5-5-11-13-1-3 5 5 14 17 8 10 5 6 3 4h2l2 4h2l1-13-4-13-8-15-9-11-10-8-12-6-9-4zm149 0-5 4-4 14-2 11 10 6 4-1 12-13 3-6v-7l-3-5-6-3zm-533 1-9 7-11 4-14 2-2 2-1 14v18l1 14 5 13 4 6 8 5 12 2 15-3 12-5 9-6 6-7 4-10-1-11-7-14-12-14-7-8-9-9zm456 7-7 1-1 1-1 20-1 35-10 100-1 17v13l6 17h2l5-48 1-17 6-62 3-40 1-17v-19zm23 9-6 5-3 6 1 7 6 5 9 4 9 2h5l4-8 1-1v-5l-10-9-10-6zm-170 1-8 4-6 8-1 3v9l4 6 8 4 13 4 4-1 5-9 5-5-3-9-8-10-5-3zm-284 4 6 8 8 16 1 4v8l-4 10-7 8-6 4-17 7-10 2h-7l-13-4-5-5-5-8-1-3h-2l-3 34v59l1 15h2l3-14 5-13 8-14 12-14 12-9 13-8 15-5 1 4v18l-3 16-4 12-7 14-10 13-9 8-11 7-10 5-13 4-1 5 1 12 2 11h2l3-11 6-14h2l5 20 3 9h2l2-15 4-12 6-11 3-2v28h2l5-10 6 15h2l1-21 3-17 7-16 3-5v-2h2l1 42 3 20 1 3h2l2-25 1-4 6-21 10-25 3-6v-2h-9l-6-3-4-5-3-9v-11l2-6 5-2 14-3v-2l-10-5-4-5-1-2v-8l3-6 7-8 7-3 9 1 6 5h2l-1-28-1-25-4 2-5 5-9 5h-13l-16-8-7-4zm534 1-7 3-16 10 1 4 3 9h14l13-3 4-5v-7l-4-8-6-3zm-377 6-2 5h-2l-4 6-4 3-8 29-3 17-5 39-1 16v34l2 29 4 29 1 11 1 1h9l1-1-1-13-3-18-3-31v-46l3-32 5-30 4-17 7-24v-7zm198 0-12 6-9 7 1 4 4 6 2 13 5 1h17l6-3 6-7 1-2v-7l-4-11-7-6-3-1zm135 3-8 5-4 5-1 2v10l3 7 7 6 3 1h10l8-6 4-6 1-9-4-9-5-4-5-2zm-175 8-10 5-5 10v10l3 6 7 6 5 2h8l7-3 4-4v-2h2l3-9-2-10-4-6-6-4-3-1zm-381 7-5 15-5 10-2 20-1 19v43l2 31 4 32 2 18 2 11 2 2h9l1-1-1-10-2-13-2-17-4-41-1-25v-19l2-36 2-18v-19l-1-2zm533 1-14 2-6 3-3 4v7l2 6 4 4 7 1 16-8 6-4-3-7-1-7-1-1zm48 4-2 3-2 6-2 4 12 11 9 5 7-1 5-6 2-5v-6l-5-5-16-5zm-234 6-9 4-6 7-1 2v8l5 10 6 5 9 2 9-4 8-8 4-6-2-4-4-5-2-11zm-210 1-4 2-4 6-1 8 3 15 3 3h9l10 3 6-8 5-10v-8l-4-6-10-5zm303 2-10 6-7 2 5 4 6 7 1 3v8l-6 9-5 4-3 2h-11l-7-4-3-5h-2v9l-3 9 1 2v48l4-2 11-11 9-3v-12l1-17 1-5 4 2 8 9 5 4 12 16 12 19 9 19 3-3 2-19 1-18 6-59-1-5-18-5-16-8-7-6zm105 4-8 9-6 12 1 7 5 5 5 2h6l5-4 4-9 1-17-9-4zm27 1-11 4v10l3 14 5 6 7 1 8-4 4-5-1-7-9-14-4-5zm-167 1-6 8-5 4 1 6 8 14 5 5 3 1h8l7-3 6-7 2-5-1-9-6-7-8-4-10-3zm-296 2-10 5-6 8-2 5v6l4 6 7 5 12 4 4-1 5-9 7-5-3-9-8-11-4-3zm168 8-17 5-14 7-10 7-7 8-5 5-7 10-5 11-4 13-2 10v6h2l10-13 14-17 9-11 11-13 4-3-9 11-12 14-11 14-8 10-4 4-4 7 10-1 13-5 11-6 14-12 7-9v-2h2l6-12 5-15 3-17v-5zm96 2-9 16-1 4v7l3 6 4 4 8 2 10-1 6-3 3-6-1-16-4-11-12-1zm-489 2 1 10 5 17 8 16 7 11 4 5 5 5 10 9 11 7 20 9 11 3 17 1-2-4-12-11-16-15-12-11-10-9-12-11-5-4-1-2 5 3 9 9 8 7 10 9 26 24 14 13 1-2-4-15-12-24-2-3h-2l-2-4-9-11-10-9-6-4h-2v-2l-14-7-15-6-17-4zm290 1-8 4v2l-4 2-7 6 1 5 1 2h2l2 13 1 1h20l7-3 3-4 1-7-4-13-4-5-6-3zm-38 11-9 4-7 8-1 4v11l4 8 9 6 2 1h9l10-5 5-8 1-4v-8l-3-7-5-6-6-3zm404 9-3 8-4 17-5 26-3 21-2 28v19h2l5-14 4-38v-6l1-2 1-10 6-28 4-17v-4zm-471 0-13 5-14 9-12 11-9 10-7 11-6 15-3 15-1 18 4-4 4-6v-2h2l10-16 12-18 4-5 11-17 3-5v3l-8 12-7 10-12 18-11 16-10 16 3 1 12-4 14-8 11-9 8-9 4-6v-2h2l6-14 4-14 2-15v-12l-2-4zm27 9-7 3-4 5v13l6 10 7 4 8-1 6-4 10-9-1-4-3-8-1-8-1-1zm97 0-5 5-10 3-5 1v2l11 6 4 6v9l-2 6h-2l-7 8-6 3h-7l-8-5-5-9h-2v13l-4 8-7 4h-8l-10-3-8-6-4 6-7 18-4 15-2 16v10l2-1 5-12 9-14 12-12 5-4 2 1-7 17-3 14v20h3l7-14 4-4v13h2l5-23 2-10h2l3 9 4 13h2l1-12 1-2 1-12 2-17 6 4 10 9 8 10 6 10 5 9 2-1-3-34v-44l2-29zm113 4-4 4-1 6 3 9 3 2 10-1 2-2 1-4v-10l-4-4zm86 1-4 3v29l-3 35-2 17-6 25-4 13-1 9 1 1h5l2-6 6-22 5-23 4-29 1-14v-22l-1-14zm31 2-1 5-1 17v30l3 30 5 25 2 12 3 10 1 1h17l1-3-8-38-2-11-10-47-1-4h2l1 8 6 27 1 9 10 45 2 13 1 1h30v-16l-4-19-4-13-6-16-11-22-6-9-10-14-12-14-7-7zm-262 2-3 5-4 6-6 4 1 4 8 15 6 4 7 1 6-3 6-5 5-9v-7l-3-5-3-3-17-7zm169 7-9 9 2 4h2l2 7 9-1 5-3 3-3v-6l-4-6-1-1zm-45 1-4 4-2 4v7l3 4 7 2h7l2-2 3-7v-3l-9-8zm-162 5-7 10-4 9v6l7 8 7 3 10 1 8-3 3-5 1-11-2-13-1-1-11-1-7-3zm478 3-19 10-10 7-10 9-10 10-7 10-9 15-6 14-5 16-2 9-1 11 1 1h22l1-4 4-20 9-25 9-15 5-9 7-8 7-9 2-1-9 11-11 16-6 11-6 12-7 22-3 15 1 4h30l3-7 2-8v-11l2-20 5-24 3-13 7-18 3-7v-4zm-294 1-6 5-2 5 1 7 4 6 4 2h8l6-4 3-5v-8l-3-5-5-3zm53 3-2 2v8l5 9 8 8 9 6 4 1 1-4-1-9-7-11-5-5-5-4zm-249 3-14 28-3 11-5 15-4 24v26l1 1h5l1-1 1-22 3-21 3-16 6-16 5-11 2-13 1-5zm409 1-9 11-9 16-7 18-5 17-2 9-1 24 1 9h32l1-5-3-19-1-12v-30l3-25 2-13zm-192 6-2 4-4 6 1 4 5 6 4 2 6-1 5-6 1-7-5-5-9-3zm-34 1-11 4-2 2v10l4 5 2 1h6l6-5 4-5-6-12zm121 1-8 5-8 9-4 8v10l6-1 7-4 10-10 2-4v-11l-2-2zm-97 10-7 1h-5l-3 8 1 9 5 4h7l5-3 2-3v-7l-3-8zm-401 5 1 6 6 19 5 30 2 25 1 1h22l1-3-5-20-4-14-8-16-5-9-10-13-5-6zm329 1-11 10-10 15-8 19-3 13-1 11v11l1 1h20l2-7 1-11 3-11 1-3 3-29 3-15zm-374 3 8 17 8 20 2 9 3 13 2 17 1 1h32l1-2-3-13-4-10-6-11-6-10-9-11-7-7-12-9-7-4zm203 0-5 8-5 13-2 8-1 10 1 24 3 13 1 1h16l1-3-5-21-2-14-1-13v-26zm343 0-7 7-10 6-6 3-2 6-3 15v4h2l7-10 9-9 5-4 3-1-2 13-1 22h2l3-6 4 2 3 5h2l-5-30-2-23zm-257 9-2 7-3 23-2 20-1 17 1 1h12l1-5-4-26 2 1 1 17 2 11 2 2h29l1-5-4-15-7-17-12-16-9-10zm163 1-4 4 2 20v42l4 1 2-5 1-17v-14l-1-20-2-11zm-53 2-9 17-4 11-3 18v2h-2l-4-24h-2l-6 12-4 17-1 11 1 1h24l1-1 2-22 5-25v4l-2 12-3 21v10l1 1h16l1-1v-16l-4-17-3-18-1-12zm-147 6-12 12-7 11-8 16-2 11-1 8 1 1h25l1-4-1-6v-23l2-13 4-11v-2zm-158 4-3 4-4 14-2 15v21l1 1h15l1-1v-13l-2-17-3-13 2 6 4 22 1 15 1 1h17l1-5-1-7-7-17-6-9-10-13zm445 0-10 9-8 11-6 10-5 16-1 8 1 1h11l2-7 3-17v-3l2 1-4 15v6l-1 2 1 3h15l1-3v-36l1-16zm-54 4-12 12-6 8-8 17-2 8v5l1 1h17l1-1 3-26 4-13-2 10-3 14v16h18l2-2v-12l-3-16-7-19zm-315 1-6 15-3 11v20l2 4h10l1-1-2-41v-8zm101 5-4 19-2 10-1 15 1 1h13l2-7-1-16-4-17-2-5zm153 2-7 14-4 15-1 13 1 1h19l1-3-5-29-2-11zm312 2-12 12-4 3-4 7-6 12-2 6 1 1h20l2-4 1-15 5-16 1-5zm-589 1-5 10-3 12v17l1 1h19l1-2-9-27-3-11zm294 4-5 15-2 11v9l1 1h12l1-1v-16l-4-18zm-442 2 3 17 1 16 1 1h16l1-1-1-9-5-10-9-10-4-4zm181 2-4 10-1 4v12l2 5 1 1h13l1-5-10-26zm366 3-5 14v9l2 6h16l1-3-4-13-8-13zm-287 4-6 11-2 7v7h10l1-4-2-21z"/><path transform="translate(656,344)" d="m0 0h9l5 4 2 5-1 6-5 6-2 1h-6l-6-4-2-3v-9l4-5zm3 1-5 3-2 3v7l4 5 6 1 6-3 1-2v-8l-4-5z"/><path transform="translate(653,380)" d="m0 0h10l5 6 1 7-3 5-4 3-9-1-5-6-1-4 3-7zm4 1-5 3-2 3v6l4 5 6 1 5-3 2-2v-7l-4-5z"/></svg>
