<svg xmlns="http://www.w3.org/2000/svg" viewBox="0 0 1024 1024">
  <g fill="#fff" stroke="#000" stroke-width="10" stroke-linecap="round" stroke-linejoin="round">
    <path d="M512 130 C 790 130 905 335 882 425 L 142 425 C 119 335 234 130 512 130 Z"/>
    <circle cx="330" cy="270" r="42"/>
    <circle cx="540" cy="215" r="34"/>
    <circle cx="700" cy="300" r="46"/>
    <circle cx="470" cy="345" r="26"/>
    <path d="M312 425 C 300 700 320 845 512 845 C 704 845 724 700 712 425 Z"/>
    <path d="M442 845 L 442 662 C 442 598 582 598 582 662 L 582 845 Z"/>
    <circle cx="562" cy="740" r="10"/>
    <circle cx="640" cy="540" r="46"/>
    <path d="M640 494 L 640 586 M594 540 L 686 540" fill="none"/>
    <path d="M160 940 C 175 880 150 850 165 800 M215 945 C 225 895 205 870 218 825 M810 940 C 825 880 800 850 815 800 M865 945 C 875 895 855 870 868 825" fill="none"/>
    <path d="M60 950 C 300 915 720 975 964 940" fill="none"/>
    <g>
      <circle cx="130" cy="700" r="16"/>
      <circle cx="130" cy="664" r="15"/>
      <circle cx="164" cy="690" r="15"/>
      <circle cx="152" cy="728" r="15"/>
      <circle cx="108" cy="728" r="15"/>
      <circle cx="96" cy="690" r="15"/>
      <path d="M130 745 L 130 830" fill="none"/>
    </g>
    <g>
      <circle cx="900" cy="640" r="16"/>
      <circle cx="900" cy="604" r="15"/>
      <circle cx="934" cy="630" r="15"/>
      <circle cx="922" cy="668" r="15"/>
      <circle cx="878" cy="668" r="15"/>
      <circle cx="866" cy="630" r="15"/>
      <path d="M900 685 L 900 780" fill="none"/>
    </g>
  </g>
</svg>
