<?xml version="1.0" encoding="UTF-8"?>
<svg version="1.1" viewBox="0 0 1024 1024" xmlns="http://www.w3.org/2000/svg"><path transform="translate(488,156)" d="m0 0h48l34 3 29 4 25 6 26 7 29 11 28 13 24 14 18 12v2l5 2 13 11 8 7 12 11 8 8 7 8 11 14 7 9 8 12 6 11 8 16 7 15 8 28 3 18v21l-3 15-3 3h-153l1 4 1 58v65l-1 26v13l-3 33-5 31-5 25-9 27-5 13-11 21-11 16-14 14-8 7-11 8-16 8-12 5-15 4h-5v15l-6 3-4 1h-7l-25-5-21-3-49-9-18-3-18-6-16-8-15-10-7-7-7-6-5-6-5-5-10-15-11-21-7-19-6-20-7-35-4-30-2-23v-15l-1-24v-63l1-36v-25l1-3h-153l-3-3-3-16v-19l3-19 5-17 4-13 12-26 8-13 9-14 6-8 11-13 7-8 9-10 7-7 8-7 16-13 5-3 4-4 17-11 17-10 16-8 19-9 33-12 40-10 19-3 34-4zm6 9-29 2-28 4-19 3-27 7-9 3-12 3-12 5-15 6-34 17v2l-6 2-14 9-13 9-15 13-13 12-17 17-7 9-5 5-11 16-12 20-11 23-7 22-4 20-1 8v14l2 10 1 1h672l2-3 1-7v-16l-3-19-5-17-6-18-11-22-14-22-10-14-5-5-11-12-7-8-8-7-12-11-11-9-10-7-15-10-12-7-32-16-34-13-12-3-18-5-12-3-44-6-28-2zm-161 272-1 8-2 66v39l1 35 3 48 5 32 6 26 3 12 6 16 6 15 6 10 9 14 8 10 12 12 13 9 18 10 8 3 4-1v-123l4-20 6-15 3-9h2l8-11 9-8 14-8 14-4 7-1h18l17 4 16 8 11 9 9 12 8 16 2 7 4 20 1 80 1 42 6-1 17-9 16-12 13-13 11-15 11-20 10-27 3-11 7-32 4-26 3-48 1-30v-47l-2-65-1-7zm186 173-1 2 10 5 10 8 8 10 6 12 5 14 3 16 1 148 5-1v-144l-2-18-7-19-9-14-11-11-14-8zm-23 2-10 3-4 3-4 2-8 7v80h-2v-76l-4 2-3 3-2 4v167l19 4h5l6 2 8 1 1-1v-94h2v95l5 2 23 3 1-1v-86l2-5 4-2 10-1v-82l-7-11-5-5h-2v69l-1-1v-70l-3-3-11-6-14-3-1 1v86h-2v-86zm-41 36-5 13-2 9-1 12v123l9 1 1-1v-157zm92 0v77l4 5 1 7-3 6-2 2v39h-2v-37l-10-1-5-2v74l2 2 12 2 8 2h4v-148l-4-20-3-8zm-10 80-4 4v6l4 4 7-1 2-3v-6l-4-4z"/><path transform="translate(532,203)" d="m0 0h12l14 5 6 5 6 9 4 11v12l-3 8-6 10-9 7-8 4-4 1h-12l-11-4-6-4-5-5-4-5-4-13v-11l5-14 7-8 7-4 6-3zm1 9-8 3-9 8-4 7-1 4v9l3 9 8 9 8 4h16l7-4 8-8 3-6v-16l-4-8-5-5-6-4-7-2z"/><path transform="translate(338,246)" d="m0 0h14l11 4 9 5 8 8 7 14 1 5v15l-5 13-6 9-8 7-11 5-7 2h-13l-12-4-11-7-8-10-5-12-1-4v-13l3-10 7-12 9-8 10-5zm2 9-11 4-9 6-7 10-2 6v17l6 12 5 5 5 4 6 3 6 1h11l9-2 10-7 7-10 3-9v-11l-4-11-7-9-9-6-9-3z"/><path transform="translate(678,270)" d="m0 0h14l11 3 10 6 8 7 6 10 4 9 1 5v14l-3 11-6 10-6 7-9 6-8 4-9 2h-12l-12-3-10-6-11-11-6-12-2-9v-12l3-12 6-10 6-7 10-7 10-4zm2 9-10 3-11 7-4 5-5 7-3 11v10l3 10 7 10 9 8 9 4 5 1h9l13-4 8-6 7-8 5-10 1-5v-11l-4-12-11-12-7-5-11-3z"/><path transform="translate(468,330)" d="m0 0h11l11 4 7 8 4 7 1 4v11l-3 7-4 6-7 6-5 3-4 1h-10l-11-4-9-8-4-12v-10l4-11 8-8zm2 9-10 5-4 5-2 6v7l4 9 5 4 7 3h7l8-4 7-8 1-4v-8l-4-8-6-5-6-2z"/><path transform="translate(622,491)" d="m0 0h15l14 4 12 9 7 9 5 10 2 8v14l-3 10-6 11-7 8-14 8-5 2-6 1h-12l-12-3-11-7-6-5-8-11-4-15v-14l5-15 8-11 11-8zm13 9-1 1v31l1 1h31l1-4-4-11h-2l-2-4-8-8-8-4zm-15 1-14 7-7 7-5 10-1 7 1 1h30l1-1v-31zm-26 41-1 5 4 10 9 10 9 6 5 2h5v-32l-1-1zm42 0-2 1v31l5 1 9-4 8-6 6-7 5-11-1-4-1-1z"/><path transform="translate(864,578)" d="m0 0h9l8 4 4 5 2 5v10l-4 7-4 2 3 3 6-8 8-4h9l7 4 3 3v2h2l2 5v9l-3 6-4 4h-2v2l-5 2h-6v2l4 2 4 5 1 3v9l-3 6-8 7-3 1h-9l-8-4-4-5-2-5v-10l-4 1v9l-4 8-7 5-4 1h-8l-6-3-5-5-3-6v-9l4-8 4-4-8-1-7-5-4-8v-9l3-6 8-7 3-1h9l8 4 6 8 3-3-4-2-3-3-2-7 1-9 6-8zm3 9-6 5-1 8 4 5 7 1 6-5 1-7-3-5-4-2zm-32 24-6 5-1 7 5 6 6 1 5-3 3-4-1-7-6-5zm63 0-6 5-1 6 3 5 4 3 7-1 4-5v-7l-2-4-4-2zm-32 9-5 3-2 4 1 8 4 4 2 1h6l5-4 2-3v-6l-4-6zm-18 15v2h2v-2zm39 0 1 2h2v-2zm-41 11-6 5-1 7 5 6 6 1 5-3 3-5-1-6-6-5zm41 0-6 5-1 6 3 5 4 3 7-1 4-5v-7l-2-4-4-2z"/><path transform="translate(156,633)" d="m0 0h9l8 4 2 5h2l2 5v9l-4 8-3 3v2h2l6-8 8-4h8l8 4 4 5 2 5v10l-5 8-8 5h-6v2l4 2 4 8v9l-4 8-9 6h-10l-8-4-5-7-1-3v-10l-3 1v9l-4 8-7 5-3 1h-9l-8-4-4-5-2-6v-7l3-7 4-6-7-1-6-4-4-6-1-3v-9l4-8 7-5 3-1h9l7 4 6 8 3-1-6-7-2-6v-8l6-9 5-4zm1 10-5 4-1 6 3 5 5 3 6-1 5-6-1-7-5-4zm-32 24-5 6 1 7 6 5 7-1 5-6-1-7-5-4zm63 0-4 4-1 7 3 5 3 2h6l6-6v-6l-5-6zm-30 8-6 4-2 4 1 6 5 5 7 1 6-4 2-3v-6l-4-5-4-2zm-18 15-1 2h3v-2zm39 0 1 2 2-1zm-43 12-4 4-1 6 3 5 4 3 7-1 5-6-1-7-4-4zm41 0-5 6v6l4 5 8 1 6-6v-6l-3-5-2-1z"/><path transform="translate(515,651)" d="m0 0h2v23h-2z"/><path transform="translate(867,667)" d="m0 0 5 1 2 2v90l-3 3-5-1-2-2v-90z"/><path transform="translate(514,684)" d="m0 0h2v32h-2z"/><path transform="translate(483,690)" d="m0 0h1v57h-1z"/><path transform="translate(159,722)" d="m0 0 5 1 1 1v83l-2 2-5-1-2-2v-82z"/><path transform="translate(513,733)" d="m0 0h2v26h-2z"/><path transform="translate(512,769)" d="m0 0h2v36h-2z"/><path transform="translate(190,772)" d="m0 0h5l2 2v9l-3 16v20l2 18 1 16v30l-2 18 40-2 1-5v-20l-4-40v-11l2-15 3-10 3-3 4 1 2 2-1 9-2 9v29l3 26v28h57l62 1 137 5 49 2 53 1 70 2 110 1v-2l-3-1 4-28v-23l-3-26v-41l4-15 3-3 5 1 1 1-1 13-2 12v20l2 19 1 16v29l-1 13-3 11-3 4 8-1 36-1 2-17v-18l-4-37v-14l2-15 3-10 3-3 4 1 2 2-1 8-2 10-1 16 2 21 2 18v26l-1 11 28-1 46-5 6-1h8l1 7-2 2-27 4-41 4-32 2-77 1-126-1-107-4-130-5-36-1h-109l-4 5-5-1-3-4-36 1-46 3-44 5-12 1-3-3 1-5 5-3 39-4 47-4 3-21v-24l-3-26v-40l4-15z"/><path transform="translate(520,793)" d="m0 0h2v7l-3 10h-5l-1-3h4l2-6z"/></svg>
