<?xml version="1.0" encoding="UTF-8"?>
<svg version="1.1" viewBox="0 0 1024 1024" xmlns="http://www.w3.org/2000/svg"><path transform="translate(498,289)" d="m0 0h33l30 4 19 4 15 4 15 5 21 9 16 8 9 5v2l5 2 14 9 9 7 14 12 8 7 14 14 8 10 9 11 11 17 3 5 4 4 4-13 3-4h7l3 3-1 25-1 8v18l8 24 6 5 8 6 8 8 10 16 5 10 2 12v31l-2 9-11 21-5 6-6 5-5 6-6 4-8 5-9 3-11 4-5 1h-23l-14-4-15-6-9-6v-2l-5-2-7-8v-2l-3-1-6-9-8-20-3-12-2 4-3 2h-26l-21-2-7-3-2-2v-6l4-3 46-6v-12l-1-14-3-7-3-1-1 10-4 8-5 6-8 6-7 3-11 1-13-1-9-2-8 10-11 8-10 4-9 2h-18l-17-5-11-7-4 1-9 7-12 3h-10l-12-3-12-11-3-5-18-2-8-4 1 4 5 12v17h7l12 6 7 7 3 4h31l9 4 8 6 9 10 1 4 8-3 11-7 3-1h27l9 3 6 5 8 7 7 12 3 11v7l9 2 8 5 8 7 4 9 1 5v8l-3 11-7 10-9 6-12 4h-17l-14-5h-5l-4 6-8 7-8 5-15 4h-20l-13-3-11-6-4-3-5 1-12 7-7 2h-14l-10-3-10-8-6-8-18-4-9-6-5-7-3-8v-14l5-12 6-8-1-3-6-2-2 5-8 9-14 9-12 5-12 3h-23l-16-5-8-3-9-6-9-8-4-1-10 5-10 4h-20l-13-6-10-9-4-6-5-11-11-3-9-7-7-7-3-9v-22l4-11 14-15 12-7 15-4 16-1 3-14 8-15 10-10 13-8h2l2-12 7-25 5-12 9-20 6-10 5-9 7-10 8-11 8-10 8-8 7-8 15-15 11-9 13-9 3-3 24-14 16-8 21-9 18-6 17-4 31-5zm8 3-27 2-32 6-23 7-27 12-16 8-18 11-18 13v2l-4 2-12 11-10 9-11 12-4 5-5 5-11 16-11 17-12 24-10 26-4 16-1 9 1 1h28l5 1 5-2 8-23 8-20v-2h2l8-16 7-11 13-16 9-11 14-14 10-8 20-15 11-6 19-10 17-7 13-4 14-4 15-3 13-1 41-1 22 2 22 5 26 9 24 11 10 6 11 8 17 12 13 12 8 7 10 12 4 6 3-1 1-8h1v9l4 30 2 13h-2l-1-11-4-24-7-10-7-7-7-8-9-10-11-9-14-11-10-7-18-10-8-4-18-8-17-5-25-6-18-2h-36l-25 3-29 8-17 6-10 5-10 4-10 7-11 6-14 10-8 8-6 5-12 12-4 5-6 5-3 5-5 5-13 21v2h-2l-10 22-3 6-8 25 1 5 10 8 8 9 4 2 3-9 4-15 5-16 13-27 14-20 9-11 11-12 11-10 18-13 19-11 5-3 13-5 14-6 16-3 18-4 21-2h15l25 3 22 5 13 4 15 7 10 4 13 8 21 14 5 6 8 7 11 11 4 6 5 5 11 18 7 13 5 9 2 6 8-1 15-4 2-4-1-2-11-1-3-2-2-5h2l1 4 2 2h7l5-3v-8l-8-26-3-10-2-7-2-5-4-1v-2l4 1 12 36 4 14v12l3 5 5 1h8l21 4 9 1-1-10-3-6-4 2-3 2h-9l-4-2v-14l4-14 1-10-9-16-9-12-8-11-12-14-13-14-8-7-16-13-10-7-9-6-21-12-21-10-17-6-22-7-17-3-9-2-30-2zm-14 72-26 4-18 6-19 7-13 8-12 6-10 8-8 7-14 12-9 9-11 14-4 6-3 3-10 18-7 15-6 17-5 20v11l4 1 7-6 15-6 6-3 5-12 8-21 6-10 6-11 11-13 9-11 14-12 13-9 11-7 24-11 32-8 18-2h20l25 4 21 6 16 7 7 4 11 6 12 9 4 2 2 4 7 5 7 8 6 7 5 7 3 2 8 17 4 6 5 16 3 6 4-1 10-10 12-9-1-3-6 2-5 1-7-4-17-26h-2l-2-5-8-13v-5l4-2 5 1 16 17 8 8 2-1-8-14-12-14-7-8-11-11-10-8-15-11-18-10-11-5-20-8-10-3-24-4zm9 32-19 3-19 4-15 6-15 7-19 13-10 8-12 11-10 11-9 13-5 8-8 16-4 11-3 12 2 2 11 1h10l3-5 5-14 4-8v-2h2l4-8 12-17 15-15 16-11 10-6 11-5 9-4 21-5 16-2h20l22 3 19 6 16 7 16 10 10 8 11 10 11 15 9 16 4 5 12 6 8 3 3 3v8l-4 5-9 1h-5l2 23 2 7h6l5-21 7-16v-10l-3-12-8-16-9-16-11-14-17-17-16-11-14-9-18-8-12-4-13-3-18-3zm263 17-4 7-5 19-7 25v5l5 4h8l2-2 4-26 2-18v-13zm-112 24-1 4 11 17 8 12 8 11 4 6 2 1h7l5-6-2-6-11-12-9-9-7-8-10-10zm-158-15-19 4-22 9-17 9-4 4-10 8-10 9-9 10-7 9-5 8-7 14-4 10-1 5 2 5 10 6 5 5h4l-1-7v-13l5-13 7-8 14-8 6-2 10-1 4-3 2-15 4-11 9-10 6-4 10-4 21-1 10 3 11 7 5 6 3 2 2 4 5-1 5-4 8-4 5-1h22l9 2 11 8 9 13 3 12h-2l-1-7-6-12-6-7-10-6-9-3h-16l-12 4-11 8-2 2h-3l-6-10-5-6-12-7-7-2h-16l-9 3-11 7-9 10-5 12-1 16-11 1-12 4-10 6-8 9-4 8v19l4 8 7 6 10 4 14 1 5 8 8 6 10 4h12l15-5 7-6 6 1 13 8 6 2 8 1h13l14-3 10-5 10-9 6-7 7 1 3 1 19 1 11-4 8-6 5-6 3-8v-11l-5-5-11-8-3-3-2-5-9-2-2-5 5 4 24 5h3l-3-9-12-17-18-18-16-11-16-8-11-5-15-4-11-2zm229 61-12 3-17 9-10 9-9 9-2 4-3 3-6 14-4 14v23l5 18 4 9 10 14 9 9 16 10 11 4 15 3h17l21-6 11-6 9-6 6-5 11-15 8-18 3-13v-17l-4-16-8-16-8-11-5-5-9-8-11-6-8-4-10-3zm-103 11-2 4 4 5 14 10 8 6 9 6h5l6-7v-5l-5-4-36-15zm-364 12-11 4-14 10-8 8-6 10-6 20-20 1-9 2-12 7-9 8-9 14-2 6v14l4 10 10 11 9 4 9 2 2 6 3 7 6 8 7 6 6 3 8 2h13l12-3 11-7 4 1 9 8 11 7 12 5 12 3h20l19-5 8-4 10-8 9-9 3-4v-2l12 5 6-1 9-5 12-3 8-1 3-15 4-10 12-13 5-4 1-6-7-8-9-5-11-3-1-15-4-12-7-13-8-7-7-6-16-5h-19l-15 4-6 4-10 8h-4l-2-6-3-6-9-10-9-6-10-5-4-1zm376 52-24 3-9 2-1 1v5l5 1 30 2h17l3-3 1-6-3-5zm24 3v3zm-202 39-13 4-10 7-6 7-7 14-3 16-15 2-13 4-10 9-5 5-4 7v22l4 8 10 7 6 2 12 1 6 9 8 7 11 4h14l10-4 9-6h6l6 4 10 6 13 3h14l13-3 11-6 10-9 5-6 5 1 7 3 10 2h9l12-3 9-5 7-7 5-10v-12l-4-10-7-8-8-4-11-2v-8l-2-9-7-14-8-7-16-8h-18l-12 4-10 8-2 2h-4l-7-13-8-7-12-6-5-1z"/><path transform="translate(819,433)" d="m0 0h6l3 2v8l-13 22-5 8-9 15-6 4-8-2-4-4-1-9 11-14 12-14 9-11zm2 3-6 5-8 10-5 6v2l-4 2-11 14-3 4 2 5 5 4h5l7-8 8-15 1-3 4-4 6-11 3-6-1-5z"/><path transform="translate(862,484)" d="m0 0h6l3 2v7l-10 9-11 7-10 7-10 6-4 3h-7l-6-5-1-3v-8l6-5 16-8 17-7 8-4zm1 3-28 12-17 8-3 4v6l5 5 6-1 14-9 10-7 12-8 5-5-1-5z"/><path transform="translate(833,545)" d="m0 0 31 2 10 1 5 4-1 6-5 3-15 3-15 2h-14l-4-4-1-2v-7l3-6zm2 3-7 2-2 6 3 7 2 1 14-1 26-4 4-2 1-4-3-2-19-2z"/><path transform="translate(683,549)" d="m0 0 2 1v2h8l3-1h9l6 3 5 8v5l-3 1-5-10-3-2h-9l-5 4-2 9h-3l-8-6v-3l6 3 1-2-4-2-2-4h3l5 3-4-5z"/><path transform="translate(790,550)" d="m0 0 2 1-4 7 4-3h2l-1 4-1 2h-2v2l5-3h2l-2 5-4 2-1 2-4-1-4-9-4-3h-9l-5 4-4 8h-2l1-9 5-6 6-2 11 1 5 1z"/><path transform="translate(735,570)" d="m0 0 7 1 2 4-2 1-2-1h-6l-3 1 2-5z"/><path transform="translate(715,587)" d="m0 0 3 3 5 7 9 4h10l8-3 5-6 2-4h2l-1 7-6 7-7 4-11 1-9-3-10-9-2-6z"/><path transform="translate(824,590)" d="m0 0 6 1 21 14 14 10 1 8-5 2-17-4-25-10-4-5v-7l3-6 2-2zm-1 4-5 5-1 5 2 4 19 7 15 6 9 1 1-4-8-7-11-7-14-9-1-1z"/><path transform="translate(654,602)" d="m0 0h9l4 3 1 3v9l-4 5-21 11-15 7h-6l-2-3v-6l11-11 17-13zm2 3-11 8-9 8-10 8-4 4 1 3 8-1 25-12 9-5 2-5-4-6-2-2z"/><path transform="translate(793,627)" d="m0 0h9l6 8 18 33-1 6-3 2-5-1-16-16-7-8-8-9v-9l4-3h2zm1 3-4 2-1 2v7l10 11 9 11 9 10h5l1-3-8-16-6-11-6-10-4-3z"/><path transform="translate(698,638)" d="m0 0 5 1 5 4 2 3-2 9-18 27-6 8h-7l-1-1v-8l4-16 9-23 3-3zm-4 4-4 5-7 20-5 12v6l4 2 6-7 7-12 4-5 7-11v-7l-4-3z"/><path transform="translate(748,645)" d="m0 0h6l6 5 1 2v20l-2 26-4 4-5-1-3-4-6-29-1-8v-9l5-5zm0 4-5 3v10l4 20 2 11 3 6 4-2 1-2 2-42-5-4z"/></svg>
