<?xml version="1.0" encoding="UTF-8"?>
<svg version="1.1" viewBox="0 0 1024 1024" xmlns="http://www.w3.org/2000/svg"><path transform="translate(496,271)" d="m0 0h34l26 3 25 4 36 11 29 13 15 8 19 12 14 10 10 9 11 9 20 20 9 11 3 3 10 13 13 21 4 6 6-19 3-3h6l4 5-2 24-2 17v11l5 14 4 14 4 4 10 7 11 11 9 14 6 12 3 13 1 6v22l-3 16-6 13-8 14-7 6-7 8-14 9-20 8-9 2h-25l-16-4-14-6-13-9-10-9-10-14-7-15-4-13-1-6v-12h-2l1 8-3 6-4 3-26-1-23-2-8-2-3-3v-5l5-4 33-4 17-2 1-1v-9l-1-15-3-11-5-3v7l-3 10-6 8-8 7-10 4-10 2-13-1-9-3h-4l-6 8-10 9-9 5-16 4h-20l-15-4-11-6-6-4-8 7-5 3-13 3h-9l-14-3-10-8-6-8-2-2h-12l-12-4-6-5v3h2l5 12 2 6v18l9 1 12 6 6 5 6 9 12-3h13l12 3 7 3 9 7 6 7 5 8 4-2 11-7 7-3 6-1h19l10 2 6 3v2l5 2 9 9 6 9 3 9 1 5v8l9 2 11 6 8 9 4 9 1 5v8l-4 12-6 9-9 7-16 5h-16l-13-4-7-2h-2l-2 5-8 8-5 3h-2v2l-12 5-11 2h-17l-13-2-14-7-7-5-4 1-9 6-9 4-6 1h-10l-13-4-11-8-7-10-16-2-10-6-7-8-4-9-1-11 2-9 7-13 5-5v-2l-5-3-4-1-2 5-9 10-11 8-15 7-16 4h-24l-12-3-13-5-11-7-10-9-4-2-10 6-10 4-5 1h-17l-13-5-9-6-8-10-4-9-2-5-12-3-10-7-8-9-4-11v-19l5-13 11-13 10-8 7-4 16-4 18-1 4-17 7-13 11-12 14-9h3l3-14 6-21 4-12 9-21 10-18 3-6 7-10 7-11 10-13 7-7 7-8 9-10 12-11 10-9 16-12 17-11 7-4 23-12 23-10 13-4 25-7 35-5zm7 3-31 2-29 6-25 7-19 8-12 5-8 4-17 9-15 10-19 14-14 12-15 14-7 8-11 13-13 18-7 10-7 12-12 24-5 13-7 19-4 17-1 6 2 1 10-2h14l16 3 9-27 8-19 11-21 7-11v-2h2l10-14 11-13 9-10 8-7 14-12 15-11 18-11 17-9 20-8 21-7 24-5 25-3h33l19 2 27 5 27 9 17 7 23 12 16 11 11 8 14 12 12 11 10 11 8 11h2v-9l4-4 6 1 4 9 6 18 5 17 4 13v7l-1 4 4 6h13l13 2 17 5 4-1-3-11-3-7h-2l-3 5-2 1h-10l-5-3-1-2v-7l6-21 1-11-8-14-6-9-12-17-11-13-9-10-15-15-11-9-10-8-16-11-6-4-14-8-21-11-9-3-14-6-10-3-21-6-25-5-32-2zm-2 45-31 3-21 5-18 6-10 3-28 13-9 6-12 7-15 11-5 5-12 11-6 5-7 8-10 11v2l-4 2-14 21-7 12-6 12-9 21-7 23 2 4 5 3 10 10 4 5h2v2l3-1 5-23 10-27 14-27 7-9 7-10 11-13 8-9 8-7 15-12 14-10 22-12 19-8 10-4 26-6 18-3 13-1h19l20 2 21 4 19 5 26 11 17 9 16 11 11 8 12 11 14 14 12 16 8 12 10 19 4 7 3 9 5-1 21-6 1-4-1-2h-12l-4-2-3-13-5-34-3-1-2-6-5-5-9-10-7-8-8-8-11-9-13-11-16-10-15-9-26-12-28-9-20-4-29-3zm-6 32-22 3-22 5-16 6-13 5-16 9-11 6-12 8-10 9-8 7-10 9-9 10-8 10-8 11-8 13-8 16-3 7-9 25-3 14-1 7v8h3l11-8 11-5 10-3 3-8 10-26 9-17 7-11 7-8 9-11 9-9 11-9 10-8 19-11 17-8 14-5 26-6 17-2h25l26 4 19 5 17 7 19 10 11 7 14 12 8 7 7 7 11 14 2 3h2l2 5 12 22 8 24 4-1 7-8 10-8 8-6-2-3-4 2-3 2h-7l-6-5-9-14-7-10-14-22-2-3 1-6 7-1 7 6 7 8 13 13 3 4h2l-2-5-9-15-5-5-7-9-14-15-11-9-12-10-15-10-25-13-9-3-13-5-10-3-27-5-9-1zm14 35-22 2-22 4-17 6-19 8-13 8-13 9-10 8-12 11-10 11-12 17-13 24-7 20-2 7 1 1 14 1 11 1 6-17 8-16 8-13 9-12 11-12 12-10 10-7 17-10 23-9 11-3 24-3h22l23 3 16 5 22 9 9 6 11 7 14 12 7 7 10 13 8 13 6 11 9 5 15 6 3 4v8l-4 6-2 1h-9l-5-2 2 17 1 16 3 2 5-1 4-20 6-15 4-7-1-9-5-16-8-16-8-14-10-13-11-12-7-7-17-13-22-13-21-9-15-5-26-4-12-1zm211 18-2 2 1 16 5 36 1 9 5 5 7-1 5-4-1-8-8-27-8-25zm65 0-3 4-12 41-2 9-1 7 4 5 7 1 5-3 3-21 3-28v-14zm-289 10-21 4-25 9-19 10-17 13-12 11-9 10-10 14-4 7-9 17-4 14 1 4 10 5 10 9 2-2-3-10 1-12 5-12 7-9 11-7 8-4 4-1 13-1 2-3 1-15 5-12 8-10 8-6 11-5 7-2h16l12 4 10 6 8 9h2l2 6h4l6-5 13-6 8-2h15l13 4 10 6 7 8 5 7 3 11 1 10 5 2 9 1 7 1 10 4h2l-3-9-13-18-12-13-11-10-13-9-14-8-14-6-19-6-17-3zm167 16-2 4 8 13 7 10 16 24 4 5 7 1 6-5 1-5-4-6-13-13-18-20-8-7zm-183 2-9 2-9 4-8 6-8 9-6 13-1 5v14h-9l-16 4-12 8-7 8-5 10-1 4v13l3 9 6 7 7 4 8 2h14l6 10 9 7 10 4h16l13-5 10-8 5 2 12 8 9 3 7 1h17l11-2 12-5 11-9 9-11 6 2 9 2h16l8-2 10-6 7-8 4-9 1-8-2-6-14-10-6-5-2-6-10-2-1-2v-9l-5-13-8-11-10-7-11-4-6-1h-10l-12 3-10 5-8 7v2l-3-1-7-12-7-7-9-5-8-3-6-1zm264 49-16 3-16 8-9 6-13 13-3 4v2h-2l-8 16-4 12-2 11v17l4 18 6 15 10 14 10 10 13 9 10 5 15 4 7 1h20l16-4 10-4 15-9 10-9 10-13 8-16 4-14 1-9v-13l-3-16-6-15-10-15-6-7-11-9-15-9-11-4-11-2zm-117 12-2 4 9 8 9 6 4 4 18 12 5-1 5-6v-6l-4-4-27-11-8-4zm-393 13-13 4-14 9-10 10-8 14-4 14-1 6h-17l-13 2-15 8-10 9-7 10-4 10-1 6v9l4 12 6 8 7 6 11 4 7 1 4 12 6 9 7 7 8 4 10 3h13l15-4 12-8 4 2 4 5 14 10 16 7 14 3h20l16-4 13-5 8-6 10-9 7-9 1-2 5 2 7 4 4-1 12-6 13-3 9-1 2-14 4-11 7-10 11-10 5-4-8-10-11-7-13-3-1-18-3-10-7-13-9-10-10-7-11-4-10-2h-12l-18 4-9 5v2l-4 2-7 6h-2l-7-13-7-9-10-8-12-6-8-2zm414 56-29 3-15 3-1 5 3 2 52 3 5-3 1-7-1-4-3-2zm-197 46-14 3-12 7-8 8-8 16-2 9-1 10-15 1-16 5-6 4-5 5-1 3-4 2-4 8-2 7v14l4 10 5 5 8 5 8 2h11l5 10 8 7 9 4 9 2 12-1 10-4 9-6 2-2 5 1 8 6 12 6 14 3h12l13-3 16-8 8-7 6-8v-2l7 3 6 3 12 2h10l13-3 10-6 6-7 5-10v-16l-6-12-8-7-11-4h-7v-11l-2-8-7-14-5-6-11-7-9-4-5-1h-14l-13 4-11 7-6 6h-2l-7-14-8-8-13-7-12-2z"/><path transform="translate(846,426)" d="m0 0 5 1 2 2v8l-6 11-7 11-6 11-5 7-4 8-6 5-8-1-6-5-1-9 8-11 12-14 11-13 7-8zm1 3-5 4-9 11-11 13-12 15-3 3-1 4 5 6 4 2 5-1 4-5 10-18 2-5h2l12-22 1-5z"/><path transform="translate(890,483)" d="m0 0h8l2 2v7l-7 6-15 10h-2v2l-19 12-8 5-6-1-5-4-2-5v-7l5-5 21-10 10-4 15-7zm3 2-21 9-29 13-4 4v7l5 5h6l39-26 8-7-1-4z"/><path transform="translate(855,549)" d="m0 0h10l38 3 6 5-1 5-5 3-35 6-11 1-5-3-3-6 1-9zm1 3-4 3-1 6 3 6 1 1h10l20-3 16-2 5-3-1-4-2-1-29-3z"/><path transform="translate(713,555)" d="m0 0h7l5 4 1 2v8h-2l-3-8-3-2-6 1-4 10-2-1v-6l4-6z"/><path transform="translate(791,555)" d="m0 0h6l5 3 2 4v7h-3l-3-9-5-1-5 5-2 5h-3l2-9z"/><path transform="translate(751,572)" d="m0 0h7l4 3v3l-4-1-5-1-3 3-3-1 2-4z"/><path transform="translate(706,575)" d="m0 0 9 1 5 4 2 4v9l-5 6-5 2-9-1-5-5-2-5 1-7 5-6zm2 3-6 3-2 3v8l4 5 2 1h6l6-5 1-7-4-6-4-2z"/><path transform="translate(798,575)" d="m0 0h8l6 4 3 5v8l-4 6-6 3-9-1-5-4-2-5 1-9 4-5zm1 3-5 3-2 5 1 7 5 5h7l6-5 1-7-4-6-4-2z"/><path transform="translate(726,597)" d="m0 0h2l6 9 5 4 9 4h15l10-4 5-4 4-7 1-2h3l-2 6-5 7-11 7-9 2h-7l-13-4-9-7-5-8z"/><path transform="translate(847,598)" d="m0 0h8l15 11 16 10 8 6 1 7-4 3-8-1-20-7-12-5-7-2-4-4-1-7 4-8zm2 3-5 4-2 7 2 4 12 5 27 10 7 2 2-2-1-4-8-6-10-7-20-13z"/><path transform="translate(666,610)" d="m0 0h6l6 4 2 5v7l-5 6-28 14-11 5h-6l-3-3v-5l10-10 11-9 15-12zm2 3-11 8-22 18-5 5 1 4 6-1 19-9 14-7 7-4 1-6-4-6-3-2z"/><path transform="translate(818,637)" d="m0 0 8 1 6 9 17 32 2 4-1 5-2 2h-6l-14-14-9-11-8-9-3-3v-8l8-7zm1 3-6 3-2 4v5l10 11 9 11 13 14 5-1-1-6-7-12-7-14-4-6-3-6-5-3z"/><path transform="translate(708,650)" d="m0 0h8l6 4 3 5-1 6-10 16-7 10-8 12-3 3h-6l-2-3 1-9 4-14 8-20 2-6zm1 3-4 4-4 11-10 27-1 6 4 2 5-5 14-22 9-13-1-6-6-4z"/><path transform="translate(766,658)" d="m0 0h7l5 3 3 4v14l-2 33-2 5-3 2-5-1-3-4-7-35-1-15 5-5zm2 3-5 2-2 2v8l7 35 3 8 4-2 1-4 2-44-4-4z"/></svg>
