<?xml version="1.0" encoding="UTF-8"?>
<svg version="1.1" viewBox="0 0 1024 1024" xmlns="http://www.w3.org/2000/svg"><path transform="translate(771,339)" d="m0 0h23l12 3 9 5 4 4 1 8-3 4-18 1-5 2-2 4 2 10 9 7 12 5 13 4v4l-8-1-13-5-12-6-6-7-2-4v-9l-5 3-4 7 2 9 3 3 16 8 13 4 12 2 4 2v2l-11-1-9-3-11-2-16-9-7-8v-10l6-8 7-5 8-3 20-1 1-4-5-5-6-3-12-2h-20l-16 2-22 7-15 6-17 8-15 8-8 5-28 14-12 5h-2l7 8 8-1 25-10 8-5 10-5 8-6 8-4 13-8 10-4 8-4 10-3 8-1h10l-2 4-9 6-7 8-4 10v7l3 6 6 5 14 5 23 4 8 7 5 6 10 5 10 3v3l-13-3-12-7-5-6-2-3-16-3-12-2-14-7-5-4-3-6v-14l5-10 6-5 2-5-10 3-23 9-12 8-11 6-7 5-24 12-19 8h-2l3 5 8 10 2 1h6l14-6 18-10 5-1h12l4 3 4 9 3 3 3 1h7l17-5h24l9 3 7 5 4 7-1 7-5 6-3 2-6-1-2-5-8 3-3 4v8l6 10 10 8 12 6 22 7 6 2v2h-10l-18-6-11-5-7-4v-2l-4-2-8-8-1-5v-14l6-7h10l3 4 5-2 2-4-2-9-8-4-8-2h-15l-14 3-17 7-19 10h-2v2l-24 12-1 3 2 6 9-2 26-14 15-9 12-4h6l1 5-7 9-2 9v13l2 7h2l6 7 8 6 19 8 8 2 27 2 7 1 1 3h-18l-19-3-16-4-14-8-5-3-7-8-5-10v-16l5-12 2-4-13 5-13 7-7 5-16 8-11 6 3 9 5 13 3 14 9-4 7-1h15l13 8 10 4 14 3 12 3 27 4v2h-15l-19-3-16-4-15-5-10-8-1-1h-16l-9 4-4 1 3 16 4 12 5 9 10 9 6 2 8-2h18l10 4 11 7 10 5 35 1 5 3-1 2-39-1-9-4-14-9-8-3-4-1h-10l-7 1 7 8 3 3 2 4v11l-7 8-9 6-6 8 11 1 10 4v3l-11-3h-13l-6 5h-2l-2 4-9 7-13 7h-2l1 2 13 3v3l-12-2-13-3h-18l-13 3-17 7-4 2h-6l-1-2 14-5 4-3-16-3-27-6-8-1h-32l-17 2h-26l-9-1-14 8-10 2 1 2 13 3 12 2-1 2h-14l-22-5h-19l-21 7-20 9-4 1h-9l-1-2 16-4 15-7 1-2-9-1-17-5-12-5-15-4-19 1-11 2v-3l13-4 17-1-5-5-10-9-3-5-6-5-8-14-8-16-3-11-5-2h-18l-10 4-21 12-4 1-36 1-18 5-10 4-4 1h-9l1-3 17-4 8-4 12-3 34-1 13-4 12-7 10-5 7-2h15l5 1-2-8-2-21-11-2-21-2-15-6-13-7-9-7-4-5-3-5-2-9-1-1h-15l-13 5-14 8-7 5h-2l1-4 10-7 14-8 10-3h16l6 4 2 12 2 5 5 2 7 6 12 5 21 7 12 2h13v-13l-25-5-15-4-16-8-7-5-5-5-5-6v-14l7-8 7-6h3v-2l-26 1-21 5-15 6-10 6h-3l2-5 19-9 12-4 8-2 9-1h23l7 2v4l-8 4-5 4-3 3-2 6v8l1 4h2l6 7 9 5 17 8 14 3 22 3 3-12-1-1-13-1-18-6-11-6-5-6-3-6 1-7 5-4 11-2 1-5-2-6-4-5-11-5h-28l-16 3-20 7-16 8-6 2 1-4 6-4 25-11 18-5 7-1 17-1-3-2-8-7-3-6h-11l-13 5-8 5-17 8-6 3h-5l1-3 29-14 12-6 8-2h8l6 2 5 8 10 7 2 1v2l10 2 14 7 29 7 21 2 2-6 3-2 3-10-12-2-19-6-9-5-12-12-2-4v-10l8-7 6-2h15l-4-4-5-3-12-3-13-1h-11l-21 3-28 7-9 4-20 8-11 6-4-1 1-3 19-9 18-8 31-9 10-2h41l11 4 8 5 3 4-1 7-1 1h-11l-3 2 1 7 5 4 12 6 20 4h16l8-9 5-4h2l2-4 18-13 16-9 12-6 21-8 13-3 16-2h45l22 3 19 6 10 4 14 6 16 9 18 12 10-2 12-5 15-8 12-6 14-8 17-9 10-4 8-4 12-4 22-5zm-269 19-17 2-14 3-21 6-6 4-4 3-1-2-5 2-14 7-16 11-13 11-11 11-2 3-8 8-6 8v2h-2l-6 11-2 4 1 5 5 6 4-2 6-7 7-8 4-4v-6l-1-2h2l1 3 5-1 15-9 13-5 6-3 12-1 6-1h19l12 1 1-3h2l1 4 12 5 16 8 11 7 10 9h4l1 6 9 11 11 21 5 16 3 1-1 7 1 7v27l-3 17-5 18 2 3-6 4-6 12v4l-4 1-6 8v3l12-1 15-4 16-8 23-12 18-8 20-7 11-3 12-1h16l19 3 16 7 9 5 10 6 3 1h10l5-5v-7l-9-10-9-6-10-4h-2v-5l-6-8-6-11-3-2 2-1-1-11-4-16-10-30-8-16-5-8-5-4h-2v-2h2l-1-5-6-8-3-3-9-11-6-7-8-7-14-11-7-2v-3l-15-9-10-4-16-7-26-7-10-2-8 1-5 2v-4l-10-1zm-187 29-7 4-2 4v7l5 8 7 6 10 6 11 4 15 3h9l7-8-1-3-9-2-24-5-9-4-7-6-2-4v-6l2-3zm393 25-11 4-13 8-15 6-2 1 1 5 10 16 3 4 8-1 21-11 9-6 12-6-1-5-7-6-3-8-1-1zm-263 9-8 4-3 2 3-5h-8l-9 3-8 2-16 8-8 6-2 3v4l-4-2-11 12-9 14-5 12-5 17 1 5v2l-3 5v16l3 13 6 15 6 9 4 1 4 6 9 6 11 4 4 1h21v-4l-2-4 6 5h8l11-5 6-4 14-14 1-4-1-3 4 1 6-12 4-15v-21l-3-3h-2v-2h3l-1-9-2-5h-2l-2-5-6-8-7-6-5-2-4 1 2-3-9-4-6-2h-19l-10 4-3 3h-4l-8 7-6 5-7 11-3 9v4l4 1-5 3v12l6 12 5 6 4 2 1-1v-5h2v6l3 4 6 2h10l10-4 1-3-1-2 6 1 7-8 3-8v-19l-6-9-5-5-7-2h-10l-9 3-6 7-2 6v10l6 8-4 2-1-6-2-3-3-11 11-13 6-4 1-2 16 2 4 2h6l2 6 8 16v2l-2 6-3 11 1 4-5 3-7 6-12 5-11 1-11-3-7-4h-5l-1-6-6-12-1-11-2-5-5 1-3 1v-2l9-3 2-3 3-12 6-10 8-10v-4l-2-5h2l1 5 4 1 13-6 19-4 3-2v2l17 6 14 7 7 7 4 3h3v7l7 18 2 11 2 1 2-1-4 4-3 17-4 13-5 10-1 1v6l1 3-2-2-4 1-7 8-16 10-10 5 1 5h-2l-1-4h-30l-6-1h-5l-2 3-1 8v-13l-8-5-6-4-6-7-3-1-3-5h-4l-2 1 3-4-2-8-3-11-2-12v-25h-3v-2l4-2 6-17 4-9 2-4-1-6-5-5-4 2-5 10-3 9-4 10-2 13 2 2-4 3-2 23v11l2 20 4 14 4 8 2-1 1 3 1 9 4 6 2 1 4 7 16 16 13 9 7 1h2l5 5 10 5 19 3h23l19-3 2-3 4 1 10-3 17-8 16-15 5-5 5-6-1-4 4-1 6-8 10-22 5-19v-30l-3-4 3-3-4-17-5-13-7-14-12-15-6-1 1-4-7-7-14-9-16-8-12-4-10-1zm-144 24-1 2v12l-2 2-12 3-2 2v7l8 9 11 5 17 5 12 1 3-5 7-20 5-11-1-4-9-2-20-3-12-3zm352 128-16 3-18 6-27 12-7 4-21 11-10 3-12 4-18 3-1 2-6 3-6 5 1 3 4 1h20l17-2h35l28 4 30 6h12l20-2 19-7 12-9 14-14 7-9 2-3-5-3-6-1-17 17-3 1 18-18-2-4-20-11-14-4-5-1z"/><path transform="translate(502,372)" d="m0 0 2 1-14 12-5 5 2-5 8-8z"/><path transform="translate(278,383)" d="m0 0h15l1 4-6 5-3 6v10l5 9 10 8 11 6 11 4v2h-6l-16-7-11-8-6-7-2-5v-13l5-9 1-1-11 1-23 5-12 4-24 10-19 9h-3l1-3 19-10 17-7 17-6 23-6z"/><path transform="translate(660,455)" d="m0 0 5 2 4 6 7 10 8 19 1 5h-3l-6-14-6-12-7-11-3-3z"/><path transform="translate(221,523)" d="m0 0h10l16 12 12 5 24 6 6 1v2h-13l-14-4-14-5-11-8-5-4h-12l-13 4-8 5h-3l2-4 6-4z"/><path transform="translate(580,560)" d="m0 0 2 1-16 12-4 1 5-5z"/><path transform="translate(452,588)" d="m0 0 7 1 5 5 1 4-7-1-6 7-12 9-14 4-10 1-14-3-7-5 3-1 15 3 16-2 5-2 2-2h3l9-6 5-5 1-4-4-1z"/><path transform="translate(228,599)" d="m0 0h8l6 4 1 6-4 3h-15l-4-3v-2h2v2h15l4-2-5-5-9-1z"/><path transform="translate(790,602)" d="m0 0h3v2l-2 1v3l5 1 2-4-4-1v-2h5l2 2v5l-3 2h-9l-2-2 1-5z"/><path transform="translate(278,604)" d="m0 0h5l2 2-1 4-3 2-5-1 1-6zm1 2-1 4h5l-1-4z"/><path transform="translate(734,641)" d="m0 0h18l10 4 8 10 3 10v8l-4 6-5 4-9 3-6 1h-35l-14-3-10-5-4-6 1-5 3-5 8-7 16-8 9-4zm-2 3-16 6-17 9-9 8v8l7 5 16 4h18l3-2 1 2h14l13-3 7-5 2-5v-8l-1-4-9-7v-3l-6-5z"/><path transform="translate(791,641)" d="m0 0h5l3 3-2 4h-2v-4h-3v3l-3-1 1-4z"/><path transform="translate(255,645)" d="m0 0h14l12 5 8 4 3 5-1 6-7 6-8 3-7 1h-21l-10-3-4-5v-6l7-8zm-1 3v2l-6 2-8 6-3 5v5l6 3 4 1h22l12-3 6-3 2-2v-5l-7-6-12-5z"/><path transform="translate(315,649)" d="m0 0h7l2 4-3 3h-6l-1-1v-5zm2 2v4l4-1v-3z"/><path transform="translate(556,667)" d="m0 0h14l6 4 2 3-1 6-5 3-4 1h-14l-7-3-3-4 4-6zm5 1-9 4-4 3 1 5 4 1h16l6-3 1-3-7-6z"/><path transform="translate(827,657)" d="m0 0 2 1-2 5-10 9-15 9-15 8-24 9-14 4-10 2-22 5-24 4-41 4-15 1h-68l-66-5-48-7-14-3-77-12-32-3-25-1h-68l-23 1-9 1h-12v-2l2-1 29-3 14-1h65l28 2 39 4 25 3 32 6 64 10 46 5 29 1h70l24-1 33-4 19-3 28-6 18-5 14-5 18-7 22-13z"/></svg>
