<?xml version="1.0" encoding="UTF-8"?>
<svg version="1.1" viewBox="0 0 1024 1024" xmlns="http://www.w3.org/2000/svg"><path transform="translate(796,324)" d="m0 0h20l14 3 12 6 4 5 1 7-4 5h-18l-7 3-3 5 1 7 3 5 9 7 12 5 17 5v3l-8-1-13-4-14-7-8-8-3-7 1-8 1-2-7 4-4 5-2 4 1 8 4 5 12 7 11 4 28 7v2l-10-1-25-7-16-8-7-8-1-2v-9l4-7 9-7 11-4h21l1-5-3-5-10-5-16-3h-15l-19 3-22 6-15 6-16 7-23 12-10 6-17 9-10 5-17 7h-3l11 11 9-3 20-8 17-9 6-3h2v-2l11-7 11-6 8-5 20-9 10-3 14-3h8l-1 3-11 7-9 10-4 11v8l3 6 7 6 9 4 13 3 20 3 6 7 5 6 14 7 11 3-2 2-13-3-13-7-5-6-2-4-8-3-22-3-10-4-10-6-5-7-1-3v-12l6-11 8-9 4-4-8 1-19 7-15 7-13 8-18 11-11 6-17 8-12 5-10 4 7 7 9 11 3 1 16-7 22-12 9-2h8l5 2 3 9 5 5 7 4 5-2 15-5 9-1h16l11 2 9 6 5 6 1 7-5 8-6 4-5-1-3-6-7 1-4 5-1 3v8l6 10 8 7 13 8 21 7 13 3 1 3h-7l-20-6-18-8-11-8-6-7-3-8v-11l3-6 5-4h9l3 3v3l7-3 3-6-2-7-1-3-5-2-11-4-5-1h-12l-16 4-18 7-22 12-11 7-16 7-4 1 4 12 9-3 16-8 17-10h2v-2l12-6 13-4h6v4l-7 9-4 13v9l4 11 7 8 6 4v2l6 2 16 7 12 3 18 2 16 1 4 1v2h-16l-22-3-16-4-9-4-13-7-7-6-7-11-2-5v-15l3-9 7-11-11 3-17 9-7 4h-2v2l-17 9-15 7 8 20 5 19 2 1 10-4 9-2h12l6 4 10 6 11 4 24 6 19 3 16 2v1h-11l-16-1-28-6-17-6-6-4-7-6h-15l-10 3-7 4 2 11 4 16 6 11 4 5 8 6 5 3 14-3h13l9 2 9 5 11 8 10 4h34l8 3v2l-10-1h-33l-8-3-13-9-12-6-8-2h-8l-10 3 4 4 7 6 4 8v8l-4 6-5 4-9 6-8 11h12l12 4 2 2-2 1-13-4h-11l-5 2-7 8-12 9-17 9 19 5v2l-8-1-19-5-5-1h-14l-18 5-15 6-7 3h-8l3-2 12-4 9-4-46-10-15-2h-28l-29 3h-19l-12-2-9 5-10 5-10 3 4 2 14 3 13 1-1 2h-14l-23-5-7-1h-14l-12 3-15 6-15 7-12 3h-10v-1l16-3 20-9 2-2-18-4-18-6-10-5-16-3-16 1-12 3h-3v-2l12-4 7-1h18l-8-6-14-14v-2l-4-2-9-14-8-15-7-20-10-3h-10l-13 4-11 6-9 6-7 3-7 1h-33l-17 4-10 5-13 3h-7l-1-2 15-3 19-8 13-2h31l12-3 16-9 10-6 11-3h13l7 2-2-12-1-20-1-1-33-4-15-5-16-8-11-8-4-5-4-7-1-9-3-2h-14l-12 4-17 9-11 8-2-2 12-9 14-8 10-4 7-1h13l6 3 3 14 4 6 12 9 14 6 18 6 18 3h14v-16l-17-2-22-5-18-8-9-5-13-13-2-7 1-9 7-9 7-6 5-1v-2h-27l-21 4-18 7-16 9-2-2 5-4 16-8 7-3 25-6 8-1h16l10 2 2 1-1 4-8 3-5 5-4 2-2 5-1 3v9l6 9 13 9 18 8 14 4 28 4 1-9 2-7-14-1-15-4-14-6-8-6-5-10 1-6 4-4 2-1 12-2 1-2-1-9-5-7-12-6-5-1h-24l-15 3-20 6-14 6-11 6-6 3v-4l19-10 15-6 15-5 9-2 13-1h11v-2l-5-2-8-7-2-6-3-1h-9l-12 4-29 15-7 3-7 2 1-3 16-7 19-10 10-5 11-3 10 1 3 3 3 6 7 6 10 6 13 4 10 6 28 7 21 3h6l4-8h2l2-5 4-8h-9l-19-5-16-7-10-9-5-5-2-5v-9l4-6 8-4 9-1 11 2-1-5-8-5-16-4-20-1-20 2-15 3-22 6-20 8-9 4-16 8h-5l4-4 16-8 23-10 31-9 17-3h39l11 3 9 5 6 7-1 5-2 2-10-1-6 4 1 7 5 5 10 5 9 3 19 3h16l14-14 11-9 17-12 16-9 18-8 17-6 20-4 15-2h39l27 4 18 5 27 11 15 8 21 14 4 3 7-1 21-9 25-13 10-6 11-6 23-11 14-6 25-7zm-287 21-18 1-18 3-23 6-8 3-5 4-7 8-4 5-6 13-4 13v9l2 1 19-3h12l18 2 5-12 4-10 8-12 6-7 10-8 10-6 16-7-1-2zm27 2-15 4-16 8-15 12-8 10-9 15-3 10 1 5 17 6 18 10 12 9 7 6h3l4-13 11-17 10-11 12-9 15-7 14-4h29v-2l-17-10-28-12-25-7zm-104 15-16 8-19 12-10 8-7 6-5 6-5 4-1 2v16l3 8 4-2 20-12 9-3 9-4 1-1v-9l4-14 3-9h2l7-11 4-5zm-133 14-9 5-3 7 3 9 5 6 10 7 7 4 19 6 11 2h8l8-10v-2l-13-2-23-5-9-3-8-6-4-5-1-7 3-4v-2zm303 5-15 3-13 5-8 4-10 8-8 7-9 12-8 14-2 6v6l10 13 11 19 7 20 2 4h2l7-14 4-6 3-3 3-5 12-12 8-6 5-5 17-9 11-4 10-2h23l14 4 5 1-2-5-7-10h-2l-2-4-11-13-9-9-11-9-9-7-14-3zm124 22-11 4-9 6-22 10-4 2 2 5 7 10 5 9 4 3 13-5 15-9 9-5 10-6 6-3-1-3-7-5-1-2h-2l-1-9-3-2zm-360 8-5 5-8 10-8 12-5 10 1 4 7 8 5-5 8-11 9-9-1-9-1-15zm74 2-7 3-9 8-5 10-1 4v8l7 2 11 3 12 6 9 7 8 8 3-4 4-6 7-7 12-6 14-3 17 1-6-7-15-11-16-8-13-5-7-2-13-1zm-17 1-17 5-16 7-12 8-3 5-1 4v7l3 7h3l8-5 9-3 18-3 1-1 2-11 3-9h2l5-7 4-4zm215 23-16 5-18 10-16 13-10 11-12 18-6 12 2 17v20l-3 20-6 18-1 6 5-1 28-21 17-12 7-4 12-7 10-4 12-5 11-3 25-3 16 1 14 3 6 4h3l-5-25-6-19-6-17-13-26-6-5-11-5-4-1zm-357 1 2 6v9l-5 5-12 2-2 2v7l3 5 9 7 12 5 16 4 13 1 4-10 6-18 6-12v-3l-22-3-21-5zm90 2-6 7-5 5-9 14-7 15-6 19v6l4-2 4-3 9-3 4-16 5-9 8-10 4-4-3-8v-11zm129 8-10 2-10 6-9 9-5 8 6 15 3 9 2 14 4-1 13-5 9-2h22l14 4 8 4 7 6h2l-3-16-4-14-10-20-7-9-6-8-9-2zm-95 3-13 4-2 4v14l2 3 16 1 11 5 7-13 8-7 6-2-1-3-13-5-4-1zm-68 2-4 9-8 20-3 9-1 11 12-2 2-7 5-14 7-15-1-4-6-7zm50 5-9 6-10 10-6 10-3 10v5l7-2h7l5-8 7-8 6-3-2-8v-11zm56 2-10 4-6 5-6 12 1 4 5 8 3 11h4l6-4 12-3h8l11 2-4-13-8-13-10-10zm-46 19-9 3-8 7-3 9v8l3 7 5 4 7 1 6-3 4-4 1-3v-7l-5-6h-8l-3 3v5h-2l1-9 3-1h9l5 4 2 10-3 7-5 5 2 6 6 7 6 3h4l7-8 4-10v-19l-4-8-7-7-11-4zm-31 19-8 4v12l4 11 7 9 6 4v-10l3-10 1-3-4-7-1-8-2-2zm86 0-13 4-8 5-3 13-3 8 5 2 6 2 10 6 8 9 4 8h3l8-18 3-13v-21l-5-3-7-2zm-126 4-7 4-2 12-1 22 2 20 5 21 4 8h2l3-12 5-10v-2l3-1-1-6-4-11-3-20v-13l1-11-1-1zm25-1-7 3-5 4-3 5v16l2 12 4 12 7 13 6 7h1v-18l3-11 5-8-2-5-5-10-2-9-1-10zm152 3-16 4-10 6-2 16-5 18-8 14 2 5 14 12 8 6 17 11 19 10 10 3 7-9 8-16 5-13 4-19 1-9v-20l-3-5-11-8-8-4-11-2zm-124 14-3 10 1 9 3 4 8 2h8l12-3 3-3-10-7-5-10-12-2zm284 11-19 5-19 7-17 10-9 5-10 8-19 14-15 10-6 3-6 11-3 6 2 1 9-3 17-8 8-6 17-12 17-11 14-7 15-6 13-3 14-2h18l21 3 27 9v-3l-7-9-6-12-11-7-10-3zm-239 1-9 9-12 6-11 2-11-2-13-7h-4l-4 5-3 8-1 7v8l3 10 7 6 9 5 14 3h19l5-1-5-5-5-6-7-14-3-13h2l1 10 5 11 5 8 8 7h8l12-5 11-8 8-9 5-5-2-7-6-9-9-8-10-5zm237 22-18 4-13 5-16 7-16 10-18 13-11 7-10 6-9 4-12 2-9 12v1l13-1 12-3 10-4 16-8 15-8 23-11 14-5 7-3 14-4 22-2 17 1 12 2 13 5 17 9 9 6 6 2h10l5-5v-7l-7-9-11-8-16-7-17-5-13-4-10-2zm-321 13-6 9-3 10-1 13 6 11h2l2 5 9 10 5 5 9 8 10 7 6 3 3-1-7-15-3-11-1-16 1-13-12-6-11-11h-2l-2-5-3-3zm119 1-10 11-13 9-14 6 1 9 5 12 8 13 5 6 7 6 5 5 14 8 5 2 9-2 20-10 12-9 8-8v-2l4-2 5-7v-3l-11-4-22-12-11-8-12-9-13-11zm210 12-16 3-24 7-19 9-10 4-8 5-16 8-13 6-20 6-19 2v3l3 1h9l32-5h30l24 4 10 2 24 2h10l21-2 13-4 15-8 12-11 8-8 2-1-1-4-15-9-12-5-14-4-7-1zm-294 14-2 4-1 13 2 13 6 18 7 9 10 5 13 3 13 2h19l24-3 3-3-13-7-9-7-9-9-6-9h-2l-2-5-8-22-2-1-10 2h-19l-11-3zm364 8-20 20-16 9-10 3-14 3-11 1h-14l-19-2-10-2-10-1-18-3h-28l-25 4h-24l-10 8 1 2 5 1h19l28-3h26l23 3 25 5 22 4h10l4-1 18-1 18-6 13-8 10-9 10-11 7-9 2-1-1-3-8-3z"/><path transform="translate(261,372)" d="m0 0h14v3l-6 5-4 6-1 3v9l4 9 10 9 16 9 12 4v2l-6-1-15-6-11-7-9-8-4-9v-12l4-8 5-6-28 5-21 6-25 10-27 13h-2l1-3 16-8 13-6 28-11 24-6z"/><path transform="translate(673,449)" d="m0 0 6 5 2 5h2l7 12 8 18 2 8h-2l-10-23-8-14-7-9z"/><path transform="translate(198,524)" d="m0 0h7l6 3 10 9 7 4 18 6 19 4 7 1v1h-15l-16-4-13-5-12-7-10-8h-10l-13 4-14 8-2-1 9-7 14-6z"/><path transform="translate(204,607)" d="m0 0h7l8 5v5l-3 3-4 1h-12l-5-3 1-7zm-2 2-6 5 2 4 3 1h8l7-2 1-4-5-4z"/><path transform="translate(815,610)" d="m0 0h8l3 2v5l-5 3h-6l-4-3 1-5zm2 1-4 3 1 3 7 1 3-2-1-4z"/><path transform="translate(258,612)" d="m0 0h5l2 3-1 5-5 1-4-2 1-5zm0 2-1 4 1 1h5l1-4-1-1z"/><path transform="translate(757,652)" d="m0 0h14l12 5 8 9 4 9 1 10-3 7-6 5-13 4-8 1h-32l-17-3-9-4-5-4-2-6 3-6 11-10 16-8 13-6zm-2 3-13 4-20 9-12 8-5 6-1 6 6 5 7 3 16 3h16l17-14 5-6 3-11-1 8-5 9-15 12v2h15l14-3 8-5 3-3 1-8-3-9-10-7-6-1h-1l4-1 7 3-2-4-6-5-5-1z"/><path transform="translate(816,652)" d="m0 0 6 1 2 4-2 3h-3v-2l2-1v-2h-5l1 5-4-2 1-5z"/><path transform="translate(234,657)" d="m0 0h12l12 4 11 6 4 6-1 5-7 6-9 3-11 2h-18l-12-3-5-5v-6l6-8 11-7zm-1 3-11 6-6 5-4 7 2 4 6 3 6 1h20l17-4 6-4 1-1v-5l-5-5-14-6-4-1z"/><path transform="translate(299,661)" d="m0 0h6l3 3-2 4-6 1-3-1v-5zm0 2v4h6v-4z"/><path transform="translate(564,680)" d="m0 0h8l8 4 4 5-1 5-4 3-9 2h-10l-8-2-5-4 1-4 5-5zm2 2-11 4-5 3 1 5 7 2h15l7-3 1-4-7-6z"/><path transform="translate(855,670)" d="m0 0h2l-1 4-11 10-22 14-23 10-13 5-12 3-22 6-15 3-39 6-28 3-32 2h-55l-36-2-42-4-37-5-16-2-47-9-23-3-42-6-30-3h-12l-19-1h-55l-21 1h-10l-18 2h-10l1-2 28-3 32-2h50l34 2 20 2 17 1 41 6 22 4 21 3 38 7 15 2 60 6 34 2h65l40-3 40-5 25-5 31-8 22-8 13-5 14-8 9-5 13-11z"/></svg>
