<?xml version="1.0" encoding="UTF-8"?>
<svg version="1.1" viewBox="0 0 1024 1024" xmlns="http://www.w3.org/2000/svg"><path transform="translate(505,115)" d="m0 0h36l14 2 9 4 5 5 11 17 11 19 8 16 8 14 3 3 11 7 10 7 15 10 11 8 9 7 4 5 2 3v10l-5 10-7 7-4 3h-2l-1 3-7 4 3 20v14l-2 15-4 16-8 16-2 3v3l7 6 4 11v19l4 8 5 8 1 10-1 7 13 19 8 18 4 10 2 8 8 4h13l4-7v-9l-3-4-2-7v-8l3-7 5-6 7-4 10-1 5-27 5-25 3-19 8-38-3-2-30-9-5-3 2-9 7-16 9-12 1-4v-9l5-10-1-5-7-19-2-12-3-21v-34l4-27 2-8 4-2h7l1 1-1 33h2l1-10 6-20 3-4h12l26 4 16 4 14 3 7 3 12 3 18 6 2 2-2 9-2 6h2l2-5 2-4h2l1-3 6 1 12 7 1 1v6l-5 13-11 23-5 10h-2l-2 5-7 12-10 14-9 10-10 11-3 3v12l-4 10 1 7 3 16v15l-2 6-1 1-19-1-18-3-4 16-1 10-11 53-1 8-3 15v4l10 5 7 7 5 10 1 5v14l-4 13-7 13-9 9-14 8-7 2-5 28-7 34-2 13-9 43 1 5 10 25 4 17 3 14 2 18v23l-2 18-5 21-4 14-12 24h-2l-2 5-9 12-9 10-9 9-9 7-3 14-1 9-3 9-4 3h-12l-8-4-3-4v-8l-23 9-33 8-19 3-35 2h-27l-35-2-28-5-28-8-27-12-20-13-13-11-11-11-13-18-7-13-6-12-7-23-3-14-2-19v-21l3-24 4-17 5-17 6-15 7-15 10-16 10-13 9-10 12-12 7-5-2-5-8-18-5-18-1-7v-23l-14 8-15 11-12 11-3 8 1 8 6 15v9l-1 3h-2l-1 3-5 3h-10l-7-4h-2l-7 9-8 8h-2l-1 3-13 6-4 1h-9l-10-4-5-6-3-8v-16l4-12 6-10 8-10 9-8 10-7 11-5 12-4 8-5-14-1h-38l-11 1-9-1-7 5-6 1-4-2-1-6 6-7h-8l-2-2v-6l3-3 1-3h-5l-1-1v-7l3-4-4-2-1-5 3-4-3-3v-7l3-4-4-3v-6l3-3h2v-2l-7-1-3-4v-5l6-4 7-1 1-2-10-1-3-3v-5l5-4 3-1-5-3-1-5 4-4 2-1h6v-2l-5-1-3-3 1-5 4-3 3-2-4-3 1-7 4-3h10l10 3 3 1 2-1h8l18 6 16 9 11 6 8 5 20 8 14 3h20l18-4 18-6 10-2v-16l3-7 6-7 2-1-1-4-8-16-4-11-1-4-20-4-6-3-4-3v-2h-2l-3-8 1-9 8-15 7-14 5-8 9-16 4-8v-36l1-21 2-14 4-11 7-9 13-10 17-9 10-5 21-7 19-5zm7 4-17 2-29 6-20 8-19 9-16 12-7 8-3 8-2 11-1 12v17h3l10-6 2-1v-2l5-2 19-9 10-5 14-5 24-8 37-7 24-2h14l27 2-2-5-12-21-9-12-5-4-10-4-15-2zm238 16-3 9-6 27-2 17-1 17-4-21-1-9v-38h-4l-3 12-2 15v42l4 22 5 16 4 10 2 2 8 1-1-10-2-24h2v9l2 16 4 10 9 3 19 4 10 1 4-5 9-15 6-14 4-8 9-26v-3h2l-8 26-3 9-6 14-8 16-3 5v2l4-1 12-12v-2h2l1-1-9 14-1 5h6l10-9 9-11 11-15 7-10 10-18 8-16 7-16 1-6-10-6-3 1-10 17-11 23-10 21 3-10 7-21 4-16 5-17v-4l-19-7-5 1-9 15-8 16-11 29v3h-2l8-25 4-13 10-23v-6l-21-6h-5l-6 13-12 38-3 13-3 17v7h-2l4-28 4-22 13-39-7-2h-5l-3 5-6 27v6h-2l2-18 4-17v-4l-10-2zm-203 33-24 2-26 4-21 6-11 4-13 4-10 5-14 6-13 8-11 6-3 2v2l-3 1v22l2 1v-2l5-2 11-6 18-10 12-5 20-8 25-8 11-3 32-5 11-1h37l17 2 1-2-9-19-17-3zm0 26-24 2-23 5-31 9-19 8-11 4-15 8-8 4-19 12-10 18-7 12-6 12-5 8-5 11 1 4 9-10 12-9 17-10 32-16 13-5 19-7 34-11 39-8 25-3h55l20 3 17 5 7 4 3-1-6-7-17-12-8-6-17-11-8-5h-2v-2l-8-4-22-2zm46 41-25 1-31 4-18 3-23 6-13 4-24 8-10 4-16 7-18 8-12 7-4 2-2 10v22l4 18 3 10 5 9 9 13 7 7 22 12 26 8 23 4 11 1h25l24-3 21-5 18-6 18-10 6-5 10-15 7-14 5-15 2-11v-24l-4-18-8-21-12-18-2-2zm33 3 3 6h2l2 6 9 19 2 4 6-3 9-7 7-8-1-5-5-4-9-4-18-4zm110 22-2 4-1 6v8l42 10 25 5h6l2-2-1-4-23-6-20-5-27-7 26 5 14 3 32 6 1-1v-6l-6-2-39-9-17-3zm-4 23-8 9-7 12-3 8 1 4 16 6 4-4 4-11 4-7v-2h2l-6 14-2 10 10 4 26 6h7l2-5 1-13 1 1v17l2 2h7l1-3 1-8v-9h2l1 20 1 1h10v-20l-3-15-2-2-32-7-2 7-3 13v3h-2l2-9 1-14-8-3-18-3-7 8-5 7 7-14-1-3zm-342 11v2l-5 2-9 7-7 7-2 5 1 4 10 5 5 1h9v-33zm362 38-3 9-4 24-9 43-3 19-3 15 1 4 10-3 7-1 2-6 9-44 3-19 7-33-1-4-2-2zm-123 38-7 7-6 4 1 3 4 4 4 9 3 18 7 14 2 11 5-2 6-7 1-7-3-9-7-12v-20l-3-8-5-5zm-220 3-5 4-2 5-1 3v21l-4 7v2l-3 1-3 6v12l7 8 4 2 1-1 2-12 6-9 4-8 1-18 5-9 3-3v-2l-9-7-2-2zm-198 3-3 2 1 3 19 3 2-4-9-4zm25 4-4 4-8 24-4 19-1 7v8l3 2 5-1 2-1h15l12 3 6 1 1-1 2-20 4-16 6-11v-4l-16-8-11-5-3-1zm374 5-8 5-13 5-6 3 1 4 3 8 1 22 6 18v12l7-1 10-4 16-8 6-5v-12l-5-10-3-5-3-19-4-8-5-5zm-184 1-4 5-3 8-1 16-4 8-5 8-2 6v11l10 6 16 7 10 3 1-3v-12l7-20 1-16 3-10 2-5-11-5-16-7zm-204 1v2h2v-2zm-12 3-5 2 1 3 12 2h5l1-4-2-2zm69 8-4 6-6 16-3 14v13l2 2 25 8 10 2h15l1-1v-22l3-15 1-4-2-2-12-3-11-5-17-9zm-65 2v2l6 1v-2zm247 0-5 10-2 21-3 8-3 7-1 5v9l2 6 17 5 22 3h6l-1-11v-24l3-22 3-8v-3l-30-5zm113 0-7 2-23 3-4 2 3 11 2 9 1 9v22l-2 15 1 1 12-1 13-2 17-5 3-4v-14l-4-13-1-19-2-9-4-6zm-370 4-3 2 2 4 15 2 1-5-5-3zm189 1-18 6-3 2-1 3v17l2 5 2 1 10-4 1-1 1-11 6-12 3-5zm112 2-5 8-3 13-1 8v28l2 9 2 2 12 1h15l12-1 2-6 1-6v-31l-1-11-5-13-1-1zm-142 7-10 2-27 1-4 15v25l3 2 16-4 17-7 11-6-1-28zm-152 1 4 2 2-1-1-1zm-11 4-2 4 4 2 14 1 1-5-5-2zm13 10 1 2zm-8 5-7 3v3l7 1 9-1 1-4-2-2zm442 5-8 7-18 10-12 6-21 8-31 7-14 2-14 1h-18l-24-2-22-4-21-5-21-8-16-8-12-8-4-3-3 4v2h-2l-6 10-8 17v4l6-2 8-4 6-2h7l5 4 1 3v9l-3 5-18 7-13 6-7 3-1 1v25l3 16 5 16 8 15 11 14 10 10 12 9h2v2l21 11 14 6 11 3 20 5 20 3h43l20-3 17-4 21-7 14-7 12-7 12-9 10-9 8-10 8-13 6-13 5-17 2-11v-24l-3-16-5-16-4-11-13-23-4-5zm-265 1-15 8-10 5-1 1v9l2 15 3 6 3-1 5-13 8-16 8-13zm-153 6-2 6-1 7v27l2 14 3 12 3 3h8l20-2 1-2-3-11-2-18v-12l2-19-3-2-14-3zm488 1-6 3-4 5-2 5v7l2 4 2-1 6-12 9-9v-2zm-507 1-7 3 1 4 9-1 9-3v-3zm531 0-9 2-9 6-7 8-3 9-1 4v16l4 8 8 6 12 5 2 2v8l5-1 12-6 8-8 8-16 1-5v-18l-4-10-8-7-8-3zm-477 5-2 8v29l3 19 2 4 7 1h36l3-2-1-7-3-20-1-21-7-2-19-4-14-5zm86 3-13 4-10 2-14 1-2 2v14l3 21 3 8 4-1 12-6 8-5 16-8-1-9-3-14-1-8zm-139 5-6 3v4l10-1 6-2-1-4zm1 12-6 3v4l12-1 3-2-1-4zm182 1-46 23-14 8-11 6-9 6-11 6-11 7-15 5-16 9-11 10-8 11-6 14-1 5v11l5 10 5 4 3 1h10l12-6 12-11 7-9 1-2 5 1 6 4h9l4-4v-10l-3-7-2-7v-12l5-9 12-11 13-9 5-3v-2l5-2 30-15 20-7 3-4-1-7-4-4zm-179 11-7 3-2 4 5 1 10-3 1-2-1-3zm6 11-10 4-4 5 1 1h6l8-4 1-5zm486-1-7 5h-9l-9-3-1 3 2 14 9 4 11 3h6l2-5 2-12-5-9zm-484 14-6 4-5 5 1 3 6-2 8-4-1-5zm493 0-3 15-3 19-9 45-2 12-9 44-3 19-9 43-2 13-9 43-2 14-10 48-2 13-9 43-1 15 4 3 4 1h7l2-1 7-34 4-23 8-39 2-13 9-44 4-23 8-38 1-9 9-42 4-23 9-44 2-13 7-36-15-8zm-31 11-2 7-3 21-4 15-8 16-4 7 1 4 13 12 12 13 2-3 10-50 3-18 3-16-7-3zm-308 68-13 11-11 11-13 17-10 17-8 16-8 22-3 12-4 27v35l5 31 7 19 9 18 10 14 15 16 8 8 17 12 14 7 7 4 20 7 17 5 30 5 18 2 18 1h24l26-2 27-4 17-3 16-5 22-8 6-4 4-18 3-18 9-43 2-13 10-49 2-12 9-43 1-10 10-47-2-5-12-14-10-10-5-4-4 2-11 12-17 13-15 9-23 9-16 5-26 4-11 1h-31l-25-3-18-3-18-6-18-7-13-8-7-4-13-10-7-8-5-4-5-7zm334 73-9 41-3 19-9 43-2 14-10 49-2 12-3 15v5l5-3 13-13 12-16 10-17 9-24 3-14 2-16v-37l-2-18-4-17-8-22z"/><path transform="translate(579,254)" d="m0 0 8 1 6 4 5 6 2 8v11l-2 8-6 7-4 2h-4v2l29 2 16 3 5 3 1 4-3 6-13 8-21 7-29 8-13 2h-16l-6-4-5-6-2-7v-10l3-9 8-7 8-2 27 1 6 1v-2l-6-1-5-4-5-10v-9l2-10 4-6 6-5zm1 4-6 3-3 3v2l10 2 5 4 2 6v13l-2 5h3l5-6 3-7v-8l-3-9-7-7zm-38 48-6 4-4 6-1 3v10l3 6 8 7 8 1 12-2 2-1-1-5-2-13h2v8l5 8h7l13-4v-8l4 7 11-3 5-3-1-6h2l1 5 6-1 9-4 5-4-1-5-2-1h-11v5h-2l-1-6-7-1h-9l-1 7h-2v-6l-4-2h-13l-2 5-1 5-1-1v-9l-1-1-11-1h-10l-4 7-2 8v-9l1-5z"/><path transform="translate(491,263)" d="m0 0 9 1 7 6 4 7 1 4v14l-3 7-5 7-4 2h-13l-8-7-4-7-1-4v-11l4-10 4-5zm-2 4-6 4-1 5h7l6 3 4 6 1 3v11l-2 7 4-1 5-6 1-5v-12l-3-8-4-5-4-2z"/><path transform="translate(597,338)" d="m0 0 5 2 2 3-1 5-2 2h-6l-3-4 1-5z"/><path transform="translate(489,349)" d="m0 0h5l3 4v5l-2 2h-7l-3-5 2-5z"/><path transform="translate(584,353)" d="m0 0 6 1 2 2-1 7-3 2-6-1-2-3 1-6z"/><path transform="translate(506,360)" d="m0 0 5 1 3 4-1 4-3 3-7-1-1-1v-7z"/><path transform="translate(568,363)" d="m0 0 6 2 2 5-2 4-2 1h-6l-3-4 1-5z"/><path transform="translate(523,368)" d="m0 0h8l2 3-1 7-6 2-5-4 1-7z"/><path transform="translate(547,368)" d="m0 0 5 1 2 2v7l-2 2h-7l-3-3 1-6z"/><path transform="translate(555,494)" d="m0 0h10l5 3 3 4 1 8-3 7-6 4h-10l-5-3-3-6v-8l4-7zm2 3-5 4-1 9 4 6 6 1 6-3 2-3v-8l-5-5z"/><path transform="translate(560,557)" d="m0 0 8 1 6 5 2 10-3 7-6 4-7 1-7-3-4-6v-10l4-6zm-1 5-6 5-1 5 3 5 4 3h6l6-5 1-6-2-5-3-2z"/></svg>
