<?xml version="1.0" encoding="UTF-8"?>
<svg version="1.1" viewBox="0 0 1024 1024" xmlns="http://www.w3.org/2000/svg"><path transform="translate(485,147)" d="m0 0h46l13 3 8 6 9 15 7 12 8 14 2 6 8 13 5 5 9 6 10 7 18 12 12 9 5 6 1 2v10l-5 10-7 7-6 4-5 4 2 16v17l-4 23-4 9-6 11 1 4 6 7 3 8 1 21 7 12 1 10v6l8 12 8 16 7 16 2 6 4 2h14l3-5v-8l-4-8v-12l6-9 6-4 10-2 7-35 2-13 6-31 3-13v-8l-29-10-4-3 1-8 8-16 6-9h2v-12l4-8-1-9-6-16-3-17-1-17 1-38 4-20 2-2h10l-1 29h2l1-11 5-16 2-2h16l17 2 21 5 25 7 18 6 2 2-1 9v3l3-6h2l1-3 7 1 10 7 1 5-5 13-3 7-8 16-5 8-6 11-8 11-6 8-10 11-8 10-1 12-2 6v8l2 10v21l-3 4-19-1-14-2-4 16-2 17-8 34-4 30 6 2 8 7 5 8 2 6v15l-4 12-6 11-9 9-14 8-5 2-4 22-3 17-5 24-3 15-1 9-4 16v8l6 15 5 15 5 21 1 14v30l-1 13-7 26-7 17-6 10-2 1-4 8-11 13-9 10-10 8-1 2-3 21-3 6-3 3h-12l-8-5-2-2-1-7-28 10-19 5-29 3-15 1h-54l-34-4-29-8-25-11-16-11-10-8-12-11-9-11-7-10-10-19-5-13-6-26-1-8v-35l3-18 6-25 11-26 13-22 9-10 7-8 13-13 3-2-1-8-7-14-5-18v-25l-13 7-15 11-8 7-3 7v7l6 18-1 8-4 5-4 2h-10l-5-3h-3l-9 11-8 7-13 6h-11l-10-5-4-7-1-3v-20l4-11 8-11 8-9 14-10 18-7 6-3 1-1-4-1h-60l-5 4-7 1-4-3v-5l4-6h-6l-1-1v-7l2-3-4-3v-7l1-3-3-3v-5-4-9-3l-1-1v-7l3-4-6-2-1-1v-7l5-3 5-1-9-3-1-7 5-5-3-3 1-5 4-3h5l-1-2-5-3 1-6 5-4-2-2v-6l4-4h10l8 2 15 1 10 4 7 2 11 7 17 9 5 3 14 5 11 3h22l24-6 16-5 1-15 4-8 5-5-1-5-8-16-3-10-6-2-12-2-8-5-5-6-1-3v-7l3-7 8-16 6-11 6-10 8-15 1-47 2-19 5-12 6-7 13-9 13-7 8-4 19-7 11-3zm10 3-33 6-15 5-27 12-13 11-5 5-5 8-3 16v22l3 1 10-6 9-6 20-9 12-5 28-9 18-4 28-3h31l13 1 1-3-8-16-3-5h-2l-2-5-9-10-9-4-11-2zm223 15-3 7-2 6-3 16-3 21v10h-2l-1-10-2-15v-32h-4l-3 12-1 7v47l4 20 6 18 3 4 7 1v-8l-1-7h2l1 10 4 6 7 3 23 5h5l6-9 9-16 4-10 7-16-7 20-9 20-5 8 1 3 4-1 8-8-4 8v4h6l7-6 9-11 13-18 6-10v-2h2l17-34 2-7v-5l-8-5-4 2-5 8-9 16-2 6-8 16v-3l8-24 5-20v-7l-15-6h-5l-5 6-10 18-3 7-10 26 10-31 5-13 4-9v-7l-8-3-9-2h-6l-3 3-6 15-5 17-5 16v-7l4-15 9-27-1-4-2-1h-7l-4 6-5 25v3h-2l2-8 3-16 1-10-2-2-5-1zm-202 31-23 3-23 6-27 9-8 4-10 4-14 8-9 5-5 4-3 4v18h3l9-5 19-10 27-12 37-11 15-3 19-2h56l-1-6-6-12-2-2-12-2zm10 23-19 2-27 7-16 4-18 7-10 4-16 8-17 9-11 8-12 21-5 10-7 12-5 11 1 4 5-5 8-7 15-9v-2l6-2 28-14 25-10 33-11 44-9 15-2h59l17 3 17 6 4 1-1-4-8-7-10-7-8-6-16-10-9-5-4-4-6-2-12-1zm31 38-18 2-39 6-30 9-21 7-21 9-22 10-11 7-2 5-1 5v19l5 20 8 17 9 12 7 6 16 8 10 4 25 6 19 3h28l22-3 27-7 9-4 15-8 6-5 10-16 6-13 5-16 1-6v-22l-5-19-5-13-4-8-10-14-10-1zm48 3-1 2 5 7 9 19 2 3 5-1 10-8 5-6-1-6-8-5-19-5zm100 20-3 5v10l3 3 18 4 39 9h7l2-4-2-3-19-5-14-3-7-2h-4v-2l21 5 23 4h3v-6l-7-3-16-4-31-6zm-4 21-8 9-8 16v5l5 3 8 2 5-1 6-13-2 7-1 8 8 4 21 5h10l2-2 1-4v-7l1-1v14l2 2h6l2-4 1-7-1-6h2v14l2 4h8v-27l-3-7-15-4-15-2-2 4-1 10h-2l1-3v-11l-6-3-16-3-4 2-4 5 1-8zm-314 11-6 3-13 12-2 4v5l9 5 4 1h8l1-1 1-28zm333 34-3 6-4 21-3 16-7 34-2 14-1 13 11-1 5-2 4-14 5-26 7-36 3-14v-6l-2-3zm-114 35-8 8-3 2 2 5 5 9 4 19 5 11 2 9 4 1 7-7v-11l-4-10h-2l-1-4-1-20-4-8-4-4zm-202 3-5 5-2 4-1 21-4 8-3 3-1 2v14l5 6 5 2 2-6 2-8 7-11 1-3 1-14 3-8 3-4v-4l-9-7zm-183 3-2 3 5 2 6 1h8v-3l-6-3zm23 4-4 6-7 19-3 16v16l1 1h24l13 2 2-1 2-18 4-15 4-8v-6l-19-10-6-2zm344 4-8 5-13 5-3 2 3 9 2 23 5 14 1 13 12-3 16-8 7-5v-14l-6-10-4-19-4-8-4-4zm-169 1-5 8-2 19-9 15v16l10 6 10 4 8 3 5-1 1-1 1-16 5-14 2-17 3-8-1-4-12-5-10-5zm-200 4-2 1v3l9 2h7v-5l-6-1zm66 7-4 5-5 11-3 13v17l9 4 14 4 8 2h16l1-1 1-20 2-13v-6l-15-5-21-10zm-59 2 1 3 2-2zm226 0-3 4-2 7-2 17-5 13-1 2v15l4 4 24 5 6 1h8l1-1 1-37 1-13 2-6v-6l-30-5zm102 0-16 3-12 2-1 4 3 11 1 9v39l20-2 19-5 3-4v-15l-3-8-2-21-3-10-4-3zm-339 4-2 1 2 4 3 1h10v-4l-4-2zm171 1-14 5-3 3v19l2 3 7-1 5-3 1-10 7-13v-3zm107 1-4 5-3 8-2 10v32l3 7 7 2h23l7-2 3-8v-34l-2-9-4-10-1-1zm-134 7-18 2-13 1-3 7-1 4v25l1 1h7l12-3 14-6 9-6v-24l-1-1zm-134 1 1 2zm-13 3-2 4 4 2 12 1 1-5-3-2zm4 14-6 3 1 3 9 1 5-2-1-5zm406 5-9 7-11 7-16 7-12 5-32 8-22 3h-26l-20-2-28-6-16-4-18-8-15-8-7-5-5 1-5 6-8 17-2 3v5l6-1 8-4 3-1h8l5 5v9l-2 4-18 7-10 5-7 3-1 1v27l4 17 4 11 7 13 8 10h2l2 4 7 7 15 12 16 8 9 4 19 6 23 5h58l23-5 24-8 19-10 8-6 15-13 8-10 7-11 6-14 6-23v-23l-3-16-4-13-5-12-10-19h-2l-2-4zm-244 1-21 11-1 1v20l3 7 4-1 5-11 8-16 4-7v-4zm-139 5-3 7-1 21 1 15 4 17 4 4h10l14-2 1-1-1-8-2-12v-37l-8-3-5-1zm447 1-7 6-2 4v10h4l6-11 6-6-1-3zm-466 1-5 3 1 4 12-2 3-4-1-1zm487 0-8 3-9 7-5 8-2 6v19l4 6 5 4 13 7 2 7 7-1 10-5 8-10 5-11 1-3v-19l-4-9-7-6-6-3zm-436 5-2 3v36l3 14 5 3h36l2-2-1-14-2-13-1-17-9-3-20-5-6-2zm78 2-18 5-16 2-1 1v18l3 17 2 4 8-1 12-7 17-9-1-13-3-15zm-128 5-4 3 1 4 11-2 2-3-1-2zm1 11-4 2 1 5 9-1 3-4-1-2zm167 1-30 15-17 9-20 11-9 6-17 10-16 6-13 8-10 9-9 14-4 10v15l5 8 6 4h11l11-6 11-10 7-9 6 2 4 2h7l4-3 1-3v-7l-4-10-1-7 1-8 6-9 10-9 14-9 4-4 21-10 12-6 10-3 6-4 1-1v-6l-4-5zm-164 10-6 3v5l7-1 5-3-1-4zm3 11-6 3-3 3v2h8l5-4v-4zm450-2-6 4h-10l-6-2-1 1v12l5 5 4 2 10 2h6l3-10v-7l-4-7zm9 13-2 6-7 37-1 8-8 39-2 12-10 51-5 26-8 39-6 34-6 29-5 27-6 28-1 20 5 3h9l3-7 7-35 2-15 8-37 2-14 9-44 3-16 2-11 5-25 4-21 4-19 5-27 2-8 2-13 10-51v-9l-12-7zm-454 0-9 7-1 3 8-1 5-3-1-5zm426 10-2 1-2 10-1 10-4 17-8 17-3 5 1 5 22 22 3-2 5-27 5-25 4-22-1-4-18-7zm-285 63-14 12-8 8-11 15-7 11-8 15-4 9-7 21-3 14-1 7v52l4 21 9 22 8 14 10 13 21 21 15 10 19 10 16 6 19 5 24 4 21 2h43l29-3 29-6 17-5 19-8 4-4 4-20 1-10 9-40 2-16 10-47 3-19 6-27 3-19 6-29v-7l-7-9-9-10-8-8-5 1-12 12-12 9-11 7-10 5-24 9-7 2-28 4h-37l-36-4-19-6-11-5-8-3-11-8-7-4-10-8-7-8-5-5-2-3zm308 68-2 5-2 11-6 29-5 24-1 8-9 46-2 9-1 8-7 35 1 5 5-3 12-12 5-7v-2l3-1 10-17 5-11 5-16 3-14 1-8v-40l-3-19-4-14-5-14-1-2z"/><path transform="translate(559,275)" d="m0 0h7l6 3 6 7 2 7v10l-4 11-6 5h-4v2l22 1 17 2 6 4 1 5-3 5-14 8-39 12-12 2h-20l-6-4-4-6-1-3v-13l3-8 8-6 4-1h21l9 1 2 1v-2l-7-2-4-4-3-6v-14l2-6 4-6 5-4zm2 3-8 5 3 4 9 3 3 7v13 3l4-2 4-6 1-10-2-9-7-7zm-35 44-8 7-1 3v13l3 5 6 6 9 1 10-2 1-1v-8l5 6 10-1 8-4v-3h2v2h9l6-4 2-3 3 2 10-4 6-4v-5l-1-1h-10l-1 4h-3l-1-5-1-1h-12l-3 2-3-3h-13l-2 2v4h-2v-5l-2-2-6-1h-11l-4 4-2 3v-5z"/><path transform="translate(478,283)" d="m0 0h7l6 3 5 6 3 7v13l-6 12-5 3h-13l-6-5-5-9v-14l4-9 5-5zm-1 4-6 5 1 3 9 2 4 4 2 4v12l-1 4 4 1 5-7v-17l-4-8-4-3z"/><path transform="translate(485,349)" d="m0 0 2 1-1 6-1 3 8 7 13 6 9 2 12 1 14-2 9-2v3l-8 4-7 2h-24l-12-4-11-7-5-4-1-2-5 1-7 1-1-4 10-5z"/><path transform="translate(537,495)" d="m0 0h11l6 5 2 6-1 6-3 5-3 2h-12l-5-5-1-2v-10l4-6zm3 3-5 6v7l4 5 5 1 7-4 1-2v-7l-5-5z"/><path transform="translate(542,553)" d="m0 0 9 1 6 7 1 8-3 6-4 3-9 1-6-3-3-4v-11l5-6zm-1 5-5 6 1 5 4 5 6 1 6-5 1-6-3-6z"/></svg>
