<?xml version="1.0" encoding="UTF-8"?>
<svg version="1.1" viewBox="0 0 1024 1024" xmlns="http://www.w3.org/2000/svg"><path transform="translate(607,306)" d="m0 0h18l12 4 9 7 9 10 3 13v2l-3-1-5-12-8-10-8-5-6-2-7-1h-11l-9 2-6 2-4-1 8-6z"/><path transform="translate(408,325)" d="m0 0h18l8 3-2 2-6-1h-12l-13 4-8 5-4 6h-2l-3 10-2 8h-2v-12l6-10 10-10 8-4z"/><path transform="translate(487,355)" d="m0 0 2 1-2 4-9 9-10 4h-17l-6-3 2-2 23-1 10-5z"/><path transform="translate(458,154)" d="m0 0h21l16 3 18 7 6 4v2l5 2 11 9 15 15 8 11 6 9 6 10 7-4 14-7 10-4 6-1h31l15 4 18 8 9 6 9 7 3 3v2l3 1 7 10 7 14 3 8 3 18 2 16 26 5 20 11 10 9 7 10 6 14v26l-6 16-5 9v3l10 6 10 8 10 15 6 15 3 10v23l-5 17-5 10-4 5-3 3-7 8-11 8-12 5-7 3-16 4-5 16-6 12-9 10-5 4-12 6-16 2h-10l-17-3-8-3-6 1-7 6-13 5-2 2v10l1 11 3 3v7l-2 2-1 4v17l2 2v6l-2 3-1 7v15l1 1v7l-2 2v17l2 3v8l-2 2 1 16 2 3v6l-1 2v14l3 3 1 6-1 2 1 13 5 6-1 10 3 3 13 4 22 6 16 8 10 7 9 8-1 3-2 1-43 1-4 5h-45l-25-3 1 5-2 4-2 1h-21l-29-4-27-6-8-2h-24l-22 5-17 2-13 1h-26l-7-2-2-4v-1h-51l-11-1-4-2 1-5 13-10 17-6 16-10 17-10 9-6 7-7 12-18 7-15 4-20 8-50v-55l-6-21-5-11-4-8-3-4-6 1h-14l-11-4-5-4-5 1-18 9-6 1h-24l-10-2-13-5-10-7-8-9-7-17-2-17-17-6-9-5-5-5-9-8-8-10-6-13-5-16-1-6v-19l5-17 3-6 12-14 14-11 8-4h2l-7-18-3-14v-31l6-19 7-11 12-14 11-9 10-6 17-6 5-1 30-1 3-16 5-17 6-14 5-10 6-10 8-11 5-5 8-9 11-9 14-9 14-7 15-4zm-2 4-16 4-16 8-9 5-13 11-15 15-8 11-10 17-8 21-4 12-3 18-8 1h-20l-21 5-15 8-11 9-10 12-8 15-4 13-1 9v16l2 12 4 13 4 8v7l-15 8-11 9-8 10-6 13-3 14 1 18 4 16 8 16 9 10 9 8 10 7 10 4 9 3 3 19 3 10 6 9 8 8 15 7 10 2h23l10-2 14-8 3-2 6 1 10 7 6 2h9l5-3-1-4-9-10-9-11-12-10-10-8-15-9-8-6-4-2-8 5-5 1v-2l7-2 3-3-1-5-9-15-5-7-13-2-8-7 4 2 9 4 3 1h13l10-4 12-9 2-3 6 1 10 5 3 1h14l12-6 3-2-6 7-10 2-2 2v8l3 9 6 11 8 9 16 10 4 1 9-2 4-3v-66l-1-1-10-2-2-5v-6l7-8 33-33 6-7 8-7 4-5 9-3 29-6 16-2 25-5h10l9 10 9 12 10 13 13 16 1 2h2l2 4 4 6 5 5 5 7-1 6-5 6-7 3v67l6-1 11-8 8-7 6-13 3-11-6-2-12-2v-2l4 1h13l12-3 5-1 4 4 16 8 4 1h18l10-3 10-7 3-1-4 5-9 5-16 4-7 10 1 6 5 4 4 1h8v2l-11-1-11-5-4 2-11 9-14 9-1 3-4 2-11 9-13 12-2 14-9 1-4 4v5l6 4 8-1 5-3 6-5 1-2 7 1 16 5 6 1h18l16-5 9-5 7-8v-2h2l6-13 4-16 9-3 21-6 16-10 11-11 8-13 5-20v-15l-4-20-6-11-9-11-10-9-11-7 2-7 8-15 2-8v-25l-4-10-8-11-10-9-14-8-12-4-15-3h-6l-1-22-5-18-7-15-8-11-7-8-8-6-14-9-7-3-19-5-7-1h-14l-15 3-12 4-16 9-5 2-9-16-8-12-9-10-12-12-10-8-22-11-17-4zm105 230-27 4-34 7-10 2-30 30-4 5-7 6-4 5-8 7-4 6h37l39-3 9-9 9-11 9-10 9-11 10-10 11-14 1-4zm10 2-6 5-7 9-11 13-11 14-9 10-9 11-4 5v5l1 1h5l7-9 8-7 12-14 9-11 8-9 6-8 5 2 7 8 8 10 5 5 9 11 11 14 9 11 2 2 4-1 1-1-1-7-12-15-13-17-7-8-9-11-14-17zm-1 20-7 7-9 11-13 14-7 8-11 12v106l2 2h15l1-1 2-60 3-12 5-7 7-6 6-2h14l9 3 7 6 4 8 2 6 1 40 1 18 9 3 4 3 3-1v-106l-9-10-9-11-11-13-11-14-3-4zm-75 50-31 2-25 1-7 1-1 5 2 2h18l52-3 9-1 1-2-3-5zm12 10-13 1-45 2-5 2v83l14 12h60l1-1v-99zm61 13-10 3-8 8-4 9-1 4v61h4l2-62 4-10 9-7h15l6 3 5 5 4 10 2 62h2l1-61-4-12h-2l-2-4-8-7-7-2zm-206 8-8 7-8 5 2 5 9 10 13 8 5-1-3-11-3-14-1-6-4-3zm204 0-7 4-5 6-2 7v56l4 1h8l7 5h19l1-1v-64l-5-9-8-5zm-193 4-1 1v9l5 19 2 6-9-2-12-6-9-8-6-8h-8l-1 1 1 7 1 2h2l2 4 8 10 7 7 12 8 10 7 6 4 14 11 8 8 8 10 12 18 8 16 4 11 3 18v38l-3 25-2 22-4 24-5 17-5 10-7 11-4 7-9 10-18 10-8 5-14 9-26 10-3 3v5h44l21-2 9-6 23-10 8-6 11-11 11-22 7-30v-6h2l-4 22-6 21-7 13-7 9v2l-4 2-10 8-23 10-10 9v4h34l23-3 25-5h20l30 6 12 3 32 4h9l4-2-1-5-7-8-10-9-3-1-7-8-4-5-7-12-5-15-3-15-3-21h2l1 11 2 14 4 15 4 11 6 11h2l2 4 7 7 8 6 11 10 2 1 35 3h33v-4l-8-6-15-6-15-8-8-6 1-1 12 8 14 7 16 7 3 2 10 1h36l-1-4-14-9-11-6-17-5-10-2-10-3-2 2v5l-7-1-4-9-4-4h-23l-6 2 1 13-1 1h-6l-7-16-3-4v-20l-4-4v-8l1-1v-13l-3-5-1-1v-7l2-2-1-17-3-5 2-4 1-3v-17l-3-5 2-5 2-3 1-7v-11l-2-2v-7l2-3 1-6v-14l-3-5 1-5 1-1v-10l-1-10-4-5 1-10-5 1-9 8h-3l-3-9-2-8-1-1h-69l-4 2-9-9-7-9-13-11-5-3h-2v-2l-14-8-18-12-7-7-6-12-6-18-2-2zm292 1-6 3-4 10-3 9-6 11-9 8-10 6-6 5v22h15l12-12 13-10 17-12 13-12 5-5 6-7-1-3-2-1h-6l-7 8-14 8-6 2 3-21v-8zm9 4-2 2-3 13v5l3 1 11-6 5-5-1-4-11-6zm-238 46-4 3 1 3 6 1 1-7zm122 20v4l5 2 6 15 3 9 4-2-4-15-5-9-5-4zm48 1v4l3 3 4 12 4 10 3-1-2-14-5-10-5-4zm-143 6v3l7 8h52l1-1v-9l-1-1zm64 0v10l1 1h35l1-5-3-5-1-1zm46 0 2 9 2 2h31l1-5-4-6zm45 0 1 5 3 6h12l1-1v-10zm-66 14-2 3 1 9 1 2 4-1 8-7 2-2-1-4zm28 0-3 2 2 7 1 1h31l1-1-1-8-1-1zm-8 13-2 2 1 5h38l15-1 1-5-1-1zm4 10-1 1v16h4l-1-16zm7 0-2 2 1 14 2 3h12l9-17-1-2zm27 0-10 15 1 4h14l2-2-1-16-1-1zm9 0v14l2 4 2-1v-14l-1-3zm-45 23-1 3 2 3h49l4-2v-4zm2 10-1 1v10l-1 2 1 4 4-1v-16zm7 0v16l5 1 4-17zm13 0-3 9-1 8 1 1h23l1-1 1-16-1-1zm25 0-1 17h4v-17zm-49 22v5l1 1h52l2-4-1-1-20-1zm3 10v17h3v-16zm8 0-1 1v15h4v-15zm7 0-1 1-1 16 1 1h24l3-4v-13l-1-1zm29 0-1 17 4 1 1-7v-11zm-48 22-1 4 2 2h53l1-4-2-2zm4 10-1 1v12h3v-12zm7 0-1 1v12l4 1 1-1v-12zm8 0-2 2v7l2 6h23l1-1v-13l-1-1zm29 0-2 6v7h4v-13zm-48 18-1 1v5l1 1h53l2-2-1-4-1-1zm3 11v13l3 1v-14zm7 0v13l1 1h7v-10l-1-4zm12 0-1 1 1 11 2 2h19l1-1v-12l-1-1zm25 0v14h4v-13zm-45 18-2 2 1 4h54v-5l-1-1zm3 10-2 7 2 5 4-1-1-10zm8 0-1 1v7l3 5h8l4-2-3-10-1-1zm15 0-1 3 4 9h14l1-1v-10l-1-1zm22 0-1 1v10h4l-1-10zm-31 16-16 1v6h28l26-1 1-5-1-1zm2 10-6 2v10l2 2h21l4-2-2-5-4-6-2-1zm20 0-1 2 7 9h2v-9l-2-2zm12 0-2 4 1 7 4 2 1-1v-8l-2-4zm-44 1-2 2 1 9 4 2 1-1v-8l-2-4zm19 15-15 1-6 2 1 4 1 1h32l20-1 1-1v-5l-1-1zm30 10-1 1 1 9h3l1-1-1-7zm-44 2v8l2 4h3l-1-7-2-5z"/><path transform="translate(709,426)" d="m0 0 2 1-1 4-9 8-10 4h-17l-10-4-5-5 3-1 15 5h12l9-3z"/><path transform="translate(473,485)" d="m0 0h15l9 6 6 9 1 3v16l-5 10-8 6-4 2-10 1-10-5-7-6-4-10v-11l4-11 7-7zm3 3-6 3-8 7-2 7v13l3 7 5 5 6 3h11l9-5 5-7 2-5v-10l-5-10-7-6-6-2z"/><path transform="translate(474,493)" d="m0 0h13l7 5 3 8v8l-3 9-6 6h-14l-7-5-4-7v-11l4-8 5-4zm0 3-6 7-1 2v12l6 8 5 2 7-1 7-6 1-2v-13l-6-9z"/><path transform="translate(580,528)" d="m0 0h7l2 2-1 7-1 1h-6l-3-2 1-7zm4 3v4l2-2z"/><path transform="translate(655,541)" d="m0 0h2l-1 4-11 11-4 3h-3l2-5 11-10z"/><path transform="translate(417,573)" d="m0 0 5 1 10 11 6 8 9 15 5 13 6 19 1 7v25h-2l-3-25-5-20-4-13-10-19-1-3-5-4-7-9z"/><path transform="translate(475,630)" d="m0 0h6l4 4 2 5v9h-4l-2-10-1-3-4 1-3 12h-3l-1-7 3-9z"/><path transform="translate(533,630)" d="m0 0 7 1 4 8v9h-4l-2-11-4-2-3 8-1 5-3-1v-8l3-7z"/><path transform="translate(561,656)" d="m0 0h2l-1 77-2 1-2-10-1-13v-24l3-27z"/><path transform="translate(472,659)" d="m0 0h2v6l8 4 7 1 2-7 2 1 1 7 2 1h23l14-3 7-3v-6h3l6 5 2 1v2h-5l-2 9-5 9-8 8-12 6-11 2-11-1-3-1v37l-4 35-1 2h-2l1-19 1-11v-45l-12-9-5-7-4-13-4-2v-2l6-4zm0 10-1 2 4 10 3 4 8-1h9l10 3-2 2-10-3-9 1v4l10 5 8 2h9l8-2 10-5v-2l-2-1-9-1v-1h10l5 1 6-7 3-8v-2l-5 1-14 4-7 1h-18l-14-3-10-4z"/><path transform="translate(448,730)" d="m0 0h1v21l-5 19-6 15-3 7-4 6-2-1 3-9 5-14 7-24z"/></svg>
