<?xml version="1.0" encoding="UTF-8"?>
<svg version="1.1" viewBox="0 0 1024 1024" xmlns="http://www.w3.org/2000/svg"><path transform="translate(613,288)" d="m0 0h15l13 4 4 2v2l5 2 7 7 2 5h2l4 10 1 8-3-1-5-13-7-10-10-7-11-4-12-1-11 2-11 4-5 1 5-4 6-4z"/><path transform="translate(398,309)" d="m0 0h13l11 3v2l-13-2-13 1-12 5-9 7-6 9-3 11-1 4h-2v-10l4-9 6-8 9-8 6-3z"/><path transform="translate(481,341)" d="m0 0 1 3-7 8-6 5-7 3-5 1h-15l-9-3-1-2h28l12-6z"/><path transform="translate(453,123)" d="m0 0h11l15 2 13 3 16 7 9 6 13 10 18 18 11 15 6 10 4 7v2l9-5 8-5 17-7 14-2h20l15 2 17 6 15 8 12 9 6 5 10 13 9 17 4 13 3 18 1 15 15 2 17 5 17 9 11 9 8 11 6 12 2 7v25l-5 14-8 15v2l10 6 13 11 9 13 4 8 6 18 1 5v22l-3 13-5 13-7 10h-2l-2 5-10 9-11 7-17 7-16 4h-4l-1 9-6 16-7 11-9 9-16 8-8 2-16 1-15-2-14-4-4-2-4 1-7 7-11 4-6 2-2 3 1 23 3 1 1 2v7l-3 3-1 8v13l3 4v6l-3 4-1 10v12l2 3v6l-3 4v17l3 4v7l-3 4 1 17 3 3v7l-2 3v15l4 2 1 7-2 3 1 13 5 5 2 3-1 6-1 4 2 1v2l9 3 24 6 20 8 15 10 9 7 2 4-4 2h-47l-2 5-3 1h-44l-32-3 2 4-1 5-4 2h-18l-35-4-37-9-6-1h-19l-32 7-17 2-21 1h-14l-9-1-4-3v-5h-15l-12 1h-21l-19-1-5-2 1-5 8-7 12-6 14-5 10-6 10-7 22-12 10-10 11-16 8-15 4-12 6-37 5-35v-56l-6-23-9-20-5-6v-2l-7 3h-15l-12-5-6-5-4 1-12 7-10 4-9 1h-20l-13-2-12-5-11-7-5-5-5-6-7-15-2-9v-13l-9-2-15-7-9-6-10-9-8-10-8-14-6-20-1-6v-22l4-14 4-10 9-11 8-8 13-9 8-4h2l-3-7-4-10-5-18-1-6v-19l4-17 4-11 6-11 9-11 10-10 11-8 7-4 18-6 10-2h29l3-18 7-21 8-19 6-9 5-9 10-13 16-16 18-13 17-9 13-4zm-4 4-14 3-13 5-16 8-13 10-16 15-10 12-7 10-12 23-7 21-4 16-2 11-5 1-7-1h-15l-16 3-9 2-18 10-13 11-10 13-8 14-4 13-2 20 2 20 5 15 6 12v5l-16 8-12 9-8 9-8 14-4 17v16l3 17 7 16 6 10 10 11 9 7h2v2l11 6 16 5 1 1 2 17 5 16 4 6 11 11 13 6 9 3 14 2 16-1 13-4 14-8 4-3 4 2 6 5 8 4 4 1h10l7-3-6-8-10-11-7-8-8-7-16-12-10-6-12-8-6-5-4 2-4 3-3 1h-10v-1h7l8-4 2-3-1-4-10-15-5-8-2-1-12-2-6-4-5-5-3-4 13 9 9 3h15l10-4 9-6 8-8 5 2 11 5 5 1h14l9-4 8-5-3 5-5 4-13 3-1 5 4 13 6 12 5 5 4 5 17 11 4 2 9-1 6-4 1-2v-71h-9l-4-1-3-10 1-4 35-35 5-6 6-5 5-6 7-6 5-6 4-3 42-8 20-3 26-5h5l4 6 5 5 22 28 13 16 6 8h2l2 4 10 13 3 4-1 5-7 8-7 1-1 1v73l2 1 16-10 9-8 5-10 5-15-1-3-13-1-8-4 9 1h12l9-2 10-4 2 4 14 8 9 3 5 1h11l13-3 15-9 3-1-5 6-8 5-19 5-9 12 1 5 3 3 9 3h9l-2 2h-11l-14-7-10 9-19 13-9 7-10 9-8 7-6 6-1 15-10 1-5 5 1 5 7 5 9-3 8-6 4-5 5 1 15 5 12 2h17l10-2 13-5 9-7 6-8 5-10 4-12 2-10 20-5 15-5 15-10 12-12 9-15 2-7 3-14v-14l-2-11-3-12-4-8-8-12-10-10-16-11-2-1 2-5 6-10 5-12 2-7v-21l-4-12-6-11-12-12-11-7-13-6-20-4-10-1-1-23-4-17-9-21-11-14-8-8-16-11-8-4-15-5-13-3-16-1-14 2-14 4-16 8-10 7h-2l-10-18-8-12-13-15-6-5-5-5-11-9-16-8-9-4-15-4-7-1zm116 250-25 4-48 9-9 1-25 25-7 8-30 30v3l26-1 57-4 5-5 9-10 9-11 9-10 9-11 7-7 9-11 6-8v-2zm6 2-14 17-22 26-12 14-9 11-5 5-1 4 3 4 4-1 7-8v-2l4-2 12-13 9-11 10-11 9-11 5-6 4 2 5 6 5 5 9 11 13 16 9 11 13 16 4 3 4-4-1-5-13-16-10-13-8-10-10-13-5-5-11-14-5-6zm0 22-5 4-8 10-10 11-9 11-12 13-7 8-1 1v114l2 2h16l2-2 1-62 2-12 5-9 9-8 7-3 5-1h8l10 3 9 6 6 10 3 10 1 61 9 2 5 4 3-1v-115l-12-14-7-8-9-11-14-17-6-7zm-74 55-48 3-28 1-3 1 1 5 1 1h17l59-3 12-1-2-6-1-1zm128 8 1 3h2l-1-3zm-113 2-47 3-32 2v91l13 11 2 2h65l2-1v-108zm58 15-12 3-8 7-4 6-3 9v67l3 2 1-1 1-67 5-12 8-7 5-2h12l9 4 2 3h2l2 5 3 7 1 6 1 63h3v-65l-3-12-7-9-8-5-9-2zm-226 8-7 7-11 7 2 4 10 11 10 7 6 3 4-1-5-17-3-17-5-4zm223 0-6 3-7 6-2 6-1 6v60l2 1 1-2 8-1 8 6 1 1h21l1-1v-68l-5-10-8-6-3-1zm-213 5 1 10 4 18 3 8v3l-6-1-14-7-9-7-8-9-3-4-9 1-1 3 6 10 9 11 9 9 10 7 16 10 18 14 5 5 12 13 13 18 10 18 5 14 4 20 1 9v29l-3 28-2 15-2 18-4 23-5 17-5 10-11 18-10 12-14 9-16 8v2l-4 2-10 6-14 6-14 5-5 4-1 4 4 1h41l27-2 10-7 21-9 10-6 13-13 10-18 3-7 6-24 3-16v-6h2l-4 29-6 21-5 12-8 11-7 9-13 9-12 6-11 4-9 7-5 6 1 1h36l21-2 38-7h11l14 2 20 4 27 6 27 3h9l4-2-1-5-7-8-9-8-4-3h-2l-2-4-8-7-7-11-6-13-7-28-2-15-1-20h2v12l4 24 4 18 4 12 8 15 9 10 17 13 7 7 2 1 41 3h34v-3l-10-7-13-5-16-8-9-6-6-6v-2l13 10 15 8 20 8 6 4 14 1h36l-2-4-10-7-17-9-32-9-10-3-1 7-1 1h-7l-3-7-3-8h-19l-15 1 1 9 1 6-3 3-6-1-4-10-3-7-4-5v-5l1-1v-8l-1-9-5-5v-7l2-2v-9l-1-7-4-4v-7l3-3-1-17-4-7 3-7 1-1v-17l-3-3-1-5 3-5 2-2 1-19-3-3-1-6 4-5 1-10v-11l-3-3-1-6 3-5-1-18-3-5-2-3 1-6 1-5h-3l-10 9-2 1v2l-4-1-3-7-2-12-1-1h-77v3h-2l-8-8-9-11-12-11-22-14-10-6-14-10-7-7-8-14-4-14-2-6zm320 1-6 3-3 5-4 14-7 13-7 7-14 9-8 6v22l1 1h16l12-12 11-9 18-13 8-6 14-12 8-10 1-4-10-1-8 9-13 8-9 3 1-10 4-20-1-3zm8 4-4 20v4l5-2 11-7 5-5-1-3-12-6zm-255 49-7 4v2l5 3h3l1-8zm131 23-3 3 7 3 5 10 5 17h3l1-4-3-11-5-12-5-5zm50 1v3l5 5 5 14 3 10 3-1-1-8-1-7-4-10-5-5zm-155 6v3l8 9h58v-11l-1-1zm71 0-1 1v10l1 1h40l-1-6-4-6zm50 0-1 2 3 9 1 1h36l-3-9-2-3zm49 0-1 4 4 8h14l1-1v-10l-1-1zm-74 16-1 5 2 11 4-1 12-11-1-4zm30 0-1 4 2 6h35l1-1-1-8-1-1zm1 14-10 1-1 4 2 2h37l21-1 2-4-2-2zm44 10-1 1v10l1 9h4v-14l-2-6zm-49 1v19l4 1 1-2-1-14-1-4zm8 0-1 4 1 12 2 4h13l10-19v-1zm30 0-6 10-4 7 1 3h16l1-1-1-18-1-1zm-39 24-1 5 2 2h52l6-1v-6zm3 11-1 1-1 18 4 1 1-1v-18zm7 0v19l5 1 2-6 3-13-1-1zm14 0-2 7-2 12 1 1h25l1-1 1-18-1-1zm28 0-1 1-1 18 4 1 1-1v-18zm-52 24-2 1v5l1 1h58l2-4-2-2zm2 11-1 1v18h3l1-3v-16zm7 0v19l3 1 1-2v-18zm9 0-1 1-1 18 1 1h27l2-6v-13l-1-1zm32 0-1 1-1 18 4 1 1-1 1-18zm-54 24v5l3 2h56l2-2-1-4-1-1zm4 11v16l4-1v-15zm8 0v15l5 1v-15zm9 0-1 5 1 10 1 1h25l1-1v-15zm32 0-1 1-1 14 4 1 1-1v-15zm-52 20-1 1v5l1 1h58l2-2-1-4-1-1zm3 11v9l1 7h3v-15zm9 0-1 1v14l1 1h9l-2-14-2-2zm12 0-1 5 2 11h22l1-1v-11l-2-4zm27 0v15l5 1-1-15zm-49 20-2 2 1 5h58l2-2-1-5zm3 11-1 5 1 8 4 1 1-1-1-12zm9 0-1 1v7l2 6h13l1-3-3-10-1-1zm16 0 1 7 3 6 1 1 14-1 1-1v-11l-1-1zm23 0v12l4 1 1-1-1-11zm-6 17-43 1-1 1v5l1 1h20l38-1 1-1v-5l-1-1zm-3 11v3l8 10h1v-8l-1-5zm13 0-1 4 2 10h4v-8l-2-6zm-48 1-1 4 2 10 4 1 1-4-2-10zm24-1-16 1-1 5 2 9h25l4-1-2-4-6-9zm14 18-25 1-12 1-2 2v3l2 1h27l30-1 2-4-2-3zm16 11-1 1 1 9 4 2 1-4-2-8zm-48 1v9l3 6 4-1-3-11-2-3z"/><path transform="translate(722,419)" d="m0 0h2l-1 4-7 7-8 5-6 2h-18l-10-4-7-5v-2l6 2 10 4 5 1h10l12-4 9-7z"/><path transform="translate(466,483)" d="m0 0h13l9 5 7 8 3 8v14l-4 10-7 7-7 4-10 1-9-3-9-7-5-10-1-5v-8l4-12 8-8zm6 3-9 2-9 8-4 9-1 8 4 12 4 5 9 5h12l8-4 6-7 3-9v-9l-4-9-5-5-5-4z"/><path transform="translate(468,491)" d="m0 0h9l7 4 4 5 3 8-1 10-5 8-5 4-2 1h-11l-8-5-5-8v-12l5-10 6-4zm-2 4-5 4-3 7v10l4 8 7 4h7l5-3 4-5 1-3v-12l-5-8-3-2z"/><path transform="translate(583,529)" d="m0 0 6 1 2 3-1 6-3 2-6-1-2-3 1-6zm1 4v4l3-1-1-3z"/><path transform="translate(664,543)" d="m0 0h2l-2 4-10 10-9 7h-2l2-4 11-10z"/><path transform="translate(403,577)" d="m0 0 5 2 11 12 7 10 9 14 8 20 5 19 1 14v22h-1l-3-29-5-22-4-13-8-16-5-9v-2l-3-1-7-9-9-10z"/><path transform="translate(560,667)" d="m0 0 2 1-1 22v64h-2l-2-16-1-14v-19l2-24z"/><path transform="translate(483,676)" d="m0 0h2l2 28v44l-3 34-2 16h-2l1-15 2-26z"/><path transform="translate(438,748)" d="m0 0h1v10l-2 18-5 18-8 20-5 9h-2l2-6 6-15 8-27 4-21v-5z"/></svg>
