<?xml version="1.0" encoding="UTF-8"?>
<svg version="1.1" viewBox="0 0 1024 1024" xmlns="http://www.w3.org/2000/svg"><path transform="translate(504,246)" d="m0 0h16l11 3 11 5 11 8 8 9 5 8 8-1h19l14 5 12 8 8 10 5 11 1 7v16l-3 9-5 8 1 4 4 8 2 7v15l-5 12-6 8-9 8-15 6-5 1h-12l-14-4-5-1-7 9-7 16-1 4h12l13 2 9 4 6 5 6 12 3 10 4 20 4 17 10 29 9 20 8 16 10 18v2h2l7 12 10 15 12 16 11 13 9 11 9 10 7 8 12 13 24 24 4 8v7l-4 8-7 6-14 7-25 7-25 5-50 5-52 3-43 1h-27l-48-1-49-3-39-4-16-2-28-6-17-5-11-5-9-6-4-5-2-4v-8l5-9 28-28 7-8 13-14 9-11 14-17 12-16 14-21 3-6h2l2-5 8-16 6-10 5-12 8-18 10-31 2-7 3-17 4-16 6-12 7-6 12-4 21-1-5-14-7-12-4-4-13 5-5 1h-11l-12-3-12-6-9-9-7-14-1-3v-15l4-12 3-4-1-4-5-10-2-8v-17l5-13 8-11 8-6 12-6 6-2 11-1 18 3 2-6 8-10 8-7 9-5 13-5zm-4 8-12 5-11 8-9 10-6 11-8-1-4-1h-18l-11 3-7 4-5 6-5 5-4 9-2 13 2 11 4 10 3 4-1 6-5 10-1 3v14l4 12 8 9 8 5 13 4h10l13-4 8-4 8 9 9 14 3 10 2 10v13l-1 6 3 2 12 2h18l1-5v-17l4-16 4-9v2l-3 12-1 9v9l2 13 5 1 9-3-1-8v-11l3-15 4-8 8-12 6-7 5 1 12 5 5 1h10l12-4 10-6 7-8 4-11v-14l-4-11-3-5 1-6 4-7 3-7 1-13-3-12-4-8-8-7-3-3-7-4-15-3-12 1-12 3-2-5-7-11-8-8-11-7-10-4zm-34 198-12 2-8 5-4 5-4 9-3 18-8 30-6 18-8 20 1 7 4 4 7 1 8-4 6-7 5-10 8-25 6-8 5-4 7-3h11l8 4 5 6 3 12 2 17 5 12 7 6 8 1 6-4 4-5 1-4v-8l2-10 3-6 1-3 5-2 7-2 11 1 10 6 5 7 8 16 6 8 7 6 6 3 9-1 3-3v-5l-3-6-10-25-7-25-5-21-2-13-5-10-7-6-8-3-6-1h-9l-7 2 1 9 2 3 6-1 7-4 6-1-2 5-1 3-5 2-21 6-12 2h-26l-16-3-19-6-5-4-1-5 9 3 10 4 2-3 1-10-1-1zm4 65-6 3-4 5-5 11-8 24-8 11-7 4-4 2h-9l-12-6-12 23-9 15-7 10-15 22-7 8-7 9-9 11-9 10-7 8-11 12 1 2 16-2 7-3 7-8 9-10 8-10 10-12h3l-1 5-7 11-9 10-9 11-2 4 28 1 23 3 18 3 36 9 37 7 11 1 55-17 13-3 23-6 23-4 29-2 22-1-2-4-8-9-13-17-8-11-4-8 1-4 5 5 3 5h2l2 5 11 14 11 13 11 12 20 2h5l-2-4-7-7-9-11-11-13-8-11-5-5-16-24-7-10-15-27-3-5-11 3-10-1-7-3-6-5-8-10-8-17-7-8-4-2h-12l-5 4-2 6-2 16-3 8-7 8-2 1h-14l-9-6-6-10-3-14-2-15-4-9-5-3zm171 178-28 3-29 5-25 7-21 6-25 8-25 7-15 4-21 3h-13l16-4 20-6 4-2-4-2-25-5-23-6-11-2-25-5-17-2h-33l-22 3-16 4-8 8-7 6-3 6v6l4 6 8 5 24 8 12 3 50 7 34 3 16 1 59 1h44l56-1 39-3 34-4 31-5 20-6 15-6 7-6 1-2v-7l-4-7-7-7-8-7-8-9-14-3-25-3z"/><path transform="translate(462,307)" d="m0 0 11 1 10 5 4 5-1 3-1-2-5-2-9-3h-9l-10 4-5 5-4 7-3 9-3-1v-12l6-10 6-5z"/><path transform="translate(577,371)" d="m0 0 3 1v9l-4 8-8 7-7 3-5 1h-7l-9-3-6-4-2-4-2-1 3-1 8 4 7 1h8l11-4 5-6 4-10z"/><path transform="translate(492,414)" d="m0 0 3 3 6 11 3 14-1 15-2 7h-2v-22l-5-21z"/><path transform="translate(461,589)" d="m0 0 9 2 8 7 3 4 1 4v7l-3 8-8 7-7 2-9-1-8-5-5-8v-12l4-8 7-5zm-8 9-4 5 1 4 4 3 5-1 2-2v-7l-2-2z"/><path transform="translate(561,589)" d="m0 0 8 1 7 4 5 6 2 7-1 9-5 8-8 5-8 1-9-3-7-6-3-8 1-10 3-5 8-7zm-8 9-2 3 1 7 3 2 5-1 3-3-1-5-3-3z"/><path transform="translate(395,618)" d="m0 0 4 1-1 6-7 12-2 2-5-1 1-5 8-13z"/><path transform="translate(487,637)" d="m0 0h5l2 2 2 10 6 6 4 1h12l7-3 3-4 3-11 1-1h5l1 1v8l-4 9-8 7-7 3-8 1-13-4-7-6-5-10v-8z"/></svg>
