<?xml version="1.0" encoding="UTF-8"?>
<svg version="1.1" viewBox="0 0 1024 1024" xmlns="http://www.w3.org/2000/svg"><path transform="translate(502,267)" d="m0 0h19l14 5 12 7 10 10 5 8h27l13 5 9 7 7 8 4 10 1 4v20l-3 9-3 4 1 6 4 8v19l-4 11-7 9-8 6-7 3-7 2h-17l-13-3-4 2-7 12-4 11h15l11 3 10 6 7 15 8 34 5 18 7 18 8 19 10 19 7 11 13 21 7 9 10 13 11 13 9 11 12 13 7 8 24 24 3 6v9l-5 8-6 5-16 7-21 6-24 4-49 5-32 2-24 1h-76l-41-2-36-3-34-4-18-3-19-5-18-7-9-7-4-6v-10l7-10 28-28 7-8 9-10 11-14 12-15 9-12 11-17 2-4 2-1 10-21 7-12 6-15 5-12 5-16 5-17 6-28 6-12 7-5 9-3 9-1h11l-5-14-3-4-4-7-3-1-13 4h-15l-11-3-11-6-7-8-5-10-1-4v-19l3-8h2l-1-7-4-9-1-5v-19l4-11 8-10 8-6 13-6 6-1h11l5 1h7l3-6 11-12 8-5 13-6zm-2 8-12 5-10 8-7 8-5 9-9-1h-20l-12 4-7 6-6 7-4 11-1 12 4 13 3 6v7l-5 10v15l5 13 9 8 9 4 6 2h11l13-4 6-3 10 12 5 9 4 15v20l2 2 10 2h18l1-1 1-21 4-15 1 1-2 10v15l2 9 6 1 7-3v-20l3-12 5-10 9-11 2-2 5 1 13 5h12l16-7 8-7 4-9 1-3v-15l-5-12v-7l6-12 1-6v-9l-4-12-4-6-7-7-7-4-13-3-15 1-9 2-4-8-4-6-9-9-10-6-6-2zm-33 182-12 3-6 5-5 10-4 20-5 20-7 21-6 16-1 6 2 5 2 2 8 1 6-3 7-8 5-12 6-18 7-9 8-5h13l8 6 3 7 3 17 2 8 4 8 4 5 9 2 6-4 4-5 1-2 1-16 5-10 8-3h9l7 3 6 4 6 10 6 11 9 10 7 4 10-1 2-2v-6l-7-15-9-27-6-26-3-15-6-10-5-4-10-3h-13l-5 3 1 8 4 2 7-3 5-2 3 1-1 5-10 3-18 5-5 1h-30l-16-4-15-5-3-4 1-2 13 5 5-1 1-10-1-1zm5 60-5 3-5 8-6 16-5 13-7 9-8 5h-10l-8-4-4 1-6 12-9 16-23 34v2l-4 2-11 14-11 13-10 11-7 8-2 2v4l15-2 6-3 14-15 8-10 10-11 1 2-4 8-6 8-12 14v2h-2v3l29 2 32 5 23 5 25 6 19 3 13 1 15-4 28-9 31-8 11-3 23-3 41-3v-4l-9-11-7-8-11-16-3-9 5 5 6 7 10 13 9 11 12 13 15 2h7l-1-4-10-11-11-14-8-10-7-8-7-10-11-17-8-12-6-12-7-10-8 2-12-1-8-5-8-9-5-8-5-11-7-7-2-1h-12l-5 6-4 20-4 8-5 5h-15l-8-6-5-10-4-25-4-8-3-2zm155 163-30 4-29 6-33 10-15 4-22 7-25 6-24 3v-2l8-1 22-6v-4l-37-8-16-4-23-5-14-1h-38l-18 2-13 4-15 14-2 4v7l4 5 12 6 14 5 25 5 42 6 33 2 42 1h80l59-2 41-5 27-5 16-4 18-8 5-5v-8l-6-9-12-11-7-7-11-3-21-3z"/><path transform="translate(464,323)" d="m0 0h8l9 3 8 7-2 2-11-4h-11l-9 4-6 7-3 10h-4v-12l6-9 6-5z"/><path transform="translate(572,382)" d="m0 0 3 2v8l-5 9-9 6-5 2h-12l-10-5-4-5v-2l4 1 9 3h10l10-4 4-5 4-9z"/><path transform="translate(495,424)" d="m0 0 4 4 5 12 1 5v10l-2 11-3 1-1-21-5-20z"/><path transform="translate(461,587)" d="m0 0 10 1 10 5 6 7 2 5-1 6h-7l-5-8-5-4h-15l-6 4-3 6-1 1h-6l-2-3 1-5 7-8 5-4z"/><path transform="translate(555,588)" d="m0 0h15l9 5 8 9v7l-5 2-5-4-4-5v-2l-4-1h-13l-6 4-6 8h-6l-1-7 6-9 7-5z"/><path transform="translate(403,610)" d="m0 0h5l-2 9-6 10-5-1-1-3 5-9z"/><path transform="translate(489,627)" d="m0 0h6l3 11 5 5h17l5-3 3-8 2-5h5l1 1v8l-4 8-8 7-9 3h-6l-11-4-7-8-3-6v-8z"/></svg>
