<?xml version="1.0" encoding="UTF-8"?>
<svg version="1.1" viewBox="0 0 1024 1024" xmlns="http://www.w3.org/2000/svg"><path transform="translate(445,158)" d="m0 0h5l7 14v2l17 3 4 4-1 4-7 8-5 4 1 10v9l-2 2-6-1-11-6-6 1-10 5-5-1-1-6 1-15-11-12v-5l5-3 15-2 7-12zm0 3-8 15-17 2-2 2 1 4 5 4 5 7-1 10-1 8 4 1 11-5h7l11 6 3-1-1-18 7-7 5-4 1-3-4-3-15-3-7-14z"/><path transform="translate(585,169)" d="m0 0 4 1 1 1v12l8 6 2 2-1 4-9 3-3 3-2 9-2 2-5-1-6-9h-13l-2-2v-4h2l2-4 2-3-1-7-1-9h7l5 2 5-1zm-2 4-6 5-7-1-6-1-1 2 3 7-1 5-4 6v3h12l7 10 3-3 3-9 10-3v-3l-9-6v-12z"/><path transform="translate(698,176)" d="m0 0h6l6 5 8 16 9 19 6 2 19 2 16 3 7 6v8l-7 8-23 23 1 10 2 12 1 10v14l-5 4h-7l-23-11-8-5-5-2-10 5-19 10-6 3h-9l-3-3-1-2v-12l2-16 2-17-17-16-10-10-4-7 1-6 6-5 20-4 21-3 8-17 7-12 4-8zm2 3-5 4-6 11-10 19-3 6-15 3-27 5-4 3v6l9 10 21 21v8l-5 30v7l3 3 9-1 27-14 6-3 4 1 34 17 7-1 2-3v-8l-5-28v-9l26-26 4-5-1-7-10-3-35-6-8-14-7-16-7-9z"/><path transform="translate(435,184)" d="m0 0h5l1 5-2 2-5-1-1-4z"/><path transform="translate(454,184)" d="m0 0 4 1 1 5-2 2-5-1-1-5zm-1 2 2 2v-2z"/><path transform="translate(291,189)" d="m0 0h8l5 5v2l3 1 9 13 7 10 4 5h42l8 4 2 4-1 7-11 15-11 16-3 4 3 11 4 13 4 12v10l-4 4-7 1-15-4-22-8h-3l-5 5-14 10-13 9-4 2-6-1-5-5-1-4-1-40-12-9-22-16-3-5 1-7 4-4 18-7 13-4 10-4 5-16 9-26zm2 3-5 5-3 10-9 28v3l-16 4-18 6-11 6-1 6 9 8h2v2l15 10 11 8 1 1 1 44 3 3h7l8-6 19-14 5-4h9l28 10h11l2-2v-8l-4-12-8-25 12-17 4-6 3-3 7-11v-7l-3-2-47-1-6-8-12-17-8-10z"/><path transform="translate(484,229)" d="m0 0h27l19 3 16 6 16 8 16 12 11 11 10 14 6 10 5 10 3 8 15 4 8 5 4 6 4 16v21l-3 11-5 6-14 7h-2v2l4 2 4 5 2 6 10-6 8-5 8-3 9-2 4-1-4-15 1-7 3-4h7l6 4 5 6 3 1 2-6 11-16 5-4 2-1h6l4 4v6l7-5 6-1 5 6-1 8 5 1 4 5-1 7-1 2 5 2 1 2v7l-5 9-12 14-13 10-6 3-1 9-6 8-7 14-9 10-8 7-12 12-11 9-14 11 1 15 1 10v17l-4 13-5 6-5 4 2 5-1 9-1 4 10 15 9 16 6 14 2 4 1 8 3 7 2 11v36l-3 9-4 6 10 9 8 7 5 6v2h2l4 9 1 4v9l-4 10-8 7-9 4-10 2h-8l-15-3-21-9-5-3v-2l-5-2-6-6-4-14-1-5v-12l-4-2-7-7-4-7-1-8-3-3-6-15-6-9-3-4v-2l-3-1-9-12-21 2-3 9-2 7v8l-1 7 2 5v9l3 8-1 11-2 5 6 9 7 16 1 4v9l-4 11-6 12-9 12-8 7-8 5-11 4-10 1-9-3-6-4-6-8-2-6v-18l3-13 3-7v-5l-8-3-8-4-6-8-9-11-6-9-7-20-2-7-2-6 1-8-1-3v-22l4-30 2-11h-2l-4-8v-12l-9-4-9-10-4-11-3-16-2-18-12-6-12-5-17-8-5-3-12-5-11-8-5-6-4-2-5-10-12-3-16-7-10-7-7-6-2-4 1-5 4-4-4-5v-7l3-3h2l-2-6 1-7 3-2h7l5 2-1-7 5-5 9 1 6 4 13 12 3 1 4-9 4-5 2-1h7l3 3 1 3 1 16h23l17 5h2l2-12 3-5 3-2 1-3h-7l-10-3-6-4-4-5-3-7-3-11-1-6v-20l3-8 8-7 12-6 5-23 4-10 8-15 10-14 6-7 8-7 12-9 24-12 15-5zm6 2-19 3-16 5-7 3v24l2 11 3 1 26-5 19-2h28v-16l-3-19-4-3-14-2zm37 4-1 4 2 12 1 12v8l5 2 24 5 16 8 10 6 9 10 8 16 5 16 2 11 1 17-2 15-5 13-6 9-9 7-13 7-27 9-14 3-40 4h-34l-17-2-15-3-13-5-9-7-6-7-4-7-3-9-3-11-2-15v-16l3-16 3-10 6-10 9-10 11-8 16-8 12-5 1-4-2-14-1-17-3-1-18 12-13 11-9 11-10 14-9 22-4 18v23l1 18 4 19 4 11 9 10 11 8 15 7 18 5 11 2 11 1h41l26-4 19-5 12-3 20-9 11-7 10-9 8-9 6-11 1-9v-14l-2-22-4-17-4-13-10-19-9-12-9-10-12-10-17-10-15-6zm-36 39-25 3-20 6-19 8-15 10-9 9-7 11 1 2 5-5 4-5 7-5v-2l5-2 6-4 20-9 19-5 14-3 16-2h31l19 3 12 3 12 4 11 6 9 7 5 4-2-5-7-8-10-7-15-7-17-5-18-2zm9 9-26 3-16 3-20 7-19 10-10 8-7 7-3 11v19l4 15 4 7 4-1 9-3 3-17 5-10 8-5 6-2 16-3 16-7 8-7 1 2-5 10-7 8v2h8l16-3 16-6 12-8 13-13-2 6-8 13-2 4 10-3 11-6 7-6 3-4v-2h2l4-5 3 15 10 25 2 7 1 1 11 1 3-8 1-5v-18l-5-18-8-7-21-10-6-2-23-4-11-1zm58 32-8 8-12 8-10 3-10 1 2-4 3-4-5 2-6 4-19 7-11 2h-15v-4l8-8v-2l-5 2-7 3-15 3-11 3-8 6-4 8-1 5v25l2 16 5 13 9 10 6 4h65l24-4 20-5 8-4 7-9 4-8 2-16-1-17-3-15-11-29-1-4zm57 0-1 4 3 13 2 16v36l9-3 6-4-2-11-1-6v-31l1-8-8-4zm-22 1 2 16-1 14-3 11 1 6 1 2v11l-3 5-3 3v2l-9 3-5 15-3 5v2l6-2 12-7 9-8 7-15 2-11v-19l-3-16-6-14-2-3zm-198 7m239 3-2 7v22l2 12 2 5 3-3 2-11v-11l-2-13-3-8zm-240 8-3 10-1 9v14l2 16 4 11 7 13 7 7 13 6 9 3h4l-2-4-6-8-3-7-1-1-9-2-7-6-3-7 1-12-5-10-4-12-1-6v-14zm-21 4-6 3-7 6 6 18 2 11v26l6 3 10 1 1-3-4-13-4-29-1-22zm337 8-5 4-10 16-1 4h-2l-2 5 5 5h2l3 9v12l-2 1v-11l-3-8-8-8-7-10-4-3h-6l-2 2v8l5 13 3 7 13 12 14 11 6 5 6-1 10-7 9-8 9-11 5-8-1-4-1-1-7 1-9 8-1 4-6-8-10-9-9-5h-2l2-2h5l4-6 4-11-1-5-1-1zm18 5-5 5-7 8-4 6 1 4 6 4 3-1 11-14 2-4v-7l-1-1zm-371 1-1 4v15l1 11 4 11 3 5h2v-20l-3-16-4-10zm221 5-1 1v11h4l4-1v2l-4 2-3 5v7l4 1 5-3 4-8v-7l-3-6-5-4zm158 8-9 9-4 5 1 4 3 3 5-2 9-10 2-6-2-3zm-319 7-5 3-4 5v10l6 8 7 3 3-1-1-8-6-6h-3v-3l7 2v-8l-2-5zm248 17-1 6 4 9 8 11 9 9 14 9 5 2 4-1 2-4-1-6-11-10-9-7-14-13-2-3h-2v-2zm-49 2-8 20-7 9v4l5-2 11-9 4-3v-2l5-2 1-4-5-8-3-3zm40 0-12 6-6 5 1 7 7 17 7 11 9 11 11 9 10 6 4-1 8-7 7-10 1-7-12-7h-2v-2l-9-7-11-11-7-14-1-6zm-45 2-11 12-10 8-16 8-9 4-25 7-17 4-25 2h-29l-26-2-18-5-17-7-13-10h-2l2 5 7 10 9 9 16 8 9 3 23 4 11 1h29l25-3 22-4 20-7 19-9 11-8 9-12 5-10 2-8zm22 11-11 8-4 3 1 9 3 10 4 8-4-3-7-19h-3l-8 6-1 10-7 9v2l-5 2-7 6-24 11-16 5-25 4-10 1h-31l-22-3-16-3-16-6-11-6-5-6-3-6-13-6-5-2-4 1-1 16-3 17-1 2-2-1 4-15v-20l-5-3-4 1v14l-4 20-6 14-9 14-6 7 1 3 7 2 7-7 8-13v-2h3l-6 12-8 10-1 3 10 5 16 6 13 5 18 4 2-7 7-21 2-4-1 7-5 15-3 14-1 8v15l3 21 3 7 5 3 25 5 26 2h22l11-1 1-1-1-13-2-16-1-1-15 1h-14l-7-4-4-8-2-13-3-34 3-9 4-4 10-3 63-7h12l8 4 4 7 4 25 2 23-2 8-8 7-11 2-15 2-1 1 1 12 2 15 2 2 9-1 30-7 20-7 20-8 10-6v-19l-4-17-4-12-7-11-9-11-4-5 1-2 9 10 10 15 3 1 18-11 4-3v-2l5-2 15-13 8-7-2-3-8-4-13-12v-3l7 7 9 7 8 5 4-2 3-4-10-7-8-7-6-5-9-11-5-9-7-16-3-7zm-350 1-2 5 3 6 10 10 5-1 2-1-11 14-5 10-2 7-2-4-2-2-10-3h-5l-1 1 1 7 7 6 18 10 9 3 11 1 5-8 9-14 8-14 2-12v-12l-3-5-1-1h-5l-4 5-5 15-4 7v12l2 6-2 1-2-8v-10l4-8-1-5-10-9-13-9zm-14 9-4 5 2 5 10 8 8 5h3l4-6-1-4-17-12zm119 1-4 5-2 5v9l20 8 5 1 1-5-8-8-7-9-3-5zm207 11-10 8-25 11-9 3-30 6-16 2h-42l-18-3-20-5-12-6-3 1-1 6 7 8 4 3 18 7 22 5 25 2h16l26-2 18-4 24-8 16-9 9-7 5-6 2-4v-7l-1-1zm-331 4-1 1v5l5 5 12 7 3-1 2-4v-4l-16-9zm83 0-1 1-1 14-5 15-9 16-9 10-2 2 1 4 7 6 10 6 5 1 7-9 4-4 7-14 6-16 2-10v-18l-7-3-5-1zm-11 1-5 12-2 6h-2l-8 14-8 13v6l4 4 5-2 7-7 6-8 7-16 3-10v-11l-1-1zm210 56-24 3v11l6 56 2 4 26-3 7-2 5-5 1-3v-13l-4-33-2-8-7-6zm-35 4-37 4-6 4-3 6v13l4 36 5 8 2 2 4 1 26-1 18-2 1-1v-7h-23v-16l12-2 8-1 1-4-4-36-1-4zm128 15-5 3v2l-5 2-5 5 5 15 3 17v12h4l6-7 2-5v-37l-2-7zm-246 25-1 4 5 29 6 14 8 7 5 1-2-19v-30l-7-3-9-3zm123 7-12 2 1 12h15l4-1v-10l-2-3zm4 26-8 1-1 1 1 13 2 17h11l8-1 2-2-1-13-2-16zm108 4-12 6-32 12-37 9-12 2-28 2h-39l-26-2-16-4-5-1-2 2v7l5 8 11 5 17 4 22 2h31l24-2 30-5 22-5 20-7 12-5 10-6 8-6 2-4v-8l-3-4zm2 20-14 9-24 10-19 5-16 4-24 4-19 1h-48l-16-1-17-4-7-2-2 4-4 26-1 22 1 9 6 2 7 1 7-9 8-4 4-1h12l11 4 7 8h8l25-4 4-1 4-15-9-3-9-5-2-3 15 7 12 2 11-1 13-5 10-9 5-5-2 5-7 7-9 6 2 4 10 13 6-1 17-6 9-5 2-10 4-6 10-6 7-2h13l6 4 5-2 11-6-1-7-7-12-6-11-8-11zm21 44-9 6-1 3 5 8 11-6 1-1-1-8-1-2zm-30 2-10 3-9 7-4 5v14l5 12 7 9 7 3h7l9-3 9-6 3-4 1-3v-13l-3-9-2-4h-2l-2-4-7-6zm37 11-10 7 1 9v9l-5 10-9 6-8 3h-12l-9-6-5-7-7 1-20 6 1 8 5 8 5 3h37v2l-13 1h-13l-13-1-1 2 3 8 4 5 9 5 11 2h16l11-2 9-4 9-7 6-7 4-10-1-11 1-3v-18l-3-16-1-3zm-67 17-15 6-9 3v5l4 4 10-1 16-5 2-3-3-9zm-136 4-10 2-7 6-2 6-1 10 2 14 4 6 5 4 5 2h13l10-3 6-7 2-6v-12l-3-10-4-6-5-4-9-2zm61 8-24 4-9 1 1 11 1 1 16-1 16-4 1-2v-10zm-96 5v8l4 4 7 1 1-1 1-10-2-2zm94 10-28 5-2 3-1 9-3 5-7 5-12 3-12-1-8-5-4-5-3-7-2-6-8-1-1 2 4 13 8 15 5 6 8 3 8 2h-11l2 5 10 7 9 2h10l12-2 16-8 11-8 6-10 1-3v-11l-3-2-5 5-6 3 11-11 1-7-2-6zm142 26-8 6-6 3-9 3-6 1h-20l-10-1 1 16 5 6 13 9 21 9 17 2 12-2 12-6 7-8 1-6-4-9-6-8-11-10-7-5zm-137 14-8 8-10 7-11 4-11 3-10 1-3 9-5 14-1 6v11l4 10 4 3h20l12-6 9-7 8-10 12-22 2-8-1-9-9-14zm84 24 1 4 9 7 16 8 13 4 4 1h17l10-3 8-6 5-8-2-1-11 8-12 3h-18l-12-3-10-4-14-8zm-71 6-10 19-8 12-7 7-11 7-14 4h-9l-1 2 6 2h11l11-4 10-6 8-8 10-15 5-13 1-7z"/><path transform="translate(676,238)" d="m0 0 7 1 4 4v8l-4 4h-9l-4-5v-7zm-3 4 1 5 5-1-1-4z"/><path transform="translate(721,238)" d="m0 0 6 1 4 4v8l-4 4h-8l-5-5v-6l4-5zm-3 4-1 4 4 2 2-2-1-4z"/><path transform="translate(324,247)" d="m0 0h8l4 5v7l-5 6h-6l-5-5-1-7 3-5zm-1 4-1 5 4 1 2-2-1-4z"/><path transform="translate(279,255)" d="m0 0h6l5 4 1 7-4 6-2 1h-6l-4-4-1-2v-7zm-2 4-1 4 2 2 4-1-1-5z"/><path transform="translate(690,262)" d="m0 0h2l4 5 7 1 7-6 3 1-3 5-6 4h-7l-6-4-1-1z"/><path transform="translate(318,270)" d="m0 0 5 1v9l-7 8-5 1h-8l-7-3-4-6 1-5zm-3 4-19 3v3l5 5 4 2 9-2 6-7v-4z"/><path transform="translate(431,310)" d="m0 0h8l1 4-7 8-4 3h-2l-2 6h-2l-3 10-6 12-2 2-5-1-1-2v-10l4-11 5-9 9-9zm1 2-7 4-10 10-5 13-1 4v8h4l3-9 4-9 7-10 10-8-2-3z"/><path transform="translate(538,341)" d="m0 0h7l6 4 2 3v3l-17-1-2-2 1-5zm0 3-1 3 12 1-4-4z"/><path transform="translate(450,349)" d="m0 0h7l4 5-3 4-12 3-5-1 2-6 5-4zm0 3-4 3v2l10-1v-4z"/><path transform="translate(252,352)" d="m0 0 4 2v13l6 2 6 5-1 4-10 4h-2l-1 12-2 2-4-1-7-8-12 1-3-2 1-5 4-7-3-9-1-5 2-2 8 1 6 1 7-7zm-2 4-7 7-12-2 1 6 2 4-1 5-3 6 1 3 11-1 6 8h4l1-5v-7l10-3 2-3-11-6v-12z"/><path transform="translate(541,358)" d="m0 0 6 1 5 5v8l-5 6-7 1-5-3-3-6 1-6 5-5zm4 5-1 4 4 1 1-4z"/><path transform="translate(452,367)" d="m0 0h7l5 4 1 2v7l-5 6h-9l-4-4-1-2v-8l3-4zm-2 4-2 4 4 2 1-4z"/><path transform="translate(504,373)" d="m0 0 3 1 1 2v6l-3 3-6 1-4-2v-2l9-1 1-4-2-3z"/><path transform="translate(546,379)" d="m0 0h8l5 2 1 1v5l-6 4h-13l-4-4 2-5 2-2zm2 2-7 3 1 4h10l5-3-1-3z"/><path transform="translate(806,384)" d="m0 0 5 1 2 13 10 6-1 5-10 5h-2v7l-2 6h-5l-7-8h-14l-1-5 5-9-2-5-2-4v-5l1-1 15 1zm0 3-7 7-8-1-5-1-1 3 4 8-1 5-4 6v2l13-1 7 9h2l3-12 9-4v-4l-8-4-2-12z"/><path transform="translate(449,388)" d="m0 0h10l4 2 1 4-5 5-2 1h-11l-5-3v-5zm-2 3-3 2 1 3 2 1h9l5-3-3-3z"/><path transform="translate(519,388)" d="m0 0h9l3 3v11l-4 8-6 5-9 4-4 1h-15l-11-4-8-7-3-8 2-7 4-3h7l9 2h10l12-3zm0 3-10 4-4 1h-13l-9-2h-6l-3 5 2 7 6 6 4-2 9-5 4-1h14l8 4 4-1 4-7v-7l-2-2zm-20 15-10 5-2 3 8 3h12l10-3 3-4-5-3-2-1z"/><path transform="translate(216,449)" d="m0 0h5l8 7 9-3 5 1 1 5-2 6v5l5 7-1 5-1 1h-13l-6 8-5 1-2-3-2-9-8-3-4-2-1-4 8-6 2-1 1-14zm2 3v12l-5 4-5 3v2l10 4 3 8 2 4 5-5 2-5 13 1 1-2-6-8 1-6 2-4v-4l-10 3-4-1-7-6z"/><path transform="translate(765,466)" d="m0 0h18l12 4 8 4 5 5 7 8 5 13 1 5v16l-3 12 10 12 7 11 1 8-5 5-7 1-11-3-16-6-4-3-7 1-5 1h-14l-10-3-13-7-8-8-6-10-3-8-2-13-13-13-8-11-3-9 3-5 3-2h11l10 2 11 5 4-1 6-5 12-5zm2 3-14 4-6 4-5 5-6 7-4 9 1 5 8 8 13 10 4 3h2l1 3 16 10 9 5 12 7 4-1 5-4 7-10 3-9 1-4v-16l-2-9-7-12-10-9-10-4-6-2zm-59 4-4 4 1 5 7 11 12 13 8 7 13 11 12 9 15 10 19 11 16 8 9 3 4 1h11l2-2-1-7-6-11-8-9h-3l2 5 6 9v5l-2 1-10-1-19-8-12-7-7-4h-2v-2l-14-9-18-14-13-12-8-11-1-7 1-1h9l6 2h5l-1-3-15-6-5-1zm11 10 1 5 7 9h3l5-10-3-3-3-1zm11 33 1 10 6 12 6 7 9 7 11 4 6 1h11l5-2v-2l-7-4h-3l-1 4h-7l-12-5-1-1v-5l7 1 7 3 3-1-14-10-15-11-10-8zm82 25-7 7v4l10 3h5l1-4-7-9zm-55 3 2 4 10 4 2-1v-2l-11-4z"/><path transform="translate(540,496)" d="m0 0h8l7 5 3 6-1 8-4 6-7 3-7-1-6-4-4-8 2-8 7-6zm1 3-6 4-2 4v7l4 5 2 1h9l5-4 1-2v-9l-5-5-2-1z"/><path transform="translate(484,500)" d="m0 0h11l8 6 3 6-1 8-4 6-3 3-3 1h-10l-6-3-4-5-1-3v-9l7-8zm2 3-6 3-3 6v6l4 6 6 4 8-1 5-5 2-3v-9l-4-5-4-2z"/><path transform="translate(539,502)" d="m0 0h9l5 6-1 6-4 4h-8l-5-5v-6zm1 3-2 3 1 5 4 3 4-1 3-4-2-5-2-1z"/><path transform="translate(545,530)" d="m0 0h6l6 4 2 4v7l-4 6-2 1h-10l-5-4-1-2v-9l4-5zm0 3-5 5v7l5 5 7-1 4-5-1-7-4-4z"/><path transform="translate(272,533)" d="m0 0h10l8 2 10 4 8 6 3 3 8-1 15-3h15l6 3 2 3-1 5-4 6-7 7-15 10-7 4-1 9-3 7-6 10-9 9-12 6-8 2h-14l-11-3-8-4-2-2-7 1-16 4h-21l-5-5v-5l7-9 8-7 10-8 5-3v-10l2-8 7-14 7-8 10-6 10-4zm1 3-12 3-8 4-10 9-6 10-3 7-1 13 3 12 5 9 10-2 15-5 12-5 15-7 7-3v-2l6-2 11-6 2-4-6-12-7-8-9-6-10-4zm61 11-19 4v3l6-1h14l1 4-7 8-11 8-24 13-24 11-29 9-9 2h-11l-2-1 1-6 9-8 3-2v-3l-4 1-14 10-8 8-3 5 1 4 5 3h11l22-5 12-4 17-6 23-10 16-8 15-8 17-12 9-8 3-7-3-3-3-1zm-6 7-10 2 1 6 2 4 5-1 8-7-3-4zm-11 31-16 8-11 5-21 9-15 5v4l4 3 5 2 8 1h11l11-2 6-3v-2l5-2 7-7 6-10 3-11zm-86 9-9 7-1 4 1 1h9l6-2 1-2-5-8z"/><path transform="translate(487,538)" d="m0 0h6l1 1 1 7v9l-2 2-12 1-2-3-1-15 1-1zm-5 3-1 3 1 10h9l1-1-1-11-1-1z"/><path transform="translate(249,553)" d="m0 0 5 1 1 4-6 12-2 6-5 1-2-2v-7l3-9zm1 3-5 6-3 7 1 5h2l3-10 5-6-1-2z"/><path transform="translate(733,616)" d="m0 0 4 1 3 12 9 3 3 2v5l-8 5-2 1-1 13-1 1-7-1-5-5-6 1-8 1-2-4 3-8-1-6-4-6 1-5 1-1h13zm-1 4-7 9-12-1 1 4 4 6-1 7-2 6 3 1 6-2h5l7 6h2l1-12 9-6v-3l-10-4-2-11z"/><path transform="translate(338,633)" d="m0 0h6l4 5 8 13 3 5 23 3 6 3 1 6-11 13-6 6v7l3 13v9l-3 3h-6l-11-5-7-3-7 1-16 9-7 1-3-3v-13l1-7v-9l-11-9-8-8v-6l3-3 25-6 8-16 3-7zm1 3-5 9-4 10-4 6-25 6-2 4 6 7 14 12v9l-1 7v12l5 1 8-5 11-6 4-1 13 6 7 3h5l1-1v-8l-3-12v-9l8-8 7-8 2-3-1-4-11-2-17-2-12-22-1-1z"/><path transform="translate(354,672)" d="m0 0h5l2 2v6l-2 2h-5l-3-3 1-5zm0 2v4l3-3z"/><path transform="translate(327,673)" d="m0 0h6l2 3v5l-4 3-5-2-2-5zm0 3v2h3v-2z"/><path transform="translate(763,684)" d="m0 0 6 1 3 3 9 20 5 14 25 6 12 4 4 4 1 5-3 5-5 4h-2l-2 4-14 11-5 4v10l1 13v14l-3 5-2 1h-6l-12-7-17-11-8 1-23 10-7 1-5-2-2-2v-13l7-25-2-4-9-11-5-5-8-10-1-2v-6l5-5 17-2 17-1 5-1 2-4h2l2-5 9-15 6-8zm-1 4-6 8-9 14-6 10-2 1-31 2-7 1-3 4 2 6 22 26 1 5-7 26-1 9 3 3h6l21-9 10-4 6 2 6 4h2v2l15 9 4 2h5l2-3v-13l-1-13v-13l14-11 11-9 5-5v-5l-6-4-31-8-4-2-5-14-8-19-2-2z"/><path transform="translate(737,736)" d="m0 0h6l5 6-1 6-3 3h-8l-3-4v-6zm0 3-1 4 4 1v-4z"/><path transform="translate(300,737)" d="m0 0 16 2 9 4 10 6 8 7 1 2 8-1 20-3h12l9 2 4 5-1 7-4 6-9 8-14 9-9 5-3 2-4 15-8 13-7 8-9 6-8 4-11 3h-18l-15-5-10-6-1-1-8 1-13 3-13 1h-13l-7-2-3-3-1-5 4-8 7-7 16-11 10-7 3-19 6-15 12-13 13-8 12-4zm-8 4-12 4-8 4-10 9-7 10-5 15v18l4 14 4 5 18-4 36-13 12-5 22-11 6-4-2-9-6-12-13-13-8-4-12-4zm73 17-16 2-2 3 3 2 7-1h12l4 2v6l-3 1-5 5-16 10-22 11-11 5-14 5-16 6-29 8-11 2h-11l-3-1-1-5 5-6 12-8-2-4-11 6-10 8-8 7-5 6v5l3 3 3 1h19l19-4 14-4 12-3 22-8 8-3 10-4 11-5 17-8 19-10v-2l5-2 11-8 7-7 2-7-2-3-4-1zm-7 8-7 2 1 5 3 8 9-5 6-6-1-4zm-9 35-13 6-21 9-27 10-17 5v4l14 7 9 2h15l16-5 9-6 8-7 6-10 4-11v-4zm-102 7-8 6-6 5 1 3 2 1 14-1 4-1-3-9z"/><path transform="translate(777,740)" d="m0 0 7 1 3 4v6l-6 5-5-1-4-4v-6zm-1 3-1 4 4 1 2-3-2-2z"/><path transform="translate(745,756)" d="m0 0 17 1 10 1-1 7-5 5-3 1h-8l-5-2-5-8zm3 3 1 5 5 4 7 1 5-3 3-3-1-3-8-1z"/><path transform="translate(269,762)" d="m0 0 5 1 2 2-1 6-4 5-3 7-3 10h-7l-1-2v-10l4-10 4-6zm1 3-5 5-4 8-1 3v9h4l3-13 4-6 2-5z"/><path transform="translate(596,783)" d="m0 0 5 1 5 11 3 9 18 6 4 4-2 5-10 8-5 3-1 21-2 3-7-1-11-7-2-2-6 1-14 5-5-2-1-1 1-8 4-12-2-5-9-12-1-5 4-4 21-1 10-15zm0 3-6 8v2h-2l-4 6-1 1-21 1-1 4 12 16-5 17v5l4 1 16-6 5 1 11 9h6l1-21 11-8 5-5v-4l-18-6h-3l-3-12-4-8z"/><path transform="translate(580,812)" d="m0 0h5l2 2v5l-1 1h-6l-2-5zm2 2-1 2h2z"/><path transform="translate(602,815)" d="m0 0 5 1 1 1v5l-2 2h-5l-2-3 1-5zm-1 2 2 2 1-2z"/><path transform="translate(443,820)" d="m0 0 4 1 2 2v14l9 7 1 4-4 3-10 2-4 12-2 2-4-1-6-8-1-2-15-1-1-5 4-6 3-3-1-6-2-6 1-5h6l7 3 5-1zm1 3-9 7-7-1-8-2-1 2 3 8v5l-7 8 1 2 13 1 6 9 1 2h2l4-12 9-3 4-1-1-4-7-5h-2l1-15z"/></svg>
