<?xml version="1.0" encoding="UTF-8"?>
<svg version="1.1" viewBox="0 0 1024 1024" xmlns="http://www.w3.org/2000/svg"><path transform="translate(446,186)" d="m0 0 4 2 7 13 15 3 3 3-1 5-7 8-3 2v18l-2 2-7-1-7-4-9 1-5 3h-5l-3-3v-18l-9-10v-5l5-3 14-2 5-10zm-1 4-4 6v2h-2l-3 5-13 2-3 2 2 5 5 5 2 3-1 17 1 1 7-1 6-3h6l9 5 4-1v-16l11-11-2-4-15-4-7-13z"/><path transform="translate(573,197)" d="m0 0 4 1 1 1 1 11 8 6-1 5-10 5-2 9-1 1h-6l-6-8h-9l-4-2 1-5 3-5v-15l5-1 9 1zm0 3-6 4h-13l-1 2 2 7-3 7 1 5h9l6 7 4-1 3-8 9-4-4-5-4-2-1-11z"/><path transform="translate(677,204)" d="m0 0h7l5 4 16 32 2 1 19 2 15 3 7 5v9l-11 12-15 15 1 14 2 17v12l-5 4h-8l-30-15-5 1-16 8-11 6h-11l-3-3v-18l3-25-8-7-5-5-8-9-5-5-2-6 2-5 5-4 24-5 12-1 18-33zm1 3-5 5-12 23-4 7-38 8-4 3v6l15 16 12 12v9l-4 23v10l2 2h8l30-15 7 1 28 14h7l3-3v-9l-4-21v-12l24-24 3-4-2-7-14-4-27-5-6-11-7-16-7-8z"/><path transform="translate(436,210)" d="m0 0 4 1 1 5-5 1-2-5z"/><path transform="translate(451,211)" d="m0 0h5l2 4-2 3-5-1-1-5z"/><path transform="translate(306,215)" d="m0 0 6 1 4 5 5 5 14 21 42 2 6 4 1 1-1 9-10 14-8 11-4 6 3 12 5 16 1 4v12l-4 3h-9l-16-5-12-4h-7l-13 11-17 11h-6l-6-5-1-2-1-17v-23l-4-2-20-14-8-6-2-4 1-7 6-5 14-5 19-7 3-3 4-13 8-23zm-2 4-4 4-12 37-24 7-10 4-6 5-1 5 13 11 21 15 2 41 2 2h8l18-13 11-8h8l13 5 15 4 9-1 1-1v-8l-10-30 1-7 7-9 6-9 8-11v-9l-4-1-40-1-7-8-18-24z"/><path transform="translate(482,252)" d="m0 0h24l20 3 18 8 11 6 13 10 11 11 10 15 8 14 3 8 15 5 6 4 4 8 3 13v20l-3 9-4 5-13 7 1 3 4 4 2 4 5-1 9-6 10-4 11-2-3-12v-7l3-5 6-1 7 4 4 5 4 1 1-5 9-14 6-5h8l3 3v5l7-4h6l3 4v8l5 2 3 4v9l3 2v9l-6 10-11 12-15 10-3 11-7 10-4 8-11 12-8 7-9 9-14 11-5 4h-2l2 19v22l-4 11-7 8h-2l2 5-1 13 12 20 8 16 5 13 1 6 3 11v38l-4 9 1 5 12 11 5 5 4 5 3 8v12l-3 8-8 7-8 4-8 1h-10l-13-2-22-10-2-3-5-3-5-6-4-15-1-12-8-7-5-8-3-9-2-4-5-12-1-3h-2l-5-9-5-5-6-7-16 1-3 1-3 12-1 17 1 2 2 15-1 18 7 12 5 11v12l-5 12-8 13-9 10-10 7-10 4-11 1-12-6-6-7-2-5v-21l5-21-5-1-10-5-8-10-9-12-4-8-8-24v-34l4-30v-7l-4-6-1-11-9-6-6-7-5-13-5-29-21-10-12-5-11-6-10-4-14-13-4-4-4-6-15-5-12-6-12-9-3-4 1-7 1-5-1-1v-9l3-1-1-10 2-4 7-1 5 1v-5l4-4h7l8 4 10 9 5 2 2-7 5-6h8l4 4 2 16 23 1 14 3 2-11 4-5h2v-3l-9-1-10-4-6-7-4-10-2-8v-23l4-8 9-7 7-3 4-15 3-11 8-16 10-15 15-15 10-7 17-8 8-4 9-3zm13 41-22 2-20 4-14 5-16 8-11 8-7 7-4 8v2l4-2 6-7 8-6 14-8 20-7 22-5 20-2h21l23 4 18 6 10 5 9 7h2l-2-5-4-5-13-8-12-5-16-4-7-1-18-1zm-7 9-27 4-20 6-17 9-7 4-12 12-3 10v18l4 14 4 5 9-2 3-2 4-17 5-8 7-4 22-5 11-5 6-5 3-1-6 11-5 6 1 3 12-1 16-5 12-5 10-8 8-7-9 15v3l11-3 12-8 4-5 5-5 4 15 6 14 4 12 2 2 10-1 3-9v-21l-4-14-7-6-16-8-11-4-22-4zm-6-48-20 4-14 6-1 22-2-19-4-1-16 11-13 11-10 13-8 12-6 16-4 17v32l1 7h-2l-1-17-1-15-6 1-8 6 2 10 3 9 1 6 1 26 4 3h11l1-2-4-14-2-11h2l1 8 4 15 7 9 8 7 12 7 11 4 22 5h9v2l-18-2-23-7-11-6-8-6-2 1 2 5 7 9 7 7 14 7 14 4 16 3 9 1h27l28-4 22-5 16-6 17-9 8-6 10-15 3-7-1-4-5 5-11 10-9 5-14 7-16 5-21 5-13 2-10 1v-2h8l31-6 16-5 17-7 11-8 10-9 8-10 3-6 1-6v-19l-2-19-2-10-3-12-9-19-4-6-5-5-8-10-10-9-14-9-9-4-13-5-5 1 3 31 9 4 18 4 16 8 10 7 7 9 5 10 6 19 2 12v17l-3 12-8 16-9 7-17 8-18 6-13 3-23 3v-2l13-1 28-6 8-4 8-10 3-6 1-12v-10l-1-15-3-11-8-20-2-6-4 1-6 5v2l-5 2-8 4-7 2h-7l1-4-6 2-20 8-11 2h-12l1-5 5-5v-2l-5 1-10 3-19 5-6 4-4 5-3 9 1 34 3 9 4 8 7 8 4 3h3v2l-20-4-16-8-8-9-4-8-5-15-2-14v-18l3-14 4-11v-2h2l6-9 12-11 23-11 6-4 1-2 2 2 10-1 24-4 34-1v-18l-1-12-3-5-10-2zm119 78-1 4 4 21 1 36 2 1 10-4 1-1v-8l-1-11 2 11h4l2-9v-14l-3-13-1-2h-3v4h-2l1-10-4-3-8-2zm-20 1 1 9v14l-3 13 1 7v13l-6 8-7 3-5 14-2 4 3 1 13-7 9-8 6-13 2-10v-20l-3-14-5-12zm-183 17-3 8-1 6v18l2 12 4 11 6 11 7 7 14 6 9 1-4-7-4-6-2-5-12-3-2-4-3-5v-13l-5-11-3-11-1-15zm292 9-6 4-11 18-2 2v5l6 5 1 8-4-9-5-4-6-8-5-5-3-1-5 2v9l6 16 14 13 8 6 5 5 3 2h7l7-4 7-7 5-4 8-10 4-7-3-4-6 1-8 7v3l-10-10-10-8-4-2 6-3 5-10 1-6-4-4zm17 5-5 3-9 10-3 6 4 5 5 1 11-13 2-4v-6zm-343 2-1 1v21l2 9 4 10h3v-18l-3-17-3-6zm202 4v10l3 1h4l-6 7v6l5 1 3-1 4-8v-7l-3-6-3-3zm146 7-9 9-2 4 1 5 4 1 6-4 6-8 1-4-3-3zm-295 7-6 6v11l4 6 6 3 5-1-2-7-4-5-3-2h5l1-1-1-9zm230 16-1 5 5 10 8 10 7 7h2v2l12 7h6l2-2v-7l-9-9-14-11-11-11zm-45 2-5 10-2 6-7 11 1 2 5-2 13-10 5-5-2-7-4-5zm39-1-11 4-8 6 2 10 8 16 6 10 7 8 12 9 6 3 5-1 8-7 5-7 1-7-8-6-6-4-12-11-6-7-5-9-2-7zm-345 13-1 1v7l9 10 5 1 2-1-10 14-4 9v4l-9-6-2-1h-8l-1 4 3 5 11 8 10 5 9 3h10l6-9 13-21 3-11v-14l-3-5h-6l-4 6-6 16-1 1v17l-1-3v-13l2-4-1-7-11-10-9-6zm320 0-5 3-5 5-2 4 4 16v2l-6-15-4-1-7 5-2 11-7 9-6 4-5 3-16 8-15 5-20 4-17 2h-27l-28-4-18-5-15-8-8-11-11-5-7-1-1 1-3 23-2 7-1-1 3-12v-18l-3-3-5 1-1 15-4 17-5 13-12 16-1 4 3 2h5l7-8 7-11v2l-6 11-6 8 4 4 29 12 14 3h6l5-16 3-7-3 10-5 21-3-5-11-4h-6l-1 1 1 10 4 21 5 12 6 4 1 2 5-1-2-21h2l1 14 3 10 6 4 17 3 14 2h-10l-16-3-3-1h-8l-1 1v7l4 7 11 5 12 3 11 1h54l21-2 29-6 21-6 11-5 12-6 10-8 1-3v-8l-2-3-6 1-10 5-9 4-29 9-13 3-20 4-35 3v-2h11l1-1-1-15-2-11-1-1h-26l-6-3-4-8-3-16-2-22 1-9 3-6 2-2 18-3 51-6 11 1 6 2 3 9 4 25 1 19-3 7-5 4-25 5 1 20 2 6 1 1h8l28-7 26-9 19-9 1-1v-21l-4-17-6-12-8-11-7-8h2l8 10 8 11 5-1 14-8 7-6 9-7 13-12-1-4-11-6-8-8 4 2 6 5 4 4 6 3 4-1 3-2v-3l-8-6-10-8-6-7-5-5-8-16-5-12zm-333 9-3 3 1 6 12 9 4 2 4-1 3-5-6-7-11-7zm109 1-4 5-1 3v8l4 3 16 6 4-2-2-5-7-7-8-11zm190 10-8 6-17 8-18 6-24 5-13 1h-42l-16-2-18-5-7-4h-6l-1 6 7 8 12 6 9 3 19 4 24 2h12l24-2 23-5 19-7 14-8v-2l5-2 7-8 1-2v-8zm-303 3-2 2 1 5 6 5 7 4 5-1 2-3-1-4-14-8zm76 0-1 1-2 14-5 13-7 14-9 10-1 4 5 5 9 6 4 2 4-1 9-10 8-16 4-11 2-9v-18l-5-3-3-1zm-10 1-6 12-1 4-4 4-8 14-4 6v8l2 2 6-1 7-7 9-14 3-10 2-6v-11l-1-1zm187 52-16 2v13l2 27 3 23 2 2h9l19-3 5-3 3-4v-16l-4-29-3-8-4-3-6-1zm-41 4-20 3-6 5-2 4v15l4 31 1 2h2l2 5 2 2h27l16-2 1-1v-6l-19-1-1-1v-13l17-3 2-2-2-23-2-14-1-1zm132 13-12 9-1 1 1 8 3 9 2 10 1 13 4 1 6-6 1-3v-37l-2-5zm-118 30-6 2 1 10 1 1h14l3-3v-8l-2-2zm4 24-3 1v14l2 13 1 1h11l7-2 1-1-1-16-2-9-1-1zm105 22-17 10-22 8-32 8-27 3h-58l-14-2-14-3-4 1-1 5-3 19-1 11v16l3 5 4 1h7l6-8 7-3h16l9 3 5 6 2 1 14-1 18-4 3-5 1-9-16-8 6 2 6 3 13 2 11-2 10-5 10-9 2-1-7 8-8 6 2 5 7 9 1 1h9l15-6 6-5 4-11 4-4 10-5 6-2v2l-9 2-12 11v16l6 12 4 5 7 3 9-1 9-4 6-4 3-5v-14l-4-10-9-9-4-1v-2l6 2 5 1 11-6 1-4-4-10-9-15-7-9zm20 40-8 6 1 5 3 4 5-2 6-4-1-8-1-1zm6 12-8 6v18l-5 8-9 6-5 2h-12l-9-7-3-4-9 1-15 4-2 3 2 7 5 7 4 2 32 1-34 1 1 7 4 6 12 6 8 1h14l12-3 11-6 7-7 3-5 2-6v-32l-2-14zm-63 16-9 4-10 4-1 4 3 4h10l15-5 1-1-1-8-2-2zm-131 4-8 7-1 3-1 14 1 10 6 8 7 4h13l9-4 6-7 1-3v-15l-5-10-8-7zm60 7-24 4-2 1 1 9 1 1h13l16-4 1-1v-9l-1-1zm-84 5v7l5 4h5l1-1 1-9-2-1zm83 9-20 3-4 4-2 9-4 5-8 4-14 1-8-2-7-6-4-12-3-2h-5l-1 4 4 13 9 14 8 5h4v2h-4l1 5 9 6 6 2h13l11-3 16-8 8-6 6-11v-11l-5-1-4 4 4-5 2-2 1-8-2-4zm133 24-9 6-10 4-4 1h-30l1 15 5 6 13 8 18 8h26l12-7 6-7 1-5-6-12-13-13-6-4zm-127 13-7 8-14 7-13 4-8 1-4 5-5 13-1 6v15l3 8 3 2h22l10-6 9-8 8-11 8-16 2-6-1-10-7-11zm80 23 2 4 10 7 19 8 9 2h14l10-3 10-9 1-4h-3l-7 5-10 3h-20l-15-4-17-9zm-66 4-8 14-9 14-5 5-8 6-11 4-12 2-1 3 4 1h10l15-6 10-9 3-3v-2h2l8-14 4-13z"/><path transform="translate(656,261)" d="m0 0h8l4 5-1 7-5 4-7-1-3-4v-8zm0 3-1 4 5-1-1-3z"/><path transform="translate(696,261)" d="m0 0h8l4 4v8l-3 3h-9l-4-4v-6zm1 3-2 1 1 4 5-1-2-4z"/><path transform="translate(334,268)" d="m0 0h7l4 5v7l-4 5-5 1-6-5-1-7zm-1 5-1 4h5l-1-4z"/><path transform="translate(292,276)" d="m0 0h7l3 3 1 8-3 5-6 1-5-3-1-1v-9zm-1 4-2 4 5 1v-4z"/><path transform="translate(671,282)" d="m0 0 6 5h6l5-4 3 1-5 6-4 2-7-1-5-4z"/><path transform="translate(323,290)" d="m0 0h9l1 1v8l-6 7-2 1h-13l-7-6-1-4 2-3zm-4 4-10 2-1 3 6 6 10-1 2-4 4-2v-4z"/><path transform="translate(432,326)" d="m0 0h6l2 5-7 8-5 4-12 24-5 1-2-2v-11l5-13 4-6 7-7zm-1 3-8 6-7 8-4 11v9l3 1 7-16 8-11 7-6-1-2z"/><path transform="translate(528,356)" d="m0 0h11l5 5-1 4-14-1-2-2zm3 2-1 3h9v-2l-2-1z"/><path transform="translate(450,362)" d="m0 0h5l4 4-1 4-8 3h-8v-4l5-5zm-2 4-2 1v2h8v-3z"/><path transform="translate(265,366)" d="m0 0 5 1 1 1 1 11 6 3 4 3-1 4-10 5-2 10-1 1h-5l-5-6-13-1-2-3 3-7v-7l-2-9 1-1h15zm0 3-5 5h-11l-1 3 2 5-2 9v4l11 1 5 6h3l2-10 8-4v-4l-7-4-1-10z"/><path transform="translate(531,371)" d="m0 0h8l4 5v8l-3 6 9 1 2 2v5l-4 3-4 1h-9l-4-3 1-6 2-3-5-2-3-5 1-7zm6 5v4l4-2-1-2zm1 16-5 3 2 4 10-1 2-2-1-4z"/><path transform="translate(450,379)" d="m0 0h8l5 4v9l-5 5h-4v2h6l2 3-1 4-3 3-10 1-5-2-2-2 1-5 8-3 1-2-4-2-1-1v-10zm-1 4-1 3 3 2v-4zm0 18-5 1 1 4h12l2-4z"/><path transform="translate(499,385)" d="m0 0 4 2v7l-3 2h-8v-4l7-1z"/><path transform="translate(776,395)" d="m0 0h5l1 1 1 10 9 7-1 5-9 5-2 9-2 2h-5l-5-6-3-1-11-1 1-7 2-3-1-7-1-2v-6l3-1h12zm0 3-5 5h-13l1 6 1 5-3 9 1 1h12l2 4 2 3 3-1 3-9 8-5-2-4-5-4-2-9z"/><path transform="translate(511,403)" d="m0 0 2 1-1 4-7 6h-16l-4-2-2-5 9 4h10l6-4z"/><path transform="translate(448,434)" d="m0 0h53v2l-28 1h-13l-11-1z"/><path transform="translate(466,443)" d="m0 0h30v2h-30z"/><path transform="translate(235,454)" d="m0 0 5 1 5 4h13l2 2-1 13 4 7-2 4-12 2-6 7h-5l-3-9v-2l-9-3-3-3 1-4 7-5 2-12zm2 4-1 1-1 10-7 5 1 4 7 3 4 9 2 1 5-7 11-1 1-3-4-6 2-12-2-1-4 1h-7l-5-4z"/><path transform="translate(743,470)" d="m0 0h8l16 3 9 6 9 10 5 12 1 5v14l-2 12 10 13 5 8v8l-5 4-7 1-12-3-14-7h-28l-13-5-8-6-7-8-6-12-3-14-12-12-7-11-2-7 4-6 9-1 12 2 9 4 6-1 9-6 7-2zm-1 2-15 5-8 6-6 7-4 9 1 6 8 8 14 10 7 6-7-4-17-13-12-11-6-9-1-8 12 1 6 1-1-3-14-6h-13l-3 4 2 6 7 10 12 13 11 9 14 11 16 11 23 13 17 8 5 1h8l3-2v-7l-6-10-7-8h-3l2 5 5 8-1 4-3 1 2-3-1-5-5-6-4 1-4 5 1 4 4 2-11-4-21-11-6-5 4 2 21 12 6-1 5-5 6-9 3-10v-15l-3-11-6-10-9-7-16-6zm-40 13-5 2 2 5 5 6 4-1 3-5-1-5zm6 31-1 4 1 7 8 13 10 9 6 3 17 2 7-1v-4l-4-2h-4l-2 3-3 1 2-4-2-2-10-2v2l5 3h3v2l-11-5v-4l13 2v-2l-17-12-12-9z"/><path transform="translate(534,497)" d="m0 0h5l8 6 2 4-1 9-4 5-6 3-9-2-5-5-2-7 3-7 6-5zm-2 4-5 4-1 2v8l3 4 10 1 5-3 1-5h-2l-3 5h-8l-3-3v-7l3-3h7l3 2 1 3h2l-1-5-4-3zm1 5-3 4 2 5 1 1h5l3-3v-5l-2-2z"/><path transform="translate(482,501)" d="m0 0h8l9 6 2 4v7l-4 7-4 4h-14l-6-5-2-5 1-9 7-8zm-2 4-5 5-1 2v6l7 8 1 1h9l6-7v-10l-5-5z"/><path transform="translate(535,529)" d="m0 0h9l6 6v8l-4 6-1 1h-10l-5-4-1-2v-9l5-5zm1 3-4 5 1 8 5 3 6-2 3-4-1-7-3-3z"/><path transform="translate(281,532)" d="m0 0h17l14 5 9 7h9l9-2h19l6 5-1 5-6 8-8 7-11 8-4 2-3 11-6 12-6 7-10 6-11 4h-15l-11-4-6-3-14 1-8 2h-19l-6-5v-5l9-10 14-12 4-2 2-15 5-11 4-6 5-6 16-8zm3 3-10 3-8 5-7 6-5 7-3 9-1 13 3 11 3 6 1 1 9-1 19-7 13-5 14-8 10-5 7-6-7-14-4-5-9-6-11-4zm56 10-14 3v3l3 1-1 5 3 5 5-1 5-4-5 6-13 8-27 14-20 8-21 6-5 1h-12l1-6 2-1-2 5 2 1 12-1 1-4-4-6-6 2 5-4-1-3-5 2-9 6-9 8-3 5 1 4 5 3h11l15-3 24-8 20-8 25-12 6-4 8-4 10-7 11-9 2-4v-5l-3-2zm-14 35-6 3-5 3-10 4-15 7-20 7-1 5 5 3 10 2h11l12-3 10-7 7-8 5-12-1-4z"/><path transform="translate(477,537)" d="m0 0h12l2 3v13l-1 1-12 1-2-3-1-13zm1 3 1 11 1 1 7-1 1-4-1-7z"/><path transform="translate(263,551)" d="m0 0h6l1 5-4 8-3 8h-6l-1-1v-8l5-10zm2 2-6 9-1 6h4l4-10 1-5z"/><path transform="translate(708,609)" d="m0 0h5l3 9v2l9 3 2 2v5l-8 5-2 11-1 1h-6l-4-3h-14l-2-5 2-5-1-6-2-4 1-7 12-1zm2 2-7 8-11 1 1 5 2 3-1 8-1 4 1 1h13l3 3h4l2-10 8-5-1-4-8-3-2-9z"/><path transform="translate(346,624)" d="m0 0h7l6 9 6 10v2l13 1 11 2 3 2 1 7-9 11-5 5v9l1 7v12l-2 2-10-1-11-5-9 1-13 7-7 1-3-3v-26l-16-16v-7l6-3 17-4h3l2-6 8-16zm1 3-3 5-6 13-5 5-20 5-2 2 1 5 12 11 4 3v26h7l12-7 4-2 6 1 15 7 5-1 1-1v-8l-2-8v-11l9-9 5-6-1-5-6-2-19-3-6-10-4-8-2-2z"/><path transform="translate(360,660)" d="m0 0h7l1 1v7l-1 1h-6l-3-4z"/><path transform="translate(335,661)" d="m0 0h7l2 2v5l-2 2h-6l-3-5z"/><path transform="translate(736,671)" d="m0 0h6l5 5 4 10 5 11 2 9 8 1 23 6 6 4 2 4-1 5-10 10-14 11-3 1 1 18v17l-3 5-7 1-18-10-9-6-9 1-17 8-10 1-5-3-1-1v-13l6-20-2-6-9-10-9-11-2-3v-7l6-5 17-2 17-1 4-5 7-14 2-3h2l2-4zm-1 4-11 17-7 11-1 1-35 3-3 3v6l12 14 7 8 3 5-1 8-5 17-1 10 4 3 7-1 19-9 10-1 10 5 8 6 9 5 5-1 2-2v-15l-1-22 4-2 20-16 4-5-1-4-6-4-25-6-5-2-9-21-4-10-1-1z"/><path transform="translate(713,719)" d="m0 0h7l4 5-1 6-3 3h-6l-4-4v-7zm1 3-1 3h3v-3z"/><path transform="translate(309,720)" d="m0 0 15 1 12 4 13 9 3 3h8l7-1h29l5 5-1 7-6 8-10 8-11 7-8 5-6 16-5 9-9 10-8 5-16 5h-17l-13-4-11-6-9 1-8 2-9 1h-19l-6-4-2-4 1-4 3-6 9-8h2l1-3 17-11 5-23 5-10 10-11 10-6 11-4zm-9 4-12 5-12 11-7 10-4 12v17l4 12 3 4h7l10-2 27-10 14-5 16-8 11-6 2-4-3-10-5-9-9-9-16-8zm67 15-10 2-1 4 22 1v5l-10 8-16 10-23 11-33 12-27 7-5 1h-14l-1-6 9-8 5-3-1-3-5 1-11 7-15 14-1 5 5 5h18l18-4 24-6 21-8 16-6 13-6 16-8 13-7 3-3 6-3 8-6 6-8 1-5-3-3zm-7 8-2 3 4 9 5-1 9-8-1-3zm-5 32-31 14-10 3-18 7-9 2-2 4 4 4 10 4 6 1h15l9-2 10-5 11-9 7-12 2-7v-4zm-94 7-10 8 1 4 3 1 11-1 3-3-4-8z"/><path transform="translate(749,723)" d="m0 0h7l3 2v8l-3 3h-8l-2-3v-7zm1 2-2 3 4 1v-4z"/><path transform="translate(722,737)" d="m0 0h11l12 1 1 5-1 3-5 4-9 1-7-3-3-5v-5zm3 3v4l4 4h10l4-4-1-3-3-1z"/><path transform="translate(282,743)" d="m0 0 7 1-1 9-5 8-3 10h-8v-12l6-12zm2 3-6 5-3 9v8h3l5-14 3-4v-4z"/><path transform="translate(582,762)" d="m0 0h6l6 12 3 7 15 5 4 4-2 5-7 7-6 4-2 19-2 3-7-1-10-8-8 1-10 4-6-2-1-4 3-12 1-5-7-11-3-6 1-4 6-2 16-1 9-14zm2 3-10 12-2 3-20 2v5l9 10 1 4-4 14 1 5 4 1 10-4h8l10 8h5l1-1 1-11v-9l5-2 9-8-1-5-17-6-3-9-5-9z"/><path transform="translate(569,789)" d="m0 0h6l1 5-1 2h-6l-2-5z"/><path transform="translate(588,792)" d="m0 0h6l1 1v5l-2 2h-5l-2-3 1-4z"/><path transform="translate(442,796)" d="m0 0 6 1 1 2 1 13 5 4 3 3-1 4-5 3-7 2-4 11h-5l-7-9-14-2-1-5 4-6 2-1-2-10v-5l1-1h8l6 2 7-4zm1 3-6 5h-8l-7-1-1 2 2 5v7l-5 5v4l13 2 6 8 2-1 4-9 10-4v-4l-7-5v-13z"/></svg>
