<?xml version="1.0" encoding="UTF-8"?>
<svg version="1.1" viewBox="0 0 1024 1024" xmlns="http://www.w3.org/2000/svg"><path transform="translate(530,104)" d="m0 0h11l14 2 18 6 12 6 13 10 6 5 5 6 21 4 19 8 8 6v2l4 2 5 5 7 11 5 11 2 14v8l-2 15-6 14-7 10-9 9-12 7-11 4-10 2 1 41 1 26 4 10 1 7 12 2 6 5 5 9v14l-3 7-7 8-9 4-2 15-7 14-8 10-5 4 1 7 29 12 22 12 12 8 9 8 8 7 9 9 8 11 3 7 4 13v21l1 9-3 9-6 10-10 10-11 7-4 2 5 20 5 42v9l-14 7-2 16-8 30-7 23-6 16-7 21-5 14-6 19v6l2 7 1 5 11 9 4 5 3 9-1 7-6 4-13 4-16 1 1 4v7l-3 3-7 1-7-2-3-7-3-8-29-8-9-4-4-3-1-3-1-13-6-4-5-24-30 2-3 13-2 9-5 3h-2v13l-3 5-6 3h-2l1 16v28l-5 5-9 1-5-3-3-3v-36l-13 2-6 1h-27l-15-4-6-4-1-2v-9l6-10 10-8 3-2 2-10v-7l-1-2-49-7-5-1-5 21-8 31-5 22-3 7-2 1h-11l-4-4v-7l9-30 10-37 3-12-4-2-2-2v-17l4-5 10-5 8-2v-2l-5-2-12-12-9-14-5-12-4-17-2-24-9-2-12-5-9-6-4-6-1-7 3-5 5-4 6-1 18 1-1-8 3-6 9-6 16-5 11-3 6-26 4-14 1-3h-9l-13-4-14-8-7-7-8-16-4-12v-12l3-9 4-8 8-9-1-5-5-8-5-11-2-7 1-8 5-6 7-1 6 3 7 8 6 10 4 7v2h2l1 2 6-2 20-9 5-3 16-6 15-6 21-6 1-9-11-11-4-8-4-12-1-5v-7l-5-1-8-6-4-8-1-3v-12l3-8 5-5 7-3h8l1-1 2-11 4-8 3-27 4-44-10-2-12-5-11-7-12-12-6-12-3-9-1-7v-12l3-13 8-16 9-11 11-8 15-7 11-3 11-2 7-8 10-9 9-6 15-6 13-4zm-3 5-16 3-19 7-14 9-10 9-8 11-6 12v2h-2l5-13 1-4-9 1-15 5-9 5v2l-4 2-6 5-5 6v2h-2l-5 9-4 17v12l4 17 7 11 9 9 12 7 10 4 8 1 1-3 1-20h-14l-9-3h3l5 1 14-1 2-1 1-15-9-3-9-4-4-3 10 4 5 1h15l15-5 9-7 5-5-6-5-5-6-4-4v-2l8 8 14 9 15 5 9 2h21l13-3 16-6 14-10 5-4-7 8-10 7-3 1 1 4 10 8 16 8 12 3h18l18-5-7 4-14 3-3 3v16l2 2 8 2h16l-1 1-5 1h-12l-6-1-2 2 1 18 4 1 12-3 12-7 10-9 8-11 5-12 3-14v-9l-4-16-7-13-9-10-10-7-8-5-18-5h-7l2 5 2 3h-2l-2-4-15-16-8-6-13-8-12-5-14-4-8-1zm-34 89-7 7-14 8-15 4-3 31-2 26v14l5-1 4-3 4-39v-9h2l-2 41v5l8-1 10-4 1-14v-13l1-12v-12h2l-1 26v23l4 2 18-3 2-5 2-33v-15h2v51l1 1h13l11-1 1-1 1-27 2 28 1 1 23 2 1-1 1-45h2v41l2 6 17 3 1-34h2v18l1 17 12 5 2-1 1-13 1-3 1 17 5 4 3-1v-24l-1-41-1-1-16-2-11-3-16-10-8-7-5 1-16 5-17 1-15-2-16-6zm20 78-28 4-16 5-15 5-3 2-2 15-1 24 5-1 21-7 30-5 10-1h37l26 4 16 3 19 7 5 2 4-1-1-33-2-5-12-6-23-7-22-4-10-1zm2 44-5 2-7 8v2l9-3 5-2-2 6-4 2v2l7-1 9-4 8-7-1 6-6 9v2l10-3 12-7 7-9-1-2-10-1zm-22 2-21 5-4 2-4 13-6 8-8 6-2 11 2 9-7 1-5 1-3 15v17l3 12 7 12 11 11 17 10 17 6 25 7 5 1h20l26-6 18-5 16-8 10-7 2-4 4-2 5-6 6-13 2-7 1-12-4-20-3-1-9-1 2-10-1-9-5-7-6-5-1-2h-2l-2-9-2-6-19-5-12-2h-5l-8 10-9 7-10 5-14 1 5-5 3-5-5 1-10 4h-9l4-4v-2l-14 1 11-11v-2zm-32 8-12 5-4 5-4 9-1 5v16l2 4h5v-16l3-6 10-9 4-9-1-4zm140 2 1 6 6 8 8 8 2 5v11l-1 4 5 1 2-4 1-6v-15l-3-10-5-4-12-4zm-174 28-7 5-4 6-1 9 3 9 5 5 5 4 3-3 3-15-2-2-4 1-2 1 4-5-1-3-4-1v-2l7 2 4 3 1-1v-11l-2-2zm203 0-2 5v9h3l3-3 5-1 1 2h-5v4l4 6-4-4-4 1 1 14 1 5 6-1 6-5 4-10v-7l-4-10-5-4-3-1zm-175 90-1 1v5l10 10 9 6 15 7 7-1 2-4-6-3 11 3h8v-4l-24-7-16-6-13-7zm151 0-13 8-25 8-18 5 1 5 18-3-11 4-6 2 1 4h11l11-3 14-6 8-6 12-12-1-5zm-270 9-1 1 1 10 8 15 5 9h2v2l6-1 6-3-2-6-7-13h-2l-2-5-7-8zm111 0-17 5-18 7-10 4-14 6-8 4 1 4 5 6v12l1 8 4 4v9l3 5v9l3 3 6-9 8-14 4-17v3l-1 6h3l7-9-6 11-8 13-7 12-3 7 1 5 7 11 5 4 3 3 10 4 9 3 11 7 10 9 9 14 5 12 53 1 8-5h10l12 6 3-5 4-2 8 1 4 5 3 5h7v-111l-1-14-3-4-20-4-8-1-7 6-13 3-9-2-4-1-9 11-7 6-10 4-7 2-20 1h-4l3-8 9-16 6-9 6-6v-2l-17-9-11-9-3-4zm164 0-9 10-10 7-12 6-17 4-8 1v2l26 6 3 2 1 13 1 117 8 3 19 5 9 5 5 5v12l19-1 7 1 2 4 2 3-1 9-6 7-9 5-10 4-7 2-1 5 10-1 30-7 16-6 9-4 2-2-1-17-4-26-6-25-4 2-12 9-12 3-9-1-6-5-9-3-5-9-5-4-1-2v-7l2-7h2l4-6v-3l-7-4-2-4 1-6 5-3 18-4 2-2 4-11 3-5-1-5-6-11-7-9-3-6 8 10h2l-1-9-1-3h2l1 6 3 14 4 6 3-1 4-8 1 2 10-3-4 3-8 5 1 2 11-2 15 1 11 4 10 7 6 7 4 5v-10l-3-10-9-15-9-10-9-9-18-13-10-6-30-15-11-4zm-279 3-1 6 3 10 8 15 5 7 3-1-2-6-8-13-5-11-2-7zm181 10 2 17 5 6 6 2h8l4-5v-3h2l-1 7 5-2 3-4 1-3v-11l-2-4-17 1-1 3v2l-6-6zm-9 6-12 4-8 5-3 4v2l-3 1-6 10-6 12v2h18l11-4 11-8 8-10-1-4-5 2-6 4 9-9-1-3-14 7-9 8 3-5 8-7 12-6-1-5zm-135 12 2 3 5 3 3 6 3 1 1-1v-6l-4-5-2-1zm-6 5-9 5-8 9-1 2v16l5 10 8 8 10 5h8l9-5 6-7 1-3-2-3-5 1-6 3 9-8 1-2v-6l-2-2h-6l-13 8 5-5 9-7 1-1v-6l-4-2-9 1-12 7 4-5 11-6 1-4-3-3zm-21 8-8 9-4 12-1 10 2 9 4 9 7 8 4 4 12 5h8l9-5 5-5-1-5-1-1-16-2-9-6-7-9-4-9-1-5v-7l4-10v-2zm325 26-10 2-5 4-2 6h-2l-4 8 1 1h13l12 3 8 5 7 7 4 8 2 11-1 16 5-2 9-8 7-10 2-4 1-13-6-12-8-10-14-9-13-3zm-277 16-4 4v3l-4-1 2 5 14 22 3 10 1 13 5 16 9 15 7 7 8 5 3 1h12l7-2 5-5-7 1h-8l-11-4-11-8-6-8-7-12-4-15v-7l-2-7-5-10-3-5h2l2 5 4 7 5 24 5 12 4 8 5 5 10 9 10 4h12l10-5 3-6-1-10-8-16-13-13-15-8-14-5-10-9-9-14-4-6zm260 8-17 6-14 3v5l4 4 8 1 5-2-10 10-5 7-2 6 1 6 1 1 9-1 9-6 3-1-4 5-11 7 1 6 3 2h7l9-3 7-6-2 4-9 6-2 1 1 4 5 2 10-2 11-6 11-11 9-16-1-8-6-11-7-7-12-6zm-269 9-8 7-7 3h-7l-9-3-3 1 7 5 14 5 13 1 3-5 3-7-1-5-2-2zm8 11-4 10-5 16-5 23 1 5 16-2 13-2-1-5-4-14-3-19-6-12zm297 21-4 6v3l4-1 2-8zm-126 23-4 4 1 2 12 2 1-4-5-4zm-25 0-8 3-5 6-1 10 4 8 4 3 3 1h10l8-6 2-3 1-10-3-6-8-5zm-64 6v4h48v-3l-22-1zm-69 4-25 4-17 3-15 5-9 6-2 3 1 5 16 8 23 6 26 3 33 3 19 1h50l37-2 43-5 21-5 13-5 6-4 2-3-1-5-7-5-13-5-25-5-23-3v3l21 3 13 2 16 4 10 5 1 5-5 5-16 5-26 5-16 2-36 2h-78l-35-2-28-4-21-5-9-4-4-4 2-5 8-4 19-5 12-2 26-3-1-3zm67 3-6 8 1 3 4 1 6-7 6-2 10 1 6 6 9 1 5-3 8-1v-6l-3-1zm-74 3-24 4-16 4-9 4-1 5 3 3 11 3 9-5h10l7-6h12l6 1 4-4 9-3-2-4-2-2zm161 0-3 8 2 2 8 2h5l5-3h7l6 4 2 3 9 2 4 4 6-1 6-4-1-5-9-4-19-5-19-3zm-78 2-6 4-2 5-9-1-13 5-10 1-11-3-1 2 1 6-2 4-2 1h-6l-3-4 1-7 2-2 6-1-2-2h-11l-4 2-3 6-6-4h-11l-6 5-1 2-4-1h-7l-4 2v2l18 4 22 3 26 2 20 1h58l32-2 27-3 23-4 7-2-1-3-9-2-4-6-2-1h-9l-5 4v2l-5-3-6-2-9 2-7 3h-8l-7-4-6-6h-8l-4 3h-12l-4-6-4-2zm-61 13-2 2v5l2 2h7l2-3-1-4-5-2zm-80 9-1 2 3 18 7 2 12 1 7 4 3 6v8l-4 6-5 2-7-1-5-4-4-9-4 1 2 23 3 13 3 10 6 10 7 9 8 7 7 6 14 8 19 7 19 5 11 2 29 2h27l31-2 25-6 17-6 9-5 12-8 11-10 9-13 5-10 4-14 2-18v-10l-4-1-5 10-4 3-7 1-6-4-3-5v-7l4-7 6-3 14-1 6-3 1-8v-10l-9 3-11 4-33 6-25 3-29 2h-71l-38-3-28-4-20-4-10-3zm-26 2-6 4-1 7 7 8 15 7 20 6 2 8 6 5h6l5-4 1-2v-8l-3-5-6-3-19-3-9-2-10-6-2-4 17 2v-6l-6-3-5-1zm323 0-8 3-2 4v3l8-1 11-1-5 5-12 6-16 3-10 1-7 6-1 7 3 6 5 3 7-2 3-3 1-7 7-3 16-5 13-6 5-4 2-4v-6l-5-4-2-1zm-307 13 1 2 5 1 1-2zm301 0-4 1v2l6-1v-2zm44 17-12 3-23 6-14 3-1 1-1 16 2 1 17-9v1l-15 10-5 3-4 13-8 16-5 6-5 5v2l-4 2-6 5 2 2 10 4 8 5 1 2v16l-5 5 1 9 4 10 18 1 6 1 3-7 9-27 10-28 5-17 8-24 4-17 3-14v-5zm-299 88-17 6-3 3 1 5 9 4 12 4 19 4 16 2 38 2h66l35-2 21-3 24-6 10-4 2-2v-5l-7-4-12-4h-6l-17 9-18 6-30 5-10 1h-50l-23-3-17-3-16-5-17-7-4-3zm-20 17v7l4 4 17 6 18 4 19 2 40 3h58l29-2 23-2 25-5 17-6 3-3v-8l-5 1-10 4-16 4-24 3-33 3h-74l-34-3-27-3-15-4-13-5zm6 16-3 7-2 10-8 28-5 18-5 17 1 3 2 1h6l3-3 9-34 3-15 7-26-1-4zm239 0-6 3 2 11 4 17 4 18 8 33 3 2h6l2-2v-7l-11-38-4-17-5-17zm-12 4-21 4-12 2-1 7 3 15 5 3 9 2h20l6-2-1-7-3-9-2-12-1-3zm-155 8-1 3 1 2 9-1 5-1v-2zm24 2v2l6 1-23 1-7 3-3 5 1 3 19 1 23 6 3-1 1-6v-14l-1-1zm25 0-1 1-1 32v56l5 3 6-2 2-2v-19l-2-68-1-1zm13 0v21l1 1 11-1 3-2 3-15-1-4zm117 4-1 2 2 10 3 1 7-1 15-1-1-6-6-4-4-1zm-179 15-8 5-10 9-2 3 1 4 10 4 4 1h24l18-3 6-2v-14l-14-3-15-4zm196 0-13 2 1 8 4 15 2 2h18l13-4 3-3-4-6-9-8-9-5zm-130 7-3 1v7l6-3 1-4zm66 1v5l8 4 25 7 4-1-2-12-2-3zm-64 7-5 2v5l5-1 2-5zm65 1-1 4 4 3 13 5 16 4h6l-2-5-27-8zm-154 5-1 5 6 5 9 2 9 1h14l23-3 4-2-1-5-23 4h-20l-15-4zm244 2-13 5-20 2 1 5h13l14-3 5-3 2-4z"/><path transform="translate(480,335)" d="m0 0h9l5 5 2 4-1 1-15 2-10 5 1-8 7-8zm4 2-6 3-4 4v2l10-2 7-1-1-4z"/><path transform="translate(570,335)" d="m0 0h8l8 7 2 9-5-2-10-3-9-1-1-2 4-6zm1 3-4 4 1 1 11 2 5 1-2-4-5-4z"/><path transform="translate(483,354)" d="m0 0h8l6 4 4 5 1 3v13l-4 6v4l-20-8-10-1v-2l3-2v-10l3-6 6-5zm0 3-6 4-3 6v10l4 1 2-8 5-5h9l5 3-2-6-6-5zm10 11-3 2 1 5h4l1-4z"/><path transform="translate(568,354)" d="m0 0h8l6 4 4 5 1 5v12l-9 2-12 5-5 2-1-5-4-6v-12l4-7 5-4zm-1 3-6 5-2 6 8-4 7 1 4 4 2 9h3l2-3-1-8-5-8-4-2zm-3 11-2 5 3 3 4-2-1-5z"/><path transform="translate(523,380)" d="m0 0h13l3 3-12-1-8 3-2 3v7l4 4 3 1h15l-4 3h-12l-6-4-3-4v-7l5-6z"/><path transform="translate(485,402)" d="m0 0h2l-1 4 11 5 6 2 14 2h23l18-3 13-5 1-5h2l5 5 4 3v2l-7-2-7 13-8 10-10 7-11 4-5 1h-12l-13-4-9-5-6-5-7-10-5-9v-2l-7 2 1-3zm2 9 1 4 8 12 8 7 12-5 11-1h10l10 3 7 3 11-11 6-9v-3l-11 3-17 4-18 1-16-2-18-5zm34 20-10 3-2 2 8 4 5 1h14l11-3 2-3-7-3-8-1z"/><path transform="translate(516,451)" d="m0 0 9 2h9l8-2-2 4-5 2h-12l-6-3z"/><path transform="translate(561,510)" d="m0 0 6 1 5 4 1 2v7l-4 5-2 1h-8l-5-3-2-7 2-5 4-4zm1 3-5 3-1 1v7l5 4 6-1 3-4v-5l-6-5z"/><path transform="translate(559,562)" d="m0 0h8l4 2 2 4v6l-4 6-2 1h-8l-6-5-1-7 5-6zm1 2-4 4v6l4 4h6l4-4-1-7-3-3z"/><path transform="translate(530,563)" d="m0 0h7l3 3-1 7-3 2-6-1-2-3v-6zm2 1-3 3 1 4 1 1h5l2-2-1-5z"/><path transform="translate(505,583)" d="m0 0h7l6 3 3 6v7l-4 6-4 2-9-1-5-4-2-9 3-6zm0 3-5 5v7l4 5 2 1h7l5-4v-10l-5-4z"/><path transform="translate(434,587)" d="m0 0 5 1 10 9 6 8 3 7h-2v-2h-2l-6-9-11-11z"/><path transform="translate(536,621)" d="m0 0h6l5 5 1 6h-2l-3-5-4-3-3-1z"/><path transform="translate(499,644)" d="m0 0 9 3 5 5 5-2h9l5 3 3 4v2l-3-1-3-3-2-1h-8l-5 3h-2l-6-7-2-1h-9l-6 4-3 5h-2l1-5 5-6z"/><path transform="translate(448,651)" d="m0 0h7l6 2 6-1 6 3 1 4-4-2-7-1h-6l-2-1h-7l-4 3-9-2-5 4h-2l2-4 5-3 10 1z"/><path transform="translate(354,686)" d="m0 0 6 1 3 4-1 8-5 3-5-2-2-3v-7zm0 3-2 6 3 4 4-1 1-7-1-2z"/><path transform="translate(599,686)" d="m0 0 7 1 3 4-1 7-5 4-5-2-2-3v-7zm1 3-3 5 3 5 4-1 2-2v-5l-2-2z"/><path transform="translate(356,723)" d="m0 0 3 1 8 16 7 11 12 13 10 8-3 1-9-6-10-9-7-9-9-17-1-7z"/><path transform="translate(389,745)" d="m0 0 2 1 4 7 13 15 10 9 4 4-5-1-11-9-8-8-3-4v-2h-2l-4-8z"/></svg>
