<?xml version="1.0" encoding="UTF-8"?>
<svg version="1.1" viewBox="0 0 1024 1024" xmlns="http://www.w3.org/2000/svg"><path transform="translate(526,137)" d="m0 0h24l14 3 11 4 12 7 14 11 4 5 16 4 13 4 12 6 5 5 5 4 8 11 4 9 3 13v14l-2 11-5 13-3 5h-2l-2 4-4 5-11 8-9 4-13 3 1 49 1 15 4 13 9 1 6 4 3 4 2 5v15l-3 7-9 8-4 2-3 14-8 15-7 8-2 1v6l5 3 21 9 19 10 13 9 12 11 8 7 6 7 3 4v2h2l3 9 3 10 1 29-5 13-9 10-7 6-9 5 3 16 5 38v11l-9 5-3 2-4 20-4 17-8 25-3 10-7 18-4 14-5 13-3 9v9l3 9 10 8 4 6 2 9-2 6-7 4-8 2-15 2v9l-3 3-8 1-6-3-5-12-27-8-10-5-2-2-2-13-5-5-1-5-4-16-23 1-4 1-3 14-2 6-5 2-1 12-5 6-4 2v40l-4 4-9 1-6-4-1-1-1-32-10 1h-36l-13-5-3-3v-11l3-5h2l2-4 10-9 2-8v-8l-29-4-20-2-3 8-4 15-3 14-8 31-2 5-2 1h-11l-3-3v-10l4-13 6-21 6-22 3-15-4-2v-17l5-5 11-5 3-2-6-4-11-11-9-16-3-8-3-19-2-16-15-5-12-7-3-5-1-9 5-6 2-1h22l-1-8 2-4 8-6 14-5 11-3 4-14 6-25h-7l-14-4-11-7-7-7-8-16-2-8v-16l7-14 5-6-1-7-8-14-2-6 1-10 5-5h9l6 4 10 15 4 8 7-1 16-7 12-6 16-6 18-6 9-2v-8l-10-10-6-14-3-14-11-8-4-8v-16l3-6 6-5 12-2 3-12 3-9 6-55v-6l-11-3-16-8-8-7-7-8-7-16-1-6v-15l5-16 4-8 11-13 14-9 7-3 21-5h2l2-5 9-7 5-5 8-5 15-6 9-2zm0 4-15 4-15 6-14 10-10 10-7 13v2h-2l4-11-5-1-13 4-12 6-1 2-5 3-8 8-7 11-3 14v15l3 14 8 11 7 7 11 7 10 3h7l1-1v-19l-15-1v-2h16l1-6v-9l-11-4h-2v-2l6 2h15l16-6 9-8v-4l-6-5-5-6 8 6 11 7 17 6 5 1h18l16-4 16-7 10-8-5 6-10 6 2 5 10 7 13 7 8 2 18 1-4 3v16l5 3h13v2l-17-1-1 1 1 17 1 1h7l10-4 9-6 9-8 8-13 4-10 1-5v-19l-3-10-8-13-8-9-16-10-14-4h-6l-2 3 1 3-7-8-9-10-8-6-10-6-18-7-9-2zm-27 82-8 7-14 7-10 3-1 1-4 36-1 12v15l4 1 5-3 2-13 1-18v-12h2l-2 32v7l1 1h9l6-3 2-5 1-24v-18h2l-1 17v27l2 2h7l11-2 2-4 2-24 1 25 1 1h23l1-13 2 12 3 2 7 1h12l1-1 1-40h2v38l3 5 9 2 5-1 2-29 1 23 1 8 8 4h5l1-10h2v12l3 2 4-1v-37l-1-22-2-2-20-3-10-5-12-8-3-3-7 1-13 4h-23l-9-2-13-5zm13 72-28 5-22 8-2 4-1 8-1 24 4 1 17-6 20-4 10-1h49l18 2 18 4 15 6h7l1-1-1-31-5-5-14-6-16-4-21-4zm5 40-8 8v2l7-1 4-1-3 5v3l10-3 6-4 4-3-3 7-3 6 3 1 10-4 8-5 5-7-2-4zm-21 2-18 5-3 4-4 11-6 7-5 4-1 5v13l-9 2-2 3-2 10v18l3 12 8 11 8 8 14 9 24 8 16 5h28l30-8 15-6 10-6 6-5 5-5 6-8 3-7 3-13v-9l-4-16-10-2 1-5v-8l-2-7-10-10h-2l-1-9-3-5-23-6h-10l-8 10-9 6-6 3-13 2 5-7-2-2-11 4-6 1 1-6h-6l-1 3 1 3v7h-16l-9 2-7 3 1-6 1-3 6-3v-2l10-3 9-1 8-8v-3zm-29 8-10 5-6 11-1 4v16l3 4 4-1 1-15 4-7 8-7 2-4v-5zm133 1-1 1 1 7 12 12 1 3 1 15 4 1 3-6v-17l-3-9-8-5-5-2zm-107 5-10 4-4 4v2l10-2 15-1 1-2-3-4zm-55 21-8 7-2 3-1 8 3 9 8 7 4-2 3-12-1-3-4-1 1-4-3-3 9 3 1-1v-10l-1-1zm187 0-2 4v8h4l6-3v2l-3 1 1 5-5 1 1 14 2 2h5l5-4 4-10v-7l-5-10-5-3zm-161 83-1 5 10 10 13 8 7 3h7l2-2v-3l12 1 1-4-20-6-20-8-7-4zm138 0-15 8-25 8-9 2-1 4 1 1 10-1-1 1-9 4 2 3h9l13-3 10-5 10-8 8-8v-5zm-247 8-1 4v3l-1-2-3 1 3 12 6 12 6 7h2l1-4 3 1 8-3 1-2-3-7-6-9-6-8-5-5zm99 0-20 7-20 8-17 7-2 4 5 7 1 14 2 6 1 1 1 10 2 2 1 10 1 2 4-2 7-11 5-10 2-5 4-2-2 6-7 11-8 14v7l7 11 9 7 17 7 10 6 7 6 8 13 6 12 48 1 6-3h2l-6 4-3 7v7l4 7-5-4h-9l-3 2-5 1 2 2 10 5 9-1 7 3 2 4-5-3h-11l-5 1-4-5-2-1h-10l-5 3-2 4-2 1 4-8 3-3 4-2-6-7-2-1h-10l-6 7-13 1-7 3-11 1-8-2-3 3-1-1h-7l1-2 4-2-12-1-5 6-4-2h-12l-7 6h-11l-1 3 16 4 33 4h13v2l-34-3-23-4-14-4 7-1 3-2 11-1 6-5 19-1 4-3 5-2-1-5-1-1h-19l-22 4-17 5-4 4 1 4-3-2 2-5 10-4 21-5 13-2 14-1v-3h-9l-28 4-15 4-12 6-4 4 1 5 4 3 14 6 14 4-13-2-13-5-4-1-1 3 2 13 3 3 17 3 4 2 2 4v9l-3 5-2 1h-8l-5-5-3-6-5 1 2 21 5 19 6 11 8 10 14 11 12 7 27 9 12 3 30 2h30l16-1h9l24-6 19-7 13-9 8-7 9-10 8-13 4-15 2-14v-12l-5 1-4 8-3 2h-8l-6-6v-9l3-5 5-1-6 6-1 6 3 5 3 3 8-1 3-3 2-7 22-8 9-4 5-4 2-4-1-6-4-4h-15l-6 3-1 1v5l15-1-4 4-13 6-8 1 6-4 1-5v-10l-3-1-12 5-12 3h-5l18-5 12-5 4-3v-6l-8-6-13-5-14-3-23-3-5 1 1 2 24 3 17 4 12 5 1 5-4 4-22 6-21 4-19 2h-16l38-4 25-5 2-2-2-2-7-3-1-2 6 3 7 3 1 1 7-1 5-5-3-4-11-4-15-4-12-2h-12l-2 3v5l2 2 11 1 2-1h1l-6 4-6-3-12 1 6-5 1-11-3-6-4-3 4 2 5-1 2-3h9l9 9 5-1v-105l-1-10-5-4-17-3h-8l-5 4-7 2h-9l-9-1-7 9-7 6-10 4-4 1-23 2 5-12 10-16 7-8-4-4-15-9-10-9zm153 0-9 10-15 9-18 5-7 1-1 3 15 4 10 2 1 7 2 113 5 3 16 4 13 7 2 3 1 9 1 1 22 1 4 6-1 9-5 6-14 7-9 3-1 4h8l13-2 18-5 20-8 2-2-1-24-5-25-3-12-3-2-11 9-11 3-10-1-6-4-8-3-5-9-4-3v-10l1-3 5-5 1-4-8-6v-6l3-3 17-4 4-4 4-10 1-1v-7l-6-11-5-6v-2l3 4h2v-8l4 16 5 5 5-7 7-1v2l-5 2-3 3 1 1h22l13 4 5 3 6 7 6 5 1-1v-7l-4-10-9-15-11-12-10-8-15-10-21-11-17-8zm-88 12-2 3 2 13 5 5 10 2 5-2 2-2 1 2 5-2 3-4v-12l-2-3h-11l-6 2-1 2-3-4zm-12 6-11 4-8 7-5 6-6 11-3 7 2 2h14l12-5 10-7 7-9-2-3h-4l2-2v-3l-6 1-10 6v-1l10-7 6-3-1-4zm-120 11v3l4 2 4 6h3v-6l-4-5zm-8 4-10 6-6 8v16l7 12 10 7 5 2h6l10-6 4-5 1-4-2-2h-5l4-4 1-7-1-1h-9l-6 3 9-7 1-1v-6l-1-1h-12l-8 5 4-4 6-3 3-3-2-5zm-19 8-7 8-4 10-1 11 3 10 6 10 7 7 9 4h11l6-4 5-5-1-5-1-1-14-2-9-6-6-8-4-10v-10l3-8zm295 24-7 2-4 4-3 5-2 4v3l16 2 12 5 8 7 3 6 2 9v16h4l9-7 7-10 2-4v-13l-6-11-9-10-12-7-7-1zm-250 14-4 3v3l-3 1 2 5 12 20 2 12 1 9 5 14 8 13 8 8 5 3 13 1 7-1 4-3v-2h-13l12-2 8-4 2-4-1-11-8-16-5-4-4-5-10-6-14-6-8-4-7-7-8-14zm236 8-20 6-6 2v5l3 3 10 1-7 7-5 8-1 7 2 3h7l9-5-1 3-10 6 1 6 4 2 8-1 10-5v2l-5 2-5 4v2l3 2h11l9-5 10-9 7-10 4-8-2-9-8-11-6-5-6-3zm-246 8-5 5-8 3h-7l-8-2 1 4 8 4 9 3h12l4-8 1-6-2-3zm9 10-3 5-7 21-3 16v6l1 1h8l17-3 1-3-3-12-4-21-6-10zm272 20-3 4v3l4-1 1-5zm-117 21-2 4 6 2h6v-4l-2-2zm-79 5v4h42v-3l-7-1zm-3 7-5 5 1 4 4 1 4-5 4-2h9l5 3 4 3h9l10-4v-5zm-146 26-5 4-1 6 7 8 17 7 14 5 4 8 3 3h8l4-5v-8l-6-7-25-4-8-4-5-5 13 1 2-1-1-5-7-3zm17 12v2h4v-2zm273 0v2h3v-2zm40 16-41 10-2 2-1 6v8l3 1 9-5h2l-13 8-3 3-6 16-7 13-8 9-7 6 1 2 14 6 3 3v16l-4 4 1 10 4 8 13 1-13 1 2 10 1 1 21-1 1-3-3-5-4-2 5-2 11-32 12-35 11-37 4-18-1-4zm-274 81-15 5-2 5 5 5 20 6 9 2h5v2l-16-3-21-7-2 2v5l5 4 18 6 15 3 17 2 34 2h57l45-3 27-6 13-5 2-3v-6l-3-1-16 6-21 4-5 1v-2l12-1 29-8 4-4-1-5-5-3-9-3h-10l-15 8-15 5-26 4-7 1h-53l-34-5-15-5-17-7-1-1zm-11 30-4 9-6 24-9 30-2 12 3 2h5l3-2 7-28 7-29 3-11-1-5-3-2zm219 0-5 3 2 11 6 26 2 11 7 25 8 1 2-1v-8l-7-23-4-16-8-28zm-14 4-25 4-3 3 1 11 2 8 8 3 6 1h15l7-2v-7l-3-9-2-11-1-1zm-139 7v4h8l4-1v-2l-3-1zm23 2-1 2-18 2-6 4-1 4 2 2 21 2 13 3h6l2-4v-14l-1-1zm22 0-1 1-1 15v66l3 2h5l4-3v-26l-1-35-1-20zm13 0-1 1v17l1 1h10l3-2 3-14-2-3zm-58 17-9 6-8 7-1 5 2 2-4 2 1 4 4 3 17 3h12l21-3 4-2-1-4h-8l-10 2h-22l26-1 13-3 3-2v-12l-6-2-20-5zm176 0-6 2-2 4 5 18 2 1h13v2h-9l-4 2 1 3 9 1 18-4 3-4v-3h-2l1-5-7-8-8-6-6-3zm-117 7-1 5 2 1 4-3-1-3zm63 1-1 4 8 4 19 6h5l2-2-1-9-2-3zm-61 6-3 2 1 4 4-1v-4zm62 1-2 3 6 5 17 5 12 2-1-5-9-3-16-5z"/><path transform="translate(563,348)" d="m0 0h8l9 4 8 7 2 6-2 1-9-3-7-1h-14l-2-2 1-7 4-4zm1 3-5 5v2l25 2-5-5-4-3-4-1z"/><path transform="translate(501,371)" d="m0 0 4 2 3 4 2 6v10l-4 1-10-4-9-1-9 2v-4l5-2 12-1-5-3-12-1v-3l2-1h11l12 6 3 3-1-7z"/><path transform="translate(560,371)" d="m0 0h2l-2 5-3 5-2 6 9-7 9-4h10l2 1-1 3-13 2-5 2v2l3-1h12l6 3-1 3-5-1h-11l-11 3-4 1-2-2v-9l5-10z"/><path transform="translate(524,391)" d="m0 0h16v2h-11l-6 3-1 1v7l4 3 13 2-1 3h-11l-8-6-1-2v-7l4-5z"/><path transform="translate(555,423)" d="m0 0h2l-2 4-8 4-7 2h-17l-13-5-2-3 9 2 5 1h17l14-4z"/><path transform="translate(521,456)" d="m0 0 14 1 7-1v4l-4 1h-12l-5-3z"/><path transform="translate(560,510)" d="m0 0h6l7 6v7l-4 5-2 1h-7l-5-3-2-5 1-5 4-5zm1 3-4 4 1 7 3 2 7-1 2-3-1-6-4-3z"/><path transform="translate(558,558)" d="m0 0h11l4 5v6l-4 6h-11l-5-6v-5zm2 2-3 4v5l5 4 6-2 2-3-1-5-2-3z"/><path transform="translate(539,559)" d="m0 0h2l1 6-1 4h-8l-2-4h3 5z"/><path transform="translate(509,577)" d="m0 0h9l5 4 2 3v9l-4 5-8 1-6-2-3-3-1-9 4-6zm0 3-3 3v9l5 5h6l5-5v-8l-4-4z"/><path transform="translate(447,581)" d="m0 0 4 2 9 8 2 5h2l3 7-4-1-9-12-7-7z"/><path transform="translate(540,611)" d="m0 0 6 2 4 6v2h-4l-4-5-3-2z"/><path transform="translate(457,640)" d="m0 0h9l4 1h7l5 5-6-1h-21l-3 1-7-1-5 3-1-2 5-4h11z"/><path transform="translate(573,655)" d="m0 0h8v1l-25 4-33 3h-73l-33-3-20-3v-1h18l29 3 20 1h41l36-2 17-2z"/><path transform="translate(370,672)" d="m0 0h6l4 4-1 8-2 2h-7l-2-3v-9zm1 3-1 1v6l5 1 2-3-1-5z"/><path transform="translate(596,672)" d="m0 0h7l3 5-2 7-2 2-6-1-2-2-1-6zm0 3v7l5 1 2-3-1-4-1-1z"/><path transform="translate(374,706)" d="m0 0 3 1 3 7 5 10 8 10 8 9 8 6v2l-5-1-9-6-8-8-7-11-6-13z"/><path transform="translate(404,727)" d="m0 0 4 4 8 10 9 10 7 6-2 2-10-8-6-5-5-6-3-5-3-4z"/><path transform="translate(430,782)" d="m0 0h117v1l-24 2h-70l-23-2z"/></svg>
