<?xml version="1.0" encoding="UTF-8"?>
<svg version="1.1" viewBox="0 0 1024 1024" xmlns="http://www.w3.org/2000/svg"><path transform="translate(620,196)" d="m0 0 6 1 8 7 6 9 8-2h7l7 2 2 2-1 5-7 3 1 3 14 7 12 12 6 10 7 16 3 14v35l-3 14-1 2-1 21-4 10-9 10-4 3-5 1-6 16-4 5-9 11-1 5 8 7 7 8 12 17 7 11 10 19 5 10 6 15 11 30 8 26 9 36 8 45 5 31v16l-8 6-18 7-13 4-1 33-2 27-3 9-1 24-3 5-6 5-8 4-16 4-17 4-7 1h-23l-12-3-10-5-1-3h-33l-12-4-6-4-3-3-1-11 3-8 5-5 9-6 11-5h3l-2-43-1-16-14-5-5-4 2-18 3-20 2-33v-36l-1-6-28 7h-10l-5-5-14 2-1 2 6 1 5 4 6 11v14l10 4 13 5 11 6 4 5v26l-7 7-10 5-10 3-1 126-5 4-10 1-6-2-4-3-1-118-33 3-30 3-19 2v125l-5 4-6 2-11-1-7-6v-125l-36-2-26-3-22-2-1 117-6 5-3 1h-7l-5-2-4-4-1-46-1-78-16-7-8-5-4-5v-23l4-6 6-5 19-8 9-2 33-5-1-10v-25l2-13 4-14 11-21 2-5-8-6-7-6-8-14-3-9-2-13-9-2-7-6-4-8v-14l4-10 6-7 8-4h13l7 3 4-1 14-8 13-5 4-1 25-1 3-6 8-6 9-1 10 4 7 7 4 8v12l-3 7 7 14 3 14v23l-4 11-9 12-1 3 13-3h10l16 1 9-4 22-6 9-2 16-8 9-7 9-12-1-4-9-5-10-9-10-12-5-9-10-19-3-9v-20l-6-13-8-16-10-7-11-11-9-17-3-12v-22l4-12 6-10 9-9 3-2 1-3-4-1-4-4-1-7 3-2h17l10-3 11-8 8-5 5-5 24-13 26-8h35l13 4 13 6-4-8 2-5zm3 6-1 2 5 11 1 4-11-6-14-6-9-2h-30l-18 4-15 6-11 6-33 22-10 4-13 1-1 2 4 4 6 2 1 3-11 8-7 7v2h-2l-6 12-2 10 1 16 3 12 4 8 12 13 6 6h3l-2-19-1-8-3-1-3 1 3-3 16-5 10-3 11-6 10-9 1 2-9 11-5 5 1 4 10-1 15-5 15-9 13-12 5-4-7 14-4 5v4l12-3 12-6 13-10 10-9 6-7 2-1 1 14 3 13 6 10 9 10 10 9 7 4 5-1 6-10 6-5 6-2h10l8 3 6 7h2l3-11 1-13v-12l-3-16-5-16-4-8-8-10-10-10-8-4-11-2 2-5 6-5v-1h-9l-8 2-6-11-6-6zm-23 88-8 8-15 9-15 7-8 2-7-1-2-3-6 2-17 8-9 2h-14l-2-5-7 1-13 3-1 1v15l5 19 4 13 8 15 1 9v17l6 12 9 9 12 6 11 4 11 2h35l20-4 7-3 9-3 9-5 8-8 13-22 7-16 2-5v-5l-4-4-1-7 2-4 5-1-5 5v6l4 1 1-1v-5l7 2 4 2v-5l-4-4-4-1 6 1 3 5v7l-1 5 3 1 10-4 6-6 4-10v-18l-4-8-8-7-3-1h-11l-9 8-5 8-1 4-7-2-15-9-9-9-6-10-5-11-3-11zm57 78-2 5-2 12-13 26-7 10-8 11-11 12-8 8-19 12-13 5-7 2h-11l-13-4-14-8-5-5-7-9-6-8-5-2 1 5 8 11 10 11 15 10 15 4 1 3-3 16-6 19v3l4-1 5-11 5-19 3-9 16-4 15-7 11-8 5-5 11-10 5-5 10-13 7-10 6-12 5-8 4-13 2-6v-8zm6 13-8 16v3h2l7-11 2-7zm-258 27-8 4-3 4 1 4h8l2-2h9l5 5 1 2v11l4 1 2-2v-15l-4-5-6-5zm2 11-2 1v4l7 4 3 3 3-1v-6l-3-4zm236 2-1 3-4 2-9 12-9 10-5 5-12 10-5 16v9l8-6 6-6-1-10 19-7 5-3 8-21 2-6v-8zm-280 1-13 4-15 12-6-1-6-4h-12l-8 6-5 6-2 6v11l5 8 7 5 12 3-3 5 2 12 7 14 9 10 15 9 13 2h16l18-2 17-9 10-9 5-8 4-9 1-6v-17l-2-10-10-19-9-9-10-6-10-4h-17l-1 3-6-2-1-1zm286 2-3 5-4 14-4 11-11 12-18 18-11 9-8 7-16 10-14 7-17 6-15 5-13 4-8 4-1 1v13l5 16 8 16 5 5 15-3 21-6 27-9 15-7 9-6 20-14 15-14 16-16 8-10-2 6-4 5 1 6-7 1-8 9-6 5-5 6-10 8-13 9-22 12-1 1v10l4 31 1 12v82l2 2 12 2 12 1h36l24-3 21-5 20-6 14-6 4-2-2-25-4-27-1-9-10-47-3-13-9-28-3-10-8-20-4-11-8-17-5-10-11-19-8-10-7-9-9-9zm-144 10m100 8-23 6-7 1-1 4 2 5 5 3h8l9-6 10-9v-4zm-85 1v3l5 5 7 8 11 6 5-2 6-9-1-4-2-1-15-2zm42 7-3 4v8l8 6 5-1 1-3-2-13-1-1zm-9 13v3zm67 2-7 4v2l4 1 5-6zm-25 3-7 4-9 4 1 12 4 9 5-1 3-4 6-20-1-4zm-51 8-8 9-7 8-8 7-8 5-28 9-16 4v7l3 10 1 1h19l9 1 6-5 13-4 17-6 4-2 8-16 3-12 1-14zm28 1-7 3-2 6 10 16 4 3 4-4-1-6-4-14-2-4zm-10 17-2 6 1 9 1 2 6-1 5-3-3-7-5-6zm-6 18m-121 7-2 1 1 5 4 3 16-3-3 2-10 3-4 3 2 4 12 2h5l1 2h7l5-4-3-12-3-3-11-3zm-21 3-4 3 1 5 1 2-6-4-12 2-8 3-3 4-3 16v16l3 15 6 15 5 8 3 3 9 2 6-1 6-8 6-4 14-3 1-1v-9h3v7l2 5 6 3 6 7 2 3h2l2-6v-22l-2-5-5-4-3-5-9 3-4 2v6h-2l-1-7-9-7-3-6v-7l3 10 7 6 3 1h8l3-1v-5l-4-1h-8l-4-4v-10l4-4 9 1 5 1v-4l-3-3-3-1h-10l-7 5-3 6-2-5-4-5h2l1 2 7-1 3-3-1-5-5-5-5-4zm17 6v2h2v-2zm-83 2-8 9-7 12-3 10-3 8v7h2l5-17 8-16 3-3v-2l5-2 3-2-1-3zm19 4 1 7v43l7 22 1 1 13 1 1-3-7-15-2-11-1-3v-35l1-2-1-5zm-11 2-8 5-8 10-5 12-3 12v26l3 10 6 8 5 4 3 1h12l6-3 4-5v-12l-4-19-1-8v-35l-4-5zm120 3-9 2-3 3 1 4 2 1 9-3-3 3-16 6-6 4 1 5 1 1h13v2l-7 1-1 5 3 2 9 1-3 2 2 4 9 1v2l-3 1 1 2h14l10-3 9-7 2-4-4-10-2-10-3-12-2-2-5-1zm-39 8-4 4v6l4 4 5 1 3-2-1-4-2-1-1-7zm8 3v4h8l5-2v-2zm142 22-19 7-3 2 1 15 3 2 6 1v46l-3 7-5 5-4 5-4 24v9l4 3 11 4 10 2 9 2 3-5 1-14v-49l-3-35-3-29zm-262 10v22l3 15 7 12 6 7 4 2 1-3v-10l-4-4-6-5-5-9-3-13-1-14zm141 4v10l5 3 7 1 5-6v-2l-10-3-3-3zm29 7-12 6-7 10-2 5 1-9-4-3-5 2-4 12v30l7 3 7 2h20l8-5 5-8 3-6 1-5v-19l-4-10-4-3-6-2zm-66 7-8 6-7 8-3 8v4h-2l1-9-4-3-15-3h-14l-3 4-3 7-4 3-11 3-7 1-1 1 1 9 3 5 7 6 13 5 43 8h26l9-4 5-6 4-11v-18l-5-15h-2l-2-4-4-4-3-1zm138 0-1 1-2 38-1 14 4 2 4-5 3-9 1-8v-25l-1-7-1-1zm-256 21-21 4-27 9-8 7-1 3 2 5 9 6 16 6 20 5 53 6 13 1h72l26-2 21-3 19-2 13-3 25-8 5-3 5-5-2-7-7-6-9-3-14-5-4 1-8 19-8 7-4 1h-18l-19-2-9 10-7 3h-35l-17-3-32-8-18-11-11-11-5-11zm239 32-14 7-16 5-25 4-28 4-28 2h-72l-25-2-24-3-16-3-13-2-12-3-17-7-5-1-1 1v8l10 9 13 5 15 4 22 5 37 4 30 1h43l31-1 32-3 23-5 17-4 12-4 10-6 4-5v-9zm-31 29-12 4-1 1v117l5 3h9l3-2 1-7v-47l-1-68zm-233 1-1 1v121l4 2h9l3-2v-108l-1-11-5-2zm111 12-1 1-1 42v81l5 4 2 1h8l5-3v-97l-1-29zm182 13-1 1v21l2 30 5 3 13 4 4 1h21l5-3-1-31-1-15-2-5-1-1-20-2-16-3zm120-1-27 5-41 2-1 1 1 28 1 22 3 5 15 3h32l17-3 2-3 1-11v-11l1-17v-20zm-121 61-12 5-11 7-5 6v6l7 3 9 2h31l4-4 4-6 10-7 10-6 1-3-34-2-4-1zm55 6-17 8-8 7-5 6-1 6 6 4 10 2h27l21-3 13-4 18-8 1-1v-11l-3-5-16 2h-26l-16-3zm-83 21 1 4 4 4 14 3h25l4-2-2-4-27-1zm144 0-16 7-22 5-14 2h-20l-15-3-3-1-1 4 6 5 7 2h37l20-4 17-7 7-6-1-4z"/><path transform="translate(567,324)" d="m0 0h12l7 3 7 6-1 4-7-2h-18l-9 4-5-1-1-3 6-7z"/><path transform="translate(667,334)" d="m0 0h7l2 4-8 1-6 8-3 6-3-1 2-9 4-6z"/><path transform="translate(496,338)" d="m0 0h8l5 4-1 5-11 1-7 4-3 4-4-2 1-5 4-6z"/><path transform="translate(567,352)" d="m0 0 7 1 5 5 1 3v8l-4 5h-6l-6-6-1-9 1-4z"/><path transform="translate(502,364)" d="m0 0h5l6 7 1 9-5 6-5-1-5-5-2-3v-7l3-5z"/><path transform="translate(598,369)" d="m0 0h9l1 2-10 3-8 5-4 3h-2l2-5 7-6z"/><path transform="translate(530,373)" d="m0 0 2 1v8l-4 6v5l8 2-1 3h-7l-5-3-2-4 1-5 5-4z"/><path transform="translate(499,391)" d="m0 0h8l5 5-2 1-7-3h-5l-1-2z"/><path transform="translate(573,397)" d="m0 0 3 1-4 8-8 8-11 5-4 1h-14l-4-2 1-3h15l10-3 8-6 5-5z"/><path transform="translate(564,423)" d="m0 0h3l-1 3-6 3h-8v-3l10-2z"/><path transform="translate(380,429)" d="m0 0 4 2 7 9-1 4-5-4-6-10z"/><path transform="translate(311,443)" d="m0 0h14l5 4-1 7-6 16-5 1-5-2-7-7-1-2v-9zm4 3-5 5-1 7 3 6 3 2h5l3-6 3-9-1-4-1-1z"/><path transform="translate(647,451)" d="m0 0h7l10 4 5 4 2 5 3 2 3 9-1 4h-2l-4-9-5-8-9-6-9-2z"/><path transform="translate(410,454)" d="m0 0h6l3 3 1 6-2 3v3l8 5 4 11v9l-4 10-5 7-12 7-6 1h-16l-7-3-7-6-4-10v-7l4-9 12-12 10-5v-7h4l2 5h8l-1-8zm-11 16-10 3-11 10-4 8-1 9 4 9 6 5 8 3h9l13-5 9-8 4-9v-12l-5-8-4-3h-3l-1 9-4 7 1 8 5 1 5-5-5 7-7 1-3 3h-10l-4-4 5 3h6l4-3v-8l-3-1v-2l-11-5v-5l8-5 4-1v-2zm2 5-2 3 3 1 6-2v-2z"/><path transform="translate(369,465)" d="m0 0 5 1 4 4v8l-2 2h-6l-3-2-1-9z"/><path transform="translate(687,590)" d="m0 0h11l2 2 4 24 1 9v13l-3 10-4 6-7 6-14 5h-22l-10-4-7-8-6-13-1-11-2-10-1-10v-10l7-2zm2 3-24 4-29 3-4 2v19l2 13 3 10 7 10 5 4 6 3h21l15-5 6-5 4-10 1-6-1-18-4-22-2-2z"/><path transform="translate(605,591)" d="m0 0 7 1 3 3 1 6-4 6h-8l-3-3v-9zm2 3-4 5 3 5 5-1 1-1v-7z"/><path transform="translate(496,601)" d="m0 0h9l5 7v20l-3 11-7 6h-7l-4-2-3-6-1-5v-8l2-8 4-9zm2 3-6 8-3 11v10l4 8 4 2 6-5 4-10v-19l-3-5z"/><path transform="translate(436,607)" d="m0 0h10l7 8 2 6 1 7v10l-2 10-3 6-2 2h-11l-5-4-5-10-1-5v-13l4-12zm3 3-6 7-2 6v14l3 9 5 7 6 1 5-5 3-10v-12l-4-13-4-4z"/><path transform="translate(608,655)" d="m0 0 9 1 3 3v6l-4 5h-9l-3-4 1-8zm3 2-3 3v6l1 1h7l1-5-5-5z"/></svg>
