<?xml version="1.0" encoding="UTF-8"?>
<svg version="1.1" viewBox="0 0 1024 1024" xmlns="http://www.w3.org/2000/svg"><path transform="translate(629,169)" d="m0 0 6 1 7 5 7 10 2 3 12-3 9 1 5 3v5l-10 4v2l16 8 10 9 8 10 9 19 3 10 2 14v29l-3 19-2 4v20l-4 11-6 8-7 6-7 2-8 19h-2l-2 5-10 13-2 3 10 9 9 10 10 14 7 10 15 28 6 15 4 8 4 12 5 12 4 12 9 29 5 21 6 27 3 14 1 9 7 43 1 10v13l-7 5-21 8-15 5v25l-2 37-2 10-2 2v24l-3 8-6 5-11 5-31 8-15 2h-18l-13-2-12-6-5-4h-31l-13-3-8-4-5-6-1-9 3-9 5-6 11-7 12-6h3l-3-58v-7l-7-1-12-6-2-3 6-43 1-21 1-20v-21l-1-18-34 9h-8l-6-7-13 3-4 1v2l7 1 6 5 5 10 1 3v15l7 2 15 5 15 8 4 4 1 3v25l-6 7-8 5-14 5h-3v137l-4 4-7 2-9-1-6-4-1-2v-128l-16 2-33 4-42 3 1 76v60l-4 4-9 3-10-1-8-6-1-4 1-109 1-24h-12l-35-2-33-4-14-2v129l-5 4-7 2-9-1-6-5-1-135-12-5-14-7-5-6-1-3v-22l3-6 8-6 14-6 9-3 16-3 27-5 1-3-2-10v-22l4-20 3-11 8-16 6-10 2-3-10-7-6-5-7-10-5-10-4-20-9-3-8-6-4-7-1-5v-10l3-10 6-9 9-5 3-1h11l10 4 4-1 10-7 8-4 13-4 6-1h23l4-8 9-6 8-1 11 4 8 7 5 10v11l-4 8 1 4 5 8 3 10 3 13v15l-3 13-6 11-9 11 20-4 13 1 12 1 1-2 27-7 15-4 17-8 10-8 11-14v-3l-14-9-8-7-11-14-11-19-4-11-5-10-3-12-2-18-8-22-10-7-8-7-8-9-9-17-2-9-1-6v-19l3-12 7-12 7-8 8-6 1-2-5-2-5-6-1-6 5-2 5 1h9l13-4 16-11 18-13 16-8 12-5 17-5 5-1h33l15 4 14 7 2-1-5-9 2-4zm4 6-1 2 5 10 1 8-9-6-10-5-16-5-5-1h-27l-15 3-18 6-10 5-15 9-17 12-8 6-12 5-5 1h-12l1 4 9 4 4 3-11 7-10 9-9 15-3 15 1 14 5 16 5 9 11 12 8 7 2-1-2-14-1-15-2-1-7 2 5-5 11-4 14-3 14-7 9-7 6-6-2 6-12 14-3 3v3h7l12-3 13-5 11-7 10-8 12-12-2 6-5 10-7 9 1 2 9-2 15-7 9-6 14-11 8-8 4-6h1l1 15 4 14 6 12 12 13 11 9 6 3h4l6-12 7-6 9-3h7l10 4 8 9h2l3-15 1-21-2-16-3-11-6-16-4-6-7-9-8-8-7-5-17-6 2-4 8-6v-1h-9l-6 3-4 1-5-11-7-8zm-24 95-11 10-14 9-16 8-12 3-7-1-1-5-16 8-13 5-8 2h-13l-2-5-1-3-12 4-9 2-1 1v14l3 15 6 18 5 16 3 19 6 18 4 6 10 11 14 8 11 4 14 2h32l20-3 17-6 16-8 8-10 12-20 8-17 3-9v-4l-5-4-1-7 2-5 4-2h10l6 4 1 9-5 7 5 1 9-3 8-7 4-9 1-3v-17l-4-11-7-6-5-2h-11l-8 6-4 5-3 5-2 6-5-1-16-9-10-9-7-9-8-15-4-16zm60 75-5 3-2 2v6l1 2h4l1-7h6l4 6h1v-7l-5-4zm1 9-1 1-3 17-5 12-9 17-11 17-9 11-9 10-10 9-15 10-13 6-15 4h-9l-12-3-16-8-12-12-8-11-5-6-5-3v3h2l2 6 9 12 9 10 14 10 10 5 12 2-3 18-9 27 5-1 6-13 4-16 2-13 3-2 13-2 18-8 9-6 14-12 12-12 11-14 9-13 12-22 6-17 1-5v-7zm6 15-6 13-3 7 1 4 10-17 1-6zm-10 24m-1 1 1 2zm-268 5-9 3-5 7 1 3 7 1 5-4h8l6 3 3 6-1 11 4 2 3-5v-11l-5-8-7-6zm2 12-4 2 1 3 5 3h2l1 3 5 3 1-1v-8l-4-4zm256 2-8 9-9 12-12 13-11 9-4 3-6 22-1 6 5-3 10-9 2-2-2-10 3-2 9-3 14-6 11-30 1-9zm-304 1-16 6-14 10-3 4-10-7-3-1h-10l-6 3-7 7v2h-2l-3 9v9l4 9 7 6 12 3h4v3l-4 1 2 14 8 17 9 10 11 7 6 3 18 3h10l22-3 17-8 9-7 7-8 6-12 2-11v-14l-2-12-4-9-6-11-9-10-11-7-10-5-6-1h-17l3 5-4-1-7-4zm309 2-10 32-4 5-29 29-8 7-9 8-13 9-16 9-20 8-32 10-13 5v15l5 17 8 16 5 7 12-2 24-6 18-6 19-7 16-8 9-6 17-12 15-13 14-14 7-8 9-10 3-3-4 8-7 9 1 3 8-1-5 2-9 2-23 23-10 8-12 9-18 10-8 4v8l5 41 2 34v34l-1 31 7 2 26 2h30l23-2 23-5 28-8 20-9-2-23-3-25-6-32-7-35-8-28-5-17-11-31-8-19-11-23-5-9-11-18-13-17-10-10zm-141 21 4 6 11 11 12 7 4-1 4-7v-2h2l2-3v-3l-18-3-14-4zm96-1-23 6-12 2-1 4 2 5 8 5 6-1 10-7 10-8 2-6zm-49 9-3 5v8l9 6 6-1-2-17-1-1zm-10 13-2 5h3l1-5zm27 2m47 1-8 4 1 4 4-1 5-5v-2zm-69 1v2l4-1zm42 2-8 5-10 4 1 12 4 11 2 1 6-5 7-24v-4zm-56 9-6 7-8 10-9 8-11 7-24 8-15 4-8 1-2 4 5 15 3 1 14-1 14 2 5-5 10-4 12-3 16-6 8-16 5-19 1-10-8-3zm31 1-9 3-1 7 11 18 2 2 4-1 2-4-7-24zm-12 17-2 10 2 10 2 1 10-5-1-4-8-11zm-6 20v3h2v-3zm-131 9-4 2 2 4 4 3 7-1 13-3-1 2-18 6-2 4 1 1 10 2 1 1 9-1 1 4h6l7-5-4-15-16-4zm-23 3-6 4 2 4 5 6-5-3-6-5-22 6-3 8-2 17v10l2 15 5 16 6 12 5 5 12 3 4-1 6-9 10-6 13-2 1-1v-11h2l2 13 9 5 6 8 2 3h2l2-9v-20l-3-8-5-3-3-6-6 2-8 3v7l-2 1-2-9-5-3-7-6-2-6v-13l-7-9h3l4 5 3-1 3-3 4-3-2-4-7-7-8-5zm18 6 1 3h2l-1-3zm-91 3-7 8-8 15-6 16-1 5v8h1l5-19 8-17 7-8 7-4v-2zm20 4 2 5 1 2v46l7 25 1 1 16 1-8-17-3-12-2-18 1-21 1-8v-4zm-10 2-8 4-7 9v2h-2l-4 9-5 16-1 6v23l4 13 4 6 8 7 5 1h10l7-3 4-5 1-2v-10l-3-12-3-13-1-16 1-12v-16l-4-6zm85 3-6 4-4 5-2 5 2 9 4 6 6 4 3 1h7l5-2-1-5-2-1-2 1h-8l-5-4-1-3v-8l2-4 5-2 7 1 3 2h5v-3l-6-5-3-1zm47 0-11 3-4 3 1 5 13-3-1 2-20 8-8 4 2 5 2 2h14l-1 2-10 2 1 4 4 2 12 1-3 2-5 1 4 4 9 1h2v2l-4 1v2l2 1h13l11-4 11-7 2-4-4-9-5-21-2-7-9-2zm-45 9-4 4v7l4 4 6 1 4-2v-2l-5-3v-7l1-2zm9 3-2 4 1 1h9l7-3v-2zm156 24-21 8-4 2 1 16 3 2 7 1 1 4v40l-3 12-4 6-7 5-2 10-3 22v7l10 4 22 6 6 1 2-7 1-24v-37l-2-32-3-27-1-15-2-4zm-285 7-1 9v17l3 17 6 12 7 9 6 4v-16l-9-6-7-11-3-12-1-9v-14zm202 2m-50 6v12l7 3 6 1 4-5 3-3-1-1-10-2-6-5zm33 8-9 3-6 4-7 10-2 7-2 1 3-12-5-3-5 1-2 9-2 6v33l12 3 5 1h19l8-4 4-5 5-10 2-9v-18l-3-9-4-5-9-3zm-72 8-8 4-9 10-4 11-1 5h-1v-7l1-5-2-2-13-3-9-1h-13l-4 11-5 4-8 3-12 1-1 1v7l3 7 9 8 10 4 33 7 21 3h24l10-4 5-5 5-14v-19l-5-16-7-8-6-2zm148 0-1 35-2 24 2 1 5-4 4-13 1-11v-20l-1-11-2-1zm-270 22-25 4-25 7-10 4-9 8 1 7 8 6 18 7 19 5 35 5 31 3 15 1h70l29-2 38-5 19-3 23-7 10-4 3-2v-2l3-1 2-3-1-6-8-7-23-8-6-1-3 8-5 12-7 8-4 2-7 1h-11l-17-2-9-1-1 4h-2l-5 7-7 3-5 1h-25l-16-1-29-6-20-6-13-8-9-7-9-10-5-11zm253 35-15 8-16 5-39 7-26 3-11 1-38 1h-28l-39-1-38-4-28-5-18-4-18-7-4-3h-4v11l8 7 10 5 20 6 29 6 30 3 26 2 25 1h24l30-1 49-4 26-5 19-5 10-3 14-7 4-5v-12zm-289 33v132l5 3h8l5-3v-108l-1-21-13-3zm257-1-15 4-1 1v128l5 3h8l5-3 1-11-1-121zm-135 14-1 1-1 70v64l5 4 3 1h7l6-3 1-1v-87l-1-49zm197 14v16l2 42 15 5 12 2h18l7-2-1-27-1-20-1-8-3-2-24-3-16-3zm134-1-16 3-27 4-34 1-1 1 1 24 2 31 2 4 8 2 11 2h30l21-3 2-3 2-31 1-21v-13zm-133 66-7 3-16 8-7 6-3 6 1 3 9 4 11 2h30l4-2 5-9 10-7 14-8 1-2-30-1-16-3zm59 7-17 8-11 9-3 3v2h-2l-1 7 4 3 9 3 7 1h24l30-5 17-6 13-7v-11l-2-6-22 3h-21l-17-3zm-91 23-1 2 5 5 13 4 7 1h23l5-2-1-5h-26l-14-2zm158 0-16 7-24 6-22 3h-14l-14-2-10-3v4l4 4 15 4h29l27-5 17-6 8-6 2-2v-4z"/><path transform="translate(568,308)" d="m0 0 11 2 5 3 3 4v2l-5-1-8-2h-12l-1-5 2-2z"/><path transform="translate(681,319)" d="m0 0h7l3 4h-9l-6 7-4 9h-3l2-10 4-6z"/><path transform="translate(494,322)" d="m0 0h7l3 2-1 4-11 4-7 6-3-1 3-8 7-6z"/><path transform="translate(573,338)" d="m0 0 5 1 5 4 2 5v7l-4 5-6 1-6-5-2-5 1-9z"/><path transform="translate(501,351)" d="m0 0h5l7 8v9l-5 5-5-1-5-5-2-4 1-8z"/><path transform="translate(531,361)" d="m0 0 3 1v7l-3 5-3 3v6l2 1 10 1v2l-8 2-6-3-3-3-1-5 2-4 4-2 2-4z"/><path transform="translate(590,380)" d="m0 0 5 1 4 8v14l-4 10-3 1-1 3-6 5-9 3h-14l-11-4-9-7-4-5-1-7 18-3 13-5 12-6zm0 4-7 6-11 7-14 5-16 3-1 3 5 6 12 6 8 1 8-14 8-6 8-4 5-2-1-9-1-2zm3 15-11 4-8 8-3 6 1 4 9-2 8-5 5-9 1-5z"/><path transform="translate(367,422)" d="m0 0h3l5 5 5 7v4l-4-2-5-8v-2l-4-1z"/><path transform="translate(295,437)" d="m0 0h13l6 5-1 5-4 11-3 9-8-1-6-4-4-5-1-9 4-8zm3 3-5 5-2 5 1 6 4 5 7 2 3-7 5-13-5-3z"/><path transform="translate(658,446)" d="m0 0h7l11 4 7 6 2 5h2l4 13-2 4-3-9-5-10-7-6-7-3-8-1z"/><path transform="translate(401,449)" d="m0 0h7l3 4 1 5-4 6 9 6 5 9 1 11-4 12-7 9-10 6-11 3h-12l-9-3-7-5-5-9-1-10 3-9 7-9 9-7 10-5-1-9 4 1 1 7 11-1-2-5 1-6zm-10 17-12 4-8 6-6 7-3 6-1 9 3 9 8 7 9 3h8l13-4 9-7 4-5 3-8v-12l-4-8-7-5h-2v2h2l-3 10-4 6 1 10h5l4-6 3-1-5 8-3 2h-6l-4 4h-9l-5-3h-2l1-4 5 4 2 1h6l4-3v-9l-5-3-10-4-1-1v-6l8-5 7-2v-2zm0 6-3 3 1 1 9-1 2-3z"/><path transform="translate(357,461)" d="m0 0 5 1 4 5v7l-2 3h-7l-3-3-1-8z"/><path transform="translate(614,598)" d="m0 0 7 1 3 4 1 5-3 6-2 1h-7l-4-4v-8zm1 3-4 4 1 5 2 2 6-1 2-4-2-5z"/><path transform="translate(708,597)" d="m0 0h7l5 25 2 19-1 12-6 12-8 7-13 5-5 1h-20l-11-4-7-6-7-14-5-30-1-17 5-2 46-6zm-1 3-31 5-34 4 1 17 1 13 4 16 6 10 7 6 8 3h20l16-5 7-5 4-8 2-11-1-16-4-27-2-2z"/><path transform="translate(496,609)" d="m0 0h7l5 4 2 6v17l-4 14-4 5-4 2-9-1-4-6-2-9 1-12 5-13 4-5zm1 3-7 10-3 13v8l3 8 3 3 5-1 5-6 4-11v-18l-3-5-1-1z"/><path transform="translate(432,615)" d="m0 0h7l7 6 3 6 2 15-1 13-3 9-4 4-2 1h-8l-6-4-5-9-2-11v-10l4-13 4-5zm0 4-6 7-2 9v11l2 10 5 8 6 3 5-3 3-4 3-12v-8l-3-14-4-6-1-1z"/><path transform="translate(618,667)" d="m0 0 7 1 4 4v7l-5 5h-7l-5-6 1-6zm2 3-4 3v6l2 2h6l2-3-1-5z"/></svg>
