<?xml version="1.0" encoding="UTF-8"?>
<svg version="1.1" viewBox="0 0 1024 1024" xmlns="http://www.w3.org/2000/svg"><path transform="translate(412,254)" d="m0 0h21l14 7 13 7 17 11 9 10 9 14 7 16 3 9 15 3 8 4 3 4 1 6-4 13-9 14-9 10 2 4 4 9v7l-3 9-5 6-2 1-4 14-7 11-4 4 2 4 2 3v6l12 6 14 10 5 5h2l2-8 5-4 9-5h8l6 5 4-2 4-5 8-7 7-8 8-9 8-11 9-14 6-12 10-22 6-9 5-4 2-1h7l5 4 2 7 1 9 2 3 5-1 6-5 9-14 6-10 6-12 14-21 8-10 9-10 10-8 15-9 19-7 6-1h19l9 2 14 7 7 7 3 6 2 7v9l-3 12-9 13-17 17-3 5v5l2 1 10-1 12-3 15-5 14-2 13 1 11 3 10 6 7 7 5 9 1 4v12l-2 8-1 2h-2l-2 4-4 5-12 8-16 6-8 2-41 5-13 4-6 4-2 3v6l5 6 10 6 9 5 11 9 6 7 4 9 1 5v10l-4 11-8 9-10 5-7 1-17-1-12-6-11-7-13-9-13-4-9 1-4 4-1 17-3 6-4 3-4 1h-7l-9-3-12-7-10-7-12-7-10-4-25-5-21-2h-22l-3 10-3 3-6 2v20l-5 10-7 7-11 6-8 2 8 26 4 18v11l-8 5-9 3h-3l3 34 1 14 4 6v16l-5 6v8l15 5 7 7 3 7 1 6v18l-4 3-12 3-8 1h-32l-9-2-4-3-3 3-10-1-10-3-2-2-4-46-5-3-2-2-1-9v-11l2-2v-10l-2-17-6 24v6l2 4-1 12-3 9-5 5-1 9 6 5 5 10 2 9v11l-2 5-6 4-13 3-10 1h-12l-15-2-12-3-3-2-9-2-6-4-2-2v-34l1-16-5-6v-18l4-6 2-2 5-36-10-2-9 15-7 11-10 16-10 14-12 14-10 9-13 9-17 9-18 6-18 3-9 1h-37l-32-3-13-3v-4l25 4 20 2h35l22-3 16-5 13-5 12-7 11-8 13-12 13-16 7-11h2l2-5 12-20 12-18 10-13 11-12 14-14-14-1-17-5-7-1-12 14-14 20-10 15-10 17-7 10-12 16-13 13-14 9-12 6-10 3-14 2h-42l-24-2-18-4 1-4 23 4 19 2h40l19-4 19-8 13-11 6-5 7-8 4-6h2l2-4 12-20 11-17 9-14 11-15 7-6 1-8-12-8-8-9-3-5-3-10v-16l4-15 9-17 8-11 15-16 8-7 4-3h-21l-14-3-12-6-6-7-3-7v-14l6-15 2-4h2l2-6 13-17 6-6v-34l3-20 6-16 8-14 9-11 11-10 10-6h2l2-6 9-8 6-3zm4 3-13 4-6 5 3 1 9-1 8 3 9 8 4-1 10-9 2-2v-3l-9-4-5-1zm28 9-13 13-9 7-5 5-1 6 4 11 5 9 9 17 3 1 36-5 3-4 2-21v-17l-5-7-8-5-11-6-6-4zm-40 2-11 6 2 4 6 8 8 15 5 15 5 22 3 1 9-3-2-5-8-16-6-10-1-11 2-6 8-7-2-4-8-7-5-2zm-16 8-6 7-3 9-4 13-2 12v19l2 14 2 6 6-2 16-8 11-3 6-3 1-4-4-17-11-28-9-14zm376 8-16 4-13 7-11 8-12 11-11 13-4 6-7 10-12 22-11 18-7 7-3 1h-7l-3-1-2-15-2-5-2-2-6 1-7 7-5 8-7 18-12 22-1 3h-2l-8 11-11 13-10 10-6 7-8 7-5 5v8l4 10 6 8 2 1 45 2 21 3 17 5 12 5 16 10 10 7 11 4h8l6-4 2-9v-9l2-6 4-3 9-1 10 3 14 7 18 12 12 5 5 1h7l11-3 12-11 3-9v-11l-4-11-9-10-17-11-11-7-4-5-1-2 1-9 8-7 16-5 24-2 17-3 16-5 9-4 9-6 6-7 4-10v-10l-4-9-6-8-10-6-17-4h-9l-16 3-12 3-11 4-8 1-6-2-2-2v-7l6-8 7-8 8-7 6-8 5-11 1-4v-8l-3-9-7-8-5-4-11-4-5-1zm-387 1-8 7-3 4v2l-3 1-8 14-6 15-3 13-1 8v28h4l14-11 12-9-4-18v-27l4-16 4-9v-2zm105 7-3 29v7l1 1h11l8-1 1-3-7-18-6-10zm3 40-28 2-24 5-22 6-16 6-23 12-13 9-17 16-2 4-4 2-11 15-8 16-3 11 1 10 3 5 5 5 5 4 16 4h26l11-2v-8l5-5 2-3-8-8h-15l-8-5-6-9v-12l3-6 3-3v-8l-3-3-11 11-9 12-9 15-2 3 6-14 7-11 9-10 4-5 8-7 10-8 15-9 19-9 27-9 21-5 20-2h26l12 3 5 6-1 4-4 2 1 9-3 9v3l4-2 7-8 11-18 2-6-1-7-5-4-10-2-10-1zm-18 14-20 3-19 5-3 1 1 4 11 7 4 1 1-3-1-6 11 7 5 3h7l2-6-2-6 8 3h5l1-1v-8l7 6 6 3h2v2l9 7 4-1-1-6-5-6h8v-3l-5-4-7-2zm-56 13-19 8-12 6-10 7-11 8v8l1 4 14 1 7 10 3 2 1-1-1-11-2-13 3 3h3l1-12 1-3 9-2 10-6 6-7-1-2zm71-1-4 4h-6-3l-2 6-3 2h-7l-11-5-1 3-7 1-10-5-6-5-4 1-6 8-7 6-5 3-9 3v8l-3 6-1 1v7l1 10-2 2h-6l-4-5-3-5-2-1h-9l-7 6-2 5 1 10 5 8 7 4 9 1 8-1 6 7 12 9 16 7 11 2 8 1h9l15-2 12-5 13-8 10-10 5-11 1-3v-14l-3-13-1-25-2-6-11-7zm18 13v4h2v-4zm2 14-1 1v8l5-1-3 4v8l2 8 3-1 4-9v-9l-4-7-2-2zm-113 64-5 5v6l11 7 11 5 16 6 16 5 13 1-2-4-11-10-9-6-20-5-16-9zm97 1-13 8-11 4-7 10-3 6 2 4 2 2 5-1 13-10 10-7 7-7v-6zm5 13-9 8-12 8v2l-5 2-2 3 4 2 4 12h2l5-5 13-5 6 1 5 4 5-1-2-8 4 7 6-1 10-5-1-4-8-7-16-10zm-110 2-16 9-13 12-9 10-9 13-6 10-6 17v16l4 11h2l2 5 8 8 12 8 2-1v-9l2-12 5-15 4-6 8-10v-2l-11-1v-2l14 1 9 1 9-19-2 11-3 6v4l16 6h11l5-4 4-2 14-1 1-1v-9l-1-4h-2l-3 3h-7l-2-8v-10l3-3 7 1-2-9-2-6-13-4-12-5-16-8zm72-1-15 2v2l9 7h4l5-8v-3zm95 3-3 4v13l3 12 5 11 6 8 6 5 5-1 1-1v-6l-10-4-6-8-3-9-1-10 4-7-1-5zm-8 3-6 4-2 3v16l5 15 9 13 5 4 5 1 7-2-2-4-7-6-8-16-3-10-1-13v-5zm-107 14 1 7 3 8h9l19-2 1-5-3-3zm92 6-8 4-8 3-9 6 1 11 4 8 6 2 3-1 2-7 3-2h6l6 4 5 5 5-2-2-4-8-17-2-10zm-34 3-2 3v15l3 10 5 11h2l3-6-1-6-3-8v-11l2-2-1-4-3-2zm-7 2-8 5-1 2v15l4 13 6 11 2 3h2l3-5 6-2-8-15-3-9-1-13v-5zm-57 4-2 2 1 13 5 3 1-1v-8l-2-7zm30 1-19 2-4 2 2 7 16-1 12-2 5-3-1-4-1-1zm11 9-3 4-1 9 2 8 4 9 4 6 6 5h5v-4l-8-14-4-11-1-11zm-13 3-15 2-1 2 2 9 2 1 11-6 6-3 2-5zm65 5-3 3v8l7 11-5-3-6-8-2-1h-6l-2 1-1 8 6 12-8-7h-6l-2 3 1 8 5 5 4 2h13l14-7 9-9 3-6v-12h-2l-1 2-4-1-7-8zm-62 4-19 10-9 7-2 2-1 6 3 5 6 4 10 3h9l17-9-2-5-6-10-3-13zm87 5-2 12-5 10-8 7-12 6-3 1v2l9 3 6-1 8-4 10-11 3-7 1-5v-8l-4-5zm10 3-1 1-2 16-5 10-10 10 6-1 8-4 6-8 4-9 1-5v-7l-1-3zm-180 1-7 7-9 16-3 9-1 7v16l2 2 12 4 3-1v-13l3-15 7-16 2-5 4-2 2-5-8-3zm50 2-8 5-7 6-6 4-6 13-3 10-1 12 2 5 10 6 11 3h10l7-3 1-3-7-1v-2h12l6-4 1-4-1-1-11-1v-2h16l5-3 1-2v-6l-2-2-16-3-11-6-2-4v-10l3-5v-2zm-33 4-7 10-6 12-4 16v17l5 2h9l3-2v-20l5-17 7-10-1-5-7-3zm16 3m69 13-1 4 2 13 2 1 25-5 2-2-11-4-5-6-5-1zm-6 1-12 6 1 12 1 1 12-1 1-1v-9l-1-7zm39 13-16 4-15 3-1 2 2 20 3 1 24-5 22-6 3-2-2-10-4-3-9-2-4-2zm-40 8-14 1-6 3-3 8-2 2 1 11 24-1 6-2v-10l-1-12zm59 13-20 6-18 4-10 1-1 1v18l1 1 10-1 35-8 11-4 1-5-4-13zm-89 3-4 5-5 4h11v-8zm-40 4-4 4h13l-3-2zm74 5-27 3-2 5v14h21l9-2 1-1v-18zm-83 2-16 15v3l16 2h50l1-1v-17l-1-1h-19zm146 7-33 9-23 4-1 1-1 10v9l11-1 19-4 17-4 14-5 2-2-1-13-2-4zm-166 13-12 14-2 3 4 2 21 3 10 1h47l1-2 1-16-1-1-43-2zm99 1-25 2-1 1-2 18 1 1h22l9-2 2-6v-13l-1-1zm48 15-28 6-14 1-13 2-13 1h-43l-38-3-2 6-4 28v5l8 3 20 4 16 1h24l7-2 5-25 3-7 18-5v3l-9 1-3 2 1 15 2 13 6 2h34l23-3 5-2 1-1v-15l-2-24-2-6zm-160 49-2 4 1 18 9 4 29 5 21 1 14-1 7-2 3-11v-10l-4-1-9 1h-17l-18-2-19-3-10-3zm166 0-13 3-16 1h-42l-2 2v10l2 8 9 3h42l15-3 9-3 2-4v-14l-2-3zm-8 27-20 3h-35l-1 1v10l2 21 8 3 23 3 26 1 20-2 11-3 1-1v-7l-3-7-6-7-5-3-4-1h-14l-8 5-5 6v3h-2l5-10 5-4 9-4v-7zm-153 1-1 1-1 16h2l3-6 7-1 5 5v10l-5 5-7-1-3-6h-2v13l9 6 9 3 21 3h21l19-3 3-2-1-10-5-9-7-6-5-2-10-1-12 3-9 6-6 8 2-6 5-6 10-6 4-1h15l5 1 1-1v-6h-21l-21-2-16-3zm6 11-3 4-1 8 3 5h5l3-4v-8l-4-5zm94 27-1 3 2 5 11 3h6l2-4 5 1 3 4 3 1 14 1h11l20-2 11-3 1-1v-6l-2-1-14 3-9 1h-24l-27-3zm-102 3v7l6 4 4-4h2l5 8 13 3 9 1h21l18-3 3-2 1-8-2-1-16 4h-28l-20-4-13-5z"/><path transform="translate(702,269)" d="m0 0h7l5 5v7l-4 8-7 7-7 10-4 8-4-1-1-5v-13l3-13 6-9zm3 3-6 3-6 8-3 10v12l2 1 6-8 9-10 4-7v-6l-4-3z"/><path transform="translate(445,286)" d="m0 0h11l5 3 9 5 2 4v10l-4 14-6 4-14 2-5-2-4-5-8-12-1-8 4-5 9-9zm3 2-6 3-3 6-5 3v7l6 10 5 7h9l8-1 4-5 3-11v-7l-3-5-6-2-5-5z"/><path transform="translate(668,306)" d="m0 0 6 1 5 5 1 12-2 11-5 10-6 7-2-1-2-16-3-12v-9l3-5h2v-2zm-1 4-3 4v10l2 8 1 10 3 1 6-13 1-5v-8l-2-5-3-2z"/><path transform="translate(843,324)" d="m0 0 7 1 4 4 1 6-4 6-5 3-12 2-11 6-3-1 1-6 6-11 7-6zm-2 4-11 8-4 6v3l10-2 12-4 3-2v-7l-2-2z"/><path transform="translate(475,368)" d="m0 0h7l5 4v3l-5-2-9-1z"/><path transform="translate(417,373)" d="m0 0h7v3l-10 4-2 2h-3l2-4 4-4z"/><path transform="translate(708,380)" d="m0 0h12l5 4 3 6-1 6-4 6-15 10-8 6-2 4v6l7 6 5 5v11h21l11 4 5 5 1 3v11l-5 5-8 3h-11l-14-2v-2h26l8-5 1-2v-7l-8-7-4-1h-20l-7-3-1-6 1-6-1-2-7-4-4-4-1-8 3-6 9-8 14-8 4-5 1-6-4-4-2-1h-9l-9 4-10 6-10 9-5 6-11 8-7 3h-11l-2-1v-2h9l9-3 8-6 17-17 13-8z"/><path transform="translate(476,383)" d="m0 0 6 1 3 7-1 7-4 4-5-2-3-6 1-8z"/><path transform="translate(421,388)" d="m0 0 6 2 2 5v7l-3 5h-5l-4-5-1-2 1-9z"/><path transform="translate(455,393)" d="m0 0h2l2 5 6 3 3 3v6l-5 5h-7l2-2 5-3 1-7h-10l1-6z"/><path transform="translate(363,413)" d="m0 0 9 1 5 6 1 4h-3l-4-6-4-2h-6z"/><path transform="translate(422,417)" d="m0 0h2v5l5 1 7 2h30l10-3v3l-3 2-3 10-9 10-7 3h-15l-7-3-8-7-4-7-2-6-4-4 6-5zm-1 7 3 10 3 1 10-1 10 3 9 6 3 1 7-6 3-6v-4l-10 1h-16l-18-4zm8 13v4l8 5 6 2h7l4-2-5-5-6-4z"/><path transform="translate(620,435)" d="m0 0h9l3 3v10l10-5 6-4 8-2h6l6 5v8l-3 5-8 9 2 4 19 3 7 3 4 6v7l-5 6-4 2-59 1-33 5-7 1v-2l20-5 32-4h44l7-4 1-5-4-5-8-3-16-2-4-5 1-6 9-11 1-7-2-1h-8l-20 10-5-1-2-2 1-10-4-1-12 6-11 9-3 1-2 4-27 18-3-1 17-13 11-8 14-12 9-6z"/><path transform="translate(817,461)" d="m0 0 13 1 11 4 9 6 6 7 2 5-1 8-5 4h-9l-6-4-12-16-9-8-4-3 1-3zm3 4 2 4 5 4 9 12 4 6 6 3 5-1 3-3v-7l-4-7-5-4-10-5-7-2z"/><path transform="translate(635,529)" d="m0 0 9 1 10 4 8 7 3 6v8l-4 4h-7l-5-4-8-14-8-8zm6 4 2 4 9 16 3 3 5-1 2-2-1-7-6-7-12-6z"/><path transform="translate(728,542)" d="m0 0 12 3 8 4 9 7 6 10 1 3v10l-5 6-7 1-5-3-4-5-4-9-6-15-7-8v-3zm5 5 2 5 7 15 5 12 4 3h6l3-2 1-8-3-8-7-8-5-4-10-5z"/></svg>
