<?xml version="1.0" encoding="UTF-8"?>
<svg version="1.1" viewBox="0 0 1024 1024" xmlns="http://www.w3.org/2000/svg"><path transform="translate(415,272)" d="m0 0h23l16 8 9 5 15 10 10 12 7 11 6 15 3 6 15 4 6 4 3 6-2 10-4 8-8 12-6 7 5 11v8l-4 9-5 6-4 12-2 4h-2l-2 5-2 2v5l2 3 1 6 13 7 11 9 5 3 2-8 11-7h10l4 3 5-2 7-8 5-5 11-12 9-12 9-15 9-19 5-11 7-8 3-2h9l4 5 3 14h6l5-5 8-13 7-11 6-12 8-11 9-12 12-13 10-7 4-1v-2l10-5 10-3 5-2h24l13 4 8 5 2 4 3 1 4 10v13l-2 9-9 12-15 15-2 3-1 7 16-2 22-7 16-1 9 1 10 4 9 6 6 7 3 7v17l-3 7-8 9-11 7-15 5-26 4-20 3-13 5-2 2v8l4 4v2l5 2 14 8 12 11 4 8 1 3v16l-3 9-6 7-11 5-8 1-14-1-18-10-15-10-9-3h-10l-4 5-1 13-3 6-5 4h-12l-10-5-19-12-8-5-17-5-15-3-33-2h-5l-4 10-5 3-2 1-1 18-6 11-8 7-7 4-7 1 9 30 2 8v13l-8 5-9 2-1 5 4 40 3 5v14l-4 4v9l13 4 8 10 2 6v19l-5 4-12 3h-37l-7-2-4-2v2h-8l-13-4-2-7v-11l-2-21-1-5-6-4-1-5v-14l1-1v-21h-2l-1 9-2 7v8l1 2v8l-4 13-4 4v8l6 7 4 9v19l-6 5-9 3-6 1h-24l-18-4-13-4-6-5v-47l-4-5v-17l5-8 4-28v-3l-2-1h-6l-6 9-15 25-7 9-8 11-14 15-16 11-16 8-13 5-21 3h-49l-23-2-9-2-1-4 3-1 32 5h43l18-3 23-8 16-9 10-8 10-10 11-13 6-10 3-3 8-14 14-22 10-13 5-4 4-6 8-7 5-6h-10l-17-5h-8l-11 14-9 13-8 11-9 15-4 8-4 4-9 13-9 10-9 9-9 5-10 6-14 4-6 1h-54l-16-2-12-3 1-4 17 3 15 1h46l12-2 17-7 9-6 5-4 10-10 6-8 4-4 10-18 14-21 7-11 7-10 7-5 1-8-10-7-8-8-4-8-1-6v-17l3-12 7-13 9-13 8-8 7-8 6-5h2v-2h-16l-14-3-13-7-5-7-2-5v-13l7-16 3-4 4-7 11-14 4-2v-33l4-22 5-13 5-8 7-9 12-12 12-7 4-6 7-6zm4 3-10 3-4 3v3h11l10 5 3 3 7-1 9-8-1-5-9-3zm28 8-11 11-10 8-4 4v9l5 11 11 20h10l25-4 3-4 2-15v-21l-6-7-12-7-9-5zm-38 2-8 5 1 5-3-3-5 1-4 5-7 21-2 10v18l3 17 5 1 13-7 18-6 3-5 1 2 9-1 1-4-8-16-5-9-1-11 3-6 5-5-2-4-9-8zm330 14-12 3-19 11-15 13-11 13-11 17-12 22-7 11v2l-4 2-5 4h-9l-1-8-2-8-3-4-7 1-8 9-11 25-10 18-5 5-8 11-12 13-11 12-8 7-1 2v6h-2l1-7 2-3v-6l-3-2-4 1-1 1v15l3 12 6 11 6 7 6 1 3-3-1-4-10-6-6-11-1-4h2l3 9 5 7 3 1 46 2 16 3 13 4 16 7 17 12 13 5 8-1 4-4 1-3 1-12 3-7 3-2h10l17 7 18 12 16 6h8l11-4 10-10 2-5v-15l-4-8-9-10-9-6-16-10-3-5v-9l7-6 15-5 38-4 17-6 12-7 8-9 3-7v-11l-6-11-4-5-13-6-9-2h-14l-29 7-7 2-7-1-3-2v-6l6-8 9-10 8-8 6-13v-13l-4-8-6-7-12-6-6-1zm-355 1-13 14-8 16-5 13-2 17v25l5-1 11-9 11-8-2-12v-34l5-16 1-4zm98 8-2 12-1 10v10l1 1h11l7-2-2-9-6-14-6-8zm-6 36-20 1-29 7-22 7-15 8-10 5-16 12-16 16-8 10-9 16-3 10v12l7 9 5 4 12 3 7 1 25-1 5-2 1-7 5-5-1-4-5-5-15-1-7-4-5-8v-12l5-7v-8l-3-2-12 12-7 9-5 9 2-6 7-11 10-11 5-5 11-9 15-9 19-9 16-5 8-3 11-3 19-2h34l8 2 3 4-1 5-2 1v9l-2 9h3l8-8 10-18 1-5-2-6-3-3-12-2zm-18 13-21 5-7 3v3l11 7 4-1-1-6 13 8 7 1 2-2v-8l4 1h8v-7l10 7 4 2 4 4 3 2 4-1v-5l-3-4 6-2-2-4-4-3zm-34 11-11 12-9 5-6 3-2 11-2 3v15l-6 1-7-9h-10l-6 5-1 2v11l5 8 4 3 3 1 15 1 5 6 14 9 10 5 12 2 12 1 17-2 9-3 15-9 9-9 5-12v-16l-2-8-2-29-8-6-6-1-3 2-8 1-3 6-1 1h-7l-10-4-2 2-6 1-12-7-4-2zm-8 0-12 5-16 8-9 6-10 8-1 1 1 9 1 1 11 1 5 5 4 5h2v-19l3-1 2-12 9-3 9-6 4-4-1-4zm83 12-1 2h2zm1 12-1 1v7l3 1-1 1v10l2 5 4-1 2-6v-10l-5-8zm-104 59-5 5 1 5 10 7 8 4 20 7 12 4h10l-1-4-8-8-9-6-23-7-10-6zm89 1-12 7-10 4-7 10-1 2v6l2 2h5l13-10 8-6 7-7v-5l-3-3zm4 12-9 8-9 6-1 3-5 2 5 10 1 4 5-1 6-4 6-2h7l4 3h5l1-4 2 2 7-1 6-4-1-5-9-8-12-7zm-102 2-14 8-19 19-9 13-8 16-3 10v13l3 8 4 5 6 8 13 9 2-1 2-16 6-19 10-13-1-2-9-1 2-1 19 1 6-12v-2h2l-3 9-2 4 1 4 12 4h13l7-4 13-2 1-1v-10l-3-1-4 2h-4l-2-6v-10l2-2 7-1-2-9-3-4-19-7-16-8-3-1zm64-1-9 2 2 4 6 4 4-1 4-5-1-4zm83 6-6 5v17l3 11 10 14 4 3h9l1-4-8-9-6-12-3-14-1-10zm-95 12-2 2 1 7 3 5 16-1 9-1 1-3-2-4-13-3zm80 6-18 9-3 3 1 10 5 8h7l3-7h9l7 6h5l1-2-6-11-5-16zm-29 3-2 2v15l4 11 3 6h3l2-4-1-7-2-5v-12l1-4-2-2zm-9 2-6 5v15l6 16 5 8h3l5-5 2-3-8-16-2-10-1-10zm-50 3-1 1v11l2 3h4v-10l-3-5zm20 1-12 2-1 1v5l1 1h15l13-2 3-3-2-4zm18 8-3 4-1 8 4 13 4 6 6 6h3v2l-5 1-1 1 1 12 2 3 10-1 13-3v-4l-8-3-4-5-6-1-1-9-6-10-3-8-2-11zm-17 3-7 1-2 2 1 9 6-1 11-6 1-5zm64 5-2 2v9l4 6-3-1-5-7-6-1-3 2-1 7 4 9-5-4-5-1-3 3 1 7 5 6 2 1h14l13-7 7-7 3-6v-10l-3-1-5-1-4-5-2-1zm-56 3-7 3-15 9-5 4-1 2v7l8 7 6 2h12l14-8-1-5-6-11-2-9zm80 5-1 1-2 10-4 8-4 5-8 5-8 3v3l5 2h7l6-3 10-9 3-5v-3h2l-6 11-6 6v2l6-1 8-6 5-8 2-8v-8l-1-2h-5l-1 1v5h-2l-1-7zm-158 4-6 7-8 14-3 14v15l4 3 7 2h4l2-18 2-9 7-15 2-4 4-4v-2l-8-3zm46 2-8 5-8 6-3 3-6 14-2 17 2 5 10 6 6 2h14l5-3-1-3h-4v-2h7l6-2 3-2-1-5-9-1 1-1 15-1 4-4v-6l-3-2-15-3-9-6-1-2v-10l2-5zm-29 3-7 9-6 14-3 11v16l2 2h13l1-1 1-20 3-12 3-6v-2l3-1 1-6-3-3zm71 16-9 5-1 3 1 7 2 2h8l3-2v-13zm37 11-19 5-9 1-1 1 1 12 1 8 5 1 26-6 16-5 1-4-3-7-5-3-10-3zm-36 7-15 2-5 5-3 6v9l1 1h16l10-1 1-1v-15l-2-6zm55 12-23 7-12 2-9 1-2 2v16l1 1h8l29-7 8-2 6-3v-9l-3-7zm-84 4-5 7h7l1-1v-5zm-37 4-1 2h8l-2-2zm61 4-17 2-1 3v14l1 1h22l5-2v-17l-1-1zm-68 1-9 9-5 4-1 4 1 1 10 1h50l1-1v-16l-1-1zm128 8-24 7-21 4-2 7v10l1 1 13-1 28-6 15-6 1-5-1-9-1-2zm-142 11-6 2-9 10-1 4 4 2 21 3h49l1-1 1-16-1-1-40-2-12-1zm88 0-23 2-2 2-1 6v10l1 1h23l5-3 1-3v-14zm42 14-21 5-32 4h-58l-25-2-2 5-4 26v5l9 3 14 3 8 1h35l4-4 5-21 3-6 10-3 4 1-8 2-2 2 2 20 1 5 2 1h39l20-3 2-2v-19l-2-20zm-145 45-2 2v19l10 4 21 4 8 1h26l7-2 3-5 1-4v-10l-1-1-33-1-27-4-9-3zm152 0-14 3-51 1-3 2v11l2 6 6 2h45l17-4 3-4v-14l-3-3zm-8 25-14 2-37 1-1 1v12l2 16 10 4 26 3h23l15-2 7-3 1-1-1-9-6-9-6-4-3-1h-13l-9 6 2-4 10-5v-6l-1-1zm-142 2v15l5-4-1 3v9l2 2h5l2-3v-8l-3-4 3 1 1 2v10l-3 3-7-1-3-5-2 1v11l8 6-7-1-1 1v5l5 4 4-2h3l4 6 8 2 6 1h30l13-2 2-2 1-7-1-1-8 1-4 1h-32l-14-3 15 2h27l15-2 2-2-1-9-5-9-6-5-5-2h-14l-10 4-5 4-2 3 2-5 9-6 5-2h19l1-5-1-1-26-1-21-3-8-2zm93 35v5l5 3 3 1h9l1-3 6 2 3 3 8 1h21l17-2 8-3v-6l-3-1-13 3h-35l-23-3z"/><path transform="translate(683,286)" d="m0 0h9l3 4v7l-5 9-8 8-7 12-4-1-1-1v-18l3-10 6-8zm3 2-5 3-5 6-3 8v14h3l8-11 6-7 2-9-3-4z"/><path transform="translate(403,296)" d="m0 0 5 5 7 14 5 15 1 6h-2l-8-23-7-13z"/><path transform="translate(447,301)" d="m0 0h11l12 7 2 2v17l-3 7-5 4-11 2-5-1-5-4v-2h-2l-6-10-1-8 6-8zm3 2-6 4-2 4-5 4 1 7 8 12 2 2 16-1 3-3 3-10v-9l-4-4-5-3-4-3z"/><path transform="translate(651,320)" d="m0 0h6l4 2 2 3 1 13-3 10-6 11-4 2-2-2-3-17-1-5v-11zm1 3-3 3v12l3 14h3l5-10 1-5v-7l-3-6-1-1z"/><path transform="translate(812,336)" d="m0 0 8 1 3 3 1 7-6 7-5 2-11 2-7 4h-2v-8l4-8 10-8zm-1 4-10 7-4 6 1 3 12-3 8-3 2-2v-7l-1-1z"/><path transform="translate(475,377)" d="m0 0h8l3 3v2l-12-2z"/><path transform="translate(423,380)" d="m0 0 5 1-1 4-11 5-1-3 5-6z"/><path transform="translate(688,388)" d="m0 0h13l5 4 1 3v8l-7 8-14 9-5 5v7l9 9 2 10 20 1 10 4 3 4 1 10-2 6-4 3-6 2h-12l-10-2v-2l23-1 7-5v-8l-7-5-21-1-6-3-1-1-1-12-9-6-1-2v-9l4-6 9-7 10-6 3-4v-6l-3-3h-9l-14 7-11 9-6 7-10 7-7 3h-9l-1-3 12-3 10-6 17-17 14-7z"/><path transform="translate(475,391)" d="m0 0h6l3 5v8l-3 3h-5l-4-6 1-8z"/><path transform="translate(425,395)" d="m0 0 5 1 3 4v9l-4 4-5-2-3-5 1-8z"/><path transform="translate(457,400)" d="m0 0 3 1 3 4 5 3 1 1v6l-5 5-5-1 3-3h2v-6l-7-2z"/><path transform="translate(372,418)" d="m0 0h8l5 6 1 3h-4l-2-5-8-1z"/><path transform="translate(438,429)" d="m0 0 2 1 1 3 6 3h22l-3 3-3 1h-14l-14-5z"/><path transform="translate(606,438)" d="m0 0h11l3 2v9l18-9h10l5 5v7l-4 6-5 6 1 4 20 4 6 6v9l-4 5-4 2-48 1-17 1-25 4 1-3 6-2 27-4 7-1 47-1 6-4v-5l-5-4-6-2-14-2-3-3v-7l8-10 1-7-10 1-16 8-6-2-1-1v-9l-6 1-9 5-12 9-5 5-10 7-11 7h-2v-3l19-14 9-7 7-6h2l1-3z"/><path transform="translate(786,462)" d="m0 0h14l13 5 9 7 5 7v9l-5 5h-9l-7-5-10-14-11-10zm7 4 2 4 8 9 6 9 5 4h6l3-2v-9l-6-8-15-7z"/><path transform="translate(622,525)" d="m0 0h8l10 4 8 8 2 4v8l-3 3h-9l-5-5-5-10-8-9zm6 4v2h2l2 6 6 10 2 2 5-1 1-1v-7l-6-7-8-4z"/><path transform="translate(707,537)" d="m0 0 9 1 12 6 8 7 5 11-1 10-3 4-8 1-7-6-9-19-2-5-5-7zm7 4-1 4 10 21 3 6 3 2 6-1 2-2v-10l-2-6-8-7-5-4-6-3z"/></svg>
