<?xml version="1.0" encoding="UTF-8"?>
<svg version="1.1" viewBox="0 0 1024 1024" xmlns="http://www.w3.org/2000/svg"><path transform="translate(196,73)" d="m0 0 4 1 2 2v39l-2 2h-5l-2-2v-39z"/><path transform="translate(110,108)" d="m0 0h5l26 26 1 6-2 2-6-1-5-4-7-8-14-14 1-6z"/><path transform="translate(280,108)" d="m0 0h5l2 2v5l-26 26-6 1-2-2 1-7 24-24z"/><path transform="translate(727,125)" d="m0 0h16l13 3 10 6 4 1 13-5 5-1h15l12 3 14 8 7 6 6 10 4 9 16 8 8 9 4 7 2 9v11l-3 10-6 8-6 5-4 2h-211l-8-3-7-6-5-9-1-4v-17l3-11 7-12 9-9 16-8 9-2h10l7 1 7-11 7-7 14-8zm3 9-12 3-7 3-9 7-6 9-4 8-18-2-12 2-8 4-9 7-8 11-3 10v14l3 8 7 6 3 1h207l8-6 4-8 1-4v-8l-4-10-5-7-11-7-9-3-3-10-6-9-9-8-10-5-4-1h-21l-12 5-4 2-4-1-8-6-11-4-6-1z"/><path transform="translate(189,136)" d="m0 0h17l16 4 9 5 12 11 8 9 5 12 3 12v17l-3 12-4 10-9 11-8 8-11 7-19 5h-15l-12-3-11-4-6-4v-2l-4-2-7-7-8-11-4-11-2-10v-15l2-12 8-16 11-12 10-7 12-5zm2 9-12 3-12 6-10 9-7 11-4 12-1 6v12l5 17 7 11 5 5 9 6 14 6 6 1h13l14-4 12-7 8-8 6-9 5-13 1-4v-15l-4-13-7-13-6-5-5-5-12-6-11-3z"/><path transform="translate(76,193)" d="m0 0h39l2 2v5l-2 2h-39l-3-3 1-4z"/><path transform="translate(280,193)" d="m0 0h39l3 3-1 4-2 2h-39l-3-3 1-4z"/><path transform="translate(135,253)" d="m0 0h6l1 6-7 8-19 19-5 1-3-3 1-6 24-24z"/><path transform="translate(255,253)" d="m0 0h5l27 27v5l-3 2-5-1-25-25-1-6z"/><path transform="translate(196,277)" d="m0 0 4 1 2 2v39l-3 3-4-1-2-2v-39z"/><path transform="translate(429,437)" d="m0 0h202l22 5 21 9 6 4 12 9 12 11 9 10 7 10 4 4 28 38 8 10 3 4 20 4 13 4 17 6 12 8 8 8 7 12 4 18 2 17v5l5 2 4 5 1 3v25l-5 8-5 3-10 1-57 1-6 20-5 10-7 9-4 5-13 10-13 6-9 3-6 1h-17l-16-4-16-8-12-11-6-7-4-5-6-15-3-13-1-1h-246l-6 20-5 10-8 10-9 9-11 7-12 5-6 2-7 1h-16l-16-4-16-8-12-11-7-8-4-6-6-17-2-9-1-1-33-1-15-2-12-6-7-8-4-12v-9l3-6 5-5 3-19 6-15 8-10 11-11 14-7 17-6 31-6 11-2 9-12 11-14h2l2-4 11-14 14-18 11-14 4-6 8-7 7-7 14-9 18-7 16-4zm14 9-32 3-20 6-14 6-10 7-2 3 5-2 12-5 8-2h55l3 3v79l-2 2h-129l-2-2 1-5 8-12 11-16v-2l3-1 8-13-1-2-10 12-10 13-7 9v2l-4 2-10 13-11 14-4 5v2l-28 4-19 5-8 2-5 3 6 9 1 4v11l-4 10-6 7-9 4-4 1h-7l-9-4-3-1-2 8 1 4 33 2 6 5 3 5v26l1 1h9l2-5 3-13 7-17 1-3h2l7-8 9-8v-2l5-2 17-7 10-2h18l12 3 12 4 8 6 10 9 6 7h2l8 20 3 12 2 6h65l1-1 1-121 2-2 4 1 1 1 1 121 1 1h170l2-5 4-16 6-14 1-3 3-1 7-8 11-10 14-6 9-3 6-1h18l12 3 12 4 6 4h2v2l10 8 6 8h2l2 5 7 17 3 15 1 1h11l1-2v-24l4-9 5-3 4-1 31-1 1-1v-10l-4-20-5-11-8-9-12-7-15-6-11-3-22-4-7-8-7-10-5-5-10-14-13-17-7-10h-2l-2-4-9-10-12-12-6-4-4-4-17-8-11-4-26-4zm-80 25-6 6 1 2 7-7zm28 0-10 2-9 5-9 8-7 10-9 13-12 17-6 9v3h109l1-1v-66zm-41 15 1 2zm-1 2m-1 1v3zm-2 3m-132 94-6 5-2 5-3 1-4 8 1 6 6 5h8l6-3 6-7 2-5v-7l-3-6-3-2zm96 26-12 3-10 4-11 7-5 5-7 9-6 12-3 9-1 7v12l4 16 7 14 3 1 2 4 8 8 14 8 12 4 6 1h12l16-4 8-4 10-7 9-9 7-11 5-14 1-7v-13l-3-12-5-12-7-10-6-5-5-5-14-7-9-3-6-1zm390 0-12 3-16 7-5 4-4 5-5 4-7 12-4 10-2 11v12l4 16 8 14 9 10 8 6 14 7 13 3h12l16-4 10-5 9-7 10-10 7-14 3-9 1-6v-14l-3-12-5-12-6-9-5-4-4-5-10-6-16-6-6-1zm103 29-3 3-1 6v11l1 7 5 3h34l6-3 2-3v-20l-5-4zm-617 1-2 3v9l4 8 6 5 11 3 17 1 5-5v-18l-3-5-4-1z"/><path transform="translate(471,461)" d="m0 0h138l15 3 10 4 11 6 13 12 10 13 9 13 12 20 5 8-1 5-2 2h-219l-3-3v-80zm7 10v66l1 1h201l-2-6-12-20-6-8-7-9-7-8-14-10-10-4-15-2z"/><path transform="translate(872,571)" d="m0 0 4 1 2 2-1 4-4 3-13 6-1 2h18l2 2v5l-2 2-18 1-9 1-3-7-1-1v-5l4-5 10-7z"/><path transform="translate(496,572)" d="m0 0 38 1 2 2v5l-3 2h-38l-3-4 1-5z"/><path transform="translate(151,575)" d="m0 0h11l11 6 9 9 2 3v5l-2 2h-5l-9-10-8-4-9-3-1-7z"/><path transform="translate(148,603)" d="m0 0h13l12 3 3 2v5l-3 3-15-3-11-1-1-1v-6z"/><path transform="translate(855,606)" d="m0 0 11 2 13 2 2 3-1 5-2 2-10-1-15-4-2-5z"/><path transform="translate(311,642)" d="m0 0h13l10 4 9 8 4 8 2 6v12l-4 11-8 9-8 4-6 2h-12l-12-5-8-7-4-8-2-6v-13l4-10 8-9 10-5zm1 9-10 5-6 8-2 5v3l4-2 7-3 3-1h17l8 3 4 3v6h-7l-8-4h-11l-8 4h-6l-3-1 3 9 5 6 8 4 3 1h8l9-4 5-4 5-10v-9l-3-8-5-6-10-5z"/><path transform="translate(701,642)" d="m0 0h13l9 3 10 9 5 10 1 4v12l-4 11-8 9-8 4-6 2h-12l-12-5-8-7-4-8-2-7v-11l4-11 8-9 10-5zm1 9-10 5-6 8-2 6v8l4 9 4 5 10 5h9l9-4 5-4 5-10v-2l-8 1-8-4h-12l-8 4h-6v-6l5-4 7-2h16l8 3 4 3h2l-2-8-6-8-10-5z"/><path transform="translate(94,783)" d="m0 0h123l3 3-1 5-2 2h-122l-3-3 1-6z"/><path transform="translate(288,783)" d="m0 0h187l3 3-1 5-2 2h-187l-3-3 1-5z"/><path transform="translate(555,783)" d="m0 0h374l3 3-1 5-2 2h-374l-3-3 1-5z"/></svg>
