<svg xmlns="http://www.w3.org/2000/svg" viewBox="0 0 1024 1024">
  <g fill="#fff" stroke="#000" stroke-width="10" stroke-linecap="round" stroke-linejoin="round">
    <circle cx="170" cy="170" r="62"/>
    <path d="M170 78 L 170 40 M170 262 L 170 300 M78 170 L 40 170 M262 170 L 300 170 M105 105 L 78 78 M235 105 L 262 78 M105 235 L 78 262 M235 235 L 262 262" fill="none"/>
    <path d="M640 175 C 640 140 675 120 705 130 C 715 95 765 85 790 110 C 820 90 865 105 870 140 C 905 145 915 190 885 205 L 660 205 C 640 200 640 185 640 175 Z"/>
    <path d="M150 655 C 150 600 195 572 265 566 L 335 478 C 356 448 395 435 455 435 L 615 435 C 675 435 706 458 735 498 L 782 560 C 852 570 880 600 880 648 C 880 678 862 690 830 690 L 200 690 C 165 690 150 682 150 655 Z"/>
    <path d="M470 462 L 605 462 C 645 462 662 478 682 508 L 705 545 L 470 545 Z"/>
    <path d="M438 462 L 388 462 C 366 462 352 472 340 490 L 302 545 L 438 545 Z"/>
    <circle cx="300" cy="688" r="72"/>
    <circle cx="300" cy="688" r="30"/>
    <circle cx="724" cy="688" r="72"/>
    <circle cx="724" cy="688" r="30"/>
    <circle cx="852" cy="612" r="17"/>
    <path d="M455 580 L 455 640" fill="none"/>
    <path d="M60 812 L 190 812 M270 812 L 470 812 M560 812 L 964 812" fill="none"/>
  </g>
</svg>
