<?xml version="1.0" encoding="UTF-8"?>
<svg version="1.1" viewBox="0 0 1024 1024" xmlns="http://www.w3.org/2000/svg"><path transform="translate(593,287)" d="m0 0h14l12 7 4 5 7 16 2 7 8 6 2 2 1 12v12l11-8 6-12 2-1v7l-3 7h8l1 2-13 1-1 20h-2v-17l-5 3-4 4v28l1 1h9l4 2 11 1 8 2 6 4 1 3v17h-2l-1-7-9 2-1-2-5-1v-2h15v-10l-20-4-13-2-22-2-27-1v-2h24v-10h2l1 10 14 1v-57l-10-8h-3l-1 40h-2v-43h-5v-2h8v-2h-7v-5h3l-1 2 3 1-3-12-4-5h-5l-2 1 1-6h-5-3v-3h-8l-4 4-2 6h-2l-1-4-2 7h-2v-2l-3 3-3 7-1 7-3 2v3l-7 2v63l1 1h24v2l-32 2-21 3-5 4v7l1 1 10 1v2l-7 1-7 10-6 14-4 10h-1l1-9 5-11-1-8-5-10-3-7-10-9v-2l-5-1-16-7-9-3-25-9-24-8-7-3-12-3-13-5h-10l3-3h7l5 1 1-2-6-19-3-15-3-10-4-6h-23l-10 2-10 11-7 8-8 11-1 3-1 22 4-2 2-13 4-3v3l-2 3v9l2 1v2l-7 3-4 27-1 15-4 40-1 16 3-1h12l1 3 2-11 5-45h2v10l-5 42-3 7-3 1v5h-2v-9h-7l-3 26v12l-1 1-8 1-4 4v-4l-5 3 2-5 1-2h9l2-4 2-16v-8l-4-3-23-7h-9l-15 11-10 7-7 5 1 4 2 3-7-2-10 25v7l2 3 21 2 4 2-3 1-24-3-8 1-11 9-8 6-3 4h-2v3l-2 1-1 7v15l10 8 3 2 24 3 6 1v2l-13-1-9-1h-9l-4 2 1-5-8-7-11 1-14 4-21 21-1 3 1 2-4 2-8 31-2 8v7l14 14 5 3 17-1 1-43h2l1 42 1 1h19l5-10 11-11 2-1h9l-1 2-8 1-12 12-3 8v6l7 4 13 2 12-7h2l-2 4-11 5-7 8-13 6v2l8 3 12 3 11 1 1 4 7 3h11l6-2 2-3 5 3 26 5h7l1 4h20l-1-7-2-3h3l4 7 3 1 40 2h6l3-1 4 6 10 3h21l7-3-1-8-2-3 1-3 5 10h35l26-2 5-2 3-1 1 3 14 3 13-1 5-2 3-4 3 1h13l25-4 14-4v-4l-7-7-10-6 3-1 7 4 10 2 36 3 1-3 7 2h11l22-4 14-2 4-1-1-5-5-1h-4l-2-5v-3l4 3h3l-1-5-3-12 1-6h2l3-9 2 1v1h9l3-1 1 2 8 1v2h-20l-1 8-2-1v-3l-2-1 1 15 4 9 7 8 5 3h6l4-1 4 2h4l-3-9-3-8-1-6h-4v-2h4l1-5v-7l-3-1v-2l6-1v-3l-15-1-4-1v-2l22 1 1-4-1-2h5l2-3 8-2 4 1-10 5-5 4-6 14-1 5v12l3 9 4 6 6 5 5 3 10 1 5-1 3 1h12l8-4 5-4 6-10 3-16h2l1 2h29l1-7h2l1 11 1 7-3-3-1-5-27 1-4-1-1 12 7 5 7 1-3-5 1-2 7 6 2 1h14l2-2-1-7 4 5 8 8 9 3 6 1-1-3 5 1 2 1h13l10-5 4-6h2l3-10 2-11h2v2h2l-1-12-2-1-1 3h-2l-3-9-6-8-7-3-6-2-9 1-9 5-6 5 2-4 7-6v-1h-8l-10 4-6 7-6 15-2-3h-32l-1 2h-2l-4-11-8-7-2-1 1-2 7 4 3 2h2v3h14l4-5-1 5-3 3-10 1-1 2 30-1 1-48h2v48l3-3 4-8 9-8 8-2h23l12 5 6 5 3 5 2 1v-13l1-8-3-1-1-10-4-2-7-2-5-16-8-16v-2l-4-2-6-2h-27l-4 9-2 9-3 1 2-9 5-12 3-3 5-1 28-1 8-1-2 3-13 1 6 2v2l4 2 3 3v2h2l7 16 4 12 9 4 3 3 2 6 1 21 1 8 2 2v15l-3 3-4 12-7 9-8 7-6 2h-23l-10-3-7-5-7 1h-20l-10-3-6-4-6 9-11 7-5 2h-20l-10-2-11-5-15-1-5-1h-16l-31 6h-61l1 2v7l-11 4-12 3-31 3-7 3-11 3-14-1-9-3-17 1-22 2-30 2-5 3-5 1h-20l-13-3-5-4-33-2h-18l-6 2h-14l-5-2-2-2-30-5h-7l-2 1h-16l-8-5-8-3-16-3-9-4-1-4 5-4 13-6-2-3-12-4-5-4-2-3-6-1-35-1-6-5-4-5-8-7-1-4 3-16 8-31 6-8 10-10 5-6 7-5 18-5h3v-15l1-9 9-9 11-9h2l1-3 8-4h2v-8l10-25 3-6 10-8 12-8 11-8 4-3h7l21 6 8 3-3-4v-16l6-52 1-14 1-43 3-6 8-10 7-9 6-8 6-3 17-2h13l5 2 4 5 3 10 3 3 14 9 2 1 11 1 18 11 16 11 24 15v2l5 2 3 2 11 1 6 5 4 11 2 9 5 6 7 15v3l3-1 1-7v-10l5-5 3-2 24-3 1-44 1-23 8-5 3-9 4-8 8-8zm-198 28-1 4 3 7 5 3h2v2l10 5 5 1-3 4 2 4 15 8 16 10 7 5 13 6 8 3h6l5-5-1-5-15-10-11-7h-2v-2l-15-9-10-7-11-7-4 1 3 3 1 4h-2l-1-4-17-10-6-4zm5 15-1 5 4 15 8 4 16 5 19 7 2-2-11-7-10-6-14-9-5-8zm14 9m79 30-6 5-1 5 18 9 3 2 1-1v-7l-3-8-6-5z"/><path transform="translate(674,321)" d="m0 0h11l-4 2-3 1 1 4-3-1v-2l-4 1-2 3-5 1-2 1 2-4 6-5z"/><path transform="translate(685,322)" d="m0 0 5 1 8 6 4 5 3 10 10 5v2l-11-1-2-3-20-1v-1l8-1 1-5h2l2 5h5l1-2-2-6-1-2-5-3-2-3-2 1-3-5z"/><path transform="translate(337,352)" d="m0 0 6 1 3 5-1 16h-2v-15l-2-4-4-1z"/><path transform="translate(388,356)" d="m0 0h7l2 2v9l-3 3h-7l-4-3v-3h3l2 3h5v-9l-5-1z"/><path transform="translate(395,380)" d="m0 0 6 3 1 2-3 1-2 13 17 10 6 4-3 1-18-10h-3l-1 2h-2l2-15v-7l-1-3z"/><path transform="translate(740,387)" d="m0 0h7l23 10 13 7 1 33 9 2 10 6 1 1 1 44 20 6 3 3-1 3-10-5-14-4v40h-2v-85l-8-5-7-1-18-1v-2l12-1 1-1v-30l-4-3-24-11-8-3v36h-2v-35l-6 2-18 10-5 1 1-4 6-2 14-8z"/><path transform="translate(606,403)" d="m0 0h10l15 2v2h-53v-2z"/><path transform="translate(619,409)" d="m0 0h2l-2 19-4 34h-3v-10l4-30z"/><path transform="translate(570,413)" d="m0 0h32l5 3 1 1v13l-3 26-2 25h-2v-22l3-28 1-12-2-3h-39l-17 1-7 2-4 5-6 12-4 17-5 23-1 16 4 3h69l5-1 2-8h2l-1 8-4 4-15 1h-54l-7-2-3-3-1-13 6-31 7-21 5-9 6-5z"/><path transform="translate(391,414)" d="m0 0h2l-1 16-7 38h-2l1-11 7-40z"/><path transform="translate(420,414)" d="m0 0 6 2 15 9 6 3v2l5 2 13 10 7 11 11 24 6 17 5 11v2l12-1 2-19v-12l3-5 6-25h1v7l-5 23-3 21v9l66 1 36 1 7 7 3 7-1 3-5-9-8-5-17-1v2l-3 1 1 4-3 1-12-4-2-3h-80l-13 2-3 3-16 4-3 4-3 12h2l1-6 7-8 3-1h10l6 4 4 8v5h2l1-5 6-5 15-2h15l17 1 5 2 4 5 1 8-1 16-2 5h-1v-30l-4-2v5h-2v-6h-6v2h-2v-2h-15l-1 5h-1l-1-5-19 1-3 4-1-2-2 2-1 4v24l1 6 2-1 2-3 2 6h3v-6l3 1 1 6 6-1 1 2h21l8-2 1-3 4 1 2-4h2l-2 6-6 4-5 1h-33l-9-2-5-4-2-5v-19h-2l-2 6-7 6-5 1-7-1-7-6-2-4-1-10h-2l1 33 1 3h-5l-3 2 1-4 1-1 1-24 2-16 2-6v-7l-2-1-9 1-8 1 3-2 7-3 1-7 2 1 1 5 4 2h7l9-5 14-1 7-2-4-13-3-7-5-13-6-13-5-10-7-9-11-8-25-15zm48 108-8 6-2 4v12l3 6 6 5h8v-3l-7-2-3-5-1-7 3-7 4-2 9-1v-3l-4-3zm10 9-2 2 1 5 5-1 1-4-2-2z"/><path transform="translate(631,416)" d="m0 0h23l1 2-24 1-3 9-3 18-2 20h-2v-16l3-20 4-12z"/><path transform="translate(659,417)" d="m0 0 5 1 3 5 1 3 2 25 1 12v31l-4 3h-44l-2-2v-25h1l1 23 1 1h42l2-1v-23l-1-14v-11l-2-17-2-6-4-3z"/><path transform="translate(673,424)" d="m0 0h2l4 31 1 18 3 38v28l-1 11-4 8-8 3h-5v-3l10-3 3-4 1-13v-24l-1-16v-12l-5-49z"/><path transform="translate(683,426)" d="m0 0h2l5 28 1 9 2 10 10 1v-5h2l2 5 8 1 1-6 3-6 7-4-1 5-5 2-1 2v6l7 2 5 2 5 6 2 10 2 1 14 2 6 4 5 6 1 5-9-9-6-3-11-1 1 4-5-3-5-1h-35l-1 2h-2l-1-10h2l1 3 39 1 1-4-3-9-5-3-14-1h-19l-1 8h-2l-2-22-6-34z"/><path transform="translate(753,454)" d="m0 0h2v30h-2z"/><path transform="translate(328,470)" d="m0 0h2l-1 22 41 2v1l-38 1h-3l-4-2z"/><path transform="translate(382,470)" d="m0 0h2l2 4 4-2h14v1l-8 1-9 4-4 4-4 25-2 13 5 2 9 2 5 4 6 10 4 15 8 21 9 4h5l4-1 9 3 3-1 1-2h2l1 8 8 7v2l-4-1-8-8-4-2-18-2-1-1h-5l4 14 7 16 15 15-1 5-8 3-3-1 8-4-2-5-11-11-5-10-6-16-2-8-12-35-6-13v-2l-11-2h-3-30l-5 3-8 5-2 3-1 15-3-4h-17l-2 1-1-4-2-1-1-11-2 1-1 3h-2l1-5 3-2v-2l-4 2-10 12-5 5-3 4h-2l-2 4-6 10-3 8h-2l2-9 10-14 2-2v-6l-6-10-13-7v-2l7 1 4 4 5 3 5 10v2l5-3 10-12 4-4 2-1-1-6-5-4-1-3h3l2 1v-3h2l2 5 2 17v9l4 4h17v-6l-17-1v-2l19-1 7-5h2v-7l-1-4-27-1v-2l14-1-1-6h2l2 6h38l5-6v-8l3-5 2-10zm-10 44-3 1-23 1-1 5 1 1h6v-3h2l1 4 18-1 1-1v-7z"/><path transform="translate(414,472)" d="m0 0 6 1 10 9 1 2-4-2-9-7-5-1z"/><path transform="translate(287,480)" d="m0 0h3l-1 3-12 7v-3l5-4z"/><path transform="translate(610,481)" d="m0 0h2v18h-2z"/><path transform="translate(431,484)" d="m0 0 4 2 10 10 2 8-2 1-3-8h-27v-2l21-1v-4z"/><path transform="translate(657,504)" d="m0 0h15l1 3-2 4-3-1 2-4-11 1-4 2 1-4z"/><path transform="translate(786,506)" d="m0 0h1v35h-2v-34z"/><path transform="translate(712,513)" d="m0 0h25l5 5 1 2v19l-3 1-1-18-1-5-2-1v6h-2l-1-5-3 1v23h-3v-15l-1-10h-4v2l-3-1h-11l2 24-3-1-1-5v-17l3-4z"/><path transform="translate(766,513)" d="m0 0 2 1 2 8v35l4-2 3 1-10 10-2 1-31 2-22 1h-22l1-2 48-3 6-1 21-1 1-2v-38z"/><path transform="translate(694,518)" d="m0 0h2v46h-2z"/><path transform="translate(574,519)" d="m0 0h4v2l-10 5-5 6-3 7-2-1 2-8 7-8z"/><path transform="translate(428,519)" d="m0 0 1 2-4 2v3h-8l-5 2v-4l5-1z"/><path transform="translate(580,520)" d="m0 0 7 1 8 7 3 6 1 10-3 7-4 5-9 5h-10l-6-3-5-4-3-6v-4h2l3 7 7 6 10 1 8-4 6-8v-11l-3-6-8-6-4-1z"/><path transform="translate(827,520)" d="m0 0h1l1 29 1 1 26 2 2 1-1 2h-50l-5 4-3 3 1-7-22-1 2-2 45-1 1-1z"/><path transform="translate(722,527)" d="m0 0h2l1 15h-12l1-2h6l1-1z"/><path transform="translate(570,528)" d="m0 0h11l5 3 4 4v10l-4 7-6 3-9-1-6-5-2-5v-7l3-6zm0 3-2 2v5l3 2 4-3-1-4-1-2z"/><path transform="translate(503,530)" d="m0 0 2 2-1 16h-2v-17z"/><path transform="translate(509,532)" d="m0 0h2v20h-3v-15z"/><path transform="translate(373,535)" d="m0 0h3l3 9 13 26 8 18 3 5-1 4-11-20-13-28-4-7-5 3-5 7-5 4-8 14-4 9-1 7v10l2 9 8 15 4 4v2l-4-2-5-5-3-5-3-7-2-8v-19l5-12 10-16 7-7z"/><path transform="translate(444,539)" d="m0 0h2l-2 4-10 8-4 3-8-1-10-4-1-3 4 1 11 4 6-2 9-8z"/><path transform="translate(624,542)" d="m0 0h1l1 16 1 4-1 1v11l6 2v1h-16l1-2h5l1-32z"/><path transform="translate(525,545)" d="m0 0h2v23h-2z"/><path transform="translate(427,559)" d="m0 0h3v16l-2-1-1-5z"/><path transform="translate(564,571)" d="m0 0 5 1 4 4h-7l-10 5-12 3-6 1h-26l-20-3v-2l15 1 7 1h23l16-3 9-4h2z"/><path transform="translate(665,572)" d="m0 0h5l-2 4-9 16-3 1 1-4h2l2-6 4-8z"/><path transform="translate(820,573)" d="m0 0h23l5 3h-3-24v23l1 6h30l8-1-1 3-2 1h-37l-2-4v-29z"/><path transform="translate(690,575)" d="m0 0h12l-6 7-3 2 1-7z"/><path transform="translate(850,579)" d="m0 0 5 5 4 11v3h-2l-5-13z"/><path transform="translate(245,580)" d="m0 0 5 1 13 11 4 3 1-3h2l4 13 6 12v3l-2-1-5-9-3-1-2-9-10-9-7-6-4-1-3 3-2-1 2-2z"/><path transform="translate(298,581)" d="m0 0h33v2l-11 1v11l2 11-2 1-3-8-2-13-1-2-16-1z"/><path transform="translate(290,592)" d="m0 0 3 1 4 14 3 7-1 4-6-10-3-10z"/><path transform="translate(458,593)" d="m0 0 12 2 8 5 32 5 19 2h39l29-3 7-3h3v2l11-1v6h-26l-16 3-3 2-9 3-10 9-5 13-1 4v19l4 9 3 5 4 1-1 4 5 2 2 3-6-2-5-5-5-8v-2l-5-2-6-7-7-10-6-5-12-6-10-4-6-11v-2l-5-2-11-6-6-11-6-4-11-3zm24 10-1 4 2 2 1 4h4l2-2h9v2h-7v3l8 6 5 1 3-5 1-5-7-1v-1l7-1-1-3zm31 6-6 13 1 2 8 1h-12l-1 4 2 4 15 6 9 5h15l4-10 1-5-1-1h-10v-2h12l8-7 9-7v-3zm22 38 1 5 5 9h3v-13l-1-1z"/><path transform="translate(654,595)" d="m0 0 2 1-5 9-1 6 3 8 3 4-4-1h-9l1 4 5 6-1 2-6-7-8-4 1-2 12-3 1-2-2-4-12 1 3-4 10-2 1-5-3 1h-23l1-2 29-4z"/><path transform="translate(804,599)" d="m0 0h1l-1 8-10 31-1-4 3-11z"/><path transform="translate(405,601)" d="m0 0 3 3 6 11 4 10-1 3-2-1-8-18-3-5z"/><path transform="translate(437,607)" d="m0 0h8l6 4 1 5h-3l-4-5h-11l1-3z"/><path transform="translate(819,612)" d="m0 0h11l1 5-1 1h-11l-1-5zm2 2v2h8v-2z"/><path transform="translate(681,612)" d="m0 0h2l-1 9-3-3-12-2v-2l13-1z"/><path transform="translate(625,614)" d="m0 0 3 1-13 9v-3l3-2v-4z"/><path transform="translate(471,623)" d="m0 0h10l5 5-1 2-4-3h-9l-5 2 2-4z"/><path transform="translate(629,623)" d="m0 0h2v2l-8 6-5 10-2 5v18l7 14 6 5-3 1-6-5-7-15v-18l5-12 6-8z"/><path transform="translate(683,623)" d="m0 0 5 3h7l1 3 3 3-6-1-6-2-7-1v-2h2z"/><path transform="translate(663,624)" d="m0 0 15 1v2h-3l3 6 5 5 2 4-5-1-2-4-3-1-2-5-2-3h-3l-3 6h-2l2-7-2-1z"/><path transform="translate(608,630)" d="m0 0h2l-2 9-2 8v15l2 8 4 11 5 5 3 4-4-1-8-9-3-9-3-11-4-3 4-1 1-11 3-13z"/><path transform="translate(735,630)" d="m0 0h17l3 2-13 2h-2v-2l-5-1z"/><path transform="translate(294,632)" d="m0 0 9 2 1 6 4 3 6 1-3 2-7 3-1-7-5-5v-2l-4-2z"/><path transform="translate(280,633)" d="m0 0 1 3-5 3-11 6-5 6-3 5-9 4-3-1 9-5-2-4-5-5 5 2 4 3h2l5-7 11-7z"/><path transform="translate(312,635)" d="m0 0 7 6h2l1-4h2l1-2 5 9h-14l-2-5-3-3z"/><path transform="translate(351,635)" d="m0 0h2l2 5 5 5 5 1v2l-7-1-6-1-12 2-4 3-6-7h21v-3l-3-1z"/><path transform="translate(407,634)" d="m0 0 3 1-1 5-5-1-2-1h-8l-9 7-4 5-9 3v-3l-4-2 6-3-3-5 4 2 1 1h7l1-5 9-2 1-1z"/><path transform="translate(634,636)" d="m0 0 7 1 4 6 1 4v13l-3 9-3 3h-8l1-3 6-1 4-6v-16l-3-6-6-1-3 3-2 4v16l2 6-4-2-1-2v-19l5-7z"/><path transform="translate(462,646)" d="m0 0h13l8 5 3 3v2l-4-1-5-4-2-1h-13l-11 7-2 5 1 7h-2l-3-5-5-2h-10l-8 5-4 3v-3l5-5 4-3 8-2 11 2 3-5 11-7z"/><path transform="translate(851,647)" d="m0 0h8l5 5 3 4v11l-6 8-1 1h-9l-5-4-3-6v-9l5-8zm-1 3-4 5-1 3v7l4 7 2 2h7l5-4 2-4v-8l-3-6-3-2z"/><path transform="translate(747,650)" d="m0 0h7l6 4 2 4v13l-4 6-2 2h-10l-5-3-3-5v-12l6-7zm2 2-6 3-3 7 1 9 5 6h9l5-6v-13l-6-5z"/><path transform="translate(230,653)" d="m0 0 2 1-3 5-6 7-2-2 4-6z"/><path transform="translate(566,655)" d="m0 0h19l10 1v1h-29z"/><path transform="translate(291,663)" d="m0 0h10l6 4 1 3h2l-1 4-7-7h-11l-5 3-1 7-4 1-13-3v-2l12-1 7-7z"/><path transform="translate(517,671)" d="m0 0 11 1 2 1v2h2l-1 3-3-2-12-2z"/><path transform="translate(648,672)" d="m0 0 1 3-7 10-9 1v-2l8-3z"/><path transform="translate(344,676)" d="m0 0h11l8 6v4l-7-6h-13l-5 7h-2l1-5z"/></svg>
