<?xml version="1.0" encoding="UTF-8"?>
<svg version="1.1" viewBox="0 0 1024 1024" xmlns="http://www.w3.org/2000/svg"><path transform="translate(604,266)" d="m0 0h12l5 4 8 4 6 7 4 9 3 9v5l14 11v28l4-2 10-8 3-7 6-12 5-4 7-5 3-1h8l11 6 7 6 4 9 1 6 4 3 7 1 1 1v60l19-10 9-6h7l21 10 10 4 9 5 1 1v37l8 1 14 7v50l9 2 19 7v59l29 1 5 3v9l-2 2h-25v2h11l7 3 7 6 8 15 5 15v4l9 2 5 4 3 10 1 29 4 3v17l-4 3-4 13-6 9-10 9-10 3h-20l-12-3-8-6-4-2-9 3h-16l-12-3-10-6-2 6-5 6-9 6-10 3h-15l-14-2-9-4-5-2h-11l-12-2-5-2-12 2-32 6-11 1h-24l-27-1h-11l5 6-1 4-9 4-23 5-32 3-7 4-11 2-13-1-9-3-7-1-28 3-43 2-4 4-8 2h-21l-16-4-6-5-53-2-8 3h-16l-6-2-3-3-20-3-14-3h-6l-4 2h-16l-7-3-5-4-25-5-10-4-1-4 5-4 11-5 4-2 1-3-17-6-5-3-1-4-12-2-11-1-8 1h-15l-14-12-9-9 2-12 11-44 7-8 8-8 7-8 9-7 24-6 1-27 5-5 20-16 8-6 6-1-1-3v-7l7-17 6-15 10-9 11-7 11-8 12-8 8 1 27 8 4 2v-2l-4-4v-13l7-66 1-25v-34l3-6 12-16 13-16 5-3 17-2 15-1 7 2 4 5 5 15 22 13h11l11 7 9 6 17 11 36 24 12 1 7 6 4 11 2 12 6 7 8 16 1 5 4-4 2-5-3-4 1-9 7-6 7-2 18-2 4-1 1-76 6-2 5-5 2-10 5-9 8-7 6-4zm2 2-5 2-3 5-3 12 1-13h-2v2h-2l-1 9h-2v-4h-2l-5 12v6l-6 4 1 2 6 1h33l13-4 10-1 1-2h-11l2-6 5-2-3-9-5-5-4-1-6 8-3 9-1-1 4-10 4-6 1-3-7-2-4 5-4 10-1 5v8l-11-1h8l2-7 5-16 3-4-1-3zm-256 8-16 2-10 10-7 9-6 7-6 8-2 5v25l5-2 1-3-1-2 1-9 3-4 9-2-7 3-3 3-1 3v8l1 2 13 2 1 3h2l-5 51v9l-5 50-2 5-5 3-1 16-2 19 5 1 23-1 3 1 17 1 5 5h2l5-25 4-28 9-51 3-21-1-5-4-4 26 14 12 7 8 4 18 10 14 8 15 8 12 10 8 10 14 29 2 6 1 2h2l6-27 4-15 7-16-2-6-8-18-9-10-3-1v-2l-12-6-23-9-9-3-22-8-10-3-25-9-11-3-14-5-9 1-4 4v2h-2l-1 3v10l6 8v1l-5-5-3-7 1-8 4-7 8-4 8 1 5 1 1-3-6-19-5-23-5-13-4-3-4 2-22 28-7 8-1 3-1-4 4-2 13-17 13-16 1-2zm284 17-2 1 1 4h4l-1-5zm-254 6 3 11 14 9 7 4h5l2-4-1-4-19-11-7-5zm250 4-17 5h-24l-16-2-3 2v73l3 1 34-2h26l1-1v-12h2v12l2 1 15 1 1-1v-64l-13-10-4-1v48h-2v-49zm64 4 2 4 4 9v4l-4-11-3-4-5 1v4h-1l-4-2-5 6-1 7 2 2-4 1 2 3-3 1v2l10 1 11 3h15l12-1 3-1-1-3h-25l1-2h10l1-1-1-12-3-8-3-3zm-286 3v2l5 3-2 6-4 5-2 1v3l21 12 20 13 14 8 14 5h6l6-7-2-4-14-9-10-7-19-12-10-7-15-10-5-2zm301 1 3 14 2 6h7l1-4-3-8-4-2-1 1-2-6zm-324 4 2 9 4 14 9 4 24 8 17 6v-2l-14-9-15-9-11-7-4-8-10-6zm16 9 1 3h2v-3zm269 12-1 1v46l1 1 21 3 8 4 2 4v9l-1 3 3 16 7 44 2 10 1 1h10l1-1 1-13 3-6 7-7 7-2h5l2 6v10l-6 2-3 3v8l1 1 12 2 5 4 2 6 2 10 4 1 13 1 4 3 5 3 4 5 4 11 1 5 1 20v21l5-2 7-4 50-1 1-1 1-56-9-4-15-5h-4v46h-2l1-97-7-4-5-2h-3l-1 2-1-3h-16l-14 1-4 1-1 15v33h-2l1-49 3-1 27-2 1-1v-36l-16-8-10-4-12-6h-3l-2 98v-98l-4 1-10 6-11 6-6 4-1 1v-63l-1-1h-9l-13 2h-20l-9-3zm-4 3-11 10v32l1 1 11 1 1-2-1-42zm-357 2-4 4-6 50-1 16-3 29v15h3v-2l14 1-1 4h2l2-3 5-48 3-33 1-16v-14l-6-3zm183 18-6 4-4 5 1 3 13 5 10 6h2l-1-10-4-8-5-4zm-106 17-2 7-1 10 16 10 16 9 25 15 9 6 7 6h2l2 4 7 10 13 31 7 19 5 11 14-1 3-28-1-5-8-18-9-19-10-13-9-7-16-9-11-6-18-10-12-7-12-6-8-5zm223 5-56 5-13 2-5 3-2 4v6l2 2h15l63-4 8-1 1-2 1 2 13 2 32 3 30 1 2-3-1-7-5-4-24-4-40-5h-9-3zm-226 15-2 5-2 12-2 16-8 45v5l10-5h14l13 1 6 3 11 10 8 7 6 7 4 17 8 4 5-1 11-6h11l12-2-1-7-14-35-5-12-9-16-7-7-16-10-10-6-11-7-11-6-10-6zm229 5-60 3-13 1-6 7-7 14-7 19-6 28-4 28v12h28l85 1 7 7 3 5 3 11 1 7 1 27 4 4h14l11-1h11l-21 1h-19v15h8v2h-11l-8 1v-2h8l1-1v-29l-1-18-2-13-6-10-8-4h-20l5 5 5 6 3 10 1 7v41l-1-42-2-12-6-9-5-4-4-1v2h2l1 6-9-3-9-2-1-4h-84l-19 2-3 4-12 3-3 1h-4l-4 7-2 11-1 13v27l5 3 29 7h4l-2-4-2-3h-5l5-5v2l2 4 7 5 13 4 7 1h22l20-4 15-8v-3l-1-2 6 3 2 3-5-1-4 4-1 8 1 1-4 2-6 9-11 7-11 3-10-1-10-6-5-5-5-9-1-1-26-4-22-6-10-2-4 6v8l9 9 18 4 8 6 19 3 25 3 14 1h40l26-2 13-2 5-5 2-5v-12l-4-5-4-1-17 3h-7l24-4 1-3 3 3 9-1v2h-7l2 5 1 3v10l-4 9h11l39-5 3-1 9-15 5-9v-2l-10-1 13-1 7-3 20-1 4-1h18l32-2 7-2h2l5 1 13-1 2-1 1-10-1-36-2-11-6-9-8-5-5-1h-11l6 7 5 14 2 16h-2v-12l-4-14-6-8-4-3-15-1h-30l-1 1 1 22 1 52h-2v-64l-5-42-7-45-1-9-3-12-1-1h-7l-1 4-2-5-20-2-22-1-15-1zm130 49-11 7-4 5-1 4v11l1 1 9 1 2-6 3-7 7-4v-8l-3-4zm-486 3-9 7-29 20 1 4 11 9 8 5 5-1-2 2-5-1-13-9-6-5h-2l-5 12-3 7-5 15 3 7 24 3 10 4 3 1 1-2 3 5 8 4 7 14h3l9-11 7-9 5-3-1-7-6-4-2-5v-10l3-5 2-4-3-7h2l1 5 2 4 9-1 2-6 2-19v-6l-4-4-9-3-20-6zm44 2-1 3-2 22-1 9v9h8l1-1 4-34v-7l-1-1zm81 21 2 4 4 5-8-8-5 2-6 5-7 40v5l1 1 13 2 5 3 6 8 3 6 4 15 9 26 9 3 4 2 5-1v-2l7 3 9 2 4-10 3-3 1-29 2-17 3-9-1-5-5-2-6 1-24 8 1 3 11 5-7-2-9-4-5 2-6 5 3-4-2-6 1 1 2 3 4-2 24-8 9-4-2-13-3-6h-29l-3 7-1 10h-2l5-18 26-1-2-4-7-7-11-9-3-2-8-1zm331 5 1 17 2 3 43 1 2-5-1-2-1-7-5-5-2-1-13-1zm-424 19-4 5-1 2v8l2 5 2 2-1 3 1 15 1 3v7l4 5h20v-9h-20v-2h21l2-1v-2l5-2 5-4-1-11-1-1h-31v-2h18l-3-9 1-7 2-4-1-1zm25 0-3 3-2 9 3 8 2 1h41l5-5 1-2v-8l-3-5-3-1zm-32 1-4 5v8l3 5 3-1-1-4v-7l2-6zm46 22-1 1v5l2 2h5l1-1v-6l-1-1zm31-3-3 2-19 1-1 1v6l1 1 22-1 1-10zm-161 7-16 12-6 4-9 9 18 5 9 1 13-11 6-4-15 13-4 4 1 14-3-13-6-3-19-5-2 2-1 13v11l11 9 6 4 17 1 21 3 11 9 7 7 5 2v-18l3-15 3-6 10-14 3-3-2-7-5-9-15-9-7-3-25-3zm146 6-13 1-6 5-5 2-4 5-1 4v14l1 2-2-1-2-7h-18l-5 5v2l-9-1v-15l2-7 5-4-1-3-4 1-13 16-9 10-7 9v2h-2l-5 11-2 6v5l1 1 22 1-23 1-1 1v11l3 11 8 16 9 10 10 8 4 1 13 1 8 7h4v-2l-7-5 5 3h2l1-3 17-1 2 4 7 7 5-1 1-2-8-4-11-9-9-10-6-12 6 9 8 11 11 9 5 3 2-1v-3h18l8 7 4 4 6-1 2-5-10-4-9-4-5-2v-3l9 6 13 5h7l8-3h12l13-5 5 3 7-1 11-5-1-4-13-12-5-8-7-18-6-20-7-21-6-17-6-12-6-3-5-1-8 9 4-6v-3zm-59 8-3 5-1 7v10l3 1 2-2 1-10v-10zm3 12v9l3-2-1-5zm522 14-5 3-10 10-2 1-13 1-74 3-17 1-7 10-6 11v2h-2l-9 16v8l4 7 4 4 26 3 4-1-5-9-3-1-19-2-3-2v-7l4-5-3 5v7l1 1 10 1h15l11-28 4-11 1-3h-22l-6 9-5 9-2 2 11-20 2-1 26-1 6-1 23-1 49-1 23-1 5-3 8-14v-2zm31 0-6 4-8 12-3 3-12 1-77 3-12 1-5 3-4 7-6 17-6 14-1 9 5 6 8 2 4-8 14-35 6-3 48-2h29l2 7-10 39 3-14 6-26-1-4-1-1h-25l-3 8-4 18-4 16v4h-2l5-19 3-13 2-13h-27l-3 8-6 22h-1l7-25-1-4h-18l-5 5-5 12-9 22-2 4 1 4 12 5 8 3 4-1 2-4 7-1 4-1 24-1 14 5 7 5 2 3h2l2-8-1 11h18l7-23 5-17 7-21 3-11 4-11 3-5 4-2 34-1 7-1 1-1v-5l-2-2zm10 15-3 5-2 7-2 10-2 1-4 15-9 28-5 18-3 3-14 1v3h35l1-1v-55h2v56l3-3 5-10 7-6 2-1v-2l11-3h22l13 4 8 6 6 9h1v-16l1-1v-8l-3-1h-2l3-1-1-9-3-3-6-2h-4l-3-11-5-13-5-10-4-5-8-4-7-1zm-689 0-23 5-5 4-7 8-15 15 1 3 18 9-5-2-13-6h-4l-4 16-8 34 1 4 10 10 8 7 3 2 20-1 1-1v-48h2v48l2 1 22 1 4-10 9-10 7-6 8-1 19 1 12 7 4 3 7-9 9-6 9-4 3-8 1-4-7-9-5-8h-2v16l-1-23-13-13-8-7-4-2-11 12-7 8-12 13 1 9 3 14h-2l-1-10-2-11-3-2-25-6h-4v-2l29 7 4-1 9-9 7-8 12-13v-2l-29-3h-8l-17 12v-1l15-11-2-4-10-8zm399 9-8 4-5 2-18 2h-24l1 6 8 8 5-1v1l-1 3 6 2h12l7-3 9-6 1-3h-10l-8 4h-1v-2h-8l3-1h10l4-2h12l6-8 1-5zm-156 3 2 9 9 25 19 19v3l-15 6v3l2 3-6-5-5-2h-8l-6 3 1 5-8-4h-8l-8 5-5 6-2 3-7 2-3 3 1-5-3-1-11-1-6-3-5 1-2 1-12 1v4l-8-7-3-1h-14l-9 3-6 5 2-4 3-3-10-11-11-8-4-1-3 5-1 6-9 3-9 5-5 6-2 5-6 4-10 4-5 8-3 5-12 6-8 9-16 7-2 3 7 3 23 5h6l5-8 5-3 7-1 8 3 5 5 2 8 11 3 24 4h6l4-6 4-3 6-1 9 3 3 4 3 5 3 1 51 2 4-2 6-8 8-7 6-3h11l10 5 5 7 3 9h32l23-1 19-2 4-10 5-5v-2l4-2 8-3h9l6 2 6 5 4 12h15l22-3 21-5 3-2-2-4-7-7-11-7-11-6-4-5-7-11-8-6-8-13-7-7-14-7-12-4-7-14-9-6-8-4-7-13-8-5-17-4-9-9-5-3-4-1h-14l-6-3zm73 27-1 3 3 4 8 2 5 1 17-2v-3l-27-4zm182-2v2h-24l-8 1v2h3v2l-10-1h-15l-18 3-8 3v2h-6l-9 6-8 9-1 3 1 1 17 1h-19l-2 6-2 9v15l3 9 6 10 4 1 33 2h16v2l-50-3 2 4 8 5 8 4 4 3 16 2 34 2v-3l-6-4-9-10h-2l1-4-4-9-2-10-1-1h-5v-2h5l3-18 1-7 4-5 6-8 5-5v-2l-7-1h12l15-5v-2l11-1 2-4-1-2 3-1v-1zm-146 8-3 8-4 9 1 1 32 2h14l6-5 5-5 9-6 3-3h-42zm-33 3v2l5 1 1-3zm178 0-17 4-8 4-11 10-5 12-3 14 1 16 4 12 4 8 11 10 11 4 14-1 27-5 15-3v-4l-4-4-13 2-16 3-21 1-9-2-6-5-6-12-2-7v-17l4-12 6-9 5-4 13-4 11-3 1-2-4-6zm-167 2-3 1v2l6 4h2l2 4 5 1 4-5 2-7zm168 9-5 1 2 4 6 5 4 8 2 8v20l-3 11-7 10-3 3 1 1 11-1 22-4v-3l-7-6-3-7-2-8v-18l3-12 2-3v-3l-12-3-3-3zm-14 3-8 5-6 7-5 13v19l5 13 6 7 5 3 6 1 7-3 8-10 4-11 1-17-3-12-7-10-8-5zm-144 2 1 6 4 4 13 4 11 6 1 1 16 1 5-15v-4l-36-2zm184 2-5 8-2 5v24l5 12 7 6 4 1 1-2-3-8-2-10-1-2v-16l4-8-1-5-4-5zm6 0 2 4 8 9 3 2 21 2h9l2-4-13-6-6-2-7-3-14-2zm180 2-10 4-7 6-6 12-2 9v10l3 12 5 8 10 8 10 3h5v-2l-8-6-6-10-2-7-1-6v-8l2-12 7-11 7-6 3-2v-2zm22 0-9 2-9 6-6 7-5 10-1 5v14l3 9 6 10 8 6 7 3h11l9-4 8-7 5-8 3-11v-12l-4-13-6-8-6-5-11-4zm-137 3-12 4-7 6-7 14-2 12 1 11 5 12 7 8 10 5 11 1v-2l-8-6-5-7-4-13v-15l4-13 7-9 9-6v-2zm17 1-8 2-5 3-6 7-3 3-4 10-1 7v9l1 9 4 8 6 7 5 4 9 3h10l9-3 7-6 6-8 3-8 1-15-2-12-3-6-9-9h-2v-2l-9-3zm-495 3v3l7 7 9-1v-3l-7-6zm26 0v3l4 5 4 3 15 1-2-4-7-7-2-1zm33 0-4 2 6 7 3 3 5 1h13l-2-4-8-8-2-1zm358 0-4 5-2 6 1 13 2-4 4-10 3-4-1-4zm5 7-3 4 1 3h11l1-3h2v3l15 2 3-1 1-5-19-1-8-2zm-513 2-8 7-8 8-5 12 1 5 8 4 9 2h2l3 1 17-9 4-10 10-5 7-3-5-5-8-6-3-1zm349 4 2 5 6 11 4 1-1-16-1-1zm388 1-1 2 2 14h3v-14zm-224 1-2 2 1 11 4 2 22 3 1-1 2-13-2-2zm108 3-1 3 2 11 1 1h33l1-1 1-13-1-1zm-114 1-1 4v11l3 10 7 9 6 5 7 2h5v-2l-7-6-5-9-2-11-9-2-2-11zm15 14 1 9 5 10 7 6 8 3h5l-2-4-5-12-2-9-2-2-5-1zm101 2-2 5-1 8 9 7 2 1h9l-5-5-4-6-4-10zm7 0-1 4 6 10 7 6 5 2h11l5-2v-4l-4-9-3-7zm-600 29-8 4-4 6-1 5 7 3 5 1h9l8-3v-6l-4-6-9-4zm292 3-10 5-6 5-4 7v5l6 2 11 2h10l9-2 5-5v-6l-4-6-8-6zm-125 5-6 3-11 10-4 6 1 4 9 3 6 1h23l7-2 1-1v-7l-5-10-6-5-5-2zm-100 6-6 5-2 6 2 2h23l1-5-4-6-4-2z"/><path transform="translate(312,314)" d="m0 0h19v2h-19z"/><path transform="translate(373,344)" d="m0 0h7l4 5-1 9-4 3-7-1-3-4v-3h2l2 4 6 1 2-2v-7l-2-3h-7z"/><path transform="translate(630,403)" d="m0 0 2 1-2 16-4 33-1 12h-2v-11l4-34z"/><path transform="translate(597,408)" d="m0 0h12l7 3 2 4-1 13-3 26-3 42-3 6-6 2-47 1-29-1-5-2-3-5v-9l5-30 5-19 3-10 7-13 5-4 13-2zm-16 3-33 2-6 2-4 5-5 10-4 12-6 27-3 21v7l3 4 5 1h69l9-1 3-4 1-6v-20l3-33 3-22-4-5z"/><path transform="translate(644,412)" d="m0 0h16l19 2 3 3 2 7 3 34 1 16v24l-5 4-11 1h-36l-4-4 1-45 4-28 3-11zm0 2-3 4-4 20-3 32v28l3 3h31l14-1 4-3v-19l-3-43-2-15-5-5-4-1z"/><path transform="translate(690,416)" d="m0 0h1l4 32 4 43 2 35v22l-1 14-3 7-3 3-7 2h-7l-1-2 12-2 5-5 1-2 1-16v-20l-2-36-5-53-1-9z"/><path transform="translate(264,483)" d="m0 0 3 1-18 11-2-1 15-10z"/><path transform="translate(621,483)" d="m0 0h2v23l-2-1z"/><path transform="translate(673,510)" d="m0 0h15l2 2-1 5-1 1h-5l3-2h2l-1-3h-14v4l-3-1 1-4z"/><path transform="translate(815,512)" d="m0 0h1l1 42h-2z"/><path transform="translate(734,521)" d="m0 0h27l4 2 2 5 1 8v14l-4 2 1-2v-15l-2-10-4-2v10h-1l-1-8-5-1 1 8 1 21-1 1h-21l-4-4-1-13v-11l3-4zm3 2-2 1-5 1-1 1v12l1 12 3 3 4-1-1-14h2v13l4 2 2-2v-16h2v17l4 1 1-1v-21l-2-7-4-1-1 4 1 6h-2v-7l-2-3z"/><path transform="translate(582,528)" d="m0 0 11 1 6 4 5 6 3 7v9l-3 8-5 6-8 4-9 1-8-3-7-6-3-5-1-4v-13l6-9 7-5zm-2 2-8 5-6 7-2 10 3 10 8 7 5 2h9l8-4 5-6 2-4v-13l-5-9-10-5z"/><path transform="translate(461,529)" d="m0 0h12l6 4 5 10v12l-4 8-6 5-4 2-10-1-9-8-2-7-1-7 3-9 5-6zm3 1-8 5-5 8v11l4 8 6 5 7 1 4-1v-2l-9-3-4-6-1-8 3-8 6-3h11l-4-5-5-2zm9 11-2 3 1 4 4 1 3-2v-6z"/><path transform="translate(507,534)" d="m0 0h29l14 2 5 5 1 6-1 22-3 14-6 4-11 2h-25l-16-2-6-4-3-7v-26l2-8 5-5 6-2zm6 2-1 3-3-2h-9l-6 2v5l-1 1v-5l-3 1-2 5-1 7v20l3 9h2v-7h2v8l2 2h4v-8h2v8l6 2 1-10 1 9 7 1h3 15l1-3h2v2h5l2-2v-5h2v4l3-1 2-5 1-7v-28l-2-3h-3v7h-2l1-7-4-2h-4l-2 18v25h-2l1-25 1-18h-7l-1 1v15h-2l1-16-1-1h-6l-2 7-1 12v-19z"/><path transform="translate(581,536)" d="m0 0 7 1 6 4 3 3 1 3v9l-4 7-8 4-9-1-6-5-3-9 2-9 5-5zm-6 5-1 1v6l2 2 4-1 2-5-2-3z"/><path transform="translate(501,540)" d="m0 0h2l-1 20h-2v-13z"/><path transform="translate(510,540)" d="m0 0h1l-1 25h-2v-16l1-8z"/><path transform="translate(359,543)" d="m0 0 1 2 1 6 16 32 6 14 8 16-1 3-16-32-8-18-8-15-4 2-7 9-9 11-8 14-3 11-1 10 2 13 7 16 9 10h-3l-8-9-1-4h-2l-5-13-2-11v-12l3-8 8-16 8-11 9-10z"/><path transform="translate(438,549)" d="m0 0 2 1-16 13-5 4-6-2-10-4-6-3 3-1 15 6h5l13-11z"/><path transform="translate(526,555)" d="m0 0h2v27h-2z"/><path transform="translate(418,571)" d="m0 0h2l1 9v10h-2l-1-10z"/><path transform="translate(854,588)" d="m0 0h26l5 3 7 8 5 14 1 12-5 1h-39l-1-1-1-13v-22zm1 2-1 1v18l1 14 1 1h32l8-1 1-3-4-13-6-12-4-4-3-1z"/><path transform="translate(272,597)" d="m0 0h39v1l-14 1v12l3 14-1 3-4-12-2-17-21-1z"/><path transform="translate(265,608)" d="m0 0h2l4 16 6 13-1 2-7-12-4-13z"/><path transform="translate(392,618)" d="m0 0 3 3 12 26-1 3-6-12-8-17z"/><path transform="translate(431,625)" d="m0 0 7 1 5 4 2 3v3h-2l-3-5-5-3-7 1-4 2 2-4z"/><path transform="translate(853,632)" d="m0 0h14l-1 2-12-1v3l13-1v3h-14l-1-5z"/><path transform="translate(467,644)" d="m0 0h9l6 4 2 5-6-5-3-1h-7l-7 4 1-4z"/><path transform="translate(648,658)" d="m0 0 5 1 3 2v3h2l2 6v15l-4 10-4 3h-6l-7-8-1-3v-17l5-9zm0 2-4 2-4 9v15l4 8 2 2 7-1 3-4 2-7v-13l-3-8-4-3z"/><path transform="translate(458,669)" d="m0 0h11l9 5 5 5-1 3-7-7-6-3h-11l-10 5-5 4-3 4 1 4 3 6-3-1-3-5-6-3-8-1-8 3-6 5-2 3h-2l2-5 7-6 10-3 10 2 3 1 2-4 4-4 9-6z"/><path transform="translate(892,670)" d="m0 0 6 1 5 4 4 8-1 10-4 6-5 3h-8l-5-3-4-8v-9l4-8 4-3zm-3 3-5 5-2 6 1 9 5 7 6 1 6-3 4-6 1-7-2-7-6-5z"/><path transform="translate(773,674)" d="m0 0h7l6 3 4 7v12l-5 8-4 2h-9l-5-3-4-8v-9l4-8zm1 2-6 4-3 8 1 9 5 6 2 1 9-1 5-6 1-3v-8l-3-6-6-4z"/><path transform="translate(198,677)" d="m0 0 2 1-11 14h-2l2-5z"/><path transform="translate(571,679)" d="m0 0h14l19 1v2h-18l-15-1z"/><path transform="translate(267,688)" d="m0 0h9l6 3 4 5 1 3-2 1-4-6-4-3h-11l-6 4-3 5 2 6-4-2-3-2-14-1 2-2h14l7-8z"/><path transform="translate(519,697)" d="m0 0 9 1 6 4-1 3-5-4-9-1-5 1 2-3z"/><path transform="translate(329,702)" d="m0 0 8 1 6 4 4 5-1 2-4-5-5-3-8-1-7 2-2 4-3 4h-2l2-5 8-7z"/></svg>
