<?xml version="1.0" encoding="UTF-8"?>
<svg version="1.1" viewBox="0 0 1024 1024" xmlns="http://www.w3.org/2000/svg"><path transform="translate(387,214)" d="m0 0 14 1 21 7 14 6 23 8 9 4 13 4 12 5 10 4 16 6 19 7 18 7 16 6 15 6 22 8 12 5 13 5 17 7 13 4 25 10 13 5 18 7 23 9 17 7 10 4 10 3 21 9 5 5 3 5 3 8 3 4 2 7v10l-4 29-1 5 22 4 10 5 5 6 3 7 3 22 1 15v133l4 1 4 4 3 6v26l-2 7-4 5-12 5-1 1-7 1-1 8-3 14-4 12-8 14-11 12-12 6-5 1h-30l-15-3-9-4-6-4-10-13-6-15-1-3h-7l-26 6-20 5-17 3-15 1-3 20-6 17-8 16-7 10-7 8-15 9-16 4h-34l-25-4-12-5-11-9-8-11-11-22-10 1h-74l-40-3h-8l-9 11-9 8-10 5-11 3h-37l-14-3-13-4-8-5-10-9-5-6-3-3-7-15-1-6-5-2-13-5-16-8-7-9-4-10-1-10v-19l1-9 5-11 4-5 6-4 15-5 1-53 2-9 3-31 3-15 4-9 8-10 7-8 4-18 6-26 10-40 5-18 4-15 4-8 8-11 11-8 7-3 15-4 5-9 3-14 2-10-8-1-23-7-5-5-3-7v-10l3-12 3-8 9-23 3-10 6-14 5-4 4-1h17l5 1h43l16-1 6-3zm-2 5-7 6-8 14-13 28-9 20v8l3 5 5 4 6 1 1-4-2-5h2l1 5 7 6 50 16 17 5 13 4 3-1 3-8v-5l-11-5-18-5-42-14-5-3v-11l7-16 4-9 5-13 3-4 10 1 27 9 16 6 19 7 10 4 10 3 12 5 25 9 30 11 15 6 10 3 12 5 23 8 12 5 25 9 8 4 24 8 8 4 13 4 20 8 19 7 9 4 9 2 20 9 4 3 13 2 1-4-3-5-10-6-20-7-11-5-12-4-15-6-3-2-13-4-17-7-16-6-15-6-12-4-11-5-22-8-15-6-11-4-49-19-32-12-29-11-28-11-16-6-17-6-20-8-7-2h-5l-4 2-1-3zm-88 3-8 5-5 13-4 10-4 11-5 15-5 13-1 9 5 8 8 4 20 5 22 7 12 3 29 9 20 5 15 5 29 1h19l5-7v-4l-2-1h-38l-34 1v-2h24l31-2-1-3-16-5-9-3h-43l-28 1v-2h23l29-2v-3l-33-8h-13l-22 1h-27l-4-2-1-3v-8l4-4 6-2 5-16v-5l-4-4 2 1h37l20-1 4-4 2-6-1-1-13-1 16-1 2-3v-3l-13-5h-20l-10 1 2 5-1 5 1 1h19v2h-27l-17 1-1 3h-2l4-4 6-2 3-7-1-5-3-2v-9l6-2-1-2h-6l-4 3-1-4zm43 4-23 1-9 1-2 2 1 5 1 1h26l36-2 3-4-1-4zm21 12v2h5l1-2zm41 2-2 1v5l9 4 9 2 3-5-1-3-11-4zm-89 1-2 2-1 6 4 2 6-2 2-2-1-4-3-2zm111 6-5 8-7 19-4 10 1 8 3 7h3l11-25 7-15 2-3-1 3v12l7 28 3 11 8 4 3-1v-7l-9-38-4-16-11-4zm-24 2-1 1 1 7 2 4 6 3h5l3-6-2-5zm-5 5-3 3-3 10 1 10 3 12 3 5 4 3 7 2 1-5-5-17-4-16-2-7zm51 0-1 3 3 5 5 3 13 4 7 2 3-3-1-4-27-10zm-129 11-6 10-4 10 1 3 11-1 4-5 5-10 1-6-1-1zm22 0-1 5 4 13 4 2 3-6v-8l-1-6zm11 0 1 4h3l1-3zm53 0-1 5 3 7h4l2-5v-5l-4-2zm47 0-2 3 3 9 12 5h7l2-3v-6l-10-4zm-145 1-5 8-3 13 5 1 5-7 5-12-1-3zm28 0-8 15-1 4 2 2h12l1-1-1-11-3-9zm147 1-5 8-8 18-6 12-1 4h3l9-9 6-3 6-7 4-11v-2h3l-1 6 4 13 7 6 6 5v-10l-7-22-6-4-10-4zm-50 4-3 4-6 15-4 9 2 4 18 6h4l-2-11-5-21-2-5zm-44 5-3 4-1 9 5 4 5-1-2-10-3-6zm118 0 1 6 9 4 15 5 6 1 1-4-6-4-21-8zm-51 5-1 3 3 16 3 5 2-1 7-17-3-3-8-3zm53 5 1 9 8 4 12 4 4-1 2-4-1-4-16-6-6-2zm-20 1-2 5 1 4h5l1-4-2-5zm54 1-8 16-8 19-4 10 1 4 10 1 6-12 5-13 5-12 2 3 3 16 2 12 3 13 3 4 6 1 1-5-3-19-2-13-3-17-4-3zm-217 1-35 2-2 2v9l2 2h42l17-1 1-5-3-8-1-1zm239 8v5l15 6 6 2 2-2-1-4-19-7zm-82 2-1 4-5 1-10 8-4 9-3 10v3l29 2 10 1 1-5 2 4 5 3 5 1 1-1v-11l-3-15-6-9-5-3-7-2zm31 0-2 3 8 26h3l9-20-1-3zm52 7v6l4 4 10 4 4-2 1-6-15-6zm25 1-7 15-6 15-5 12 1 4 7 2 4-4 5-12 6-16 4-7 2 14 7 32 3 3 7 1 1-5-7-32-3-15-4-3-13-4zm-42 2-5 9-6 16-1 6 5 3 10 3h5l-1-14-4-22zm65 6v4l4 3 16 5h3l-1-5-9-3-10-4zm-45 4-1 2 3 18h4l4-9 1-8-8-3zm-258 3-5 8-2 11 1 4 6 1-8 3-3 3 1 3 48-8v-2l-27-1 13-2 1-1-1-9-3-5-7-3-10-2zm306 1-2 1 1 7 5 3 8 2h5l2-5-6-4-11-4zm24 2-5 10-5 15-5 11-1 6 4 2h5l5-12 8-20v-3h2v7l7 36 7 3 2-1-1-8-5-25-1-10-2-5-12-6zm-44 2-7 14-4 11 1 5 12 3 5 1 1-1v-9l-3-13-1-8-2-3zm-261 2 1 12 1 1h9l1-3-3-7-5-3zm325 4v4l10 4h5l-1-4-12-4zm-308 2-1 5 4 5h13l7-1v-3l-19-6zm264 0 1 11 4 16 3-1 6-17 1-4-8-4zm-157 2-6 3v4l1 1 29 2 24 3h9v-4l-8-4-12-3-16-2zm59 1-1 4 2 6 4 4 29 5 17 2 20 4 4-1-1-2-8-3-16-4-24-8-12-3-12-4zm143 2-1 5 2 3 5 2 5-1 1-4-10-5zm18 0-4 8-7 18-2 9v6l5 1 4-8 6-17 3-10h1l3 24 4 17 5 3 3-1-2-17-5-22-1-6-8-4zm-34 5-4 8-6 16 3 4 9 3 5-1-1-8-4-21zm52 1v4l8 4 7 2v-4l-13-6zm-313 1-33 3-43 6-15 2-15 5-10 5-9 8-4 7-9 27-6 26-8 29-2 11-8 33-7 8-6 7v3h5v2h-6l-4 4-3 16-1 9v15h3l8-5h16l6 3 6 4 2 3h2l3 10v15l-2 9-7 8-13 4h-8l-11-4-6-7h-2v41l8 5 12 4 5-1v-3h2l1 5 2 2 12 2h5l1-1v-16l-2-4-4-3 6-1 6 4 3 9v15l30 5 23 3 49 4h18l1-1 1-14 5-8 5-3h13l6 5 3 5 2 15 1 1h32l20-2 1-1v-40h2v38l1 1h11l14-4 4-5 1-8-7-5v-2l3 3h6l10-17 5-8 5-5 8-9 6-5v-2l6-2 12-7 7-3 5-1h26l9 2 16 8 9 5 6 8 4 4 5 6 2-1 1-11v-83l-2-12-4-14v-24l-1-42-3-41-4-14-6-10-8-6-7-4-4 1 9 14-6-8-9-9-9-3-44-8-42-5-16-2h-10l-1 2-7-3-20-2zm278 5v7l2 7 4-1 2-10-3-3zm36 2-1 3 2 4 6 3h5l2-3v-3l-11-4zm19 1-2 4-6 15-6 16 1 3 6 1 5-10 3-10 3-7 1-5h1l3 22 3 16 3 3 5-1-1-9-6-32-2-4-7-2zm-35 5-3 7-4 12 1 5 8 4 4-1 1-4-4-21-1-2zm52 0v4l10 4 4-2-8-4zm-34 5-1 1 1 12 2 5h2l5-13-1-3-5-2zm-90 2v2l12 7 7 10 16 5 17 5 23 7 17 5 22 7 8 2h6l3-4-1-5-9-4-13-4-25-8-9-3-28-9-17-5-21-7zm124 0-1 2 3 5 4 2 5-1 1-4-4-3zm17 0-4 9-8 21v6l5 1 6-12 3-10 2-7 2 1 1 7 4 1 1-7-2-7-7-3zm15 6-1 4 1 3 20 1v-2l-16-6zm-45 1-3 4-4 11v7l5 3 6 1 1-1v-8l-3-16zm15 3 1 12h3l2-6v-5zm38 7-7 7-6 10-8 16-4 10-1 7 7 3 18 2 24 3h10l1-1 6-37-1-12-6-5-16-3zm-21 3-2 4v3l4-2 1-4zm14-4-6 4-10 13-9 14v2h-2l-1 2h-35l13-1-1-3-10-3-25-8-8-2-33-10-8-1 1 7 2 7 10 4 31 8 6 1v2l-9-2-5 1-2 3 1 4 1 1 21 2 39 5 15 1 4-5 6-15 12-21 6-7-1-3zm-130 27-2 2v6l3 2 14 2h7l2-4-2-3-20-5zm0 16-1 1v24l1 59 7 19 2-1 1-33v-36l1-1-1 60v138l6 21 3 13h11l42-8 2-2 1-41v-176l-4-6-4-3-17-2h-11v-2l25 2 7 3 5 6 1 4v214h14l3-3 3-17 4-16 3-8 7-16 12-17 10-9 8-5 9-3 7-1h9l16 5 6 4 8 7 6 9h2l3 9 4 9 2 5 2-1 1-6v-123l-3-32-3-10-5-7-5-3-37-5-36-6-39-4-43-6-25-3zm-425 143-9 6-5 8-2 7v9l3 11 6 8 3 3 4 1h9l8-3 2-2 2 3 8-7 3-5 1-7v-14l-6-11-6-4h-2l2 8-7-8-5-3zm596 17-23 1-12 6-11 9-9 12-8 16-5 12-6 25-1 11 7 2v2l-7-2-12 1-36 7-23 4-5 2v9h9l-8 3-1 1-2 13 1 1 9-1 24-6 16-3 32-8 9-2 4-3 1-3 2 3h6l5-4 2-7 3-27 6-22 7-11 9-10 9-6h21l8 6 6 6 7 19 3 15 1 17 1 6 5-1 1-1v-23l-4-19-5-15-5-10-11-13-13-10zm-239 14-15 4-16 9-12 11-8 8-10 14-9 19-1 9 9 8 5 11 2 8v23l-5 16v3h8l10-5 4-5 2-11 2-19 5-19 5-15 7-12 6-8 5-6 13-9 7-2h21l9 3 10 8 7 9 4 8 7 23 3 19 2 18 3 2 5-7v-16l-4-25-5-20-4-10-6-11-7-9-10-10-12-7-12-5-8-2zm240 12v2l11 6 5 5 6 10 5 13 3 14 2 19h3v-16l-3-21-4-11-7-12-9-8-3-1zm-13 4-9 7-5 8-8 16-2 9-2 12-2 21-6 12 2 13 5 13 6 11 7 7 8 4h13l9-3 7-7 7-10 8-21 3-11 1-10v-22l-2-12-4-12-7-13-6-7-10-5zm-204 17v3l9 4 9 6 11 13 7 17 5 16 1 5v11l1 12 3 3 4-1v-13l-2-18-4-19-3-9-5-9-9-12-7-5h-2v-2l-5-2zm-15 4-10 6-10 10-12 21-3 8-5 25-3 26-6 9-2 2 2 16 4 14 4 8h2l2 5 7 9 10 7 7 3 7 1h9l12-4 11-7 8-9 10-18 3-7 6-21 2-10v-33l-5-21-7-16-11-14-10-7-10-3zm67 1v5l2-1v-4zm209 0-1 7 2 11 2 21h3l5-6 1-4v-19l-3-7-3-3zm-664 7-11 4-7 5-5 8-2 8v25l4 13 9 10 8 5 25 8 16 5 17 3 34 7 14 2 31 4 43 5 18 1h84l15-3 16-7 7-6 4-8 3-14v-16l-3-14-4-7-6-5h-8l-22 4-16 2-18 1h-76l-48-4-15-2-20-2-42-8-21-5-18-7-1-11zm56 1 2 22h4l2-3v-8l-3-8-3-3zm143 12-6 3-3 4-2 5v11l2 2h20l1-1v-14l-6-8-3-2zm10 2 2 6 2 4 1 12h4v-12l-3-7-3-3zm356 42-24 6-2 1 1 10 8 16 9 9 9 4 14 2h15v-2l-8-5-8-14-5-12-2-13-2-2zm-543 34 1 7 6 11 6 8 7 7 14 8 16 4 6 1h8l2-2-11-7-8-7-9-17-3-6-27-7zm41 9-1 3 8 15 10 10 8 5 12 4h12l13-4 11-7 7-6 4-5-1-3-31-4-36-6zm254 1-8 4-3 3-14 5 2 9 5 13 12 14 10 7 11 4 19 3h18v-3l-10-5-8-9-8-14-7-21-2-9-1-1z"/><path transform="translate(287,260)" d="m0 0 1 4-9 26-1 2-2-1 5-15z"/><path transform="translate(367,272)" d="m0 0 2 1-4 10-2 9h-2v-7z"/><path transform="translate(484,358)" d="m0 0 5 3 6 8 1 7-2-3-7-10-3-3z"/><path transform="translate(375,374)" d="m0 0h53l28 2 8 2 8 6 4 6 1 4v20l-4 34-2 20-4 26-4 9-3 3-8 4h-39l-48-2-15-2-7-5-4-9 1-15 5-28 5-30 7-32 3-6 7-5zm2 3-10 4-6 7-3 7-4 26-6 29-3 20-1 9v16l6 7 4 2 15 1 33 1h50l6-3 4-6 3-14 4-33 3-21 1-14v-23l-4-7-6-4-12-2-32-2z"/><path transform="translate(314,377)" d="m0 0h24l6 5 1 2v15l-8 41-5 30-5 21-4 7-7 6-3 1-11 1h-55l-8-4-3-4v-10l5-21 3-16 9-35 2-10 6-12 5-5 4-3 17-5zm2 3-37 7-7 2-7 5-6 14-6 21-4 19-7 27-2 15 1 9 6 4h22l27-1 14-1 7-3 6-7 5-21 6-32 5-30 2-11v-12l-4-5z"/><path transform="translate(516,388)" d="m0 0h36l33 4 11 3 2 1v2l4 2 4 7 2 10 2 22v53l-2 9-3 5-6 3-89 1-9-4-3-6v-14l4-33 4-30 1-14 2-12 3-6zm2 3-5 7-7 45v10l-4 36v7l2 7 4 3h86l6-2 4-5 1-2v-65l-2-22-3-7-5-5-16-3-30-4z"/><path transform="translate(787,395)" d="m0 0h10l5 4 2 4v15l-2 5-5 4h-8l-5-3-3-4-1-10 2-10zm0 3-4 6-1 3v9l3 5 3 3 3-1-2-6v-11l2-7zm7 1-3 4-1 4v9l3 6 4 1 4-6 1-3v-8l-4-7z"/><path transform="translate(494,410)" d="m0 0h1v15l-7 55h-2l1-17z"/><path transform="translate(651,449)" d="m0 0h19v2l-19 1-4 4h-2l2-5z"/><path transform="translate(278,451)" d="m0 0h7l11 4 8 6 6 9 1 3v12h-4l-7-12-6-5-9-4h-10l-10 4-5 4-6 9h-2v-9l5-10 9-7 7-3z"/><path transform="translate(402,453)" d="m0 0h15l10 3 11 7 6 7 5 10v9l-3 4-3-4-5-10-8-7-8-4-9-2h-10l-13 4-9 6-10 10-3-1 1-7 3-6 9-10 10-6z"/><path transform="translate(731,455)" d="m0 0h17l47 5 21 1 14 2 8 7 2 6v89l-3 6-3 3-23 2-59 4h-21l-5-3-3-4v-86l1-25 5-6zm0 4-4 4-1 3v107l6 5 22-1 47-3 23-2 9-2 3-4 1-6v-69l-1-17-4-6-4-2-53-6-23-1z"/><path transform="translate(617,461)" d="m0 0 2 1 1 53 2 11-2-2-3-10z"/><path transform="translate(265,526)" d="m0 0h28v2h-27z"/><path transform="translate(303,527)" d="m0 0h19l-1 2h-17z"/><path transform="translate(449,534)" d="m0 0 9 3 4 5 2 4-1 3-6-9-8-4z"/><path transform="translate(589,543)" d="m0 0h19l3 3 1 7-3 4-19 2h-10l-5-4v-7l4-4zm-5 3-5 2-1 6 2 2h20l7-1 3-4-2-5z"/><path transform="translate(289,546)" d="m0 0h23l8 2 3 4v7l-3 6-5 4-14 2-8-3-5-5-1-4v-11zm1 3-2 2 1 9 1 2h2l2 4 6 2h6l5-4 2-4-1 6 4-1 4-5v-8l-5-2-1 1v7h-2v-8l-1-1z"/><path transform="translate(781,553)" d="m0 0h17l3 3v7l-5 4h-18l-4-4 1-6 3-3zm0 3-3 2v6h19l1-1v-6l-1-1z"/><path transform="translate(686,562)" d="m0 0h15l3 3-1 8-2 2-9 1h-14l-2-2v-9l3-2zm2 2-9 2-1 1v5l5 2 15-1 4-4-3-5z"/><path transform="translate(209,574)" d="m0 0h11l6 4 5 8 1 6v9l-3 9-7 7-5 2-7-1-6-4-5-7-2-6v-11l4-9zm1 2-7 6-3 6-1 12 4 9 5 5 4 2h6l6-4 1-3h2l3-8v-10l-5-10-6-5z"/><path transform="translate(415,579)" d="m0 0h14l12 6 6 5 5 9 2 4v19l-6 12-9 8-11 4h-11l-11-3-9-10-3-3-3-7-1-16 2-8 6-11 9-6zm-3 4-9 5-7 9-3 6v17l4 10 9 10 8 3h8l8-3 6-6-1 6 7-4 7-9 2-6v-15l-3-8-6-8-6-5h-4l1 3h2l2 5 5 11v18l-3 8 2-7v-18l-4-10-7-8-7-4z"/><path transform="translate(232,581)" d="m0 0 3 3 1 2v21l-5 9-1-2 3-8v-20z"/><path transform="translate(264,582)" d="m0 0h2l1 5 5 6 10 5 18 4h26l17-3 11-3 8-6v-2l-2-2 8 1 3 4v4l-5 1-10 19-5 7-5 5-6 5-14 6h-16l-11-6-7-7-5-9-6-13-14-7-4-5-5-2 4-6zm92 16-17 6-9 2h-29l-14-1 1 6 6 11 5 5 4-2 3-3h3l-5 4-1 5 7 3h15l9-3 9-6 3-3v-3h-13l-11 4-1-2-7-1 28-3h8l7-11 2-7z"/><path transform="translate(409,588)" d="m0 0h14l8 6 5 9 1 2v17l-5 10-5 4-4 2h-9l-6-3-5-4-5-10-1-12 3-10 4-7zm4 2-8 6-4 6-1 7v9l3 10 5 5 5 2h9l9-6 3-7v-18l-5-8-5-5-2-1z"/><path transform="translate(227,643)" d="m0 0h6l-5 4-3 4-2 5-2-1 2-8z"/><path transform="translate(305,644)" d="m0 0 7 2h17v3l-8 3h-10l-8-5v-2z"/><path transform="translate(798,645)" d="m0 0h11l8 7 4 8 3 8v26l-3 10-8 15-8 5h-7l-6-4-8-9-3-9v-25l2-13 5-9 8-9zm2 3-7 5-5 8-5 16v19l4 12 5 8 4 4h9l7-5 6-12 3-12v-20l-4-12-5-8-5-3z"/><path transform="translate(800,666)" d="m0 0h8l5 6 1 3v18l-5 9-3 2h-6l-5-5-2-4-1-12 2-10 3-5zm2 2-5 6-2 6v12l4 8 5 1 5-5 2-4v-16l-4-7z"/><path transform="translate(188,674)" d="m0 0h10l8 7 3 8v10l-3 7-6 5-2 1h-6l-9-6-4-7v-14l6-9zm3 3-8 7-1 3v10l4 8 4 3h9l6-7 1-2v-10l-4-8-6-4z"/><path transform="translate(580,675)" d="m0 0h9l9 6 8 11 4 9 1 7v26l-2 10-7 16-7 8-7 4-5 1h-7l-9-4-6-7-6-12-3-10v-24l4-15 7-14 7-8zm-2 4-8 5-6 7-5 11-3 12-1 19 3 15 4 9 4 6 7 6 2 1h10l8-5 6-8 6-11 4-17v-14l-3-14-5-12-7-8-4-2z"/><path transform="translate(745,683)" d="m0 0 5 2-1 4h-8l-22 4-4-1 5-2 17-3 7-2z"/><path transform="translate(258,696)" d="m0 0h17l37 5 14 1 5 4 1 3v21l-3 4-4 1h-9l-31-4-22-4-7-4-1-3v-21zm4 2-4 3v15l4 8 4 1 46 6h15l1-1v-22l-3-3-3-1-38-3z"/><path transform="translate(580,701)" d="m0 0h7l6 4 5 11v15l-4 9-5 7-11 1-5-4-3-6-1-8v-11l3-9 5-7zm0 3-5 6-3 9v14l4 9 4 4 6-1 5-6 3-7v-18l-5-8-3-2z"/><path transform="translate(411,702)" d="m0 0h12l8 5 4 9 1 9-3 10-7 6-2 1h-10l-9-7-4-8v-12l4-9zm4 2-6 4-4 5-1 2v12l3 6 6 5h12l5-4 3-6v-10l-6-10-6-4z"/></svg>
