<?xml version="1.0" encoding="UTF-8"?>
<svg version="1.1" viewBox="0 0 1024 1024" xmlns="http://www.w3.org/2000/svg"><path transform="translate(380,191)" d="m0 0 14 2 8 3 28 11 20 7 9 4 10 3 12 5 19 7 20 8 17 6 14 6 10 3 14 6 24 9 13 5 16 6 12 5 48 18 12 5 12 4 12 5 28 11 7 3 9 3 19 8 15 5 14 6 9 3 6 5 3 5 2 8 4 5 3 9-1 15-3 25-2 9 22 3 10 4 7 6 6 12 2 15 2 32v135l7 4 4 8 1 4v22l-2 10-5 6-10 4-6 3h-6l-3 19-4 15-7 14-7 10-8 8-12 6-10 2h-23l-15-2-11-3-11-6-8-9-9-17-3-10-8 1-20 4-32 8-20 4h-12l-1 1-1 12-6 21-7 17-10 16-9 10-13 9-8 3-17 3h-28l-23-3-11-2-10-5-9-7-7-7-10-16-5-13-1-3-20 2h-63l-31-2-24-2h-7l-11 13-8 7-14 7-12 3h-33l-17-3-13-4-12-6-10-8-9-11-8-15-3-10-14-5-11-5-10-5-8-9-4-9-1-4-1-14v-11l1-14 4-10 4-6 8-6 9-4 7-1 2-2v-58l2-5 3-35 3-15 4-12 7-9 10-10 4-16 4-20 9-35 2-10 10-36 2-9 5-12 7-10 9-8 16-7 13-3 4-8 1-1 3-16 4-11-9-2-18-5-10-3-5-6-2-8v-7l3-12 11-30 4-12 8-20 5-5 6-2h15l10 3h30l29-1 5-2 6-3zm-2 5-7 2-6 7-8 16-11 23-11 24-1 3v8l4 8 9 3h4l-2-5-1-2v-14l8-17 10-23 5-12 9-17v-4zm6 2-4 3-11 24-5 13-7 14-3 9-4 8-1 10 2 7 6 5 20 7 24 7 18 6 18 5 9 3 3-1 3-10v-4l-14-5-10-3-24-8-13-4-15-5-7-4v-12l9-20 9-22 2-4 2-1 9 1 39 14 17 6 12 5 13 4 12 5 23 8 15 6 9 3 24 9 14 5 15 6 17 6 35 13 9 4 10 3 19 8 18 6 12 5 17 6 17 7 10 3 19 8 13 4 22 9 4 4 13 2 1-3-2-6-8-5-16-6-20-8-24-9-11-5-9-3-16-6-7-3-14-5-12-5-24-9-9-4-12-4-12-5-24-9-12-5-7-2-12-5-39-15-16-6-15-6-12-4-12-5-14-5-23-9-48-18-9-3zm-105 2-8 4-6 12-3 10-7 19-3 9-7 19-1 9 3 7 3 3 8 3 18 5 56 16 19 6 13 3 23 7 51 1 3-5 4-6-5-2h-23l-25 1h-30v-2h20l42-2v-2l-23-7-9-3h-27l-24 1h-25v-2h19l40-2v-2l-17-5-17-4-6-1-46 2h-17l-6-2-2-4v-9l4-4 7-2 7-21-1-3-3-1-1-2v-9l4-3 7-2 3-9v-3l-4-2-1-2v-9l7-2v-2h-6l-5 4-5 12-2 9-10 27-3 10-5 15 1 9 3 3h2v2h3v2l-8-5-3-9 3-12 7-19 6-18 6-16 4-11 2-3zm53 4-42 2-2 2v6l1 1h17l51-2 4-6v-3zm15 13 1 2h7v-2zm-21 0-22 1 3 3h2l-2 8 1 1h13l29-1 2-3-1-4-14-5zm66 2-3 4 1 3 14 5 6 1 3-5-1-3-13-5zm-97 1-3 6 1 5 9-1 3-4-1-4-5-2zm120 7-16 40 1 9 3 8 3 1 5-12 4-10 4-9 7-15v-3h3l-3 7 1 9 9 34 2 10 7 3 4 1 1-5-3-16-9-34-2-11-3-3-13-4zm-27 2 3 12 9 4 4 1 4-8-2-4-11-4zm-49 2-56 2-5 3v7l1 1h28l28-1 9-1 4-8-1-3zm45 3-6 16 1 8 5 18 4 4 10 3 1-3-7-23-2-10-4-13zm55 1 1 6 6 4 20 7 4 1 3-4-1-3-9-4-13-4-7-3zm-112 11-5 2 5 19 4 2 3-5 1-4-1-13-1-1zm10 0-1 3 1 3 3-1 1-5zm56 0-1 2 4 13 3-1 3-7-1-5zm-93 1-5 8-6 13v3l14-1 5-8 5-12v-3zm18 0-3 4-7 16 1 3h13l2-1-1-10-3-11zm125 0-1 3 4 10 14 5h6l3-6v-4l-24-8zm-156 1-4 6-5 14 1 3h5l4-6 4-10 3-6-1-1zm189 1-13 29-3 5-4 10-1 5 4-4 7-8 10-6 5-7 5-13 3-3-1 8 5 16 10 8 4 4v-7l-9-30-7-3-10-4zm-54 4-8 19-5 12 1 4 14 4 10 3 1-2-8-31-2-9zm-47 5-5 10 1 5 5 4h5l-2-11-3-8zm127 0 2 7 20 7 10 4 4-1v-5l-30-11zm-55 6 2 16 3 10h2l7-14 2-7-8-4zm38 5-3 6v4l6 1 1-3-3-8zm20 0 2 10 9 4 13 5 3-1 3-6-1-3-13-4-12-5zm37 3-5 11-8 18-4 10-4 9v4l10 3 4-5 11-28 5-11 10 51 1 3 6 2h4l-2-16-6-33-1-9-2-3zm-225 1-48 2-3 2-1 7 4 5h30l34-1 1-3-3-11-1-1zm249 8-1 2 2 4 19 7 3 1 2-2-1-4-12-4-10-4zm-89 3-3 2 7 2 5 2 5 5 3 5 3 15 1 10 9 3 3-1v-9l-2-11-2-8-5-8-3-3-11-4zm33 0-1 2 9 31 3-3 8-19 1-4-6-3zm-36 4-7 3-5 5-4 6-5 14-1 5 1 1 26 1 16 2 1-14-1-5-5-10-8-7zm94 2-1 3 2 7 9 4 7 2 3-5-1-4zm27 2-6 12-6 16-7 16-1 4 1 2 8 2 3-3 12-30 5-11 1 1 1 10 3 14 4 23 2 6 7 2h4l-1-8-3-12-1-8-7-29-9-4zm-46 2-8 18-4 11-2 5 9 4 12 3h2l-2-13-3-15-1-10-1-3zm69 7 2 5 13 5 9 3h3v-4l-23-9zm-48 4 1 9 3 16 4-5 6-15-10-5zm-280 4-3 5-3 7-1 13 9-1 24-3 1-1-1-9-3-6-9-3-10-2zm330 1 2 9 11 4 7 1 3-4v-3l-15-6zm29 2-4 8-4 12-9 23v4l9 1 15-39 1 1 6 35 2 11 6 3 4-1-7-36-2-15-5-3-9-4zm-48 1-3 7-5 13-4 9v3l18 6h3v-8l-6-28zm-284 3 2 13 1 1h9l1-2-3-9-6-3zm197 3 1 3 1-3zm156 1v4l15 6 3-3-5-3zm-46 2-1 1 1 10 4 17 1 2h2l8-24-12-5zm-289 1-1 3 3 5 2 2h14l9-1v-2l-23-7zm119 2-7 2-3 5 4 2 25 1 34 4h7l1-2-5-5-15-4-14-2-13-1zm61 1-1 2 3 5 2 7 28 5 17 2 31 6h3v-2l-18-6-15-4-21-7-12-3-15-5zm156 2-1 3 2 5 10 4 3-4-2-4-10-4zm20 0-4 10-8 22-2 7v6l5 1 3-5 5-14 3-9 3-11h2l3 25 4 21 9 3-2-18-7-33-12-5zm-380 5-16 1-14 4-4 4 3 2 35-6 17-2v-2l-5-1zm343 0-6 15-4 11 1 4 16 5 1-3-6-32zm55 2 1 4 16 6 3-1-4-4-13-5zm-328 1-33 2-34 4-29 4-19 4-19 7-8 7-4 4v2h-2l-3 6-8 25-3 13-12 46-2 10-8 34-2 9-10 9-3 4v2h-2l-1 4 18-2h50l87 3 88 4 16 1 13 4 5 4 4 8 1 5v30l-1 36v71l1 2 9-1 18-5 3-3 3-10-8-4-2-4v-131l-3-20v-9l3-29 1-15 10-84v-10l-3-11-4-6-6-7-9-5-14-6-30-2zm88 3v2l12 6 8 7 5 8 1 6v20l-1 18-9 76-2 18v25l2 14v130l3 5 7 1 12-21 8-11 9-10 9-8 13-8 13-6 14-2h13l15 2 12 5 12 7 4 3h2l1-28v-62l-5-17-1-3v-56l-1-31-3-34-3-12-7-13-8-9-6-4-70-12-19-2-34-4zm204 1-1 2 3 15 3-1 3-9-1-5zm38 3 1 7 9 4 5-1 1-5-10-4zm21 1-8 21-3 10-3 7 1 4 6 1 5-12 7-20v-4h2l4 26 3 16 2 3 5 1 1-4-6-32-1-10-2-4-10-3zm-37 5-4 10-4 12v5l11 4 4-1-2-14-3-16zm55 1v4l13 4h3v-2l-14-6zm-151 2 2 2v-2zm114 3v8l3 13h2l6-17-5-3zm-97 2v2l9 5 5 4 7 10 24 7 19 6 21 6 18 6 15 4 16 5h5l5-7-2-3-32-11-9-2-26-9-17-5-21-7-10-3-25-8zm134 0 1 7 10 4 3-3-1-4-9-4zm20 0-5 11-8 23v7l4 1 6-13 7-20 2-1 1 11h4l2-3-1-11-8-4zm-163 3 2 4 6 8 5 10 4 20 2 21 1 17 1 77 4 13 1 12v41l-1 45 7 8 7 10h2l1-2 1-29v-65l-2-18-4-13-1-4-1-62-2-37-2-22-5-15-4-6-8-7-13-6zm178 4 1 7 4 1h9l9 1v-2l-19-7zm-49 1-8 22 1 3 11 3 3-1-5-27zm18 3-1 1 1 11 1 3h2l3-9-1-5zm34 7-6 3-10 13-8 12-5 7-2 4h-68l-5-2h-5l-3 7 3 2 40 5 27 3 15 1 3-3 8-20 10-17 4-7 5-6v-2zm8 1-8 7-6 10-6 11-6 13-5 13 3 2 33 5 30 3 7-44-1-10-5-6-23-4zm-24 2-3 9 1 2 5-7-1-4zm-131 4-1 3 3 12 5 3 29 7 15 5 5 1h15l22-1v-2l-22-7-21-6-18-6-12-3zm5 22-2 2v7l2 2 17 2h7l2-2-1-4zm0 17-1 1v14l1 34v42l6 18 1 4h2l1-76 2-7 6-4 21 1 31 2 6 2 5 5 2 3 1 8v32l-1 197 1 1 11-1 6-2 1-3 1-10 5-21 5-14 5-12 6-10 9-12 7-7 10-7 13-5 5-1h13l13 4 8 4 11 10 6 9h2l2 5 4 9 4 12h2l1-23v-110l-2-31-2-16-3-9-4-5-5-3-78-12-21-2-66-9-22-2-25-3zm18 28-5 4-1 3-1 102v113l6 21 3 17 3 1 36-7 20-3 1-1 1-96v-140l-3-7-5-3-18-2-23-2zm-475 83-11 3-3 4-2 10-3 31 1 4 7-6 4-2 13-1 9 2 9 6 5 7 3 7 1 5v10l-4 13-6 7-10 5-4 1h-10l-11-4-8-9h-2v45l8 5 13 4 6 1 1-1 2-14 4-6 4-2h15l6 5 4 11v8l-1 6 3 2 36 5 44 5 40 3h8l1-3v-13l4-8 6-5 4-1h10l8 5 4 7 1 3 1 15h20l33-2 6-2 1-68 1-36v-37l-6-10-5-4-9-3-31-2-117-5-31-1zm-3 45-7 3-6 5-6 12-1 4v8l3 11 6 10 6 4 3 1h10l8-4 6-8 2-8v-16l-3-9-8-9-8-4zm16 3 5 6 5 13v17l-4 10-4 5 1 2 5-3 7-8 2-5 1-12-2-11-6-9-5-4zm611 16-11 3-10 6-9 8-7 8-7 11-9 19-3 10-5 19-2 16 8 3 12 4 1 1v13l5 1 7-4 2-4 3-31 4-16 4-12 6-10 11-12 9-6 2-1h20l7 4 7 7 1 2h2l2 6 6 15 4 21v11l1 11h4l2-4v-21l-3-18-3-11-3-10-9-16-9-10-7-6-9-5-8-2zm-235 15-13 2-12 4-11 6-9 7-10 9-10 12-6 8-11 23-2 9 3 2 8 7 6 14 2 10v19l-4 16-3 7 1 1 10-1 8-4 5-6 2-6 2-24 3-15 6-20 7-14 7-10 9-10 13-9 8-3 7-1h10l11 2 9 6 8 7 5 8h2l2 6 3 7 6 20 3 17 2 25 3 2 5-6 1-3v-12l-4-29-4-17-3-9-7-16-9-13-12-12-13-8-13-5-8-2zm254 13v2l8 3 9 7 8 13 5 13 4 20 1 18h4v-13l-2-17-4-17-5-12-7-9-7-6-5-2zm-12 4-9 6-6 8-9 17-3 11-3 18-1 18-2 7-5 6 1 13 5 15 7 13 7 8 12 6h10l11-4 8-8 7-9 7-17 3-8 3-14 1-21-1-19-5-17-8-15-7-8-12-6zm-225 19v2l14 6 10 8 9 12 7 14 6 20 2 13 1 21 3 2 4-1-1-23-3-19-2-11-3-9-8-15-9-11-9-6-8-3zm-13 4-11 6-12 12-7 11-8 17-4 13-3 20-2 24-5 9-5 4 1 13 5 18 5 10 8 12 8 8 16 8 13 1 13-4 12-7 9-9 7-11 9-17 6-22 3-16v-31l-4-19-5-15-5-9-10-13-12-9-9-3zm71 0v7h2v-7zm227 1-1 2 3 15 2 27 4-2 4-6 1-5v-19l-3-9-4-3zm-674 7-5 4-4 9v7l3 3 18 4 2-4v-9l-2-8-4-5-2-1zm12 0 3 9 1 5v13h4l2-7-1-10-4-6zm-56 1-12 3-9 6-4 5-3 5-2 9v26l3 12 5 8 7 6 6 4 24 8 25 7 20 4 29 6 57 8 37 4 12 1 34 1h58l17-1 15-4 17-8 6-8 3-7 3-16v-11l-3-18-5-8-8-7-8 1-15 4-24 3-45 2h-29l-30-1-44-3-40-5-29-5-19-3-29-8-14-5-5-3 1-3v-8zm211 15-6 4-4 9v11l3 3h20l2-1v-14l-4-8-5-4zm12 1 5 10 1 7v8h4l1-2v-10l-3-8-5-5zm358 23-25 4-51 10v9l2 2 12-2 36-8 17-3 28-6 3-1v-2l-13-3zm22 7-28 6-17 3-42 9-9 2-2 2v7l-2 6v2l8-1 20-5 15-3 37-9 14-3 9-3 2-8-1-5zm12 16-28 6-5 2 2 10 4 10 6 10 9 8 7 3 14 3 7 1h13v-2l-9-6-9-14-6-15-2-14zm-595 37 3 11 9 15 9 9 14 8 7 3 23 4h7v-2l-10-6-8-8h-2l-2-4-7-12-4-10-26-6-7-2zm44 10 1 5 7 13 9 10 10 7 17 5h8l16-4 10-6 10-9 4-5v-3l-23-2-43-7-23-4zm276 1-7 5v2l-10 3-9 3 1 7 8 18 10 13 9 7 16 6 16 3 11 1h14v-2l-11-6-7-6-9-14-4-8-5-15-4-17z"/><path transform="translate(517,380)" d="m0 0h32l39 5 14 3 6 4 4 5 3 10 2 22 1 21v40l-2 13-4 6-6 3-5 1h-92l-8-4-3-4-1-4v-11l4-35 4-30 2-19 2-14 3-8zm3 3-5 5-2 4-7 51-1 14-4 37 1 9 2 4 7 2h85l11-2 5-6 1-3v-63l-2-25-1-9-4-6-5-4-44-6-21-2z"/><path transform="translate(812,388)" d="m0 0h9l5 3 3 7v13l-2 7-6 5h-9l-7-6-2-10 2-12 5-6zm-1 3-4 6-1 3v11l3 6 5 3 1-2-3-7v-9l3-9 1-2zm10 0-5 4-2 6v10l3 7 4 1 4-5 2-6v-7l-3-8z"/><path transform="translate(421,403)" d="m0 0h6l9 6 6 7 4 9-1 3-5-2-10-6-15-6 1-5zm1 2-4 6 1 3 9 2 8 4h2v2l4 1-2-5-7-8-8-5z"/><path transform="translate(270,409)" d="m0 0h7l3 4 1 6-2 2-16 5-8 5h-2v-6l6-9 9-6zm3 2-10 5-6 7 1 3 8-4 11-3 1-4-3-4z"/><path transform="translate(366,365)" d="m0 0h41l48 3 10 5 7 8 2 9v11l-3 32-8 60-3 10-4 5-9 5-7 1-33-1-55-2-15-2-7-4-4-5-2-8 1-12 8-44 2-15 7-35 4-11 8-7zm8 3-12 1-8 4-6 7-3 9-2 13-9 47-3 21-2 13v13l4 6 6 4 22 1h28l-1-5-3-8-1-6v-15l3-12 6-12 6-7 6-4 12-2 10 2 9 8 5 11 2 7 1 8v9l-3 15-4 9v4h7l8-3 5-6 3-12 2-21 8-61v-19l-4-8-6-5-13-3-25-2-29-1zm37 71-8 4-8 8-4 7-4 18v9l3 14 4 8 1 1h11l-3-15v-8l3-9 16 4 1-3-8-12v-4l6-3h10l4 2h3l-1-6-7-9-6-5-3-1z"/><path transform="translate(301,368)" d="m0 0h21l6 5 2 5v11l-7 37-2 14-8 43-3 11-4 6-7 6-4 1-15 1h-56l-8-3-3-3-1-3v-8l7-31 3-14 8-31 2-10 4-12 6-9 6-5 18-5zm9 3-32 5-25 5-7 4-4 4-7 21-5 20-7 29-4 17-3 17 1 7 4 4 5 1h23l1-2-4-10-1-7v-12l2-11 7-14 7-7 9-4h7l7 3 5 4 7 14 2 11v9l-3 14-4 8v2l7-1 5-5 4-6 4-17 1-9 11-60 2-13 1-5v-9l-5-6-2-1zm-39 70-7 3-8 7-4 8-3 11-1 12 2 13 4 9h9l2-3-2-5v-17l2-5 11 3h3l-1-5-5-10v-3l5-2h8l5 2-1-5-5-8-6-4z"/><path transform="translate(752,453)" d="m0 0h9l58 6 28 2 12 2 5 5 3 4 1 5v95l-3 7-3 3-16 2-37 3-37 2-20 1-7-3-3-4-1-3v-69l1-47 3-7 4-3zm-1 4-5 5-1 6v113l4 5 2 1h12l89-7 9-2 3-4 1-16v-55l-1-28-3-6-4-3-34-4-21-2-28-2-9-1z"/><path transform="translate(607,549)" d="m0 0h8l5 4 1 6-4 5-22 2h-9l-4-2-1-2v-8l4-3zm-11 3-9 1-3 3v5l2 2h20l9-1 3-4-1-5-2-1z"/><path transform="translate(273,552)" d="m0 0h14l15 2 4 3v8l-3 8-3 3-6 2-10 1-9-2-5-4-3-7v-10l3-3zm-2 3-2 3 1 9 4 6 2 2 5 1h8l4-4 2-7v-8l-4-2zm27 1-1 1-1 11-2 7 4-1 4-5 1-3v-8z"/><path transform="translate(816,560)" d="m0 0 8 1 2 3v7l-3 3-3 1h-20l-3-5 1-6 4-3zm1 3-15 1-2 5 2 3h13l7-1 1-1v-6l-1-1z"/><path transform="translate(710,569)" d="m0 0h6l5 5-1 7-4 3-22 2-4-4v-9l3-2zm0 3-16 2-2 2v5l1 1h15l7-1 3-4-2-4-1-1z"/><path transform="translate(185,582)" d="m0 0 9 1 6 4 5 7 3 11-1 10-4 8-8 7-2 1h-7l-8-4-5-7-3-9v-10l4-11 7-6zm0 3-6 3-5 7-1 5-1 11 3 8 5 6 5 3h8l6-4 4-6 2-8v-7l-4-10-5-6-5-2z"/><path transform="translate(409,588)" d="m0 0h11l10 4 8 6 7 9 4 9v18l-3 8-7 9-6 5-8 4-4 1h-13l-9-3-6-4-8-9-4-8-2-16 2-9 6-12 8-7 9-4zm-5 4-9 5-8 9-4 9v17l4 11 7 9 6 4 4 1h12l7-3 8-9 4-11v-16l-3-8-6-10-8-6-5-2zm20 2 6 8 6 12 1 4v16l-3 8-6 10-2 3 5-1 8-7 5-8 2-7v-13l-3-10h-2l-2-5-7-7-5-3z"/><path transform="translate(243,591)" d="m0 0h2l-1 5 7 8 12 6 18 4 11 1h12l20-3 16-5 9-6 1-3-4-1v-2l7 1 5 4 2 7-3-1-1-2-3 1-8 17-8 12-10 10-14 7-3 1h-17l-12-6-7-7-6-9-5-13-2-3-11-5-7-6-4-4v2l-3-1 2-5zm101 18-16 6-14 3-9 1h-14l-15-2-10-1 2 5 7 14 5 6 4-2 5-5 9-3h14l8-2h16l8-13 2-7zm-23 22-11 3-8 5 4-6h-10l-6 3-6 6 1 3 8 3 9 1 11-2 10-5 9-8v-2l-4-1z"/><path transform="translate(403,598)" d="m0 0h11l8 5 4 5 4 10v15l-4 10-4 5-7 4-7 1-8-3-6-5-6-12-1-11 2-9 4-8 7-6zm2 2-9 6-5 8-1 12 1 9 5 9 8 5h11l9-7 3-8v-17l-3-7-6-7-6-3z"/><path transform="translate(285,659)" d="m0 0 9 3h16l4-1v3l-8 3h-13l-8-5z"/><path transform="translate(825,660)" d="m0 0h8l6 4 6 7 5 12 1 6v22l-3 12-4 9-6 9-6 4-8 1-8-4-7-9-4-11-1-21 1-13 4-11 6-10 6-5zm1 3-8 6-6 9-4 13-1 5v18l3 12 5 10 7 6h8l8-6 7-14 3-14v-17l-3-12-6-11-6-4z"/><path transform="translate(827,682)" d="m0 0 6 1 5 5 2 7v16l-4 9-6 5-6-1-5-6-2-6-1-8 2-11 5-8zm-1 4v2h-2l-4 10v12l3 8 3 3 5-1 4-5 2-5v-16l-4-7-1-1z"/><path transform="translate(163,691)" d="m0 0h6l8 6 5 9 1 10-2 7-6 7-7 3-7-2-8-7-3-6v-14l4-7 6-5zm1 3-6 4-4 5-1 3v9l3 8 5 5 9 1 5-3 4-8v-9l-3-8-5-5z"/><path transform="translate(585,693)" d="m0 0h10l10 6 6 8 6 12 3 13v22l-4 16-7 15-7 8-7 5-11 2-9-3-8-7-4-7-5-12-2-10v-23l4-16 6-14 9-10zm2 3-10 5-7 8-5 8-3 10-2 9-1 17 2 15 4 12 6 9 6 5 5 2h8l8-4 8-9 6-12 4-15 1-9v-9l-3-16-5-13-9-10-9-3z"/><path transform="translate(237,715)" d="m0 0h9l44 6 19 2 5 3 2 5v20l-3 5-7 2-36-4-28-5-7-3-2-6v-21zm2 3-3 3v15l2 7 3 3 12 2 38 5 19 1 2-2v-22l-3-4-4-1-28-2-34-5z"/><path transform="translate(587,721)" d="m0 0h6l6 4 5 10 1 4v12l-2 9-6 9-4 3h-9l-6-5-3-6-1-17 2-11 5-8zm0 3-6 7-3 6-1 5v13l4 10 6 5 5-1 5-5 3-7 1-4v-16l-3-8-4-4z"/><path transform="translate(404,722)" d="m0 0h10l8 4 4 6 3 12-2 10-3 6-5 4-5 2-9-1-5-3-5-5-3-5-1-6v-9l5-10zm1 3-6 4-4 7-1 10 4 10 6 5 2 1h10l6-4 4-9v-8l-5-10-7-6z"/></svg>
