<?xml version="1.0" encoding="UTF-8"?>
<svg version="1.1" viewBox="0 0 1024 1024" xmlns="http://www.w3.org/2000/svg"><path transform="translate(497,175)" d="m0 0h28l31 4 28 7 16 6 9 4 14 7 14 8 16 11 10 9 11 9 15 15 7 9 3 1 13-8 6-2h10l11 4 10 8 7 10 1 5 9-4h13l8 4 8 8 5 14 15 2 7 4 5 4 4 9v13l-5 9-9 7-9 3-12 1-58 1 1 17v23l-3 27-4 16-7 22-9 20-6 11-13 20v3l4 1 2-7 2-3h2l2-4 7-7 11-5 13-1 11 3 14 7 8 9 6 11 1 4v7l6-2h13l10 7 5 6 2 4 1 14 9 3 8 8 1 3v12l-6 7-10 5-26 2-31 1h-82l-25-1-16-1-9 26-5 11-5 15-9 22-6 17-4 10-8 22-2 4v5l5 4 2 4v10l-3 3 1 6 5 8 4 10 2 7v12l-3 6-5 5-10 3-2 5-1 12-3 9-4 6-4 4-12 4h-103l-12-4-8-8-3-6-3-21-10-4-5-3-4-7v-14l6-16 4-8 1-6-2-3v-12l6-7-1-7-4-11-11-28-6-17-5-12-9-24-4-11-15-39-7-18-8-6-12-13-7-7-20-26-10-15-6-11-6-12-8-21-4-13-4-22-2-15v-33l1-14-14-1-49-2-21-3-7-3-7-8-1-9 2-9 4-6 6-5 6-2h13v-8l6-9 5-5 5-2h12l5 2 2-7 5-10 7-7 10-5 8-2h13l12 6 7 7 3 5 4-2 15-18 5-5 8-7 7-8 13-10 11-7 10-7 16-8 7-4 13-5 11-4 18-5 18-4zm-4 5-7 2-13 13-11 16-9 17-4 9-8 25-4 16-5 23-4 38v51l3 32 3 20 3 16 2 11 7 29 6 21 8 25 6 16 10 25 8 14h51l5-6 5-13 6-12 4-13 4-10 5-15 8-25 7-30 4-18 4-24 2-18 2-23v-45l-3-28-2-18-7-33-4-13-4-12-8-20-7-14-7-11-12-13-3-4-4-1zm-22 3-20 4-17 5-17 9-10 8-5 5-7 6-7 8-8 9-12 18-12 24-7 16-4 12-6 25-2 14v49l4 22 4 17 4 16 6 15 6 17 7 15 11 20 6 12 6 9 13 21 3 3 1 2h2l2 5 10 14 13 17 7 6 36-6 1-2-13-31-5-13-7-20-5-16-3-11-8-30-2-12-3-16-6-37-1-11v-61l1-20 6-35 5-22 10-30 8-16 9-16 11-15 2-1v-2zm72 0v3l8 11 4 4 12 24 7 18 4 13 4 16 4 15 1 8 3 17 3 34v47l-4 43-3 17-5 25-6 24-4 15-4 12-4 13-6 16-5 13-9 20-3 6 1 3 16 3 19 2 8-8 7-9 9-11 10-15 8-11 6-9 11-19 8-14 13-25 3-9 6-14 5-16 6-20 3-20 2-21v-25l-2-25-5-23-10-28-8-16-8-15-7-9-10-13-7-7-7-8-8-7-12-9-9-6-18-6-16-3zm68 21 6 7 17 17 10 14 10 15 8 16 5 12 8 21 3 11 1 8 3 14 2 20v23l-2 21-4 21-3 14-5 16-5 15-7 16-11 22-10 19-8 13-10 15-13 19-8 10-14 19-2 2 1 4 5 2h8l9-9 11-9 15-14 8-7 9-10 22-22 9-11 8-10 8-11 7-10 11-19 7-17 5-14 4-15 4-21 1-8v-33l-6-33-8-24-12-24-7-10-10-14-10-11-7-8-9-9-19-14-11-7-8-6-14-6zm-208 1-26 15-8 6-4 4-8 6-11 10v2l-4 2-5 5-4 5v2l-4 2-10 13-9 16-7 12-9 23-6 22-2 17v39l3 21 6 22 4 11 4 10 8 16 5 9h2l2 5 7 11 8 10 11 13 7 8 10 11 17 17 33 31 8 7 2 2h8l5-3-2-5-11-14-5-5-3-4h-2l-1-5-9-13-7-10-14-23-6-11-7-12-3-8-7-14-6-15-5-12-4-16-5-18-4-24v-53l5-30 9-27 6-14 9-17 8-13 16-20 17-17v-2zm-125 54-13 5-8 7-3 4-3 17-5-2-6-3h-9l-6 3-6 7-1 15-5-1h-12l-9 7-4 5-1 10 5 8 5 4 20 3h68l3-8 3-14 10-24 9-17 2-3v-6l-7-9-7-6-6-2zm440 1-11 5-5 4-1 3 3 3 7 14 9 17 6 15 8 27 1 2 5 1h58l17-3 8-5 4-8v-10l-5-9-9-6-3-1h-14l-2-7-1-8-7-8-7-3h-12l-13 5-1-6-7-13-7-5-11-4zm10 235-8 3-12 12-5 12v2l-7-4-5-1-8 9-9 11-8 8-7 8-7 7-6 15-3 7-2 9 4 2 25 2h102l35-2 10-2 9-3 5-6v-10l-7-8-5-2-7-2 1-12-4-9-6-5-5-2h-12l-6 3h-3l-3-17-6-12-6-5h-2v-2l-10-5-4-1zm-87 78-13 13 1 4 3 2h5l6-13 2-6zm-262 2 2 11 10 24 3 10 8 19 3 9 8 20 3 9 9 23 6 16 4 12 2 2h25l1-5-5-23-8-34-2-11-4-5-4-3-5-14-7-13-6-9-5-5-11-10-8-7-15-14zm243 16-7 7-8 7-12 12-7 11-9 22-6 4-4 16-5 22-4 20-3 17 1 1h27l3-8 10-25 6-18 5-12 5-14 7-17 5-14 7-18v-9l-8-4zm-130 11-21 2-22 4-19 4-1 5 6 11 6 15 1 1 10-1 13-3 24-3h40l26 3 13 3 10 1 7-16 6-11v-3l-9-4-16-3-26-4-12-1zm0 38-38 4-7 3 1 3 16 4 7 1h77l17-3 7-3v-3l-5-2-37-4zm-39 15-2 2 2 11 7 32 6 27 2 3h11l2-2-1-14-6-51-3-5-6-2zm108 0-13 3-2 5-6 47v20h12l3-8 5-20 3-16 3-15 3-12v-3l-7-1zm-29 3-54 1-1 5 6 52 1 12 2 2h49l2-5 4-40 1-15v-11l-1-1zm-101 78-3 2v9l3 3h25l1-1v-12l-1-1zm31 0-1 1v12l1 1h97l1-1v-12l-1-1zm102 0-1 2v11l1 1h26l3-3-1-10-1-1zm-128 19 1 33 3 32 2 9 5 8 6 5 8 3h98l8-2 6-4 7-8 2-11 3-49v-15l-1-1h-15v4l6 14 3 11v13l-3 5-9 4-13-1-5-3-3-6v-12l4-14 5-11v-4h-86l-1 5 5 10 4 15v9l-2 6-3 4-8 2h-7l-9-4-3-4v-16l2-9 7-15-1-3zm124 0-6 10-5 13-1 5v13l5 6 2 1h15l5-5 1-4-2-16-5-13-7-10zm-102 1-4 5-7 18-1 4v13l4 6 9 2 9-1 5-5 1-11-3-13-8-17zm132 2-1 1-1 7-2 36 3 2 7-1 5-5 1-3v-14l-6-16-4-7zm-161 2-4 7-5 14v14l6 7 8 2 1-1-1-29-1-13z"/><path transform="translate(279,565)" d="m0 0h9l9 2 10 5 7 6 7 11 2 6v2l5-1h14l6 3 7 8 1 3v11h7l8 6 6 8 1 10-3 8-8 7-15 4-9 1h-128l-17-1-12-2-9-6-4-5v-16l6-8 4-4 8-2h11l1-12 4-9 6-7 10-5h14l13 5 3-9 3-6 9-8 9-4zm-3 5-11 6-8 8-5 12-1 3-6-2-5-4-3-1h-13l-9 5-5 6-3 8v10l1 6-11-2-9 1-5 3-4 3-3 8 1 8 4 6 5 3 10 2 15 1 36 1h81l30-3 9-4 5-5 1-4v-7l-3-6-6-6-11-3-1-1-1-13h-2l-2-4-5-5h-13l-6 3-3-1-4-15-10-11-13-6z"/><path transform="translate(489,793)" d="m0 0 4 1 6 8 3 2 5 1h11l7-3 4-4 3-5 4 1-1 5-5 7-10 5-3 1h-8l-11-4-6-5-4-8z"/></svg>
