<?xml version="1.0" encoding="UTF-8"?>
<svg version="1.1" viewBox="0 0 1024 1024" xmlns="http://www.w3.org/2000/svg"><path transform="translate(504,146)" d="m0 0h15l23 2 22 3 25 7 9 3 12 5 20 9 17 10 9 6 16 12 13 11 19 19 9 11v2l13-9 7-3 5-1h7l13 4 11 8 7 10 2 5v3l8-4 4-1h11l8 3 10 9 4 9 1 8h9l10 2 9 6 6 10 1 4v10l-6 12-8 6-8 3-6 1-19 1h-55l2 27v12l-2 23-5 25-7 24-12 27-11 19-10 15v2l6 3 1-6 7-11 8-7 10-5 13-2 14 3 14 7 8 7 8 14 2 9v6l8-3h12l11 6 5 6 3 7v13l10 4 9 8 2 6v11l-7 8-8 4-10 2-10 1-22 1-44 1h-43l-46-1-23-2-5 13-4 12-5 12-10 26-4 11-6 16-5 12-5 15-7 18-2 5v4l5 3 3 6v9l-1 3-3 2 1 5 6 9 4 11 3 11v9l-3 8-7 6-11 3-3 23-5 10-7 6-13 4h-110l-13-4-5-4-6-9-3-11-1-12-1-3-12-4-5-5-3-6v-14l5-15 6-12 2-5-4-6v-10l4-6 5-4-6-15-12-32-5-13-6-16-5-12-5-15-5-12-5-14-8-20-6-16-5-13-1-3-4-2-6-5-4-6-8-7-9-10-11-14-11-15-7-11-8-13-10-21-7-20-4-13-3-17-3-24v-28l2-21-65-2-21-2-12-3-8-8-3-9 1-8 5-10 7-6 8-3h11l2 1v-8l3-7 8-9 8-3h9l9 3 2-11 5-9 8-7 8-4 12-3h12l12 5 8 7 5 8v2l5-5 11-14 5-6h2l2-4 8-8h2l2-4 13-11 17-12 20-12 14-7 18-8 25-8 21-5 27-3zm-8 5-10 1-8 7-9 10-9 13-11 20-8 20-4 12-9 35-3 17-1 11-2 19-1 17v40l2 27 3 29 6 31 5 21 2 11 8 26 6 21 6 16 8 21 8 19 6 11 1 1h55l4-6 6-14 6-12 3-10 5-12 14-42 4-17 8-32 2-13 6-37 2-21 1-17v-35l-2-26-5-34-6-30-7-22-6-18-10-22-6-9-7-11-14-15-9-1zm48 3 2 4 10 13 1 2h2l2 5 11 21 7 19 7 20 2 11 5 20 5 29 1 14 2 26v37l-2 28-3 30-7 35-3 13-4 17-8 28-7 21-9 25-6 13-4 10-6 12 6 2 25 3 9 1 8-9 10-13 7-8 15-22 7-10 10-16 10-17 10-19 8-16 5-12 6-15 9-28 3-12 5-35 1-15v-14l-2-25-5-28-11-33-16-32-8-13-5-5-10-13-18-18-16-12-12-8-16-5-22-5zm-73 0-24 5-19 5-17 9-11 9-7 5-7 8-5 5-11 12-13 19-6 11-8 16-7 16-6 19-5 20-3 21v48l4 26 5 20 5 19 8 20 6 16 13 26 10 19 6 9 11 18 5 8h2l2 4 7 11 10 13 13 17 7 6 15-3 24-3 1-2-8-19-4-8-14-38-4-13-7-23-12-50-2-14-6-41-2-29v-37l2-28 5-33 5-25 6-19 7-21 7-14 6-11 7-11 10-13 3-3v-2zm146 22 5 5 10 9 4 5 7 6 12 16 10 15 13 25 8 21 3 9 4 15 5 25 2 25v13l-2 25-5 27-5 21-4 12-7 19-7 16-7 15-7 12-7 14-8 13-15 23-10 14-11 15-10 13-8 10 3 2 9 3 5-1 9-9 8-7 12-11 8-7 37-37 7-8 12-14 14-19 5-8v-2h2l7-12 6-12 5-11 10-28 3-15 3-19 1-10v-27l-3-22-4-20-9-25-9-19-6-10-11-16-13-16-21-21-17-13-15-10-7-5-19-9zm-222 2-10 6-10 5-14 9-4 3v2l-4 2-9 7-13 12-10 10-9 11-8 10-7 11-10 18-7 16-4 10-3 11-5 22-2 16v33l3 22 7 28 7 19 7 15 5 9 10 17 10 14 8 9 9 11 11 12 7 8 22 22 8 7 7 7 8 7 12 11 8 7 2 2 7-1 6-3-6-8-12-15-5-7h-2l-2-5-12-17-10-16-9-14-8-15-6-10-11-23-4-11-5-11-3-7-5-18-6-21-4-25-2-19v-32l3-23 3-18 7-23 8-20 8-16 8-13 8-12 10-13 12-13 10-9 3-3zm-135 59-11 3-8 4-8 9-3 9-1 11-3 1-6-5-5-2h-7l-8 4-5 6-2 6v13l-8-2h-11l-9 6-5 7-1 10 4 8 5 4 9 3 20 2h68l6-22 6-17 9-19 5-9 4-6-1-5-6-9-8-7-9-3zm477 1-12 5-7 6 1 5h2l2 5 10 18 9 19 5 14 7 25 1 1 10 1h54l18-2 6-2 7-5 4-9v-10l-5-10-9-6-6-2-15 1-1-13-3-7-8-7-6-2h-11l-9 4-5 2-3-8-5-10-7-7-9-4-7-2zm15 255-12 3-8 7-7 8-6 15-4-2-6-5-4 2-8 10-11 13-12 13-9 9-9 21-4 11 1 3 15 2 32 1h77l37-1 25-2 14-4 5-6 1-2v-8l-4-6-5-4-5-2-8-2 2-13-3-8-5-6-9-4h-11l-8 4h-4l-2-18-5-11-5-6-10-7-7-3-11-2zm-98 84-14 14-3 2 2 4 5 2h4l8-21zm-287 3 2 9 10 25 6 17 5 12 5 14 7 17 3 9 9 24 11 28 3 10 3 4h27l1-3-8-34-5-24-5-21-7-5-10-24-8-13-13-13-8-7-11-10-5-5-11-10zm265 18-12 11-10 9-9 10-9 16-6 18-8 5-8 38-7 31-2 13h30l13-35 5-12 3-9 10-26 6-16 12-31 4-11v-6l-9-5zm-135 12-26 2-20 3-26 6-3 1 1 6 9 17 4 11 5-1 16-4 24-3 15-1h27l26 2 18 3 12 3 3 1 3-3 4-12 7-12 3-5-5-3-26-6-30-4-15-1zm1 41-26 2-23 3-8 3v2l9 3 20 3h78l21-3 9-3-1-3-6-2-33-4-17-1zm-51 16-1 4 8 37 6 26 3 14 1 1h13l1-5-6-52-1-14-2-7-21-4zm124 0-20 4-2 7-7 61v10h14l4-15 4-17 1-9 9-38zm-29 4-16 1h-52l1 13 7 60 1 4h54l1-1 3-27 1-15 3-27v-7zm-118 84-3 4v8l3 4h28v-16zm35 0-2 2v14h106l1-1v-14l-1-1zm110 0-1 1v14l1 1h28l3-5-1-9-3-2zm-115 21-5 8-7 17-2 8v10l3 6 4 3 11 1 8-2 4-5 1-9-4-16-9-19zm-24 0-1 3 5 66 2 11 3 7 8 7 7 3 6 1h98l11-1 8-4 8-9 2-5 2-36 2-32v-10l-1-1h-16l-1 2 9 20 3 12v10l-2 6-7 5-8 2-10-1-6-3-4-6-1-4v-9l4-15 4-11 3-5v-3h-95v4l6 12 3 10 2 10-1 11-4 6-6 3-10 1-9-3-5-4-2-5v-13l2-11 9-19v-2zm134 0-8 16-4 10-1 9v9l3 5 4 3h16l5-4 2-5v-8l-3-12-4-11-7-11zm32 3-3 50 10-1 6-5 1-5v-13l-4-11-8-15zm-173 2-5 8-5 13-1 4v13l4 6 4 3 8 1-2-43-1-5z"/><path transform="translate(261,570)" d="m0 0 13 1 13 5 10 9 5 8 4 10v3l7-3h13l8 4 6 7 2 5v12h7l6 3 7 7 3 6 1 8-3 10-8 7-13 4-18 2h-120l-30-1-15-2-10-5-4-5-2-5v-12l4-7 6-7 6-2 9-1 8 1v-12l3-10 7-9 7-4 6-2h13l15 6 1-5 5-10 10-10 8-4zm-5 5-12 6-8 8-5 10-3 9-4-1-7-6-5-2h-12l-8 4-6 5-4 8-1 4v9l2 9-9-2-9-1-9 3-5 4-4 10 1 8 4 6 7 4 13 2 22 1 56 1h55l30-2 12-2 8-4 5-6 1-9-3-8-8-7-13-3v-14l-4-6-5-4-2-1h-12l-8 4-4-1-3-16-6-8-7-6-10-5-4-1z"/></svg>
