<?xml version="1.0" encoding="UTF-8"?>
<svg version="1.1" viewBox="0 0 1024 1024" xmlns="http://www.w3.org/2000/svg"><path transform="translate(510,158)" d="m0 0 5 1 14 14 8 10 15 20 9 15 13 23 13 28 8 21 3 10 10 30 11 45 3 16 2 14 5 32 4 37v9l2 7 9 12 9 15 7 11 7 10 12 19 2 5h2l20 32v2h2l10 16 18 27v2h2l2-16 1-7-7-7-8-7v-5l3-2 17-3h4l1-5 5-14 5-4 4 2 4 8 5 12 20 4 3 3-1 5-10 10-4 3 1 8 2 9v8l-1 1h-7l-13-9-4-1-14 10-6 1 4 7-1 5-1 1-10-1-17-4-28-8-14-3-29-8h-5l-1 1-58 1v47l-1 17-5 24-7 25-4 11-11 26-16 32-12 22-5 9-2 2-5-1-5-8-12-23-10-19-11-23-11-27-3-12-6-22-3-17-1-16v-47l-58-1-1-1-9 1-32 9-21 5-24 7-10 2h-7l-2-2 1-6 14-22 10-14 7-12 7-10 12-19 7-11h2l2-6 18-27 15-23 7-11 5-6 1-8v-9l5-42 6-35 1-10 9-38 4-17 9-28 4-13 15-36 8-16 12-21 13-20 16-20 12-14zm1 12-7 7-11 14-9 11-12 19-11 19-8 16-9 21-7 18-12 37-4 17-7 29-1 9-6 32-4 29-2 26-3 43-1 22v26l1 1h228l1-1v-27l-2-41-4-50-5-34-8-44-8-31-3-13-10-30-8-20-9-21-10-19-11-19-10-15-11-14-13-15zm-125 341-7 11-11 16-12 19-11 16-11 18-11 16-10 16-14 21v1l11-1 36-10 20-5 21-6 1-1v-111zm250 0v111l8 3 29 8 27 7 14 4 11 1-5-9-3-5h-2l-2-5-11-17-7-11-4-5-5-9-9-14-9-13-12-19-7-10-11-17zm-238 65-1 1v48l1 1h228l1-1v-48l-1-1zm360 15-5 10-14 3v3l9 8-1 14 12-6 10 6 1-4-1-10 10-10-1-1-14-3-5-10zm-300 44-1 1-1 12v32l3 25 3 17 6 20 7 21 7 15 7 16 10 19 6 10 6 12 3-1 13-25 10-19 7-17 5-10 10-30 5-19 2-16 2-18v-31l-1-13-1-1h-20l-1 1-1 32-4 30-5 19-6 17-6 16-7 18-3 2-4-1-4-9-6-15-4-11-9-27-3-16-3-22v-33l-1-1zm32 0-2 5v26l3 22 3 16 10 30 5 13 2 4 3-1 4-10 10-29 2-9 5-26 1-10v-27l-2-4z"/><path transform="translate(813,190)" d="m0 0h7l3 3-1 4-13 11-8 9-1 2h-2l-2 6-2 7-2 9v15l3 13 2 7h2l7 10 9 8 8 5 11 3 4 1h18l11-3 10-3 4 3-1 5-6 7-12 9-13 6-15 4h-18l-16-4-16-8-13-12-3-4v-2h-2l-8-16-4-16v-17l4-16 4-10 9-13 8-8 13-8 16-6zm-19 17-7 4-8 7-9 13-6 17-1 6v12l3 13 5 12 6 9 10 10 16 8 8 3 6 1h15l15-4 6-3v-2l-17-1-13-3-6-3-12-8-9-9-9-15-4-13-1-21 4-15 4-8 5-8z"/><path transform="translate(195,259)" d="m0 0h5l6 12 5 15 2 2 27 5 3 1 1 7-11 10-11 9 2 11 4 16v5l-4 3-5-2-13-8-9-5-18 11-8 4-4-3 1-9 5-21-2-4-17-14-4-4 1-5 4-2 27-5 4-9 5-14zm2 20-5 11-3 6-6 2-15 2v3l11 10 4 4-1 8-2 8v5l5-2 10-6 6 1 14 8 1-2-4-16 1-6 14-12v-3l-20-3-3-4-5-13z"/><path transform="translate(504,337)" d="m0 0h16l12 3 14 6 6 4 5 6 5 4 8 13 5 14 1 6-1 21-3 10-8 14-9 10-13 9-10 4-12 3h-16l-16-4-13-7-12-11-6-9-6-12-2-7-1-21 3-12 8-16 6-8 8-7 9-6 16-6zm2 9-12 3-12 6-9 7-9 12-4 9-2 11v13l2 12 4 8 9 12 10 8 14 6 9 2h11l13-3 12-6 10-9 7-9 5-10 2-11v-12l-3-14-5-10-8-10-10-7-8-4-9-3-6-1z"/><path transform="translate(507,357)" d="m0 0h10l11 3 12 7 9 10 5 12 1 4v15l-3 11-3 6-5 5-9 8-9 4-8 2h-12l-13-4-9-6-7-8-3-3-4-11-1-4v-15l4-12 6-9 9-8 13-6zm1 10-9 2-10 6-7 9-4 11v10l3 11 6 9 9 6 8 3 4 1h8l10-3 9-6 6-7 4-9 1-5v-10l-5-13-6-7-10-6-9-2z"/><path transform="translate(505,387)" d="m0 0h11l14 4 10 9 1 1v7l-1 1-7-1-5-5-10-5h-15l-9 4-5 4h-5l-2-3 1-5 5-5 9-4z"/><path transform="translate(178,626)" d="m0 0 5 2 3 9 3 7 17 3 3 3v5l-11 10h-2l3 17v5l-2 2h-5l-9-6-3-3-5 2-9 7h-5l-2-2 1-10 1-6v-5l-11-10-1-6 3-3 17-3 5-15zm0 21-3 6-10 3 7 7v9l4-2 4-1 4 3h2v-9l6-7-9-3-3-6z"/></svg>
