<svg xmlns="http://www.w3.org/2000/svg" viewBox="0 0 1024 1024">
  <g fill="#fff" stroke="#000" stroke-width="10" stroke-linecap="round" stroke-linejoin="round">
    <path d="M845 145 A 72 72 0 1 0 908 262 A 56 56 0 1 1 845 145 Z"/>
    <path d="M170 220 L 182 252 L 216 258 L 190 280 L 198 314 L 170 296 L 142 314 L 150 280 L 124 258 L 158 252 Z"/>
    <path d="M780 560 L 789 584 L 814 588 L 795 605 L 801 630 L 780 616 L 759 630 L 765 605 L 746 588 L 771 584 Z"/>
    <path d="M150 620 L 157 640 L 178 643 L 162 657 L 167 678 L 150 666 L 133 678 L 138 657 L 122 643 L 143 640 Z"/>
    <path d="M512 110 C 622 222 642 420 642 555 L 382 555 C 382 420 402 222 512 110 Z"/>
    <path d="M382 470 L 268 645 L 382 615 Z"/>
    <path d="M642 470 L 756 645 L 642 615 Z"/>
    <path d="M382 555 L 642 555 L 642 620 L 382 620 Z"/>
    <circle cx="512" cy="370" r="64"/>
    <circle cx="512" cy="370" r="42"/>
    <path d="M448 620 C 436 725 478 790 512 855 C 546 790 588 725 576 620 Z"/>
    <path d="M482 620 C 476 690 498 730 512 768 C 526 730 548 690 542 620 Z"/>
  </g>
</svg>
