<?xml version="1.0" encoding="UTF-8"?>
<svg version="1.1" viewBox="0 0 1024 1024" xmlns="http://www.w3.org/2000/svg"><path transform="translate(470,212)" d="m0 0h6l7 8 10 13 7 9 13 18 12 17 8 11 10 15 13 19 10 15 5 8v2h2l9 15 10 16v2h2l8 14 9 15 9 14 16 28 13 23 7 12 4 8 7 12 6 12 6 10 24 48 1 6-2 3-8 2-25 3-51 8-18 2-66 10-26 3-27 4-2 1v18l54 6 54 4 60 4 44 2h16l4-10 10-30 1-2h8l2 5-12 36v2l10 1 3 3-1 9-9 25-7 13-6 10 19-5 13-1 11 2 11 4 9 7 15 10 16 7 16 4 1 4-7 2h-11l-13-4-12-6-17-12-12-5-12-1-15 3-10 3-9 4h-2v2l-12 6 2 4 19 12 16 9 18 7 20 3 10 1v4l-11 3h-10l-16-3-24-10-21-12-10-7-20-13-10-7-7-4-20-7-15-2-14 1-15 4-21 8-13 7-10 4-15 7-9 3-1 2 5 1 12 5 23 6 23 2v3l-2 2-7 2h-19l-16-3-13-4-12-5-25-12-16-9-23-13-18-7-6-1h-21l-15 4-13 5-21 11-10 7-16 9-8 5-23 11-17 4-7 1h-16l-4-1 1-4 19-3 13-4 18-8 22-12 11-8-4-3-16-8-12-3h-18l-12 4-16 10-15 8-12 3h-14l-8-3v-3l19-3 16-5h2v-2l20-13 9-5 12-3h17l8 2h4l-7-10v-2h-2l-13-26-6-22-3-17-1-15 3-5h9l37 5 24 2 81 10 25 2h9v-17l-6-2-19-4-14-2-48-12-22-8-10-4-17-9-7-4-10-8-1-2v-8l4-23 5-22 4-16 7-23 7-20 5-13 4-10 7-15 3-7 8-17 10-19 6-11 9-16 6-9 12-19 10-15 7-9 14-19 13-16 9-11 3-3 1-6 1-21zm8 21v372l5 1 47-7 26-3 53-8 17-2 64-10-1-5-9-17-6-12-10-19-3-6h-2l-3-9-8-14-13-23-5-9-9-16-5-9h-2l-2-6-13-22-11-17-5-9-7-10-12-20-11-16-11-17-6-9h-2l-2-5-16-24-5-7h-2l-2-5-11-15-14-19-2-3zm-22 37-9 11-5 7-4 4-13 19-11 17-10 15-8 14-5 8-23 46-8 18-4 10-5 13-6 16-11 36-4 18-5 24-1 13 10 7 17 9 16 6 21 7 34 9 38 7h2l-1-9-8-28-4-16-8-44-3-23-1-23-1-35 2-50 5-38 9-47 5-17zm10 7-6 23-1 7-8 43-2 16-3 47v35l2 30v9l6 39 6 28 4 17 2 6h2v-300zm-175 349-1 3 3 19 6 21 4 9 11 21 14 16 11 11 3 2 6-1 16-9 15-6 16-4 14-1 17 2 20 7 10 6 16 9 8 5 15 8 8-1 14-6 10-4 14-7 23-11 24-8 13-2h14l17 3 20 8 14 9 11 7 8-6 9-9 7-9 9-15 7-16 4-12-1-1-83-4-57-4-33-2-58-6-35-4-25-2-75-9-23-2-37-5z"/><path transform="translate(329,644)" d="m0 0h15l8 6 4 9v7l-4 9-5 4-5 2h-11l-6-3-5-6-2-4v-11l5-9zm3 9-5 5-1 6 3 5 5 4 8-1 4-5v-9l-5-5z"/><path transform="translate(384,761)" d="m0 0h13l15 2 21 6 14 5 14 7 8 3 14 7 19 7 21 5h29v3l-8 4-8 2h-22l-17-4-18-6-18-8-13-6-12-5-18-6-13-3-7-1h-18l-17 3-26 8-15 5-2-1 2-4 16-10 13-5 15-5z"/><path transform="translate(634,769)" d="m0 0h10l14 2 17 7 12 6 4 4-1 4h-7l-16-6-13-4-7-2h-25l-10 2h-8v-4l10-5 12-3z"/></svg>
