<?xml version="1.0" encoding="UTF-8"?>
<svg version="1.1" viewBox="0 0 1024 1024" xmlns="http://www.w3.org/2000/svg"><path transform="translate(472,236)" d="m0 0h7l10 11 14 19 10 13 22 32 7 10 10 15 7 10 7 11 7 10 6 11 7 10 9 15 15 24 6 10 5 8 6 12 5 7 7 14 6 11 11 19 3 9h2l8 16 10 19 8 16 2 5-1 5-6 3-34 5-29 4-54 8-17 2-18 3-31 4-12 2h-5v17l13 1 33 4 48 3 73 5 20 1h21l5-10 9-27 1-1h7l2 2v7l-10 28v2l10 2 1 1-1 13-8 21-9 16-1 3 14-4 6-1h11l13 4 6 3 15 11 12 6 14 5 9 3-1 4-3 1h-14l-15-5-11-7-12-8-9-4-14-1-19 5-13 6-8 5 1 4 13 8 10 6 19 9 14 3 16 2 3 2-1 4-4 1h-22l-11-3-13-6-9-4-20-12-11-8-24-15-10-5-14-4-8-1h-11l-17 3-25 10-23 11-15 6h-2v2l6 1 14 5 14 4 20 2 3 2-1 3-5 2h-23l-22-5-14-6-7-4-10-4-12-7-12-6-9-6-19-8-8-3h-23l-13 4-18 7-10 6-21 13-27 15-20 6-6 1h-21v-4l2-2 20-3 17-7 16-8 16-9 4-3v-2l-16-8-10-3h-19l-13 5-13 8-11 6-10 3h-18l-5-2 1-4 21-4 12-5 16-11 11-6 8-2h21l6 1-5-9-6-9-8-18-6-20-2-20v-9l2-3h14l13 2 34 3 61 8 36 3h12v-13l-8-3-25-5-30-7-18-5-20-7-21-10-11-7-8-7v-11l7-37 7-25 6-20 7-18 3-9 13-28 11-23 7-12 6-11 9-16 8-11 5-9 10-15 7-8 10-14 11-14 9-11 4-4 1-3zm9 20v341l1 1h12l46-7 21-3 18-2 65-10 22-3 9-2 1-2-3-7-8-16-8-14-7-15-4-1-2-10-8-13-12-22-4-8h-2l-2-6-8-14-2-1-2-5-12-21-8-12-8-13-7-11-5-8-9-14-14-21-7-10-2-1-5-10-4-6h-2l-2-5-7-10-3-2-5-9-13-18-8-10zm-22 35-11 14-7 8-14 21-7 11-6 8-6 11-12 21-8 16-9 19-8 17-4 11-10 26-6 21-5 16-3 16-3 14-1 14 12 9 17 8 7 3 14 4 18 6 17 4 28 6 13 2 1-4-2-9-8-31-6-28-2-15-3-20-1-11-1-26v-35l2-36 6-43 7-32 3-12v-4zm10 6-5 19-4 21-2 14-3 17-2 19-2 29v42l2 33 7 41 2 11 6 24 2 4 2-1v-273zm-160 320-1 5 3 19 5 16 10 21 8 11 14 15 8 7 7-2 10-6 21-8 15-3h13l13 2 20 8 13 8 13 7 8 5 5 3h10l25-11 16-8 21-9 18-6h32l13 4 17 8 16 11 4-1 8-7 8-8 9-14 4-6 6-14 2-7v-5l-49-3-47-3-26-2-30-1-57-6-32-4-31-2-62-8-34-3-21-3z"/><path transform="translate(352,639)" d="m0 0h13l9 4 6 5 4 6-1 6-5 1-5-6-3-2v-2l-7-2h-11l-6 3-4 4h-5l-2-4 4-6 9-6z"/><path transform="translate(391,741)" d="m0 0h20l15 3 21 6 16 8 10 4 15 7 21 7 11 3 28 1v3l-8 4-4 1h-24l-24-6-18-8-21-9-9-4-21-6-9-2h-21l-22 5-20 6-8 3h-3l1-5 9-6 16-8 17-5z"/><path transform="translate(620,748)" d="m0 0h18l12 3 24 11 3 3-1 4-1 1h-7l-18-7-10-3h-43v-4l10-5z"/></svg>
