<?xml version="1.0" encoding="UTF-8"?>
<svg version="1.1" viewBox="0 0 1024 1024" xmlns="http://www.w3.org/2000/svg"><path transform="translate(461,241)" d="m0 0 10 1 6 4 21 3 11 4 9 6 6 8 4 8 1 3 1 12v46l-1 25 3-1 2-14 5-6 2-1h9l7 6 1 4v17l9 4 9 6 6 7 13 26 9 25 3 7 30 11 29 14 27 18 14 12 10 11 8 11 8 16 3 12 11 1 1-9-11-14-2-5v-9l3-7 9-17 8-16 6-9 2-1h32l3 3 1 3-1 25-3 39-3 7-4 3-20 5-2 7 11 7 4 5 1 2v11l-4 6-5 4-6 3v3l17 2 8 4 2 4 2 16 2 25v21l-2 3-3 1h-30l-5-4-10-16-7-14-5-8v-7l6-11h2l2-5 3-3v-5l-13 3-5 13-8 15-4 6-5 5-9 10-10 10-8 7-13 10-22 14-19 10-22 10-9 4-12 4-23 8-26 6-24 5-32 3h-48l-29-3-16-4-21-8-19-10-12-8-13-10-17-17-11-15-8-13-4-8-7-17-4-12-2-13-2-17v-19l3-22 3-14 5-13 6-13 6-10 9-13 9-10 5-6 11-9 8-6 6-4h2v-2l16-8 15-7 28-8 11-2 3-17 5-16 5-10 7-7 16-8 8-2h6v-17l4-6 2-1h11l5 4 2 6v13l3-1 1-3 1-50-3-5-3-1h-12l-4 3-5 1h-7l-8-3-6-8-4-11v-16l4-11 5-7 5-3zm-1 4-6 4-5 6-3 9v14l3 10 5 6 5 3 6 1 6-2 7-9 3-11v-9l-3-11-3-5-5-5-2-1zm21 7 2 11v16l-2 12 1 1 11 2 3 3 1 3v56l6 2 11 1h10l1-1 1-37v-36l-3-10-5-9-7-7-12-6-8-1zm-7 85-5 6v14h15v-16l-3-3zm69 6-4 2-1 2v14l3 2 11 2 1-1v-17l-3-3zm-70 18-1 1v54l36 4h6l2-2 3-8 4-4 6-2h14l24 3 16 4 5 2h3l-3-9-8-16-9-10-9-6-11-4-24-4-30-3zm-11 1-15 4-8 5-5 4-6 8-3 9-4 16-1 9 2 1 8-1 25-1h12l1-1 1-52-1-1zm69 45-7 3-4 5-1 5 3 2 39 7 37 10h3l-3-11-3-6-6-5-6-3-25-5-21-2zm-95 13-24 3-4 2 6 11 8 18 5 19 3 1 9-1h16l17 3 12 4 11 5 12 7 9 7 12 12 10 15 8 18 4 14 2 15v12l-2 14-5 16-7 15-9 13-9 10-9 8-11 7-9 5-12 5-20 4h-23l-15-3-5 1-3 12-12 25-7 9 3 3 19 4 15 2 13 1h34l30-3 27-5 20-4 22-7 19-6 11-5 17-7 3-5 6-14 9-33 3-16 2-19 1-17h-2l-5 10-8 8-10 6-11 3h-16l-11-3-11-6-7-7-7-14-2-6-1-11 2-12 4-10 7-10 10-7 11-5 4-1h18l13 5 11 8 6 8 3 7h2v-15l-4-35-6-25-7-23-3-6-5-3-42-14-15-3-30-7-48-6-13-1zm-40 6-18 6-19 8-17 10-12 9-9 8-5 5-9 10-6 9 3 3 12 3 6 2 2 4 4 5 1 2v14l-3 21-1 12v35l3 28v9l-4 8-7 6-22 3-1 2 8 14 11 14 16 16 8 7 16 11 23 12 8 3h7l7-10 5-8 9-22 1-7-19-10-11-7-13-11-10-13-11-20-3-11-3-15v-27l3-15 3-9 8-16 10-14 14-14 11-7v-2l6-2 16-7 9-3 1-4-7-21-4-10-9-14zm238 30-1 2 7 20 4 15 2 12 4 25 2 23v36l-2 26-5 30-3 16-8 24-2 9 5-2 14-7 13-8 9-7 11-8 15-13 7-7 9-11 4-18 1-13-1-1-21-2-9-4-9-8-3-7v-10l4-10 6-5 11-5 9-2 13-1 1-3-3-19-4-12-9-11-10-9-13-10-14-9-28-14zm133 7-5 3-4 7-11 21-9 19 1 5 10 16 4 1 2-1h6l4 4 2 3 16-4 6-3 2-3 2-17 1-15v-34l-2-2zm-333 14-14 3-13 4-16 9-11 8-11 11-9 13-8 16-5 15-2 13v19l4 19 9 21 12 16 12 12 11 8 16 8 14 5 9 2h30l21-6 16-8 9-6 9-7 7-8 6-7 9-16 6-16 3-14v-26l-4-16-5-15-2-4h-2l-2-6-9-12-13-13-14-9-8-5-19-6-10-2zm-135 18-7 11-4 8-7 20-4 17-1 8v32l3 17 4 14 7 19 2 2 15-1 10-3 5-4 3-9-2-21v-63l3-20v-10l-4-7-5-4zm423 28 2 21 1 1h6l-1-7-6-15zm-125 10-10 3-11 7-7 7-6 9-2 10v6l7-1-2 5-5-1 1 10 5 12 9 10 12 7 12 3h3l-1-7h4l-1 7 12-2 11-6 5-5-3-1 1-5 2 1 1 3 4-2 6-10 3-13-1-13-2-8-3-6h-2l-2-4-8-8-8-5-10-3h-6l1 6h-4l1-6zm159 4-3 4-1 7 7 3 3-2v-11l-1-1zm-44 12-16 3-10 6-6 8-1 9 3 7 5 6 10 5 6 2 8 1h11l21-3 22-6 10-7 3-5v-8l-6-7-10-5-9-3-26-3zm47 43-6 3 1 4 2 3h5l2-3-1-6zm8 6-3 6-4 2-6-1h-4l-8 13-2 4 1 5 16 29 6 9 2 1h25l4-3v-26l-3-33-4-4-8-2zm-39 0-4 2-2 18 4-4 5-13-1-3z"/><path transform="translate(305,242)" d="m0 0 9 1 6 4 3 6v10l-4 6-4 3-3 1h-8l-5-2-5-7-1-3v-7l5-8zm2 4-6 3-3 4-1 6 3 7 6 3 7-1 5-4 1-2v-8l-5-6-4-2z"/><path transform="translate(458,250)" d="m0 0 7 1 6 7 1 8v14l-3 7-5 5-6 1-6-5-3-5-1-5v-15l3-8h2l1-3zm0 4-4 5-2 6v13l3 8 2 2h6l4-6 1-4v-14l-3-8-2-2z"/><path transform="translate(299,299)" d="m0 0h17l11 4 11 8 7 10 3 10v17l-4 12-6 8-8 7-12 5h-21l-12-6-8-7-7-11-3-13 1-12 3-9 7-10 8-7 10-5zm2 4-12 5-8 6-5 7-4 12v14l4 12 9 10 8 5 10 3h10l10-3 10-7 6-7 5-10 1-4v-13l-3-9-7-9-8-7-8-4-4-1z"/><path transform="translate(293,312)" d="m0 0 6 1 3 4-1 9-4 6-7 3-7-1-2-4 1-8 6-7h2v-2zm1 4-6 4-2 4v6l5 1 7-8 1-5-2-2z"/><path transform="translate(255,378)" d="m0 0h9l12 3 11 7 8 10 5 13v16l-3 9-7 10-9 8-11 5-4 1h-13l-10-3-11-7-7-8-5-10-1-7v-16l4-9 6-9 8-7 8-4zm-2 4-10 3-11 9-6 8-3 9-1 9 2 11 7 13 9 7 10 4 5 1h9l10-3 9-5 7-8 5-11 1-4v-12l-3-10-7-9-9-8-11-4z"/><path transform="translate(246,391)" d="m0 0 6 3 2 5-3 8-8 7h-8l-3-4v-6l6-9zm-3 5-3 3v2h-2l-2 4 1 5h5l7-8v-5l-1-1z"/><path transform="translate(646,478)" d="m0 0h7l3 5-2 4-6 1-4-3 1-6zm3 4-1 2h3v-2z"/><path transform="translate(250,479)" d="m0 0h8l7 4 4 8-1 9-4 6-6 3h-8l-7-4-4-7v-8l5-8zm-1 4-5 5-2 5 1 6 4 5 5 2 7-1 6-6v-9l-3-5-3-2z"/><path transform="translate(434,494)" d="m0 0h25l12 2 14 6 10 6 10 8 8 8 7 11 5 8 4 11 2 12v24l-2 12-5 12-8 14-5 6h-2l-2 4-5 5-13 9-8 4-16 5-14 2-16-1-16-4-11-4-16-11-12-12-9-14-4-10-4-14-1-6v-18l4-18 5-12 6-10 7-9 11-10 10-6 14-7 7-2zm5 3-14 3-16 6-4 2v2l-5 2-11 9-9 11-9 16-3 11-2 14v9l2 17 4 10 6 12 8 11 7 7 10 7 15 8 6 2 13 2h20l16-3 16-8 11-8 10-10 8-12 5-11 4-13 1-6v-18l-4-17-7-15-7-10h-2l-2-5-7-6h-2v-2l-11-7-20-8-10-2z"/><path transform="translate(654,509)" d="m0 0h5l3 3v5l-2 2h-6l-3-3 1-5zm2 4v2h2v-2z"/><path transform="translate(400,517)" d="m0 0h7l5 3 2 3v8l-5 6-9 1-6-4-2-5 1-7 4-4zm2 3-5 4-1 5 5 5 6-1 3-4-1-6-4-3z"/><path transform="translate(449,523)" d="m0 0 11 2 9 6 6 10 3 8 1 10 5 6 4-2 9-9 3-2h9l3 3 1 3v8l-4 11-2 4v6l6 14v11l-3 5-7 1-8-4-9-9-1-2-7 7-4 3-2 12-4 7-5 3-4 1h-10l-10-4-8-6-12-3-11-4-6-4v-2l-4-2-5-5-3-6-6-4-3-6v-6l4-6 6-4 4-10 7-10 8-7 12-6 3-1 4-6 8-7 7-3zm-4 5-8 4-6 6 1 3 17 1 11 4 12 8h2l-2-11-6-8-7-6-4-1zm-8 16 1 4 5 6 5 11 3 10 5-1 6-4 9-1 3 5v7l-1 10v8l-1 4h-10l-7-4-2-2h-3l-4 11-7 10-2 3h12l11-4 14-9 8-8 4-8 1-4v-7l-5-12-9-10-9-7-11-5-11-3zm-13 1-14 7-6 5-6 10-4 10-7 5-2 6 3 5 5 4 2 1h17l12-6 3-4h2l-2 5-9 6-7 2-14 1 2 4 9 8 12 6 3 1h9l8-9 6-13 2-7v-15l-3-12-7-12-9-8zm79 10-8 6-8 9 3 9v12l-2 5 1 5 8 9 8 4 4-2v-9l-4-12-2-4 1-8 5-15-1-7-2-2zm-36 17-9 4-6 5v11l7 6 4 2h6l2-6-1-8 1-3v-9zm0 45-10 4-9 3-7 1v4l7 3 8 1 7-3 5-6 1-7z"/><path transform="translate(383,541)" d="m0 0h7l3 4-1 7-3 2-7-1-2-2v-7zm2 3-2 2 1 4 4 1 2-2-1-4z"/><path transform="translate(658,541)" d="m0 0 6 1 1 1v7l-3 2-5-1-2-3 1-5zm1 4 1 3v-3z"/><path transform="translate(596,542)" d="m0 0h15l10 4 10 8 6 13 2 8 5-1 1 5-4 1-1-3h-2l-1 9-6 12-9 8-8 4h-20l-10-5-9-9-4-8-1-4v-16l4-9 6-8 10-7zm2 4-10 4-8 7-5 8-1 6v11l2 8 6 8 8 6 10 3h8l11-4 7-5 6-9 1-5v-17l-4-8-6-7-10-5-3-1z"/><path transform="translate(405,565)" d="m0 0 5 3 1 4-2 3h-7l-1-7z"/><path transform="translate(428,566)" d="m0 0 5 2v7l-7 1-2-3 1-5z"/><path transform="translate(659,574)" d="m0 0 6 1 2 5-5 5-6-2-1-5zm0 4 2 2 1-2z"/><path transform="translate(656,607)" d="m0 0h6l3 4-2 5-1 1h-5l-3-4 1-5zm3 3v3z"/><path transform="translate(653,638)" d="m0 0 5 1 2 6-3 3h-5l-3-3 1-5zm1 4 1 2z"/><path transform="translate(645,669)" d="m0 0 5 1 2 2v6l-2 1h-7l-1-7zm0 5 2 2 1-2z"/><path transform="translate(730,693)" d="m0 0h12l8 4 7 6 6 10 3 14 8 8 3-1 7-8 9-7 7-1 5 4v15l-5 11v8l5 10 1 11-2 6-3 2h-7l-9-5-10-11-4 1-10 7-4 1v2l-9 4v10l-4 4-10 1-12-4-8-6-1-1-15-3-11-4-11-8-6-8-2-4-5-5v-8l5-5 5-3 6-11 13-13 9-4 9-2 9-10 8-6zm2 4-10 5-6 7 1 1 16 2 11 3 16 8-1-9-6-9-7-6-6-2zm-19 16-4 1 2 5 6 12 4 13 4-2 9-4 7-1 5 5v14l-4 11-3 2h-8l-5-1v-2l-6-4-10 19v2h22l11-2 12-5 11-7 5-4 5-8v-10l-4-7-7-8-11-8-14-7-9-3-6-1zm-11 3-9 5-10 9-7 13-9 7v5l5 4h13l4-3 4-1-2 4-7 3-8 1v3l5 5 8 6 8 4 7 1 7-8 4-11 2-10-1-14-4-12-6-8zm92 7-9 7-7 9 1 6 1 10-3 9 9 11 8 6 5 1 3-3v-8l-5-12-2-4 1-8 6-15v-6l-2-3zm-58 18-12 6-3 3v8l7 6 4 2 7-1 3-6 1-4v-12l-2-2zm2 44-16 3v2l5 3 4 1h11l2-2v-7z"/><path transform="translate(249,701)" d="m0 0h11l6 2 8 7 2 3 10 3 9 7 7 8 4 6 5 4 2 3v7l-14 15-8 5-18 4-8 6-2 1h-14l-2-2-1-6 1-4-6-2-11-7-4-2-2 4-8 7-5 2-6-1-2-5 1-9 3-7v-8l-4-12 1-7 4-3 9 3 8 8 1 2 3-1 4-5 2-11 4-6 6-7zm3 3-9 6-5 10v3l6-2 13-6 13-2v-2l-8-6-2-1zm10 13-10 3-11 6-12 11-3 8 1 5 4 6 10 8 12 5 4 1 18 1 1-4-5-8-1-3-5 1-4 2h-7l-3-3-2-8v-9l2-3h8l7 4h2l5-15 3-5v-3zm19 3-5 6-4 12v13l5 14 4 4 7-1 10-6 4-4v-2l-9-3-2-3h3l4 2 9-1 3-2-1-5-7-5-4-8-5-6-8-5zm-72 4-2 3 1 9 3 6v8l-4 10v7l3 2 7-4 7-7 1-5-2-8 1-9-7-8-3-3zm45 14-2 2v8l2 7 2 2 6-1 6-6v-5l-8-6zm-3 34-1 5 2 2h8l5-3v-2l-10-2z"/><path transform="translate(287,731)" d="m0 0h5l3 3-1 6-3 2-5-1-2-3 1-5zm1 4v3h3v-3z"/><path transform="translate(690,732)" d="m0 0h6l4 4v6l-3 3h-6l-4-4v-6zm2 4-1 4 4 1 1-5z"/></svg>
