<?xml version="1.0" encoding="UTF-8"?>
<svg version="1.1" viewBox="0 0 1024 1024" xmlns="http://www.w3.org/2000/svg"><path transform="translate(463,260)" d="m0 0h7l6 2 3 2 16 2 13 4 10 7 6 8 4 8 1 6v59l-1 12h2l1-11 4-6 3-3h10l6 7 1 18 14 7 7 7 11 21 11 29 2 5 18 6 17 7 16 8 16 10 14 10 12 11 9 9 8 13 5 10 3 11 1 1 9 1v-8l-11-16v-10l11-23 11-20 3-3h31l3 4v16l-3 41-2 8-4 5-19 6-1 5 5 4 7 6 1 2v12l-4 6-8 5 1 3 15 2 5 3 2 2 3 20 1 13v27l-3 3h-30l-6-6-12-22-6-10v-8l5-9 3-1 2-5 2-6-12 3-6 16-1 2h-2l-2 6-6 9-8 8-7 8-13 12-17 12-16 10-23 12-26 11-18 6-23 7-18 4-19 3-22 2h-52l-25-3-16-4-26-11-14-9-11-8-10-9-8-7-8-10-10-15-8-15-7-19-4-21-1-6v-27l4-23 6-19 7-14 9-14 8-10 14-14 11-9 13-8 16-8 19-7 17-4 7-2 3-13 4-16 7-12 8-6 14-7 11-1v-16l5-6h10l6 5 1 3 1 13 2-2v-49l-3-3h-13l-5 3h-10l-7-3-6-8-2-8v-19l4-9 5-5zm1 4-5 3-5 6-3 7v15l4 10 6 6 10 1 5-3 5-6 3-10v-10l-4-12-4-5-3-2zm20 6-1 2 1 4v23l-1 7 4 2 9 2 1 2 1 54 5 2h21l1-18v-51l-4-11-6-9-8-5-6-3-5-1zm-8 79-4 5v11l2 2h11l1-1v-15l-3-2zm64 5-4 2v14l5 3 8 1 1-1v-15l-3-3zm-64 16-1 1v49l4 2 27 3h8l3-3 2-7 4-3 4-1h17l27 4 10 3 4-1-5-12-6-11-10-10-5-4-19-5-27-4-11-1zm-11 1-13 4-10 6-6 7-4 10-5 20 1 5 43-2 1-1v-48l-1-1zm63 42-5 2-4 5-1 4 2 2 29 6 30 7 11 3 4-1-4-12-5-6-8-4-22-5-15-1zm-89 12-14 1-7 2-1 4 7 12 7 20 3 10h27l19 4 19 8 9 6 6 5h2v2l7 6 2 3h2l2 4 8 13 7 18 3 11 1 7v20l-4 17-6 15-5 9-4 5-9 11-12 10-11 7-17 7-14 3h-25l-11-2-6 1-5 15-8 16-6 9v4l3 2 14 3 24 2h36l29-2 42-9 20-6 17-6 20-8 6-4 4-6 7-22 6-22 4-37v-6l-3 1-3 6v2l-4 2-10 8-9 3h-24l-7-3-10-6-6-9-5-9-2-10 1-13 4-11 8-11 11-7 9-3h18l11 3 11 9 5 6 3 6h2v-16l-4-33-4-18-7-22-3-6-4-3-11-4-14-4-18-6-29-6-14-3-28-4-17-1zm-35 5-22 8-16 8-12 7-14 11-15 15-6 9 1 4 7 3 9 2 7 10v17l-3 23v40l2 16v15l-5 8-7 4-18 3-1 2 6 10 11 14 20 20 8 6h2v2l18 10 14 7 3 1h8l8-11 6-12 6-17-1-4-19-10-14-10-8-8-7-10-6-12h-2l-3-10-3-12v-39l4-14 10-19 8-10 9-10 12-8 2-3 16-6 10-4 2-5-7-22-5-10-6-9zm220 29 1 7 5 13 4 20 5 30 1 11v47l-3 26-5 29-3 12-6 17v5l5-1 20-11 18-13 9-8 8-7 16-16 3-14 1-16-6-2-17-2-9-6-4-4-2-5v-12l3-7 8-6 9-4 18-2 1-1-1-11-2-13-3-8-16-16-8-7-15-10-23-12-8-3zm122 5-5 4-15 28-6 14 1 6 8 13 6 1h7l5 6 15-4 6-4 2-6 1-16v-41l-1-1zm-307 13-16 4-11 4-15 9-12 11-8 9-6 9-5 10-5 13-3 15v19l4 17 9 21 8 9 7 8 9 9 10 7 11 5 17 6 4 1h30l20-6 17-9 12-9 7-7 6-8 10-18 3-10 3-12v-28l-6-22-4-8-2-1-5-10-9-10-10-10-9-5-11-7-24-6zm-124 18-4 5-9 20-3 11-4 18v36l6 26 7 17 2 2 15-1 10-4 3-3 2-7-1-15v-66l2-13v-13l-1-2h-2l-2-4-5-4-9-3zm390 25 2 19 5 1 1-1-1-9-5-10zm-118 9-10 4-13 12-2 5h-2l-2 5-1 11 5 1v3l-5 1 1 9 5 11 7 8 10 6 11 4 5-1v-5h1l2 6 10-2 12-7 1-4v-3l5 1 4-5 3-7 2-8v-9l-3-15-7-8-7-7-12-6h-9v3l-2 1-1-4zm150 3-3 4-1 6 3 2h5l1-1v-10zm-43 11-15 4-10 7-2 4-1 11 4 7 8 6 9 4 6 1h14l19-3 20-6 8-6 3-4v-8l-6-7-11-5-10-3-17-2zm42 41-1 1v6l1 1h5l2-2-1-5-1-1zm-26 4-3 2-2 16 3-1 5-11v-5zm37 0-4 6-6 1h-6l-6 8-3 7 1 6 10 19 9 14 2 2h25l2-2v-39l-2-16-4-4-6-2z"/><path transform="translate(321,261)" d="m0 0 10 1 5 4 2 4v11l-6 7-2 1h-11l-5-3-3-4v-12l5-6zm0 4-5 4-2 5 1 6 5 5 7 1 6-4 1-1v-10l-5-6z"/><path transform="translate(462,268)" d="m0 0 8 1 4 5 1 4v20l-5 8-4 2-5-1-7-8-1-3v-17l4-6zm0 4-4 6-1 3v15l3 6 1 1h6l5-7v-16l-3-6-2-2z"/><path transform="translate(315,313)" d="m0 0h17l11 4 10 8 6 9 2 7v19l-5 13-4 5-8 6-10 4h-21l-12-7-7-7-6-11-1-7 1-17 4-8 9-10 11-7zm3 4-12 5-5 3-7 10-3 9v14l4 11 10 11 13 5h13l14-7 7-7 5-8 1-4v-17l-3-7-9-10-5-4-8-4z"/><path transform="translate(309,325)" d="m0 0 7 1 3 3-1 10-5 6-10 1-4-4 1-7 7-8zm3 4-5 3-3 3v7l5 1 7-9-1-4z"/><path transform="translate(275,386)" d="m0 0h10l11 3 9 6 7 8 5 12v18l-3 7-7 10-10 8-9 3h-17l-9-3-9-7-6-7-4-8-1-4v-18l6-12h2l2-4 4-5 9-5zm-3 4-9 3-11 10-6 12-1 11 3 12 7 10 10 7 9 3h11l12-5 6-4 6-7 4-11v-15l-3-9-14-14-9-3z"/><path transform="translate(266,398)" d="m0 0 6 2 3 5-3 9-6 5h-9l-3-3v-6l4-6zm-2 5-6 7 1 5h5l6-7v-5z"/><path transform="translate(635,478)" d="m0 0h7l2 3-1 5-1 1h-6l-3-4z"/><path transform="translate(270,479)" d="m0 0h9l6 4 3 5v11l-5 6-2 1h-12l-6-5-2-4v-9l5-7zm0 4-5 5-1 9 5 6 2 1h6l8-7v-9l-4-5z"/><path transform="translate(436,493)" d="m0 0h31l13 3 13 7 11 8 7 6 7 10 7 12 4 11 1 7v27l-3 12-8 15-4 7-6 5-4 6-11 8-15 7-20 4h-12l-16-3-14-4-10-7-9-7-7-7-8-12-4-9-5-18v-21l5-19 4-9 9-13 10-10 11-7 13-7zm8 2-16 4-14 6-3 3-12 9-8 10-10 17-2 9-1 10v15l1 11 5 12 9 16 11 11 14 8 12 6 11 2h23l15-4 16-9 11-9 8-10 5-9 5-12 3-10v-21l-4-15-8-16-5-6-2-1-3-5-11-9-14-7-13-5-5-1z"/><path transform="translate(643,506)" d="m0 0 5 1 2 2v5l-2 2h-6l-2-5z"/><path transform="translate(408,514)" d="m0 0h8l6 5v9l-6 5h-8l-5-4-1-9 4-5zm2 3-5 5 1 5 3 2h6l3-3-1-7-4-2z"/><path transform="translate(449,520)" d="m0 0h11l8 3 6 5 6 12 3 14 2 2 5-1 10-9h9l4 4v11l-5 12 1 9 4 8v13l-3 3-8 1-9-6-7-6-8 7-3 12-4 6-5 3h-14l-9-4-5-4-20-6-6-4-10-10-4-6-5-4-2-4v-6l5-6 5-4 3-9 9-10 7-6 12-6 9-10zm1 4-9 6-4 5 6 2 12 1 13 5 3 1v2l5 2 1-3-3-9-8-9-5-3zm-6 15 1 5 5 8 5 13 2 2 5-1 9-3 4-1 1 3v14l-1 13h-11l-7-5-3 2-5 12-5 8 1 1h10l10-4 15-10 6-8 3-7v-9l-5-11-7-8-10-8-14-5zm-13 1-12 5-7 6-6 11-4 8-5 4-1 2v6l7 6h18l10-5 4-3-3 5-10 5-15 2 1 4 9 8 12 6h9l7-7 5-10 3-8v-18l-4-12-6-9-7-6zm73 9-8 6-7 8 2 7v14l-1 4 3 6 8 7 6 2 2-2v-9l-4-13 1-9 3-12-1-8zm-36 16-8 4-3 4v10l7 6 2 1h7l1-8v-16l-1-1zm2 41-7 3-15 4-1 4 8 4h7l6-4 4-4v-7z"/><path transform="translate(393,536)" d="m0 0h7l3 4-1 6-2 2-9-1v-9zm1 4-1 2 2 3 4-1v-3z"/><path transform="translate(646,536)" d="m0 0 6 1 1 1v6l-2 2-6-1-1-5z"/><path transform="translate(588,537)" d="m0 0h16l11 5 7 6 5 11 3 7 4 2-1 3-5-1-1 8-5 10-8 8-7 3h-21l-10-5-8-10-3-7v-17l4-8 9-10zm1 4-10 5-7 8-3 7v14l3 8 7 8 12 6h10l10-4 9-8 3-6v-20l-4-8-8-7-6-3z"/><path transform="translate(426,559)" d="m0 0h7l4 2 1 7-4-2-1-1h-8l-3 2-1-4z"/><path transform="translate(647,566)" d="m0 0 6 1 2 5-5 4-5-2-1-5z"/><path transform="translate(644,597)" d="m0 0h6l3 4-3 5h-5l-2-3z"/><path transform="translate(641,625)" d="m0 0 5 1 2 7-2 1h-6l-2-2 1-5z"/><path transform="translate(634,654)" d="m0 0 5 1 2 2v5l-1 1h-7l-1-7z"/><path transform="translate(710,676)" d="m0 0h15l8 4 10 13 4 15 6 5 4-2 8-8 4-3 9-1 4 4v14l-4 8v10l4 7v15l-3 3h-9l-6-3-9-9-7 1-11 7-5 3-2 1-1 10-2 2-5 1h-8l-10-4-7-5-21-5-9-6-8-7-6-9-2-2v-9l10-10 8-12 9-8 10-4 7-2 12-12zm4 3-9 5-4 5v2l19 4 10 4 6 3h4l-1-7-5-8-7-6-5-2zm-18 15-3 3 8 16 3 9 5-1 6-3 8-1 3 3v16l-4 9h-12l-5-5-3 1-8 15 1 3h21l15-4 12-7 9-8 3-5v-10l-7-10-9-8-7-5-15-6-8-2zm-10 3-10 6-8 8-5 10-8 7v6l3 2h15l5-2-3 3-11 3-1 3 4 5 11 7 6 3 5-1 7-8 4-12 1-10-2-13-6-12-5-5zm86 6-9 7-6 8 1 16-2 8 11 12 7 4 5-2v-9l-6-14 1-8 5-13v-7l-2-2zm-54 17-12 6-2 2v7l8 7 7 1 4-4 2-7v-10l-2-2zm1 40-13 3v3l6 3h12l1-1v-7l-1-1z"/><path transform="translate(269,683)" d="m0 0h13l6 3 8 8 10 4 11 10 7 9 5 5v8l-13 14-8 4-16 4-4 3h-2v2l-2 1h-15l-2-4-1-7-16-9-7 6-3 3-3 1h-7l-2-3v-7l2-7v-13l-2-6 1-9 2-2 7 1 8 7 4 3 4-5 3-11 7-9zm4 3-8 5-5 10v2l8-2 9-4 12-2-1-4-8-5zm8 12-12 4-11 8-7 8-2 8 3 6 10 9 11 5 13 2h7l2-1-1-5-4-7h-17l-2-6v-12l1-1h7l6 3h3l5-15 2-5-1-1zm18 3-4 5-4 11v13l5 12 3 4 8-1 9-7 3-3-2-2-5-2 1-1h8l4-2v-6l-6-5-4-6-8-9zm-66 4-2 2 1 9 2 4v10l-3 8v5l4 3 9-6 4-7-1-14-1-5-7-8-1-1zm41 13-1 1v8l3 7 4 1 6-4 2-2v-5l-9-6zm-1 30-2 2 1 5h9l4-4-9-3z"/><path transform="translate(304,714)" d="m0 0 7 1 3 2v3l-9-1-6 2v-4z"/><path transform="translate(678,714)" d="m0 0 6 2 2 2v4l-4-1-1-1h-5-4l2-4z"/></svg>
