<?xml version="1.0" encoding="UTF-8"?>
<svg version="1.1" viewBox="0 0 1024 1024" xmlns="http://www.w3.org/2000/svg"><path transform="translate(609,123)" d="m0 0h19l14 4 11 7 8 7 7 11 3 9 5-3 6-5 5-3 15-4h14l15 4 10 6 7 6 7 10 4 7 2 11v15l-4 16 12 11 7 11 4 13 1 5v12l-4 15-8 14-8 9-11 7-8 4-12 2h-16l-14-3-9-5-8 16-6 8-8 8-10 6-13 4-6 1h-14l-15-3-15-8-12-11-5-8-4 2-9 7-7 3-12 1-9-2-9-5h-3l-7 11-8 8-14 7-8 2h-15l-14-4-10-6-1-1-6 16-9 10-8 4-12 3-3 13-6 8-4 2v2l9 3 4 4 8 16 3 9-8 21-5 15 10-6 15-6 7-3 11-3 20-3h29l67 7 69 8 12 4 23 11 12 8 2 2-1 11 68 9 22 2 43 6 13 4 13 7 10 8 5 6-1 9-3 2-1 22-3 141-1 12-9 3-2 18-3 11-6 9-5 5-4 1h-12l-8-2-7-8-4-10-2-15-12 1-18 3-2 24-5 12-6 9-8 5h-14l-10-3-6-7-5-11-3-18-17-3-15-1-4 24-3 10-7 15-6 9-5 5-9 6-5 1h-15l-13-2-11-8-7-10-7-14-4 2-4 19-7 17-5 7-9 7-7 2-14-1-11-4-8-9-4-10-4-12-7 1v10l-3 14-7 16-5 8-8 7-6 3-4 1-13-1-10-3-10-9-4-8-5-16h-3l-1 35-4 3-14 5-125 6-47 1-5-4-6-8-11-13-13-16-10-13 1-6 3-7 14-35 7-16 2-5v-24l3-3 16-4 17-4 1-27 3-8 1-4-6-16-2-14-1-17 2-19 2-11 5-14 9-16 9-11 9-8 17-10 9-1v-3l-5-2-7-8-5-13-1-12 2-10 4-10 7-8 8-4 4-1h12l-3-10-10-28-1-5 12-25 13-5 12-3-9-6-5-4-6-8-2-7-1-13 3-12 6-8 6-5h2l-4-7-6-10-3-9-1-12 4-16 8-11 9-8 10-5 13-3-1-16 2-12 7-12 10-9 8-4 9-2h13l11 2-1-4 4-12 7-12 7-7 12-7 13-4h15l11 3 13 7 3 2 3-10 7-10 9-6 9-3 9-1 12 3 9 5 10-13 14-11zm-1 3-8 2-12 6-10 9-4 5-5 8-5-3-10-5-12-1-13 4-9 7-7 14-2 6-4-2-5-4-10-5-8-2h-16l-10 3-11 6-9 8-9 17-2 13-12-4h-12l-10 3-11 7-6 7-6 10-2 9v8l2 12-15 2-11 6v2l-4 2-5 4-7 14-2 8v10l3 11 6 10 7 7-3 3-6 4-6 7-4 8-1 4v9l3 10 6 9 9 6 5 2 1 3h29l18 3 6-1 7-6 4-10v-6l-7-2-10-4 16 3 10-1 9-3 8-6 6-9 3-8 1-9 10 8 12 5 4 1h18l13-4 9-7 8-9 5-10 4 2 11 6 5 1h9l10-3 8-5 6-7 4 5 7 9 9 8 12 7 15 4h15l15-4 14-9 9-9 6-10 5-13 16 8 9 2h17l16-5 14-10 9-11 6-13 2-8v-15l-2-9-8-16-8-9-6-4 1-5 3-8 1-4v-16l-4-12-4-6-7-9-12-9-8-3-6-1h-16l-9 2-12 6-8 7-3-1-4-9-6-9-5-6-10-7-10-5-7-1zm-259 281-16 3-12 5-3 5-7 12 1 3 20-6 12-2h39l20 4 12 4 4 1-3-9-5-10-4-3-17-5-12-2zm4 21-22 3-16 5-6 3 2 9 1 1 7-1 22-5 10-1h21l19 2 24 6h4l3-9-5-4-10-3-16-4-18-2zm-4 16-19 3-12 3-4 2 1 7 4 10 4 12 3 3 21 8 5 4h2l2 5 5 16 1 1 22 1 10 1 9-25 5-15 7-18 2-8-10-5-22-4-10-1zm118 16-20 5-20 8-17 9-4 9-2 7 5-1 24-12 20-6 17-3 22-1 19 2 20 5 14 5 23 12 4 1 2-9-1-5-7-4-18-10-20-8-17-4zm69 3v2l22 10 11 7 6 3 35 4 61 6h7v-3l-21-11-15-6-19-3-24-2zm-57 14-17 2v3h2l2 10 10 5 5 5 4 6 3 10 1 30 1 1 17 2 11 4 11 7 10 10 12 19 6 18 3 21-1 17-5 20 5 4 4 8 1 29 3 2 2-4v-203l-11-8-18-8-10-4-24-5-11-1zm-172 6-8 4-9 10-3 9-1 5v11l2 10 5 9 9 7 6 2 9-1 8-5 6-8 3-7 1-6v-18l-4-9-8-9-7-4zm142-1-8 2-17 7-17 9-2 2-1 8v16l1 21 1 1h7l1-1 1-37 13-8 11-5 12-5v-7h2v-3zm7 1-2 3v5h9l-1-7-1-1zm-128 4 2 5 4 7 3 11v12l-4 14-7 9-4 4 1 1h23l1-1 1-7 7-8 2-6 1-4v-12l-3-9-6-8-12-5zm249 1-2 2v6l-1 2 2 4 75 5h12l21 1 2-5v-5l-1-1-34-3h-9l-58-6zm-124 6-9 3-6 5-6 12v4h54l-3-10-6-8-8-5-4-1zm-19 7-17 9-1 1v37l1 1h10l1-1 1-28 2-9 5-8 1-2zm138 3-1 139v66l2 1 5-3 13-26 1-3 3-1 7-8 10-9 9-4 9-2h17l12 2 7 4 5 5 2 3h3l1-34 1-59v-64l-1-1-42-3-56-3zm-171 2-5 14v13l1 14 5 1 1-1v-40zm280 5v2l16 8 9 9 2 3 13 2 60 6 28 2 40 4h5l-2-4-15-10-9-4-49-7-39-5-12-1-38-5zm0 5-1 1v26l1 1 25 2 1-1v-10l-7-8-7-6-10-5zm-227 2-20 2-3 2v26l2 2 30 10 13 1 7-2 3-2v-35l-3-2-20-2zm-92 3-3 7-4 9v2l-4 2-2 2v6l4 3 15 5 5 1h16l5-3v-32l-1-1-7-1zm349 15-1 1v8l5 2 72 6h11l48 4h12l1-1v-5l-1-1-56-6-40-4h-9zm-31 11-1 19-1 69v39l6 12 4 13 1 6v11l-8 4-15-2 1 14 1 6 1 17 1 1 21 3h12l1-152v-58l-1-1-11-1zm28 2-1 1-1 60-1 148 1 1h7l4-3 3-12 7-14 4-4 11-2 7 3 6 7 6 15 14-1 27-5 2-2 3-13 5-9 5-5 3-1h10l7 6 5 15 2 2 5-1 2-2 3-145v-27l-6-2-84-7-35-2zm-310 2-3 6-6 3h-15l-14-4-10-4h-13l-3 2 12 6 14 11 9 11 7 10 5 12 5 14 3 15v26l-4 19-5 12v2h2l4-5 10-4 25-3 24-2 20-3 3-7 3-14v-28l-3-15-8-20-7-11-7-9-8-8-14-9-7-3zm-92 1-16 5-13 8-12 11-8 11v2h-2l-10 25-3 13-1 11v14l2 14 5 16 8 18h2l2 5 9 11 10 9 12 7 12 4h26l15-6 11-8 13-13 10-17 6-18 3-13 1-19-2-16-5-19-8-16-8-12-8-9-8-6-12-7-11-4-6-1zm120 0 5 4 11 8 7 7 9 13 9 19 4 14 1 11v25l-2 14-1 6 1 1 14-1 39-5 14-1 4-3 3-14 1-9v-12l-2-13-4-16-11-20-5-6-5-5-8-7-15-8-5-1-3 6-7 3h-16l-15-5-13-5zm72 0 4 3 14 10 10 10 8 12 6 12 3 9 3 14v26l-4 17 3 1h6l4-8 3-16v-17l-3-17-5-15-6-10-8-11-9-9-12-8-8-3zm127 104-14 7-10 9-7 8-7 12-8 18-10 2-15 1-54 11-14 2-43 9-14 2-15 3-37-3v-7l-1-1-9 1-24 5-20 3h-15l-17-4-4-1-15 2-26-3h-7l-19 4v2l133 10 27 1 18 1 36-7 28-6 17-3 36-8 23-4 36-8 14-2 3-2 5-13 8-16 9-12 7-5v-2l5-2 3-2v-2zm22-1-9 1-16 8-11 10-10 16-4 9-5 13-56 12-12 2-41 9-18 3-36 8-23 4-8 3v72l1 50 9-2 6-4 1-97 4-6 5-4 6-2 25-5 34-7 25-5 27-6 25-5 33-7 4-15 5-12 6-11 10-11 14-7h14l9 5 7 7 8 14 2 9 3 12 2 1 4-2v-12l-3-12-7-16-8-10-10-7-9-3zm-102 12-87 11-15 1-39 5 2 4 3 3h2l3 11 16-1 71-10 26-3 34-5 1-2-5-9-8-5zm92 4-8 4-6 5v1l17 3 9 6 6 7 9 18 5 1-1-17-4-10-6-10-7-6-4-2zm22 6m2 1 2 5 3 6 4 14 2 13 1 1h6l-2-13-5-13-6-9zm-35 7-10 5-7 8-3 9-4 14-1 5-6 3-3 13-1 9v15l6-1 4-3 2-22 5-16 5-10 9-10 5-2h10l5 3 8 9 5 11 2 10 1 8v18l-4 22-5 11-8 11-9 5h-7l-6-3-7-6-6-14-2-4-5 1-4 3 2 10 5 12 7 9 7 6 7 3h7l7-3 8-6 9-12 7-16 4-15 2-12v-25l-3-15-4-12-6-12-9-10-8-4zm-235 1-7 5-4 9-1 6v29l1 1 31 2 1-1v-34l-3-10-5-5-4-2zm163 0-20 3-20 2-72 10-13 1-14 2-1 1v32l15-1 49-10 19-3 43-9 19-3 3-2v-22l-1-1zm-304 8-3 5-1 5v25l7 2 18 2 1-1v-10l-10-11-8-12-2-5zm129 1-7 10-8 11-7 7-10 7v1h7l22-5 1-1 1-18 2-12zm248 8-6 4-7 8-4 7-5 17-1 7v14l9-2 8-4 4-10 5-5h7l5 6 1 5 1 10-2 9h-2l-4 4-4 1-5-2-4 1-16 7 1 7 5 12 7 7 4 2h9l8-5 6-9 6-13 3-13v-32l-3-11-7-14-8-7-2-1zm195 10-7 5-7 11-3 14-1 14 3 11 7 10 5 3 7-1 7-7 6-12 1-8v-20l-4-11-7-8zm-547 12v7h8v-3l-6-4zm463 0-6 3-8 9-4 12-2 10-2 3 2 16 4 10 5 8 8 4 9-3 6-7 5-10 3-13v-15l-3-12-6-10-6-5zm-150 4-9 3-2 6-1 8v23l1 3 9-2 2-1 2-26 2-13zm-14 3-28 6v2l7 3 7 5 6 9 6 17h3v-28l1-14zm-364 8v18l1 1 120 11 21 1 37 3h5l1-1v-20l-1-1-65-5-26-1-81-6zm423 0-5 3-4 7v14l4 7 7 1 4-4 3-8v-11l-5-8zm-103 2-10 5-10 13-4 11-3 15v5l9-2 2-2 5-22 7-12 7-8 2-1v-2zm10 1-8 6-8 10-5 12-2 9v6l6-2 3-6 5-14 8-8 9-1 7 4 6 10 3 9 2 1 3-2-1-9-6-15-5-6-7-4zm-26 2-22 4-42 9v1l16 1 9 4 7 6 8 16 3 8h5l2-2 5-23 5-12 8-11zm286 0-6 2-1 3 2 12 4 9 7 8 5 1-2-5-3-6-3-12-1-11zm-258 12-6 4-6 9-2 8v4l8-1 9-3 6 1 3 3h5l3-3-3-9-4-8-5-4-2-1zm77 0-23 10-9 4-21 10-8 3-2 2v8l-1 6 2 1 15-7 15-6 9-5 10-4 18-9-2-7v-5zm-177 2-16 4-8 7-3 9v52h3l1-22 3-15 4-11 4-8 7-9 8-5 3-2zm-231 2-4 9-5 12-6 13-2 7-4 8-3 9 4 5h3l14-29 11-23 3-7v-3zm497 0-2 1v11l3 11 5 9 5 4 6 1-7-14-3-12-1-11zm-260 1-10 6-8 11-4 8-5 20v25l4 17 5 9 5 6 8 4h5l-2-4-5-5-4-10-4-14-1-10v-9l2-15 4-15 7-13 6-7 3-2v-2zm15 0-10 5-7 8-6 10-3 10-2 9-1 9v16l3 16 5 12 6 8 10 5 8-1 8-6 6-7 5-10 5-15 1-5v-9l-4-1-3 5-1 11-7 16-4 5-8 4-7-1-7-6-5-10-3-15v-11l3-16 5-12 7-8 6-3 7 1 8 7 5 12v2h5l2-2-2-9-4-9-6-8-7-6zm-237 1-5 8-16 33-8 16-2 5 1 4 4 4h3l13-26 10-19 8-16 3-5-1-4zm15 1-9 15-8 16-8 17-6 10-6 13 2 5 5 4 6-8 8-16 14-27 14-26v-2zm14 2-8 16-10 19-6 10-8 17-4 6-5 10 1 5 5 5h3l8-15 6-11 11-22 6-10 13-26v-4zm16 1-6 10-8 16-24 46-9 16 1 5 5 5h3l47-94v-3l-2-1zm13 1-5 8-8 17-8 16-10 19-2 6-8 14-8 16v3h10l13-1 4-6 6-18 5-12 5-14 11-29 6-17-6-2zm13 2-9 24-5 14-7 18-5 14-6 15-3 10 3 1 28-2 3-8 4-15 4-17 8-30 4-16 1-7-3-1zm23 1-7 24-6 25-8 29-2 14h19l7-2 1-9 10-58 2-16v-5l-4-2zm20 1-2 5-5 29-1 9-7 41v6l7 1 17-1 1-1 7-72v-9l1-2-2-5zm21 2-2 3-3 31v9l-4 43 1 1h16l8-1 1-1v-83l-1-1zm20 2-1 1v81l2 2h8l6-2v-40l-1-40-3-2zm81 1-6 4-6 8-3 9-3 14v14l3 14 4 9 8 6h6l7-5 7-12 4-15-1-5-7 3-3 5-4 4h-7l-3-3-2-6v-8l4-10 2-1h12l7-3 1-2-5-12-4-5-6-3zm83 3-4 3-2 5v12l4 6h6l4-6 1-10-2-7-3-3zm-9 2-31 11-21 7-11 5 2 12 8-1 27-10 18-6 8-4 2-10 1-3zm54 6-8 4 1 7 7 14 4 5 9 6 9 1-5-7-4-4-5-10-5-14zm-58 12-6 3 1 10 3 10 5 6 5 3 7-1 6-5 7-14 1-9-6 1-6 4h-6l-5-5-1-3zm-68 3-4 3-2 6v10l3 6h7l4-6v-15l-5-4zm103-5-3 2-2 12-8 16-5 4-5 2-6-1-8-7-5-14-2-7h-5l-1 1v11l4 11 6 10 7 6 4 2 9-1 8-6 6-8 6-14 3-13v-5zm-55 9-7 3 1 13 7 13 8 7 8 1-6-8-5-11-4-17zm-327 16-2 5 1 5 2 4 5 5 7 8 11 14 12 14 5 6h12l142-7 16-1 1-1v-13h-31l-125 7-10 1-2-4-8-7-5-7-8-7-9-10-12-12z"/><path transform="translate(421,253)" d="m0 0h10l7 2 1 3-4-1-3-1h-10l-8 4-3 4h-2l-3 9-2 1v-6l6-9 7-5z"/><path transform="translate(700,274)" d="m0 0h2v6l-4 7-7 6-4 4-5 2-6 1h-12l-11-4-6-5 1-2 5 2 3 3 10 3h10l12-5 5-5 5-8z"/><path transform="translate(590,287)" d="m0 0h2l-2 4-6 7-10 4h-14l-11-4-7-7 1-2 4 2 9 7 7 1 13-1 10-6z"/><path transform="translate(306,489)" d="m0 0h8l8 4 5 7 3 8v15l-3 8-6 9-8 4-9-1-6-4-6-8-3-10v-9l4-12 7-8zm0 3-7 4-4 6-3 8v12l3 9 8 9 2 1h10l6-4 5-10 2-9-1-11-6-11-6-4z"/><path transform="translate(494,490)" d="m0 0h10l24 5 13 5 14 8 2 2v50l-1 9h-3l-13-11-10-6-17-8-7-2-11-2-1-1zm3 3-1 1v43l6 2 15 4 11 5 13 8 10 8h3v-53l-9-6-14-6-12-4-14-2z"/><path transform="translate(610,519)" d="m0 0h26l23 2 6 4 2 6v78l-3 5-2 2-5 1-46 1h-25l-1-1v-64l1-11 6-12 9-8zm5 2-11 3-6 4-6 7-4 10-1 6v63l1 1h33l33-1 2-2v-85l-4-4zm42 3 1 5v84l4-1 3-6v-75l-4-6z"/><path transform="translate(719,563)" d="m0 0 47 1 14 1 2 2v44l-1 37-1 1-50 3h-12l-1-1v-51l1-36zm3 2-1 1-1 21v61l1 1h14l34-2 8-1 1-1 1-14v-62l-1-1-27-2-18-1z"/><path transform="translate(789,566)" d="m0 0h12l35 2 10 1 1 1v17l-1 52-1 6-48 3h-8l-2-4 1-77zm3 3-1 1-1 36v39l45-1 7-1 1-1 1-45v-24l-5-2-35-2z"/><path transform="translate(727,572)" d="m0 0h26l18 1 3 1v25l-1 42-1 1-35 2h-9l-3-3v-54l1-14zm2 2-1 1v65l1 1h14l20-1 7-1 1-2v-61l-1-1z"/><path transform="translate(796,575)" d="m0 0h41l2 2v60l-2 2-21 1h-21l-1-1v-48l1-15zm1 2v59l1 1h24l13-1 1-1v-56l-1-1-10-1z"/><path transform="translate(271,586)" d="m0 0 5 1 1 5-1 2-12 3-6 4-3 1 1-5 7-8z"/><path transform="translate(331,586)" d="m0 0h7l7 4 7 8 1 4h-3l-3-3-11-4-6-2v-6z"/><path transform="translate(333,606)" d="m0 0 8 1 6 5 5 11 1 12-2 11 5 1v2h-15l-14 3-6 2v-6l-2-6v-19l3-8 4-5zm-2 3-5 5-3 4-2 10v9l2 11 4 1 2-4-1-3v-9h8l1-1v-6l-2-3h-2v-3l4-1h7l3 1-2-6-6-5z"/><path transform="translate(266,607)" d="m0 0h8l5 3 4 8 2 7v13l-2 7 4-4 3-8h1l-1 9-5 6-8 5v10l5 5 8 2 8-2 4-4-3-1v-2h5l2 4-4 5-7 3h-11l-8-5-3-6v-8-4l-10-3-10-1 1-2 1-3-1-14 4-13 4-5zm3 2-5 2-5 8-2 7v9l2 9 5-1v-13l3 2 5-1v-7l-3-4 3-2 6-1-1-4-3-3z"/><path transform="translate(326,676)" d="m0 0 4 2 7 5v2l-4-1-2-1-3 9-7 14-8 7-7 2h-7l-8-3-5-7-4-11v-4l-5-2-4-4-5 1v-3l5-5h3l1 7 9 5 7 1h11l11-2 10-6 2-4-2-1zm-1 9-9 5-7 2-12 1-12-1 1 5 2 7h4l6-3 24-3 5-10v-3zm-23 16-8 4-2 4 4 3 3 1h8l8-5 5-5v-2h-9l-5 3h-2z"/><path transform="translate(291,719)" d="m0 0 8 4h8l6-1-1 3-12 1-7-2-3-4z"/><path transform="translate(820,720)" d="m0 0h7l5 4 4 8 1 4v18l-4 11-6 7-2 1h-6l-6-5-4-10-1-13 2-11 5-10zm0 3-5 6-3 8-1 6v10l2 8 3 6 3 3h6l6-7 3-8 1-13-3-12-4-6-1-1z"/><path transform="translate(734,733)" d="m0 0h8l7 6 4 10 1 6v10l-3 13-5 9-5 4-4 1-8-4-5-10-2-10v-10l2-12 6-10zm3 2-5 3-5 8-3 12v11l3 11 5 7 4 2 5-1 6-7 4-14v-14l-4-13-4-4z"/><path transform="translate(821,737)" d="m0 0h5l3 3 1 3v7l-3 6-4 2-5-4-1-3v-7l3-6zm1 3-2 4v7l3 4 4-2 1-2v-9l-2-2z"/><path transform="translate(738,751)" d="m0 0 5 1 3 5v11l-5 5h-5l-3-4-1-3v-7l4-7zm0 3-3 4v9l4 4 4-3 1-8-3-6z"/></svg>
