<?xml version="1.0" encoding="UTF-8"?>
<svg version="1.1" viewBox="0 0 1024 1024" xmlns="http://www.w3.org/2000/svg"><path transform="translate(590,154)" d="m0 0h20l12 4 10 7 7 6 5 7 3 9 5-2 11-7 11-3h16l13 4 11 7 7 8 7 12 1 10h-2l-4-13-6-8-7-8-10-6-7-2h-19l-9 3-11 6-5 4-4-2-4-10-7-9v-2l-4-2-10-6-9-3h-22l-14 5-12 10-7 11-4-1-10-5-12-1-12 4-7 5-6 12-2 6-5-1-9-6-10-3h-18l-13 5-8 6-4 2-2 5-7 14-1 9-7-1-3-1h-14l-10 4-10 8-8 12-1 5v22l-16 4-6 3-4 4-5 4-7 14-1 17 4 11 2 5h2l5 7-2 4-6 4-6 9-2 5v13l3 8 6 8 5 3v2l6 2 1 2 29 1v1l-30 1-15 4-7 3-6 10-3 7 12-3 4 1-16 6-1 3 1 6 16-3 12-2h35l16 2 15 4h3l2-5-1-4-9-4-12-3-16-2-1-2h9l19 4 9 3-5-13-5-5-11-4-12-3v-1h11l7-3 4-4 3-9-1-4-9-3v-1h11l11-1 6-3 9-8 5-12 1-7 4 1 8 6 12 4h17l11-3 10-8 7-9 3-6 5 1 12 6h10l10-3 8-6 4-4 14 16 13 9 12 4h21l11-4 11-7 9-9 9-19h4l7 4 11 3h18l14-4 9-7 8-7 8-15 2-5v-22l-5-12-7-11-8-7 1-10 1-3 1-14h2v14l-2 8 1 5 8 7 6 9 4 8 2 8v16l-3 12-9 14-7 8-11 7-9 3-6 1h-18l-12-3-4-2h-4l-8 15-5 7-10 8-8 4-13 3h-16l-14-3-14-8-10-10-3-5-5 1-8 7-5 2-13 1-9-3-5-3-4 1-6 9-8 8-14 6-4 1h-15l-13-4-7-4h-4l-1 6-4 8-7 8-10 4-8 3-3 11-5 7-3 2v2l9 4 9 17 2 6-1 7-7 19-1 7 12-6 10-4 15-5 13-2h38l77 9 40 4 15 6 16 8 11 7 2 2v11l13 1 49 7 25 2 36 6 13 5 10 6 9 8 2 3v7l-3 5v15l-3 112-1 27-2 6-4 2h-3l-1 14-3 13-8 10-3 3-4 1h-9l-9-2-7-8-3-9-2-12-14 1-11 2-1 1-2 19-3 10-5 8-8 7h-17l-8-4-5-6-3-7-3-17-6-2-12-2h-11l-2 18-4 13-8 17-7 8-8 6-6 2h-13l-12-2-11-8-7-10-6-11-3 3-4 17-7 16-6 7-9 5h-16l-10-4-7-7-5-11-3-9h-5l-2 16-2 8-8 16-6 8-9 5-7 1-13-2-8-4-6-5-5-11-4-11h-1l-1 9h-1v-16h2l1-18 3-15 6-16 8-10 6-4h2v-2l-17 4-8 7-2 3-1-3 7-8 11-4 23-4 36-8 17-3 39-9 22-4 12-3 7-22 2-1-1 5-5 19-6 5-3 13h-1v-13l-9 1-2 4-2 7h-1v-10l-8 1-17 4v2l10 5 6 8 6 16 2 1 2-3h6l4-2 2-19 2 1v16l7-3 2-10 2-14h1v20l9-2 5-2 6-12 4-1v2l-3 3-2 3-1 12 2 8h8l4-5 1-2 1-10h1v15l-6 4-1 1h-10l-9 4-6 3 1 8 6 11 8 5h9l-2 3-9-1-9-6-9-17-6 2 1 8 5 13 3 4v2l4 2 7 6 9 2 10-4 6-5 7-10 4-10 3-7 4-16 1-6 1-16h1l1 7 7 2 17 2h5l1-93v-99l-2-1h-17l-3 2-1-35-4-2-13-1 1-2h23v-8l-3-1-11-1 1-2h6v-2l-6-2-10-6-17-7-21-3-19-2-24-2-26-3-4-1 3 3 10 4 14 9 7 3 40 5 30 3v1h-20l-36-4h-13v10l1 1 26 2-1 2h-29l-1 44v142l4-1 3-5 10-19 1-3 4-1-2 4-9 17-5 10-8 2-14 1v-2l6-2v-20h-10l-37 5-26 3-35 5h-4v-2l32-5 26-3 49-7 4-1-1-5-5-6-3-2v-2h2l4-18 1-21h2v20l-5 20 5 4 3 6 1 7v22h3v-190l-8-6-15-7-13-5-22-4-1-2 12 1 19 5 22 10 6 4 4-1v-10l-16-9-7-4-18-7-11-3h-46l-20 6-13 5-16 9-5 13 13-5 3 1-15 8-2 6h-2l-4 10v22l1 3 4-1v-7h2l1 9h7l1-20h1l1 21 10 1v-25l3-12 5-5-3 9v4l4 2-5 1-1 8v16l1 2 3 1v2l-6 1 11 8v2l4 2 7 8 6 10-1 3-8-12-9-10-5-4-12-7-3-1h-18l-2 4-5 3h-16l-3-1v-2h18l3-2v-29l-1-1h-26l-4 8h-2l1-18h2l3 6 29 1 1-6 6-16 6-18 5-13v-7l-10-4-14-3-8-1h-32l-15 3-11 3-1 5 6 16 2 8 9 3 14 6 6 5 3 10h-2l-4-8-4-5-17-6 3 5-1 3-9-10-4-2h-10l-8 6-7 8-2 10v13l2 9 5 8 8 5h11l6-3 5-5 5-10 2-18h2v13l-5 14-7 8-1 3 20-1 2-7h2l1 7 3 2v2l-17-1 1 2 8 4 5 5-5-2-13-6-7-2h-18l-13 4-13 8-9 8-7 10-1 3-3 2-3 10-5 12-3 14h-2l1-11 3-11 7-16 5-8h2l2-4 7-8 10-8 12-6 7-1v-2l-6-4-5-6-4-10-1-14 2-9 4-9 6-7 7-3 14-1-5-16-7-20 1-7 9-19 13-6 8-1v-3l-5-2-6-5-5-8-2-8v-13l3-9 6-8 5-2-3-7-6-11-2-9v-11l4-15 11-12 11-7 13-3v-20l3-9 6-9 9-8 8-4h28l1-9 4-9 6-9 7-6 13-6 6-2h18l13 5 7 4h2l7-14 7-6 7-4 10-2 8 1 9 3 6 3 2-4 7-9 11-8zm67 357v3l14 7 10 10 20 3 19 2h9v2l-39-4h-7l-1 1v7l6 2 9 1h12v2l-14-1h-15l-1 1-1 43v148h9l2-3 1 2-2 4 1 12 2 9 6 10 6 4 7-1 6-4 6-10 3-9v-25l-3-8-5-8-2-2 6 5 4 8 3 7h11l26-4 3-3v-4h2l-2 8-1 9-1-8-4-1-4 3v11l5 10 6 7 3 1 1-2-2-6 8 9h7l8-7 5-11 1-5v-23l-5-10-4-6 6 5 5 14 5 1 3-2 3-111v-47l-3-2-27-3-21-1h11l25 2 19-1v-5l-2-1-43-5 27 2 13 1-1-4-14-10-9-3-45-7-23-3-22-2-29-4zm-1 5-1 1v22l2 2 9 1h13v-10l-9-10-10-6zm-135 207-11 4-8 10-5 12-3 13 2 6 9-3 4-20 5-9v-2h2l6-8v-3zm6 1-9 8-6 9-5 14v7l2 1 4-2 4-8 3-10 6-6h12l4 4 5 7 4 9 3-2-1-11-6-12-9-8zm-26 2-29 6-13 3-10 2-1 2 14 1v2l-8 1-8 6-6 8-3 5-4 15v5h-2l4-15 4-11 7-9 3-3v-3l-6 1-10 7-8 13-5 18v29l3 12 5 10 8 7 7 1-1-4-4-4-6-18-1-4-1-25h2v24l3 12 5 12 8 7 3 1h9l7-4 7-9 7-16 3-11v-7l-5-1-1 4h-2v-2h-5l-9 10-7-1-3-6v-9l1-3v12l4 6 6-2 3-4v-15l-3-2h-6l1-1 12-1 4-3-1-7-2-6h-2l-1-3-5-3h-7l-7 6-5 10-4 16v13l4 15 4 6 4 5-5-4-5-9-3-13v-13l4-17 5-9 4-5 4-2h8l7 6 6 13 6-2-2-9 4 7 5 1 2-2 4-20 5-12v-2h2l4-6-1-3zm28 11-7 6-4 7-1 8 1 1h8l3-1h9l3 2 6-1 1-3-5-12-3-5-3-2zm70 0-13 6-21 9-11 6-10 4-2 2v13l9-3 21-9 9-5 10-4 12-6 1-4-3-9zm81 4-2 3 1 5-1 2 4 13 6 8 6 2v-4l-3-5-4-17-2-7zm-149 18-3 3-1 4v10l3 5 1 1h5l4-5 1-12-4-6zm-8 1-19 7-16 5-20 8v9l2 3 8-1 24-9 15-5 8-6 2-10zm49 6-6 4 2 9 8 13 10 7h6l-2-5-6-8-4-8-4-11zm-20 9-3 5-2 9-5 8 4-9 1-7-5-1-6 3-6-1-3-2-2-4-9 2v10l1 4-1-1-3-9h-5l-2 5-3-4-6 2-1 1v9l3 8 7 9 5 4h6l-8-14-2-5h2l2 7 7 9 5 4 2 1h8l9-6 7-10 4-11 2-9v-6z"/><path transform="translate(417,274)" d="m0 0h15l4 2v1h-15l-7 4-5 6-3 5h-2l1-6 6-8z"/><path transform="translate(674,293)" d="m0 0 2 1v5l-6 8-8 7-7 3h-15l-10-4-4-3 1-3 12 5 3 1h10l11-4 6-7z"/><path transform="translate(573,305)" d="m0 0h2l-2 5-6 6-7 3h-15l-10-5-5-6 5 1 8 5 10 1 10-2 8-5z"/><path transform="translate(467,478)" d="m0 0h26v2l-26 1-8 1 2 10 5 3 4 2 1 3-5-2-4-2h-15l-9 4-4 4-4-1-6 3-2-1 8-5 15-7h2v-8l-4-2 16-4zm-15 7-2 2v5l1 1h6l1-1v-6l-1-1z"/><path transform="translate(437,484)" d="m0 0h6l-3 2-15 6-2-1 8-5z"/><path transform="translate(313,491)" d="m0 0h11l6 4 5 6 2 5v17l-4 10-4 5-6 3h-7l-7-3-6-7-4-10v-11l4-10 6-7zm0 3-7 6-4 8v14l3 7 7 8 2 2h9l6-4 5-10 1-12-2-10-4-6-4-3z"/><path transform="translate(487,492)" d="m0 0h12l20 4 10 4 13 8 1 1v55l-5-1-13-10-14-8-10-4-14-3-1-1v-44zm12 2-11 1v39l5 3 18 5 20 12 8 6 2-2v-47l-6-5-24-10z"/><path transform="translate(472,501)" d="m0 0 4 3v2h2l3 9 1 7 1 23 14 2v2h-5v2l5 2 1 2-5-1-6-3-5-1-2 5-6 3h-15l-15-5 4-1 10 3h16l4-2v-33l-4-2 4-1-3-10-3-4z"/><path transform="translate(590,518)" d="m0 0h35l10 1 6 4 3 5v74l-5 6-4 1-31 1h-34l-1-1v-68l7-14 8-7zm4 2-8 3-8 6-4 7-3 7v63l1 1h34l26-1 1-2v-80l-2-2-4-1-20-1zm41 3-1 2 1 78h4l3-5v-69l-5-6z"/><path transform="translate(507,552)" d="m0 0 5 1 5 3 12 12 10 17 4 13v3h-2l-3-11-6-12-8-11-9-9-8-5z"/><path transform="translate(502,558)" d="m0 0 5 2 9 9 2 3-1 3-7-8-8-8z"/><path transform="translate(690,559)" d="m0 0h35l19 1 4 2v55l-1 20-1 1-43 3h-13l-1-1v-67zm3 2-1 1-1 10v64l1 1 10 1 33-2 8-1 1-1 1-7v-62l-4-2-26-2z"/><path transform="translate(754,562)" d="m0 0h26l26 2 1 1-1 47-1 22-39 3h-12l-2-3v-39l1-32zm3 2-1 1-1 18v50h46l2-2 1-15v-48l-2-2-7-1-17-1z"/><path transform="translate(361,564)" d="m0 0 4 2 9 11 6 9 6 16 4 13 1 5v7h-2l-3-16-6-18-6-11-8-11z"/><path transform="translate(698,567)" d="m0 0h40l2 2v47l-1 15-1 1-13 1h-27l-2-2v-59zm2 2-1 1v60l2 1 27-1 8-1 1-1v-58l-9-1z"/><path transform="translate(762,569)" d="m0 0h33l5 3-1 55-2 2-15 1h-22l-1-1-1-55 2-4zm0 3-1 1v53l1 1h20l13-1 1-1v-53z"/><path transform="translate(279,575)" d="m0 0 7 1 2 2v4l-12 3-7 4-1-3 7-8z"/><path transform="translate(341,575)" d="m0 0h7l8 7 3 5v2l-15-6-7-1-1-2z"/><path transform="translate(529,596)" d="m0 0 2 3 3 13v24l-2 8h-2l1-8v-23l-2-12z"/><path transform="translate(274,615)" d="m0 0 9 1 6 4 4 5 1 7-4-1-6-8-2-1h-12l-3 3h-2v-5l6-4z"/><path transform="translate(339,618)" d="m0 0h11l8 4 3 4v5l-12-6-7-1-7 2-8 6-2-2 4-6 3-3z"/><path transform="translate(465,620)" d="m0 0h2v20h-2z"/><path transform="translate(254,625)" d="m0 0h1l1 19 2 11 4 13 4 9 1 5-4-1-2 5v25l1 1 10 1h11v-7l-7-9-4-5v-2h-2l-3-7 4 2 5 8 9 10 8 6 10 5 6 2v2l-9-2h-8l-11 1-15-2h-16l-13 3-1 2h11l51 4 25 1v2h-15l-26-2h-11l-26-2h-17l-1 14 1 1 89 9 37 2 1 2-9 1-3 12h-2v-12l-1-1h-12l-3 8-2 3-1-3 1-9h-16l-4 9-3 4-1-2 4-12-9-1-4 6-1-3 1-4-10 1-2 5-1-3 1-4-11 1-8 16-10 19-4 4 1-4 8-16 10-18v-3h-10l-11 19-9 20-10 19-2 4v5l3 3 4-1 2-2v11l-5-3-16-17-4-4h-2l-1 6 4 8 7 7 10 13 11 13 6 7h13l37-2 38-1 67-4 1-1v-10l-24-1v-2h7v-78h-15l-3 2-2-3-3-2 1-1 21 1 15 1 1-6v-11l-4-2-23-2v-2h35l19-4 13-2 46-10h8l-3 2-38 8-31 6-16 4-1 1v100l1 10 8-2 3-2 1-3 2 1-1 4-8 5-8 3-13 1-37 1-59 3-32 1h-17l-6-5-7-9v-2l-4-2-13-16-11-15 1-9 6-14 4-12 6-13 6-15 1-23 4-4 28-7 1-1 2-25 2-6-1-9-4-11-2-16zm33 83v6h6v-3zm-59 33-5 8-5 12-8 19-4 10v6l3 3 3-1 2 7 3 2h3l8-15 5-11 9-17 8-16 1-3-2-2h-8l-5 6 1-3-1-4-2-1zm155 14-1 1v74l2 2h8l5-3v-40l-1-32-2-2z"/><path transform="translate(299,625)" d="m0 0h1l-1 9-7 6-3 2v9l5 4h13l2-4v-2l5 1-1 6-8 4h-10l-8-5-2-4v-11l4-2v-2l6-4 3-4z"/><path transform="translate(606,643)" d="m0 0h14l-4 2-14 8-9 8-8 14-7 14-3 7-2-2 5-12 11-20 7-8 7-6 4-2z"/><path transform="translate(601,644)" d="m0 0 3 1-12 7-11 10v-3l9-9 8-5z"/><path transform="translate(463,650)" d="m0 0h2v9h11l23-3 20-1v1l-49 7-15 2h-6l-1-2 12-1z"/><path transform="translate(652,621)" d="m0 0h2l1 41 7 18 2 10v9l-5 3h-16l1 11h-2l-5-17-7-14-10-9-2-1h-14l-9 6-4 4 1-4 6-9 8-8 10-5h15l9 6 6 7 6 10 1 6h-2l-7-14-3-2 3 8-2 1-6-11-5-5-4-3h-12l-9 6-1 1 14 3 10 8 6 9 7 12h2v-12h2l3 13 3 1 2-6 2 2 1 3h3v-15l-4-12-4-10-4-7h4z"/><path transform="translate(389,639)" d="m0 0h2v10l-4 17-4 9 1 2 4-5 11-4 21-2h7v1l-14 2h-8l2 6 5 5 2 6h9v2l-9 1-1 4h-2l-2-12-1-3-6-5h-10l-7 6-2 3-3 1-4 6-1-3 5-10 6-18 2-8z"/><path transform="translate(617,688)" d="m0 0 4 1 7 8 4 8-1 4-2-7h-2l-4-8-6-5z"/><path transform="translate(380,695)" d="m0 0h1l1 21 2 1v2h-4l-1-6-16 1-17 4-11 1v-2l16-6 10-9 8-6-2 4-8 8-5 3-1 2 13-2 13-3z"/><path transform="translate(534,696)" d="m0 0h4v2l-14 3-13 2-14 3h-3v-2l25-5z"/><path transform="translate(559,697)" d="m0 0 4 1-9 3-25 5h-3v-2z"/><path transform="translate(411,701)" d="m0 0h2l1 17h10v2l-10 2-16-1v-2l12-1z"/><path transform="translate(786,702)" d="m0 0 6 3 5 10v22l-5 10-6 5h-5l-6-5-4-8-1-11 2-12 5-9 4-4zm-4 4-6 7-2 6-1 14 3 10 4 5 6 1 5-5 3-6 1-6v-12l-2-8-4-6z"/><path transform="translate(520,705)" d="m0 0h4v2l-27 6h-8l3-2z"/><path transform="translate(472,708)" d="m0 0h4v2l-14 3h-8l4-2z"/><path transform="translate(445,713)" d="m0 0h9l-4 2-14 3h-5v-2z"/><path transform="translate(703,715)" d="m0 0h9l7 8 3 8v17l-3 10-6 8-3 3h-5l-6-4-5-9-1-5v-18l2-8 7-9zm2 2-5 5-4 9-1 5v14l4 11 4 4 6 1 5-4 4-10 1-4v-17l-5-12-3-2z"/><path transform="translate(315,718)" d="m0 0h19v2h-19z"/><path transform="translate(633,718)" d="m0 0h2v27l-2-1z"/><path transform="translate(783,718)" d="m0 0 5 1 3 4v9l-2 4-6 1-3-3-1-9 3-6zm0 4-1 1v9l4 3 3-3v-9l-1-1z"/><path transform="translate(706,732)" d="m0 0h6l3 6v8l-3 5-5 1-5-5-1-6 4-8zm1 3-2 2v10l2 2 4-1 2-3-1-9z"/><path transform="translate(631,757)" d="m0 0h2l-3 10-9 13-4 3-3-1 6-4 6-9z"/><path transform="translate(286,758)" d="m0 0h2l-2 6-9 17-8 16-9 19-4 3 2-6 8-17 10-19 6-12z"/><path transform="translate(322,762)" d="m0 0 1 4-4 16-7 26-1-4 2-10z"/><path transform="translate(298,766)" d="m0 0 1 4-10 26-7 19-5 12-1-3 7-20 5-12 3-9z"/><path transform="translate(358,787)" d="m0 0h2l-1 19-2 25 3 2v2h-7l2-10 2-21z"/><path transform="translate(475,799)" d="m0 0h2l-1 8-5 13-6 7-6 1 8-8 5-9z"/><path transform="translate(275,755)" d="m0 0 2 1-11 21-8 16-12 23-5 9v6l3 5 3-1 3-5 1 3-1 4 1 1 19-1 5-10 2 2-1 7h14l12-1 4-12h2l-1 11h16l6-2 4-22h1v11l-1 5v7l11 1v2l-50 3-34 1-15 1-9-10-5-6 1-2 4 3h2l16-32 7-13 10-19z"/></svg>
