<?xml version="1.0" encoding="UTF-8"?>
<svg version="1.1" viewBox="0 0 1024 1024" xmlns="http://www.w3.org/2000/svg"><path transform="translate(451,278)" d="m0 0 8 1 8 4 6 7 3 9-1 10-5 8-5 4-6 2-10 1-8 16-3 12-1 11 9 3 13 7 16 12 13 11 7 7 11 14 5 7v2h2l12 23 4 8 5 15v4h2l3-14-1-7-8-14-1-7v-6l4-6 6-3h7l8 3 3-9 7-11 8-6 6-3h15l12 6 7 7 7 14 2 10 1 15 4 7 4-3h6l3 4-1 8-2 12-1 4 7 8 4 5 11 9 4 2 3-3 5 1 17 7-9-6-10-8-7-7-6-10-3-12-1-8-6-8-1-5v-12l3-7 6-5 6-1-4-13-2-9v-6l-5 3h-5l-3-4v-14l3-12 4-10 5-8 4-4-14 3-4-3 1-6 9-10 11-10 12-6 15-5 5-1-2-2-5-3-2-2 1-5 3-2 13-2h19l19 3 11 4-1-9 3-3 10 1 18 7 12 9 9 8 5 5-1-2v-9l2-3 6 1 5 4 5 12 2 12 6-1h10l10 3 4 4-1 5-7 3h-3l4 4 8 7 4 5v2h2l4 9 1 4v7l-2 2h-5l2 8v18l-4 16-6 15-4 7 2 4 4 4 2 6v10l-2 8-6 8-10 6-3 1h-10l-8-3-9 10-10 7-15 7-6 2h-4l1 2 15 4 11 6 11 8 16 16 11 15 3 5-2 4-5 5 1 5 5 13 3 11 3 14 8 10 5 11 1 10-5 10-5 5-3 2-9-1-1 1h-5l-3-4-2-12-8 1-4-3v-6l7-14-3-9-5-12-5-8-3-5-3-1 5 29v17l-5 2 1 12 4 27v16l-9 4-6 2v35l10 6 11 6 5 4 3 6v8l-3 5-6 3-5 1h-15l-21-5-10-5-3-4v-16l2-6v-11l-4-21-2-4-12-3-3-8-1-5v-7h-2l-1 9-3 8-2 2-8 2-1 1-4 29 1 4 3 9v10l-3 6-10 5-24 4h-10l-9-2-6-4-2-2v-10l5-7 24-13 1-1-1-18v-16l-8-2-10-5 1-18 5-30-1-5-6-4-2-2 1-7 7-30 7-29v-4l-9-4-16-8-9-6v-16l-6-5-13-17-10-18-6-1-6 10-8 14-4 5h-2l-2 5-15 16-13 13-8 7-16 12-5 12-6 14-5 8-5 9-9 12-9 11-2 11-1 7v16l2 18 5 22 1 6v17l-3 10-5 8-7 6-18 6-7 1h-27l-14-3-12-4-12-12-3-9-1-5v-18l1-10v-18l-28 1 1 16 1 11v20l-2 10-6 11-9 7-8 4-10 3-9 1h-30l-12-2-12-6-5-4-6-10-3-10-1-7v-12l6-40 1-14-2-17-4-8-8-7-1 20 2 13 6 17v7l-3 6-5 4-4 1-11 1-2 6-7 8-6 5-12 3-12-2-8-4-10-9-7-10-4-11-2-13 1-15 4-16 6-14 3-8 10-16 12-16 5-5 9-10h2l-6-26-1-15v-22l1-17 5-21 8-23 10-19 4-6 11-15 11-12 10-10 13-10 13-9-1-9-6-16-7-12h-11l-10-4-5-5-4-8v-10l4-10 7-6 7-3h9l9 4 6 7 3 9-1 13 9 10 11 16 6 11 11-2 15-4 21-3h20l20 3 5 1 5-12 8-14 9-13 1-3-2-6v-9l4-9 7-6zm-3 7-7 4-4 6v10l3 5-1 4-12 17-8 15-2 5 1 5 12 3 2-6 4-15 5-12 6-8h9l7-3 6-6 1-3v-9l-5-8-7-4zm304 2 2 5 5 9v3l-11-5-18-6-11-2h-23l-7 2v2l16 8 5 2v2h-15l-14 3-10 3-16 10-10 10-2 4 7-1 12-2h7l-11 10-8 12-4 9-2 9v12h3l10-11 8-6 23-14 1 1-10 9-8 10-2 5 4 1 10-2 26-11 13-5h3l-12 12-6 8 1 4 16-3 18-6 16-8 5-2-6 8-13 13v3l11-1 13-5 16-9 10-7v17l5 15 4 6h2l2-10v-4h2l2 9 5 16 1 8v13l-1 11 1 3 1-3 4-2 7-4 10-1 8-16 4-9 2-13v-19l-3-11-4-8 10 4 3 1-1-5-7-12-9-9-11-6-1-2 15-5-3-3-5-1h-9l-10 2-1-3v-9l-4-10-4-7h-2l-1 21h-2l-2-5-11-13-9-7-15-9-12-3zm-483 7-6 2-7 5-3 9 1 8 5 6 5 3h15l7 9 8 16 4 12 1 6v9l-2 5-2 1v-6l-5 1-15 11-10 9-12 12-10 13-12 19-9 21-4 14-5 25-1 12v15l2 19 4 17 1 2 5-2 8-4-7 8-10 9-7 8-10 12-6 8-7 11-8 15-4 11-4 17v22l4 14 8 11 9 6 10 3 9-1 8-4 6-7 4-8 3-9h1l2 6 2 1h7l5-5v-8l-4-10-2-10v-22l3-16 8-16 2-3-2 10-2 5v5l9 10 5 7 2 10 1 16-3 31-3 21v11l3 14 4 8 6 5 14 5 18 2 17-1 16-4 9-4 7-6 3-7 2-9v-20l-3-31-6-3-1-2 3 1h36l18-2 21-6 18-7 14-8 9-5 4-3v-2l4-2 8-7 14-14 7-8 11-19 7-15 6-18 4-22 1-12v-15l-2-18-3-16-4-13-7-16-4-10-9-14-8-11-9-11-11-11-16-12-10-6h-2v-2l-14-7-17-6-19-5-15-1h-21l-14 1-23 6-5 2 1 5 1 3-7-5-11-20-9-12-11-12-1-4 2-4v-11l-3-5-7-5zm436 80-10 5-21 6-5 2-2 6-1 32-2 9-6 13-2 8v8l3 10 7 11 7 7 13 8 12 6 19 5 12 2h23l18-3 13-4 14-8 8-7 7-8v-2l9 5 8 1 10-4 7-9 2-5v-9l-3-6-6-4h-8l-7 4-6 6-7 1 2-18v-16l-3-12-3-1h-5l-5-6-4-10-2-7-1-9-3-1-9 6-8 4-16 5-5 1h-7l-3-1 1-7 3-5-6 1-10 4-8 2h-14l-2-2 1-7 3-5v-2zm-41 1-9 9 2 14 3 10h2l2-16 1-10 1-7zm-81 24-11 4-7 8-6 14 1 5 9 3 8 5 4 7v12h-2l-1-9-4-7-5-4-12-4-9-7h-10l-3 5 1 7 9 19-1 10-5 17-1 2 1 12 1 6v39l-3 18 2 1 5-5 11-9 16-15 9-11 8-10 2-5h2l6-10 10-22 4-16 2-12v-17l-3-12-4-8-7-7-7-3zm70 24-4 4-2 10 2 9 3 3 4-6 1-9-4-2v-2l6 3 3-7-2-3zm-33 29-2 7v6l6-4-1-4-2-5zm12 1-4 5-2 4-4 2-2 4v8h-2l-1-6h-2l-4 11v4l7 3 8 14 12 16 5 5 4 3 3-5 7-12-1-5-13-11-9-11-2-4 1-14 1-11zm33 51-9 14-6 17-1 9 10 7 19 8 3-1 3-10 2-1-3 22-5 23-5 21-5 20 14 7 12 4 21 4 9 1h28l22-3 16-3 10-3-1-14-4-27-6-12h-2l-3-9-1-4 4 4 8 13 5 1 12-5 14-10 5-5-1-5-7-10-12-14-12-10-8-4-6 9-3 7-1 4 1-9 5-10 1-3-13-5-10-1-7 14-6 5-9 3-10 1-11-3-5-3-4-7-1-12-3-2-18-4-16-6-7-3zm50 14-1 1v7l4 8 7 6 3 1h15l8-4 6-5 5-10-1-2-5 1-3 6-6 5-9 3-10-1-5-3-3-6-2-7zm10 0-1 1v7l4 4 3 1h8l8-4 4-5-1-4zm99 66v2l-5 2-11 6v3h2l2 6 6 12 6 14-3 9-5 11 2 2 7-5 2 3 3 16h4l1-3v-13l2 1 1 3 1 12 3 2 2-3v-10l-1-7h2l3 13h2v-10l-1-6h2l-1-5-3-6-5-5-3-7-7-23-5-13zm-146 60-1 12 5-1 5-5v-4l-5-2zm-192 2-12 9-18 11-19 9-13 4-21 5-2 2-2 28v20l4 11 5 5 7 5 14 4h38l14-5 8-6 5-10 1-5v-14l-5-24-3-14-1-8v-16l1-11zm205 2-2 5-4 2-5 4-4 2-2 8-3 21 6 4 19 5 8 1h21l2-3 3-14v-6l-11-6-1-2 19 6 3 9 3 16 4 2h37l15-4 2-4-4-25-1-3-10-4-5-5-4-6-17 2-9 1h-24l-21-3-12-3zm100-1-9 2-1 3 4 6 7 4h3l-1-13zm-101 55-1 5 1 14 3 2 5 1h12l2-2 1-5v-11l-5-2zm92 4-22 2-1 5 3 12 2 2h15l5-1v-19zm-91 19-1 1v11l6 3h9l5-2 1-10-1-1-14-1zm89 5-17 1 1 11 5 3h11l4-3v-11zm-94 11-8 4 4 8-1 3-4-6-3-2-5 1-9 8 2 4 6 2h17l22-4 6-3 1-5-1-7-3-1-4 1h-11l-6-3zm77 6-3 4v8l6 4 16 5 13 2h7l11-3 1-5-8-7-7-1-6 4-3 3 2-5 4-4v-2l-6-3h-6l-8 2-9-1zm-52 12-13 4-11 2h-19l-8-2 2 4 5 2h21l16-4 9-4v-2zm49 5 3 4 10 3 12 3 7 1h13l7-3 1-2-10 1h-11l-19-3-10-4z"/><path transform="translate(684,390)" d="m0 0h8l5 3 2 4-3 1h-14l-9 3 1-4 7-6z"/><path transform="translate(768,399)" d="m0 0h7l8 5 4 7-1 3-9-6-16-4 4-4z"/><path transform="translate(683,408)" d="m0 0h7l9 6 3 5 1 4v10l-2 8-3 1 2-8v-7l-4-10-6-3h-8l6 5 3 7-1 11-4 6-3 3 5 1v2h-7l-8-5-4-5-2-6 1-10 4-8 3-3h2v-2zm-2 13-1 1v5l5 1 2-2-1-4z"/><path transform="translate(452,417)" d="m0 0h10l10 3 9 7 7 8 5 10 2 9v9l-4 16-9 14-2 4h4v2l-15 4-12 6-6 4v-4l-5 1h-15l-10-4-7-9-3-12v-13l4-20 8-15 7-9 11-7zm-2 5-10 4-10 9 1 2 10-6 4-1h12l12 6 5 6 4 8 1 4v14l-4 13-6 11-8 7 4 1 9-4 8-9 5-11 3-10v-13l-3-10-5-9-8-8-10-4zm-14 23-6 5-3 9 2 6 2 2h6l5-4 4-7v-7l-4-4z"/><path transform="translate(762,417)" d="m0 0h7l8 4 5 5 2 7v9l-2 8-6 7-9 3-10-1-7-4-4-6-1-11 3-10 6-7zm-1 5-4 2v2l7 1 5 8v10l-5 8-2 4 9-1 6-3 4-9v-8l-3-8-6-5-2-1zm-1 8-1 1v6l5 1 1-1v-5l-2-2z"/><path transform="translate(307,424)" d="m0 0h11l12 3 11 8 9 9 7 10 7 20 1 5v15l-3 9-4 6-5 4-11 4h-16l1 3-5-2-14-7-15-3-6-1v-1h5v-3l-4-2-8-11-4-9-2-9v-14l3-11 6-10 9-8 6-3zm-1 4-8 3-8 6-6 7-5 10-1 5v13l3 11 8 12 8 8 6 3 9 1-5-5-5-4-8-13-3-8-1-5v-11l4-12 7-7v-2l9-3 5-1h9l11 3 5 3 2-1-7-6-12-6-3-1zm23 21-4 4v7l4 6 7 6 6-1 3-4-2-9-6-7-4-2z"/><path transform="translate(721,439)" d="m0 0 2 1v6l-3 3h-8l-1 5 3 5h-4l-3-3-1-6 4-5h9z"/><path transform="translate(832,458)" d="m0 0h6l3 3-10 1 4 7-1 3-4-4-6 1-3 3-1-3 4-6 5-4z"/><path transform="translate(699,467)" d="m0 0 7 1 13 3h12l10-2h6l4 4-1 8-5 8-6 5-9 3h-13l-10-3-7-6-4-6-2-9 3-5zm-1 4 1 9 5 7 5 2 8-5 5-1h14l8 1 3-4 1-6-2-2-8 1-5 1h-17l-12-3zm25 14-9 4v4l3 1h12l7-3 3-2v-3l-3-1z"/><path transform="translate(403,521)" d="m0 0 6 3 1 5-5-1-2-2z"/><path transform="translate(389,522)" d="m0 0 3 1-2 6-4 2-2-3z"/><path transform="translate(463,526)" d="m0 0 9 3 4 5v2l-5-1v-2l-10 8-4 3-4 9-5 9-9 11-9 8-12 7-16 5-16 1-17-3-15-6-13-9-8-7-9-11-6-11-6-4-7 4-1-3 3-5 8-5 4 1-2 5 15 6 16 5 18 3 10 1h24l26-4 10-3 15-7 8-5 5-4-2-5zm-15 21-8 4-17 5-16 3-9 1h-20l-21-3-28-7-4 1 9 12 9 9 4 2 11-4 6-1h22l13 4 10 4 7 6 6-2 11-8 7-7 7-10 3-6v-3zm-82 26-12 2-2 1 1 3 14 7 15 3h14l13-2 2-3-14-8-15-3z"/><path transform="translate(412,602)" d="m0 0h2l-1 4-8 4-7 1h-9l-9-2-4-2v-2h24z"/></svg>
