<?xml version="1.0" encoding="UTF-8"?>
<svg version="1.1" viewBox="0 0 1024 1024" xmlns="http://www.w3.org/2000/svg"><path transform="translate(459,294)" d="m0 0 9 1 8 5 5 6 2 6v7l-2 6-5 7-7 3-11 2-7 14-2 10-1 11 12 5 9 5 8 7 11 8 12 11 10 13 3 4v2h2l8 14 10 21 3 9v4l2-1 2-8-1-10-7-11-1-4v-10l4-5 4-2h9l6 1 6-12 6-8 9-5h16l12 6 7 8 2 6 3 5 2 12 1 11 2 4 10-1 3 4-1 12-1 5v7l13 14 8 5 9-1 6 2-12-10-6-8-4-8-3-17-4-5-2-3v-14l4-8 4-3 5-2-6-23-1 1h-7l-3-5v-11l3-13 8-15 2-3-7 2-5-1-2-4 3-7 12-12 11-7 17-6h4l-6-6v-6l3-2 10-2h22l16 3 9 3-1-7 2-3 11 1 14 5 16 12 8 7v-7l3-4 6 2 4 4 4 9 3 11h15l10 4 1 1v6l-5 3-3 2 8 7 9 10 3 8v8l-5 3v26l-5 16-5 12-2 7 3 1 3 6v15l-2 7-5 5-9 6h-14l-6-1-6 7-13 9-12 5-7 1 1 2 15 5 11 6 10 8 7 8 5 5 12 17-3 6-2 2 1 8 4 11 5 21 7 9 5 13v9l-5 9-5 5h-16l-2-2-2-12h-8l-3-3 1-9 4-8-2-8-4-11-7-11v-2h-2l3 21v20l-3 4 1 16 2 13v19l-8 5-5 2v31l20 11 6 7v10l-3 5-5 3h-21l-19-5-9-6-1-2v-16l1-2v-16l-4-19-10-2-3-3-2-8v-8h-2l-1 10-3 6-9 5-3 18v11l2 5v14l-3 5-7 4-18 3h-20l-7-3-4-4v-9l6-8 14-7 7-4v-13l-1-18-12-5-4-3 1-17 4-23v-7l-7-5 1-12 10-40 1-14-23-11-7-6-1-14-8-8-9-13-8-14v-2h-7l-2 5-8 14-5 7-3 3-7 8-11 12-11 11-19 14-8 17-4 10-10 16-13 16-3 10-1 6v21l3 19 4 16v21l-3 8-6 9-6 4-14 5-5 1h-30l-19-5-6-3-8-10-3-7-1-4v-43h-12l-12 1 1 15v31l-3 10-5 8-11 7-11 4h-47l-14-7-6-7-5-10-2-9v-16l5-31 1-9v-12l-2-12-6-8-3-3-1 18 3 15 3 9v10l-3 6-5 3-12 2-6 10-9 7-8 2-12-1-10-4-10-10-6-9-4-18 1-19 4-16 7-15 5-10 3-5h2l2-4 8-11 12-13 3-4-5-20-1-8v-37l3-16 5-19 8-19 3-5 8-13 12-16 19-19 20-14-1-12-5-12-6-10-13-1-8-4-5-8-1-2v-11l4-10 9-6 3-1h10l9 5 4 6 2 6v13l7 8 11 16 5 9 2 1 17-4 7-2 14-2h24l21 3 5-13 6-9 7-11 2-3-1-6v-10l4-8 6-5zm-2 6-8 5-2 4v11l1 1v7l-8 10-9 16-3 7 1 4 6 3h6l7-23 5-10 3-3 12-2 6-4 3-4v-12l-7-8-3-2zm281 2-1 4 5 8-1 3-13-6-21-5h-22l-6 2 1 3 17 8v1l-22 2-12 4-11 6-6 4-7 8-2 3 4 1 16-2 1 2-8 7-6 8-5 11-2 8v10l4 1 10-11 21-13 4-1-8 7-7 10 1 4 10-1 16-7 13-5 9-3-6 7-7 8-1 5 3 1 19-4 16-7 9-4 2-1-6 8-9 9-1 3 1 1 10-1 10-4 17-9 8-5v15l5 13 4 6 2-1 2-11 2 4 3 11 2 8 1 28 6-2 5-2 9-2 6-9 6-14 1-7v-25l-2-9-3-5 10 3 1-2-7-13-9-9-9-5 3-3 8-3-2-3-5-1h-8l-9 1-1-12-4-10-4-3-1 1-1 16-3-3-9-11-8-7-16-9zm-447 7-9 4-3 4-2 9 2 6 8 7 14 1 8 10 7 16 3 9v14l-3 2-1-4-7 3-8 6-16 15-8 8-9 11-12 21-7 17-5 19-3 21v23l2 18 3 11 4 1 6-2-4 5-8 7-11 12-10 13-8 13-7 14-5 15-2 8v22l3 11 8 11 9 7 7 2 11-1 6-4 5-4 5-9 1-8h3l1 5 1 1h7l5-5v-9l-4-11-1-4v-24l4-16 6-10-2 8v6l9 11 3 4 2 12v21l-3 30-1 7v15l2 10 4 8 4 4 14 5 14 2 21-1 16-5 6-3 7-8 3-9v-26l-2-20-2-5-2-2h35l19-3 20-6 14-6 20-12 2-4 5-2 16-15 9-10 6-10 9-17 5-13 5-21 2-14v-23l-3-21-5-19-9-20-4-8-7-10-8-11-12-14-15-12-14-9-6-4-16-6-10-4-14-3-8-1h-34l-17 3-12 4-1 1v6l-5-3-11-20-9-12-5-5-4-5 1-5v-12l-6-7-6-2zm401 74-8 4-14 4-9 3-3 7-1 28-3 12-5 11-1 5v7l3 9 6 10 8 8 10 6 14 7 6 2 22 4h16l25-4 12-5 11-8 5-4 5-6v-2l10 4h8l7-3 7-8 2-4v-10l-4-6-6-3-8 1-10 8-6 1 2-10v-22l-3-9-4-2h-5l-2-4-6-16-2-9-5 1-16 8-13 4h-11l-1-2 1-9-10 3-6 2h-17l-1-2 3-10zm-37 1-7 8 1 12 3 9 3-2 2-26zm-75 21-10 5-6 7-4 9v7l4 3 9 4 4 5 1 2 1 11h-2l-1-9-4-6-6-4-11-4-6-5h-9l-3 5 2 9 6 14v7l-3 11-2 9v69l5-2 10-9 8-7 12-12 11-14 1-4 5-5 8-15 6-15 4-17v-22l-3-10-6-10-5-4-5-2zm67 22-5 5-1 3v11l2 4 4-1 2-6v-5l-1-2h4l2-4-1-4zm-32 28-2 9h4l2-4-2-5zm10 1-5 8-5 5v6h-2v-3h-3l-3 9v4l6 3 10 16 12 15 5 3 4-5 5-10-1-5-15-14-6-9 1-22zm31 47-8 12-5 13-1 11 10 7 13 6h6l3-9h2l-5 27-4 16-4 20-3 11v4l16 8 9 3 20 3h36l24-3 15-4 1-1-1-16-3-20-6-12-3-1-2-10 3 3 6 10 2 2 7-1 14-7 8-6 3-4-1-5-7-11-14-15-8-6-4-2-4 1-5 8v2h-2l6-13-5-3-8-3h-9l-6 12-8 6-7 2h-11l-10-4-4-5-2-13-6-3-16-4-16-6zm46 12-1 5 3 8 7 7 2 1h17l9-6 4-5 2-4v-3l-6 1-4 6-4 3-4 1h-11l-5-2-6-12zm10 0-1 1v6l4 5h11l8-5 2-3-1-4zm90 62-9 5-4 3v3h2l2 9 9 19-1 5-5 12 1 4 5-3h2l4 15 4 1 1-1 1-12 2 4v8l1 2 4-1v-16l2 4 1 6h3l1-16-3-6-6-7-3-10-6-18-5-10zm-133 54-1 1-1 8 3 2 6-4 1-4-2-2zm-179 2-11 9-18 10-15 7-21 6-9 2-2 2-2 22v24l4 9 9 8 7 3 3 1h43l14-7 4-5 4-10v-17l-5-25-2-11v-27zm279 1-5 2 1 6 7 5 4-1v-7l-2-5zm-87 0-8 8-7 5-3 11-1 7v9l10 5 14 3h25l2-4 2-8v-9l-8-5 7 1 8 3 5 22 3 2h37l11-3 3-3-2-16-2-10-11-6-8-9-16 2h-34l-18-3zm-2 51-1 1v15l5 3h15l2-3v-12l-2-2-9-2zm74 4-10 1-1 5 3 11 1 1h18l1-1v-16l-1-1zm-74 17-1 1v9l5 3h12l3-5v-6l-1-1zm67 5v9l5 4h11l3-2v-10l-1-1zm-71 9-7 4 3 9-6-6-7 1-5 4-1 6 4 2h22l19-4 4-4v-7l-2-2-17-1-4-2zm90 5-4 1h-15l-3 4v7l7 4 15 5-12-2-8-3v3l8 4 15 3h17l5-2-1-2-2-1 5-3v-4l-7-6h-8l-5 2 4-4-1-4-5-2zm-70 12-14 4-7 1h-14l-7-1v3l3 2h23l16-5 4-2v-2z"/><path transform="translate(673,397)" d="m0 0h9l6 5-1 2-14 1-8 2-1-2 4-5z"/><path transform="translate(750,405)" d="m0 0h8l8 6 3 5-1 3-7-4-14-4v-3z"/><path transform="translate(670,414)" d="m0 0h11l8 6 2 4v16l-2 4-1-3v-11l-3-6-4-3-6-1 4 5 1 3v12l-3 6v4 1h-7l-6-4-4-5-2-5 1-9 4-8zm2 12-2 4 2 2 5-1v-3z"/><path transform="translate(459,422)" d="m0 0h13l9 4 8 6 6 8 5 13v14l-4 13-8 14 2 3-7 3-12 4-8 5-4-1-19-1-7-2-7-8-3-11v-16l2-12 3-7 7-13 6-7 10-6zm0 4-10 4-7 8h3l7-3h14l10 5 5 6 3 7v19l-4 12-7 10-2 1v3l5-1 6-4 7-8 5-10 1-6v-18l-4-10-9-10-10-5zm-14 22-5 4-3 9 3 6 1 1h7l7-9v-8l-3-3z"/><path transform="translate(746,422)" d="m0 0h7l9 5 4 7v14l-2 5-6 7-5 1h-11l-6-3-5-6-1-12 4-10 5-5zm0 4-4 2v3l6 2 3 4 1 13h-2l-3 6 1 3 7-1 3-1 5-8v-12l-6-9-4-2zm-1 8-2 2 1 5h4v-6z"/><path transform="translate(325,428)" d="m0 0h14l10 3 12 9 8 9 6 10 5 15v23l-4 8-7 6-8 3h-16v2l-5-1-12-6-8-2-9-1-1-2 2-2-10-12-3-7-2-9v-16l2-9 6-9 9-8zm0 4-6 3-8 6-7 9-3 6-1 4v13l4 11 8 11 7 7 9 3h2l-2-4-7-8-7-12-2-7v-12l4-11 7-8 9-3h13l11 4 2-1-7-6-11-5zm23 19-4 4v7l4 6 5 4h6l3-4-2-10-8-7z"/><path transform="translate(708,443)" d="m0 0h2v6l-2 2-7 1v8h-5l-2-5 1-4 2-3 9-1z"/><path transform="translate(808,460)" d="m0 0h9l1 3-7 1 2 7-2 1-2-1h-7-3l3-6z"/><path transform="translate(688,468)" d="m0 0 13 2 4 1h14l5-1h8l4 3-1 8-6 9-8 5h-22l-6-3-4-4v-2h-2l-3-6-1-8h2l1-3zm0 4v8l4 6 3 2 5-1 5-3 26-1 2-5-1-5h-32l-3-1zm28 12-10 2-5 3 3 4h13l8-5-4-4z"/><path transform="translate(471,522)" d="m0 0 8 3 4 5-4 1h-5l-1 3-7 5-9 17-10 12-11 8-13 6-11 3h-15l-14-3-12-5-11-7-12-11-7-10-5-8-6-1-4 1-1-4 5-5 5-3 3 1v5l12 5 18 5 19 3h28l24-4 16-6 14-9 1-4zm-15 19-10 5-19 5-10 1h-29l-16-2-23-6-4 1 2 4 6 8 8 8 4 1 11-3h25l11 3 12 6 3 3 7-2 9-8 5-4 7-9 4-7-2-4zm-76 24-10 2-1 4 12 6 12 3h20l9-3-4-4h-2v-2l-10-4-8-2z"/><path transform="translate(423,592)" d="m0 0 3 1-5 5-5 2h-17l-8-3v-2l23-1z"/></svg>
