<?xml version="1.0" encoding="UTF-8"?>
<svg version="1.1" viewBox="0 0 1024 1024" xmlns="http://www.w3.org/2000/svg"><path transform="translate(302,224)" d="m0 0 7 1 5 3 1 2v12l-5 5h-11l-5-4-2-3v-9l6-6zm-3 3-4 4v9l5 5h8l5-5v-8l-2-4-2-1z"/><path transform="translate(506,225)" d="m0 0 7 1 6 6 1 6-2 7-5 4h-9l-6-4-2-3v-8l7-8zm-2 3-5 5v8l5 5h9l5-6-1-7-6-5z"/><path transform="translate(580,229)" d="m0 0h14l14 3 11 6 10 8 8 10 4 8 4 13 1 9v15l-1 9-1 4-5 15-6 11-8 10-11 9-10 5-6 2 2 9v6l-6 1h-2v14l8 30 4 11v21l-4 12-3 5h-2l1-5 3-11 1-12-3-19-4-13-5-15-2-18h-9l-2-3 3-8v-4l-16-6-11-9-6-5-6-9v-2h-2l-6-14-2-5-1-9-1-6v-17l3-16 4-10 10-13 13-10 9-4 8-2zm-1 2-15 4-11 7-11 10-6 10-4 9-3 13v21l4 17 9 17 8 10 10 8 14 6 6 1h15l15-5 11-8 8-9 5-9 4-8 4-13 2-9v-19l-5-19-6-10h-2l-2-5-9-9-12-7-13-3zm5 135 1 3h6v-3zm-1 4-5 6 1 4h16l2-2v-5l-4-3z"/><path transform="translate(406,242)" d="m0 0h22l13 4 11 7 7 7 8 16 3 9v19l-5 16-8 16-11 12-16 9-6 1 2 10-2 3h-7l-1 1v25l4 15 4 8 2 5 1 7v14l-2 10-5 7-2-2 5-14v-16l-6-17-3-9-2-11v-23l-4-1-4-2 1-6 2-5-9-3-11-7-9-10-8-16-2-7-1-4v-26l3-12 7-11 6-7 11-8zm4 2-9 2-11 6-10 9-6 9-5 14-1 5v15l4 16 6 12 6 8 7 7 16 8 5 1h11l14-5 5-4 8-7 8-10 6-15 3-9 1-15-3-14-7-13-8-9-15-9-9-2zm4 113-7 7 1 4h14l-1-6-2-2h-4l1-3z"/><path transform="translate(756,247)" d="m0 0h20l12 4 14 7 10 9 6 7 8 16 2 8v24l-3 11-10 21-9 8-4 5-12 7-18 6 3 9v4l-12 1-4 16-4 8-7 9-11 12-6 12-2 6v19l2 10h-4l-2-7v-24l5-12 8-11 9-10 7-10 4-10v-8l-8-3 1-7 3-4v-3l-12-5-9-5-13-13-6-9-7-19-2-10v-19l4-12 7-14 9-10 11-7 15-6zm5 2-18 4-10 6-8 6-9 11-5 10-3 10v22l3 13 3 10 12 16 10 9 16 8 8 1-1 4 1 1h5v-2h-2v-2h12l18-6 6-4 11-11 7-9 6-15 3-12v-18l-4-13-8-15-12-12-10-6-20-6zm-5 133-3 4v4l12 2h5l1-1v-6l-3-3z"/><path transform="translate(557,252)" d="m0 0h9l1 2v6l-6 8-10 15h-6l-4-5 3-12 6-8 5-5zm2 1-8 7-6 8-1 3v8l5 1 4-5 8-11 4-5-1-5z"/><path transform="translate(608,259)" d="m0 0 4 1 4 5 6 3 7 2 1 5-3 5-2 2v13l-1 1-15-1-5 3-5-1-1-1-1-12-7-7 2-5 10-4zm0 3-4 8-9 4-1 4h2l3 9 1 7 3 1 6-3 8 1 5 1 1-4-1-8 6-7-1-3-10-3-5-7z"/><path transform="translate(394,261)" d="m0 0 8 2 1 1-1 7-6 7h-2l-2 5-5 6h-7l-1-1v-8l3-7 6-8zm1 3-6 4-6 7-2 4v7l2 2 4-1 6-9 7-8-1-5z"/><path transform="translate(737,267)" d="m0 0h5l3 3v7l-8 9-7 11-2 2h-6l-2-2v-10l6-11 8-8zm-1 3-11 10-3 8v6l2 3 4-2 11-16 4-3v-5l-1-1z"/><path transform="translate(253,276)" d="m0 0h27l8 2 16 10 7 7 8 14 4 13v18l-3 14-5 11-5 9-9 10-8 7-11 5-8 3 2 12-2 2-5 1v13l3 12 6 11 9 10 10 15 3 7v21l-2 1-1-17-3-10-8-12-8-8-7-11-6-15-1-15-2-3h-8l-1-4 1-6 3-1-1-4-12-3-10-5-14-13-9-16-4-12-1-18 2-15 7-14 7-9 9-8 12-7zm2 1-13 4-11 8-8 7-6 8-6 12-3 11v15l4 14 8 16 9 10 8 7 5 3 10 3 12 1 14-1 12-5 14-12 7-10 7-17 2-8v-22l-4-12-7-12-9-9-14-8-10-3zm7 121-1 3-5 4-1 4 1 1h16l1-3-2-4-4-2-1-3z"/><path transform="translate(255,289)" d="m0 0 4 1 3 2v6l-2 2h-8l-1-2v-6zm-1 3-1 4 3 3 4-2-1-4z"/><path transform="translate(236,296)" d="m0 0 9 1v9l-12 14-5 6-7-1-2-2v-7l6-10 7-8zm-1 3-8 8-4 7v8l4 2 4-5 7-9 4-4 1-7z"/><path transform="translate(798,299)" d="m0 0 5 3 2 9 5 5 1 3-6-2-2-2-3-12-5 2-4 4h-4v-2l5-3z"/><path transform="translate(719,301)" d="m0 0 4 1 1 5-2 2-4-1-1-5z"/><path transform="translate(290,304)" d="m0 0 5 1 4 5 6 3 1 5-3 4-1 7-2 2h-16l-2-2-2-9-1-1v-6l8-4zm1 4-3 4-6 2-1 2 3 4 1 7 1 1h13l1-5 2-4 1-4-6-3h-2l-2-4z"/><path transform="translate(563,305)" d="m0 0 5 1 4 6 13 3 1 4-5 7v12l-2 2h-14l-4 3h-5l-2-2v-3l8 1 4-3 11 1v-12l4-5v-2l-10-3-5-6h-3l-4 8-7 3h-3l2 5 4 3v6l-2-1-2-5-6-5 3-5 9-4z"/><path transform="translate(775,307)" d="m0 0h10v2l-8 1 1 5 2 6-3 9v3l13 1 6 6h3l3-9 7-6 4-1-1-5 4 1-1 5-4 3-6 2-3 12-1 1h-6l-6-6-14-1-1-1v-7l1-2v-11l-1-7z"/><path transform="translate(671,309)" d="m0 0h11l6 4 1 2v9l-4 6-4 2h-8l-6-4-1-2v-11zm1 2-4 4-1 7 4 6 5 2 5-1 5-5 1-5-2-5-3-3z"/><path transform="translate(603,311)" d="m0 0h20l2 10 5 5-1 4-3 2-6 1-3 6-5 1-5-5-8-3-1-4 3-5v-11zm14 2-2 1h-10l-1 1v8l-3 6 8 4 3 4h4l4-6 6-2-1-5-3-2-1-8z"/><path transform="translate(339,326)" d="m0 0h11l5 4 2 4v7l-4 6-5 2-8-1-5-3-2-7 1-6zm3 2-6 4-1 2v7l5 5h11l4-6-1-7-6-5z"/><path transform="translate(235,342)" d="m0 0 6 1 3 5 8 4-2 4-2 3-1 8-1 1h-18l-2-10-3-2v-5l2-2 7-2zm1 3-3 5-6 2-1 3 3 4 2 7h12l4-9 1-5-7-3-3-4z"/><path transform="translate(496,347)" d="m0 0h9l7 7v9l-4 5-3 2h-10l-6-6v-10l5-6zm2 2-3 1-3 4v9l4 5h8l5-5 1-6-4-7z"/><path transform="translate(274,354)" d="m0 0h5l4 5 7 4 1 5-3 3-1 7-2 2h-18l-1-1-1-9-2-3v-5l9-5zm1 3-3 4-6 2 1 5 1 8 1 1 14 1 1-1 2-9 2-4-7-2-3-5z"/><path transform="translate(658,373)" d="m0 0h16l16 4 10 6 9 8 5 7v2h2l5 10 3 10v23l-5 17-8 15-11 12-11 7-10 4h-3l3 12-1 2-10 1-2 11v4l8-4 4-1h7l10 5 6 7 5 5 6 1 19-2 8-7 34-34v-14l4-4 11-1 3 3 3 5v6l-4 2-1 4-4 2v52l2 9 1 1h11l10-5h8l11 4 8 11 3 4 2-9v-15l-6-2v-6l4-6-11-6-10-9-7-11-5-11-1-8v-33l3-11 10-14 10-9 15-7 4-1h22l19 7 6 4 8 8 7 12 5 14v17l-2 12-6 15-7 11-7 8-10 7-12 6-3 1-13 1 2 11-1 1-7 1-4 21-5 14-7 10h-2l-2 5-7 10-6 15-3 19v7l1 7 4 2v11l-5 5-3 13h-3v-12l-9 1-7 4-17 4-3 8-15 1 2 24 1 14-4 3v10l-5 3-11 1-1 1v8l12 1 43 1 10 6 13 11 8 7-1 2-4-2-5-5-13-10-7-4h-56l1 4 5 5 1 6-2 2h-17v6l38 1v3h-338v-2l196-1v-11l-1-1-7-1v-1l7-2 1-4-6-2v-2l6-2v-5l-4-1h-3v-2l7-3v-9l-4-3 1-3h16l7-11v-2l-9-3-3-3h-12l1-3 9-1-2-5-7-6-5-7-2-2 4 1 8 8v2h6l2 10 4 1 5-1v2l-4 1v2h8l16-3 3-3h-10v-2l9-1v-3l-6-3 3-1 3 1-4-5-3-2 1-2 6 4 4 1-6-9-8-7-4-2h-11l-4 5-3 6-1-2 5-10 3-2 9-1v-8l-4-8-9-7-12-5h-8l-3 3v-15h-6l6-6 1-10h-3v-2l5-3 1-2v-13l-3-13-1-4 4 2 2 5 2 13-1 11-1 2v27l8 3 10 4 6 4 6 5 4 9 2 11 6 4 9 9 2 1 3-9 6-13-12-10-4-3v-10l-5-5-10-11-2-1-1 7-3 2-1-3 3-7-1-4-7-5v-6l3-6 3-2h3l-1-10-2-9v-24l3-11 10-19 6-13 3-13v-4l-6-2-1-4 2-4v-4l-16-7-11-8-9-11-6-12-6-18v-20l2-9 5-12 8-11 10-9 15-7zm8 2-13 2-15 6-11 9-7 10-6 14-1 4v22l6 21 7 11 12 12 10 7 5 2h27l16-8 11-11 3-5v-2h2l6-14 3-11 1-7-1-16-4-13-6-12-11-11-9-5-9-3zm186 46-18 5-5 3-12 12-4 6-4 8-3 12v23l3 14 9 16 9 9 13 8 9 2h14l10-3 13-8 10-9 11-18 2-7 3-13v-13l-4-15-8-14-10-9-10-5-16-4zm-69 61-7 2v10l7 3 4-1 2-3 4-2-1-4-5-5zm-118 16v2h5v-2zm113 0-7 6-1 3 1 2-6 2-8 7v3h12v2h-16l-12 12 1 3h26l13-4 1-1v-11l-3-2-2 1v-2l4-1v-9l-2-2 2-2v-6zm-116 4-3 4 1 3h15v-3l-3-4zm14 24-10 4-5 5 2 4-5 2-12 22-2 5-1 7v23l1 2 1 8 3 9 7 2 1 5-1 6 6 9 5 6 5 1 3-5 8 11v1l-6-7-4 2-7 16 1 4 14 9 3-3 1-4h2l-12 25-3 5 1 4 9 1 5-4-3 4 1 3 6-2-3 3v3l4-1v2l-4 1v4h12v2h-12l1 3 13 4h7v2l-3 1 2 6 4 8h15l1-1 1-17-1-3h-7l-5 4-1-1v-2l5-2 1-7h2v5l7 3 1 13 1 1h23l1-1v-12l-6-40h2l1 10 2 2h14l3-5 1-17-1-1h-16l-14 3-8 1-5 4-4 2-6 1v-2l9-1 3-2-1-3h-2v-2l14 1 18-4 12-5 9-7 6-5-5 6-8 6-5 3v2l4 1 2 5h7l13-5 3-2v-3h2l-3 5-11 5-10 2-2 2v5l1 1 8-1 13-4 10-4 1-1v-8l-4-6-4 1 1-2 8-1 2-6v-14l-3 1-3 3-3 1v-2l5-2 3-4v-9l3 2 3-5 5-13 7-10 4-4 6-9 1-5-1-4-2-6-6-10-4-3-4-1h-11l-9 4-1 5-3-4-3 1v5l-9-9h-3l1-3v-8l-3-1-19 4v3l-9-3v-1l17-1 12-3 2-3v-10l-3-1-12 3h-30l-1 5 7 6-5-2-5-6-2-1h-9l-13 4-8 3 3-3-1-4-6 2-6 4 8-8-2-5-4-5-6-3zm168 14v1h5v-1zm-2 2-4 5 2 4 4 1h7l1-1v-5l-3-3zm-196 76v3h2l-1-3zm-6 2 1 4h4l-2-4zm12 1-5 5-1 9 13 16 5 5 4-1 1-6-6-5-7-10-2-4 1-8zm-13 5v4h3l-1-4zm169 37-2 3 4 1v-4zm2 5v3l5-1-1-2zm0 6v3l4-1-1-2zm-139 32-4 2-1 2v10l1 1h14l2-2v-7l-3-5-2-1zm-4 17-5 6v14l1 1h20l1-1v-13l-3-6-1-1zm17 1 2 6 6 14 5-1h2l1 1h6v-2l-4-1 4-2-2-6-3-5-12-4zm-27 1-12 4-5 7v3h2v2l-4 1 1 2h7l1-2-1-2 6 5 5-8 4-7v-5zm1 12-2 2 1 5 3-1v-5zm29 1v5h3l-1-4zm44 2-3 6-6 1h-26-4-6v48h36l1-1v-38l1 1v17l4 1 6-3v-17l-1-1h-9l1-2h22l4-2-1-9-1-1zm-106 7-1 1-1 12v34l1 1h36v-48zm37 0v47l1 1h21v-47l-1-1zm65 30-3 3 2 4 5 2h9l1-5-4-4z"/><path transform="translate(816,379)" d="m0 0 6 1 6 8 2 4v5l-11 9-7 1-10-13v-5l7-6zm0 2-12 9 1 5 7 9 7-1 9-7-1-5-7-10z"/><path transform="translate(677,385)" d="m0 0 5 2-1 3v-2l-3 1-3 4-6 2 2 8h-2l-4-6 1-4 8-3z"/><path transform="translate(198,387)" d="m0 0h7l3 7 2 6v6l-8 5-6 2h-7l-4-10-1-8 1-4zm-1 3-9 2-2 2 1 7 4 9 8-1 9-4-1-9-3-6z"/><path transform="translate(682,390)" d="m0 0 9 3 1 1v5l-3 5-1 7-4 2-3-1h-11l-1-4h13l4 1v-7l3-4-1-3-6-3z"/><path transform="translate(324,394)" d="m0 0 7 1 2 2v6l-10 13-4 9-2 1h-7l-2-2 1-12 5-9 8-8zm-1 3-9 9-3 7-1 3 1 7 2 2 4-1 8-15 5-6v-5l-1-1z"/><path transform="translate(639,394)" d="m0 0h6l3 4v6l-8 10-7 11h-8l-1-1v-10l7-13zm2 2-8 7-5 7-2 5 1 6 4 2 10-14 5-6-1-5z"/><path transform="translate(340,371)" d="m0 0h25l12 4 10 6 8 8v2l3 1 8 16 2 6v9h-2l-3-13-8-16-7-8-7-5-16-6-5-1h-16l-12 3-14 8-7 7-6 10-4 8-2 11v19l3 14 8 16 9 10 8 7 13 6 3 1h19l16-8 8-6 7-8 8-15 5-22h2l-1 13-4 11-4 10-7 9-10 10-13 7-7 2 1 7 1 5-2 2-6 1v22l3 12 9 19 4 13v19l-3 16 8 6 2 5-1 7-6 4h-2l-1 9 1 8h-3l-2-7-5 3-7 7v11l-4 3h-2l-2 4-8 5 4 10 7 11 8 7 1 1h9l-1-7v-15l2-12 4-6 7-6 9-5 12-3 1-1v-26l-2-4v-13l3-14 6-8 6-4v-24l3-2-1-3-3-2v-11l4-6 4 2 3 4v2h2v-14l2-8 10-7 9-4v-15l-5-6v-17l6-9 5-3h2l-1-2-2-18v-6l4-2v-3l-4-1-2-3v-7l5-8 4 1 5 8v7l-2 4 3 4 3 20h6v-15l1-11 3-3-4-3-1-8 5-9h4l3 3 2 4v10l-2 3 2 2 2 21 1 3h10l1-15h3l8-4v-4h-7l-3 1v-3l3-1-2-4-2-2v-5l4 2 3-5 3 1 3 3-3-10h-4l-4 8h-2l1-6 4-6 4-1 6 8v10l-5 6 4 3v9l-9 3-2 2v7l6-3 3-2 1-4h2v12h11l1-5 1-19 2-2-1-4-1-7 3-6 3-4 4 1 3 4 1 3v8l-2 3h-2v3l3 1 1 26 1 1h5l3-21 3-4-2-5v-6l7-9 4 1 2 5 1 10-4 6 2 1v11l-1 17 6 4 5 5 1 3 1 14-2 6-3 2v16l14 8 6 7 1 2v13l6-5 3 1 2 5h2l1 8-5 6v2l3 2v26l5 4-1 2-3-3-5 2-1 2h-7l-3-2-1-7h-3l-4 4h-2l-1 10-1 1h-9l-3-4-3-1v-2l3-1v-20l-14 1-3 1v20l3 1h3v2l-7 3-2 2h-8l-2-1-22-1 1-4 2 1h11l6-2v-20h-19v16h-2v-2l-8 4v10l-3-1v-2l-21-1-1 3h-9l-4-4-10-2v-2h11l4-3 5-2 2-3h2v6l-5 1-3 2-1 5h7l1-5 4 1h17v-20l-19-1-1 6-5 1-6 4-1-2-1-10-7-2-11-1 1 21 4 1v2l-4 1-3 4h-8l-1-2h6l2-1v-9l-5 2-2 2-2 4-2-7-1-3h-7l-1 7-1 1h-8l-3-4-4 1-6 6-2 11v20h8l9-7 4-3 2 1-11 10-9 3v10l4 4-4 1-1 13-2-1h-7l-19 9-6 8-1 3v24l4-1 9-8 3 1-11 9-4 7 2 1 5-1-3 3h8v2l-9 3v3l12 1v2l-12 1 11 4 8 1v2l-5 1 2 6 4 7h11l1-12 28 4 10 1v2l-16-1-13-2h-6l-2 10-3 3v10l4 2v2h-3l-1 7 6 1v2h-6v5l2 2 4 2-5 1-1 14-84 1h-70v-3l2-1 64-1v-23h-24l-1 1-1 10-5 5h-16l-1-1v-6l7-6-2-3h-52l-13 9-11 10-5 3-1-2 4-5 12-9 8-7 7-4 47-1 5-1v-9l-8-2-1-22-5-2v-14l2-12v-6l-12-1-2-4v-3l-16-4-18-7 3 14h-3l-4-7-1-7-5-2-2-3v-8l4-6h3l-1-15-3-12-6-10-9-13-4-4-8-15-3-11v-6l-9 1-1-1v-8l1-4-12-1-14-6-8-6-10-10-7-11-6-15-2-7v-18l4-14 5-8 7-9 13-9 16-5 11-1 16 3 12 6 10 9 8 11 3 9 2 5 1 6v21l-4 14-3 10-9 10-5 6-7 5-4 2 1 4 2 3v5l-7 3 2 12 7 16 10 13 7 10 1 2 2-1 4-5v-19l4-17-7-2-1-1v-7l8-4h4l-2-5v-5l2-2h8l5 1 1-11 1-48-5-2-5-6v-6l4-5 1-2h10l5 2 1 1 1 16 5 5 11 12 6 5 17 17 6-3 5-4 9-1 1 1v9l6-3h11l1 1v8h9l5 4v5l-3 4 9 8 2 10 2 2 7 3 3 4 2 5v6l-3 6-3 3-4 19-5 14-1 7 8-7 6-8-1-8-1-2 3-4h5l4-19v-17l-3-12-8-17-4-12-1-5-1-25 9-1-2-6-4-2v-3l-4-1 1 4-4 1-2 9-3-1 2-8v-4l-10-3-13-7-11-11-9-15-5-18-1-5v-15l5-19 5-9 12-14 19-9zm139 37-4 6 1 5h2l2-3 3 3 1-7-3-4zm55 0-4 6 1 4 6-3 1 3h2l-1-7-2-3zm-80 6-3 6v4l3 1 3-4 4 2-1-5-3-4zm53 0-1 5h3v-5zm51 0-3 4v3h5l3 3 1-5-3-5zm-24 5m24 5 1 2 1-2zm-26 4-1 1v6l3 2 5-4-1-5zm-55 1-1 1v7h5l3-4-2-4zm-21 5-2 2 1 6 4-1 2-1v-6zm98 0-1 1v5l4 1 4-3-1-4zm-19 3-5 4v6l4 1 5-5-1-5zm-54 1-4 3v8l5-1 2-2v-8zm-21 4-4 3v8h3l4-3-1-7zm96 1-4 4v6l5-2 3-3v-5zm-406 2-16 5-9 7-9 10-5 11-2 6v22l3 12 9 16 7 8 5 5 7 5 16 6h15l10-3 9-5 7-6 9-14 4-12 2-12v-12l-3-14-4-10-7-9-5-6-11-7-11-3zm360 3-7 4-1 4-2-1h-12l-2 5h-3l1-1v-10l-4 1-3 3v6l-1 1-2-3-6 1-3 7h-8l-2-2-5 1-6 7-1 7v8l4 7h6l6-5 4-5 8-1 5 5 5 7-4-4-6-7h-7l-7 9-8 4 1 3 20 4h-7l-5-1h-8l-2 5 2 9 1 2-6-4-11 4-5 4-2 5v17l4 5h5l5-7h12l8 7 5 3 4-4v1 5l5-2 2 4h2l-2 4v4l6 6h16l3-5 4-4-4-5h4 3v-3h4v-3h2l1 3 2 1h11l6-3 6-9 4 4 3 6h7l8-8 8-2h3l6 9h5l4-5 1-4v-13l-5-8-3-3-8-3h-6l-2 3-1-1 1-2v-12l-1-1-13 1-6 1v-2l12-1 7-2v-4l-6-2-9-10-1-2 7 6 4 6 8 1 5-6v-14l-3-6-6-5-5 1-1 1h-8l-2-6-4-2-5 1-1 2-9 1-1-4-2-2h-11l-2 1v-7zm23 1-3 4v6l4 2 4-2v-9zm-72 4-4 3 1 8h5l1-1v-9zm94 1-4 4v6h6l1-1 1-8zm-324 27-3 6-1 4 6 6 7-2 2-2v-10l-7-1zm8 16-1 1v11l4-2 2-3-1-5zm7 7-9 11v14l3 1 9-10 2-5h2l1-4-6-7zm9 9-6 8-11 12-1 1v18l5-2 12-11 11-16-2-5-5-5zm11 11-10 14-1 3-4 2-5 6-8 6-1 5 1 2h-9l-2-1h-7l-1 2 4 6v2l-13 3-2 4 2 2 9 1-4 12-1 17 5 1 5-3 5-6-2 5-6 5-5 2v9l1 2h-2l-1-3-4 1-2 4v6l4 6 7 3 1-5v-2l6 10 5 6-7-7-15-3 2 17 2 1h5l1 7 6 4 16 5 3-3v-3l4-2-3-3h-2v-2l-8-6 5 3 9 6 9 3 7 2h4v2l-11-3h-8l-4 2 1 11 2 9 2 2h10l4-4 1-8-1 11-3 21-1 13 2 2h45l10-4 1-19h2l-1 4v13l2 5 10-2 17-4v-4l-10-3 11 1v-3l3-1-1-5-9-9-9-5h4l-1-5-6-16v-2l3 5 6-1 10-7-1-7-6-12-5-1-2 1 8-13 4-13 1-4v-20l-4-15-3-6 2-4-1-4-4-5-9-6-1-2 6-2v-4l-2-1-15-1 5-7-1-1h-10l-7 2-3 1 2-5v-5l-4-1-9 6-6 5-6-8-4 2-5 8 2-4 3-8-2-4-5-4zm150 16-2 4v5h2l1-2h2l1 3h3l-2-8-1-2zm181 0-3 4v5l5-2 1 2 3-1-1-7zm-149 2-1 3 1 7-3-6-4-2-3 4v7h2l1-2h3l1 2h3l-2 8 3 3 11 2h6l2-4 4-2-6-8-10-8-3-4zm93 2-5 9v2h3l1-2 5 2v-7zm24 0-8 8-10 5-4 6 5 5h9l8-1 5-6-2-3v-13zm8 0-4 5v4h2v-2l3 1 1 2h2v-6zm-148 2-3 8-1 3 4 1 1 20h4l-1-28zm163 4-2 3v26l4-1 2-20 3-2v-3l-4-3zm9 0 1 2 1-2zm-164 2v9l6 2 1-2-2-3-2-6zm148 1-5 6 1 4 6-2 1-1v-6zm-108 1-1 3h3l-1-3zm100 0v2l2-1zm-131 1v2h2v-2zm99 0 1 3zm-9-1-2 1-16 1-5 6 4 2 2 6h17l6-7-2-5zm-360 5v2h2v-2zm244 1-1 1v6h3l4-3v-4zm177 0v7l6-1 2-5-1-1zm-418 2-7 2-1 6 5 1 10-3v-3l-3-3zm259 2-1 1v17l2 2 2-1v-17zm146 0-1 1v18h3l1-1v-17zm-140 1-2 2v5l5 1 4-3-1-5zm130 0-1 1v8l5-1 2-2v-6zm-98 1-1 1v11l6-2 2-3v-5l-2-2zm32 0-1 1v8l5-1 4-3-1-5zm34 0-1 1v9l6-2 2-3-1-4-1-1zm-117 1-5 4v6l3 1 5-4v-5zm176 1-5 6 1 4 5-1 2-2v-6zm-153 6-6 4v5l3 2 6-4v-6zm65 1-6 5v7l5-1 4-4v-7zm63 0-3 3v6l3 1 3-2 1-8zm-31 2-4 4v6l5-1 2-2v-7zm-120 2-4 3v7l1 1h5l2-2v-8zm176 0-5 3v7l1 1h5l1-1v-9zm-250 2 1 9 3 10h4l2-4v-9l-5-5zm225 6-3 2v7l1 1h5l1-1v-9zm-31 1-4 3v7h7v-10zm-174 29-1 4h2l1-4zm5 2-3 4 3 1 3-2-1-3zm-12 1-1 3 1 7-4 7-9 10-1 5 3 3 4-2 7-7 7-12 2-1-1-8-5-5zm14 5-2 3 4 1v-4zm-158 36-3 6-1 1v8l18 6 15 3 1-4-2-4-16-5-9-3-1-8zm-9 1 1 3 3 1-1-4zm-3 4v3h5l-1-3zm2 6v3l2-2zm151 38-3 2v11l2 2h11l2-2v-10l-4-3zm-20 14-11 4 1 4-6-4-5-1-5 3-4-1-39 1-1 1-1 19 3 2h29l2-7 1-4v3l-2 10-9 1-2 5v5l1 1h27l1-1v-9l-7-3v-2l5 1 1-4-2-2h15l5-10-1-3h-3v-2h7l5-1-4 2-5 8 1 5h7l2 3h3l4-9v-3h2l-2 5 1 5h16l2-3v-7l-1-2h2l3 11 1 3 4 1 2-3h9l-1-6-4-7-6-5-9-3-2 4-3-3h-6l-3 4-2-4h-3v-2zm-16 23-1 1v47h28v-42h-3l-2-4-5-2zm31 0-1 1v46l1 1h16l1-1v-45l-2-2zm30 0-6 6h-2l-1-4h-2l-1 26v19l1 1h28l1-1v-45l-4-1-6 1-4-2zm-105 7-1 3v12l2 5 7 1 2-4v-16l-1-1zm0 21-6 4-1 5 1 1h8l7-2v-5l-7-3z"/><path transform="translate(355,406)" d="m0 0h5l5 7 4 7 13 4 1 6-5 5-2-1 3-3v-5l-11-3-4-5-6-9h-2l-3 3 1-5z"/><path transform="translate(349,414)" d="m0 0 2 1-4 6-13 2 1 7 5 6v16l8-1 5-2 9 3 5 3v2l-9-3-5-1-10 3h-5l-2-2v-19l-6-8v-5l9-3 8-2z"/><path transform="translate(691,419)" d="m0 0 5 1 3 3 3 6 8 5-1 4-5 4-1 2-1 9-2 2-5-1-5-3h-12v-13l-3-3-1-7 5-2 7-1zm1 3-4 5-9 2-1 5 2 4v10l1 1h10l5 3 4-1 2-9 5-5-2-4-6-3-4-7z"/><path transform="translate(623,428)" d="m0 0h5l1 1v5l-5 1-3-3z"/><path transform="translate(776,429)" d="m0 0h8l3 7v15l-6 2h-15l-2-4-1-15 1-3zm-1 3-8 2-1 1v15l1 1h10l7-1 1-1v-9l-2-8z"/><path transform="translate(373,437)" d="m0 0 1 2-1 16-3 2-1-2 1-15z"/><path transform="translate(835,437)" d="m0 0h7l3 2v8l-14 14-4 5-7-1-2-2v-7l4-7 10-11zm2 2-10 7-6 9v7l5 1 11-12 5-4 1-6-2-2z"/><path transform="translate(647,447)" d="m0 0h5l4 7 11 3 1 5-5 6-1 12-1 1-8-1-5-1-5 2h-5l-1-1-1-11-5-6v-5l4-2 7-2 4-6zm1 2-6 8-8 3 1 4 3 3 1 10 5 1 6-1 9 1 1-1 1-11 5-6-8-3-3-1-4-7z"/><path transform="translate(127,470)" d="m0 0h7l3 5-1 6-6 12-3 8-4 1-5-3-1-2v-11l7-14zm3 1-7 8-3 6v13l5 1 3-5 4-11 2-4-1-7z"/><path transform="translate(613,487)" d="m0 0h6l3 5 3 10v6l-10 4-9 2-3-2-6-18 6-4zm1 2-13 5-1 3 5 13h7l9-3 1-1-1-11-3-6z"/><path transform="translate(712,492)" d="m0 0 11 1 4 5 1 8-3 6-6 4-8-1-7-8v-7l5-6zm7 2-8 1-4 4v8l4 5 2 1h6l5-3 1-4v-7z"/><path transform="translate(399,493)" d="m0 0 8 1 12 6 1 4-6 14-2 2-9-1-10-5-2-5zm2 2-7 13 1 4 5 3 6 3 5-1 3-4 3-8-1-4-12-6z"/><path transform="translate(491,504)" d="m0 0h31v2h-31z"/><path transform="translate(558,519)" d="m0 0 3 1-8 3-19 3-12 1h-25l-15-1v-2l53-1 19-3z"/><path transform="translate(669,542)" d="m0 0 4 1 8 7h6l-2 5 5-1 5-2-5 5-7 8-5 4 2-5 2-2v-6l-7-8-6-5z"/><path transform="translate(504,543)" d="m0 0 1 3-2 5h-2l-1-3-8-1 1-2 10-1z"/><path transform="translate(489,547)" d="m0 0 3 1-11 7-2 1-1-8 5 2z"/><path transform="translate(265,549)" d="m0 0 1 3h6l-3 3-8 4-8 2v-2l7-4z"/><path transform="translate(675,572)" d="m0 0 1 2-1 5 4 3-2 1h-5l-3 7h-2l1-7-7 3-2 3v8l3 4 3 1 1-6h1v24l1 8-2-3-3-18-5-5-2-6 1-8 6-7 7-2 2-4h2z"/><path transform="translate(802,575)" d="m0 0 3 3 3 5 10-1v2l-12 5-1 1v23h-2l-2-18-3-10-1-6 3 3 2 4h2l-1-7z"/><path transform="translate(252,578)" d="m0 0 6 3 5 5-5-1-6-3-1 6-2 1 2-10z"/><path transform="translate(690,584)" d="m0 0h24l-1 2-8 1-14-1z"/><path transform="translate(703,594)" d="m0 0 6 2 3 4-1 5-3-1-2-5-5 1-3 1 1-5z"/><path transform="translate(319,596)" d="m0 0h3l-2 4-5 3v1l9 1v4h-9l-8-1v-4l8-6z"/><path transform="translate(689,605)" d="m0 0 6 1 5 6-1 7-5 4h-8l-5-5v-7l5-5zm-1 3-3 1-1 2v7l3 3h6l4-4-1-7-4-2z"/><path transform="translate(773,607)" d="m0 0 4 1 12 5 9 3 6-1 2 10v3l-3-2-6 14v6l-5 3-3 2 2-5 4-8 5-14v-4l-21-8-6-4z"/><path transform="translate(729,608)" d="m0 0 7 1 2 3-1 4-4-4-7 1 2-4z"/><path transform="translate(246,613)" d="m0 0h8l9 3v3l-12 8h-3l1-4 5-3 1-3h-7l-3-3z"/><path transform="translate(759,613)" d="m0 0h6l3 3 1 5-4 1-2-5h-4l-2 2-1-2z"/><path transform="translate(285,614)" d="m0 0h5l3 5h-3l-4-1-2 3h-2l1-5z"/><path transform="translate(156,618)" d="m0 0h9l7 6v10l-4 5-4 2h-8l-6-4-1-2v-10l3-5zm1 2-6 4-1 7 4 6 1 1h9l5-4 1-6-3-5-3-3z"/><path transform="translate(487,620)" d="m0 0 4 2 3 3 2 5h2l5 7-5-1-7-11z"/><path transform="translate(702,621)" d="m0 0 22 6 13 5 8 2 7 3 1 4-5 8-7 6-2 1h-20l-7-3-7-6-4-8-1-3v-11zm1 3-1 1v13l2 3h16l10 4 7 6h5l7-8 1-4-9-4-16-5-20-6zm8 18-3 1 1 4 8 6 6 2h10l2-2-1-4-5-4-5-2z"/><path transform="translate(305,626)" d="m0 0h2l-1 5-5 5-8 4-4 1h-9l-7-4v-3l7 3h9l10-4z"/><path transform="translate(762,629)" d="m0 0h7l4 2 3 6-2 7-2 2h-11l-3-3-1-7 3-5zm2 3-5 5 1 4 3 3h7l2-3v-6l-3-3z"/><path transform="translate(843,630)" d="m0 0 8 1 6 6v8l-4 6-2 2h-11l-6-6v-11l5-5zm-1 2-5 5-1 8 3 5 2 1h9l4-5v-9l-5-5z"/><path transform="translate(426,648)" d="m0 0 16 2 7 1v2l-12-1-11-2z"/><path transform="translate(332,650)" d="m0 0 1 2-5 5-12 8-5 5-3-4 14-8z"/><path transform="translate(691,660)" d="m0 0 5 2 18 8 11 3v2l-11-2-5-2h-3l2 6 1 2-4-2-4-9-10-6z"/><path transform="translate(302,667)" d="m0 0 1 2-9 3-8 2-1 3-5-3-5-1v-2l14-1z"/><path transform="translate(590,668)" d="m0 0 1 2-14 4-17 3h-5v-2l27-5z"/><path transform="translate(704,686)" d="m0 0h8l4 2-1 3-3-2h-9l-8 4-5 4 2-4 3-3z"/><path transform="translate(397,693)" d="m0 0 6 6 8 1 5 6 8 14 1 2-4-2-4-6-5-10-2-2h-5l-1 3-1 4-5-13z"/><path transform="translate(451,705)" d="m0 0h2l-2 4-8 11-4 4-3-1 6-5 7-11z"/><path transform="translate(826,708)" d="m0 0h10l5 4 1 3v9l-5 6-8 1-6-3-4-5v-8l5-6zm0 2-4 3v11l3 3 3 1h7l4-3 1-9-4-5-2-1z"/><path transform="translate(403,720)" d="m0 0 2 3 1 5-5 1-4 1-1-5 6-2z"/><path transform="translate(616,730)" d="m0 0 2 1v4l-22 2 3-2 16-4z"/><path transform="translate(184,730)" d="m0 0 7 1 5 4 1 2v10l-4 5-2 1h-9l-5-3-3-4v-9l5-6zm-1 2-6 5-1 7 1 3 5 4h8l5-4 1-2v-7l-5-5z"/><path transform="translate(499,770)" d="m0 0h20l28 1v1l-27 1h-22l-27-1v-1z"/><path transform="translate(420,774)" d="m0 0 19 1 10 1v2h-10l-19-2z"/><path transform="translate(579,775)" d="m0 0h8v2l-20 2h-14l-1-2z"/><path transform="translate(472,778)" d="m0 0h76v2h-75z"/><path transform="translate(461,786)" d="m0 0h19v2h-20z"/><path transform="translate(560,785)" d="m0 0h12v2l-13 1h-18v-2z"/></svg>
