<?xml version="1.0" encoding="UTF-8"?>
<svg version="1.1" viewBox="0 0 1024 1024" xmlns="http://www.w3.org/2000/svg"><path transform="translate(285,207)" d="m0 0h9l6 3 3 5v9l-4 6-5 2h-7l-5-3-4-6v-8l4-6zm2 2-5 4-2 5 1 6 5 5 2 1h7l5-5 1-2v-7l-4-6-2-1z"/><path transform="translate(511,208)" d="m0 0 6 1 7 6 2 5-2 9-6 5h-10l-6-4-2-4v-8l3-5 5-4zm-2 3-5 5-2 4 1 6 4 5 8 1 5-2 3-5v-7l-4-5-3-2z"/><path transform="translate(592,213)" d="m0 0h14l15 4 9 4 12 9 8 9 5 7 6 18 2 13v10l-2 14-6 20-7 13-7 9-4 4h-2l-2 4-10 6-14 5 1 5 3 6v5l-4 2-6-1v13l3 13 4 14 6 19 1 6v16l-3 12-5 9-2-1 5-13 2-12-1-14-6-22-6-18-2-14v-9l-7 2-5-1-1-2 5-14-20-7-9-7-9-8-10-15-7-19-3-17v-13l2-13 6-18 10-13 9-8 9-6 17-5zm-4 3-15 4-9 5-11 9-4 5v2h-2l-7 14-4 17v22l5 22 6 12 7 10 10 10 11 7 11 4 11 1 14-1 11-4 10-7 7-6 6-8 9-16 5-19 1-7v-20l-4-17-7-14-3-1-2-5-11-10-12-6-12-3zm7 146 1 3h8v-3zm-1 5-4 4-2 6h21l1-5-4-5z"/><path transform="translate(405,227)" d="m0 0h19l14 4 11 6 7 6 7 10 6 13 2 9v17l-4 16-7 16-9 12-9 8-17 8-5 1 1 5 2 4-1 5-3 1-7-2v27l4 17 6 14 3 12v10l-3 13-5 9-2-1 2-5 4-12v-17l-3-10-7-18-3-16v-11l1-10 1-2h-9l-1-5 3-6v-3l-12-5-9-6-5-5-6-7-7-14-4-12-1-5v-24l4-13 7-13 6-7 13-9 11-4zm5 2-13 2-11 6-10 8-8 11-5 13-2 9v16l3 14 5 13 7 10 6 7 10 7 13 5h17l11-4 10-6 9-9 7-11 5-11 4-15 1-13-3-16-8-15-7-8-14-9-9-3-9-1zm-1 123 1 3 4-1 1-2zm-3 4-3 4 1 4h11l4 1 1-3-3-6z"/><path transform="translate(784,233)" d="m0 0h19l12 3 16 8 10 8 8 9 8 15 4 15v19l-3 13-5 13-7 12-11 12-13 9-14 5-9 2 1 4 3 6v5l-1 1h-7l-5-1-2 12-5 12-6 9-11 12-6 7-5 10-3 10v16l3 12v3h-3l-3-12v-21l4-12 7-11 12-13 9-13 4-10 1-11h-9l-1-1 1-7 4-5 1-5-9-2-14-7-14-14-6-8-4-8-6-18-2-15 1-15 4-13 6-12 9-11 11-8 16-7zm4 2-15 3-12 5-11 8-9 10-6 10-4 13-1 6v17l3 15 5 13 6 10 8 10 12 9 10 5 9 3 17 1 12-3 9-3 8-5 13-13v-2l3-1 7-12 3-10 3-11 1-8v-10l-3-14-6-13-6-9-10-10-11-7-14-5-10-2zm-2 139v3l7 1v-4zm-3 5-4 6v3h8l9 2h4l-1-7-2-3z"/><path transform="translate(567,237)" d="m0 0h7l3 4-1 7-10 11-6 11-3 2-5-1-3-5 2-10 4-8 7-8zm2 2-6 4-7 8-4 7-1 9 2 2 5-1 7-11 9-10 1-6-3-2z"/><path transform="translate(621,245)" d="m0 0 5 1 6 9 11 2 2 2-1 6-5 6 1 14-1 1-7-1-5-2-5 1-7 4-4-2-1-1v-12l-8-8 1-5 12-4zm0 3-4 10-12 4 1 4 6 5 1 14 4-1 7-4 9 3 4 1 1-3-2-11 7-8-1-3-11-2-7-9z"/><path transform="translate(389,248)" d="m0 0 7 1 2 3-1 6-7 8-4 5-5 8-7-1-2-2v-7l5-10 7-8zm0 3-8 6-5 8-1 3v8l4 1 6-9 7-8 3-3v-5l-1-1z"/><path transform="translate(763,254)" d="m0 0 5 1 3 5-1 5-7 8-4 5-6 10h-8l-2-2v-8l5-11 9-10zm-2 3-5 5-6 5-3 5-2 8 1 5 4 2 7-10 6-8 6-7-2-5z"/><path transform="translate(242,263)" d="m0 0h15l15 3 15 9 10 9 8 13 4 10 2 10v13l-2 13-5 14-6 11-8 10-7 7-9 6-13 5-5 1 1 4 3 7-1 5h-8l1 15 3 14 7 12 9 10 9 12 6 12 1 5v16l-2 4-2-2 1-5v-10l-3-12-7-11-10-11-9-13-5-13-2-12-1-11-4-1-6 1-2-2 1-7 2-3h2v-5l-9-1-12-5-11-8-7-7-5-7-8-17-3-12-1-14 2-14 4-12 7-11 9-10 15-10 8-3zm-3 2-14 4-9 5-10 8-6 7-3 3-7 14-3 13v16l4 17 7 14 7 9 8 8 11 7 9 3 4 1h22l10-3 8-5 11-9 8-10 6-12 4-11 2-10v-20l-5-16-8-12-9-9-14-8-14-4zm4 132v2l6 1 2-1v-2zm-2 4-4 8 4 1h11l4 1 1-4-3-6z"/><path transform="translate(238,278)" d="m0 0 5 2 2 3-1 6-2 2-7-1-3-5 2-5zm-1 3-2 2 1 5h6l1-2-2-5z"/><path transform="translate(218,285)" d="m0 0 6 1 3 3-1 7-7 8-8 10-5 5-5-2-2-2v-7l4-9 8-10zm-2 3-9 9-5 10v8l5 1 8-11 7-8 3-5-1-4z"/><path transform="translate(829,289)" d="m0 0 4 2 2 6 1 7 6 4v2l4 1 2 1-1 5-11 6-2 5-2 7-2 2-6-1-7-7h-14l-1-1v-6l3-6-1-10-2-4 1-5 15 1zm0 3-8 7h-16l-1 4 4 8-1 6-3 7v3h15l8 8h3l3-12 7-5 5-2-1-4-10-6-2-12z"/><path transform="translate(742,292)" d="m0 0h5l1 5-4 3-4-3 1-4zm2 2v3l2-2z"/><path transform="translate(276,294)" d="m0 0 4 1 4 6 9 4-1 5-3 3-1 9-4 2-5-2-11 1-2-4v-7l-3-4 1-5 8-3zm0 4-3 5-8 2 2 4 2 2v9l3 1 6-2 4 2 4-1v-7l4-6-2-2-6-2-3-5z"/><path transform="translate(573,295)" d="m0 0 4 1 6 9 11 1 3 2-1 4-6 9 2 8-1 5h-8l-8-1-7 4-5-1-1-13-9-8 1-4 12-5 4-8zm-1 3-4 10-4 2-7 2v4l5 4h2v14h6l5-4 14 2-1-14 6-8-6-2-7-1-6-9z"/><path transform="translate(691,299)" d="m0 0h10l5 3 3 5v9l-4 6-5 2h-7l-6-3-3-5v-9l4-6zm2 2-5 4-2 5 1 6 4 5 2 1h7l5-4 2-5-1-6-4-5z"/><path transform="translate(633,301)" d="m0 0 5 1 1 11 6 6-1 4-6 2h-4l-2 6-2 3-5-1-3-3-2-3-9-2-1-4 5-6-1-11 4-2 5 2 7-1zm0 3-5 3-6-1-4-1-1 4 1 6-5 7 9 3 4 7h3l4-8 8-2v-4l-5-4-1-10z"/><path transform="translate(332,318)" d="m0 0h7l5 3 4 6v7l-4 7-8 3-9-3-4-5-1-8 4-6 3-3zm2 2-7 3-2 4v7l5 6 2 1 9-1 5-6v-6l-4-6-5-2z"/><path transform="translate(198,322)" d="m0 0 6 1-1 5-4 1-3-2 1-4z"/><path transform="translate(216,335)" d="m0 0 5 1 4 7 9 3-2 5-3 3-1 10-5 1-4-2-11 1-1-5v-5l-5-6 1-4 9-2zm1 3-3 5v2h-7l-2 4 4 4v8l2 1 5-2 5 1 4 1 1-5 1-4 4-5-2-2-7-3-3-5z"/><path transform="translate(501,341)" d="m0 0 9 1 7 7v9l-4 6-6 3-9-1-4-4-2-3v-10l3-5zm-1 3-5 4-1 9 3 5 3 2h8l5-4 2-4-1-7-5-5z"/><path transform="translate(259,348)" d="m0 0 5 1 4 6 7 3 2 4-6 6v8l-4 2-5-2-11 1-1-1-1-10-4-5 1-4 9-3zm1 3-3 4v2l-8 1v4l3 4v7l3 1 7-1 5 2 1-1 1-8 5-6-5-2h-4l-2-6z"/><path transform="translate(850,375)" d="m0 0 4 2v2h2l8 13-1 4-16 11-4-2-8-11-3-4 1-4zm-1 3-9 6-5 4 2 5 7 10 3 1 14-10-1-4-8-12z"/><path transform="translate(697,383)" d="m0 0 4 1 2 5 9 3 2 2-1 4-4 4v9l-4 2-6-3-10 2-1-1v-10l-5-6v-3l9-2zm1 3-3 5-8 2 1 4 2 3-1 8 3 1 9-1 4 2 1-1 1-8 4-4v-3l-8-3-2-5z"/><path transform="translate(178,384)" d="m0 0h5l6 18-1 4-9 4-9 3-5-1-4-13-1-9zm-1 3-13 4-2 4 5 15 7-1 12-4-1-8-3-10z"/><path transform="translate(314,392)" d="m0 0 6 2 2 3-1 6-9 11-6 12-3 2h-5l-3-4 1-11 5-10 9-9zm-1 3-8 7-4 5-3 8v10l5 1 3-4 6-12 7-8v-5l-2-2z"/><path transform="translate(656,393)" d="m0 0h6l4 5-2 6-9 11-6 10-1 1h-7l-2-2v-9l6-12 6-7zm1 2-8 7-5 6-3 10 1 5 4 1 6-9 7-9 4-4v-5l-2-2z"/><path transform="translate(329,368)" d="m0 0h28l10 3 15 9 9 9 8 13 4 9 1 8v22l-2 13-7 16-6 11-13 13-15 8-9 3 2 6 2 4-1 4-4 1-5-1v24l4 13 9 20 5 14 1 5v15l-4 21 8 4 3 7v6l-3 3h-2v2l-6 4-1 1 1 8 2 8h-3l-4-10-9 9-5 6 2 9-13 10-5 3 1 5 7 14 14 14h11l-1-7-1-4v-10l2-16 6-9 9-6 6-3 13-4 3-1v-29l-3-5v-9l2-15 4-8 4-5 7-4-1-27 5-1v-3l-4-2-2-2v-9l5-9 3 1 6 9v8l-5 6 5 1 1 1 1 23 4-1-1-31-4-6-1-6v-9l3-10 8-7 9-4 4-1v-17l-5-6-1-2v-16l4-8 6-5 4-1-3-29 4-2 1-2-5-2-2-4v-7l5-9h3l7 11v6l-3 4v2l3 1 2 10 1 16 8-2 1-29 4-2-5-4-1-7 6-12 4 2 5 8v8l-4 5 4 2 1 21 1 6h10l3-1 1-27 1-1h5l-5-5-2-3v-7l4-9 5-5 5 7 2 5v9l-4 5-3 3h5l1 1 1 27 4 1h9l1-7 1-21 4-2-4-5v-7l7-10 4 2 4 8v7l-4 5h-2v2l5 1v29l7 2 1-1 3-25 5-1-4-6v-7l7-11h3l4 8 1 9-4 5-3 3 5 1-2 18-1 11 6 4 6 5 2 5 1 14-2 7-4 4v17l12 5 8 6 4 7v15l8-8 6 10 1 6-4 6-4 4h5l1 5-1 13v11l5 3v2l4 2v2h2l3 7 2 17-1 9-2 3v29l12 4 12 5 10 9 4 9 1 11 7 4 8 8 2 3 3 1 3-9 8-16-8-5v-2l-4-2-7-5 2-9-7-7-8-10-5-5-1 7-3 5-2-1 5-14-5-2-5-5v-5h2v-6l2-2 7-2-5-25v-19l4-13 13-25 2-5 2-3 4-16v-6h-7l-1-5 4-8-1-2-9-3-12-6-9-7-8-9-6-10-6-16-2-8-1-9v-9l2-13 6-15 6-9 10-10 15-8 9-3 6-1h17l14 4 8 4 11 8 8 9 7 12 4 14v24l-4 15-7 16-7 9-7 8-11 7-12 5-5 2 4 10-1 4h-10l-1 1-3 15-1 3 12-6 10-1 10 4 7 8 3 5 5 3 3 1 10-2 16-2 45-45-1-2v-14l3-3h6l1-1h6l2 2 1 4 4 3v5l-5 4-2 4-5 1 1 61 2 7 4 2 5-1 6-1 7-4 4-1h8l10 4 8 10 5 10 4-17v-13l-2-1h-6l-1-5 6-9-11-6-9-7-8-10-7-14-4-17v-24l5-19 8-12 11-11 9-5 9-4 8-2h19l16 5 10 5 11 10 9 14 5 15v13l-2 16-4 11-8 15-8 10-9 8-12 7-12 4-11 1 2 8v5l-1 1-8-1-3 21-6 17-20 28-7 17-3 19v14l7 7-1 10-4 4-2 1-3 15-2 1 1-14-1-1h-7l-8 4-12 4-10 1-2 9-1 1h-18l2 16 1 14 1 13-5 2 1 12-2 2-16 1-1 12 61 1 6 3 22 18 6 5-2 2-4-3v-2l-4-2-14-11-9-6h-62v5l6 4 3 6-2 5h-11l-8-1v9h42l1 3h-562l1-2 3-1 70-1v-27h-29l-1 14-5 4-4 1h-13l-1-1v-7l5-5 3-1-1-5h-58l-11 7-5 4-5 5-10 8h-2l1-4 12-9 14-11 6-4 58-1v-9l-1-3-9-2v-23l-5-2-1-1v-12l3-19v-4h-14l-4-9-18-4-14-6h-4l2 10 2 6h-3l-4-10-1-6-5-2-3-4-1-8 5-7 4-1-1-14-3-13-4-8-10-14-8-11-7-12-4-15v-6l-10 1-2-4 3-11h-12l-14-5-11-7-11-11-9-13-4-10-4-13-1-8v-9l4-17 6-11 7-9 12-9 12-5 14-3h9l11 2 13 5 9 7 5 5 7 9 6 13 3 14v19l-3 13-5 14-6 9-5 5-9 8-9 5 2 4 4 5-1 4-1 1-7 1 1 10 4 12 6 11 13 17 5 8v2h3l1-4 5-5-1-10v-11l3-12 2-6-7-1-4-3 1-5 6-4 8-2-3-5v-5l2-2h8l4 2 4-1 1-43 1-22-6-1-2-5-4-2v-6l3-2 2-5 2-2 10 1 5 2 1 5-1 3 1 1v6 4l43 43 5-2 7-6 3-1h7l1 1v7l-1 3 8-4 10-1 3 3v5l-2 3h11l6 4v5l-5 2 1 3 6 4 5 6 1 7-1 4 10 3 5 6 2 9-3 7-5 5-3 19-6 15-2 4 1 7 8-7 9-12-1-4-2-6 3-4 6 1 1-8 3-14 1-13-3-15-9-21-4-8-3-15v-22h-11l1-7 3-8-7-1-9-4-9-5-12-11-10-16-6-18-2-12v-12l3-14 6-15 9-10 5-6 14-8zm10 1-15 3-17 9-8 7-7 10-5 11-3 12v19l3 14 3 9 5 10 8 10 8 8h2v2l12 6 10 3h17l14-5 9-6 9-8 7-10 8-18 3-12 1-7v-12l-3-14-7-14-9-11-8-6-14-7-15-3zm346 3-14 2-17 7-11 9-9 12-6 17-1 6v17l4 17 3 9 7 11 9 10 9 7 10 5 7 2h21l10-4 11-6 10-10 8-13 5-12 3-11 1-7v-15l-4-16-8-15-9-9-7-5-15-6zm-174 31-5 8-1 5 2 4 4-8 3-1 2 6 2 1v-8l-3-6zm-30 5-4 6v7h2l2-5h2l2 5h2l-1-8-3-5zm60 0-4 8 1 4 2-1 2-4 2 1 1 4 3-1-1-5-3-6zm28 5-5 6v6l3-4 3 1 1 4h2l1-4-3-8zm-115 1-3 8 1 5h2l1-6 4 2 1 2h2l-1-5-4-6zm58 0-1 1v6h3v-6zm-30 4-1 5 3-1-1-4zm60 0-1 4 2 1v-5zm348 3-14 3-12 5-13 12-7 10-5 12-2 14v15l3 17 4 9 7 12 9 9 14 8 13 3h9l12-3 16-9 11-11 8-12 5-11 4-13 1-6v-13l-3-12-4-9-6-10-10-9-10-6-14-4-7-1zm-434 3 1 5 2-1-1-4zm111 0v4h2v-4zm-59 5-2 2v8l6-1 6-5-2-4zm31 1-1 1v9l5-2 3-2v-5l-1-1zm-60 1-1 1v8h4l4-3v-5l-1-1zm84 5-1 1v8l5-1 4-3-1-5zm-104 0-5 1 1 9 4-1 3-3v-6zm57 1-10 7v8h4l8-6v-8zm28 2-7 5v8h3l6-4v-8zm-59 1-6 5v8l4-1 4-3v-8zm-24 5-5 4v9l2 1v-2l4-2 2-2-1-8zm-334 1-16 4-10 6-9 8-8 11-4 9-2 9v16l3 16 10 19 9 10h2l2 4 8 6 16 6 5 1h10l12-3 11-6 8-7 9-13 5-13 3-19-1-16-5-16-6-10-9-10-14-9-14-3zm440 0-6 3-1 8h3l6-4 1-7zm-52 5-9 6v9l3 2h7l2-2v-14zm-30 1-6 5v7l1 1h6l1-1v-11zm58 0-6 5v7l1 1h6l1-1v-12zm-81 5-5 4 1 8 1 1h5l2-4-1-8zm103 1-5 3-1 7 3 2 5-1 1-11zm-72 1-3 1-1 6-9 1-2-1-2-5-7 1-1 1-1 7-1 1h-9l-2-3-5 1-5 5-2 4-1 13 3 8 3 2 6-1 11-12h7l5 4 4 6 4 5 2 1h6l6-5 3-4v-2l3-1 3-3h8l7 6 7 8 1 1h7l7-8 5-8 2-1h6l5 4 6 8 3 2h7l4-6v-14l-3-8-7-5h-4l-1 3h-9l-2-1v-7l-6-2-4 1-1 4-6 1-5-2-1-5-4-1h-10l-1 1-1 8-1 1h-9l-2-1-1-8-1-1zm-281 28-2 4v2l-4 2v3l5 1v5l5 1 2-3h5l2-4-2-4 1-5-4-1-3 2-2-3zm602 0-4 3-5-1-1 4 1 4-1 4 7 2 2 3 4-2v-4l5-2v-4l-4-1-2-6zm-260 1-7 6-5 9-3 2h-9l-6-5-6-8-4-2-6 1-5 5-7 8-2 1h-8l-5-4-5-8h-2l-2-4-7 1-6 7-5 5-6 2 1 3 21 4 32 2h23l30-2 18-3 3-1v-3l-8-3-7-9-5-4zm-335 16-1 15 4-2 4-6-1-4-4-3zm121 0 1 3 6-1v-2zm467 1-9 9v2l9-1 3-2v-7zm-125 1 2 2h5l1-2zm-344 2-4 6 1 4h16l2-1-2-6-2-3zm111 2-1 10 2 6 3 3 19 4 22 2h38l22-2 17-4 5-4v-15l-36 4h-55l-20-2-11-2zm230 0-2 5v3h18l-2-6-1-2zm-451 2-10 12v17l4-2 9-10 5-8-1-4-5-5zm572 5-7 2-11 11v1h12l14-2 2-2v-10zm-561 4-8 10-7 8-6 6-1 20 5-2 12-11 8-10 6-10-1-4-5-5zm206 2-11 4-7 5-2 6v17l2 5 5 2 5-3 3-5v-2l13 1 11 11h5l6-11h2l6 11 5-2 10-5h9l5-7 5 5 4 10 5 3 9-1 7-4 6-10h2l7 12 4 1 8-7 4-4 12-2 5 9 3 2 5-1 3-5 1-5v-13l-3-6-7-6-9-4h-5l-2 4-10 4-15 3-26 2h-23l-27-2-16-3-10-5zm363 7-10 2-19 1-13 13 1 3h25l14-3 5-3v-12zm-558 3-10 15-10 10v2l-4 2-9 7 1 4 5 1 14-2 5-3 8-9 8-14 1-6-5-5zm446 3-10 4-7 6 1 3 12 6 10 9 5-2 10-8 4-4-6-9-6-4-3-1zm-408 5-8 4-8 7-5 6-14 9-14 6-4 1-20 1-4 1-8-3-5 1 2 5 4 6-13 2-5 3 1 4 2 1 9 1-3 9-2 8v15l5 1 6-4 6-9 5-11 2-5 1 13 3 3 4-2 4-5 3-10 2-7 4 2 6 5 10 5 5-1 2-2-1-8-4-8 14 8 13 4 4-2 2-3-4-8-5-6 8 4 6 4 13 4h5v-6l-6-7 16 8 5 2h6l2-3-7-8-11-7 8-4v-4l-2-1-19-1 7-6-1-4h-7l-10 3-2 2-4 1 4-8-1-5zm-26 3-6 9-7 10-1 3 5-1 9-5 7-6-1-4-5-6zm546 3-12 3-7 1h-17l-10-1-2 2 1 4 11 8 7 3 17-2 14-4 1-1v-12zm70 3-1 2 8 1-1-2zm-465 1-3 6v6l4-4 1-2 3 6h2l-1-7-3-5zm197 0-4 6v6l6-6 2 6h2l-1-9-2-3zm67 0-13 24-4 12-1 6v13l5 27 3 3 7 1 1 5-2 3 1 7 8 10 5 5 4-1 2-4-6-12-3-11-2-16-5-4-3-8 1-7 4-6 3-2 7-1 10-16 5-6-2-6-10-10-10-6zm-230 2-1 4 2 4v9l-4 6 4 2 1 2 12 2h7l2-4 4-2-4-5-5-5-8-6-4-5zm64 0-5 10 1 7h2l2-6h4l2 4h1l1-6-4-8zm211 0-11 7-6 5-1 4h4l10-7 9-6-1-3zm24 0-12 3-12 5-11 8-10 10-7 10-1 4 4 3 7 2 9 1h23l10-2 12-5 11-8 3-3 4 12 5 10 9 10 8 8 16 9 16 5 3-1 1-6v-8l-3-15-5-13-6-8-7-8-21-2-11-4-17-9-8-8zm130 0-5 6 1 3 11 2h5l-1-7-2-2-7-1zm-436 3-3 5v9l4-6h2l2 5h2v-6l-4-7zm108 0-5 10v3l3-1 1-3h3l2 4h2l-1-8-3-5zm27 0-5 4-5 6-10 4-2 4-2 1v3l3 1 2 4 19-2 3-4 3-2-4-4v-9l2-5zm8 0-4 6-1 7h2l2-6 3 1 2 5 2-1-1-7-3-5zm-109 1-3 6v6l4-4h2l2 5h2l1-3-3-7-2-3zm22 2-10 6-3 3-3 5-2 4 4 2 3 5h19l2-6 5-1v-2l-5-5-1-11zm-82 2v3h2v-3zm188 0-5 5v28l4 1 1-1 2-23 5-2-4-5zm7 0v4h2v-4zm-178 3v11l1 1h8l-4-5-2-7zm378-1-15 4-7 1v3l11 3 11 1 2-2v-10zm-297 2-1 5h4l-1-5zm80 1-5 8-1 3 8-2 1-1v-7zm-151 1v4h2v-4zm34 0-1 4 3 1v-5zm108 0v4h2v-4zm-35 1v4h2v-4zm-9-1-4 2h-15l-5 5-1 3 4 1 2 6h20l3-6 3-1-2-4-2-2-1-4zm-393 5-1 3 5-1 1-2zm266 1v9l2 1v-2l4-2 2-2-1-4zm194 0-1 1v8l5-1 4-4-1-4zm234 1-7 3-3 2 1 5 8 15 14-2h16l1-2-7-14-7-6-4-1zm-688 1-8 1-3 7 1 3 10-3 7-1-1-4-3-3zm280 3-1 1v18l2 3h2v-21zm160 0-2 2v20l4-2 1-8v-11zm-154 1-1 2v7h4l5-3v-5l-1-1zm142 0-1 1v9l6-2 3-2v-5l-1-1zm-108 1v14l8-4 1-1v-8l-1-1zm36 0-1 1v9h3l8-6-1-4zm37 0-1 1v10l5-1 4-3v-6l-1-1zm277 0 1 5 6 10 4 8 3-1-1-7-6-12-3-3zm-403 1-6 4v9l5-2 3-2v-8zm191 1-5 4-1 8 5-1 4-3v-8zm-162 1 1 23 3 2 16 2 2-2v-10l-1-12-6-2-7-1zm-134 1-1 7-4 1-11-3-5-3h-4v10l-1 1h-12l-12-6h-2v12l-2 2h-7l-12-6-4-3h-2l-7 18-3 3h-5l-3-6h-3l-5 10-7 8-8 3 1 11 3 8 6 11 8 11 8 7 13 8 9 3 13 3h18l22-5 14-8 9-7 8-8 8-13 5-15 1-5v-18l-3-12-4-11-2-3-13-4zm259-1-17 2-1 1v22l2 2 12-1 7-3v-23zm196 2-9 7-9 5-19 4h-16l-25-5-3 9-3 12v19l3 11 4 11 10 14 7 7 16 10 16 6 9 2 15 1 17-3 17-7 9-7 9-8 7-11 4-9 4-13-1-3-21-7-16-11-6-5-9-12-5-10-3-7zm-286 1-1 2v21l2 2 20 1 1-1v-23l-1-1zm54 0-17 1-1 1v23l1 1h14l7-1v-25zm-93 2-7 5v8l6-2 3-2v-9zm71 1-8 6v8l4-1 7-5v-7zm70 0-6 4v8l5-1 3-2v-9zm-34 2-6 4-1 1v7l5-1 4-4v-7zm-132 3-5 4v7l2 2 5-1 1-1v-11zm60-1-8 6v6l2 2 8-6v-7zm131 1-6 4v8l6 1 2-2v-11zm-273 2 3 12 2 10 4-1 3-5v-8l-4-6-4-2zm347 1-5 3-3 6v7l3 5 4 2 4-17 1-6zm-88 0-3 5-3 2-1 10-1 1h-9l-2-1-1-4-4-1-16 3-3 5h-8l-4-3h-21l-2 5-2 1h-7l-3-2-2-4-20-1-3 4h-8l-2-1-2-4-17-3-4 2-1 3-8 1-3-2-1-9-5-6h-6v8l-2 2h-8l-3-5-5 1-7 8-2 6-1 8v15l2 4 2 1h6l8-6 5-5 5-2h7l5 3 4 5 7 10 5 5 10 1 5-2 9-10 5-6 2-1h8l5 5 8 11 4 3 6 1 6-3 6-7 6-9 7-2 5 3 8 9 4 5 6 3h8l5-3 6-7 6-9 6-5h8l7 2 2 4 7 6 2 1h6l3-2 1-3v-13l-2-13-4-7-6-5-3 1-2 4h-7l-3-1-1-9zm255 1-12 4-5 4 1 9v17l-1 8 5 6 2 4h2l6-15 6-11 2-4 3-1 10-15 1-4-3-2zm-407 2-7 5v7l1 1h7l1-1v-11zm72 1-9 7v9l3 2h6l2-3v-13zm70 0-7 5v6l3 2h5v-13zm-36 2-6 5v6l4 2 4-1v-12zm-71 2-8 5 1 5 5 1 4-2v-8zm-119 29-2 2v4l4-2v-4zm64 0-6 4-9 8-9 3v11l7 5 16 4 27 4 24 2 27 1h26l39-2 25-3 25-5 8-5 1-1v-11l-10-4-10-9-4-2h-8l-6 5-8 14-7 5h-11l-6-4-7-8-7-7h-6l-7 8-6 9-6 3h-7l-5-3h-2l-2-4-7-10-4-3-7 1-9 10-4 5-6 3h-9l-7-4-12-18-3-2zm238 1v4l4 2v-4zm-310 2-1 5 2 3-1 6-8 10-6 7-2 1 2 7h4l8-8 7-10 1-5h3l2-1-3-9-5-5zm13 0-3 4 1 3 6-4-1-3zm291 0-1 4 3 3 4-1-4-6zm14 2-3 4-3 1-1 10 9 12 11 12h3l3-6-2-4-5-3-10-13-2-7h2l1-6zm-479 1-4 5-1 5 3 7 5 4 6 1-1-5-6-16zm176 4-3 3 4 2 2-2v-3zm287 0 1 6 4-1-1-3zm179 0-4 10-4 11 5 1 6-4 3-4 1-7-4-7zm7 15-4 6-6 2h-7l-9 11-12 10-8 5v1l7 1 2 6 11-2 14-6v-3l1-7h6l3 1 2-2 1-23zm-652 1 2 21 7-1 2 3v6l8 5 15 4 3-1 1-5 5-2-3-3-11-7-10-10-4-6-9-1-4-3zm212 4v15l5 6 11 5 25 6 21 3 29 2h44l27-2 26-4 21-5 12-6 4-5v-14l-2-1-11 4-25 5-26 3-16 1h-62l-29-2-29-4-19-5zm-71 2-6 5-5 6-14 9-5 5-2 6-5 5-8 3-9-1-8-6-3-2-17-2-7-2h-8l-5 2 3 17 1 6 1 1h11l4-2 2-9v-5l2 2-8 49 1 2 7 1h38l10-1 1-2 6-1v-16l3-12 4-7 3-1h7l5 1-1-5-9-21-2-4 3 3 4 8 5-1 12-8 1-4-8-17zm364 1-8 16-2 6 14 10 4 1 6-10-1 4-8 17-8 15v4l11 1 3-3v-2l4-2 7-7v-2l15-5 8 2 5 9 2 7v20l9 1 1 17h26l1-1-1-15-6-43h2l2 13 1 1h16l2-4 2-15v-5l-1-1h-16l-14 3-11 1-5 5-7 3-10-1-7-5-4-7-1-4-9-6h-2l-1-3-10-8-6-7zm-303 11-12 5-9 5-6 7-3 8v22l1 3 4-1 7-7 8-5 8-1 6 5 4 6h9l5 6 8 16 6 4h8l6-4 8-12 4-4 7-1 8 7 8 8 6 3h6l8-6 9-13 4-3h8l7 6 8 11 5 4 2 1h6l8-5 7-8 7-5 7 1 6 7 7 10 5 3h9l6-5 9-18 5-3h6l6 5 7 8 3 1 1-1 2-16 4-8 5-4h10l1-5-3-10-6-7-15-8-7-2h-7l-4 6-7 5-25 7-25 4-13 1-31 1h-17l-38-1-28-4-17-4-15-5-6-5-3-5zm-195 4-2 7h-2l-1 9 2 2 6 1 13 5 16 3 1-2-2-6-6-2-12-3-10-5-1-2v-7zm-10 1v3l5 2v-4zm646 1-1 1-1 9-8 4-9 3-9 2-2 4 1 5 16-4 16-6 3-1 1-8-1-3h-3l-1-5zm8 1-2 2v3l5-1 2-3zm-657 2v4l6 1v-3zm112 3-12 4-12 2v3l4 3 3 1h9l7-3 5-8-1-2zm549 0-3 2v2h6l2-3zm-116 2 1 6 5 6 5 2h10l7-5-2-2-17-4zm-544 2v3l4 1v-3zm657 3v3l5 1 1-4zm-187 15-4 5-4 10-1 6v9l2 7 3 2 3-2 13-3 16-1 1-4-8-4-4-1 12 1-5-5-6-3 2-1 9 6 3-1-2-5-8-9-9-6-3-1zm74 0-7 3-9 7-8 10 1 2 4-1 9-5-3 3-8 5 2 2 13-3v2l-9 1-6 4 1 3 17 1 14 4h3l3-6v-14l-3-10-4-6-3-2zm-346 4-10 7-7 8-2 3v3l4-1 8-4-3 3-6 4v2l12-3v2l-9 2-4 3 1 3 19 1 10 4 3-1 2-6v-9l-3-12-6-9zm-64 1-6 5-3 11v17l3 6 9-4 7-2 14-2v-3l-7-3h-6v-3l10 3h4l-1-3-5-3-4-1-1-2 11 5 3-1-2-4-7-8-9-6-5-2zm83 9-1 4 1 5v16l2 2v7l2 2 30 5 37 3 28 1h31l40-2 36-4 20-4 5-2 1-11h10l2-3-5-5-5-4-6-8-3-2h-5l-6 7-8 15-8 5-8-1-6-4-11-15-2-1h-6l-8 7-8 8-3 1h-9l-7-4-7-9-6-7-2-1h-6l-5 5-9 11-4 4-3 1h-9l-9-6-8-9-2-1h-7l-6 7-6 9-5 4-9 1-6-4-5-5-5-11-4-6zm290 6-5 3-1 4v7l1 2h17l2-5-2-9-5-2zm-342 4-3 3-1 8 2 5h13l3-2v-8l-3-5-1-1zm315 11-11 4-1 3 9 1 14-3 8-3v-2zm43 0 3 3 16 5h9l3-1v-3l-11-4zm-341 3 1 3 13 4h13v-4l-11-3zm269 0-2 2v20l1 1h18l7-14v-2l-9-2-5-5zm52 0-6 8v14l1 1h23v-17l-4-6zm17 0 2 5 7 14 2 5 4-2 2-3h9l-2-6-5-7-14-5zm41 0-5 5-13 2 6 12 1 4h18l1-1v-21l-1-1zm-413 1-12 3-5 3 1 2h11l15-5 1-3zm29 2-1 3 5 10 4 13h3l3-5 10 2-1-5-5-10-3-3-12-5zm319-1-17 5-5 6-2 5 5 1h5l3 5h2l10-19zm-330 2-4 6-4 11 1 4h18l2-6-1-7-5-8zm50 0-3 3-3 1-13 1v3l7 13h13l1-1v-19zm-96 1-2 2v17l1 1h16l5-10v-4l-11-2-4-4zm41-1-11 4-5 2-5 8-1 6 9-1 4 7 2-3 6-15 3-7zm-49 3-16 1h-28l-1 22 1 1 7 1h25l2-1 1-12 7 1 4 9 1 3h6l1-4-5-2v-18zm330 6-30 5-9 1-42 2h-62l-43-2-23-3-13-2-1 12-4 2v13l7 3 12 2 30 4 30 2h74l38-3 26-4 12-2 9-4v-12l-5-2v-12zm51 2-3 7 4 1 1-1v-7zm31 1v6l4 1-2-7zm48 2-1 7-6 2 1 4 1 1h15l12-1 1-2-2-9-2-2zm-465 2-3 5-1 8-1 1h-9l-2 6v6l1 1h29l1-1v-11l-1-1h-7l-4-13zm368 0-4 1v2h11l-2-3zm63 0-1 3h10v-2zm-81 6-1 1-1 26v26h40l1-1v-51l-1-1h-6l-3 3-2-3zm41 0-1 1v51l1 1h23v-52l-1-1zm26 0-1 1v51l1 1h39l1-1v-51l-1-1h-28l-2 4-4-4zm-398 1-1 1v51h31v-47l-2 1v2l-2-1-4-7zm34 0-1 1v51h19v-51l-1-1zm21 0-1 52h32v-51l-1-1h-5l-1 4-8-4h-5l-6 7-2 1-1-7zm-102 6-1 1v16l1 5 8 2 1-1 1-9v-12l-1-1zm488 0-2 2v21l3 1 8-3v-19l-2-2zm-120 10-23 5-33 4-38 2h-45l-38-2-33-4-19-4h-3v8l2 2 21 2 35 3 18 1h80l31-2 43-4 8-3v-8zm-231 12-1 1v6l4 2 22 3 67 3h48l40-2 23-1 29-4 5-2v-6h-11l-34 4-28 2-31 1h-41l-42-2-33-3zm-138 2-6 3-2 3 1 5 15-1 2-2v-5l-6-3zm493 1-5 3-1 4 6 3 4 1h8l1-5-5-5zm-121 6-18 2-29 3-34 2h-78l-45-3-18-2h-13v13l2 1h233l3-1v-14z"/><path transform="translate(347,405)" d="m0 0 5 1 4 6 4 9 16 5 1 5-5 5-6 5v18l-3 2-7-1-10-5-10 3-7 2-3-2v-8l1-4v-8l-8-10v-5l3-2 14-2 4-5h2l2-5zm0 2-9 14-16 2-1 4 9 12-1 8-1 9 5 1 10-4 7 1 10 6 3-1v-17l12-12-2-4-14-3-8-15z"/><path transform="translate(713,420)" d="m0 0 5 1 5 10 8 4 2 4-8 6-1 11-3 3-4-1-5-4-14 1-1-1v-6l1-2v-6l-4-4-1-5 2-2 11-1zm0 3-5 7-11 1v4l4 7-1 11 11-2 7 5 3-1 1-9 4-4v-2l4-1-1-3-9-4-4-9z"/><path transform="translate(638,430)" d="m0 0h5l1 5-2 2-5-1-1-4z"/><path transform="translate(807,431)" d="m0 0h7l2 6 1 8v9l-7 2-7 1h-9l-2-5-1-8v-10l1-1zm-4 3-10 2v11l1 7 5 1 15-2 1-4-2-15z"/><path transform="translate(872,438)" d="m0 0 5 1 3 3v6l-6 7-8 7-6 8h-6l-3-3v-8l5-9 8-8zm-1 3-10 7-6 8-2 5v5l2 2 4-1 4-5 5-6 8-6 2-6-2-3z"/><path transform="translate(665,449)" d="m0 0 4 1 5 9 11 2 2 2-1 4-6 7v12l-4 1-10-3-8 3-5-1v-12l-7-8 1-4 5-2h5l7-10zm0 3-5 9-9 2-2 3 6 6v11l1 1 7-1 1-1 14 2v-12l6-6-1-3-11-3-5-8z"/><path transform="translate(850,472)" d="m0 0 4 3-1 4-4 1-2-2 1-5z"/><path transform="translate(99,474)" d="m0 0h6l3 3v7l-6 12-3 10-2 3h-7l-3-6v-7l3-10 5-9zm1 2-6 7-4 10v12l2 2 5-1 4-13 5-11-1-4-1-2z"/><path transform="translate(629,494)" d="m0 0h5l7 19-1 4-19 6-4-1-7-21 5-3zm0 2-15 5-1 3 6 16 11-2 7-3 1-3-5-15z"/><path transform="translate(736,499)" d="m0 0 9 1 5 4 2 9-3 8-8 4-7-1-6-5-2-4 1-9 7-6zm-1 3-6 5v9l6 6h7l5-3 2-4v-7l-4-5-2-1z"/><path transform="translate(395,500)" d="m0 0 6 1 16 8-1 5-6 14-2 2-8-1-13-7-1-5zm2 2-5 8-3 7v4l15 7 4-2 6-13-1-4z"/><path transform="translate(294,609)" d="m0 0h9l3 3v3l-3-1-3-3-4 1-2 7-3-1 1-7z"/><path transform="translate(725,610)" d="m0 0 5 1 4 5v5l-3 1-2-7-5-1-3 4h-2l1-5z"/><path transform="translate(308,621)" d="m0 0h11l4 4v9l-5 5h-8l-5-5-1-7 3-5zm4 1-5 4v7l2 3 7 1 5-4 1-4-3-5-3-2z"/><path transform="translate(268,622)" d="m0 0 6 1 2 2-1 4-3-3h-5l-3 6h-1v-6z"/><path transform="translate(708,622)" d="m0 0h6l5 3 2 4v6l-5 6-2 1h-6l-5-3-2-5 1-7 4-4zm-1 3-3 4v7l4 3h6l4-4v-6l-4-4z"/><path transform="translate(753,625)" d="m0 0 7 1 3 5v3h-3l-1-5-4-1-3 3-3-1z"/><path transform="translate(234,627)" d="m0 0h6l4 4v3h-2l-2-3h-6l-2 7h-2v-7z"/><path transform="translate(786,631)" d="m0 0h6l3 3 1 6h-3l-1-5-4-2-6 4 1-4z"/><path transform="translate(132,635)" d="m0 0 7 1 5 3 3 5v8l-1 3-6 5-9 1-6-3-3-5v-9l4-6zm-2 3-5 5-1 2v6l4 6 2 1h8l5-3 2-5-1-6-6-6z"/><path transform="translate(297,638)" d="m0 0 5 1 1 2v13l-6 12-5 3h-2v2l-11 4h-13l-12-6-6-8-2-6 8-4 22-7 11-3zm-1 3-18 5-28 9-1 3 6 8 4 3h4l5-6 10-5 3-1h11l6 2 2-4 1-3v-10zm-12 17-9 3-8 6-3 4 5 2h7l10-3 8-5 2-4-7-3z"/><path transform="translate(723,640)" d="m0 0 9 2 14 4 26 9 6 2 1 3-4 8-8 7-7 3h-14l-9-3-9-7-4-6-2-5-1-10zm2 3-1 2v12l2 4 8-1h9l10 4 8 7 4 2 8-7 3-5-1-3-33-11-15-4zm7 19-3 2 2 4 10 6 8 2h8l3-3-5-6-10-5z"/><path transform="translate(230,644)" d="m0 0 7 1 4 4 1 8-4 6-2 1h-8l-5-4-1-2v-7l5-6zm-1 3-4 4-1 4 3 5 3 2 6-1 3-3v-7l-4-4z"/><path transform="translate(791,648)" d="m0 0 7 1 5 5 1 5-3 6-2 2h-11l-4-5v-8l5-5zm0 3-5 5 1 6 5 4 5-1 4-5-1-6-4-3z"/><path transform="translate(875,649)" d="m0 0h9l8 7 1 7-2 5-6 6h-10l-6-5-2-3v-8l1-3h2l2-4zm2 2-5 3-3 7 2 7 3 3 9 1 5-3 2-4v-7l-3-5-5-2z"/><path transform="translate(860,733)" d="m0 0h8l6 4 3 7-1 6-4 6-7 3-9-3-4-5-1-9 3-5zm2 2-5 2-3 4v8l5 6 8 1 5-3 3-5-1-7-5-5z"/><path transform="translate(158,758)" d="m0 0h8l5 3 4 6-1 9-5 6-9 1-7-3-3-4v-11l5-6zm0 2-5 5-1 2v7l5 6 2 1h7l6-5 1-2v-8l-6-6z"/></svg>
