<?xml version="1.0" encoding="UTF-8"?>
<svg version="1.1" viewBox="0 0 1024 1024" xmlns="http://www.w3.org/2000/svg"><path transform="translate(585,215)" d="m0 0 4 1 10 9 4 3 8 2h21l24-4h26l13 3 10 3 9 5 10 8 11 12 3 7 2 1-1-13-1-5h4l4 11v8l3-1h10l5 3-1 2-15 1v2l6 2 8 6 8 9 5 11 3 15v17l-4 23-6 21-2 4v4l8 5 6 8 2 8v7l-4 11-7 8-8 5-6 1h-14l-9 17-4 6-5 5-4 5-8 7-8 6-16 8v5l10 5 7 8 5 9 12 7 9 8 5 9 3 9 1 23 7 44 2 16 7 39v7l-5 3-4 2 1 72 1 29v19h-4l-2-36-1-52-13-5-5-4-3-5-4-4-3-6-12 1-14 2-23 1-24-2-26-5-4 1-2 36 1 61 2 17-5-1-3-25v-62l1-16v-13l-7-3-1-1v-9l-5 2-7 1-3-3-1-2h-9l-2-2-1-4-6-3-2-3 1-5 2-4-4-2-1-4 5-5 13-7 1-2-4-2-2-7-21-1 1 19 9 52 1 11-4 2-29 4-20 2-39 1h-25l-2-5-4-37-1-5-10-3-12-7h-6l1 12 1 7v8l-4 3 1 16 1 12v15l-5 3-3 2-3 37 15 8 4 5 1 2v6l-4 4-8 2h-20l-12-2-6-3-2-4v-35l-2-16-1-2-5-2-3-3-3 6-8 3-3 12-4 19v6l13 7 4 5 1 4v6l-6 4-4 1h-14l-17-3-7-3-3-3-1-9 2-8v-41l-10-3-1-1v-49l-6-3-1-2 10-51 2-12 6-21 6-12 7-7 9-4 8-2v-2l-21-6-13-8-16-3-12-6-13-9-9-5-6-9-2-7v-9l-8-15-5-14-2-10v-21l2-10 6-12 7-8 5-3 4 2-7 6-6 9-4 9-2 10v12l3 15 6 17 3 6v2h3l2-4 4-3 4-1h9l7 3 7 8 3 3 2 1-2-10-4-13-3-16-2-5 1-5 3 3 5 9 1 1h5l2-4 1-13-3-17-2-6v-5l5 1 8 5 10 3 14 3 10-1 3-1-2-7-14-13 1-3 9 4 14 6 23 7 14 1 7-3 1-7-4-10-5-8 4-1 14 10 14 9 8 4 9 3-1 3h-5l4 19v4h2l3-10 3-13v-15l-4-15-6-11-8-10-10-8-16-8-16-5-10-2-18-1-17 2-14 3-17 6-16 8-9 7-7 8-5 6-5 10-2-2 4-10 6-10 8-8 10-7 15-8 17-6 20-3h31l20 4 13 5 14 9 11 10 9 13 5 12 3 12v14l-4 15-5 13v3l6 4 6 8 1 4v7l-4 10-9 8-2 15-4 10-5 9-9 10-8 7-11 7-19 6h-3v2l16-4 16-5 6 1 14-8 24-16 2-16 3-6h6l4 4 4-5 6-3 4 2 1 4 7-1 3 4-1 6 4 2 1 4-3 4 3 2v5l-7 6-19 9-4 5-5 5v2l16-1 54-2h16l2 3 1 9 3 4v2l13-3 12-6 5-4-1-8 5-6h2l2-4 27-27 8-6 4-9 5-6 7-4v-2l-10-2-20-5-15-8-11-8-10-10-9-14-3-9-3-17-9-6-6-7-4-9v-11l5-10 7-6 3-2-5-17-4-19-1-8v-17l1-11-6-7-6-13-2-10v-9l3-13 7-13 4-3 4 1 6 11 3 1 3-14 6-11 7-7zm0 4-9 6-7 10-4 10-1 6v8l-10-6-6-9h-2l-6 12-1 5v20l2 8 5 9 9 10 4 4-7-1-1 7v13l1 14 4 16 2 7h2l1-17 4-21 5-12 1-6-4-4 11 3h9l-5-5-8-9-3-7 4 4 4 5 5 3 4 4 8 5 14 5 6 1h16v-2l-12-8-7-9h2l11 9 12 6 13 4 8 1h10l15-2 26-6 7-2h5l-1 11-2 12v18l2 9 5 9 7 10 1 5-4 22 2 2 4-1 7-13 8-5 9-3 9-27 2-11 2-24-2-18-7-14-6-7-10-7-8-3-3-3-6-11-11-12-11-7-12-6-11-3h-36l-22 4h-16l-10-3-6-3-5-5-4-5zm130 93-20 6-15 3h-30l-9-1-3 1h-23l-15-4-2-1-21-2-4 6-6 17-3 19v27l1 50 4 16 8 15 10 11 11 8 19 9 10 3h37l14-4 15-6 13-8 13-11 8-10 4-6v-2h2l5-11 1-4 7 1h10l9-4 7-6 4-8 1-3v-8l-5-10-5-4-3-1h-9l-5 2-7 8-6 10-7-1-4-3 1-10 2-9v-9l-8-11-4-8-2-7v-24l2-11-1-5zm-160 72-6 5-3 7v10l4 9 5 6 4 2 1-1 1-8v-27l-2-3zm-157 33-1 2 1 10-4 6-9 2-18-1-16-5-5-2h-3l1 10-4 4-12 2-16-3-11-5h-4l2 12v21l-3 6-3 2-7 1 3 17 4 10-2 5-4 2-4-1-7-10-7-4h-9l-6 4-3 4-1 4v8l5 9 8 6 4 1h10l8-3 4 7 10 8 5 5 12 7 17 6 17 2h14l17-2 13-5 14-8 8-7 8-11 6-16 1-16-3-19-2-39-3-11-17-9-7-6zm35 52-1 1v14l3 14h4l5-10v-9l-4-8-3-2zm244 26-30 12-1 2v12l4 12 4-2 4-5 19-12 8-7-1-12zm16 10-5 5-11 8-12 8-2 4 8 9 1 2h2l2 4 5-2 9-7 14-14 1-4-5-9-5-4zm-53 4-7 6-4 13v8l4-2 5-4 5-2 1-3-2-16zm-166 9-7 9 1 6 2 9h-3l-1-7-6-14h-2l-2 9-1 10-12 10-20 12-8 5 2 5 6 12 3 7 4-2 4-3v-12h12l6-2 7-7 7-8 14-6 10-7v-2l-9 1 5-5 5-6-3-1-10 6 2-5 7-8-1-2-4 2-7 5-3 1 5-10v-2zm233 6-9 10-16 13-5 3-4-1-8-12-4-5-4 1-6 7-4-2-3-5-5 1-10 9-4 1-1-13-5 3-27 27-6 7 7 8 6 7 5 8h2l6-29 2-6 2-1-2 8-5 32-2 28 6-2 18-11 16-11 10-8 8-7 1-4 1-7 18-20 6-5-1 3-10 13-9 11v2l10 7 13 12 8 9 5 7 6-5 7-9 7-10 4-7 2-1-8 16-7 11-11 12-6-1-7-1-5 4-16 11-21 11-30 12-9 3-9 10-1 3v11l7 3 22 5 19 2h35l21-2 30-7 14-4 1-3-4-23-3-21-8-50-1-28-4-11-8-10-9-7-4-2zm-427 12-6 2 1 3 17 8h2l-2-4-8-9zm126 30-16 6-6 2-9 1-3 8-3 3-4 1h-10l-8-3-6-5-3-4-9 2-8 5v2l-4 2-4 5-3 10-6 24-5 25-1 10-3 13v6l8 3 23 6 13 2h35l16-3 12-3 6-4-1-14-2-10-23-4-16-5-18-7-4 2-5 1-10-8-9-8-6-8 4 2 13 12 8 6 4-2 9-16 7-9 3-5-1-4-14-9-9-7 10 4 15 9 4 3 2 7 10 4 10 5 9 2-1-9-5-18 3 3 4 12 5 1 6-2 13-7-1-9-5-12-5-10-4-4zm-62 3-1 1 1 7 9 6 3 1h9l5-5v-6l-6-2zm175 5-51 1-28 2-3 3 1 18 3 30 3 2 9 2 5 2-2 5-1 4 3 2-1 5-4 4-1 4-7 3v16l3 28 1 5h33l34-2 34-4 8-2-1-11-4-23-1-10-9-56-3-1-2-4-6 1h-8l-2-3 1-7 6-6v-2l7-2h7l1-4zm66 3-7 6-11 5-12 3h-4l-6-7-6-3-6 1-7 8v5l4 1 7-5 3-1 1 5 6 6 2 16 7 2h17l14-3 16-8 2-4-1-6-7-10-8-10zm85 6-5 6-11 9-13 10-18 11-14 8-5 3-7-1-14-4h-5v4l5 4 3 3-19 9-3 4 1 1 12-1 4-1-1 3-13 7-1 4h7l12-5-2 4-8 7v2l6-1 8-4 2 1-4 5 1 4 6-3 11-9 5-7 17-7 20-8 12-6 16-9 12-8 8-7 3-2-2-5-10-11-10-8-3-2zm-238 9-5 4-1 9-6 2-16 7-2 4 1 5 13 5h5l9-6 6-3 1-5-2-21zm-69 20-6 8-6 11-2 4 8 5 10 4 19 5 18 3 13 1 16 8 6 1-2-4-2-3 4 1h10l-1-3-10-3 2-2 12 1 3-3-3-2-11-2v-2l12-2v-3l-6-2-11-1 1-5v-3l-3-1-11 7-4 2-20-6-21-8-12-6zm237 2-10 5-5 2 4 2 9 3 4-1 1-11zm-298 72-2 5v11l5 1 7-3 7-8-1-2zm436 1-7 2-11 2-1 2 8 11 7 6 6 3h3v-25zm-337 1-19 4-9 1h-33l-15-2-10 11-7 3-7 1-1 1-1 21 3 4 18 4h30l4-9 4-14 13-4-4 3-6 3v10l2 6 2 1h22l17-3 2-2v-13l-2-25zm-8 47-21 1-2 4 2 16 3 2h18l3-2 2-17-1-4zm-80 3-2 2 1 19 5 3 6 1h10l3-1 3-13 1-8-1-1-18-1zm61 23-1 1v7l4 4 10 1 7-2 1-1v-10zm-61 4-1 1v9l6 3 7 1 9-3 1-9-16-1zm82 10-8 3-15-1v13l5 3 10 1h22l6-2-1-7-3-3-7-1-5 4v-5h2l-1-3zm-85 6v13l6 3 17 3h15l5-3-1-5-7-6-4 1-5 4v-4l3-4-3-2-14 1z"/><path transform="translate(588,346)" d="m0 0h13l4 3v5l-4 3h-13l-9 2-9 4-1-3 6-8 10-5z"/><path transform="translate(663,346)" d="m0 0h12l12 4 6 5 4 7v2l-4-1-8-4-13-2-11-1-2-3 1-5z"/><path transform="translate(587,375)" d="m0 0 9 1 6 4 4 7 1 7-2 3-4-2-5-12-4-2-6 1-4 4-4 10h-4v-9l3-6 5-4z"/><path transform="translate(672,375)" d="m0 0 9 2 5 4 4 8v7l-2 2-4-1-4-12-6-4-6 2-4 5-4 9-4-1-1-5 4-9 6-5z"/><path transform="translate(625,382)" d="m0 0h2v12l-4 8-8 6 2 6 8 4-1 3-9-2-5-6-1-6 3-4 7-2 2-5 3-10z"/><path transform="translate(255,386)" d="m0 0 3 1-1 7v8l1 10-4 1h-11l-7 1 1-4 6-3h10l-1-4v-8l2-8z"/><path transform="translate(758,400)" d="m0 0 7 1 1 2-8 2-3 3 5 6v2l-4-2-6-1-4 8h-2v-7l5-8 6-5z"/><path transform="translate(677,422)" d="m0 0h7l7 3 3 5 1 8-3 12-4 8-13 13-14 7-11 3h-17l-12-3-14-8-9-9-5-8-3-8v-7l3-5 5-3h40l26-5zm-2 4-27 7-14 2h-29l-1 2 5 6 6 2 8 1h9l17-2 19-5 9-4 9-6-1-3zm13 5-9 6-13 6-21 5h-30l-8-3-5-5-2-5-5 1-1 7 5 13 12 12 7 4 6 2 5-1 7-10 11-7 12-5 3-1h24l3-4 2-8-2-7zm-20 22-13 3-11 6-8 7-3 4v3h17l14-4 10-6 8-8v-4l-5-1z"/><path transform="translate(400,441)" d="m0 0 9 1 7 4 3 3v2l-6-1-17-1-3-4 3-3z"/><path transform="translate(329,450)" d="m0 0h9l2 2-1 5-10 2-9 4-4 3-1-4 1-2h2l2-4 5-4z"/><path transform="translate(403,463)" d="m0 0h8l7 6 2 3v6h-4l-5-8-2-1h-6l-3 5-2 7-4-1-1-1 1-8 6-7z"/><path transform="translate(331,472)" d="m0 0h10l5 4 4 7-2 4-3-1-4-6-2-2h-6l-4 5-1 7-4 2-2-3 1-9 6-7z"/><path transform="translate(375,473)" d="m0 0h2l4 11 8 5 1 5-3 5-4 3h-5v-2l6-4v-5l-7-5-2-5z"/><path transform="translate(260,507)" d="m0 0h8l6 4 4 4 1 7h-2l-4-5-5 1-1 2h-2v-5l2-4-8-1z"/><path transform="translate(399,508)" d="m0 0 6 1 4 4 1 2v7l-3 8-7 11-7 6-8 5-12 3h-17l-13-4-11-8-6-8-4-10v-7l4-6 5-2h14l20 2h10l14-2zm-5 5-18 3h-16l-16-2h-12l-2 1 1 3 14 5 13 2h18l15-3 5-3 1-5zm8 0-6 9-9 4-18 2-21-2-14-4-5-3-3 1 1 8 4 6 10-2h13l12 4 11 7 4 5 6-2 9-6 6-8 3-7 1-9-2-3zm-58 22-9 2v3l11 8 9 3 13 1 7-1v-4l-5-5-13-6z"/><path transform="translate(451,589)" d="m0 0 5 2 4 3-1 3-5-2-4-3z"/><path transform="translate(476,592)" d="m0 0 8 1 8 7 2 5-1 8-5 7-9 3-8-1-5-3-4-5-1-2v-9l7-8 3-2zm-3 4-6 3-3 6 1 7 6 7 3 1h7l6-4 3-5v-8l-3-5-4-2z"/><path transform="translate(483,607)" d="m0 0h2l-1 6-2 2h-7l-3-2 1-3 7 1z"/><path transform="translate(507,632)" d="m0 0h13l5 5 2 5-1 8-5 5-1 3 7-4 3-2 2-7h3v2l5-1v3l-1 2h3l-1 3-9 1-8 6 1 6 4 6-2 4-4 1 4 9h6l3 2 2-2h5l2 2 4 1-1 3h-5l-3-2-2 2-5 1h-7l-4-6-3-10h-7l-2 11-3 6-1 1h-11l-6-4-5 5-5-1-4-4-5 6-5-1-3-4h-2l-3 5h-2l1-6 2-4h5l4 5h2l3-5 5 1 4 4 4-2 3-3 4 1 3 3 4-2 7-2 2-9-5-1 1-7 2-6v-4l-5-2-4-2-9-1-1-2 3-3h-2v-3l5 1v-2l3 1v5l5 2 5 3h2l1-3-5-2-4-6 1-9 5-5zm3 2-5 4-2 4 1 5 4 5 2 1h7l5-3 1-2v-7l-5-6-2-1zm3 22-6 15v4h9l7-1 1-2-7-14zm16 34m-27 1v2l2-1z"/><path transform="translate(508,646)" d="m0 0 7 1 4-1-1 4-2 1h-6l-3-2z"/><path transform="translate(653,717)" d="m0 0 12 5 8 5 5 18 3 17 10 43-5 1-3-9-5-23-3-14v-4h-2l-1 15-4 34-5 1 4-38 1-12 2-13-1-9-1-4-15-10z"/></svg>
