<?xml version="1.0" encoding="UTF-8"?>
<svg version="1.1" viewBox="0 0 1024 1024" xmlns="http://www.w3.org/2000/svg"><path transform="translate(580,239)" d="m0 0 7 1 12 10 6 2h21l17-3h32l19 5 8 5v2l4 2 8 7 5 6 5 5v-12h3l3 7 1 8 12 1 3 2v2l-12 1 4 4 8 6 7 8 5 10 2 16v10l-2 19-7 24-2 7 9 7 4 7 1 4v11l-4 9-5 6-5 2v2l-6 2-16 1-7 15h-2l-2 5-11 12-9 7-10 6-6 3-1 5 9 5 8 10 4 6 10 6 8 7 6 12 1 6 1 20 7 41 5 34 2 10v13l-7 4v18l1 51v40l-4 1-2-30-1-51-10-3-6-4-6-8-4-6-13 1-20 2h-16l-20-2-25-4v12l-1 25 1 53 1 14-4 1-2-5-2-17v-85l-6-4v-7l-11 2-4-4-8-1-3-4v-2l-5-2-2-3 2-9-3-1v-6l15-10-3-4-1-4-8-1h-10v16l9 51v7l-7 3-38 5-18 1h-45l-3-9-2-16-1-16-1-2-11-4-8-5h-5l1 13v11l-3 3 1 17v22l-7 6-1 18-1 15 14 8 3 4v9l-5 3-4 1h-23l-9-2-6-4-1-1-1-36-2-14-8-4-2 5-6 3-3 10-3 14v10l10 5 5 7v8l-5 4-3 1h-16l-14-3-6-3-3-3-1-4v-7l1-1v-41l-9-4-1-45-5-3 1-13 10-49 4-16 7-13 8-7 13-5-19-6-9-6-17-4-12-6-21-14-5-9-1-3-1-11-8-16-4-11-1-6v-23l4-13 9-12 5-2v-2l-11 1-1-2 4-4 2-1h9v-17l4-2 1 1v23l-5 1 1 3-7 7-5 9-4 13v15l4 18 7 16 7-6 2-1h12l6 4 5 6 2 1v2h2l-3-13-3-9-3-15v-5h3l6 9 5-1 1-8v-9l-4-21 4-1 11 5 15 4h16l-2-7-10-9-2-4 3-1 19 8 15 5 16 2 6-1 3-3-1-8-3-8-2-4 4-1 24 16 16 8-1 2-3 1 1 9 2 10 2-3 4-15v-17l-4-13-6-11-6-8-10-7-8-4-12-5-15-4-9-1h-15l-17 3-14 4-13 5-11 6-12 11-8 11-2 4-3-1 5-12 5-8 10-9 8-5 17-8 13-4 11-1h38l12 2 13 5 14 9 10 9 10 15 5 17v17l-5 18-2 5 1 4 5 5 4 5 1 2v11l-5 8-6 6-3 16-7 15-4 5-5 4-6 7-11 7-12 4 12-3 6-2h8l17-10 15-10 2-1 2-16 3-4h7l4 1 6-5 5 1 2 3 7 2 1 5 4 6-1 6 1 6-4 5-20 10-6 6-1 4 3-1 41-2h34l2 2 3 12 1 1 9-1 12-5 5-4v-8l7-6 4-6 22-22 8-6 4-9 6-6 3-1v-2l-25-6-14-7-12-9-9-9-8-13-3-11-2-11-5-4-7-6-6-11v-11l5-9 8-7-2-12-5-20-1-8v-27l-5-6-5-12-2-8v-11l3-11 6-11 3-3 5 1 6 9h2l4-14 4-8 6-6zm1 3-9 8-6 9-3 9-1 9-6-2-8-10-3 1-5 11v24l2 7 6 9 8 9-4 2-1 3v17l1 14 5 17h2l3-22 2-12 5-14-1-5 14 1v-3l-8-8-1-4 5 5 12 9 15 6 5 1h14v-3l-7-6-5-4-2-4 9 7 14 7 16 4h13l20-4 20-5h5v9l-1 6v26l4 9 6 10 2 4v8l-2 10v6l4 1 4-4 4-8 10-6 6-3 4-12 5-17 2-17v-17l-2-11-6-12-6-7-9-6-9-4-7-12-10-11-22-12-4-1h-45l-11 2h-18l-11-3-10-9zm119 86-15 5-13 2h-64l-18-4-16-1-5 10-4 11-2 17v72l5 16 3 6h2l2 6 10 11 14 9 16 7 4 1h37l12-3 12-5 14-8 15-14 7-10 3-5 4-7 2-4h15l10-5 6-7 3-6v-9l-4-8-6-5h-12l-6 4-6 8-3 5-7-1-2-1 1-15v-13l-7-10-5-12v-22l1-5v-9zm-146 66-7 8-1 4v8l6 12 4 3 4-2v-31l-2-2zm-145 31v12l-5 4-5 1-19-1-16-5-5 1v9l-3 2-13 1-13-2-7-4h-5l-1 2 1 5v24l-4 6-7 2 4 20 1 7-1 2-5 1-5-5-5-6-4-2h-10l-7 6-1 3v10l4 8 7 5 3 1h11l7-2 6 8 9 7 5 5 13 6 11 4 14 2h15l15-2 12-5 12-6 10-9 7-11 4-11 1-9v-11l-2-12-1-28-2-15-2-5-18-10-3-3zm33 47-1 1v12l3 13h4l4-7v-10l-5-8zm224 24-19 8-9 4v13l3 9 5-1 8-7 10-6 10-9v-9l-2-2zm15 10-11 9-11 7-4 3v5l10 11 7-1 10-9 10-10v-6l-3-6-4-3zm-50 4-6 7-3 10v5h4l10-6-1-15zm-152 8-5 6-1 3 3 12-3-3-2-8-4-8-3 2-3 16-12 10-22 13-1 4 8 16 3 3 6-4 1-10 11-1 6-3 8-8 4-5 8-3 10-6 3-2v-2l-6-1 6-6-1-4-6 3h-2l6-8v-2l-5 1-7 5 4-9zm215 5-9 10-16 12-3 1-3-1-7-10-4-5-4 1-5 5-4-1-3-4-4 1-10 8-3 1-1-11-4 1-30 30 1 5 9 11h2l2 5 3 2 2-6 6-25-1 9-4 25-2 25 4 1 15-8v-2l5-2 12-8 16-13 2-2 2-11 6-5 7-8 6-6v-2h2l-9 12-8 10-1 4 11 8 13 12 8 10h4l9-10 7-10 2-4-3 9-7 11-9 10-1 1h-14l-15 11-22 12-13 5-23 9-8 8-2 4v9l4 3 23 6 15 2h36l19-2 37-9 4-3-1-11-7-41-3-22-2-12-1-22-2-10-3-7h-2l-2-5-5-5-8-6zm-394 11-3 1 1 4 12 6h3l-2-5-5-6zm116 28-10 3-8 3-9 2-6 9-2 1h-12l-8-4-6-6-10 2-6 4-5 5-3 5-6 21-3 14-5 30-2 7v7l2 2 31 8 6 1h34l23-5 8-4-1-16-2-6-7-2-15-3-17-6-11-4-10 2-9-7-10-9-2-3 4 2 11 10 4 3 5-1 7-11 6-9 5-8-3-5-13-9-2-2 14 7 8 6 2 6 17 8 9 2 1-3-2-10-3-10h2l3 10 2 2h7l14-7-1-9-8-19-4-4zm-55 2-2 2 1 6 8 5 3 1h9l4-4v-6l-5-2zm133 5-27 1-20 2-1 2 1 21 1 17 2 7 3 2 9 2 2 1-2 8 2 2-1 5-4 7-6 3v18l3 24 2 3h33l30-2 28-3 7-2 1-5-4-24-2-21-7-41-5-6h-13l-1-4 2-6 4-5 11-2 2-3-1-1zm87 3-6 5-15 6-9 1-5-6-6-3-6 1-6 7v5h6l4-3h2l3 5 3 3 3 15 2 2h25l9-3 14-7 1-7-4-8-8-10-3-3zm79 5-9 9-8 7-13 9-14 8-13 8-3 2-11-2-7-2h-6v4l5 4 1 3-9 3-8 5-2 3 3 1 11-1-3 3-9 6v3l9-1 7-3-6 7-1 3h7l6-3-3 5 1 3 5-2 10-8 5-6 29-12 16-8 17-9 8-6 11-9-2-5-9-10-10-8zm-219 9-4 3-2 7-20 10-2 6 5 4 9 3 6-1 6-4v-2l5-2 2-2-1-17-2-5zm-63 18-7 8-5 10v4l8 5 10 3 19 5 23 3 16 7h5l-1-4 10-1v-2l-7-3v-1h11l1-4-1-1-8-1-2-3h7l3-1-1-4-8-2h-6l1-7-3-1-12 7-12-2-19-7-13-5-6-3zm217 2-11 5 1 3 9 3 4-2 1-8zm-273 66-2 4v10l4 2 8-4 4-5-1-4zm399 1-14 4-1 2 8 11 9 6 3 1 1-1v-22l-1-1zm-311 1-13 3-10 1h-33l-13-1-7 8-6 4-7 1-1 1-1 10v10l2 3 16 4h29l4-10 3-10 8-3-5 4v10l2 5h24l13-2 2-2v-19l-2-17zm-15 43-9 1-2 6 2 13 2 1h18l2-1 2-13v-5l-2-2zm-63 3-2 2 1 17 4 3 3 1h13l3-3 3-15-1-3zm56 21-1 1v7l3 3 11 1 6-3v-8l-1-1zm-57 4v8l5 4 6 1 8-3 2-3-1-5-15-2zm75 9-6 2h-13l-1 1v11l3 2 7 1h27l3-3-1-6-5-3h-5l-4 3 1-6-3-2zm-76 5-1 1v11l5 3 15 3h14l5-3-1-5-6-5-5 2-3 2 2-7-2-2z"/><path transform="translate(650,365)" d="m0 0h11l12 4 7 8v3l-8-1-8-2-17-2-2-2v-5z"/><path transform="translate(593,365)" d="m0 0 6 1 2 5-2 4-9 2-17 4-5 2-1-2 5-8 7-5z"/><path transform="translate(656,394)" d="m0 0h10l9 3 2 5-5 1-10-1-9 2-7 5-3-1 1-5 5-5z"/><path transform="translate(582,395)" d="m0 0 8 1 7 4 4 5v5h-3l-8-6-10-1-9 1v-3l4-4z"/><path transform="translate(739,409)" d="m0 0h8v3l-7 4 3 5v2l-8-1-4 5h-3l1-7 4-6z"/><path transform="translate(607,414)" d="m0 0h9l2 2-8 3v7l6 4v2h-6l-5-4-2-3v-6z"/><path transform="translate(653,436)" d="m0 0h4l-2 5-9 7-16 6h-17l-5-2v-3l22-1 11-4z"/><path transform="translate(410,446)" d="m0 0h7l8 4 4 5-3 1-15-2-4-2-1-3z"/><path transform="translate(349,452)" d="m0 0h9l1 1v6l-1 1-10 2-8 4h-4l2-5 8-8z"/><path transform="translate(413,467)" d="m0 0h6l5 4 2 4v10l-3 5-4 3-5-1-5-5-2-6 1-8z"/><path transform="translate(351,472)" d="m0 0h8l6 7 1 10-3 6-4 3-7-1-5-5-1-3v-10l3-5z"/><path transform="translate(392,488)" d="m0 0h8l3 3 1 5-3 6-3 2h-5l1-3 3-2 1-5-1-2-6-1z"/><path transform="translate(283,507)" d="m0 0h9l8 7v7l-3-1-1-2-8 1-1-2v-6l-5-2z"/><path transform="translate(404,510)" d="m0 0 9 1 2 3v11l-6 8-6 5-6 3-6 1h-11l-8-2-9-6-4-5-2-3-1-9 4-5 2-1h28zm-39 4-2 3 9 3 6 1h15l10-3 1-4-24 1zm43 1-1 4-16 4-10 1v2l10 3 8 5 5-1 7-8 1-2v-7zm-47 4-1 5 2 3 11-1 6-1v-2l-11-2zm14 9-7 1v4l6 4 7 2h9l5-2-2-4-7-4z"/><path transform="translate(478,586)" d="m0 0h10l6 4 4 6-1 10-4 5-8 3-9-1-6-5-2-3v-10l7-8zm0 3-5 3-2 5 1 8 5 5 8 1 7-3 3-5v-8l-4-5-2-1z"/><path transform="translate(488,599)" d="m0 0 2 1-2 6-1 1h-7l-2-4 1-1 7-1z"/><path transform="translate(510,622)" d="m0 0h13l5 6 1 2-1 9-3 4 5-2 3-7 7 2 2 6-6 2-7 3-2 2 1 6 2 5-3 5 1 5 1 2 9 1h6l5 3-3 3-7-1-3 1h-9l-4-7-2-6-6-1-2 11-2 4-2 1h-10l-4-2-4 1-4 2-4-2-5 1-4 2-8-4-2 4-2-1 2-7 1-1h6l4 4 3-4 6 1 4 2 4-3 5 1 4 1 7-3 2-8-4-2 2-10v-4l-9-4-7-1 2-7 5-1 2 6 10 3v-2l-4-2-3-4v-7l3-5zm2 2-6 7 1 5 3 4 2-1-1-3h9l-1 5 5-2 1-2v-6l-6-7zm0 16 1 2 5-1v-1zm4 5-6 12 1 5h8l6-1v-5l-6-10z"/><path transform="translate(645,701)" d="m0 0 6 1 13 8 4 15 5 25 6 24v7l-4 1-3-7-5-21-3-16-3 27-2 15-2 2h-3l2-28 3-26v-16l-5-2-10-7z"/></svg>
