<?xml version="1.0" encoding="UTF-8"?>
<svg version="1.1" viewBox="0 0 1024 1024" xmlns="http://www.w3.org/2000/svg"><path transform="translate(434,90)" d="m0 0 5 1 4 8 9 2 3 4-5 6-2 1 1 12-4 3-8-5-5 2-7 3-2-2 1-12-7-7 1-4 1-1 9-1 5-9zm1 6-3 7-8 1v4l4 4-1 8h3l4-2 6 1 4 1v-9l5-6-1-1-7-1-5-7z"/><path transform="translate(650,122)" d="m0 0h12l20 4 13 5 14 9 5 5 7 6 9 14 6 13 4 18v20l-4 19-8 16-7 10-7 8-12 9-14 8-12 3-10 2h-18l-20-4-12-6-12-8-10-9-7-10 1-5 3-2 6 1 9 3 14 1 11-2 13-5 9-6 3-6 7-9-1-4-4-4v-7l5-3 9-4 4-6 2-7v-13l-3-13-9-16-8-8-11-8-1-5zm1 5v2l10 8 8 8 7 10 4 13 1 4v20l-4 11-3 3-12 5 1 5 3 3h2l-2 7-2 3v3l10 3 10-1 6-3-1-5 5 5 3 5-6-2-5 3-4 1h-11l-7-3h-5l-1 3 1 4-5 1-9 6-8 4-13 2h-15l-16-3v3l8 10 11 9 16 8 12 4 13 2 16-1 14-4 16-8 10-8 9-9 9-14 5-11 3-9 1-6v-25l-5-17-8-15-12-14-11-8-15-8-13-4z"/><path transform="translate(582,124)" d="m0 0 5 2 6 13 15 2 3 3-1 5-7 7-3 2 1 10 1 8-2 2-5-1-9-5-7 1-9 5-5-1-1-1 1-11 1-6-5-6-6-4-1-4 2-3 17-3 4-9 3-5zm0 5-6 13v2l-12 1-3 1 2 4 7 6-1 17 5-2 7-4 6 1 8 5 3-1-2-10v-5l10-9v-2l-2-1-11-1-3-1-5-13z"/><path transform="translate(395,151)" d="m0 0 5 1 4 5 7 17 4 7 2 1 23 2 7 2 2 3-1 5-12 11-9 7-1 7 5 22-1 7-3 2-6-1-14-8-8-5-6 1-7 5-8 4-7 4-6-1-2-3 1-8 4-19v-5l-12-11-8-7-3-3v-6l2-2 29-3 3-1 8-17 5-10zm1 4-5 10-8 18v2l-32 3-2 4 10 9 11 9 2 2v7l-4 20v6l5-1 21-12h6l23 13h3v-9l-5-21 2-4 13-12 8-7v-3l-2-1-29-3-3-3-10-24-2-3z"/><path transform="translate(694,186)" d="m0 0 7 1 5 4 1 6-4-1-1-4-7-2-2-3z"/><path transform="translate(693,198)" d="m0 0 5 1 1 1v8l-4 5h-5l-2-2v-7z"/><path transform="translate(508,223)" d="m0 0 6 1 10 8 10 10 9 11 12 15 10 15 7 10 10 18 8 16 9 19 3 9 8 21 3 12 6 21 2 9 5 36 1 11v43l-1 12v10l8 6 15 14 5 5 4 6 5 5 11 18 5 10 4 15 1 5v30l-4 24-3 15-7 21-6 17-8 15-5 3-9-1-5-4-2-4-1-36-3-16-5-10-6-7-17-11-7-4-4 2-12 5 3 13v7l-3 6-6 3-14 2 6 11 9 16 4 12 6 20 2 10 1 11 5-1h10l8 3 8 7v2l9-5h17l10 5 4 5 4 4 3 7 2 12 10 6 9 11 3 9 1 5v10l-2 9-5 9-4 5-11 7-9 2-11 1-6 13-7 8-9 7-7 3-10 2h-12l-13-3-6-3h-3l-3 7-7 8-13 6h-14l-10-4-4 1-11 8-14 4h-19l-13-4-8-5-9-7-7-11-3-5-10 5-4 1h-20l-14-7-7-6-7-11-2-9-14-1-12-6-8-8-5-10-1-4v-14l4-10 9-10 5-3v-17l4-11 7-8 5-4 9-4 11-1 12 3 6 2 7-6 3-1h13l5-25 2-9 6-16 3-5 3-8 8-12 1-4h-11l-8-4-4-6v-8l2-8-1-5-10-4-2-2-4 1-7 4h-2v2l-9 6-9 8-6 12-3 14-1 37-4 6-6 3-9-1-5-6-10-25-5-14-7-29-3-20-1-22 2-15 3-10 7-16 12-17 13-15 9-9 13-10-1-20v-47l2-19 4-24 3-15 5-19 7-21 6-16 6-14 8-16 10-19 14-22 10-14 8-10h2l2-4 11-12 10-10zm1 5-6 4-16 16-9 11-10 13-3 4v2h-2l-14 23-5 9 1 3 23 7 11 2 15 1h34l14-1 21-5 13-5-1-5-5-8-11-18-12-16-8-9-9-11-14-14-5-3zm-68 88-4 6-12 26-2 7-5 12-4 12-8 28-4 20-2 16-2 18-1 26 1 26 4 33 1 11 6 25 5 18 3 10 3 5 20 4 15 2 32 1 1-34 3-24 6-22 5-9 3-3h10l5 6 4 8 5 18 3 29v30l1 1 32-1 26-4 10-3 4-9 5-17 4-19 5-25 2-14 1-18v-49l-1-18-5-28-9-36-8-21-3-9-12-27-5-8-5 1-17 5-24 4-11 1h-23l-19-2-26-5-10-4zm67 216-7 10-6 18-2 16-1 10v40l2 24v8l4 29 7 36 2 3h6l3-4 8-51 4-37 1-13v-32l-3-24-5-18-4-10-6-5zm-114 3-13 11-11 11-13 17-12 21-4 17-1 9v12l2 19 3 18 4 17 10 29 8 16 3 3 7-1 3-4 1-35 2-12 5-13 6-9 7-6 15-10 6-3 2-3-8-20-9-30-4-16-2-11-5-26zm230 1-2 8-2 16-6 26-10 34-6 15-1 6 10 6 14 10 6 5 5 7 5 15 2 12 1 34 6 5h5l4-5 11-27 9-32 4-21 1-26-1-16-5-14-8-16h-2l-2-5-10-13-14-15-11-9zm-203 84 3 9 5 14 8 4 21 4 18 2h13l1-1-1-16-1-8-6-2-34-3-22-3zm173 0-42 5-16 1-4 2-2 17v7l1 1h14l24-3 17-4 5-3 8-19v-4zm-149 34-3 10v9l5 5 4 1 21 1h21l-1-15-1-7-1-1-31-2-6-1zm123 0-7 1-30 2-2 2-2 21h21l22-1 6-3 2-3v-8l-2-10-1-1zm-101 30-6 7-10 18-7 19-5 17-2 10-1 13v19l11 7 1 3-10-5-10-1-9 3-5 6-3 8-5-1h-12l-9 8-3 7-1 5h-1v-10l5-8 4-3 7-2h12l6-9 6-5 10-3 1-1 1-18-4-2h-7l-8 4-3 4-5-1-6-3-4-1h-11l-8 2-8 5-6 8-3 7v13l1 7-10 6-4 5-4 9-1 5v7l3 10 5 8 10 7 7 2h10l4-1 2 11 7 11 9 8 8 4 3 1h16l12-5 3-2 5 1 5 11 9 10 11 7 11 4 6 1h8l12-3 12-6 9-8 4-6 3-1-4 8v3l4 2 14 1 9-2 5-3 8-10 3-9 7 3 11 5 4 1h15l10-3 11-7 7-8 4-6 2-6 1-13-1-10-1-2 4-1 2 23 12-1 10-5 8-7 7-14v-14l-4-9-4-6-8-7-7-4h-2v-13l-5-10-7-6-7-3h-12l-9 4-4 2-6-8-8-4h-12l-4 3v15l7 2 7 3 5 5 6 8h12l9 4 5 6 3 8-1 5-3 1v-8l-4-8-6-4-3-1h-10l-6 2-1-6-4-6-5-4-7-2-9 1-5 3-4 2v-4l11-6v-15l-3-22-6-23-4-12-8-16-6-9-5-6h-8v4l2 3h2l2 5 9 19 3 11 1 12v19l-2 17-6 18-7 14-4-2-5-10-2 2-8 16-10 16-6 9v2l-6 1-6-11-6-7-9-15-4-9-4-4-5 12-4-1-8-17-5-20-1-7v-26l3-15 4-13 8-14 6-8-1-1zm15 1-7 8-6 10-7 16-2 9-1 14v12l1 14 4 15 6 14 3 2 7-13 2-1 3 11 6 11 10 16 8 11 4-2 9-14 7-10 7-17 1-4h3l7 12 3-1 7-19 4-20v-24l-3-14-6-16-6-10-8-10h-9l2 4 5 5 4 5 8 16 3 14v14l-3 15-1 2-4-1-4-3h-2l-5 15-9 15-11 14-5-1-11-14-9-16-3-9v-4l-4 1-4 3h-3l-2-8-1-6v-20l2-12 6-12 8-10 5-5v-2zm11 5-7 6-8 13-4 11-2 11v9l2 13 1 2 4-2 5-4 2 1 2 11 5 12 5 8 10 13h4l7-8 10-16 4-14 1-7 5 2 4 4h2l2-8v-21l-5-17-7-11-8-8-2 1-6 31-2 6-4 2h-6l-5-5-4-16-3-18z"/><path transform="translate(454,302)" d="m0 0 6 1 2 3-1 7-6 1-5-4 1-6zm1 4v4h3v-4z"/><path transform="translate(561,302)" d="m0 0h5l4 5-1 5-4 2-5-1-2-2v-6zm2 4-1 4h3v-4z"/><path transform="translate(480,308)" d="m0 0h6l3 4-1 5-3 3-6-1-2-2v-6zm2 3-1 4 3 1-1-5z"/><path transform="translate(535,308)" d="m0 0 7 1 1 7-4 4-6-1-2-3 1-6zm1 3-1 4 4 1v-4z"/><path transform="translate(507,310)" d="m0 0 7 1 2 2v6l-4 3-5-1-3-4 1-5zm2 3-1 4h4l-1-4z"/><path transform="translate(494,345)" d="m0 0h31l14 4 17 9 13 11 9 12 8 15 4 19v16l-4 20-6 12-8 11-6 7-13 10-14 7-13 4-6 1h-20l-17-4-16-8-11-8-8-8-10-15-6-16-2-9v-22l4-16 5-12 3-5 5-5 7-8 11-10 21-10zm11 3-16 3-17 7-12 9-10 10-8 13-5 10-2 11-1 8v9l3 18 5 12 8 12 7 8 12 9 10 6 5 2 14 3h23l16-4 16-8 11-9 8-9 9-17 4-13 1-4v-18l-2-1-3 9-6 8-1 10-6 14-7 10-9 9-11 7-14 5-10 2h-13l-14-3-15-6-3-1v-2l-10-8-7-9h-2l-2-5-4-11-3-12v-18l5-17 7-12 10-11 9-6 11-6 14-4h19l17 5 11 6 12 10 10 14 4 8 8 3 1 2 2-1-5-13-7-12-11-12-13-10-14-6-11-3-8-1zm2 13-16 3-14 6-10 9-7 6-8 13-3 8-1 7v24l3 10 9 15 5 5 4-1 7-6 2-1-1-4-8-6-4-5-8-4-3-4-2-8v-6l4-6 2-2 3-15 5-8 8-9 9-6 12-4 5-1h15l13 4 13 9 8 11 4 8 5 4 2 3h2l5-8-1-6-6-10-9-10-12-8-14-5-12-2zm-9 13-15 5-6 4-6 5-7 11-3 9h2l3-4v-2l4-2 9-6 13-4 10-2h23l13 4 8 6-1-5-9-10-8-5-12-4zm9 16-16 2-12 5-9 6v3l10-6 9-4 14-3h23l10 3 6 4-2-4-7-4-12-2zm0 5-15 3-14 5-5 3-5 9v13h4l1-10 9-14 5 1 9 4h14l5-2-2-3 12-1 2-4-2-3-4-1zm22 2 2 4 8 8 3 9 3-1-1-6-4-8-6-5zm13 3m1 1m27 2-6 7v8l-6-5-3 1 3 8 3 5 8 3 5-1 5-6 2-6v-7l-3-5-4-2zm-42 1-9 2-3 4-7 2h-11l-11-4-3-1-8 10-2 4v10l5 13 4 5 11 2h10l17-2 12-5 6-5 1-4v-17l-5-10-5-4zm-60 2m-1 1 1 2zm79 0m6 0 1 5 2-1-1-4zm-86 2m-1 2m-8 8-2 2v9l3 8 2 2h3l-2-12-1-8zm96 3 1 3 1-3zm-10 1v5h2v-5zm5 3v2l2-1zm8 1-7 10 1 6 9 7 5-1 6-10 1-6-9-3-4-3zm-9 3 1 3 1-3zm-77 3 1 6 1 2h2l-1-6-1-2zm76 1m-1 2m-4 4 1 2zm-1 2m-1 1m6 0-7 8-6 7-14 5-5 1h-19l-11-4-5 1-8 7v4l6 4h3v-5l2 1 1 7 4 3h4l2-10 6-2 27-1 3 1 2 5 2 7 9-4-1-9-2-6 2 1 3 5 7-4 10-10-5-5-8-7zm-71 5m56 0-15 4-7 1h-18l-6-1-1 2 8 2h20l18-5 4-3zm-52 2m2 1m49 3-14 4-6 1h-20l2 2 6 1h12l16-3 5-3zm30 5-8 8v2l-4 2-2 2h3l8-7 5-7zm-62 13-4 4v6h3l-1-3 3-4 5 1 1 1v5l-1 3h16l-3-4v-5l2-2h5l2 3-1 6h4v-8l-3-3zm22 4v4h3l-1-4zm-20 2v4l3-1-1-3z"/><path transform="translate(311,356)" d="m0 0 6 1 5 10 4 11 2 1 22 2 4 3v6l-5 4h-2l-2 4-9 8 1 8 3 13-1 5-3 2-5-1-17-10-4 1-12 7-5 3-5-1-2-6 3-17v-5l-10-9-7-6v-6l4-3 22-2 11-22zm1 5-11 22-25 3 2 4 11 9 5 5-1 9-3 15 3 1 19-11 5 2 14 8 4 1-2-16-1-10 15-13 2-3-5-2-18-2-3-2-5-12-4-8z"/><path transform="translate(695,369)" d="m0 0h5l3 3 9 19 23 3 3 3-1 7-14 12-2 1 2 12 2 11-2 5-5 1-13-8-6-3-5 2-11 6-5 3-5-1-2-3 2-12 2-8-1-5-12-11-5-5 1-5 2-2 24-3 5-10 2-6zm2 5-8 16-2 5-2 1-20 2-3 1 2 4 15 13-2 17-1 8 6-2 15-9 5 2 16 9 3-1-4-17v-7l8-7 5-5 4-3v-2l-2-1-20-2-3-1-6-13-4-8z"/><path transform="translate(524,416)" d="m0 0 4 2 1 1v5l-2 2-5-1-1-6z"/><path transform="translate(488,423)" d="m0 0 5 1 1 6-2 2-5-1-1-1v-5z"/><path transform="translate(508,425)" d="m0 0 5 1v5l-2 2h-5v-3h3z"/><path transform="translate(518,434)" d="m0 0h2l-1 5-2 5-5 4h-6l-7-6-2-4 1-1h12l7-2zm-8 6-6 1 1 3 6 1 3-2v-3z"/><path transform="translate(726,518)" d="m0 0 5 1 5 9 9 1 3 4-5 6-3 2 1 12-1 1-7-1-4-2-5 1-4 2-5-1-1-2 1-11-6-5v-5l1-1 12-1 3-9zm1 6-3 7-9 2 2 4 3 3v8l2 1 4-3 5 1 5 2v-10l4-4v-2l-8-3-3-6z"/><path transform="translate(301,522)" d="m0 0 5 1 4 9 9 1 4 3-2 4-6 5 1 12-2 2-5-1-5-3-5 2-4 2-5-1-1-3 1-10-5-4-1-6 4-2 8-1zm2 7-5 7-8 2 5 6v9l6-2 5 1 6 1-1-9 5-4v-2l-9-3-3-6z"/><path transform="translate(448,817)" d="m0 0 9 1 9 5 6 6v5l-4-2-4-5-9-4h-10l-8 4-5 6-4-1 2-4 6-6h2v-2z"/><path transform="translate(587,860)" d="m0 0 3 1-1 8-5 8-6 4-5 2h-11l-10-4-2 4-3 2-13 1-9-3-7-8 1-3 5 2 5 5 3 2h10l8-5 2-2 5 1 8 3 9-1 7-4 4-6z"/><path transform="translate(420,862)" d="m0 0 4 3 4 10 8 7 4 2h19l10-6 3 1-2 4-8 5-8 2h-10l-11-4-8-7-5-10-1-6z"/></svg>
