<?xml version="1.0" encoding="UTF-8"?>
<svg version="1.1" viewBox="0 0 1024 1024" xmlns="http://www.w3.org/2000/svg"><path transform="translate(352,222)" d="m0 0 5 2 9 8 10 8 1 2-4-1-10-9-8-6-4 1-15 13-16 13-10 8-10 9-12 9-13 12-11 9-15 12-8 7-10 8-6 5-11 9-9 8-17 13-7 6-2-1 4-4h2l2-4 6-4 5-5 11-9 28-22 10-9 8-7 14-12 10-8 16-13 11-9 10-9 8-7 22-18z"/><path transform="translate(380,245)" d="m0 0 5 3 16 13 10 8 14 11 5 5 10 8 9 8 5 3v-17h-7l-3-2v-21l1-1h73v22l-3 2-6 1-1 64-4-3 1-4v-25l-1-1-27-1-2-1v-16l3-2h26l1-1v-11l-48-1 1 23 2 3-5-2-11-10-8-7-11-9-17-14-13-11-8-6-7-6zm67 20v17l7 2h60l3-2v-16l-1-1zm31 36-1 1v14h28l1-1v-12l-2-2z"/><path transform="translate(314,288)" d="m0 0 2 1-11 10-10 8-2-1 12-11z"/><path transform="translate(346,294)" d="m0 0h13l13 4 6 4 10 11 4 11v15l-2 10-3 3 1-7 1-2v-18l-4-11-6-8-9-6-11-3h-11l-11 3-10 7-8 14-2 13-3-2 1-9 7-14 6-7 12-6z"/><path transform="translate(349,302)" d="m0 0 12 1 9 4 8 6 5 12v14l-3 10-6 8-6 4-10 3h-9l-10-3-10-9-5-9v-7h3l11 1v2l-11 1 2 6 6 8 9 6h3l1-19h2l1 19 4 1 3-2 5 1 9-5 5-6 3-8v-2h-12v-2h12v-7h-22l1-3 21 1-3-10-5-6-9-5h-4l-1 11h-1l-1-12h-5l-1 17h-2l-1-16-5 1-6 4-7 8-2 4v3h21v3l-20 1-3 1-1-1 1-9 4-7 5-6 11-6z"/><path transform="translate(271,324)" d="m0 0 2 1-7 7-11 9-2-1 5-5z"/><path transform="translate(315,336)" d="m0 0h2l3 12 7 10 9 8 8 3 5 1v2l-9-1-9-5-6-5-7-10-3-9z"/><path transform="translate(242,349)" d="m0 0v3l-16 13-2-1 10-9z"/><path transform="translate(386,352)" d="m0 0 1 3-8 10-12 6-3 1h-7l1-2 11-3 9-6z"/><path transform="translate(509,353)" d="m0 0 4 2 14 11 16 13 10 8 2 4-5-3-16-13-14-11-11-10z"/><path transform="translate(173,372)" d="m0 0v3l-11 10-14 11-17 14-13 10-7 6-2-1 7-6 5-5 10-8 11-10 12-9 11-9z"/><path transform="translate(208,377)" d="m0 0 2 1-12 11-9 7-8 7-2-1 9-9 10-8z"/><path transform="translate(290,399)" d="m0 0 3 1-13 10-11 11v-3l8-9 9-7z"/><path transform="translate(573,406)" d="m0 0 4 2 14 11 9 7 6-1 8-5h9l10 4 6 9 5 9v7l-2-3-8-16-6-5-5-2h-8l-8 4-5 6-4-5-9-7-16-13z"/><path transform="translate(679,420)" d="m0 0h11l9 6 7 10 4 10 3 13 2 24 2 7 11 9 5 7v2l4 2 4 6v2h2l7 11h8l7 7 6 8-2 2-3-5-8-8-4 1 1 4 4 4 5 9 3 3 3 1 1-3 1 3h6l3-13 12-13 5 2 10 10 1 3 1 11h6l1-11 8-8 6-7 4 1 12 12 1 12 1 1h5l1-12 13-14 5 2 7 8h-3l-6-7-4 2-7 7-2 4v88l1 2h23l1-15h7v-12h-7v-37l2-1h5v-10h-7v-17l2 1 1 12 7 2 1 1v13l-2 2h-7v30l7 1 2 2v13l-2 2-6 1-1 12 7 1v3h-66l7 8 10 7 24 7v3l-14-3-17-7-12-11-8-9-13-20-7-9-12-19-2-5 5 5 7 10 9 14 1 3h2l-1-70-9-10-3-1-10 11-1 35-2 1v-2h-2l-10-15-13-20-8-11-13-19-12-14v-2l-5-2-5-4-11-4-10-2h-25l-2 3 15 1 14 4 11 6 11 10 13 17 10 15 17 25 6 10 9 13 6 10 5 8h-3l-9-13-4-6-11-17-10-15v-2h-2l-14-22-9-12v-2l-4-2-7-8-8-7-11-5-11-3-23-1 5 5 6 5 10 13 9 15 5 6 5 9 11 17 6 9 8 14 8 12 8 13 2 6-4-2-15-26-4-5-11-18-7-11-7-10-5-9-8-11-12-17-10-10-10-6-6-3-19-3h-18l-5 3-2 3v14l25 2v1l-10 1-4 2-1-2h-6l-1 2-2 36h-2v-21l1-18-6-2-1 8-3 16-9 35-4 20-6 21-1 97-2-2v-17l-1-1h-50v-3l16-1 1-7h1l1 7h31l1-1v-12l-15-1v-2l15-1 1-68h3l1-8v-10l-5-1 1-4h4v-10l-3-1v7h-1l-1-9 2-2h3l1-6h2v20h2l3-18 3-13-4 2-3 4h-2l2-4 9-10 4-13 4-20 2-7 1-22h2v16l5-3 1-2 10 2 27 2v-8h2l1 10 6 2v-21h2l2 19 1 2 6 1v-25l3-16 3-10 6-10 8-6zm2 2-7 3-7 8-5 15-3 16v19h4l4-3 28 3h8v-4h2v5l3 2h5v-11l-4-25-6-16-2-1-3-6-8-5zm150 109-11 12v92l1 1h22l1-1 1-13v-78l-11-12zm-59 28-1 3 6 9h3v-11l-1-1zm37 0-1 1v11h8l1-1v-11zm39 0-1 1v10l1 1h7v-11l-1-1zm-39 15-1 1v29l1 1h7l1-1v-30zm38 0v30l1 1h6l1-1v-30zm1 33-1 1v14l-1 3v10l1 1h7l1-1v-27l-1-1zm-39 1-1 1v9l2 3h6l1-1v-12zm4 14v3l4 4 1-1v-5z"/><path transform="translate(151,425)" d="m0 0 2 1-10 9v224h52l-1 3-16 1-1 12h-2l-1-12h-31v14l18 1v1l-18 1v32h97l1-1 1-26h1l1 26 1 1h14v-177l-6-7 2-1 5 5 4 2-1 3v175h32l3 10 5 3-2 1-7 1-1-11-92-1-60-1-1-1-1-273-20 15-4-2-11-13-4-5 2-4 5-5 2 1-4 4v5l5 7 7 7 5-1 14-12 11-9z"/><path transform="translate(399,437)" d="m0 0 5 2 8 8-1 7 4 5-1 2-9-9 1-3 3-1-5-6z"/><path transform="translate(338,441)" d="m0 0 9 2 8 4 1 3 4 2v2l-4-1-5-4-8-4-6-2z"/><path transform="translate(368,443)" d="m0 0 10 1 11 6 9 7 5 9-4-2-9-10-10-5-12-4z"/><path transform="translate(271,448)" d="m0 0 1 2-5 11 3-1v5l3 1-2 5-1 2h-2l-1-5-3-1 1-8 5-10z"/><path transform="translate(294,451)" d="m0 0 2 1-2 4-8 6-7 11-3-1 2-5 9-11z"/><path transform="translate(306,462)" d="m0 0h2l5 9 5 6 5 3v2l-5-2-5-4-4-7h-4v-6z"/><path transform="translate(325,465)" d="m0 0 4 2 9 10 4 4-5-2-4-4-5-1-3-7z"/><path transform="translate(192,466)" d="m0 0h11l9 4 10 6 8 11 3 6 1 5 1 35v65l5 2v13l-1 1h-84l-1-1v-13l4-3 1-15 1-82h1l1 98h69l1-1-1-99-3-10-7-8-3-3v-2l-5-2-8-3-9-1-14 3-9 6-6 8-5 11h-1l1-8 2-4h2l2-4 6-7 9-6zm-35 135-1 1v9l1 1h76l5-2v-8l-1-1z"/><path transform="translate(503,466)" d="m0 0h14l12 5 10 9 5 10 3 7 1 75v26l5 2v14h-84l-1-1v-14l2-2 1-8 1-92 5-12h2l-1 5-3 7-1 7v91l1 2 70 1-1-99-3-9-7-11-8-6-7-3-5-1h-9l-14 5-7 6-2 3-2-1 6-8 7-4zm-3 134-29 1-1 1v9h80l1-1v-8l-1-1-31-1z"/><path transform="translate(189,476)" d="m0 0h6l-2 4-2 1-7 1-6 4-5 8-2 7h-2l2-9 4-6 8-7z"/><path transform="translate(199,476)" d="m0 0h6l5 3v2l-7-1-1 19h-2z"/><path transform="translate(502,476)" d="m0 0 5 1-1 15h-1l-1-12-5 1-8 6-5 7-2 5-1 32h22v3l-21 1v5l20 1v3h-20l-1 44 3 1v2l-5-1-1-64v-21l3-12 6-9 5-4z"/><path transform="translate(512,476)" d="m0 0 7 1 10 6 6 9 4 10v88l-1 1h-44v-2l9-1 1-26h2l1 14v12h5l1-46 1-1 23-1-1-5-22-1-1-1zm4 2-1 3v51h21l1-1v-26l-3-11-6-8-10-8zm1 65-2 3v43h20l1-1 1-9v-35l-1-1z"/><path transform="translate(261,479)" d="m0 0 5 1-1 16-1 2h-2l1 6 2-1 5 13 4 1-1 4v10l2 10h-2l-2-4-2-1v-9l-3-3-1-5h3l-4-11-5-1 1-16 1-6z"/><path transform="translate(291,479)" d="m0 0h1l1 14h-3-2l-3 3 1-4 4-12z"/><path transform="translate(462,481)" d="m0 0h2l1 139 1 92h98v2l-58 1-101 1-1 8v12l-2 5 4 2 4 5 4 4v11l-5 6-3 1h-25l-10-4-11-8-1-2-1-16-3-2v-2l11 2 1 2-4 1-1 9 7 6-3 1h-2l7 6 12 5h21l5-5v-3l2-1-2-9-3-3-8-1 2-4-8 1 3-6 7-3v-6l-3-3 2-4 2-9h40l1-25 1-158 2 1 1 182h13z"/><path transform="translate(212,483)" d="m0 0 4 1 6 7 3 8v91l-4 1 1-3v-44h-19v44l2 1v2h-16l1-3 1-13h2v14l6-1 1-46 1-1h22l-1-5-8-2v-2l8-1v-31l-3-8-4-6z"/><path transform="translate(381,486)" d="m0 0 7 1 4 2 3 4v2l-5-1-11-2-1-4z"/><path transform="translate(309,487)" d="m0 0h8l2 4-2 2-10 1-7 1 2-4z"/><path transform="translate(563,494)" d="m0 0h2v52h-1z"/><path transform="translate(309,499)" d="m0 0 9 2 5 5 2 4v10l-5 7-4 2h-9l-7-4-4-6v-9l3-6 6-4zm-3 3-5 3-2 3-1 8 2 6 5 4h3l-4-8 1-9 5-4 5-1v-2zm2 5-2 2 1 5h4l1-5z"/><path transform="translate(380,500)" d="m0 0h11l8 7 1 2v10l-7 8-5 2h-8l-6-4-3-4-1-3v-7l3-5zm0 2 1 2 8 3 2 3v10l-3 4v2l5-2 5-6v-7l-3-6-4-3zm6 5-2 2 1 5 5-1v-4z"/><path transform="translate(168,503)" d="m0 0h2v29l10 1v2l-9 1-1 5h21l1 3-21 1v46l-3-1z"/><path transform="translate(424,507)" d="m0 0 2 2-2 9 4-1-4 10-1 5h5v2l-9 3 2-9v-11l-1-5h3z"/><path transform="translate(626,506)" d="m0 0 9 3 8 4 10 11 4 7 14 20 9 15 10 15 7 12 2 4-2 1-14-23-4-5-1 17-1 49 24-1v-32l-1-3h2l6 10 5 7 5 9 8 13 10 16 11 16 6 7 5 4 6 7 13 8 8 4 14 5 12 3 18 1 16-3 16-5 10-9 2 1-2 4-6 5-8 5-3 8-4 1v-2h3l-1-6-8 2v3l4 1v2h-5l-3-3-29-1-8-1-2 9-3 2h-8l-5-4-2-14-5-3-15-10-13-12-9-11-6-9-12-19-56-1-2 25-4 5-7-1-2-2v-27h-19l-30 1-1 2-2 23-4 4-6-1-3-4 4-76 2-33h2v19l-4 70v21l5 1 2-7 1-23 3-3h31l21-1v-4h-51l-2 2-1-1v-8l2-1 1 4 23 1v-15h-8v7l-3-1v-4h-2v6l-3-2v-7h-6l-1 6h-2v-12h2l1 3 46 1 7-1-1 13h-6l-2-2v-5l1-2h-8v14h15v23l-1 18 1 1h5l1-2 3-37h2v7h7v-12h-8v-3h8v-11l-7-1v-3l7-1 1-28-7-1v-8l2-1 1 4 5 1-2-10h-2l-2 3-1-1-2-13-2-5h-3v3h-56v-3l18-1-2-5-6-6-4 1-6 7h-1v-20l1-3 35-1-4-4-6-3-9-2zm-13 14-6 2v5l1 1h42v-3l-4-5zm-5 9-1 1v5l6-3-1-3zm10 0v4l12 12h7l11-11-6 7v4h17l1-1v-5l-7-8-3 1v-3zm12 80-1 1v10l1 1h6l1-1v-10l-5-1zm74 1-1 1v8l2 2 5-1-2-6-2-4zm-53 2-1 5 4 1 1-4zm-21 10v4h6v-4zm75 0-2 1v12l1 1h8l1-1v-11l-2-2zm10 6v7l4 1v-4l-2-4zm73 77-1 1v12l4 3 7-1 2-6-2-5-5-3z"/><path transform="translate(342,518)" d="m0 0h10l2 3-1 4-2-1-2-4-4 1-4 3-1-2z"/><path transform="translate(365,539)" d="m0 0h3l-2 4-10 5h-17l-12-7 3-1 9 4h16z"/><path transform="translate(660,550)" d="m0 0h2l-1 14h-2l-1-8h-17l-1 5 1 9 9 1v-2l-3-1v-5l3-3 5 1 1 1v7l-1 2 2-1 1-3h2v7h-54l-1 2h-2v-5l3-1 6 1-3-5 1-5 1-1 7 1 2 2-1 5-2 3 9-1v-11l-1-3h-17l-4 1v-5l56 1zm-29 5v2h4v-2zm-1 5-1 1v9l1 1h6l1-1v-9l-1-1zm21 2-1 4 4 1 1-4zm-38 1v4l4-1-2-3z"/><path transform="translate(792,560)" d="m0 0 5 1 2 2-1 5-2 2-5-1v-3l5 1-1-4h-5z"/><path transform="translate(829,560)" d="m0 0 7 1 1 1v6l-2 2-7-1-1-7zm2 2-2 3 4 2 1-4z"/><path transform="translate(867,560)" d="m0 0 7 1v7l-2-1v-4l-4 1 2 5-4-1-1-1v-5z"/><path transform="translate(313,572)" d="m0 0 8 2-2 2-1 9h-2l-1-8z"/><path transform="translate(382,571)" d="m0 0 3 1v3l-2 2-1 5-15 8-7 10-1 2-4-2h-14l-8 2-1-21-3-3-3-2 2-1 7 1h19l7-4h2v2l-6 4-2 4-1 8-5-5 3-3v-2l-14-1v2l-3 1v14l1 1h18l3-2 2 1-1-6 5 1 7-6 1-4h6l-2-5-5-3 3-1z"/><path transform="translate(433,578)" d="m0 0v3l-2 2-2 4-11-1-2-4 1-3 3 3h7l5-3z"/><path transform="translate(626,581)" d="m0 0 4 1-1 16h8l-1-16 4-1-1 17h18v4h-54v-4h23l-1-16z"/><path transform="translate(408,586)" d="m0 0 9 1-1 3 4 1-1 5-7-6z"/><path transform="translate(317,590)" d="m0 0h2v10h2l1-3h6l2 2v6l-3 2-5-1-1-4h-2l2 6-5-2zm7 8-2 4 2 3 4-1 1-4-2-2z"/><path transform="translate(373,599)" d="m0 0h7l1 4h-2l4 6v2l-10 4-5 5 1-5 3-4z"/><path transform="translate(422,604)" d="m0 0h2l1 2 3 2-2 2 3 1v2l-3 2-1 9-4 1 1-6z"/><path transform="translate(403,607)" d="m0 0h4l2 4v5l-3 1v2l2 1-3 4h-2l-4-6-3-3v-2l5-4zm-2 7 1 4 2 1-2-5z"/><path transform="translate(781,609)" d="m0 0 4 2 9 15 3 4v2h2l5 8 8 12 9 11 8 8 10 7 12 6 15 4v4l-7 6-10 4-9 2h-19l-5-3-4-12v-4l3 1 3 12 4 3h16l16-5 7-4 1-2-10-2-12-5-10-7-14-13-5-6v-2h-2l-16-25-11-16z"/><path transform="translate(310,610)" d="m0 0h5v13l8 6-3 1-8-7-1-2-3-1v-2l3-1z"/><path transform="translate(830,610)" d="m0 0h5l2 2v6l-2 2h-5l-2-2v-6zm0 2-1 3 2 3 3-1-1-5z"/><path transform="translate(868,610)" d="m0 0 5 1 1 1v6l-2 2h-6l-2-5zm0 2-1 5 5 1 1-5z"/><path transform="translate(686,611)" d="m0 0 2 2v4h2v-5h3l1 5-2 3h-5l-2-2v-6z"/><path transform="translate(357,615)" d="m0 0 2 3 6 10h4l5 7-12-3-1-5-6-1v-2h3l-1-5-3-1v-2z"/><path transform="translate(331,617)" d="m0 0 4 1-3 1 1 12 1 3 2 1v2l-5-2-3-1v-2h2v-14z"/><path transform="translate(383,620)" d="m0 0 7 1 1 2-3 2v6l-5 1-3-1-1-3 4 1 1-7z"/><path transform="translate(740,620)" d="m0 0 4 2 6 9 8 13 6 9 8 7 2 3h-3v-2l-4-2-8-8-1-4-3-1-7-10-6-11z"/><path transform="translate(403,631)" d="m0 0h2l1 5-3 1v6l-1 1h-5l-1-5z"/><path transform="translate(349,633)" d="m0 0h3l1 5h3l3 5-1 8-5-1 4-4v-2l-7-3-1-3z"/><path transform="translate(287,642)" d="m0 0 4 2 4 5v2l-7 1-2 1 1-10z"/><path transform="translate(395,649)" d="m0 0 6 2-1 2-4 1v3l3 1v6l4 2v3l5 1-1 2h-9v-4l-2-1-1-7-3-4z"/><path transform="translate(418,661)" d="m0 0 1 3-1 3 2 4-5-1-2 3-1-2-3-2 6-4z"/><path transform="translate(355,662)" d="m0 0v3l-5 5 1 4 3 4-4-2-4-4-4 2-3-1 3-6 7 1 1-5z"/><path transform="translate(870,665)" d="m0 0 3 1 2 5 1 13-2 4-1-18h-2z"/><path transform="translate(779,666)" d="m0 0 9 2 8 3 10 3 4 3v2l2 1h-3l-7-4-15-4-8-4z"/><path transform="translate(356,679)" d="m0 0 9 4 7 2v2l-3 3-2 1-1-5-10-1z"/><path transform="translate(511,695)" d="m0 0h33v3h-33z"/><path transform="translate(343,702)" d="m0 0h15v2l-3 1 1 14 2 5-1 5h-2l-3-13h-5l-2 1v-5h6v-6h-5l-3-2z"/><path transform="translate(344,717)" d="m0 0h1l1 16-3 5-3 2-1 14-3 6-11 7-7 3-10 1h-9l-8-2-5-5-2-5 1-7 4-6 7-7-2-3v-3l4 2 3 1 1 4 5 3-3 1-7-2 1 3-8 4-2 5v6l5 2v2l-4 1 6 3h21l14-7 5-5h-3v-2l4-4-1-8-5-2v-2l11-2 1-1v-7l-1-3z"/><path transform="translate(304,737)" d="m0 0 12 1 1 9-5 5-2 3-5-7 6 1v-2l-3-1 3-1 3 1v-2l-10-5z"/><path transform="translate(391,737)" d="m0 0h2v2l-11 5-1-5 1-1z"/></svg>
