<?xml version="1.0" encoding="UTF-8"?>
<svg version="1.1" viewBox="0 0 1024 1024" xmlns="http://www.w3.org/2000/svg"><path transform="translate(558,312)" d="m0 0h19l15 2 15 3 11 6 2 4-3 2h-4l1 2 13 5 10 8 7 6 4 6-1 5-4 1 7 20v26l9 4 6 5 2 5v13l-4 8-6 6-12 5 1 5 9 6 7 10 5 11 7 31 5 16 6 25 5 17 2 9 6 23 1 2 8 4 2 2 9 1 4 4h5l2-2 1-7-11-1-12-6-5-5-3-7v-10l6-12-1-7-2-3 1-10 5-6 6-3h3l1-14 5-9 7-6 3-1h11l11 7 4 8 2 17 8 5 2 3v17l3 5 3 4 1 3v10l-5 9-7 7-9 4-12 3 2 1h14l2-2h10l7 8 2 6 6 3 5 6-1 10-4 5-70 2v31l-7 8-9 6-17 5-7 7-8 4-18 6-21 5-23 3-10 1h-79l-22-4-15-5-13-5-24-4-9-3-11-10-3-6-1-37-2-2-183-2-4-5-1-3v-8l6-7 6-2 2-8 5-5h5v2l-5 3-2 3-1 8-9 4-3 2v9l2 3h31l1-2h2l1 2 76 1-2-8-8-4v-12l-4-4-2-1v-2l4 1 5 6v11l9-1 1 1 55 1-1-6-56-1 1-3 2-1 1-68 1-1h48l1 1v41h-1l-1-39h-45v66l5-1 1 1h32l1-13v-48l-1-2 5 1v61l4 1 5 3 1 7 6-1v-9l4-6 6-5 1-14 4-11 4-6 3-24v-21l-3-4v-17l1-5v-8l-40-40-7-8-8-8-4 1-7 6-5 6-6 5-6 7-6 5-5 6-6 5-7 8-11 11v27l6 74v6l5 2v2l-7 2-6-9-4-3h-10l-8 5-4 9-2 7-1 1-9 1-5 5-1 4h-2l1-7 5-4 9-3-1-4-7-5-6 1-5 1-5-4-3-1v-2l7 1v2l7-2v-2l-14-3-11-7-4-4-3-7v-13l4-8 3-3-2-6v-10l8-7 4-1v-14l4-10 7-6 6-3h9l8 5 1 3 4 2 3 7 2 13 9 4 4 6v11l-3 10h2l3 5v2h2l-1-9-3-48v-6l-5 3h-6l-6-7 1-6 32-32 7-8 29-29h2l2-5 4-4v-62l-2-3v-7l5-4 5 1 3 3-1 8h14l13 3h11l10-1-1 5-5 8 1 5 6 7-1 3-6 2h-19l-8-2h-15l-1 1v33l11 11 7 8 23 23 7 8 10 10h5l5-5 8-6-5-5-5-7v-15l6-12-3-14-1-11v-14l3-15 4-10 6-9 7-8 2-1v-2l-8-3 1-5 3-1h13l2-6 2-7 7-9 5 1 1 11 7-4 8-5 18-7 13-3zm-11 4-18 5-10 4-9 4-16 10 1-5v-8h-3l-4 5-3 6-2 9h-14l1 3 6 2-2 5-8 8-6 9-5 11-1 4v37l4 11 1 1 9-1 2 5 5 10 3 3 3-1 1-4-1-23-2-18 2 1 2 6h4l4-9 2-6v-22l13 8 9 4-5-1-12-6-3 1-2 21-5 10-5 5v33l-2 3-5-2-6-10-4-6-8 2-5 5-3 5v9l5 9 5 4 4 1-5 5-6 4-7 7-5 9-4 11-1 8v15l3 1 1-8h2l-4 37v10h3l6-7-1-6 13-12 3-2v-2h2l1-8v-30l-3-7-4-3-6 1-4 5-3 7v4h-2l4-12 5-5h7l4 2 3 9 4-1 5-8 8-7 2-2v-5l-6-8-4-1 4-1 9 11 6 6h2l2 4 16 8 11 4 10 1h39l14-3 13-5 11-5 11-8 10-10 6-10 4-13v-19l-3-12-6-18v-3l6 17h4l3-15v-19l-3-12-8-13h9l-2-6-8-8-13-8-15-6h-3v-3l9-1v-4l-18-6-6-1zm-170 37-3 3 1 4 2 2 4-1 1-5-2-3zm0 12v58l3-2v-55zm8 0-4 3v20l2 2 42 2 1-1v-5l-4-4 1-6 3-5v-3l-19-1-9-2zm263 47-4 6v10l5-2 6-3-1 2-6 3-4 8v11l3 2 9-3 5-4 4-7v-10l-5-9-8-4zm-271 15-17 17-7 8-23 23-7 8-24 24 1 4 2 2h6l31-31 7-8 30-30 5 1 9 8 7 8h2l2 4 24 24 7 8 3 3 4-1 2-4-1-5-16-16-7-8-25-25-7-8-6-6zm265 35-3 7 1 4 12 7 9 8 4 4-1-6-8-16-7-6-3-2zm-6 13-10 10v3l14 5 3 2 3 11 6 10 5 14 5 17 4 18 3 17 6 24 3 11h3l14-7-5-25-14-50-6-21-3-11-6-12-6-7-12-8zm-149 14-11 9-5 8-3 10-1 10v12h3l12-9 5-4 1-14 3-4 12-6-1-4-12-8zm133 2-8 6-1 19-1-13-4-2-4 6-4 11-4 6-9 6-10 4h-19l-9-4-8-6-8-10-4-4-4 3 1 9 3 21 2 10 2 3v20l-4 8 1 7h-2l-1-3-6-2h-7v-2h12l2-2v-5l-5-3-4-1v-2l5-1v-8l-3-2h4l2 14 2 3h2l1-2v-18l-4-5h-31l-3 3-1 3v14l2 1 3-2 2-11 2-1-1 2v8l1 1h15v2h-12l-6 2-10 1-3 4-1 3-1 16 2 7 3 5 2 2h16l15-4 3-3-1-5-2-2-10-1h14l4-3-4 16-3 3-5 4-8 18-8 14-9 12-7 7-10 7v30l7 9 12 6 23 5 13 1h54l20-1 27-4 23-5 16-6 10-6 5-6 2-6h2l1 5 9-2 13-7 5-8v-19l-2-5h-7v-4l1 2 5-1 1-2-5-10-4 1-1 2v3l-2-4-14 1-1 1-1 9v12l1 4h-2l-1-11-1-3-3-2 5-2v-12l-3-6-12-12-2-1-5-10-7-11-10 1-7 3 2 5 1 4-7-9-8-3-3-10-1-16-7-5-3-10h2l1 7 3 4 4-1v-4l3 7 3 2 19-5 1-1-1-12-2-8h-8v-2l8 1 3 7 3 10 4-1v-10l-3-11-4-3h-8v-2l5-1v-11l-1-17-2-12-10-6zm-22 11-8 5-4 8-8 6-5 2h-14l-10-5-8-8-7-1-1 5 4 6 7 8 13 5h17l12-5 8-7 5-7 3-8-1-4zm-94 1-10 4-5 6 1 14 4 22 1 1h30l1-1-1-15-4-20-3-9-6-2zm78 3-12 2-22 2v4l6 5 7 3h11l10-5 5-6-1-5zm-309 6-9 6-4 6-1 3-1 17-7 3-4 4v9l3 4-1 4-7 8-1 10 1 7 5 5 8 6 9 3h8l1-3-7-11-2-6 6 2 5 2-1 3-7-4v3l6 7 3 14 6 3 1-1 1-27 4-6-3 6v18l2 1 9-2 12-6 5-6 2-4v-8l-5-10-2-2 1-8 2-2 1-7-3-6-5-4-8-1v-15l-5-9-8-6zm373 1 3 24 5 7 2 9v13l-1 5 6 17-1 7-1 6 6 11 5 8h2l2 4 3-1-3-16-6-24-2-12-6-26-4-14-3-9-5-9zm88 1-8 5-6 10-1 14-9 4-4 4-1 9 3 6v6l-7 9 1 13 5 6 7 5 8 3 8 1 1-1v-8h2l-2 35v11l1 1h9l2-2-1-14v-27l7-11-1-3-6 7h-1v-5l4-1 4-3h2l-1 6-7 11 1 4 11-1 13-7 6-9 1-2v-10l-5-8-3-3 1-7 2-7-4-6-6-3h-2v-15l-4-9-9-8zm-249 15-14 10-10 8-12 10-1 4 8 10 8 9 4 1 7-3 9-1 4-5 2-15 2-4-2-19-1-5zm-37 38-9 10-9 16-3 9v10l4 8 8 6 6 2h8l17-5 3-2-1-7-4-13-1-16-2-1-12 3h-3l11-4-1-4-7-8-3-4zm195 5-16 5-2 2v11l4 10 3 2 14-2 9-3 4-3v-9l-3-10-3-3zm-170 8-4 6v14l3 12 5 8 6 1 4-3-3-12-2-5-1-20-1-1zm-156 8-5 10-4 6 9 6h3v-15l-1-7zm-31 22-1 1v7h3l4-6v-2zm233 0-1 2h3v-2zm173 2-8 6-5 5 1 7 6 8 2 4 11-1 12-4 2-3-3-12-6-8-3-2zm-192 2-5 3-4 10-2 6h-2l-6 10-14 14v12l2 3 7-1 9-7 9-9 7-10 5-8 8-18-1-4-1-1zm265 0-8 6-3-3-9 1-2 2 1 20 2 7h41l3-4v-8l-4-4-8-2-2-10-6-5zm-275 3-3 3-8 4-2 5v13h3l3-3 6-11 4-10zm221 2 2 12v13l2 3h12l2-2 1-21-10-2-4-3zm-288-3-6 7v12l-7 3-3 4 1 5h9l3-5v-4h2v12l5 3 7 1h17l2-2v-4h2v32h-2v-23l-2-2h-10l-4 6-1 7-2 3-6-2-1-4 1-10h-3l-1 7v20l1 10 4 6 8 6 10 4 13 1v-3l-5-10-1-6h2l1 7 5 9 11 7 2-1-2-8-1-11v-16l-3-3-3-1v-16l8-9 1-5v-19l-2-1-14 5-3 3v11h-2v-10l-4-2-10-2-6-3-5 1-5 5 2-4 3-4-2-7zm-73 22-1 3 3 5 1 1h50l2-5-1-4zm82 17-2 4-1 8 5 1 2-3v-8z"/><path transform="translate(585,366)" d="m0 0 10 3 14 10 11 4 7 2 5 8 1 6-3-4-4-7-13-4-11-6-9-7-1 2 3 5-1 4-2 3-14-1-7-3v-1l9 1h12l-2-6-5-7z"/><path transform="translate(555,371)" d="m0 0 16 8v1l-6 1v6l-4 3h-8l-16-6-5-2-4 9-3-1 2-2-1-7-3-7 5 1 5 4 17 7 12 1v-4l-7-8z"/><path transform="translate(594,389)" d="m0 0h13l6 3-1 3-8-3h-11z"/><path transform="translate(512,401)" d="m0 0h7l-1 3-9 3-5 5h-3l1-4 5-5z"/><path transform="translate(597,407)" d="m0 0h8l5 2 6 7 1 5-5 1-5-8h-9l-4 5-3 7-4-2 1-8 7-8z"/><path transform="translate(516,419)" d="m0 0 11 1 6 4 2 4-1 5-2 1-8-8h-7l-4 4-3 8-4 1v-11l5-6z"/><path transform="translate(561,429)" d="m0 0h7l5 5v5h-3l-3-5-6 1-2 3h-3l2-6z"/><path transform="translate(586,448)" d="m0 0h6l6 5v14l-6 8-8 7-6 3-5 1h-18l-9-2-8-6-7-8-1-2v-9l5-5 40-2zm2 2-16 5-6 1h-28l-5 5 1 9 6 6 6-2 10-4h19l9 4h6l6-9v-12l-5-3zm-30 21-11 4-2 2 1 4 9 3h14l9-2 6-4-2-4-8-3z"/><path transform="translate(460,451)" d="m0 0h8l7 7v3l-4-2-3-3-9-2z"/><path transform="translate(371,464)" d="m0 0h13l8 5 6 9v12l-5 8-6 5-3 1h-12l-8-6-6-6v-16l5-5zm3 2-9 6-5 6v11l5 8 7 4h11l8-5 4-5v-13l-7-9-9-3z"/><path transform="translate(373,469)" d="m0 0h10l8 7 1 1v12l-3 5-5 4-2 1h-7l-8-4-4-5v-11l4-6zm0 3-6 5-1 2v10l5 6 2 1h10l5-3 2-3-1-5h-12v-12zm8 0-2 3v7l4 2h5l2-2-1-5-6-5z"/><path transform="translate(332,509)" d="m0 0h30l1 1v31l-1 1h-31v-32zm2 2v13l1 1h10l1-1v-12l-1-1zm15 0-1 1v12l1 1h11l1-1v-12l-1-1zm-15 17-1 2 1 9 1 1h10l1-1v-11zm15 0-1 1v10l1 1h11l1-1v-11z"/><path transform="translate(393,509)" d="m0 0h31l1 1v31l-1 1h-30l-2-2v-30zm2 2-1 1v12l1 1h11l1-1v-12l-1-1zm16 0-1 1v12l1 1h11l1-1v-12l-1-1zm-16 17-1 1v10l1 1h11l1-1v-11zm15 0v11l1 1h11l1-1v-10l-1-1z"/><path transform="translate(612,527)" d="m0 0h2l2 14 14-2h7l-4 2-12 3-6 4-1 2h-2l1-11z"/><path transform="translate(632,548)" d="m0 0h4v2l-12 3-1 6v5l-2-2v-11l5-2z"/><path transform="translate(277,566)" d="m0 0 3 3 3 9 6-5 4 1-1 5-3 2 1-5-5 5-4 2-2-4-1-8-1 2v13l-2 1v-19z"/><path transform="translate(738,567)" d="m0 0 2 1v3h-3l-1 12-3 2-4-5-3-1 7 11v5h-2l-4-10v-2h-2l-2-5v-4h6l3 5 2-1 2-9z"/><path transform="translate(643,576)" d="m0 0h8l3 3 2 12-9 4-13 3-4-5-2-6 1-6 10-4zm1 3-12 3v7l1 5 15-2 4-2-1-9-2-2z"/><path transform="translate(386,592)" d="m0 0 5 1 1 5-1 3h-5l-3-4zm2 3-1 3 3-1v-2z"/><path transform="translate(645,618)" d="m0 0 6 5 10 13 7 7 11 9-3 1-8-6-15-15-8-12z"/><path transform="translate(598,623)" d="m0 0h40l7 5 6 12 4 16 1 7v30l-3 7-8 6-9 3-23 4-27 2h-39l-21-2-10-4-5-5-3-7-2-13v-30l2-10 5-9 2-2 13-4 43-4zm18 2-78 6-17 2-6 5-5 8v12l5 3 9 2 17 1v2l-31-3-1 5 5 2 23 3h53l45-6 2-1-2 3v3h-2l-1-3-5 1 1 12 3 5-4-1-3-14-1-1-14 1-16 2-55 2-1 16-8 1h-2v-3l3 2 5-1 1-1v-14l-1-1h-5l-1 1-1 10v-11l-6-2-12-1-1 1 1 18 2 9 6 7 10 3 21 3h33l39-4 10-2 13-4 8-7 2-7v-17l-2-6-5-1-8 2v-2l10-2 3-3-2-5h-2l2-5-3-12-5-8-6-4-3-1z"/><path transform="translate(639,655)" d="m0 0 4 1-19 5-22 4-12 1h-11v-2l27-3z"/></svg>
