<?xml version="1.0" encoding="UTF-8"?>
<svg version="1.1" viewBox="0 0 1024 1024" xmlns="http://www.w3.org/2000/svg"><path transform="translate(440,124)" d="m0 0 5 1 3 5v2l9 2 3 4-6 6v11l-4 3-5-3h-6l-6 3-3-1v-13l-5-5 1-5 9-2 3-6zm1 6-3 5-7 3 2 4 1 1 1 8h14l1-8 3-3-2-4-5-2-3-4z"/><path transform="translate(638,153)" d="m0 0h15l17 4 13 5 13 10 8 7 9 13 7 18 2 9v23l-4 16-9 18h-2l-2 4-7 8-10 9-16 8-16 4h-21l-17-4-14-7-9-7-7-6-6-8-1-4 3-5 8 1 6 2 15 1 9-2 15-6 5-4 3-6 5-7-2-6-2-1v-7l5-3 8-4 4-7 1-2v-16l-4-13-7-12-9-8v-2l-5-2-4-4 1-5zm3 5v3l11 9 8 10 4 8 3 10v21l-4 10-13 6 2 6 2 2-1 7-1 4 7 3 12-1 5-3v-2l4 4 1 2-5-1-5 3h-14l-4-2h-6l-1 4v2l-10 5-8 5-10 2h-19l-12-2-1 2 8 10 11 9 10 5 8 3 10 3 12 1 16-2 12-4 13-7 12-11 6-7 8-13 6-18v-27l-6-18-7-12-12-13-11-7-8-5-14-4z"/><path transform="translate(575,155)" d="m0 0 5 1 5 8 2 4 15 3 1 5-2 4-7 6 1 18-5 1-9-5-8 1-7 4-5-1-1-1 1-16-10-9v-5l3-2 14-3 5-10zm0 6-4 12-13 1 1 5 5 5v15l6-1 4-2h6l7 4 4-1-1-13 9-9-2-3-13-2-4-10z"/><path transform="translate(403,180)" d="m0 0h5l6 7 7 17 2 3 20 2 9 3 2 2-1 6-10 10-8 6-1 8 3 13 1 9-3 5-8-1-18-11-6 1-8 5-12 6-6-1-2-2 1-11 3-13v-6l-8-8-8-7-5-4v-7l5-2 26-3 8-16zm2 4-8 16-4 9v2l-25 2-5 2 1 5 11 10 7 5v10l-3 19 1 2 6-1 17-10h7l10 6 10 5 3-1v-9l-4-15 1-5 13-13 6-5v-4l-29-4-5-10-6-15z"/><path transform="translate(679,212)" d="m0 0 8 1 4 5v4l-4-2-2-2-5-2z"/><path transform="translate(679,223)" d="m0 0 4 1 1 1v8l-4 4-5-1-1-1v-7z"/><path transform="translate(507,246)" d="m0 0 8 1 13 11 10 11 10 13 14 20 9 14 14 27 6 13 7 17 6 19 6 21 3 14 5 35v67l9 7 8 8 8 7 4 6 6 7 6 10 8 15 3 14v34l-4 26-5 16-8 24-8 15-4 3-10-1-6-7-2-36-2-13-6-10-9-8-16-10-12 5h-3l2 10v10l-4 6-6 2-9 2 2 5 6 11 6 12 4 12 3 11 3 15 1 6h15l8 5 4 4 5-1 3-2h18l9 6 7 8 3 8 1 8 10 6 6 8 4 9 1 3v15l-2 7-7 10-9 7-8 3-13 2-6 12-10 10-7 4-10 3h-16l-19-5-1 5-6 8-11 6h-17l-9-3-11 7-8 3-4 1h-22l-12-4-11-8-5-6-5-8v-2l-11 4h-23l-12-6-8-8-5-9-2-6-13-2-13-7-5-6-5-11v-16l5-10 6-7 5-3 1-19 4-8 6-7 7-4 9-3h10l12 3 4-1 5-4 12-1 2-6 6-26 6-16 7-13 5-10-10-1-6-3-4-5v-10l1-7-1-3-9-4h-8v2l-6 4-11 8-5 5-5 12-2 10-2 36-4 5-4 2-9-1-6-7-4-10-9-23-3-12-3-14-3-18-1-11v-15l2-12 7-20 9-13 7-9 13-15 12-10 3-2v-67l4-27 5-24 3-12 3-10 8-22 4-10 12-25 10-19 7-10 9-14 9-12 4-3h2l2-5 15-16zm2 5-6 4-18 18-12 16-7 9v2h-2l-14 24 1 5 7 3 22 5 9 1h19l-2-4 1-7 8 1v6l-3 2v2h19l13-2 16-3 11-5-1-6h-2l-2-5-9-16-9-12-10-11-9-11-14-14-3-2zm1 78-2 3 3 1v-4zm-64 3-4 6-5 11-3 7-6 15-9 27-5 17-2 12-4 27-1 7-1 19v17l1 19 5 39 4 18 7 25 4 8 3 2 10 2 17 2 31 1 1-1 2-35 3-19 4-17 6-11h11l4 5 4 7 4 14 2 17 1 39 1 1 32-1 18-2 13-4 4-8 7-27 5-26 2-13 1-13v-59l-2-17-2-15-9-35-3-10-9-22-5-13-8-15-3-1-27 6-18 3h-31l-21-3-21-5zm63 198-8 10-5 15-2 21v56l1 17 5 30 6 28 1 2h6l3-4 2-9 1-12 5-30 4-36v-39l-3-19-5-17-3-8-6-5zm-107 4-13 12-10 10-7 9-3 3-6 12-6 11-3 17v19l4 31 6 22 8 22 7 13 4 2 6-2 2-2 1-22v-14l2-9 6-14 4-5v-2l4-2 15-10 6-3 1-1v-6l-7-19-8-25-2-11-6-30-2-6zm214 0-3 7-4 23-3 14-8 26-2 8-6 16 1 4 9 5 10 7 8 6 5 10 4 12 2 21 1 20 5 4h5l4-5 11-26 4-17 5-19 2-9 1-16v-16l-2-12-5-12-6-12-2-1-3-6-11-14-13-13-6-5zm-187 77 1 7 6 15 10 4 22 4 7 1h16l1-1-1-18-3-5-9-2-36-4zm155 0-41 5-10 1-3 2-1 11v11l1 1h15l25-4 10-3 6-4 6-15-1-5zm-133 32-2 2-1 5v11l4 4 3 1 13 1h25l2-2-1-15-1-4-2-1-9-1zm108 0-22 1-7 1-2 2-2 19 1 1h25l13-1 6-3 2-3v-9l-2-7-1-1zm-88 27-7 8-8 14-8 21-2 9-3 12-1 9v22l9 6 1 2-6-3-13-1-7 3-5 6-2 5h-15l-8 7-3 5-1 2v-7l6-7 18-2 8-10 4-3 9-3 1-18-2-1h-9l-6 3-3 3-5-1-7-3h-12l-9 3-6 4-6 8-2 5v19l-11 8-4 9-1 4v10l4 11 5 6 9 5 3 1h13l2 3 1 7 8 11 8 7 9 4h16l12-6 5 1 5 9 9 10 11 7 8 3h18l11-4 10-6 9-9-2 4 1 4 2 1 16 1 10-3 7-8 4-10 6 2 10 5h22l12-6 8-7 6-9 2-12v-9l-1-8 3 3 2 17 4 1 10-2 9-5 6-7 5-10v-15l-6-11-7-7-8-5h-2v-12l-5-9-7-6-5-2h-12l-9 4-4-1-5-6-7-3h-11l-3 3v13l5 3 10 5 8 10 13 1 6 3 5 6 2 5-1 6h-1l-1-8-6-8-4-3h-13l-3 1-4-9-6-5-10-1-8 2-4 2-1-3 5-2 5-3v-17l-4-25-6-20-9-20-9-12-1-1h-7l-1 4 5 6 9 20 2 6 1 7v29l-3 16-4 12-5 10v2l-5-3-3-6h-3l-8 16v2h-2l-13 21-5 1-6-11-6-7-12-22h-3l-3 9-5-2-7-16-5-19v-30l4-16 3-9 4-6 5-9 2-4-1-1zm13 1-9 11-4 8-5 11-2 8-1 10v20l2 13 4 12 4 10h4l6-9 2-1 1 6 11 22h2l2 5 7 10 5-1 4-5 7-11 5-8 6-15h4l5 8 4-2 5-13 4-19v-26l-5-19-6-12-8-11-2-2h-6v4l7 8 7 14 3 12v18l-3 12-6-2h-3l-4 10-5 10-9 13-5 6-5-1-10-13-9-17-2-8-10 2-2-9v-25l3-10 7-12 9-10-1-2zm9 5-8 9-5 10-3 7-2 10v12l2 10h4l4-3h2l5 16 5 10 11 14 5-1 5-5 9-14 2-4 3-15 2-1 6 4 3-1 1-5v-21l-4-15-7-10-6-6h-3l-3 13-4 19-4 3h-6l-3-3-5-19-3-14z"/><path transform="translate(458,319)" d="m0 0 6 1 2 2-1 6-5 2-5-4 1-5zm2 4v3h2v-3z"/><path transform="translate(557,319)" d="m0 0h5l3 4-1 6-6 1-4-2v-7zm1 4 1 3 2-2z"/><path transform="translate(482,324)" d="m0 0h6l3 3-1 6-2 2-8-1v-8zm1 5 2 2v-2z"/><path transform="translate(532,324)" d="m0 0h6l3 4-1 5-3 2-6-1-2-2 1-6zm3 3-2 3 3 2 1-4z"/><path transform="translate(494,358)" d="m0 0h32l12 4 16 9 11 9 10 14 6 13 3 13v20l-3 15-8 15-8 10-7 7-11 8-11 5-14 4h-24l-16-5-15-8-13-11-11-17-6-16v-31l3-12 8-15 20-20 22-10zm9 3-15 4-12 4-13 11-10 10-1 4h-2l-7 14-3 16v12l3 16 7 15 9 11 8 7 11 8 11 4 9 2h23l18-5 14-8 12-11 6-10 4-7 5-16v-18l-3 1-4 9-3 4-2 11-6 13-8 11-7 6-12 6-11 4-5 1h-17l-14-4-7-3-5-1-7-8-6-5-6-8-7-21v-20l5-15 7-11 10-10 15-9 12-4h22l18 7 10 6 8 8 7 11 4 7 9 4-2-10-6-11-7-9-7-7-11-8-17-6-9-2zm3 12-14 3-12 5-14 12-6 8-4 8-3 9v26l5 12 6 10 4 4 6-1 6-6-1-4-11-10-6-4-3-5-1-3v-9l5-9 3-12 7-10 5-5 8-5 12-4h18l12 4 11 8 4 6 5 8 7 8h4l3-5v-7l-8-12-8-8-8-5-13-5-9-2zm-8 12-16 6-9 8-6 11-1 5 3-1 4-5 8-5 19-5h26l13 5 3 1-1-5-8-8-8-4-8-3zm6 15-16 3-10 5-5 5 5-1 11-6 9-2h31l9 3-1-3-8-3-7-1zm2 4-16 4-10 4-5 3-4 8 1 11h3l3-11 6-9 8 1 5 2h14l4-4 8-1 3-3-2-4-2-1zm23 3 2 5 5 5 4 9 2-1-1-8-4-6-5-4zm36 5-5 6v7l-5-4h-3l1 7 4 6 4 2h8l6-7 1-4-2-10-4-3zm-39 1-7 1-4 4-3 1h-15l-7-3-5 1-5 7-2 1-1 3v9l5 13 4 4 9 2h14l14-3 11-5 4-5v-17l-5-10-4-3zm23 3 1 2 2-1zm-88 11-1 1v12l4 6 3-1-3-17zm80 4 1 3zm11 3-6 9 2 7 7 5 6-2 4-7 1-6-5-3zm-78 5-1 2 2 5 2-2-2-5zm68 10-12 13-14 5h-21l-9-3-5 1-8 7 1 4 5 3 4-2 2 5 3 2 4-1 3-8 12-2h18l3 3 2 6 5 1 4-2-1-9v-3l4 3 6-4 7-7-1-4-8-8zm-15 4-14 4h-27v2l2 1h27l13-4 1-3zm-6 7-8 2-20 1v2l3 1h15l13-3 4-3zm32 4-6 8-3 2 1 2 8-7 2-5zm-55 11-4 5 2 4 3-5 5 1v7h13v-9h5l1 5 1 2 3-1v-6l-3-3zm21 4v3z"/><path transform="translate(327,368)" d="m0 0 5 1 3 5 4 8 3 7 21 2 4 3v6l-8 6-7 8-1 3 3 14v6l-3 3-7-1-14-8-6 2-12 7-6-1-2-3 1-10 1-5v-7l-7-7-8-7v-6l3-3 21-2 8-17zm1 5-10 19-21 4v4l13 11v12l-2 11 4 1 14-8 7 1 15 8 1-4-2-20 14-13-1-3-8-2-12-2-3-3-5-13-2-3z"/><path transform="translate(681,380)" d="m0 0 6 1 8 16 2 3 21 3 2 2-1 8-12 11-2 2 3 17v5l-3 3-7-1-11-7-4-1-6 3-11 6-6-1-2-2 1-10 2-7-1-6-7-8-8-6 1-6 2-2 22-3 8-16zm1 5-7 14-3 5-20 3-1 4 12 11 2 1-1 12-1 11 5-1 12-7 7 1 13 7 4-1-2-12-1-11 4-2 7-7 4-3-1-3-21-3-8-16-2-3z"/><path transform="translate(523,427)" d="m0 0h8l3 3-2 4-7-2-5 4-3-1 1-5z"/><path transform="translate(488,431)" d="m0 0h7l5 3 1 3h-4l-6-1-4 2-4-1 1-5z"/><path transform="translate(708,518)" d="m0 0h5l5 8 9 2 2 4-6 6v12l-5 1-5-2-12 2-3-2v-11l-5-5 1-5 11-2zm2 5-2 3v3l-7 1-1 4 2 2 1 9h4l4-1 6 2 1-1 1-9 3-2-1-4-7-3-2-4z"/><path transform="translate(318,521)" d="m0 0 4 1 4 7 9 2 3 4-6 7v12l-5 1-5-2-7 1-5 1-3-2 1-11-4-2-2-3 1-5 6-2h5l2-6zm0 8-5 5-4 2 2 4 1 9h9l6 1 1-5v-4l4-4-5-3-4-2-1-3z"/><path transform="translate(448,793)" d="m0 0h14l10 6 3 4v4l-4-1-4-4-7-3h-11l-8 6-2 2h-3l1-6 8-7z"/><path transform="translate(581,832)" d="m0 0 3 1-1 8-6 8-5 3-3 1h-12l-9-1-3 3-6 1h-9l-8-4-5-7 3-2 6 4 3 3h12l7-5 7 1 5 2 10-1 6-4z"/><path transform="translate(427,834)" d="m0 0 5 4 5 9 8 6h19l7-4h3l-1 5-6 4-6 2h-13l-10-4-7-7-4-8-1-6z"/></svg>
