<?xml version="1.0" encoding="UTF-8"?>
<svg version="1.1" viewBox="0 0 1024 1024" xmlns="http://www.w3.org/2000/svg"><path transform="translate(569,295)" d="m0 0 21 1 23 4 12 5 5 5-5 3h-4l1 2 16 7 11 9 5 4 6 9-1 5h-6l6 14 3 10v19l-1 8 11 3 6 7 2 6v12l-3 7-6 7-8 4-7 2v6l10 7 8 9 4-4 11-17 8-13h2l2-6 11-17v-7l3-6 4-3-3-10-3-9-8-8-2-4v-6l5-4 2-1h7l6 4 5 5h2l5-17 2-9 6-10 4-3h6l4 5v12l7-10 5-4h7l4 4 1 6-3 10 6-5 7-1 4 3v9l-5 10 4-2 7 1 2 3-1 7-7 8-9 8-6 14-9 10-7 4h-3l1 8-4 8-6 4-8 16-12 23-7 12-12 22-7 11-1 3 1 5-10 15 1 8 6 23 11 42 9 5 3 3h9l5 4 1 2 7-2 2-9-9-1-13-5-8-6-5-10v-9l6-12 3-4-5-10 1-9 4-6 6-3 5-1 1-15 5-10 7-6 5-2h10l8 4 5 5 5 10 1 11v5l8 5 4 5v9l-2 4 1 5 5 6 3 7v9l-5 10-9 8-12 5-11 2 1 4 4-2 8 1 4 1 5-4h9l6 5 2 4 1 6 8 3 4 5 1 3-1 9-4 6-77 1 1 8v26l-9 10-7 5-20 6-7 7-19 9-29 7-26 4-19 2h-77l-18-3-19-5-13-5-11-4-21-3-11-3-10-8-4-5-2-7v-37l-3-4-199-1-4-6-1-4v-7l4-6 3-2 6-1 2-9 4-5 2-1h11l6 4 7-3-1-3-15-3-10-5-6-5-5-10v-12l5-10 4-3-1-4-2-4v-9l5-6 8-4v-14l4-10 5-6 8-4 3-1h7l9 5 6 7 3 7 1 13v1l9 3 7 8v10l-5 11 4 2 5 10 1 3-2-23v-10l-3-44-6 5h-6l-5-4-2-4 1-4 31-31 7-8 32-32 7-8 7-7v-68l-3-3v-7l3-4 5-1 5 3 1 2-1 9 4-1h9l18 4h8l9-2 5 1-7 12-2 2 1 4 8 9-3 3-7 2h-16l-12-3h-14l-3 1v37l13 13 7 8 25 25 6 7 12 12 5 2 6-7 8-6h2v-3l-4-2-6-8-2-5v-11l4-8 4-4-4-21-1-19 2-16 4-13 6-10 11-12h2v-3l-10-3v-5l5-2h7l7 2 4-15 6-9 3-2 4 1v14l10-7 17-8 15-5 19-3zm-17 4-17 4-25 10-14 10-4 1 1-10 1-6-4 2-3 3-4 10-1 9-5 1-2-1h-11l1 2 9 4-2 4-8 7-6 8-7 14-2 8v36l3 11 2 4h6l3-2 8 16 4 5h3l1-9-2-32-1-10 2 1 3 9 3-1 4-8 3-10v-23l4 2 12 8 13 4h6l4-4-3-9-4-6 5 2 6 5 20 8 11 1 3-2-1-4-9-10v-2l5 2 14 7 11 3h12l-1-6-7-9-1-3 9 3 9 6 8 6 13 5h6l5 8 5 12 6 19h2l5-20v-17l-4-15-7-11-2-3h11l-2-6-7-7-15-10-17-7-5-2 1-2 11-1v-4l-18-6-12-2zm195 29-6 8-5 15-2 10-1 7 8 4 6 7 2 13-2 1v-9l-7-10-13-7-6-7-6-3-6 1-3 3 1 7 7 7 4 7 3 11 5 6 15 6 15 10 9-1 8-7 6-8 4-11 5-5 10-9 2-4-1-4-5-1-9 5-6 6v3l-5-3-7-6-9-4-15-5v-1l7-2 4-19v-8l-2-3zm22 3-5 5-5 8-7 14 2 4 10 4 6-9 4-10 3-6 1-6-3-4zm-404 8-4 4 2 5 5 1 3-3-1-5-2-2zm421 6-8 7-10 13 1 4 7 5 6-5 9-13 2-3v-6l-2-2zm-421 7v64l3-1v-63zm10 0-5 2v24l4 1h12l12 2h18l4-1-2-5-5-5 1-5 3-5v-2h2v-3l-14 1-18-4zm223 6v3l4 6-1 5-3 2-12-1-14-5-4 1 2 3-1 5-4 2h-7l-16-5-7-4-4 1 1 5-2 4-2 1h-11l-10-3-9-5-4-2v11l-3 16-4 8-7 6 1 35-3 5-5-2-6-9-5-9-9 2-5 5-3 6v9l5 10 8 6 3 1h9l4-2h3l4 6 5 7 8 7 8 6 17 8 12 3 10 1h30l16-2 16-5 16-7 13-9 11-11 7-12 4-15v-17l-2-12-3-7-6-20-6-12-2-2-10-2-6-3-11-7-9-6zm122 42-6 7 1 5 23 12 12 7 5 1 4-6v-6l-7-6-11-6-12-6zm-60 3-3 4-2 8v7l9-6 4-1v3l-5 1-5 5-2 7v11l1 1 8-1 8-5 4-7 1-4v-8l-5-10-6-4zm55 12-10 14-11 18-7 11-7 10-7 11 1 5 8 10 13 18 5 7h4l9-15 4-8 8-14 4-8v-2h2l8-16 9-17 1-6-9-6-16-8-7-4zm-350 5-12 12-7 8-26 26-7 8-33 33 2 4 3 3 5-1 28-28 7-8 40-40 4 1 18 18 7 8 24 24 7 8 4 4 3-1 3-6-1-5-19-19-7-8-27-27-7-8-6-6zm1 19-41 41-7 8-19 19v24l7 93 3 1h10l5 5 2 4v10l1 1h6l1-1 1-8 4-2v-75h54l1 2-1 73 6 3 1 8 7-1v-10l3-6 6-5 2-1v-11l4-13 6-11 4-40v-7l-4-4-1-3v-12l2-13v-5l-6-7-6-5-7-8-26-26-7-8-10-10zm287 19-3 8 1 4 9 4 7 5 5-3-1-5-6-8-8-5zm-6 14-12 13v1l10 2 8 4 4-2 7-8-1-3-9-6zm-188 0-11 7-7 7-5 9-5 14-2 12v11l2 3h2l4-23 2-10 4-7 6-3 7 1 3 2 4 11h2l7-11 8-7 4-3-2-5-6-8zm208 10-10 11-1 6 5 38 1 4 4 3 4 16v9l-4 6 3 3 5 15 1 6-3 6v4l9 16 8 10 2-1-1-8-6-27-5-20-1-10 4-9 7-11 10-14 3-4v-6l-4-6-7-8-10-14-10-15zm-182 5-12 10-6 10-3 12-1 14v10l5-2 12-11 5-4v-14l2-4 10-6 6-2-1-3-9-6-5-4zm145 2-9 6v23l4 26 10-1 3-1 20-2v-9l-2-17-1-14-3-6-7-4-4-1zm-180 5-5 2-5 10-3 12-5 49v11h2l10-13 15-16 1-1 1-18v-24l-3-9-5-3zm163 6-2 6-4 11-6 8-7 6-11 5-4 1h-17l-10-3-10-7-8-10-4-7-5 2-1 3 4 23 1 16 4 5 1 3v18l-3 7-3 4 1 5v7l-1 6-3 12-8 4-9 21-8 14-9 12-11 11-9 6v32l5 8 6 5 10 4 25 5 17 2h51l33-3 26-4 20-4 16-6 10-5 7-6 5-10v-15l-4-23-12-7-12-11-10-11-9-14-6-10-3-4-7-2-3-1-3-13v-15l-8-5-3-8-1-17 2-6-3-25-2-19zm-6 1-9 4-3 8-5 5-5 4-9 3h-11l-10-4-7-6-4-5-9-1-1 3 6 10 7 7 12 5 4 1h15l12-4 8-6 8-10 4-11-1-3zm-102 1-12 4-6 7 1 12 4 26 1 2h33l1-1-1-13-3-20-4-14-8-3zm18 5 2 2 1-2zm67-1-18 3-22 1v3l5 5 7 4 5 1h9l12-6 6-7 1-3zm-337 6-10 6-4 6-2 5v18l-9 3-3 3-1 2v8l4 6v3l-8 7-3 9 1 10 6 8 5 4 14 5h9v-3l-9-13-1-6 5 1 4 4 3-1v-23l2-3 3 1 2 10 2 4 5-7 5-1 1 4-9 14v20l9-1 13-5 7-6 4-8v-7l-4-9-5-6 1-6 3-4 1-7-3-7-6-4-8-1v-16l-5-10-8-6-3-1zm501 2-8 4-6 9-2 5v14l-1 1-9 2-5 5-1 9 4 9v4l-7 10-1 3v9l4 8 9 6 9 4 9 1 1-1 1-13-3-9-6-9-1-5 4-1h2l2 5 4 3 2-12 1-2 4-1 1 28 4-2 5-4 3 1-1 5-4 6v2h-2l-3 6 1 3 11-1 10-4 7-5 5-8 1-3v-9l-4-8-7-6 2-5 3-9-3-6-5-3-5-1v-15l-4-11-9-8-3-1zm-270 16-14 12-23 23-9 11-8 11-7 14-3 10v9l4 9 7 6 9 3h7l19-5 5-3-2-5-4-9-2-10v-16l-18 5-4-1 20-6 6-2 7-3h7l5-7 1-14 3-6-3-24-1-2zm166 12-19 4-6 3-3 4 1 10 3 11 3 3 4-1-3-16v-5l4-2 19-3h5l3 8 3 12h3l1-1v-9l-2-12-4-5-2-1zm41 8-11 17v7l9 38 3 16 4-2 8-5 7-3-5-21-4-16-8-29-1-2zm-41 2-16 3-2 4 1 10 3 10 3 1 13-4 9-1-1-12-3-11zm-154 3-5 3-2 5v13l1 2 5-1 1-13 1-1h23l5 1 1 15 3 4h2l1-5v-17l-4-5-4-1zm-154 6-1 1v53l1 19h4v-69h43l-1 29v40h4v-73zm157 3-1 1v10l25 1v-10l-4-2zm-118 2-34 1v65l2 3h35l1-1 1-24v-43zm-125 9-1 28-8-6h-3l9 12 2 13 6 4h2v-29l8-14v-2h-2l-7 9-2-2-2-13zm501 0-2 15-3 1-6-8-1 3 7 12v27l-2 26v8h12l1-4-2-20v-22l10-15v-2l-3 1-7 8h-1l-1-29zm-253 2-10 3-6 1h-4l-4 9v15l4 13 3 3h16l18-5 4-4-2-4-3-2h-11v-3l16 1 3-3-1-5-8-4-10-1v-1h16l3-4-3-5-10-4zm153 0-14 4-7 3-2 3 1 9 4 12 4 2 9-1 15-4 5-4v-7l-4-13-3-4zm-187 9-4 5-1 5v10l4 15 5 8 7 1 4-3-1-5-5-12-1-4v-20zm-170 8-3 9-5 6-3 3 10 5 4 3v-12l-1-14zm364 14-13 3-1 2 8 15 11 14 9 10 14 12 4 2 4-1v-13l-3-7-8-7-5-6h-2l-2-4-10-18-1-2zm-380 7-8 4-4 5-3 8-1 8h-10l-5 3-3 4-1 7 2 5h83v-7l-4-4-7-2 1-4v-8l-3-5-6-3-5 1-6 2-4-8-6-5-2-1zm-15 3-4 2v8h3l5-8v-2zm250 1-2 2h5l1-2zm189 2-7 4-7 8 1 8 6 7 1 4 1 1 11-1 13-4 3-2-2-11-5-10-6-4zm-475 1-6 3-3 5v9l-9 1-4 4-1 2v8l3 5h34l1-2v-10l4-6 7-3 7-1-4-7-5-4-5-1-6 3h-3l-5-5zm268 1-6 2-7 15-8 13-10 11-6 5-1 2v11l3 5 5-1 11-8 11-12 7-10 6-10 8-19-1-4zm287 0-6 4-3 3-5-4-7 1-4 3 1 19 2 9 1 1h44l3-5v-8l-4-5-7-1-3-1v-9l-4-5-4-2zm-298 1-5 6-10 4-1 8v13l5-4 8-14 4-9zm-75 1-6 8v8l1 5-8 2-4 5v5l1 1h11l2-7 3-12 4-5 3-2-1-5-2-3zm314 3-1 2 3 8 1 9-2 3 1 6 2 3h14l1-3 1-23h-5l-4 2-3-5-3-2zm-259 5-17 6-2 2-1 18v44l2 10 6 10 9 6 5 1-1-5-2-6-1-28-4-3h-2l-1-5v-12l7-8 3-3 1-10v-17zm-46 2-6 4-4 8v15l2 2 13 2h17l2-2 1-7v-15l-1-1-13-2-9-4zm-88 3-1 1v5l2 2h59l1-1v-6l-1-1zm0 11-1 2 3 8h56l2-7v-3zm387 3-2 1 3 11 2 3 5-1-1-6-4-8zm-8 2-12 2-1 1-1 19 2 14v23l8-1 14-7 5-4 4-8v-16l-1-7-3-1h-5l-4-9-3-6zm-290 13-2 6-1 9 5 1 2-6v-9zm-7 0-1 1-1 13v12l2 14 3 6 7 6 8 4 6 2 14 1 1-2-4-4-4-10-1-40-2-2h-12l-2 3-2 11-4 4-5-2-2-4 2-8v-5z"/><path transform="translate(604,378)" d="m0 0h9l8 3 1 4-10-4h-7l-5 1v-3z"/><path transform="translate(513,391)" d="m0 0h6l1 3-9 2-6 4-3 3-3-1 6-7z"/><path transform="translate(607,398)" d="m0 0 9 1 6 4 4 8v3h-5l-4-8-3-2h-8l-5 5-3 9-4-1 1-9 4-6 4-3z"/><path transform="translate(519,411)" d="m0 0 10 2 6 5 2 4-1 5-4-1-4-7-4-2h-6l-5 4-3 10-3 2-2-2v-7l3-7 7-5z"/><path transform="translate(566,422)" d="m0 0h6l4 2 2 4v5l-2 1-3-7-1-1-7 1-3 6-2-1 1-5z"/><path transform="translate(595,442)" d="m0 0 6 1 5 6v11l-5 10-9 8-10 5-8 1h-13l-10-2-10-6-6-7-3-6v-8l5-6 42-1zm0 3-15 5-13 2-15-1h-12l-5 5 1 9 7 8 4-1 6-4 9-3h16l9 3 6 4 4-2 6-10v-11l-2-3zm-32 22-11 4-4 3v3l10 4 5 1h9l12-3 7-5-3-3-11-4z"/><path transform="translate(454,446)" d="m0 0h9l7 5 2 3v3l-3-1-4-5-2-1-9-1z"/><path transform="translate(361,460)" d="m0 0h11l6 3 7 7 3 6v11l-4 8-7 6-6 2h-10l-8-4-7-8-1-4v-13l4-6 7-6zm3 2-7 3-7 6-3 5v10l4 8 5 4 5 2h10l8-4 5-6 1-3v-11l-5-8-5-4z"/><path transform="translate(363,465)" d="m0 0h7l6 3 5 6 1 2v10l-3 6-5 4-5 2-8-1-6-3-4-5-1-3v-9l3-6 5-4zm-1 3-6 4-3 5v9l4 6 5 3h9l6-4 3-6-2-2h-13v-14zm6 0v13h10l2-4-6-7z"/><path transform="translate(316,509)" d="m0 0h33l1 1v33l-2 2h-31l-2-2v-33zm3 2-1 1v13l1 1h12l1-1v-13l-1-1zm16 0-1 1v12l1 2h12l1-1v-13l-1-1zm-17 18v13h13l1-1v-11l-1-1zm17 0-1 1v11l1 1h13v-13z"/><path transform="translate(383,509)" d="m0 0h33l1 1v34l-1 1h-32l-2-2v-33zm2 2-1 1v13l1 1h12l1-1v-13l-1-1zm17 0-1 1v13l1 1h12l1-1v-13l-1-1zm-17 18-1 1v11l1 1h12l1-1v-12zm16 0v13h13l1-2v-11z"/><path transform="translate(656,582)" d="m0 0h7l3 4 2 12-7 3-15 4-4-1-4-13 1-4zm1 3-14 3-1 1 1 11 1 1 9-1 10-2 2-4-3-8z"/><path transform="translate(375,599)" d="m0 0 5 1 2 2-1 6-1 1h-5l-3-4 2-5zm1 3v4l4-1-1-3z"/><path transform="translate(614,633)" d="m0 0h34l8 5 6 12 4 16 2 14v27l-3 9-8 6-8 3-30 5-33 3h-31l-22-2-15-4-6-5-4-10-2-16v-26l2-14 5-10 10-5 10-2 52-4zm17 2-86 6-23 3-6 4-5 8-1 5v11l9 3 29 3h33l31-3 23-4 24-5 3-2-3-14-4-8-6-5-7-2zm29 32-24 6-23 4-8 1-24 1h-35l-21-1-15-2-1 1v5l6 2 26 3h53l27-3 28-5 14-4 1-3-2-5zm-22 16-1 1 1 13 2 4h5l2-4-3-13-1-1zm23-5-15 3v6l3 9-1 5-2 1h-7l-3-1-2-15-1-1-12 1-26 3-54 1-1 2v15l-1 2-7 1-4-2v-10l1-9-1-1-18-2-1 1 1 18 2 10 5 8 5 2 12 3 23 2h26l26-2 27-3 19-5 9-8 2-8v-13l-1-12zm-129 11-2 4-1 13 3 2 5-1 1-1v-16l-1-1z"/></svg>
