<?xml version="1.0" encoding="UTF-8"?>
<svg version="1.1" viewBox="0 0 1024 1024" xmlns="http://www.w3.org/2000/svg"><path transform="translate(353,192)" d="m0 0 4 2 11 9 12 10v2l4 2 22 18 17 14 11 9 15 12 5 5 12 9-1-21-10-1-1-1v-24l1-1h80l1 1v24l-1 1-10 1v71l11 9 16 13 14 11 12 10v2l5 2 11 10 9 7 11 9 15 12 4-2 5-4 7-3 10 1 8 4 5 6 7 14 4 15 3 32 1 3h8v-23l2-16 5-17 6-11 6-5 8-3h7l10 5 7 9 6 12 5 25 2 25 11 9 4 4 4 5v2l4 2 16 24h4l4-2 14 15 1 14 1 1h8l1-13 9-11 6-6 4 2 12 12 1 2 1 14h8l1-13 7-8 8-9 4 2 12 12 1 2 1 14h8l1-14 11-12 4-4 4 2 8 9 5 5 1 15h8l1 1v16l-1 1-8 1-1 1v32l9 1 1 1v16l-3 2h-6l-1 3v11l9 1v3h-76l5 5 9 8 10 5 13 4 11 3 1 2-13-2-12-4-10-5-11-9-9-10-8-11-12-18-7-10-8-12-9-14-7-10-14-21-10-14-13-19-12-16-6-7-12-9-6-3-12-3-20-2h-11l-5 3-2 2 22 2 13 4 12 7 12 11 12 15 18 27 8 11 14 22v2h2l14 22 5 8-1 2-10-14-12-19-7-10-22-33-16-22-9-11-10-9-16-8-8-2-9-1h-21v2l4 2 8 7 10 12 14 21 14 22 6 9v2h2l7 12 8 13 7 10 14 23 1 4-5-5-12-20-18-28-8-12-14-22-6-9v-2h-2l-11-17-9-11-10-9-14-8-16-3-12-1h-17l-5 3-3 6v12l1 2 29 2 11 1 12 6 6 5 10 13 6 10 4 4 11 18 7 11v2h2l12 20 5 7 2 6h2l8 13 9 14 13 21 6 10 7 10 10 14 14 14 11 8 11 6 14 6 19 5 17 1 16-2 18-5 6-2v-2l6-4 2-3h2l2-4-1 5-8 8-10 5-2 10-2 1h-10l-3-2-1-3-13 1h-11l-18-3-1 9-2 3-3 1h-7l-5-3-1-2-1-15-22-13-10-9-5-5-9-10-11-17-7-11-4-6-63-1-2 29-4 5h-6l-4-5 1-15v-14l-56 1-1 3-2 27-3 3h-6l-4-4 1-26 6-112v-17l1-20-4-2v-2h-2l-2 10-4 17-11 44-2 11-8 30-1 119-1 1-177 1-1 9 1 2v10l-2 3-3 2 6 4 7 8 2 4v10l-5 6-9 3h-17l-13-4-9-6-6-5-1-5v-14l-4-2-1-2v-13l-2-9-1-1-7-1-1 15v7l-2 4-5 2v16l-3 6-11 7-10 4-15 2-10-2-7-3-4-6v-8l3-7 8-7 4-5-4-2v-22l-170-1-1-1v-303l-8 6-11 9-4 3-3-1-9-11-10-11 5-5 13-11 12-9 5-5 13-11 14-11 16-13 11-9 10-9 14-11 13-11 14-11 16-13 11-10 14-11 14-12 10-8 11-9 10-8 5-5 13-11 10-8 17-14zm-1 3-10 9-13 11-10 8-17 14-11 9-13 10-5 5-15 13-10 8-16 13-15 12-4 4-4 2-5 5-14 12-14 11-11 9-15 12-5 5-17 14-20 16-16 13-10 8v2l-4 2-2 2v3h2l2 4 4 5h2l2 4 6 5 14-11 14-12 14-11 10-9 8-7 22-18 17-14 13-11 7-6 8-7 11-9 17-14 11-9 12-10 11-9 8-7 14-12 14-11 9-8 11-9 13-11 5 1 13 11 11 9 9 7 5 5 10 9 14 11 14 12 14 11 14 12 11 10 14 11 15 13 11 9 13 11 8 7 13 11 11 9 13 11 11 9 13 11 14 11 4 4 4-2 8-10 4-8v-4l-11-9-16-13-3-1-2-4-32-26-10-8-22-18h-2l-2-4-11-9-17-14-11-9-16-13-26-22-14-11-13-11-11-9-10-9-5-3-5-5-13-11-14-11-7-6zm1 35-12 11-8 7-14 12-10 8-17 14-11 9-16 13-5 5-13 11-10 8-11 9-17 14-13 11-11 10-14 11-14 12-14 11-14 12-8 7-2 2v246l1 1h17l1-1v-18l6 1-5 2v15l1 1h35l1-1v-15l-1-1 3-1-1 19-18 1-1 1-1 17-37 1-1 1v35l1 1h109l1-1 1-259 4-18 10-25 8-11 6-8 9-10 8-7 14-10 14-7 16-6 18-3h30l21 4 14 5 15 8 14 10 10 9 8 9 9 14 8 15 4 12 4 19 1 11 1 248 1 1h108l1-1v-33l-1-1h-18l-1 3-2-3h-36l-1 16 1 1h36v-9h2l-1 10-39 1 1-20 19-1 1-1 1-17 36-1 2-2v-248l-10-9-22-18-7-7-10-8-11-9-17-14-14-12-10-8-3-1-2-4-9-7-9-8-11-9-13-11-9-7-13-11-8-7-11-9-15-13-11-9-10-8-8-7zm105 8-1 1v19l1 1 26 1h42l7-1 1-1v-19l-1-1zm11 24-1 1v24l14 12 10 8 11 9 13 10 3 4 3-1v-31l-33-1-1-20h33l1-1v-13l-1-1zm22 17-1 1v15l1 1h30l1-1v-15l-1-1zm-157 89-16 4-15 6-16 8v2l-4 2-8 6-10 9-11 13-4 6-8 14-6 17-3 11-2 16v249l1 1h17l1-1v-194l-7-7-2-7v-7l3-6 6-5 1-26 3-18 3-10 10-19 4-6 19-19 13-8 14-7 21-5 9-1h12l15 2 20 6 11 6 11 7 13 12 7 9 9 14 4 10 5 16 2 14 1 249 1 1h15l1-1v-258l-3-18-8-20-9-15-11-14-8-8-12-9-8-5h-2v-2l-19-8-13-4-9-2zm16 19-21 3-9 2-16 8-10 6-11 9-7 7-10 14-9 19 1 3 9-13 7-7 16-9 5-2 7-1 1-3-10-4v-3l3-1 12 1 7 4h3l6-8 6-4 6-2h5l-2 4-4 5h37l17 5 18 10 9 8 2 3v3l-4 2 8 8 8 15 3 9 1 6 1 16 5 3 6 4 3 5 1 8-3 9-5 4-5 2-8 1-4 8-2 7h-2l-8 10-12 10-15 7v2l13 7 13 4 6 4 4-1 4-2-2-4-3-5v-8l5-6 2-1h8l6 4 2 4-1 9-5 5v3l7 6 2 9-3 9-5 4-7 3v8l3 9v17l-1 6 6 9v6l-3 5v2l-9 1-5-3h-2l-2 16-7 19-2 12 1 1h42l1-1 1-56v-189l-2-17-5-18-10-19-12-14-14-13-23-12-12-3-10-2zm296 25-9 3-7 8-5 11-4 15-1 14v19l8-5 2-22 3-17 4-9 6-7 7-1 6 3 4 5 6 13 2 13 3 26 6 3h2v-23l-4-20-7-16-4-6-6-5-8-2zm73 0-9 3-7 8-6 15-3 15-1 8v21l4-2 5-4v-15l3-18 5-14 6-7 7-1 6 4 5 6 6 21 2 12 2 17 5 3h3v-13l-4-28-6-16-1-2h-2l-2-5-5-5-8-3zm-384-5-10 6-5 6-2 4-4-2-6-4-3-1h-9l1 3 9 5h2v2l-9 1-11 4-14 9-9 9-6 11 2 1 4-1-8 14-3 13 1 13 6 17h4l5-10 6-10 8-20v-2h2l-1 14h3l6-8 4-8 2-10 1-8 2 3 6 10 7 7 11 6 8 1-1-4-6-7h-2l-2-5-2-8 5 5 7 8 7 6 10 5 10 2 4-1v-3l-7-9-2-4 11 8 10 5 9 1v-4l-6-11v-2l5 1 9 5 8 6 6 5 10 13 7 12 3 7 3-3 2-9v-17l-3-12-7-14-9-10-5-5h7l-2-5-8-7-11-7-19-7-11-2h-19l-15 3 3-5 4-4v-2zm312 15-6 3-5 8-4 12-2 20v11l1 1 27 2 11 1v-9l-2-20-5-16-6-9-4-3zm73 0-5 3-6 9-4 15-2 13v13l1 1 31 3 6 1 1-3-2-19-4-19-6-12-5-4zm-132 6v132l4 1 1-1 1-15 13-14 3-9 2-11 6-23 1-25 2-16v-7l-5 5-3 2-12-10-11-9zm-332 32-3 8v12l7-14v-3zm46 2-2 6-2 8-5 8-5 6-4 1-2-4-7 15v2h-2l-8 15v2h-2v9l3 12 6 11 7 8 13 9 10 5 20 6 13 2h20l6-5 2-1h10l6 2 16-6 11-7 10-9v-3l3-1 6-10 2-7 2-8v-11l-8-16-7-11-9-10-9-8-11-6h-3l2 5 4 7-1 4h-7l-11-3v-2l-7-4 2 4 4 4v2l-3 1h-8l-11-3-10-6-7-7-1 2 7 8 4 5-12-1-12-6-3-3h-2l-2-4-5-7zm-50 18v5l2-1-1-4zm0 15v9l2 1v-10zm182 9-3 10v5h2l4-4 5-1v2h-5l-3 4-3 5-1 8 1 1h6l8-5 3-3 1-3v-10l-4-6h-2v-2l-2-1zm-182 2-6 3-4 6-1 7 4 8 6 5 4 2h5l2-2-1-8-3-1-1-5-5-3-3 1v-2l8 2 3 1-3-10-2-4zm373 0-1 1-3 60v18l-1 2v16l-4 70v7l2 3h5l2-2 2-25 6-112v-17l1-20-1-1zm13 0-3 3v9l1 1h15l25-1-5-5-8-4-14-3zm20 14-22 1-1 1v6l1 1h47l1-2-6-7zm-22 10-2 2v6l4-2 4-5-1-1zm10 0v3l11 11 3 4h8l8-8 7-8v-2zm-3 3-9 9-1 5 1 1h22l-2-5-10-10zm41 0-12 13 1 2h16l5-1v-6l-7-8zm116 0-3 3 2 5 3 1 2 5 8 12 3 1v-14l-9-9-3-4zm41 0-12 13v39l8 11 9 14 7 10 2 3h2v-76l-9-10-4-4zm43 0-12 13v102h26l1-12v-89l-9-10-4-4zm42 0-10 10-3 4v100l1 1h26l1-1v-101l-11-11-1-2zm-322 4-9 9v29l2-1 3-14 5-20zm-352 1v193l1 1h34l1-4-3-13-4-6-3-9v-32l3-8-1-5-4-8-3-11-3-2v-8l3-10 6-12 9-10 8-6 14-7v-2l-16-6-11-8-7-6-5-7h-2l-2-5-4-9zm444 9v8l-1 3-3 38-2 30v19l-2 19-1 16 2 3h6l2-3 5-71v-12l1-14v-12h2v5l5 1 1-1v-10l-2-2h-3v5h-2v-13l-6-9zm-62 3-1 1v5l1 1h59l2-3v-3l-2-1zm0 9-2 6v10l1 1h24v-17zm26 0v2h8v-2zm12 0-1 1v15l1 1h20l1-7v-9l-1-1zm-83 4-1 1v12l4 1 1-1v-12zm270 0v14h9l1-1v-12l-1-1zm43 0-1 1v12l1 1h9v-14zm41 0-1 3v10l1 1h7l1-1v-12l-1-1zm-284 1v11l1 1h9v-12zm165-1-7 1 1 4 6 9h3v-13zm-396 6-5 5-1 2v6l4 6 2 1h8l5-3 2-5-1-7-6-5zm285 3-1 75 1 1h26l1-1v-35l-18-28-7-11zm-349 6-6 4-4 6v9l4 7h3l-1-4-2-3v-6l3-5 5-2 6 1 3 3h5l1-2-3-5-6-3zm270 0-2 2v6l1 1h56l3-2v-6l-1-1zm-45 1-1 1v21h2l3-11v-10zm117 0-2 5-2 29 1 1h7l1-1v-33zm154 0-1 1v33l1 1h8l1-1v-33l-1-1zm42 0-1 1v33l1 1h8l1-1v-33l-5-1zm-522 1 2 5 1-4zm-65 1-1 1 1 31 3 4 6 1 6-4 1-6-1-23-8-3zm-5 1-14 7-12 11-7 9-4 10v2l10-2 11-1 11 2 5-1 1-1 2-10v-14l-1-12zm76 0-1 4 1 1h7l-1-3zm-51 3 4 4 9 2 5-3v-3zm28 1-4 4v7l4 3 8-7 3-2-1-4-1-1zm-31 1v14l2 5h22v-3l-3-5-2-6-10-1-7-4zm54 1-11 4-8 6-6 9-3 8v8l3 9 6 8h2v-11l6-8-4-4 1-7 3-2h9l1 10 1 1 10 2 5 2 3-1 3-5 2-1h6l3 4v6l-2 3-6 2 1 3v8l-1 4 3 2 4-1 8-6 4-8 1-4v-15l-4-10-4-5-11-7-12-4zm247 0-1 1-1 17 1 1h24l1-1v-17l-1-1zm27 0-1 1v17l1 1h8l1-1v-17l-1-1zm12 0-1 1v17l1 1h17l2-3v-15l-1-1zm-244 4-5 3-1 4h13l4 4 1 2v6l-4 6-4 2v2h5l6-5 3-9-3-9-6-5zm1 7-3 2 2 6 5 9 5-2 1-8-3-5-3-2zm-96 9-4 9-4 2-7-1-4-3h-2l-2 11v7l10 8 5 3 3-1v-16l29-1 1-2v-16zm41 1-2 3 1 6 3 2v-3l-1-5 1-1h6v-2zm257 0v7l1 1h57l2-5-2-3zm-249 2v6l2-1-1-5zm-4 1v4h2l-1-4zm325 4-1 1-1 12 2 2h7l1-1v-13l-1-1zm199 0-1 1v13l1 1h8l1-1v-13l-1-1zm41 0-1 3v10l2 2h6l1-1v-13l-1-1zm-534 1-4 5 1 5 3 2 6-1 2-2v-7l-2-2zm451 0-1 1v11l2 2h7l1-1v-12l-1-1zm-479 0-2 2h3zm361 1v12l1 1h7l-1-4-5-9zm-112 1v17l1 1h26v-18h-12l2 3v6l-6 1-2-2 1-6 1-2zm30 0-1 1v10l1 1h8l1-1v-11zm12 0-1 1v16l1 1h16l1-1v-6l-7-1-1-1v-5l2-4zm16 0m-397 0-14 2-5 3-1 2v7l15-5h22l1-5-7-3zm90 2-6 3-5 6-1 6 4 8 8 5 11 3h9l4-5 5-5v-7l-6-8-6-5-3 1 4 3v5l-8 4-1 6 5 1h3l-2 1h-8l-7-2v-3l4 3 3-1 1-6-4-5v-6l7-1v-1zm261 0-2 2 1 4 4 1 1-5zm42 0-2 2 1 5 5-1v-4zm-297 3-1 5 3 3h7l2-2-1-4-4-2zm-57 4-1 1v14l4-1 10-4 17-4-2-6zm-44 1-10 3-1 1 1 12 5 10 3 1 2 4 7 6 11 5 13 4 12 2 10 5 3 1h7v-4-1h6l2-3-5-4-1-2 7 1 1-5-6-2v-2l5-1v-4l-6-2-4-2 2-3-1-5-6 2-6 3-5-1-16-8-5-4-5-6-3-1zm375 3-2 4 1 1h8l1-4-3-1zm42 0-2 2v14h9l1-1v-13l-2-2zm40 0-1 1v14l1 1h9l1-15-3-1zm121 0-1 3 5 7h1l1-7-2-3zm39 0-2 1v15h9l1-1v-14l-3-1zm-473 2-7 10-6 5-1 3-6-5-4 2 1 5h2v2h-6l-4 3 2 4 5 1v2l-7 1 1 5 6 1-4 2 1 5h6l-1 5 5 1 10-7 6-9 4-9 1-4v-16l-2-7zm-72 2-12 2-15 6 1 3 4 1 10-4h6l-1 8 4-2 9-8-1-5zm397 2v10h6l-1-4-3-6zm-125 1-1 1v6l1 1 57-1 2-2-1-5zm-266 4-7 6-1 4 4 3-1 5v3l1 5-3 3v6l-5 2-3 5-1 2 5 5 7 6 13 4h10l10-4 7-6 4-7v-3l-4-1 1-6-4-4 1-4 2-3-2-3 1-4 4-2v-1l-16-2-10-4-9-5zm-80 17 1 2zm-3 4-3 9v18l3 1 8-4 8-9 3-7-6-5-5-3zm151 3-7 12-1 3 4 4 6-1 4-4 1-2v-6l-4-6zm-130 5-3 5-6 9-8 5-7 3 3 12 6 12 3 21 2 5 12 3 9 1h19l8-1 2-5 4-18-8-3 1-1 4 1h14l3-1v2l-7 1 2 13 1 7 4 4 10 1h12l18-2 5-2 2-4 5-25 5-12 2-10v-7l-2-1-4 2h-9l-5 8-6 5-2 6v23l-2 4-4 2h-11l-8-5-2-6 3-12 2-5-1-5-9-2-12 13-5 3h-8l-6-4-4-6-1-4 1-7 5-4 10-3 2-1v-3l-9-4-4-2-15-3zm-182 4-1 1v15l1 1h35l1-1v-15l-1-1zm430 2v16l1 1h35l1-1v-15l-1-1zm-206 8-4 3-10 3v2l5 3 3 4h2l2 12 4-1 9-9 3-5-9-8-3-4zm-18 9-2 2 1 8 4 6 5 4 5-1 1-1-1-9-5-7-5-2zm62 6-16 2-4 9-2 10 5-1h10l6 4h3v-15l1-8zm-16 21-6 3 1 4 4 4 4 1h9l5-3-1-5-8-4zm-24 1-3 6 1 3h5l1-1-1-7zm487 1v14l4 3h7l3-2v-10l-5-3-7-2zm71 3-9 3-1 3 4 3h6l3-2v-7zm-615 19-2 2v6l5 5 18 2h16l13-2 1-10-1-1h-29zm113 0-20 2h-16l-10-1-2 3v7l2 2 11 2h15l18-2 6-3v-9zm-109 14v2l13 7h3v-3l-10-5zm104 0-10 4-4 3 1 3 15-8zm-89 2 2 4 1 4-6 5 1 5 3 7 9-3 10-5 5-5v-8l-2-4zm54 0-2 4v7l5 5 10 6 9 3 5-10-2-4-5-4 1-4 2-1v-2zm-74 2v2l12 5 2 2 4-1-4-4-8-4zm112 0-10 4-2 2v3l4-1 12-6v-2zm-114 4-5 3-4 8 1 4 8 5 6 1h9l5-1-1-8-6-8-6-3zm117 0-9 4-5 6-2 9 6 2 13-1 10-4-1-9-6-7zm-41 10v3l7 6 15 7h23l8-6-1-2-8 3-6 1h-9l-14-4-13-7zm-32 1-16 8-12 3h-11l-12-3 2 4 6 3h22l10-4 11-7 2-4z"/><path transform="translate(349,271)" d="m0 0h8l13 3 10 6 8 8 5 8 3 9 1 11-3 14-6 12-7 7-10 6-6 2h-23l-9-4-9-7-7-8-5-10-1-8-1-11 1-5 5-12 8-10 9-6 11-4zm2 2-14 3-9 6-5 4-7 11-3 8-1 13 3 12 4 7 9 10 9 6 10 3h14l13-5 9-7 7-9 4-12v-16l-3-11-6-9-5-5-10-6-14-3z"/><path transform="translate(347,281)" d="m0 0h12l11 4 8 6 2 2v3h2l4 10 1 11-3 12-6 9-7 6-13 4h-8l-12-3-11-10-5-8-1-6v-13l2-8 8-11 10-6zm4 2-1 1-1 26-26 1-1 1v5l3 2 24 1 1 25 5 1 3-3v-23l25-1 1-1v-7l-25-1-1-1-1-26zm-7 1-9 5-7 7-4 6-1 6 2 1h22l1-1v-17l-1-7zm16 0-1 1v23l1 1h23l1-2-5-12-8-7-8-4zm-36 37-1 2 6 12 3 1 2 4 9 5h5v-24zm36 0-1 1v22l1 1h5l10-7 5-6 4-9v-2z"/><path transform="translate(335,434)" d="m0 0 9 1 9 4 3 2v2l4 2 2 4-4-2-7-6-6-3-9-2z"/><path transform="translate(368,436)" d="m0 0h7l8 2 8 4 11 9 7 10h-3l-7-9-7-6-12-6-12-3z"/><path transform="translate(288,445)" d="m0 0h2l-1 3-9 6-7 10-3 6h-2l1-5 5-8h2l2-5z"/><path transform="translate(173,461)" d="m0 0h13l9 3 10 6 7 7 7 12 2 10 1 107 5 2v15l-1 1h-93l-1-1v-15l5-2 1-21v-79l2-16 3-6 8-11 12-9zm1 2-10 3-11 7-4 5-5 8-4 12v108l1 1h77l2-3-1-108-4-11-8-10-7-6-10-5-5-1zm-40 146v12h91v-12z"/><path transform="translate(521,461)" d="m0 0h13l13 5 9 7 7 10 5 14 1 109 6 2v15l-1 1h-93l-1-1v-16l4-1 1-108 5-14 1-2h2l1-4 4-5 5-4h2v-2l11-5zm0 2-11 4-9 6-7 8-5 11-2 7v107l1 1h77l1-1v-108l-3-12h-2l-2-5-7-9-12-7-7-2zm-39 146v12h90l1-1v-10l-1-1z"/><path transform="translate(172,472)" d="m0 0h16l7 3v2l4 2 8 8 4 12v99h-63v-96l3-12 4-6 8-8zm5 1-2 2-1 60-24 1-1 7 25 1 1 52 1 1h6l2-2v-51l25-1v-7l-24-1-1-60-2-2zm9 1-1 1v58l1 1h23v-34l-2-8-6-9-7-6zm-16 1-10 6-6 8-4 10-1 6 1 29h23l1-2v-56zm-20 71v50l1 1h21l2-3-1-48zm36 0-1 1v48l2 2h21l1-1v-49l-1-1z"/><path transform="translate(519,472)" d="m0 0h16l9 5 6 5 7 12 2 9v95h-63l-1-1v-11l-1-2v-79l3-12 5-9 7-7zm5 1-1 1-1 61-24 1-1 1v6l25 1 1 52 1 1h5l1-1 1-52 25-1 1-1v-5l-1-1-25-1-1-61-1-1zm10 1-1 1v58l1 1h22l1-1v-28l-2-10-5-10h-2l-2-4-9-6zm-17 1-9 6-7 8-4 10v34l1 1h22l1-1v-58zm-19 71-1 1v49l1 1h21l1-1 1-29v-20l-1-1zm36 0-1 1v49l1 1h21l1-1 1-16v-33l-1-1z"/><path transform="translate(272,477)" d="m0 0h2l-2 5-5 10-2-1 1-5z"/><path transform="translate(306,506)" d="m0 0h6l5 5v7l-5 5-7-1-4-5v-6zm-1 3-1 5 4 1 1-5z"/><path transform="translate(379,506)" d="m0 0h7l5 5v6l-5 5h-7l-4-4v-7zm5 3-1 4 4 1 1-4z"/><path transform="translate(342,518)" d="m0 0h9l3 4v4h-2l-2-5-1-1h-5l-3 5h-2l1-5z"/><path transform="translate(391,524)" d="m0 0 9 1 5 5 2 5-1 7-5 7-2 1h-9l-6-4-3-5v-9l4-5zm0 2-6 3-2 4v7l4 6 4 2h7l5-4 2-5-2-9-4-3z"/><path transform="translate(296,525)" d="m0 0h7l6 4 3 5v9l-3 5-4 3-6 1-7-3-4-4-1-3v-7l2-5 5-4zm0 2-6 4-2 5 1 7 5 5 2 1h8l5-4 2-4-1-9-7-5z"/><path transform="translate(369,540)" d="m0 0h2l-2 4-11 6-4 1h-15l-12-6-3-2v-2l5 2 7 4 4 1h14l10-4z"/><path transform="translate(641,564)" d="m0 0 6 1 2 3-1 5-2 2h-5l-3-3v-5zm1 2-2 5 2 2 4-1-1-5z"/><path transform="translate(683,564)" d="m0 0 5 1 2 2v6l-2 2h-5l-4-4 2-5zm1 2-2 2 1 5 5-1 1-4-2-2z"/><path transform="translate(841,564)" d="m0 0 5 1 2 2v6l-2 2h-5l-3-3v-5zm0 2-2 4 2 3 5-1-1-5z"/><path transform="translate(883,564)" d="m0 0 5 1 2 2v6l-2 2h-5l-3-3v-5zm1 2-2 2 1 4 4 1 1-5z"/><path transform="translate(925,564)" d="m0 0 5 1 2 2v5l-3 3-6-1-2-5 2-4zm0 2-1 1v5l5 1 2-2-1-4z"/><path transform="translate(321,604)" d="m0 0 5 1 2 3-1 5-2 2h-5l-3-3v-5zm0 2-2 2 1 5h5l1-5-2-2z"/><path transform="translate(828,617)" d="m0 0 2 1v2h2l8 13 8 12v2h2l1 5h2l7 11 9 11 8 9 13 10 10 6 13 4 11 2-1 4-6 5-13 6-13 3h-17l-6-3-3-7-2-10 1-4 3 9 2 9 5 3h16l16-4 12-6 2-3-11-2-13-5-12-8-11-9-10-11-12-17-7-11-13-20-3-5z"/><path transform="translate(409,619)" d="m0 0h5l1 1v6l-5 1-3-3 1-4zm1 2 1 3 2-2z"/><path transform="translate(723,620)" d="m0 0h6l3 3-1 5-2 2h-5l-3-4 1-5zm2 1-1 1v5l4 1 1-1v-5z"/><path transform="translate(882,620)" d="m0 0h6l2 1v7l-2 2h-5l-3-3v-5zm2 1-2 2 1 4 4 1 1-5z"/><path transform="translate(925,620)" d="m0 0h5l2 2v5l-3 3h-5l-3-4 2-5zm0 1-1 1v5l5 1 2-4-3-3z"/><path transform="translate(782,627)" d="m0 0 5 5 12 20 8 11 1 3 4 2 11 11-5-2-11-10-9-12-6-9-9-15z"/><path transform="translate(925,678)" d="m0 0 4 2 4 7 1 13-2 8-1-4v-16l-5-8z"/><path transform="translate(823,679)" d="m0 0 6 2 12 5 16 4 5 5 1 4-7-6-4-2-14-3-11-5z"/></svg>
