<?xml version="1.0" encoding="UTF-8"?>
<svg version="1.1" viewBox="0 0 1024 1024" xmlns="http://www.w3.org/2000/svg"><path transform="translate(533,271)" d="m0 0h7l8 5 4 5 2 6 1 14-2 18v2l9-9 10-6 5-2h10l6 4 4 5 1 2v11l-4 8-11 12-11 10-8 7-5 5-9 11-6 10-1 4 18 5 12 6 9 8 6 9 4 15 1 8v24l-3 33-4 34-7 41 1 6 7 10 10 14 7 12 10 15 7 11 6-1 10-7 11-7 14-11 6-24 8-16 7-12 3-4h2l2-5 10-13 13-23 3-10 5-16 3-12 5-15 8-16 13-13 14-7 12-3h7l-2-20-6-15-2-6 5-6 5-2h10l5 3 3 9 2 10 10-9 13-5 4-1h17l21 5 5 3 1 4-7 10-9 10-11 7-11 4-7 1h-11l-17-4 1 4 13 4 10 5 12 12 6 12 6 18 2 9 1 11 5 23 6 17 6 11 10 17 6 10 8 19 4 16 1 21 12 15 10 13 8 12 9 9 6 12v10l-4 7-5 4-2 1h-10l-6-4-4-3-8 1-5-4-1-2v-9l3-8-1-7-6-11h-2l-4 9-6 12-9 11-10 10-15 10-17 8-13 4-22 3h-24l-25-3-16-5-16-7-14-9-10-8-10-11-9-15-5-10-4-17v-2l-11 7-15 11-3 9-6 8-5 3h-10l-8-4-5-6-6-7v-9l2-8-1-5-10-18-12-20-4 15-5 21-5 18-6 17-3 10-10 21-9 12-7 6-7 2-7-3-7-6-8-12-10-24-8-29-6-27-1-9-1-10h-2l-2 5-12 23-4 8 1 9 1 4v8l-3 5-3 1-2 6-7 5-3 1h-11l-7-4-6-11-1-8-8-8-14-11h-2l-7 17-6 9-6 10-11 13-10 9-11 7-15 6-9 2h-19l-14-3h-14l-19 5-7 1h-12l-15-3-19-9-10-9-6-5-7-8-7-9-10-16-4-8h-3l-10 12-7 12 1 9 1 13-3 5-2 1h-7-4l-5 4-11 2-8-3-4-5-2-5v-9l4-10 7-8 6-4 9-13 8-9 7-8 12-13-4-19-1-9v-23l3-17 6-18 9-15 9-10 9-8 16-9 11-5 18-3h22l17 2 1-2-19-1-16-5-11-6-11-10-7-10-5-10-5-15-1-5v-7l1-1h22l12 2 13 4 11 7 8 7 4 5v2h2l5 10v3h3l1-6 8-15 4-3h7l10 5 4 6-1 6-9 11-5 9-5 12-1 6 11-2 10-2 17-1 16 2 17 5 13 7 11 8 9 9 7 10 8 15 3 9 4 22v24l-3 20 13 11 17 12 3-3 9-15 8-14 10-17 8-13v-9l-4-33-4-36-1-16v-32l3-20 5-15 8-10 8-6 10-5 17-5-1-6-6-10-5-7-5-5-13-14-9-14-4-9v-12l4-6 6-5 4-2 9 1 9 6 9 10 5 8 1-3 2-18 3-12 8-16 8-6zm1 6-7 5-7 10-3 10-2 13v38l4 31 2 7 5 1 2-6 3-15 8-25 8-33 1-5v-19l-4-8-3-3zm-59 33-6 3-2 4v9l5 12 6 8h2l2 4 4 6 6 5 11 15 6 12 1 3 5 1v-7l-6-34-4-11-10-18-10-10-6-2zm101 1-11 7-7 7-7 10-9 16-7 22-3 13v5l4 1 8-15 7-9 9-10 13-12 8-7 7-8 3-6v-9l-4-5zm211 74-6 2v4h8l4-3v-2zm6 7-4 2-6 1 1 6 4 15 1 17v11h3l2-9 2-12v-23l-1-7zm41 0-13 4-10 6-7 8-1 4 6-2 13-6 14-3 7-1h6l-16 3-16 6-13 7v3l11 4h18l13-5 11-8 7-8 2-5-4-3-17-4zm-319 7-14 2-13 3-13 8-8 9-2 5 31-1v2h-11l-20 4-3 2-2 9-1 20v16l1 31 5 40 3 18 2 3 25 3-7 1-18 1 1 13 2 18 7 37 3 3 22 2v2l-22 1v8l7 24 7 19 9 17 4 5 5 3h6l7-6 9-15 4-8 2-5v-3l-19-2v-2h16l6-2 5-13 8-29 5-21v-5l-19-2h-5v-2h16l8-1 2-2 9-47 1-15-17-2h-7v-2h18l7-1 3-15 5-38 2-29v-9l-4-3-16-4-14-2 6-1 17 1 9 1 1-4-3-12-5-9-7-7-12-7-18-4-9-1zm-331 28-1 5 3 12 7 14 6 8 7 7 14 8 4 2 16 2 9-1-6-9-9-10-8-8-13-10-10-7 3 1 11 6 14 10 14 14 6 8h2l-2-11-4-9-6-10-8-8-9-5-8-4-15-4-8-1zm593 9-11 2-10 5-11 10-7 10-8 24-6 22-6 16-9 17-12 17-12 16-6 10-4 11-3 7-4 18v26l4 17 8 19 12 16 7 5 5 5 9 6 17 9 22 6 20 3h22l20-3 22-7 14-8 11-8 11-11 8-13 6-12 4-17 1-7v-24l-3-16-5-16-12-22-7-11-11-23-4-15-8-41-4-13-6-10-7-8-10-7-12-4-4 1-1 7 1 1 9-1-1 2-8 2h-11l-9-3-5-4 8 2 2-2v-6zm-505 8-1 2 4 4 6 2h4l-1-4-7-4zm-3 5-4 5-6 20-2 12v19l2 7h3l2-18 4-16 10-18 2-4-9-6zm24 46-25 5-1 1v11l4 1 14-4-5 4-9 4h-23l-14-7h3l11 3 5-1-1-10-6-2-16-2h-17l-18 4-15 6-10 7-12 11-7 8-10 21-3 12-1 13v18l1 14 5 19 8 21 9 17 7 10 9 11 11 11 13 9 11 4 7 2 16 1 25-5h20l13 2h15l12-2 16-8 11-8 5-5 8-10 9-14 8-16 5-13 6-22 3-21v-14l-2-16-4-14-4-10-6-11-9-11-12-10-16-8-11-4-9-2zm171 93-3 3-15 27v2h-2l-13 24-5 5-1 3-3 1v2l-3 1-4 8-1 6 4-2 8-5h8l6 3 3 4h2v-7l-3-8 1-6 8-16 8-15 8-14-2-16zm113 2-2 4-1 9 18 30 5 8 5 10-1 8-2 11h4l5-6 3-1h8l7 4h2l1 3 2-1-4-11-4-5-7-5-8-13-9-14-14-21-7-10zm-186 37-4 11 1 4 16 13 5 4 3-1 5-8 1-4-13-9-10-8h-2v-2zm268 1-16 12-14 9v3l4 7 1 3 5-1 19-14 4-3v-16zm-522 7-13 14-11 14-2 4-3 1-5 8-8 6-5 7-1 3v11l4 5 7 1 5-2 5-6 2-4h2l4 6 3-1v-9l-3-12 7-10 7-11 10-12-1-5-3-8zm760 12-2 16 12 20 1 6-3 9v7h4l3-4 3 1 5 8 4 3h7l4-4 1-2v-10l-5-10-8-7-8-13-4-4-8-11-4-5zm-468 20-7 4-3 6 1 4 5 3 9-1 5-4-1-7-4-4zm183 1-5 5-1 5 3 4 6 2h6l4-3v-6l-5-6-2-1z"/><path transform="translate(482,461)" d="m0 0h6v4l-12 6h-3l3-6z"/><path transform="translate(557,460)" d="m0 0 8 4 4 6v2l-4-2-5-3-7-3z"/><path transform="translate(487,474)" d="m0 0 9 1 7 5 4 8v10l-2 7-5 6-6-1-7-2h-13l-1-5-1-3v-12l6-9 6-4zm-1 4-6 4-3 4-1 3v10l3 6 4-1v-13l3 2 5-1 1-4-3-4 7-3v-2l-2-1z"/><path transform="translate(550,474)" d="m0 0 8 1 7 4 5 10v10l-2 9h-12l-13 4h-2l-6-13v-10l5-10 6-4zm-1 4-4 2v2l9 1-2 3v6l4 1 3-1 1 7-1 5 4 1 3-6v-10l-3-6-5-4z"/><path transform="translate(519,508)" d="m0 0 7 1 4 6-1 2h-2l-2-4-6-1h-2l-2 5h-2l2-6z"/><path transform="translate(183,520)" d="m0 0 5 1 3 3v6l-13 13-6 10-6 12-2 2h-6l-4-4v-7l10-19 9-10zm1 3-8 6-8 8-3 4v2h-2l-6 14v6l1 1h5l9-17 8-10 8-7v-5z"/><path transform="translate(498,521)" d="m0 0 2 1 1 5 11 4 11 1 11-2 7-3 1-5h3l2 7 3 1v2l-7-1-9 4-4 1h-17l-11-4-4-2-6 1 4-6z"/><path transform="translate(311,543)" d="m0 0 9 1 2 1v2l4 2 5 6v3l-4-2-4-3-13-4-1-4z"/><path transform="translate(206,548)" d="m0 0h6l2 4-12 5-8 7-1-3 4-7 6-5z"/><path transform="translate(731,554)" d="m0 0h8l2 4-8 3-12 6 1-5 4-5z"/><path transform="translate(823,557)" d="m0 0 8 1 8 7 1 6-9-6-9-3v-4z"/><path transform="translate(306,562)" d="m0 0h7l8 3 6 5 5 8 1 3v15l-2 8 1 3h-13l-14 3-9 3-8-11-2-8v-12l3-9 4-5 6-4zm-2 4-6 4-1 2h7l6 2-2 4-1 1v6l2 2h5l5-3 1 11-1 7 5 1 4-6 1-4v-8l-3-9-6-7-6-3z"/><path transform="translate(211,566)" d="m0 0h11l8 4 7 8 3 8v14l-6 12h-2l-1 4-13-4-12-1-11 1 1-6-2-6-1-10 3-12 6-7zm3 4-8 3-6 7-3 9 1 10 4 8 5 1 1-5v-14l5 2 5-1 1-1v-6l-5-6 14-2-4-3-4-2z"/><path transform="translate(735,571)" d="m0 0h11l8 4 5 6 3 13-2 12-4 7-2 4-2 2-7-4-11-3h-15v-2h2l-3-10v-10l3-7 6-8zm0 4-6 4-4 4-2 6v13l2 5 2 2 5-1-1-5v-12l6 3 4-1 1-1v-6l-3-2v-2l5-2 6-1-2-3-3-1z"/><path transform="translate(154,574)" d="m0 0 6 1 2 2v9l-3 3h-7l-3-4 1-8zm1 2-4 4 1 5 2 2 4-1 2-2v-6z"/><path transform="translate(815,574)" d="m0 0h8l8 3 7 8 2 7v15l-3 8h2v2l-8-1h-11l-16 4-2-5-4-6-2-8 1-10 4-8 9-8zm-1 4-5 3v1l9 2 3 1-4 5v5l5 3 6-3-1 17h5l3-4 2-7-1-10-2-5-4-4h-2v-2l-4-2z"/><path transform="translate(262,607)" d="m0 0h6l6 4 2 6-3 1-4-6-7-1-4 3-2 4-2-1 1-5 5-4z"/><path transform="translate(776,614)" d="m0 0 7 1 5 6v4h-3l-2-5-2-1h-6l-3 3-1 3h-2l1-7 3-3z"/><path transform="translate(297,629)" d="m0 0h7l5 3 2 4-1 7-5 10-7 8-9 6-13 5-7 1h-10l-12-3-10-4-10-9-4-5-4-8v-6l5-6h11l22 2 18-1 14-2zm-2 4-17 4-6 1h-22l-19-3-6 1-2 6 6 11 4 4 5-1 9-4 11-1 7 1 3-1h16l9 4h4l6-7 3-6v-7l-2-2zm-25 21 5 6-9-4-6-1h-12l-8 3-1 4 10 5 6 1h18l9-2 9-6v-3l-6-2-4-1z"/><path transform="translate(749,630)" d="m0 0h3l2 7 10 5 4 1h23l12-5 1-6h2l4 8 3 2v2l-9-1-14 5-14 1-14-3-10-4-5-1-5 1 1-3 4-3z"/><path transform="translate(692,656)" d="m0 0h5l4 5 4 11 8 11 7 6 2 3-1 5-5 4-6-2-10-9-9-14-3-8v-8zm-1 3-1 7 5 12 8 10 8 8 6 1 2-2-1-4-11-11-5-8-5-12-1-1z"/><path transform="translate(859,673)" d="m0 0 6 1 2 3v6l-6 10-7 8-14 9-4 2h-5l-4-5 1-6 8-5 6-4 7-6 7-11zm0 3-4 5-6 8-9 8-10 6-1 3 2 3 7-1 12-8 8-8 5-7 1-8z"/></svg>
