<?xml version="1.0" encoding="UTF-8"?>
<svg version="1.1" viewBox="0 0 1024 1024" xmlns="http://www.w3.org/2000/svg"><path transform="translate(532,290)" d="m0 0h8l8 6 4 6 1 8v13l-1 11 10-8 9-5h13l7 6 2 4v11l-3 6h-2l-2 5-10 9-5 6-8 7-8 8h-2l-2 5-1 2h-2l-2 5-3 7 17 5 13 8 7 7 2 5h2l3 12 1 6v31l-1 12-1 17-5 36-5 28 1 8 10 14 7 10 9 15 8 12 3 4 7-1 15-10 9-7 6-5 4-16 4-11 5-9 8-14 4-3 4-7 9-13 9-16 3-10 7-24 5-15 6-12 9-10 6-5 8-5 5-2 15-2-2-18-3-9-3-8 1-4 5-5h15l3 4 3 9v5l5-3 5-4 14-5h19l19 5 4 4-2 5-8 11-9 8-10 5-5 2h-24l-9-3v3l11 3 11 6 12 12 6 14 6 19 2 18 5 20 8 19 9 14 10 18 5 14 3 11 2 22 10 12 11 15v2h2l6 8 7 8 4 9v12l-4 6-4 3h-13l-7-5h-8l-5-5v-10l2-6-1-7-5-9-2 1-8 17-7 9-5 5-5 6-16 10-15 7-14 4-14 2h-30l-21-3-18-6-12-6-11-7-12-11-7-7-7-13v-2h-2l-4-10-3-13-10 5-13 10-3 9-6 7-3 2h-11l-8-5-9-10v-12l1-7-8-16-8-13-3-5-2-1-2 10-3 13-4 16-7 22-5 14-8 17-10 13-6 4-8 1-10-7-4-6v-2h-2l-5-10-8-21-4-16-7-29-2-18h-2l-2 6-9 16-4 10 1 9v11l-6 7-3 5-6 4h-13l-6-5-5-9-3-9-5-5-11-9-3-1-10 20-6 9-3 5-12 14-12 9-15 7-9 2h-23l-4-1h-23l-15 4h-19l-12-3-12-5-8-6-15-14-8-10v-2h-2l-10-17-2-4-3 1-9 11-5 9 1 10v12l-3 4-12 1-6 4-10 1-6-3-4-5-2-5v-7l5-12 7-7 6-5 6-9 8-8 9-11 7-7-1-9-3-16v-25l3-15 7-19 8-12 15-15 9-5 16-8 3-1 11-1h20v-2l-12-3-12-7-9-8-9-14-5-12-2-8v-10l1-1h23l13 3 12 5 9 7 10 11 4 9 1 1 8-16 4-5h9l9 6 3 4-1 6-9 11-7 15-1 8 15-3 9-1h13l16 3 13 4 14 8 10 9 8 9 10 18 2 5 4 21v29l-2 14 10 9 11 8 4 3h4l10-18 7-12 15-25v-13l-6-47-1-18v-42l2-16 5-14 5-5 10-9 10-5 13-4 1-2-4-8-8-11-15-16-6-9-6-12v-13l5-7 6-4h7l7 3 8 7 7 8 3 3 1-16 4-14 7-13 7-6zm1 6-7 6-5 7-4 13v54l3 20 3 6 4-1 3-9 2-11 8-25 3-15 4-15v-19l-4-8-2-2zm-54 30-6 4-1 2v9l5 12 5 6 3 3 6 8 11 12 4 7 6 12h4l1-1v-7l-6-30-6-15-7-11-9-9-5-2zm93 1-13 9-7 9-11 18-5 17-4 14v6l4 2 8-15 8-10 9-10 8-7 12-11 6-9v-8l-4-5zm190 69-1 4 1 1h6l3-2v-3zm46 6-13 4-12 11-1 4 5-1 12-5 13-3v2h-6l-12 5-12 7 1 3 9 3h18l10-4 12-9 7-9-1-4-9-3-7-1zm-41 1-4 2 2 10 2 7 2 27h2l4-18v-25l-1-3zm-253 5-20 4-7 3-9 7-6 7v4l26-1v2h-11l-17 3-3 5-2 18v32l1 20 5 36 1 11 2 5 5 2 15 2-18 2v15l4 25 3 15 1 7 3 3 19 2v2l-18 1-1 1v7l9 29 5 13 4 6 4 8 7 6h7l7-7 8-14 3-6 1-7-16-2v-2h15l6-5 5-15 8-31 2-8-1-5-13-2h-7v-2h16l6-2 1-3 8-40 1-14-6-2-7-1 12-2 3-4 6-43 2-25v-12l-4-3-14-4-10-1h10l15 1 2-2-2-10-3-7-4-6-8-7-10-5-19-4zm-301 26-2 2 2 12 8 16 9 11 10 6 8 4 12 2h7l4-2-6-9-17-17-11-9 10 6 12 9 11 12 3 4 3-1-4-13-7-13-10-9-14-7-18-4zm543 8-9 2-11 6-11 11-6 12-6 17-3 14-6 16-9 19-13 18-11 15-6 12-6 17-2 9v29l5 17 4 9 4 8 9 11 13 11 12 7 8 4 8 3 13 4 17 2h26l20-3 18-7 13-7v-2l4-2 8-7 7-7 5-7 7-15 4-15 1-30-4-17-3-10-10-19-7-11-11-23-6-25-5-24-2-10-7-13-9-10-12-6-5-2-5 1-1 6 4 1 4-1-1 2-4 1h-14l-8-3v-1h5l1-1v-5l-1-1zm-462 7-1 4 7 4 5-1-2-4-6-3zm-5 6-4 8-4 13-2 10v20l2 5h3l3-19 3-12 10-18-1-3-7-4zm-19 39m41 2-22 5-1 1v9l4 2 10-3-4 4-5 2h-23l-7-4h-2v-2l10 3 4-1 1-2-2-7-9-3-8-1h-20l-19 5-14 7-10 8-10 10-11 20-3 13-1 10v22l2 14 4 16 11 26 7 11 7 9 9 10 7 7 14 9 12 4 8 1h11l17-4h24l6 1h20l9-2 16-8 8-7 5-4 8-10 7-11 9-17 9-30 3-17v-20l-4-20-9-21-11-13-13-11-21-9-8-2zm158 87-5 6-12 22-3 3-8 16-8 11-5 4-3 6v5l5-1 4-3h9l6 2 1 3h2v-8l-2-4 1-8 9-17 5-10 7-11v-14l-1-2zm104 2-2 6v6l6 10 9 14 6 11 4 7-1 11-1 7 5-1 4-4h10l7 4h2l-2-9-6-7-5-2-2-5-12-20-7-9-5-9-8-10zm-171 34-3 11 5 5 8 7 7 5 4-2 4-7-1-4-12-8-5-5-3-2zm246 0-16 12-10 6-1 4 6 9 7-3 9-6 5-5 4-3v-13zm-480 7-13 14-9 13v2l-4 2-3 3-5 6-5 3-4 8v10l2 4 4 2h6l8-7 3-3 4 4h2v-11l-1-10 7-10 7-11 6-6 1-5-3-8zm701 10-2 5-1 11 3 5h2l2 5 4 9-1 9-1 2v6l4 2 3-3 3 1 4 6 3 3h7l5-6v-10l-6-9-4-4h-2l-2-5-7-10-9-12zm-432 19-6 3-2 3v6l4 3 9-1 5-4-1-6-2-3zm168 1-4 4-1 5 4 4 3 1h8l3-3-1-7-4-4z"/><path transform="translate(486,463)" d="m0 0 4 1 2 4-2 2-13 4-3 1 2-5 5-5z"/><path transform="translate(553,463)" d="m0 0 6 1 5 3 3 6v2l-5-2-11-4-1-4z"/><path transform="translate(474,485)" d="m0 0 6 3 13-1 8 3 6 7v5l-4-1-8-5h-9l-6 4-3 3-3-1-4-5v-5l4 2 3 1-3-5-1-4z"/><path transform="translate(566,485)" d="m0 0 2 1-1 5-1 3 7-1-3 6-3 4-4-2-6-4-9-1-7 3-5 4-3-1 2-6 5-5 6-3h19z"/><path transform="translate(518,508)" d="m0 0h6l4 4v4h-2l-3-3-6-1-2 4-1-4z"/><path transform="translate(211,519)" d="m0 0 5 1 3 3v6l-12 12-8 13-4 8-1 1-7-1-2-2-1-7 6-12 7-10 8-8zm1 3-9 7-7 7-5 8-4 10v5l1 1h5l9-17 12-13 2-2-1-5z"/><path transform="translate(535,523)" d="m0 0 3 1-2 5-9 4h-12l-10-5v-4l4 1 6 3h11l6-3z"/><path transform="translate(327,541)" d="m0 0h11l5 5 4 5v2l-5-1-13-5-2-2z"/><path transform="translate(231,545)" d="m0 0h7l1 5-10 4-6 5h-2l1-6 7-7z"/><path transform="translate(714,551)" d="m0 0h9v4l-14 7h-3l1-5 5-5z"/><path transform="translate(800,553)" d="m0 0 8 1 7 7 1 4-5-1-12-6z"/><path transform="translate(322,558)" d="m0 0h10l8 4 6 6 3 6v17l-1 8-18 2-13 4-4-2-5-7-2-7v-14l4-9 7-6zm0 4-5 3 1 2 9 1-2 6v5l3 2 7-1 1 2v12l2 2 4-1 4-7v-9l-3-8-6-7-4-2z"/><path transform="translate(236,562)" d="m0 0h12l6 3 8 9 2 5v15l-6 10-4 4-10-3-7-1h-14l-1-3-1-7-1-12 4-11 7-7zm3 3-8 4-4 5-3 8 2 13 3 4h5l1-15h8l1-1v-6l-3-5 10-2-1-3-4-2z"/><path transform="translate(718,566)" d="m0 0h12l7 4 4 5 3 14-2 10-6 11-6-1-11-4-14-1-1-2v-5l-1-1v-14l5-8 8-7zm0 4-8 7-2 5v14l2 4h5v-14l8 1 2-2v-5l-1-4 7-2v-3l-2-1z"/><path transform="translate(184,569)" d="m0 0 7 1 1 1v10l-3 2h-6l-2-2v-9zm0 3-1 1v6l5 1 2-2v-5l-1-1z"/><path transform="translate(790,569)" d="m0 0h11l6 3 7 6 2 6v16l-3 9h-18l-13 2-7-14v-9l4-10 8-8zm1 4-3 3 8 3-2 4v5l4 3 6-1v13l4 1 4-6 1-7-2-10-7-7-2-1z"/><path transform="translate(283,599)" d="m0 0h7l5 4 2 5-3 2-4-5-6-1-5 5-3-1 2-5z"/><path transform="translate(755,606)" d="m0 0h6l7 6-1 4-3-1-3-4-7 1-2 3h-2l1-6z"/><path transform="translate(314,620)" d="m0 0h10l4 2 1 2v7l-6 12-6 7-10 6-13 4h-15l-17-5-8-7-7-8-3-6v-6l5-6h16l9 1h12l19-2zm0 3-17 4h-28l-11-2-7 1-2 2v6l6 9 1 1h8l5-2 6-1h30l8 3 4-1 6-7 1-3v-9l-1-1zm-21 20-1 2h2v2l-6-3h-20l-4 3 1 4 6 4 6 1h18l9-3 7-5-3-4-4-1z"/><path transform="translate(731,621)" d="m0 0 4 1 2 5 11 5h23l10-4 2-6 3 3 4 6v2l-11 1-7 3-6 1h-13l-21-6-6-1 2-4z"/><path transform="translate(679,644)" d="m0 0h5l4 5 4 11 8 10 7 7-2 6-3 3-7-2-8-7-9-14-2-5v-11zm1 3-2 2 1 10 4 8 5 5 5 6 6 4 5-1-1-5-9-9-6-10-5-10z"/><path transform="translate(832,660)" d="m0 0 7 1 1 2v9l-3 5-12 12-12 7h-6l-3-3 1-8 15-10 6-7 4-6zm1 3-9 11-5 5-10 7-3 2 1 4 4 1 12-6 11-11 3-5 1-6z"/></svg>
