<?xml version="1.0" encoding="UTF-8"?>
<svg version="1.1" viewBox="0 0 1024 1024" xmlns="http://www.w3.org/2000/svg"><path transform="translate(637,325)" d="m0 0h18l7 4 2 5 25-5 16-2h36l20 3 30 7 3-7 3-2h20l6 4 3 6v12l-2 29-3 73-1 79-1 124-1 7-8 6h-19l-5-2-1-99-11 6-5 2-2 4-1 37-1 74-6 7-3 2h-19l-6-3-1-1-1-109-28-2-21-1h-21l-1 65-1 9-8 7-3 1-15-1-6-2-1-81-25-1v100l-5 5-5 4-3 1h-12l-7-1-3-3-1-115-1-19-5-4-2-6v-7l3-6 8-6 24-11 34-16 1-67 2-42 3-47 1-9 4-5zm2 4-4 5-1 3-1 13-3 91v56h14l1-2v-19l1-26 1 46 1 1h5l1-1 1-47 1-40-3-5h-3l-1 6v13h-2l5-83 4-1 3-2-1-5-5-1v7h-2v-8l-1-1zm70 3-25 2-18 4-11 4-2 6-1 28v24l1 1 74 2 62 1 3-1-1 15v83l1 1 12 1 1-1 1-7v-23h2v46l-1 2v142l3 1 5-4 1-170 1-42v-21l4-66v-24l-3-2-6-1h-12l-5 5-2 26v32h-2l1-28v-24l-8-4-19-5-25-3zm-48 73-2 4-1 19v67l1 1 105 4h21l1-1 2-62v-28l-1-1-41-2-33-1zm-32 94-12 6-10 4-42 20v3l27 2 42 2h20v2l-65-3-23-2-4-1-2 3v8l4 4 5 1 14 1 63 2 21 1 40 1 20 1h29l13-7 8-6 12-8 14-10 3-4v-6l-3-3 2-3-4-2-42-2-112-4zm171 29-17 12-15 10-5 4v18l3 1 4-2v-2l5-2 10-6 13-9 7-5v-18zm3 22-9 7-4 4v50l1 52 3 2h10l1-1 1-113zm-234 1-1 1v130l3 3 12 1 2-6v-6l1 1v7h4l3-2 1-7v-95l-1-1h-5l-2 3v45h-2v-72l-2-2zm19 1-1 4 1 17 2 2 53 2 62 3h26l1-1v-20l-2-2-31-2-67-3zm170 4-4 3-1 50v83h4l3-2v-133zm-22 2-1 1v134l3 2h12l1-1v-135l-1-1zm-105 21-1 1v78l1 1h13l1-2v-27l-1-49-1-1zm16 1-1 1v76l2 1 5-3 1-2v-67l-2-5z"/><path transform="translate(369,391)" d="m0 0h9l10 4 6 7 2 5v11l24 9 14 9 8 6 8 4 6 5 2 4 2 10 20 20 5 9h6l9-7 9-9 9-12 9-9 8-4 5-1h9l15 2 14 7 2 2v6l-6 7-8 7-5 4-8 17-4 16-5 26-4 18-5 12-8 12-12 12-10 7-6 15-9 17-9 11-11 11 1 6v8l-7 8-10 5-21 5-26 4h-58l-29-4-20-4-10-4-7-6-1-3v-9l1-3-3-5-10-9-9-11-7-11-5-3-15-5-15-9-7-4-14-12-11-13-9-19-2-5-3-15v-20l3-15 9-17 8-9 8-6 12-5 12-2h12l15 3 14 7 2 2 6-1 11-12 5-5 1-10 4-5 14-8 11-8 16-8 16-5v-13l5-9 6-4zm1 5-8 4-5 5-1 10 2 5 8 6h15l7-4 3-6v-9l-6-7-7-4zm18 27-4 3-3 1h-15l-5-3h-7l-15 4-20 10-12 10v5l-5-4-7 7 1 6 5 4 13 5 20 3-14-1-16-4-5-3-5 1-7 7-8 7-8 10-3 3 1-7-10-6-12-6-4-1h-24l-10 3-11 8-10 10v2h-2l-7 18-2 9v16l4 17 5 13 7 11 3 1 2 5 10 10h2l2 4 13 9 24 11 5-1v-3l13 22 12 13 7 7 8 5 7 2-11-1-3 4v6l7 6 11 5 16 3 29 3h54l26-3 18-4 15-6 3-5-2-9-11 1-27 6-24 3v-2h11l22-4 23-5 8-7 12-11 10-13 6-10 5-15-1-7-6-12-3-8 2 3 5 13 4 5 7-2 11-8 8-10 8-16 5-17 5-28 5-20 9-17 5-4 4-6 4-3-2-2-8-1v-2l8 1v-3l-11-4h-12v2l-4-2-1-3-5 1-9 7-9 9-6 8v2l-4 2-5 6-10 6-8 4-3 5 1-5-1-5-8-11-11-13-10-8-6 2-11 4-15 3-16 1 24-3 17-6 6-4v-8l-5-5-5 1-3 5-10 4-26 4h-11l22-2 11-2 12-4 3-2v-5l-10-10-17-9-13-4-7-2z"/><path transform="translate(809,402)" d="m0 0h2v19l-2 45h-2v-21z"/><path transform="translate(646,425)" d="m0 0h2v18h-2z"/><path transform="translate(309,455)" d="m0 0 5 1 19 4 12 1 1 2h-10l-20-3-7-4z"/><path transform="translate(347,475)" d="m0 0h55v2h-55z"/><path transform="translate(266,495)" d="m0 0 1 3-8 14-5 11-6 22-2 12v22l3 18 1 5h-2l-1-3-12-6-11-7-8-8v-2l-4-2-8-16-4-10-1-9v-9l2-11 8-15 11-7 2-1h17l8 3 9 6 4-1 5-8zm-39 4-9 3-9 8-5 14v21l4 15 8 12 9 10 14 9 4-1v-43l4-15 6-17v-6l-5-4-9-5-4-1z"/><path transform="translate(436,503)" d="m0 0 10 1 8 4 5 7-4 1-5-2-19-1-2-2 1-4 3-3z"/><path transform="translate(363,506)" d="m0 0h9l3 3v5l-5 3-15 2-10 5-3 1 1-5 6-7 10-6z"/><path transform="translate(799,512)" d="m0 0 2 1-10 7-8 5-2-1 8-6z"/><path transform="translate(779,525)" d="m0 0 2 1-17 12-4 2-4-1 12-7z"/><path transform="translate(449,538)" d="m0 0 10 1 6 4 2 3-1 5-6-2-2-1h-12l-10 5-6 7-2-1 1-6 9-10 5-3z"/><path transform="translate(360,542)" d="m0 0 10 1 10 5 6 8 1 6h-4l-5-6-6-3h-15l-9 5-5 4-2-3 1-6 5-6 8-4z"/><path transform="translate(407,558)" d="m0 0 4 2 1 2 10 2 5 6v10l-5 6-2 1h-10l-2-2 12-4 3-6-1-4-2-3-14 1 2-5z"/><path transform="translate(358,592)" d="m0 0h2l2 5 19 4h37l12-2 10-3 5-2v3l-8 6-7 19-6 9-7 6-9 4h-15l-10-4-9-6-7-7-10-16-1-3-9 1v-3l9-7zm2 9-1 3 8 14h36l10 4 6 5 4-1 5-7 3-10v-5l-2-1-12 2h-32l-20-4zm15 18-4 4 8 8 9 4 5 2h14l11-5-1-5-8-6-3-1h-9l1 5-9-5-3-1z"/><path transform="translate(416,647)" d="m0 0 1 3-7 5h-18l-3-4 3-1 3 1h11z"/><path transform="translate(304,667)" d="m0 0h8l12 3v2l-14-2-6-2z"/><path transform="translate(326,671)" d="m0 0 36 3v2h-15l-21-3z"/></svg>
