<?xml version="1.0" encoding="UTF-8"?>
<svg version="1.1" viewBox="0 0 1024 1024" xmlns="http://www.w3.org/2000/svg"><path transform="translate(663,309)" d="m0 0h17l7 3 3 4 1 3 17-4 20-3 11-1h29l24 3 18 4 19 5 2-7 5-4h20l6 3 3 5 1 8-3 48v17l-2 45-1 32-1 191-1 14-10 7h-17l-7-2-1-1v-109l-7 4-9 6h-2v2l-4 3-1 121-4 5-7 4h-19l-7-3-1-1v-120l-64-3h-14v69l-1 12-9 8-6 1-18-2-2-2v-88h-19l-10-1v111l-7 6-6 3h-10l-13-2-1-1-1-147-6-4-2-5v-9l3-7 8-5 15-7 9-4 17-8 21-10h2v-48l2-53 4-70 1-9 5-6zm1 4-5 6-3 43-1 21v18l-2 55v40h16l3-83 5-83v-14l-2-3zm16 1-2 3v8l5-1 3-3-2-5zm61 2-27 3-20 4-12 4-3 4-1 15v14l-1 19v11l1 1 91 2 57 2 2-2 1-40 1-23-4-3-17-5-31-5-12-1zm97 1-4 5-1 5-4 74-1 25v75l16 1 1-11 2-58 3-64 2-34v-14l-1-4zm16 0-1 3v13l-3 53v16l-3 74v31l1 9-2 8v152h3l5-4v-65l1-146 3-70 3-49v-20l-4-4zm-179 76-2 34-1 29v39l1 1h6l1-57 1-25v-18zm12 3-1 1-2 43v54l1 1 92 3 28 1h17l1-1 2-74v-24l-1-1-60-2-42-1zm-33 102-12 5-10 5-19 9-14 6-10 5-7 3 1 3 35 2 116 5 55 1 6-2 29-19 16-10 4-4v-2l-9-1-146-5zm186 31-32 22-10 7v20h3l15-9 10-7 16-11 1-1v-21zm2-18-10 7-17 11-11 7-5 4-7 3-8 1-92-4h-22l-69-3-14-1-8-2-2 5v6l5 5 8 1 19 1 47 1 111 5h22l10-5 30-20 15-11 1-3v-8zm1 42-15 11-1 2 1 110 4 2h11l1-1v-124zm-255 1-2 3v140l4 3 13 1 1-1v-144l-3-2zm21 1-1 1v23l1 1 135 6h19l1-1v-22l-2-2-140-6zm184 5-5 3-1 111v35h3l5-4v-145zm-26 2v146l2 2 4 1h11l1-1v-148zm-160 21-1 26v89h3l5-4v-110l-1-1zm46 2v85l2 2h14v-86zm19 1-1 1v84l5-1 3-3v-79l-4-2z"/><path transform="translate(372,381)" d="m0 0h8l10 4 6 5 3 5 1 4v8l-1 4 15 4 12 5 14 8 10 8 9 4 7 5 2 4 1 11 8 7 11 11 8 11 2 5 6-1 9-6 10-11 9-12 11-11 6-4 11-2 21 2 14 6 5 4v6l-4 5-8 6-7 8h-2l-2 4-7 16-4 14-2 9-1 9-6 28-6 17-7 11-9 10-9 8-8 5-7 18-8 15-10 13-13 13h-2l3 7v8l-3 5-6 5-10 4-25 6-33 4h-53l-27-3-24-5-12-4-9-6-3-6v-7l2-3-1-5-10-9-12-13-9-15-7-3-12-4-10-5-15-9-11-9-5-4-9-11-4-5-11-22-4-21v-18l4-20 6-12 9-11 10-9 14-6 7-2 16-1 16 3 12 5 11 7 4-2 9-10 10-9v-10l4-6 10-5 5-3 11-9 21-10 15-4 1-2-1-3v-8l4-9 7-6zm2 5-9 3-7 6-2 6 1 8 4 5 8 5h13l8-4 4-7 1-7-3-7-6-5-8-3zm18 29-5 4-5 2h-13l-8-5-10 1-17 6-14 7-11 8-6 6v4l9 4 18 4 17 2 19 1h21l26-2 20-3 16-5 1-1v-5l-12-11-16-8-12-5-15-4zm-94 29-8 7 1 6 4 4 10 4 16 4 21 3h67l27-4 17-5 8-4 2-3v-7l-6-5h-4l-2 5-8 4-15 4-14 2-25 1h-25l-26-1-19-3-10-3-8-5-1-4zm265 11v2l6 3 15 3h5v-2l-13-5-5-1zm23 2m1 1m2 1m2 1v3l4-1zm-37-8-9 7-12 12-8 11-5 5-9 8-13 6-3 8-1 5v21h-2l1-21 3-16-7-11-9-11-9-9-8-6-5 2-13 5-14 3-31 3h-49l-36-4-16-5-5-3-4 1-12 11-7 7-6 7-1 4h-2l-8 13-10 21-4 15-3 16-1 11v11l2 17 3 14 3 9 5 12 9 16 11 13 9 9 9 7 10 3 26 6 26 3 18 1h21l28-2 21-3 16-4 10-2 8-3 5-5 11-10 9-11 9-14 7-18v-6l-5-8-7-18h2l3 9 4 9 4 7 5-1 10-7 7-6 7-10 8-16 4-16 8-39 4-16 9-16 11-12 4-3v-2l-18-4-12-4-3-6zm-345 19-9 2-11 6-10 9-6 7-7 15-3 10-1 7v15l3 15 4 11 8 16 3 4h2l2 4 7 8 4 4h2l2 4 15 10 10 5 14 6 7 2 1-2-3-9-4-13-16-9-7-4-12-11-6-8-8-16-3-10-1-15 2-12 5-12 5-7 11-7 6-1h11l10 2 11 8 4 1 5-8v-2h2l5-8-1-3-13-8-12-5-6-1zm9 27-10 3-10 8-4 8-3 10v20l4 13 3 8 8 11 6 7 14 10 4 2h3l-1-14v-22l3-19 5-16 5-14-1-5-10-7-10-3zm67 180-3 3-1 8 8 7 10 4 7 2 35 5 13 1h46l29-3 24-4 16-6 5-3 2-4-1-7-2-3-9 1-23 6-26 4-30 1h-15l-31-1-30-5-17-5z"/><path transform="translate(444,490)" d="m0 0 6 1 9 6 4 6-1 2-10-5-13-1-1-3 3-5z"/><path transform="translate(357,497)" d="m0 0 7 1 3 5-3 3-10 3-8 5-5 4 1-6 5-8 6-5z"/><path transform="translate(445,516)" d="m0 0h10l8 5 6 10 2 6 1 10-2 13v3l-19 2-11 4-3 1-1-4-4-8-2-9v-10l3-11 6-8zm3 2-7 4-2 2v3l8 1 5 3 4 8 2 10-2 11 2 1 7-1 3-9v-11l-3-10-6-9-7-3zm-10 18-1 1v7l2 2 4-1 2-5-4-4z"/><path transform="translate(358,523)" d="m0 0h10l9 6 4 7 3 7 1 4v14l-4 12v4l-15-3h-24v-2l2-1-2-11v-16l4-11 4-5zm2 3-6 3-4 4v2h7l6 3 5 6 2 13-2 13 5 3 4 1 3-5 1-6v-17l-2-8-4-6-6-5zm-9 18-3 4 2 5 4 1 3-3-1-5-2-2z"/><path transform="translate(414,560)" d="m0 0 2 2 3 5 10 1 6 5 1 2v9l-6 7-4 2h-12v-2l13-3 4-4 1-7-5-5-9 1-6 2 1-3 3-3-2-4z"/><path transform="translate(361,598)" d="m0 0h1v6l8 3 10 2 11 1h30l16-2 11-4 5-3 3 1-7 6-4 2-6 18-5 10-5 6-8 5-9 3h-12l-10-3-10-6-9-8-10-15-4-8-10 2 1-3 9-6zm-1 11 9 18 8-1h30l9 3 9 6 2 2h3l2-5h2l4-10 2-11-13 2-7 1h-27l-18-3-11-2zm19 19-5 2v3l5 5 8 6 12 4h13l10-4 4-3-2-4-6-5-8-3h-9l4 8-10-7-6-2z"/><path transform="translate(423,659)" d="m0 0h2l-2 4-7 4h-19l-5-4 2-1 7 2h10l9-3z"/></svg>
