<?xml version="1.0" encoding="UTF-8"?>
<svg version="1.1" viewBox="0 0 1024 1024" xmlns="http://www.w3.org/2000/svg"><path transform="translate(536,252)" d="m0 0h5l-4 2-9 3-5 4-4-1-5-5 1-2 6 3 5-1z"/><path transform="translate(422,254)" d="m0 0h5l-3 2-8 4-7 8-3 4-5-1h-10l-10 5-6 9-3 8-12 1-5 1 4-4 4-1h8l3-9 3-5 8-6 6-2h14l8-9h2v-2z"/><path transform="translate(439,253)" d="m0 0 13 1 10 5 7-4h9l9 1-2 4-2 1-7-3-10 1-6 4-7-5-14-4z"/><path transform="translate(596,263)" d="m0 0 7 2 8 9 10 1 6 4 5 6h14l12 4 6 6v2l-4-2-9-6-6-1h-15l-7-9-3-2h-11l-7-9-6-3z"/><path transform="translate(487,291)" d="m0 0h11l9 4 2 4-4-2-9-3h-7l-8 3-7 6-4-2-6-1-6 2-6 7-10-2v-2h9l4-5 6-2 14 1 4-4z"/><path transform="translate(350,297)" d="m0 0 2 1-4 5-2 5-1 5-10 2-5 5h-13l-5 3-5 8h-9l-7 4-4 5-3 6-11 1-8 4-6 7-2 10-9 1 2-2 4-1 2-7 4-7 6-5 10-3 7-1 4-9 3-3 8-3 8-1 4-6 6-4 7-1 6 1 6-5 8-2 4-10z"/><path transform="translate(665,299)" d="m0 0 2 1 2 5 9 3 8 6 1 5h9l8 4 4 5 2 5 10 1 1 2h-12l-2-2-2-5-4-5-3-1-11-1-6-9-4-2-9-1-3-8z"/><path transform="translate(583,319)" d="m0 0h7l10 5h4l10-2 9 2 8 6-2 2-5-4-4-2h-11l-5 2-4 1-7-6h-14l-8 7-4-1v-2l5-2 5-4z"/><path transform="translate(728,343)" d="m0 0 15 1 11 4 7 8 5 18 5 4-1 3-5-4-4-3-1-12-3-6-8-7-8-3-13-1z"/><path transform="translate(375,345)" d="m0 0h11l2 3-4-1h-7l-6 3-3 1-3-3 8-2z"/><path transform="translate(355,345)" d="m0 0 8 1 1 2-15 1-8 7-4 8-13 2-5 5-1 3h-2l1-5 4-5 8-3 7-2 4-7 5-4z"/><path transform="translate(652,363)" d="m0 0h9l9 5 3-1h11l6 3 6 7 1 2 3 2-4 1-1-3h-2l-4-6-3-3-4-1h-8l-5 2-4-1-5-4h-7l-5 2v-3z"/><path transform="translate(245,369)" d="m0 0 3 1-5 4-3 5-1 10-2 4-6 4-4 6v9l-4 4h-2v10l4 6 8 4 8 1h7l3 5 5 2h10l6 7 4 2 12 1v2h-12l-8-4-3-4-12-1-5-3-3-5h-12l-9-4-5-6v-12l4-6 2-11 6-7 4-2 1-11 7-9z"/><path transform="translate(711,379)" d="m0 0 6 1 6 5 1 5h-2l-7-8z"/><path transform="translate(448,383)" d="m0 0 8 6 8 2h8l7-1 3-3 4 2 7 5 4 1h7l4-2 4 1 7 6 6 2h15l7-3 6-3 9 8 11 4h11l9-4 4 2 3 5 3 1h13l-1 2-4 1h-7l-5-2-4-4h-5l-9 3-7 1-3 5-8 10-3 3v2l10-1 3 3 6 2h10l2 2-2 1h-12l-5-2-3-2-9 1-6 2-4 8-1 6v15l7-6 14-7 11-2v2l-11 4-16 8-9 10-4 8-1-3 4-8 1-1 1-22 5-13 6-8 11-12 3-5v-2l-7-1-3 3v-6l-4-2-5 9-9 10-11 9-6 3h-3l-7-7-8-7-6-6-3-5-3-8h3l5 10 5 7 6 5h12l3 2h5l12-10 5-9 2-3-1-5-5 2-8 3-10 1-13-4-6-5-5 1-7 1-3 1-1-2-9-5-1-3h-3l1 14 2 5-1 3-3-3-3-5-6-9h-10l7 14 14 16 6 7 6 12v14l-2 2h-5l-5-5-13-6-16-4-18-6-9-6-1-2 6 2h4l8-2 5-5 4-1 5 2h11l6-3-1-4-10-14-3-5-3-8-10-5-6 4-11 1-3 7-5 4-10 2-1 4 3 8 5 6-1 2-7-8-3-5-11 3 1 5 5 9 10 11-1 3h-17v-2h14l-3-5-6-7-6-9-3-5h-3l-7 8-3 2h-12l-4-1-2 2 1 4 13 6 11 3 7 1v2h-9l-18-7-9-5h-9l-5-1 1 3 14 9 11 5 6 2 10 3v2l-8-1-8-3-10-4-9-5-4-3-5-4-5 1-4 2h-13l-6-3-1-1-11 1v-2l7-3h3l9 5 9 1 9-5 3-4 12 2 6-2 3-4 6 1h10l7-6 3-5 5 1h8l5-2 5-8 10-1 5-4 3-7 12-1 5-5zm29 9-2 2 1 4 4 2v-8zm0 33-4 3-6 2h-7l-8-3-7 6-7 2 4 4 11 4 14 3 13 5 8 6 4 1 2-4-1-9-6-12-7-8zm47 1-4 4 3 3 6-1v-3l-3-3z"/><path transform="translate(777,391)" d="m0 0 4 1 4 4 2 4v10l11 6 7 8v12l-4 6-4 1 6-8-1-10-4-5-9-6-5-2-1-12-3-5-1-3z"/><path transform="translate(619,409)" d="m0 0h3l5 5 4 2h13l5 9 5 4 8 3v2l-6-1-8-6-4-6v-2l-3 3-5 11-4 8-6 8h14l15-1 10-3 12-5 3-1-1-6-10 1v-2l5-2 5 1 4 5 6 3h13l8 6 9 3 10-1 5-3h2v-2l3-2 5 1 3 1h11l8-4v3l-5 3-3 1h-10l-9-1-8 5-3 1h-11l-10-3-6-5-9 3-9 6-8 4-15 5-32 4h-12v-2l22-2 16-2 18-5 11-5 5-3h2v-3l-7-2-4 3-17 6-19 3h-20v-4l8-11 4-9 3-8-10-1-2 7-9 15-14 9-16 4h-4v-2l16-4h3l-3-5-5-4-3-2 5-1 5 5 6 2 4-2 7-6 5-10 2-8-4-4-5-1z"/><path transform="translate(268,423)" d="m0 0 7 5 10-1h4l5 4 4 1v2l-6-1-4-3-12 1-7-4z"/><path transform="translate(791,450)" d="m0 0h2l-2 5-8 5-16 1-3 3-3-1 5-5h13l8-4z"/><path transform="translate(289,452)" d="m0 0h6l5 3h6l6-1 5 7-4-2-2-2-4 1h-9l-5-3-5-1z"/><path transform="translate(392,454)" d="m0 0h10l26 3 15 5 6 3 16 11 9 11-1 3-9-10-6-5v-2l-5-2-2-1v-2l-8-2-5 4-6 2h-11l-9-3 1-2 6 1 5 2 10-1 5-3-1-3-6-2-21-3-19-2z"/><path transform="translate(340,460)" d="m0 0h6l3 3 9 1 4 2-1 1h-10l-7-4-10 1 1-2z"/><path transform="translate(364,463)" d="m0 0h3l5 5 5 2h10l5-3 5 1 4 2h7l4-1-2 3-9 1-6-2-6 1-9 1-7-2-6-4-4-3z"/><path transform="translate(737,464)" d="m0 0h9l7 1 8-1-2 3-3 1h-8l-10-1-3 3-5 2h-14l-6-1-3 1 2-4 3-1 9 3 7-1 8-2z"/><path transform="translate(600,465)" d="m0 0h4v2l-5 2h-3l1 3h18l5 3 10 1 7-1v2l-5 2h-10l-10-5-4 1h-12l-3-2-6 1-11 7-9 9-7 11-4 10-1 4v49l4-1h9l5 5 1 2 6-6h7l7 4 2 3v9l-2 4 6 2 4 3 1 3v7l-4 6-2 2-7 1h-3l-7-6-4 1-5 3v10l3 5 8 2v2l-8-1-6-3 5 8 14-1 5 1-2-5-1-2-5 1v-2l4-3 1-6h2l2 6 5 5 3-10 7-7 4 1 3 11 4-5 5-12 2-4-5-1v-2l-5-2-7-8-2-6v-19l1-3h2l-1-7-1-1-1-8 3-2 3-6 6 2 7 1 15-1v2l-12 2h-8l-7-2-1 5-3 1 1 5 6 5 3 1 12 1 2 3 4 1v2l-6-1-2-1v-2h-9l-9-3-3 12v10l4 11 7 6 8 3 9 1 8-3 5-3 1-9 3-1 1-2v-6h-5-4l-3-6v-7l-3-1 4-2 1 1 2 11 2 1h6l3 3v7l-5 6h4l4-5 4-12h1v8l-6 10-9 7h-2l3 5 4 5 4 9 3 14 2 11v7l1 2v9l-3 2v15l1 8 17 2 12 2v2l-16-1-5-1h-7l1 11 2 9v14l-4 4-4 2h-14l-1-1v-5l5-5-2-7-5-10-1-6h-2l-1 12-2 11-3 8-5 3-4 1-13-2-2-2 1-6 7-5-1-33-8 2-1-3-41-3h-19v12l8 4 3 3 2 7 3-2 4 1-1 5-1 4h7v3l-1 4h-2v-4l-5 3-3-1 1-7v-3l-6 7-4 4-2-4-2 1-2 4-25 3h-34l-26-3-8-1v-4l-4 3-3-1-3-6 2-1 1-11 5-5 10-3 1 4 17 2 16 1h17l24-2 1-1v-26l-1-12 2 1 1 9v27h4v-27l-4-17-4-10-9-10-6-3h-2l6 4 9 10 3 8v3h-2l-8-16-7-6-12-4h-16l-7 3-6 4-9 14-5 18h-2l1-8 3-9 7-14 7-7 1-2 5-1 10-3h17l10 4 8 5 6 7 4 11 3 7 2 10v10h9l6 1-2-6h2l4 5 19 2 11 1h10l1-2-5-2-14-12-9-9-4-6-6-6v-5l-3-9-8 1 3-2 4-4 2-5v-6l-6-4-7 2-5 5-2 1 2-7h-6l-4-4-1-2v-9l5-6h3v2l-6 6v5l4 5 7 1 8-3 1-8-5-4-6-3 1-4v-64l3-9 6-12 8-10 10-8 17-9zm-39 99-6 4-2 3 1 5 4 7 6 4 8-4v-11l-2-5-5-3zm19 2-4 5-1 6v6l6 4 6-1 6-5 1-2v-6l-5-6-2-1zm-11 20-5 4-1 7 5 5h8l4-3v-2h2l1 3 7 5h8l4-5 1-2v-6l-4-5-5-1-10 3-1 1v5h-2l-1-6-4-3zm78 10-15 2-5 6-4 11-2 12 2 1 8-7 5-9 2-1-8 13-8 7-10 6v6l4 5 9-2 12-6 7-6 4-5 3-6-2 6-9 10-6 4-14 6-1 1v6l13 3h12l15-2 5-2 2-2-1-14-3-18-5-16-2-4-6-5zm-37 13-6 7-2 5v8l3-1 3-8-2 13 4-2 3-7v-15zm-95 8v2h2v-2zm104 2-6 8-4 6-1 3 5-1 7-5 1-11zm-21 10m-14 1-10 3v3l10 6 4 1-5 1 2 4 13 13 9 6 1-1-1-10-7-6-2-6h-4v-2l5-1v-3l-7-2h-6v-2l11 1-2-3-7-2zm21 10-4 4v5l2 2h7l3-3-3-8zm9 11-4 2 4 18 2 2 4-1v-13l-2-2-2-6zm-6 3 1 2zm1 3 1 2zm49 1-13 2h-14l-9-1-1 1v39l1 11 5 3h9l2-6 3-18v-8l-6-14 2 3 6 13 3 10 7 14 3 5 9-1 3-3v-8l-4-20-2-21zm-48 3 1 2zm1 7-1 4h2zm-153 21-3 1 1 3 10 2v2l-10-2h-5l-1 2v11h3l2-3h2l2 7 21 2 14 1h25l28-2 2-2 1-5 5 2 4-2 1-2v-8l-3-1-9 2v-2l6-1 2-1-1-3-7-1-6 3-23 2h-25l-22-2-8-2-1-1zm161 24-5 4 2 4 3 1h12l3-2v-5l-1-1zm36 0-5 5-1 4 1 1h7l8-3 3-2-1-5z"/><path transform="translate(659,472)" d="m0 0h5l10 5 7 2h8l10-4h4v2l-13 5h-11l-12-5-3-2-14 2v-2l8-2z"/><path transform="translate(474,490)" d="m0 0 2 1 3 7v13l-3 12h-2l2-14v-7z"/><path transform="translate(523,507)" d="m0 0h2l-1 11-5 19-2-4 4-15z"/><path transform="translate(473,525)" d="m0 0h2l-1 10v13l1 7-3-1-1-6 1-20z"/><path transform="translate(644,535)" d="m0 0 7 1 5 3 3 6 7 5 2 5h-3l-2-4-6-4-4-6-5-3-4-2z"/><path transform="translate(373,554)" d="m0 0h11l10 4 6 5 3 4 2 12v15l4 2 5 6 2 7 3-3 2-7h2l1 8 2 2h10l2-4v-10l-4-2h-5l-6 5-9-2-4-5-1-7 3-6 7-4-2-5 1-5 5-5 4-1-6 6v8l6 5 5 1 5-4v-6l-4-6-2-4 5 2 1 3h2l2-4 5-3 6 1 5 3 2 4v7l-1 2 7 1 3 1 3-6 1 4-2 6-1 9-3 5-3 17-3 9-4 7-2 5-12 14-7 7-6 4h-3v2l-12 8-5 5 2 1 33-3 4-2v2l17-2v5h-3-12l-34 3-8 1-1 4-9 4-1 14h-2l-1-13-2-2 8-3 5-1-5-21-3-14-2-6-13-1-13-5-4-5-1-5h-2l-1 9-5 25-7 20 1 2 10 3 8 1 22 1 1 2-7 1 1 14 2 9 8-1h3l6 4 1 5-3 3h-3v-2l4-2-1-3-6-2-5 1h-6l-2-7-2-12v-6l-2 1-3 11-3 7-1 5 3 1v2h2v6l-2 2h-8l-9-4-1-1v-7l3-10 2-10v-5l-6-1-37 3v-2l22-4h7l-2-3 1-7 6-15 3-10 2-15 4-14 6-9-5-2-5-4-3-5-3-1-1 3-6 4h-10l-4-2 2-4 3-4 1-3h2v5l-3 3v2h9l5-5 2-8h2l5 12 5 3-3-5-2-2v-6l4-4h7l3-3 4-13 4 1v2l16 3v1h-10l-8-2-4 10-4 4-7-1-2 1 1 7 4 2v7l5 4 4 1h9l10-5 6-8 1-2v-17l-1-4-1-5-5-6-7-4-4-1h-11l-9 4-5 4-5 11h-2v-7l-7 1-4 5-1 2-1 9-2-1v-9l6-8 4-2 9-1 7-7zm73 4-6 5-1 3v7l3 3 6 2 7-5 2-3v-6l-5-5zm9 17-5 3-2 4v5l6 4 7 1 5-4 1-6-2-5-2-2zm-16 1-6 4-1 1v8l4 3 5 1 5-3 1-1v-8l-4-4zm-23 2-4 3-1 7 3 5 2 2 9-1 5-5v-7l-6-4zm32 12-6 5v8l3 5 4 2 7-1 4-5v-6l-8-7zm12 3 1 5h2l-1-5zm-55 3-2 2v10l3 6 4 2-2-9-1-3h2l1 7 2 3h2v-7l-5-9zm-6 7-5 4-5 2 1 4 9 7h6l1-4-3-4-1-8zm41 4-1 3-3 1 3 2 4 2-2 4-5 4-11 3-1 8-3 4-9 3-1 14-5-1 1-14-6-2-3 1 4 19 3 10 4-1 8-6 9-5 11-9 14-15 9-18 1-7-4 2-3 1h-9l-3-3zm-70 3-5 6 2 2 1-2 9 1 7 4h8l-1-5-4-5zm53 1m1 2-5 4v2l9-1-1 1-9 2v2l3 1h8l8-3 3-3-1-3-6-2zm-55 4-2 1-1 7 6 7 11 3h11l10-2 1-3-2-7-5-1h-12l-12-5zm26 2-1 2h3v-2zm13 1-2 2 1 8 2 1 6-3 1-1v-5l-2-2zm10 7-3 3-1 7h6l3-3v-5zm-12 6-4 2v2h5l1-4zm4 3v2h2v-2zm-1 4 1 3 1-3zm-1 5v3h2v-3zm-1 7m-42 33-4 18 1 5 5 1 3-1 7-19-1-4zm-5 25-2 5 7 4 8 1 2-2-1-5-3-2z"/><path transform="translate(537,557)" d="m0 0h2l-1 8-4 15h-2l1-9z"/><path transform="translate(642,606)" d="m0 0h6l6 6v9h-3v-9l-4-3h-8z"/><path transform="translate(549,614)" d="m0 0h2l2 4 6 3-2 2-6-3-4 1-1-5h3z"/><path transform="translate(481,642)" d="m0 0h47v3h-44l-1 17 43-1 3-1-2 4h-45l-1-1z"/><path transform="translate(303,687)" d="m0 0h7l-1 2-22 4-25 6h-6l2-2 27-7z"/><path transform="translate(710,687)" d="m0 0h8l25 4 27 7 11 6 3 3v6l-3 3-11 4-17 4-15 2-11 3 1 3 7 3 10 4 2 2 1 5-3 3-15 4-20 3-42 3-46 1v-1l20-2 53-3 27-3 21-4 2-3-3-3-12-5-5-4-1-3 5-4 42-8 9-4 2-3-3-5-16-6-37-8-16-2z"/><path transform="translate(475,697)" d="m0 0h65l-1 2-10 1h-44l-10-1z"/><path transform="translate(438,698)" d="m0 0 4 2 2 3h-3l2 6v4l-4-2-5-2 2 6h-2l-4-9 5-1 3 2-1-8z"/><path transform="translate(253,699)" d="m0 0h2v2l-12 6-1 3 3 4 14 4 26 6 9 2v2l-8-1-12-2-20-5-12-5-2-4 1-5 4-4z"/><path transform="translate(305,735)" d="m0 0h2l-1 3-10 7-1 4h2v2l6 1 13 3 12 2 26 2v1h-19l-16-1-19-4-6-4-2-3 1-4 6-5 5-3z"/><path transform="translate(619,759)" d="m0 0 2 2v6l-4 3h-8l4-2 4-1v-6z"/><path transform="translate(405,760)" d="m0 0h11l13 3 8 3 14 2 17 1v1h-28l-13-4-6-2-17-2z"/></svg>
