<?xml version="1.0" encoding="UTF-8"?>
<svg version="1.1" viewBox="0 0 1024 1024" xmlns="http://www.w3.org/2000/svg"><path transform="translate(485,272)" d="m0 0h11l10 4 3 3v2l-10-5-4-1h-8l-10 4-6 6-9-3-9 2-7 8-10-3-9 2-6 4-4 7-2-1 2-6 8-7 6-1h15l4-5 7-3 10 1 5 2 2-4 8-5z"/><path transform="translate(589,302)" d="m0 0h7l9 4 5 4 6-3 10-1 8 3 6 4 2 3h-3l-5-4-5-2h-12l-6 3-4-1-9-6h-11l-9 6-1 2-13-1-6 4h-3l4-5 2-1h14l7-6z"/><path transform="translate(364,330)" d="m0 0h10l4 2v2l-13-1-6 3-5 1-3-2h-16l-6 4-4 5-3 7-11 1-7 4-3 5-2 4v-7l6-7 8-3h8l2-7 4-5 9-4 8-1 8 2h6z"/><path transform="translate(664,350)" d="m0 0h9l6 3 2 3 6-2h11l8 4 6 7 1 2 12-1 9 2 7 6 2 5h-3l-7-8-5-2h-10l-4 2h-3l-5-9-5-4-4-1h-9l-8 2-5-5-3-1h-7l-6 3v-3z"/><path transform="translate(496,228)" d="m0 0h11l9 3 6 4 5-2 8-3 4-1h17l12 3 8 5v2l4 2 6 1 9-2 9 1 7 3 7 8v2h12l6 4 4 5 1 2h17l11 4 8 7 6 12 11 3 6 5 3 6h8l9 4 4 5 3 6 10 1 6 4 4 4v3h15l10 4 6 4 6 9 2 7 1 8 7 6 2 11 9 4 4 5 2 4v11l7 3 8 6 4 6 1 3v8l-5 8-7 4-3 9-5 4-7 3-16 1-4 4-7 3h-9l-8-2-10 6-4 1h-9l-9-2-11 8-11 4h-13l-13-5-3-2-7 1-8 1-9-2-10 4h-11l-11-5-7 1h-10l-4-3-5 1-10 6-10 9-8 10-6 12-2 8v26l1 28 5-2 9 1 4 5 3 3 2-4 4-3h7l7 4 2 4v9l-3 4 8 2 4 4 1 3v8l-4 6-2 2-6 1-3-1 3 11 4 5v2l3-1 4-11 8-7 3 1 2 6v7h2l2-5 6-12h2l1-4-11-6-8-9-3-6-1-5v-10l3-9-1-5-3-4v-6l3-2 2-6 5 1h13l9-2h8l7 2 5 4 4 4 5 3 4 7 1 4v15l-2 8-6 10-8 7 5 5 5 7 5 14 5 21 1 6v12l-2 2v22l1 4 40 6 18 2 30 6 22 6 10 5 4 4v6l-6 5-13 4-21 4-15 3-7 2v4l9 3 11 5 2 3-1 5-5 3-18 4-29 3-73 4-12 1v7l-6 3-23 2h-98l-62-2-16-3-12-4-18-2-75-2-24-3-16-4-6-4-1-6 7-6 5-2 1-2h2l-1-3-9-4-31-6-23-6-7-5-1-7 6-5 14-6 38-9 11-2 17-2 20-3 1-10 6-15 4-16 5-17 4-9 5-7 2-1v-2l-8-6-4-5h-2l-3 5-7 4h-8l-6-3 4-5h2v-20l2-5 4-5 4-2h10l2-4 8-7 12-3 11 1 10 5 7 8 2 4v8l1 9-2 9-6 8-6 5-5 1 6 12 5 7v-14l2-5h4l6 5 5 9 2 4 6-10 2-8h-7l-5-3-3-5v-9l4-6 4-1h5l-4-6-1-6 3-6 6-5h8l6 4 1 2 2-4 7-5 9 1 5 4 2 8-2 6h8l3 1 6-16 3-9v-9l-1-5v-18l4-20 1-6v-8l-2-10-3-6-12-12-15-10-4-1-5 4-8 3h-10l-10-3-4 3-8 1-7-3-6 1-10 2-10-3-6-5-5 1h-11l-7-4-6 1-7 1h-8l-9-3-7-6-4 1h-10l-7-4-4 2h-13l-8-4-5-6h-12l-5-3-3-5h-13l-10-5-5-6-1-3v-9l5-8 2-12 6-7 6-2v-12l6-9 5-4 9-3 2-9 6-8 8-5 15-3 4-9 5-4 7-3 9-1 4-6 5-4 10-2 7 2 2-4 5-3 7-1 4-10 5-6 9-5 12-2 5-12 9-8 8-3h16l7-9 10-6 8-2h18l9 3 7 4 4-1 6-3h10l7 2 7-5zm-2 2-8 4-4 4-9-3h-7l-8 4h-4l-12-6-9-2-14 1-12 6-7 7-3 5-6-1h-10l-11 5-6 7-3 7-1 5-13 1-9 4-4 5-3 7v6h-9l-6 4-2 2h-13l-7 4-4 6v3l-3-1h-7l-8 4-6 7-2 6-12 1-10 5-4 5-3 7-1 6-11 3-5 5-3 5-1 4v9l-6 3v2l-4 2-3 6v9l-3 2v2h-2l-1 3v9l3 5 5 4 9 3h12l3 5 5 3h12l7 8 4 2h14l7-1 5 3h7l7-1 5 6 7 3h13l7-3 5 1 3 3 4 1h10l5-1 6 5 5 2h11l6-3 5 1 3 2h9l5-3 6 1 5 2h8l10-4v-4l-11-4-20-3-20-2-17-3-17-7-12-6-10-8-5 1-8 3h-7l-9-3-4-3-6 2h-12l-5-3-5-1-3 1h-7l-7-4-2-4 2-1 2 4 5 4 9-1 5-1 6 5 9 1 7-4 12 6 10 1 10-5 3-4 13 2 8-4 2-3 6 1h11l5-3 4-5 1-5 6 2h10l6-3 5-8h7l7-3 3-4 1-7h14l5-4 2-3 4 2 7 5 7 2h8l9-3 5-2 7 7 6 2h8l5-2 4 1 7 6 8 3h14l9-4 5-3 4 2 8 7 10 4h13l10-4 3 1 5 6 3 1h10l7-3h3l5 5 5 3h15l5 9 8 6 5 2h10l9-3v2h2l2 4 5 4 3 1h14l8 6 9 3h8l8-3 7-5 15 3 10-3 5-3-5 5-6 1h-9l-10-1-8 5-6 2h-10l-11-4-6-5-6 1-16 10-16 6-17 4-25 3-16 1-16 4-4 2 1 3 2 1h10l9-1v2l10 3 11-1 8-3h4l3 2h8l5-3 5 1 10 5 8 2h8l10-3 8-4 5-6 11 3h7l10-4 2-2h8l9 1 9-3 5-5h14l8-3 7-8 1-4 8-6 3-5v-7l-2-5-4-5-13-8-2-2v-11l-4-6-6-4-4-1-1-10-6-5-3-2-1-12-3-7-8-8-11-4-14-1-6-8-5-2h-10l-3-7-4-5-6-3h-12l-2-6-5-5-4-2-9-1-3-10-6-7-8-5-8-2h-9l-7 1-4-7-6-5h-12l-7-9-3-1v-2l-5-2h-12l-6 3-5-1-8-7-13-6-6-1h-10l-11 3-8 5-4-1-6-5-5-2zm-52 146-5 4-2 1-11 1-4 8v2l-5 2-3 1h-8l-2 3 1 8 7 10h2l2 4 8 6 6 2 1-1 9-2 5-4 2-3 6 2 2 1h12l7-4 1-4-11-14-9-18-6-3-2-2zm37 3v16l3 6h-2l-7-10-3-6-1-1-11-1-1 3 7 14 3 4h2l2 4 3 5 8 7 7 11 4 10v10l-2 4-5-1-10-7-12-5-29-8-9-4h-2v-2l-9-6-8-8-7-11-5 2-9 3 2 6 7 11 5 5 6 7h-20l-13-1-15-5-14-8h-10l-7-1-1 3 5 3 4 4 16 8 12 5 15 4 35 3 14 3 15 6 14 10 10 9 6 9 3 9v13l-4 18-1 8v14l1 7v10l-6 17-3 8 1 13-3 6-3 3-2 14-6 8-4 8-14 15-10 8-7 4v2l-5 2-8 6-3 3v2l39-3 3-2 1-1 1 2h11l7-2 2-15 4-13 8-15 8-8 1-2 3 1 12-4h18l11 4 10 7 6 10 6 15 2 11v9l2 2 16 1-2-5v-2l5 7 45 4 2-2-14-11-12-11-6-7-4-6-7-6 1-5-4-10-4 1-7 1-8-4-1-2v-11l2-5-9-2-3-5v-8l4-6 1-1 8-1v-11l1-2v-23l-1-29 3-16 8-15 8-10 10-8 17-9 6-2 27-4 26-3 21-5 13-5 12-7v-2l-7-3-4 1-19 8-13 3-10 1h-21l1-4 1-3h2l8-14 5-12-5-2-6-1-3 5-7 14-6 7-14 8-15 4-14 3-11 5-11 6-8 8-6 10-2 5 3-9 2-5h2l1-4v-21l4-12 4-6 11-13 5-5 3-5-1-4-7-2-3 5v-7l-4-3-5 8v2h-2l-6 8-9 8v2l-5 2-8 4v2l-8-7-12-11-6-7-4-7-2-10-10-5-3-4zm-4 2-4 4 4 6h2v-9zm32 5-10 2-1 3 5 12 8 10 9 7 9-3 5 4h5l13-11 8-13 1-5-3-3-5 2-9 4-10 1-11-3-8-5-2-2zm92 12-7 3-12 2-4 5-8 11-6 6v2h7l6-1 5 4 5 2h9l8-3 6 7 9 2 8-6 4-6v-2h2l5-13-1-4-4-4-7 1-5 2-9-1-5-3-4-4zm-221 8-6 8-8 4h-8l-6-2-4 4 2 5 20 8 14 3h19v-3l-8-9-8-13-4-5zm275 5-12 24-6 8v2h16l17-2 16-5 10-5 2-3-4-5-7 1h-13l-7-3-6-5-4-7zm-179 6-5 4-6 2h-7l-10-3-7 6-8 2 1 3 9 4 24 6 9 4 11 6 3 2h3l1-9-3-10-7-12-5-5zm51 2-4 3 2 4h6l2-4-3-3zm47 8-7 2h-5l-5 6-3 6-1 7v17l4-2 14-9 10-4 26-6 6-3v-2l-8-6-3-2-4 2h-13l-6-3zm72 113-12 3-8-1-3-1-1 5v2l-4 1 1 5 4 5 5 2h14l3-1v4h8l6-3v9l3 5 9-1 3 3v7l-5 7 1 2 4-2 5-9 2-9v-8l-3-10-5-5-5-2-5-6-6-2zm-24 21-3 12 1 11 4 9 4 5 12 6 4 1h8l9-3 8-6-1-9 4-2 1-6-3-4-5 1h-4l-2-3-3-9-11 1-3-2-15-1zm-266 6-9 4-5 4-5 10-1 4v8l4 11 6 7h2l1-5-4-3v-8l1-1h8l5-5 3-10 2-4 6 5 5 2h10l3-1-1-6-7-8-9-4zm211 2-6 4-2 3 1 8 6 7 3 2 4-1 6-2v-13l-3-6-4-2zm22 2-5 5-2 6v8l6 4 2 1 10-6 3-4v-7l-2-4-6-3zm-154 4-4 5-1 3v10l4 3 7 2 7-6 3-5v-7l-1-2h-2v-2l-3-1zm-21 2-6 5-1 2v7l6 7 5 2 5-1 5-4v-8l-3-6-5-4zm-83 3-6 3-3 5v18l-3 5-2 3 4 2 7-1 7-6 1-2v-23l1-2-1-2zm33 3-4 10-5 6-7-1-2 2v6l3 3h2l-1 8 6 4 11 1 10-2 6-5 5-8 1-4v-12l-2-4-16-1-5-3zm190 5-5 3-3 5 1 8 4 4 8 1 9-4 1-10-3-1v-2l-9-4zm22 4-5 4-1 2v7l4 5h10l5-5v-7l-4-5-2-1zm-124 1-9 5-2 3 1 8 10 4 8-1 4-6-1-9-5-4zm147 0-8 4-1 5v5l9 6h8l5-4 1-9-2-4-5-3zm-169 4-5 2-3 4v7l4 5 2 1h7l5-5v-9l-4-4zm-27 3-5 6v8l4 5 2 1h8l9-7-1-10-6-3zm257 4-5 2-12 1-4 5-4 13-1 11v6l4-2 8-8 5-9v-2h2l5-6 7-1 5 3 3 6-1 10-6 12-10 10-12 7-11 4v3l9 2 14 1 18-2 11-3v-11l-3-16-4-16-8-15-5-4zm-94 4-6 3-5 6v6l3 5 6 3 6-1 5-5 3-10-5-5-3-2zm21 1-8 4v12l3 5 3 3h8l7-6v-8l-7-8-3-2zm-146 3-7 7 2 9 5 6h9l5-5 1-2v-6l-4-5-8-4zm-20 3-7 7-2 4v6l4 5 2 1h9l4-3 1-3v-12l-5-3-3-2zm33 0v2l3-1zm205 1-5 5-9 14-5 5-13 11 1 6 4 6 3 1 12-5 9-6 8-8v-2h2l4-8 1-3v-11l-4-5zm-38 1-7 8-2 5v10l2 1 5-13-1 5-3 11 4-1 4-5 1-4 1-9-1-7zm-267 5-7 6-5 12-4 13-3 11-3 12-6 15 1 3 15 5 14 2h11l13-2 8-3-2-10-3-12-8-3-14-7-11-11-3-10v-8l3-5 5-1 7 2 2 5 7 10 7 7 2-2-4-17-5-8-2-2zm34 2-2 6 2 12 6 9 2-2-2-7 3 6h2l1-6-3-10-7-8zm244 1-6 9-6 10-4 3 2 5h6l7-7 2-10 1-10zm-116 1v2l12 6 7 7 6 10 4 16 1 7 1 30 2 1 3-2v-29l-4-19-7-14-8-8-12-6zm60 0 1 7 5 8 9-2h7l7 1-2-5-3-4-4 1-5 2-7-1-5-4-1-3zm-81 2-10 4-8 7-9 17-5 21-1 9v18l5 2 15 2 16 1h19l26-2 2-2v-29l-2-16-6-14-7-9-7-5-12-4zm106 0 1 3v-3zm-250 3-4 5 1 9 5 10 8 8 12 6 6 2h5l2-4v-7l-11-8-5-5-7-10-5-6zm83 0-4 6-5 3-8-1-2-2h-4l-4 6v3l3-1h17l6 3-2 4-8 6-6 2-12 1-1 1-1-3-4 2 2 4-2 7-3 3-1 4v7l7-6 19-12 5-3 12-12 7-8 4-5 1-3-2-1-8-1-4-4zm169 0m1 1m-195 2m196 0m-197 1 1 2zm198 0 1 2zm-199 2m200 0m-201 1-1 4 2-1zm202 0 1 4 1-3zm-229 1 3 16 5 3 8-1-1-5-12-11-1-2zm209 2-7 3 2 4 8 5 4 1h10l6-3-1-2-9-2h-8v-2l16 2-5-5-3-1zm-173 4-10 4-1 3 13-1v2h-7l-8 2v2l6 2h8l10-4 5-6-5-3-4-1zm-13 2m210 0m-211 2m212 0m-213 2m214 0m-215 2m211 1v4l4 1-1-5zm8 0-1 4-2 3 1 5 1 1h11l2-1-1-5-4-7zm-28 1 4 6 7 7 11 9 5 4 3-1-4-13-6-8-2-3-7-1zm-200 5-5 11 6 3 6-2 1-1v-5l-3-3-1-3zm236 8-3 2 1 8 2 9h3l4-16-2-3zm-6 2 1 9 2-1-1-7zm60 0-17 3h-16l-13-1-4 17-2 17v18l9 3h5l4-9 3-11 5-12 1-5-4-11h2l3 11 3 9 10 16 9 10h7l7-5-1-5-7-17-1-6-1-21zm-294 4-1 3 2 8h2l2-9zm6 5-1 11 2-1 1-9zm230 1 1 3zm1 5v5h1v-5zm-177 0-47 4-6 2v9l-4 1-4-2-3 2 2 24 8 4 1 6-5 3h-13l-3-2-2-15-6-18-5-1-6 11-10 13 1 13h-8l-8-6-2-6 4-6 5-8 4-9-1-5-6-1-21 3-17 2-38 8-17 4-12 5-7 5 1 6 8 4 32 7 21 5 8 4v6l-11 6-1 7 5 3 11 3 20 3 28 2 68 2 13 3 8 3 16 2 42 2 31 1h74l26-2 9-3v-3l-1-4 15-2 35-2 47-3 32-4 9-3 2-4-6-5-11-4-5-4v-4l11-4 39-7 9-4 3-3-1-5-8-5-13-5-39-8-30-5-13-1-17-2-1 2 6 15 4 9 1 5-4 6-12 6-5-2 1-7 1-6-5-4-11-15-5-10-3 1-6 15-6 20-3 5-8 1-10-2-4-1v-6l3-3 6-3 1-21 1-10-5 1-2-4-17-2-28-2h-22l-1 14 2 2 10 3 3 11h3l5-2 1 2-3 7v3l9-1-2 8h-2l2-7-6 2-3 2 1-8 1-5-4 2-6 7-2 3h-2l-2-4-3 3-1 3-27 3h-37l-36-4-1-5h-2l-4 4-7-9-3-1 1 11-8-5-1 4v1l-4-8 8 3 3-1-2-9 4 2 5 5h2l2-14 5-4 8-3 1-1v-14l-1-1zm-56 6v8h2v-7zm-48 10-4 9-4 8 1 5 2 2h5l7-8 6-10 1-4-3-2zm28 0-4 2 5 19 2 5h7l3-3-1-17-2-6zm89 2-8 3 1 3 12 3 5 1 20 1h40l19-1 12-3 3-3-6-3-5 1-7 3-23 2h-28l-23-2-9-2zm-11 7-1 3v13l3-1 2-3h2l2 7 24 3 15 1h26l31-3 3-3v-4l8 2 3-4v-10l-16 2-17 2h-49l-27-3zm243 12-9 5-5 8 1 4 7-1 9-6 1-7-2-3zm-361 1-2 2v5l5 5 4 3h5l1-5-4-6-6-4zm296 3-6 3-2 4 3 3 5 1h12l2-2v-5l-8-3zm-245 2-7 1-1 1v5l3 2h11l5-3-1-4-5-2z"/><path transform="translate(495,425)" d="m0 0 2 3 5 10 9 11h-3l-9-11-4-8z"/><path transform="translate(630,438)" d="m0 0 1 3-7 7-13 6-8 2h-4v-2l13-3 10-5 6-5z"/><path transform="translate(524,506)" d="m0 0h2v7l-6 25-3 14-2 10-2 1 1-11 3-14 6-25z"/><path transform="translate(507,512)" d="m0 0h2l-1 8-3 9-4 2-3-4v-2h2l1 3h2l3-10z"/><path transform="translate(541,551)" d="m0 0h2l-2 14-4 16-1 6h-2l1-11 5-19z"/><path transform="translate(512,565)" d="m0 0h2v20h-2z"/><path transform="translate(534,596)" d="m0 0h2l3 10 6 9 1 4-5-5-6-10z"/><path transform="translate(552,633)" d="m0 0 2 3 7 26 2 7h-2l-7-21-2-11z"/><path transform="translate(479,653)" d="m0 0h50l1 2v20l-2 2h-49l-1-1v-22zm1 3v18l1 1h46l1-1v-17l-1-1z"/></svg>
