<?xml version="1.0" encoding="UTF-8"?>
<svg version="1.1" viewBox="0 0 1024 1024" xmlns="http://www.w3.org/2000/svg"><path transform="translate(661,211)" d="m0 0h20l15 3 18 7 18 12 6 5v2l4 2 9 10 8 13 8 17 4 12 2 13v34l-1 8v15l6 11 9 10 7 11 3 7v18l-4 8-4 5-7 4-5 9-8 7-6 2-16 1-5 4-7 3h-19v17l-5 15-5 9-1 1 1 25 3 20 4 11 4 12 8 25 11 34 12 37 3 10 8 24 1 4v8l-17 8-22 6-19 4h-4v14l-2 34v7l1 5v12l-4 6-10 6-16 7-6 1h-24l-6-4-3-4-16 4h-18l-9-4-2-3 1-9 9-9 18-11 8-6-1-25-2-19-26-6-20-5-18-7-6-5 1-10 7-31 5-18 4-17 1-8 8-32-10 3-6 5-6 7-14 9h-12l-1-1 1 6 5 12 4 10 1 6-3 3h-6l-4-5-1-3 1 5 4 13-1 8-1 1h-6l-5-9-3-10v-3h-2l1 15v16l-2 2-6-1-2-2-2-11-1-17-2 4-6 20-9-1-1-6 4-17 2-5h-2l-1 4h-2l-2 4-4 5-4 1-4-4 1-6 6-10 6-16-3-2-12-3h-23l-21 1 5 23 1 17-6 4 1 20 3 26v11l-5 3-13 4-1 1-2 29v15l19 10 9 6 2 7-1 5-5 7-3 1h-34l-8-2-8-4-4-4v-45l-2-20-1-2-5 1-5 2-14 2-2 18-1 24 21 12 8 7 1 2v8l-5 6-7 3h-22l-16-4-10-4-4-6v-14l1-4v-31l-1-16-1-3-11-3-7-1-4-3v-35l1-26-5-3-1-7 6-41 4-21 6-21 5-12 9-14 6-5 9-5h2v-2l-12-1-12-3-18-8-12-11-3-3-8 1-2 1h-9l-11-6-5-6-2-6v-12l3-6 6-6-1-7-5-11-2-13v-19l3-9 4-6 4-3v-2l-8-1v-3h11v-19l3-1 2 5v10h2l3-9 4-7 6-5 3-5 6-4 7-6 21-11 14-4 9-1h11l7 2 3 3v5l5-1h15l8 2 11 4 7 8 1 9 8 10 3 9 3 12 2 13 9 4 5 5 3 6 4-14 1-5-7-8-1-9 3-9 9-8h12l1-9 4-6 8-5h12l9 6 3 6v4l4-2h11l8 6h4l3-3h2l2-5 6-3h7l8 4h2l2-4h2l4-8 2-10v-48l3-20 5-14 8-16 8-10 8-8 13-8 16-7 24-1 12-6zm1 5-16 4-10 5-5 1h-15l-16 5-8 4-13 12-7 7-9 15-2 6-4 13-3 18v23l1 11h3l5-10v-2l7-2 3-3 2-7v-7l-3-3 6-2 19-9 7-7 5-4 2-5h2l7-12 3-15 2-1v10l4 14 5 10 11 12 12 11 17 9 17 6 22 5 10 9 4 6h3l6-2h7l8 3 5 6 1 4v10l-6 10-5 4-3 1-17 1-9 12-9 10-6 5v2l-6 2-12 6-15 5-2 4 2 6 2 2 20 5 12 7 7 8 2 3 9 3h12l10-4 4-3 14-1 9-4 5-6 4-8 8-5 6-7v-19l-6-11-11-13-4-4-3-9v-21l1-6v-31l-6-21-8-19-8-12-5-6-8-7-11-11-9-5-12-6-14-4-6-1zm-41 55-10 14-6 7-9 6-7 4-8 5-3 6-3 17v37l4 12 5 10 12 13 7 6 11 6 16 5 18 2 15-1 22-6 13-8 10-9 11-12 5-8v-2l7 3h8l9-5 5-6 1-3v-10l-5-8-5-2-11 1-4 4-4 1-3-10-5-6-9-4-25-7-11-4-19-11-12-11-7-7-9-16-1-3zm-53 59-6 7-1 2v9l5 10 5 1v-29zm-12 16-2 4-2 13 1 2 15 4 4 1-1-5-7-5-7-14zm-237 2-18 6-16 8-13 11-10 10-8 12-4 10-10 9-5 10-1 3v17l5 18 4 10 3 3 11 4 5 1-1-8-2-8v-11l6-6 4-9v-13l-3-11h15l6-3 4-6 8 4 5 2 9-1 8-7 2-3 1-7 2-1 11 6h9l6-4 3-5-1-9 6 4 5 4 6 2h6l6-1-1 5 8 8 9 14 3 1v-13l-4-12-9-11-1-5-1-7-6-5-2-3-12-4h-18l-12 3 3-9-2-3zm143 18-8 3-4 7 2 10 5 8 5 1 12-2 4-10v-10l-4-5-6-2zm92 2-6 3-4 7v13l3 3 10 4 5-1 7-6 3-5v-9l-7-8zm-28 7-7 3-6 7v8l8 3 8 4 2 2 4-1 7-7-3-12-6-6zm-39 5-7 8-3 5 3 9 2 2 16 1 8-7 1-7-3-7-4-4zm89 2-2 5v5l7-1-2-6zm-139 4-6 3-5 7v10l6 8 15-2 5-3 3-10-1-4-7-7zm-79 4-3 6-6 4h-13l-9-2-6 11-9 4h-9l-6-2h-7l-5 4-13 3-1 2 1 5v12l-3 8-7 10v9l1 6v12l-5 1-6-4h-10l-8 6-2 3v11l4 7 8 5 3 1h8l10-4 9 10 15 10 13 5 9 3 6 1h19l23-5 13-6 10-6 10-9 7-9 4-8 4-10 1-11-4-4-1-3v-14l2-4-1-11-2-8-8-16-6-9-7-6-4-5-8-2zm216 5-10 4-3 2 1 17 12 6h7l6-4 2-3 1-10-3-7-4-4zm-112 2-6 5-1 2v9l4 6 4 2h6l6-11 3-3v-5l-6-5zm52 1-7 3-5 6-4 10v17l3 8 9 2h5l8-10 5-8 2-10-1-10-5-6-5-2zm28 0-6 5-1 2v7l9 6 2 3h7l7-7-1-10-7-6zm51 7-1 1-1 9-3 6-4 4-8 1-2 2 1 7 11 8 11 3h6l11-7 8-3 10-3 1-1v-9l-4-2-8-2-15-6-9-6zm-107 2-8 5-3 3v2h-2v14l3 7 5 5h10l4-1 1-2v-31l-3-2zm-42 7-7 4-3 4 1 1 16 1 6 3h3l1-4-8-9zm91 1-3 4-6 16-7 8-1 3 3 3 5 3 6-1 8-6 5-7v-13l-6-8zm22 6-8 5-1 9-2 5v6l4 4h12l6-3 4-5v-10l-9-10-1-1zm81 3-2 5-2 7-6 2 1 11 3 5 6 3h13l10-6 9-10-1-5-3-5-3-7zm-201 1-6 4-2 4v8l5 10 2 2h14l5-6 2-5v-11l-5-5-3-1zm28 0-3 5v9l5 1 6-2-3-12zm-59 1-2 3 5 13 4 1 7-3-1-7-7-7zm215 13-10 4-10 9-3 4-1 4v7l5-1 4-7v10l4 2 2 9v7l-2 7-4 3-7 3 1 6v8l-2 5-6 7-6 27 4 1 18-12 12-9 9-7 12-11 13-13 1-11 4-5v-2l3-1 12-16 5-6v3l-5 8-5 4-11 16 1 5 9 9 8 7 7 6h7l10-13 6-10 5-12 1-4v-13l-4-9-6-8-8-6-8-4-3-1h-8l-8 10-8 7-6 3h-16l-5-3-5-4-3-12zm-45 2v3l2-2zm-112 2-10 10 1 6 3 7 3 5 3 1h9l7-9 4-4-1-9-6-7zm-50 1-7 5-3 5v11l5 6 4 2 14-1 2-6v-5h2l2-3-1-6-6-5-7-3zm76 1-5 5 2 6 12 4h9l5-5 5-2-2-4-15-4zm49 3-6 5 1 5 4 2 8-8-1-4zm36 0-5 4-1 2v11l3 7 9 2 5-1 7-8v-11l-7-6zm20 1v2l2-1zm-45 5-7 5-3 6v7l2 2 10 2 2 4 4 2 7-8 2-1-2-10-4-6-3-3zm-111 1-5 4-2 3v11l6 6h10l6-5 1-2v-10l-4-5-5-2zm79 0-8 6-2 5 1 13 4 3 4 1h9l7-7 2-3v-9l-6-7-5-2zm-31 6-8 6-2 5v7l4 6 8 5h7l6-6 5-3-1-9-5-8-4-3zm108 10-6 3-3 3 1 15 5 3 3 1h8l5-3 2-3v-13l-6-6zm-138 3-5 6-7 3v11l5 8 4 3h8l8-11 4-4-1-7-9-8zm-32 1-9 6-3 5-1 6 4 8 8 5h8l5-4 4-7v-11l-11-7zm142 0-5 4-2 5 1 9 7 6 9-1 7-5v-10l-7-8zm-154 1 1 2zm58 0 2 3v-3zm69 1-8 5-5 5 2 13 8 4h11l6-5 1-3v-10l-6-8-1-1zm-32 7-6 3-4 5-1 2v10l7 7 3 2h9l9-7 1-2v-9l-5-8-2-2zm-101 9-10 16-9 10-13 9-10 5 1 2 11 2 43 6 6 2 1 2h2l1-14 2-1h22l11 4 10 6h3l-2-12-3-8-4-6-3-4-3-5-13-2-6-6-4 2-3 4-13 1-7-2-4-4-4-7zm68 0-6 5-1 2v10l4 6 2 2 9 1 10-4 3-4-1-13-2-3-5-2zm82 4-4 6-2 2-6 2 2 4 3 8 1 3 3 1h9l6-7 1-2v-10l-6-5h-2v-2zm28-1-11 7v14l5 6h11l7-6 2-9-9-10zm71 6-11 12-7 8-14 11-13 11-11 7-16 10-4 4-11 6-14 8h-14l-7 3-5 2-17 3v4l15 2v2l-15 4v4l17-1-11 7 1 3 11-2h3l-4 5v2l6-1 12-6 11-12 16-8 21-9 29-15 22-14 13-10 12-11 8-8-1-4-11-10-8-7zm-128 3-9 10 1 9 3 5 5 4 6 1 7-2 6-6v-11l-5-6-5-3zm-30 8-7 8-2 4v10l5 6 4 2h10l7-4 3-4v-12l-3-5-12-4zm200 1-7 7-2 3h-6l-14 14-16 12-16 11-21 12-16 8-9 5-10 4-4 4-5 23-9 36-3 14-8 32-2 12 6 4 19 7 9 3 16 3 20 3 23 2h25l30-3 17-3 17-4 20-8 4-3-2-10-17-51-5-17-7-21-12-37-8-25-3-13-1-18-2-6zm-129 6-7 6-8 4-6 6 1 3 15 2v12l6-1 5-4 5-5 7-6 1-10-10-2-3-1-2-4zm-91 3-1 2 6 24 1 6 1 27 2 5 3-1v-22l-5-28-3-10zm72 3-2 4 4-2v-2zm-30 7-3 9-1 6h2l5-10-1-5zm-86 1-2 2 1 13 6 12 10 10 10 4h19l-1-6-12-13-9-6-10-6h-2v-2l16 8 10 8 7 7 4 5 3-1v-7l-4-10-9-10-7-4-13-4zm-79 2-17 3-7 2 2 7 6 4 3 1h12l6-5 1-7-3-5zm172 1-1 4 9-1 4-2v-1zm-160 2-7 14-4 3h-13l-12-6-3-3-7 1-8 6-7 7-7 11-7 22-4 15-4 27-3 29 2 2 24 6 19 3h41l23-4 13-4 12-3 4-2v-9l-4-18-1-7-3-6-12-2-16-2-8-2h-6l-5 8-7-1-16-5-26-13-2-2 6 1 12 7 22 9 9 1 5-6 10-32-1-7-9-4-16-7-16-5-10-1-2-1h11l17 5 20 8 9 4 2 5 8 4 7 2 5-1-2-10-8-16v-3l6 9 4 10 3 6 3 2h11l3-9 1-5v-22l-2-2-27-5-16-2zm123 2-1 2 2 8h5l1-5-6-5zm51 0-10 2-11 7-7 9-2 5v7h3l8-8 8-5v-2l6-2 14-5-1 2-7 2-15 9-12 11-1 4 3 1h17l10-3 9-7 7-14 2-10-2-2zm41 4-10 8-5 5-5 3-4 4-2 4-5 4v3l7-1 4-2v-2l5-2 10-6 5-5 3-12zm-73 2-2 4v5h3l1-9zm-7 2-1 1-3 26v9l4 1 2-7 2-29zm-72 3-4 5-1 16 1 5 12 2 12 1h12l18-1v-2l-20-1-10-3-9-6-3-3-6-12zm64 4-1 1v10h3v-11zm0 16v12h1l1-5v-7zm-69 10-4 4-11 1v2l12 3 29 4h8l7-7 3-2v-2l-18-2-12-1zm86 0m-32 1-10 8-7 7-23-1-27-5-26-6h-6l-3 7-5 16 1 4 14 4 19 3 60 1 14 3h14v-3l-7-3v-1l11-1 5-3-1-2-13-1v-2l11-2 7-3-2-3h-17l12-6 2-3-1-1h-8l-9 2-4-1 3-6zm30 24-1 1v21l4 23 5 18 1 2h2l1-5-3-10-4-24-2-22-2-4zm6 9 2 15 4 12 7 12 2-1-2-9-8-18-3-11zm-15 4v2h2v-2zm0 3-2 2v24l2 24 2 8 4 1v-11l-2-23-1-17-1-7zm-17 5-8 17-7 12 1 3 4-1 9-16 3-10v-5zm8 1-2 3-6 30-2 9 1 5 3-2 6-23 2-15v-6zm-85 41-12 4-29 4h-52l-5 8-5 5-5 4-11 3-2 4v27l4 3 20 4h45l4-3 6-30 3-3 12-5v3l-5 2-6 3-3 8-3 18 1 1h28l18-3 8-3-1-19-2-22-2-12-1-1zm-118 3-1 2-1 19 3 1 7-2 8-6 5-7-2-4-12-3zm102 60-19 2-2 2 3 21 5 2h13l5-3 1-2 1-20-2-2zm233 2-2 2 1 25 1 23-5 2-11 6-4 3 1 5 1 1h11l16-7 9-7 3-3 1-30v-18l-1-1zm58 0-12 1-2 2 2 30v18l-8 7-11 7v4l1 1h15l12-5 12-10 3-40v-15zm-30 1-1 1-3 30v20l2 7 7-1 10-7 1-1v-15l-1-19-2-13-2-2zm-341 3-1 1 1 22 4 3 5 1h11l4-3 1-7v-15l-1-1-8-1zm81 23-17 1-1 5 1 10 6 4h9l5-3 1-16zm-79 7-2 3 1 12 5 3h12l5-5 1-11-1-1zm82 13-2 1h-19l-1 1-1 12 6 4 9 3 9 1h23l7-3 1-2-4-5-19-10-5-2zm-83 7-3 6v7l7 4 21 6h20l6-3v-5l-11-8-16-7-6 1h-14zm331 1-8 6v2l-5 2-13 4h-10l-6-3-4 1-8 6-1 5 5 4h23l15-4 8-9 7-5v-8zm48 4-10 8-15 6h-13l-7-3-5 1-7 8 1 5 2 2 8 2 15-1 21-7 9-5 3-4v-11zm-314 9v2l11 4 12 2h14l9-3 1-2-30-1zm-66 5 2 4 9 3 12 2h26l1-3-27-1-11-2-9-3z"/><path transform="translate(608,259)" d="m0 0 2 1-1 4-8 11-10 8-9 5-5-1v-3l12-5 12-11z"/><path transform="translate(643,264)" d="m0 0h3l8 13 8 9 11 9 17 9 20 7v3l-16-3-15-6-18-14-8-8-6-8-4-7z"/><path transform="translate(599,302)" d="m0 0 10 1 2 4-2 1h-12l-3 1v-4z"/><path transform="translate(597,318)" d="m0 0h9l8 5 4 8v12l-6 9-5 4-7 1-7-2-6-5-2-5v-13l4-9zm0 4-1 4 5 3 3 5v11l-2 3 1 4 6-2 5-7v-10l-4-8-4-3z"/><path transform="translate(665,324)" d="m0 0h11l7 6 4 8v10l-4 8-6 5-2 1h-11l-8-6-2-4v-17l4-6 5-4zm3 3-4 2 1 3 6 4 2 4v13l-2 4h5l5-6 2-4v-8l-5-9-5-3z"/><path transform="translate(625,353)" d="m0 0h9l2 2v3h-8v5 3l-4-1-2-3 1-7z"/><path transform="translate(736,354)" d="m0 0h8l1 3-6 1 2 8h-3l-1-3h-4l-2 3h-3l1-6z"/><path transform="translate(608,372)" d="m0 0h9l11 3h15l10-2h7l6 3v12l-14 14-9 3h-14l-9-3-8-6-5-7-2-5v-9zm1 4v7l3 7 8 7 5-1 4-4 6-2h17l7 1 4-7v-5l-1-1h-40l-7-2zm29 15-8 4-3 3v3l9 1 9-1 9-5-2-4-2-1z"/><path transform="translate(364,410)" d="m0 0h13l8 4v3h-15l-9 3h-5l-1-5 6-4z"/><path transform="translate(299,426)" d="m0 0h9l3 3-1 4-4 2-12 3-11 7h-3l1-5 7-8 8-5z"/><path transform="translate(382,429)" d="m0 0h5l1 4-12 5-3 3 8-2 9 1 2 2-1 4h-15l-11 4-5 1-1-3 8-11 11-6z"/><path transform="translate(298,449)" d="m0 0h10l10 5 4 6-1 3-4-1-7-4-3-1h-8l-7 4-1 2h-2l-2 6-2-1v-8l4-6 6-4z"/><path transform="translate(347,460)" d="m0 0 6 1 4 4v7l-4 2-1-8-9 1 1-4z"/><path transform="translate(366,485)" d="m0 0 2 3-6 7-11 4h-12l-10-4v-3l5 1 3 1h14l9-4z"/><path transform="translate(242,489)" d="m0 0h9l5 3 4 5-1 1h-7l-3 4h-2v-5l2-3h-8z"/></svg>
