<?xml version="1.0" encoding="UTF-8"?>
<svg version="1.1" viewBox="0 0 1024 1024" xmlns="http://www.w3.org/2000/svg"><path transform="translate(679,185)" d="m0 0h13l18 3 21 8 15 10 9 7 14 14 10 15 8 16 6 17 3 18v28l-2 17v12l5 12 11 12 7 10 4 9 1 4v14l-3 8-7 8-7 4-5 10-8 7-9 3h-14l-6 5-11 4h-11l-8-1 1 5v12l-4 13-7 15h-2l1 27 3 22 11 31 3 11 9 27 5 16 6 18 3 10 9 28 11 34v5l-12 6-20 7-18 4-16 3-2 1-1 21-2 36 2 12v7l-3 7-9 6-18 8-12 2h-21l-8-3-4-6-14 4-6 1h-15l-11-4-3-5 1-7 7-8 13-9 11-6 8-6-1-23-2-24-1-3-26-5-18-4-24-9-8-5 1-9 7-30 6-23 2-11 10-41 3-15-15 7-8 10-15 10-6 2h-7l-3-3-2-3 1 7 7 19 6 12-1 4-3 3h-5l-4-5-2-6h-2l7 23-1 7-1 1h-7l-4-8-5-18-1-5v20l1 9v12l-2 2-7-1-2-3-2-14-1-27-6 26-3 10-2 2-7-1-2-3 1-8 5-19v-4l-5 9-6 8-5 1-4-4 1-6 8-14 5-12 1-5-8-1-11-3-47 1 4 19 2 11 1 14-7 4 1 19 4 38v5l-3 3-18 5-1 4-2 36v10l9 4 16 8 7 6 2 9-3 6-5 4-6 1h-25l-12-1-11-4-6-5-1-14 1-10 1-3-2-31-2-17-5 1-3 3-19 2-1 1-2 25-1 22 19 9 11 9 3 4v8l-4 6-10 4h-19l-16-3-9-3-8-4-3-6v-11l2-11v-19l-1-28-2-5-19-4-5-3v-28l2-38-6-3-1-5 5-37 5-31 7-24 5-13 9-14 7-7 15-8-26-4-18-8-11-7-11-11-5 1-6 2h-7l-9-4-7-5-4-8-1-3v-11l4-8 6-5 2-2-8-20-2-14v-17l2-10 4-7 6-5 1-3h-12l2-4h13l-1-2v-17l1-2h3l1 16 2 1 1-5 7-12 11-12 8-7 11-7 15-8 10-3 12-3 14-1 9 2 4 3v7l9-2h11l9 2 13 5 7 7 1 4 1 8 7 8 4 8 4 13 2 19 8 2 6 5 3 6 2 10 1-10 2-5 2-8 2-2v-3l-8-7-2-10 2-9 7-8 6-3 10 1 3 1-1-2v-9l5-8 7-4 4-1h8l7 3 5 4 3 8v3l6-3h10l8 5 3 4v2l3-3 2-4h2l2-4 6-4 9-1 7 3 4 4 5-9 4-4 3-17v-16l-1-14v-15l2-16 5-19 7-16 10-15 12-12 11-7 15-7 8-2h22l10-6 16-5zm-1 5-12 2-15 6-6 4-9-1h-9l-12 3-12 5-4 2-5 5-8 7-10 11-8 14-5 13-4 20-1 10v15l1 17 1 3h2l3-10 4-4 8-3 2-7 2-11-6-1 3-2 12-5 15-8 5-4 5-5 6-7 8-14 3-10v-7h3v9l3 14 8 16 11 12 9 8 13 8 10 5 20 7 22 5 9 7 7 11 1-2 10-3 8 1 5 3 6 6 2 7v8l-4 9-7 7-9 3h-8l-6-1-7 10-7 9-5 5-9 8-19 10-15 4-2 2 1 8 3 3 15 3 12 5 10 7 7 10 11 3h12l9-3 7-5h14l10-4 6-7 3-9 8-3 7-8 1-5v-17l-5-10-9-11-8-9-4-9-1-4v-16l2-14v-28l-4-18-6-17-8-16-7-10-22-22-15-9-11-5-17-5-8-1zm-46 59-7 10-7 9-7 7-18 11-6 3-3 8-4 26v23l2 12 7 18 9 11 8 8 10 7 21 8 10 2 18 1 16-2 16-5 9-4 8-5 12-11 6-7 4-4 6-10v-2l9 3h7l9-4 6-7 2-5v-9l-4-8-8-4-9 1-7 6h-3l-6-14-8-6-9-3-18-4-12-4-16-8-9-6-9-7-11-11-9-14-4-10zm-57 64-8 7-2 5v7l3 9 5 6 3-1v-33zm-16 19-2 14-1 6 12 2 7 4 2 1v-6l-9-6-5-10-2-5zm-255 2-15 4-22 10-10 8-8 7-7 7-9 13-5 13-9 7-6 8-3 9v17l4 17 6 15 3 3 9 2 7 4 1-3-4-17v-9l7-7 4-9 1-4v-10l-3-10-1-4 3-1 10 2 9-3 5-8 5 2 4 3 7 2 9-1 8-7 2-3 1-10 4 1 9 5 3 1h9l6-4 3-6-1-10 5 3 6 5 7 3h7l5-2h3v2l-3 2 2 4 7 7 10 15 3 4v-16l-4-13-9-12-3-2 1-8-4-6-7-6-9-3-5-1h-15l-16 3 2-6 2-2-1-4-1-1zm155 19-10 4-4 8 1 7 5 10 3 3 16-2 4-9 1-3v-9l-4-6-8-3zm99 3-7 3-4 8v12l1 4 12 4 3 2 10-8 3-5 1-2v-8l-4-6-4-3zm-30 7-8 3-6 7-1 3v7l1 1 10 2 6 4 3 3h2v-2h2l7-7-2-9-3-7-5-4zm-42 5-7 6-5 9 1 5 5 7h12l5 1 9-9 1-4-3-8-4-5-5-2zm95 3-3 11 10-1-5-10zm-150 4-7 3-4 6-1 3v10l4 6 3 2 7-1 12-2 2-1 2-9 1-5-7-8-5-3zm-86 4-4 8-7 4h-12l-11-3-4 9-5 5-9 3h-7l-10-3h-5l-5 5-4 2-12 1 2 10v8l-2 8-6 10-4 4v8l2 12v11l-5 1-7-5-3-1h-7l-6 3-5 6-1 2v10l4 8 9 6 4 1h7l11-5 9 10 14 10 12 6 17 5 8 1h16l17-3 11-3 15-7 13-9 8-8 7-10 8-19 1-9-6-7-1-4v-12l4-7-1-9-4-13-8-15-7-10-11-11-11-2-5-2zm236 6-9 3-7 4 1 4v14l10 5 3 1h8l6-4 3-5 1-7-2-8-7-6zm-122 2-7 5-2 4v7l4 7 6 3h5l5-10 6-6-2-6-6-4zm87 1-6 4-3 5v6l10 6 3 5 7-1 5-5 2-4-1-9-7-6-2-1zm-30 0-9 3-6 7-4 13v15l2 9 3 2 13 1 8-10 6-10 2-11-1-10-3-5-5-3zm83 8v9l-3 8-6 5-11 2-1 2 4 8 5 3 5 4 13 3h6l8-6 8-4 15-4 2-2v-8l-3-2-10-2-10-4-15-8-5-4zm-114 2-9 4-5 6-1 3v12l2 7 6 7h9l7-1 1-5-1-7v-12l1-9v-3l-6-2zm-41 7-9 2-6 4-3 4h19l6 4 4 2 1-6-6-5-2-4zm92 2-3 8-6 14-8 10v2l9 6 5-1 8-6 5-6 2-5v-11l-3-5-4-5zm26 6-9 5-1 1v7l-4 12 5 6 3 1h9l8-4 4-6v-9l-4-6-8-7zm87 3-1 1-2 13-7 1-1 1 1 10 4 7 7 3h12l9-4 8-7 5-7v-3l-5-5-2-9-1-1zm-217 1-7 4-3 5v8l4 10 4 4h15l4-5 3-8v-10l-5-6-5-2zm29 0-3 7v9l3 1 8-1-1-6-3-10zm-65 1-1 3 5 15 2 1 9-2 1-1-1-7-7-8-2-1zm235 15-12 5-8 7-6 8-2 10h6l5-10h2l-2 8v4l5 4 3 10-1 10-3 5-5 3-7 2 1 4 2 5-1 9-7 8-2 2-3 17-3 12v3l5-2 23-16 13-10 14-12 11-11 7-8v-4-5l16-21 8-10 4-4h2l-2 5-5 6v2l-4 2-13 18-2 5 7 7 8 7 5 5 10 8 5-1 10-13 8-13 5-13 1-5v-11l-3-10-6-9-7-6-10-5-7-2h-7l-7 10-9 8-8 4-4 1h-11l-7-3-5-5h-2l-2-15zm-50 2-1 3h5l-2-3zm-120 2-8 7-5 6 4 6 2 9 2 2 5 1h9l3-5 4-5 5-4-2-9-4-6-3-2zm-54 1-6 3-4 5-2 4v10l4 6 7 4 11-1 4-2 1-9 4-6v-3l-7-7-9-4zm83 1-6 2-1 4 2 6 1 1 10 2 6 3 5-1 5-6 7-3-1-3-14-4-6-1zm54 2-7 6-3 2 2 4 4 4 4-6 6-4-2-4zm38 1-6 4-2 4v10l2 8 9 2 5 2 8-8 2-4v-10l-5-6-5-2zm19 2 1 3h3v-3zm-33 4v2l3-1zm-14 1-7 4-5 10 1 7 13 4 5 6 3-3 3-5 5-3-2-9-5-8-4-3zm-120 1-6 4-3 5v10l4 5 4 2h9l6-4 2-5v-7l-2-5-5-4zm86 0-6 3-5 6-1 4 1 13 2 2 10 3 5 1 10-11 1-3v-7l-6-8-7-3zm-35 7-8 5-3 6v7l4 7 10 6 6 1 5-6 7-4-1-10-4-8-6-4zm119 10-10 5-2 2 2 9v8l6 3 4 1h7l5-3 3-6v-10l-1-3h-2l-2-4-3-2zm-152 4-4 6-9 4v10l4 8 4 4 3 1h8l3-4 3-6 7-6-1-6-5-6-6-4zm-34 1-10 6-4 6-1 6 4 8 9 6h8l6-4 4-6 1-5v-8l-9-5-4-4zm48 0 3 4h2l-1-4zm106 0-5 4-3 7 1 8 5 5 4 2 9-1 6-5 1-3v-8l-3-5-5-4zm-168 1-1 3 3-1v-2zm139 1-8 4-7 7 2 14 7 3 4 1h10l6-5 2-4v-9l-5-8-4-3zm-34 8-7 2-5 6-1 3v10l7 8 4 2h9l6-4 4-5 1-3v-7l-4-8-4-3zm-34 2v3zm-77 7-6 11-6 9-10 10-10 7-14 7v2l47 6 20 4 1 4h2v-16l4-2h20l12 3 12 7 5 4-1-9-3-13-4-6-5-5-2-6-1-1-12-1-5-3-5-6-4 5-3 3-11 2-9-2-6-5-4-9zm75 0-5 3-3 3-1 3v10l4 6 4 3 8 1 9-4 6-5-1-6-2-11-7-3zm89 4-4 7-4 3-6 2v2l3 2 3 11 4 2h8l7-6 2-5v-10l-10-7zm29 0-6 5-6 3v14l5 6 2 1h10l4-2 5-6 1-8-4-6-7-6zm78 6-12 14-9 9-11 9-10 8-13 10-11 7-16 10v2l-5 2-16 9-8 5h-8l-6-1-8 3-1 2-15 2-9 3v3l17 1 2 3-13 3-6 3-1 2 4 1 15-2 4-1-3 3-11 6v4l9-2 9-3-2 4-6 5v2l10-3 11-6 5-6 8-8 11-5 12-5 15-7 16-8 15-8 20-12 10-7 11-9 13-12 8-8-2-4-11-9-10-9zm-139 3-6 8-5 4 3 11 3 4h2l1 3 5 2 8-1 6-5v-2h2l1-3v-9l-4-6-7-4zm-33 9-7 8-3 6v9l4 6 6 4h10l6-3 4-5 1-3v-10l-3-7-12-3-3-2zm217 1-8 10-2 2-6-1-15 15-11 9-17 12-11 7-14 8-9 5-14 7-19 9-4 2-9 36-4 19-7 28-6 26-5 21 10 5 24 8 22 5 23 3 26 2h19l26-2 24-3 20-5 26-9 4-3-1-6-5-15-13-41-10-31-12-37-9-27-5-16-4-17-2-26zm-138 6-7 6-9 4-9 8v3l13 1 5 2v7l-1 7 5-2 14-11 6-5 2-11-2-1-8-1-6-4zm-93 3-1 2h2zm-9 1 2 9 4 16 3 13v23l1 9h4v-23l-3-20-3-15-4-11zm78 3-2 6 4-2 2-4zm-31 7-5 15 1 4 3-4 4-10-1-5zm-92 2-4 1 1 14 5 12 11 12 9 4 9 2h12l4-1-2-5-8-10-11-9-14-8-4-2 1-2 16 8 10 8 7 6 7 9h3v-8l-4-11-6-8-9-7-13-4-6-1zm-86 2-7 2-17 2-4 2 1 6 10 6 3 1h11l6-5 2-5-1-8zm184 1-1 6 10-3 7-2v-1zm-173 2-2 7-4 8-5 4-3 1h-11l-7-3-9-6-1-2-6 1-6 3-10 9-9 14-6 18-5 19-5 25-1 13-3 27 8 3 21 5 22 3h40l26-4 21-6 10-3 2-1v-8l-6-28-3-7-24-3-17-4h-4l-5 9-3 1-13-4-12-4-24-12-5-4-1-2 7 2 13 8 26 10 9 2 5-8 6-18 5-18-1-5-18-8-16-6-13-4-12-1 1-2h10l19 5 19 8 13 5 2 2 1 5 10 4 12 3-1-9-10-21-1-5 5 5 6 13 4 10 2 2 4 1h10l2-5 2-14v-21l-21-4-32-5zm133 3 2 11 7-1v-5l-7-5zm59 0-12 2-8 4-7 5-6 9-2 6v7h2l7-8 10-7 17-9 7-1v2l-9 3-14 8-11 9-6 6v3l6 1h15l10-3 11-8 6-10 3-10 1-6-3-2zm43 4-13 10-3 2v2l-5 2-5 5-2 5-4 2-5 6 4 1 16-9 15-10 4-16zm-80 1-2 7v5l2 1 2-9v-4zm-7 2-2 2-3 34v5h4l1-1 2-25 1-14zm-81 5-2 6-2 21 7 2 25 2 29-1v-2h-21l-10-3-9-5-5-4-6-10-3-6zm72 3-2 2v8l1 4 3-1v-13zm14 5-1 2h2zm-15 13v14h2l1-13zm14 3v7h1v-7zm5 7v4l3-3zm8 0-1 2h2zm-101 1-3 2-2 4h-13v2l9 2 40 5h6l8-8 3-2v-2l-41-3zm59 1-8 6-9 8-3 4-15-1-32-5-14-3-11-2-13-4h-4l-8 26v4l22 5 17 2h61l11 4 9 1h13l2-2-6-3-4-1-1-3h12l6-2v-2l-2-1-12-1-3-2 17-4 4-2v-2l-2-1-19 1v-2l12-5 5-4-1-1h-8l-14 3h-3l2-4 2-3-1-4zm33 13m-2 13v21l3 21 4 18 3 11 3 1 1-5-4-13-4-21-3-32zm7 9 1 11 5 16 8 16 3-1-3-9-7-15-4-14-2-4zm-16 5v3h2v-3zm0 4-2 3v20l2 29 2 12 4 1v-9l-2-21-2-35zm-18 5-7 14-4 9-6 9 1 4 4-2 9-16 6-17zm8 0-2 6-4 21-1 8-4 14v4l4-1 4-15 4-20 1-16zm16 8v7h1v-7zm-106 38-17 5-31 4h-40l-15-1-8 13-10 7-10 2-2 2-1 4v29l5 2 16 3 16 2h30l9-1 4-3 3-21 3-13 5-3 13-5-1 3-13 7-2 5-4 23 1 1h26l19-2 12-3 2-2-1-15-5-43zm-131 3-1 4-1 19 1 1 8-1 10-7 4-5 2-4-1-4-17-3zm115 65-7 1-18 1-1 3 3 23 7 2h11l6-2 2-5 1-22zm249 2-1 5 1 14 1 35-4 2-18 11v4l3 2h10l9-3 10-5 9-7 3-3 1-10v-14l1-16v-13zm69 0-19 2-1 1 1 16 2 28v8l-4 5-13 8-7 5 4 4h12l12-4 11-7 6-5 1-2 3-50v-8l-1-1zm-38 2-1 1-3 37v15l2 10 2 1 15-9 2-2v-10l-1-15v-10l-2-17-4-1zm-371 3-1 1 1 19 2 7 10 2h9l5-2 1-3 1-11v-11l-1-1-16-1zm91 25-5 1h-17l1 17 6 3h10l6-3 1-17zm-89 7-1 4 1 13 5 3h13l4-3 1-3 1-12-1-1h-11zm90 15-4 2h-13l-6-1-1 1-1 13 4 3 13 4 12 1h20l9-2 1-3-4-5-17-9-9-4zm-91 7-3 8v6l8 5 19 5 6 1h19l8-4-2-5-10-7-16-8-5-1-5 2h-12zm361 1-8 7-10 6-12 3h-9l-8-4-4 1-8 7-1 6 4 3 3 1h19l20-5 9-10 6-4 2-2-1-9zm51 5-9 8-17 7-4 1h-10l-7-3-4-2-7 6-3 4v5l3 3 10 2 14-1 17-5 16-8 3-3 1-3v-8l-1-3zm-343 9 3 3 8 3 10 2 10 1h9l11-2 4-4-7 1h-24l-16-3zm-70 5v3l5 3 17 4 6 1h22l6-2v-2h-27l-15-2z"/><path transform="translate(616,237)" d="m0 0h3l-1 4-7 10-9 9-10 6-6 2-5-1 1-2 11-4 8-6 7-6z"/><path transform="translate(654,242)" d="m0 0h3l6 11 9 11 6 5 5 5 16 10 16 6 13 4v3l-12-2-21-8-16-11-11-10-10-14-4-7z"/><path transform="translate(608,284)" d="m0 0 9 1 3 2-1 3-4-1h-9l-6 2v-3l5-3z"/><path transform="translate(606,301)" d="m0 0h7l8 4 5 8 1 4v10l-5 10-5 4-6 2-9-1-5-3-5-7-1-4v-9l3-9 4-5zm1 4-4 2v2l6 3 4 7v11l-4 7 1 2 8-4 4-6 1-3v-8l-4-9-7-4z"/><path transform="translate(679,308)" d="m0 0h10l8 5 4 8 1 5v7l-4 9-6 5-4 2h-10l-8-5-3-4-1-3v-16l4-7 5-4zm3 3-5 2v2l8 5 3 6v11l-4 8 6-1 6-7 2-5v-7l-5-10-7-4z"/><path transform="translate(636,339)" d="m0 0h7l4 4v2l-10-1v5l2 4h-4l-3-5 1-7z"/><path transform="translate(758,340)" d="m0 0h6l2 3-1 1h-8l4 10-3-1-4-4h-2l-3 5-2-1 1-5 4-5z"/><path transform="translate(617,360)" d="m0 0h7l15 4h14l16-3 7 1 3 3v11l-6 8-8 7-9 4-5 1h-10l-10-3-8-5-7-9-3-7v-8zm1 4-1 1v6l5 10 8 7 4-2 6-5 8-3h14l6 2h4l4-7v-5l-2-2h-10l-3 1h-28l-11-3zm33 16-9 4-6 5 1 2 6 1 13-1 10-5v-3l-6-3z"/><path transform="translate(352,395)" d="m0 0h8l5 3v3l-12-1-6 3-3-1 1-4z"/><path transform="translate(355,412)" d="m0 0h11l6 3 6 7 2 4 1 12-3 9-7 5-4 1h-7l-7-3-5-4-3-6-1-5v-10l4-9zm2 3-6 4-4 9 1 8 4 8 5 4 2 1h7l-6-8-2-4v-11l4-6 4-2v-2l-2-1z"/><path transform="translate(275,419)" d="m0 0h7v4l-9 2-5 4-1 2h-2v-5l6-5z"/><path transform="translate(284,434)" d="m0 0h7l10 5 6 10 1 3v9l-5 10-7 4h-11l-6-3-6-7-3-8v-8l5-10 6-4zm2 3-8 4-3 6v12l3 7 6 5 6 1 2-2h-2l-2-4-3-7v-10l4-7 4-2v-2z"/><path transform="translate(333,456)" d="m0 0 7 1 4 5-1 7-4 3v-4-7h-6l-3 3-3-1 2-4z"/><path transform="translate(359,474)" d="m0 0 6 1 3 3 1 9-4 11-6 9-9 7-11 4h-11l-12-4-10-7-5-8-1-7 4-5 10-2 17-1 13-3zm1 4-16 7-11 3-25 2-3 2v6l7 8 11-6 2-1h14l7 3 5 4 4-1 7-10 2-5 1-7-3-5zm-32 24-11 4v3l8 4 11 1 10-3 2-1-1-4-10-4z"/><path transform="translate(220,487)" d="m0 0 10 1 6 5 2 4h-4l-5-1-3 5-3-1 2-6h2l-1-2h-10l2-4z"/></svg>
