<?xml version="1.0" encoding="UTF-8"?>
<svg version="1.1" viewBox="0 0 1024 1024" xmlns="http://www.w3.org/2000/svg"><path transform="translate(507,133)" d="m0 0 7 1 8 15 8 19 5 2 13 2 19 2 5 2v7l-20 20-8 7 4 20 2 9v11l-5 4-9-4-2-1 2 6h2l10 14 10 13 9 10 7 8 11 12 7 8 13 14 5 5 1 4h2l5 9v12l-4 5-5 3-6 2 2 5 14 16 11 13 7 9 13 16 7 10 7 13v11l-3 6-3 3h-2v2l-9 4h-7l8 11 8 8 9 11 14 18 14 19 6 10 3 8v10l-4 9-8 6-8 3h-5l4 7 9 10 9 11 5 6v2l4 2 10 13 16 20 8 14 3 8v12l-5 10-5 5-6 4-10 3h-23l-20-5-20-8-10-5-1 1-1 15-4 8-6 8-10 6-9 3-11 1-13-3-14-7-13-11-7-7-4 4v43l2 3v13l-2 4 16 2 1 1v29l-3 2 1 1 14-1-3-4v-9l3-6 5-5h2v-18l4-6 1-1h11l5 6 1 30 2 2h9l3-4 3-1 1-2v-7l-5-4v-30l2-1h24l-6-7v-17l9-10h13l6 4 6 5 7 9h15l10-14 7-4h13l6 4 4 6 2 6v7l-3 6-5 4 25 1 1 1v30l-4 3h-2v73l-1 1-30 1-56 1-2 16-1 1h-93l-1-1-2-33-2-3v-3h-2v45h-104l-2-2-2-25h-5l-1 1-1 24-1 1h-86l-3-2-1-8v-10h-46l-36-1-2-3-1-62-4-2v-29l2-2 16-2-2-2v-14l6-8 4-3h10l8 5 9 11h12l9-10 7-6h10l8 6 3 7v10l-3 3 1 2h6v-13l1-12 1-1h28v-2l-8-2-9-6-6-7-3-9-2-15-6 2-14 7-18 6-5 1h-27l-9-2-8-6-6-8-2-6v-12l4-11 9-13 8-10 9-11 8-10 9-10 18-22 2-4h-10l-9-4-7-7-3-6v-14l4-10 8-11 11-14 7-9 14-16 10-12 7-10 1-2-12-2-9-6-3-5v-14l6-10 20-26 10-11 10-13 9-10 5-7v-3l-11-4-4-5v-12l6-10 13-15 8-8 7-8 11-12 7-8 8-10 7-7 6-8 6-9 5-8-7 4-5 2-5-4v-10l5-29-1-4-11-10-8-7-7-6v-7l5-3 26-3 10-2 6-13 8-16zm1 4-9 17-6 15v2l-15 3-23 3-5 2 1 4 8 7 16 15 3 2-1 13-4 19-1 9 5 2 30-18 7 1 15 9 8 4 5 4 5-2-2-16-4-18v-6l11-11 8-7 9-8-2-4-17-3-21-3-8-16-7-17-2-2zm0 96-13 9-7 11-7 10 1 3 5 1 1-5h3l2 4h7l-1 6 6 4-1 2-5 3 1 7-7-1-2 5h-3l-2-4h-8l1-2v-6l-5-3-4 1-10 11-9 11-12 13-1 3 5 4 5 1 4-8 2-1 3 9 6-2 4-1-3 9 5 3 4 1v3l-8 2 1 7 2 4-7-2-5 1-2 7-3 1-2-9-8 1-3 1 3-6-1-5-5-2h-3l1-2 7-3 1-2-4-9-4 2-8 8-4 5-5 5-7 8-3 6v9l4 5 4 2 14 1 13-5h2l3 15 3 1 1 3 6 3h9l10-6 9-9h2l6 12h2l2 5 4 3 5 2h12l7-3 7-8 4-9v-2l5 3 7 7 10 5h9l8-5 2-3 1-11 1-2 10 3 3 1h17l6-5 1-7-3-9-8-10-12-14-16-17-12-13-5-6-5-4-13-18-12-19-5-5-9-7-3-2zm-19 36-5 3-2 5 2 5 6 2 5-1 2-7-2-3v-2l-4-1zm-12 1-2 2v3l5-1-1-4zm-25 49-2 5-7-1 1 6-4 4 5 4-2 5h4l3-1 2 5 3-1 1-4 4 2h3l-2-4 1-4 5-2-1-2-4-1 1-7h-7l-2-4zm-13 48-12 3-7 7-10 13-9 10-11 14-6 9-5 4-13 18-5 9v10l4 6 8 5h21l10-4 12-5 1 14 5 10 5 5 3 1h18l10-5 5-5 9-8v-2l3 1 6 12 6 8 7 7 6 3h21l6-3 12-12 6-14v-2l9 7 8 8 8 5 4 1h14l7-3 6-7 2-8 2-10 13 5 13 4h17l9-5 3-5 1-8-5-13-8-11-8-10-7-8-8-10-5-6-3-3-9-11-11-14-5-4-8-2-5 1-3 12-5 5-5 2-11-1-10-7-6-5-3 1-7 11-5 4-5 3-13 1-10-5-5-6-6-9-4 2-8 6-3 3-7 2-9-1-7-4-3-7-2-9zm-30 104-11 4-9 3-6 7-3 3-2 5-4 2-12 14-14 18-13 17-4 6-4 3-5 13v8l4 8 7 6 7 3h22l16-5 14-6 2 2 2 16 5 10 10 9 6 2h15l14-6 11-8 14-14 2 2 5 12 6 10 6 6 11 5 6 2h14l11-4 10-9 5-5 6-13 1-5 5 1 7 8 9 9 16 9 5 1h11l10-4 8-6 6-12 1-5v-15l-2-10-2-2-4 1-6 5h-3l2-8 3-4-2 8 4-1 5-4h3l2 11 3 1 3-11h3 3l1 3 3 1 1-3-4-8 1-3 9-3v-3l-10-3 3-9 2-5-5 1-3 4-4 1-3-11-3 1-2 10-5-2-6-5-1 2 4 11-1 3-9 3v2h-4v-2l12-5-1-6-4-7 1-3 9 4h4l4-13v-2l2 1 3 12 1 2h5l6-4 3 1-5 11 1 4 11 5v2l-11 3-1 1 1 7 4 6-1 4-9-5h-4l-3 12 1 3 15 7 6 2 8 1h13l9-3 6-4 4-6v-14l-4-9-9-13-10-13-5-5-11-14-11-13-13-17-18-6-7-3h-4l-3 13-5 9-8 4-3 1h-11l-11-4-10-8-6-6-4 2-7 13-8 8-13 5h-13l-13-5-6-5-7-12-3-6-5 2-9 8-14 7h-15l-8-4-6-7-3-8-1-8zm-20 112-18 7-16 4-5 5-11 13-9 11-13 15-10 13-9 12v2l-3 1-7 10-3 8v13l4 9 9 7 11 4h19l20-5 9-4 16-7 7-4v16l4 11 11 12 10 4h20l13-5 8-5 12-11 7-7h2l10 19 8 8 14 7 4 1h14l12-4 10-7 6-6 1-3 4-4 3-7 1-3 5 1 10 11 5 4 5 5 8 4 11 4h15l11-3 9-7 7-10 3-11v-13l19 10 12 5 16 5 8 1h19l9-2 9-7 4-5 2-4v-15l-3-9-8-11-5-5-9-12-9-11-12-14-11-13-9-12-7-5-20-5-10-4-5 1-1 14-4 9-4 5-11 6h-21l-11-4-13-10-5-6h-2l-2-4h-4l-8 16-9 10-14 7-7 1h-8l-11-3-11-8-6-7-3-3-5-13h-5l-13 13-11 7-6 3-4 1h-17l-9-3-7-6-5-8-2-6-2-14zm75 131-10 11-11 9v2l-5 1-12 4v3h46l1-1v-15l-7-14zm190 14-6 7-3 5v8l4 5 12 6h17v-3l-10-3-9-4 2-6 6-1 12 7h3l-1-5-6-9-9-7zm63 0-9 8-7 10 1 3 5-1 8-5h9v7l-9 4-9 3 1 2h16l12-5 4-4v-10l-5-8-4-4zm-171 4-4 4v2l-5 2-12 6-3 1h-22l-14-5-7-6-4 1v20l1 1 16 2 8 8 3 5 2 1h14l7-10 5-4 4-1h12l2-1v-26zm117 12-1 4 3 3 11 2v-4l-8-5zm54 0-9 6v3l11-2 5-5-2-2zm-421 1-7 6-2 6 1 8 6 5 6 1h13l-2-2-9-3-2-2v-5l6-1 12 6 1-4-6-8-7-6-3-1zm58 0-7 3-8 8-2 4v3l4-1 6-3h9v5l-4 3-10 3v1h14l8-2 5-5v-9l-4-6-6-4zm25 2v24h10v-23l-1-1zm13 0-1 1v23l1 1h19l1-1v-22l-4-2zm24 0-2 2v22l1 1h9l1-1v-22l-4-2zm14 0-3 3v22l1 1h10v-26zm13 0-1 1v24l1 1h14l1-1v-24l-1-1zm18 0-1 1v23l1 1h7l4-7v-16l-4-2zm225 0-4 6v5l1 1h18l1-3-1-5-5-4zm-383 12-1 4 4 3h8l-1-3-6-4zm46 0-8 6 1 2 10-2 2-2v-3zm131 0-5 4-4 7v8l5 5 8 4h13v-3l-13-4v-7l6-1 8 6 5-1-1-4-9-11-3-2zm57 0-6 2-7 8-4 5 1 5 8-4 5-3 4 1 2 2-1 4-3 1 2-2-1-5-5 1-7 6 1 2h6l1 1-7 1-1 3h13l12-6 3-4v-6l-5-8-3-3zm-212 2-5 5-1 4 1 1h16l-1-6-4-4zm303 0-1 1v26l2 2h33l13-1 1-1v-25l-2-2zm51 0-1 1v103h26l2-1v-102l-1-1zm31 0-2 2v25l2 2h47l1-1v-27l-1-1zm-113 11-5 5v16l9 5 5 4 1-1v-24l-5-5zm-111 1-1 5 6 4h5l1-3-5-5zm-212 2-1 1v24l1 1h38l1-1v-24l-1-1zm43 0-1 1v89l1 1h20l1-1 1-61v-28l-1-1zm26 0-1 1v24l1 1h39l1-1v-24l-1-1zm44 1-1 1v30l7 6 1 2h2l2 5 2 1h10l2-2v-42l-1-1zm28 0-1 1v34l3 1 5-3h11l3 3h2v-35l-1-1zm28 0-1 1-1 14v38l2 2 7 2v21l-1 4 1 1h7l1-1v-39l-4-2-1-16h2v14l1 1h39l1-1v-24l-1-1h-39l-2 1 1-2 14-2 1-1v-6l-3-4zm65 0-4 3-1 7 1 1h15l1-5-3-5-2-1zm-8 14-1 1v96l1 1h22l1-1v-96l-1-1zm27 0-1 1v24l1 1h39l1-1v-24l-1-1zm108 2-1 3 12 1 6 5 2 7v6l-5 6 1 1h17v28l-2 2v14h9l2-2v-69l-3-2zm74 0-1 1v70l2 2h40l1-1v-72zm-119 5-7 6-1 2v8l6 5 4 2h11l-1-3-9-3v-5l5-1 5 3 2 2 4-1-1-4-1-2h-2l-2-4-5-4zm49 0-9 6-5 7v2h5l6-4h5l1 5-5 3-7 2v3l12-1 9-5 2-2-1-9-7-7zm-361 6-1 1v61l1 1h35v-63zm64 0v62l1 1h16v-11l-2-4h34l1-2v-14l-1-1h-32l-1 1v-3l14-1-2-10 3-8 5-6-1-4zm37 7-6 5-2 8 4 5 6 3h10l-2-3-6-2-2-5 1-1 8 1 3 3 3-1-2-5-7-7-2-1zm45 0-8 6-4 7 2 1 8-4h4l1 5-2 2-6 2 1 2h8l8-5 2-3-3-9-4-4zm172 0v4l5 1v-4zm39 0-4 3v2l7-1 2-3zm-21 2-4 3v6h12l2-4-2-4zm-87 6-1 1v69h35l1-1v-67l-1-1-22-1zm-65 1-1 1-1 43v24l1 1h35v-68l-1-1zm-77 3v3l5 1v-3zm37 0-4 2v2h5l2-4zm-21 2-3 4 2 3h9l2-5-3-2zm169 0-1 1v22l1 1h32l1-1v-22l-1-1zm38 0-1 1v58l1 1h18l1-1v-58l-1-1zm23 0v23l1 1h33l1-1v-22l-1-1zm-66 8-1 1v5l2 1v-7zm-170 2-1 1v51l1 1h18l1-1v-50l-2-2zm22 0-1 1v15l1 1h32l1-2-1-15zm157 17-1 1v31l1 1h28l1-1v-31l-1-1zm58 0-1 1v31l1 1h28l1-1v-31l-1-1zm-268 4-1 1v30l1 1h27l1-2-1-30zm53 0-1 1v30l1 1h27l1-1v-30l-1-1z"/><path transform="translate(546,299)" d="m0 0 4 2 2 6 7-2 5 1-4 11 7 1 2 5-8 3 2 10-4 1-7-2-3 9-5-1-2-8-6 2-5 1-1-3 3-9-7-2-1-4 5-3h3l-3-9 2-2 6 1 4 1 3-8zm0 9-1 5-8-1 2 7-7 2 2 2 4 2v6l6-1 2 6 3-1 1-5 7 2-1-8 4-2-2-3h-3l3-6v-2l-9 2-1-5z"/><path transform="translate(416,393)" d="m0 0 7 1 3 3 2 6 8 5 6 7 2 4v18l-5 8-5 5-7 4h-16l-9-5-6-7-3-7-1-11 3-9 5-5 8-7 3-2 2-5zm0 4-2 3 3 3 5-1 1-4-1-1zm-2 8-10 5-5 6-3 6v12l7 11 9 6h14l8-4 5-6 3-7v-10l-4-9-5-5-5-3-5-2z"/><path transform="translate(591,397)" d="m0 0h8l5 6 1 3 9 6 6 7 2 5v14l-3 7-10 10-10 3-11-1-10-6-6-8-2-5v-13l5-10 8-7 4-1 3-9zm3 3-3 4 1 1h7l-1-5zm-5 9-11 7-3 4-2 6v10l3 8 5 5 6 5h16l10-6 4-5 2-6v-11l-4-8-8-7-4-2z"/><path transform="translate(498,413)" d="m0 0 5 2 2 10 8-4h5v6l-3 6 10 5-1 4-10 3 4 8v5l-2 1-9-4h-2l-3 9-5 1-2-4-1-6-6 2-3 2-4-1 2-8 1-5-9-3-1-4 8-3h3l-5-10 1-4 6 1 7 3 2-10zm0 8-3 8-5-2h-4l3 10h-7v4l8 1-2 5-3 5 4 1 7-4 2 10h2l3-9 6 2 3 2 1-3-3-4-1-4 9-3-2-3-6-1 1-4 2-3v-3l-4 1-5 2-4-8z"/><path transform="translate(385,500)" d="m0 0 4 2 3 10 5-1 5-3 4 2-4 12 7 3 5 2-1 4-11 4 4 10-1 4-8-2-5-2-3 11-4 1-3-3-3-9-8 4-5-1 3-10v-3l-10-4-1-4 8-3 3-1-1-5-3-6 1-4 9 3 5 3 2-9zm0 7-2 6-1 4-6-1-3-2-3 1 4 7 1 4-9 2v2l5 2h4l-3 7-2 4 2 1 11-5v7l2 5 3-2 1-9 9 3h3l-4-7v-4l9-2-1-3-8-1 3-9v-3l-6 3-5 1-1-9z"/><path transform="translate(463,506)" d="m0 0h7l4 4 1 7 6 2 5 5 5 6 2 5v13l-5 9-8 7-6 3h-15l-9-5-6-6-3-7v-15l4-8 4-5 9-6 3-7zm2 3-2 2 1 5h6l2-4-3-3zm-5 9-6 3-8 9-2 4-1 10 4 10 6 7 6 3h15l9-5 6-9v-16l-5-9-8-6-3-1z"/><path transform="translate(543,511)" d="m0 0h9l3 5 1 4 8 5 5 4 4 9v14l-4 10-7 6-6 3-4 1-13-1-7-3-7-8-4-9v-11l6-12 5-4 7-4 2-7zm2 3-2 2v3h8l-1-5zm-4 9-9 5-4 5-3 6v14l6 9 5 4 5 3h12l8-5 7-7 3-7-1-12-5-8-8-6-3-1z"/><path transform="translate(428,573)" d="m0 0 4 1 3 6 5-2 4 1-1 8v2l6 2-1 4-5 3 1 9-7-1-2-1-2 6-5 2-3-7-5 2-4-1-1-3 3-7-7-1-1-3 2-3 5-1-2-6v-4h6l4 2zm1 9-1 3-5 1v4l-5 2 1 3 3 1 1 5 5-1 1 4h2l3-4h4l-1-4 3-1-1-4-2-3 1-2-6-1-1-3z"/><path transform="translate(356,616)" d="m0 0h8l4 4 1 5 10 6 5 7 2 6v13l-5 10-8 7-4 2h-17l-8-4-7-8-3-10v-9l4-10 7-7 6-4zm1 3-1 5h8l-1-4-1-1zm-1 8-10 4-5 6-4 8v11l5 9 9 7 6 2 11-1 9-7 4-5 2-4v-13l-5-9-10-7z"/><path transform="translate(430,623)" d="m0 0h7l4 4 3 6 9 6 6 7 2 5v17l-6 10-7 5-6 2h-14l-11-6-4-5-4-9v-12l4-10 9-8 3-2 3-9zm3 3-3 2 1 5h6l1-5-2-2zm-2 9-7 3-7 5-3 4-2 6v10l3 9 5 6 10 4h10l10-4 6-7 3-8v-7l-3-9-7-8-10-4z"/><path transform="translate(591,631)" d="m0 0 5 2 2 5 9-2 1 4-2 5 6 3-1 4-2 2h-3l2 10-5 1-6-3-1 5-2 3-3-1-2-6-4 1-5 1-1-5 1-5-6-3 2-4 4-2-1-9 4-1 5 2zm2 8-2 4h-5v5l-3 1v3l2 1 1 4h4l2 4 3-1 2-3h4l-1-5 4-2-1-2-3-2v-3h-4l-2-4z"/><path transform="translate(673,631)" d="m0 0h9l5 6 2 4 8 5 5 8 1 3v16l-4 8-8 7-7 3h-11l-8-2-10-9-3-8v-14l4-9 5-5 7-4 3-7zm3 2-2 2 1 4 5 1 2-5-2-2zm-5 10-7 3-8 9-1 3v15l4 6 8 7 4 2h13l8-4 7-8 2-5v-12l-5-9-7-6-4-1z"/><path transform="translate(492,653)" d="m0 0 4 1 3 10 4-1 4-3 5 1 1 2-5 8v3l10 2 1 5-11 4 5 11-2 2-5-1-5-3-3 1-2 9-5-1-3-10-5 3-3 2-5-1-1-2 1-4h2l1-6-9-4-1-4 4-2h7l-5-12 1-3 6 1 5 3h2l3-10zm1 7-2 5v3l-10-1 2 8-7 3 1 3 5 1v5l-2 3v3l10-4 1 1 1 7 2 1 3-8 5 1 4 1v-3l-2-3v-4l8-3-2-2-7-1 4-9-5-1-6 3-1-8z"/></svg>
