<?xml version="1.0" encoding="UTF-8"?>
<svg version="1.1" viewBox="0 0 1024 1024" xmlns="http://www.w3.org/2000/svg"><path transform="translate(507,100)" d="m0 0 7 1 5 10 9 20 4 9 43 6 2 2v6l-7 8-8 7-12 11-4 4 7 34v9l-5 4-6-2-8-5 5 9 6 8 13 17 12 14 10 11 7 8 16 17 10 11 7 8 6 10 1 3v10l-4 6-7 4-7 1 2 4 28 34 13 16 9 11 9 12 6 12 1 3v9l-4 9-9 6-7 2h-7l8 11 4 5 5 5 12 14 13 17 11 14 7 9 6 12 2 8v7l-3 9-6 7-10 4-9 2 6 8 9 10 9 11 11 13 11 14 6 8 5 5 11 15 6 14 1 4v9l-4 11-6 7-6 4-14 4h-21l-22-5-15-6-9-4-12-6v15l-4 11-7 9-6 5-8 4-15 3-15-2-14-6-13-10-14-14-4 7v45l3 7v10l-2 3h-2l1 4 17 1 2 2v31l-5 3-1 21h2v-19l3-2h16l-5-7v-7l2-6 5-6 4-2v-17l3-7 5-3h7l5 3 3 7v29l3 4h9l5-6h2l2-4v-7l-6-4v-31l2-2 28-1-8-7-1-2v-14l5-8 6-5 10-1 7 3 8 7 9 11h16l6-8 5-7 9-5 10-1 9 5 4 5 3 10-1 8-3 5-5 3h-2v2h29l2 2v31l-5 3h-2v81l-96 1-1 18-2 2h-99l-2-2-1-35-3-3v-5h-2v48l-2 2h-112l-2-3-1-27h-8l-1 27-2 2h-92l-3-3-1-19-90-1-2-4v-67l-5-2v-31l3-2 19-1-5-5v-13l5-8 5-4 2-1h9l8 5 8 9 3 4h9l4 1 9-11 8-7 3-1h8l8 5 4 8 1 3v8l-6 7h10l1-27 2-2h31v-2l-7-1-8-4-10-10-4-9-2-13v-7l-21 10-19 7-12 2h-23l-10-2-11-8-5-6-3-9v-10l4-13 9-13 8-10 7-8 11-14 11-13 9-11 12-14 3-5h-9l-11-3-9-9v-2h-2l-2-6v-12l4-10 7-11 10-12 13-17 5-5 18-22 11-14 1-2-10-1-10-4-6-7-1-5v-11l5-10 22-28 14-17 10-13 5-5 9-11 2-4-13-4-4-5-2-4v-7l6-12 13-15 14-15 22-24 9-11 10-11 9-12 9-14 1-3-11 7-4 1-5-4v-8l5-22 1-8 1-7-15-13-10-9-5-4-1-7 3-3 42-6 7-14 4-9 8-16zm1 4-8 16-10 22-4 2-40 5-1 3 2 3h2l2 4 11 10 11 9 3 3-1 11-4 19-2 14 4 2 21-12 9-6 4-2 6 1 11 6 14 8 7 5 5-1-1-11-6-28v-6l13-12 8-7 10-9v-3l-8-2-33-4-3-1-8-17-4-9-6-13zm0 105-14 9-12 20-4 4v2l6 2 2-7h3l3 7 5-2 3-1-1 5-1 4 7 3-1 3-6 2 1 4 1 5-6-2h-3l-2 7h-3l-3-7-8 2 1-5v-4l-6-3h-3l-12 14-13 15-11 12 3 3 8 4 4-9 2-2 3 7 2 4 9-5h2l-1 5-3 5v2l10 3 1 2-1 2-10 3 2 5 3 7-7-2-3-2h-3l-3 10-2 1-4-11-5 2-7 1 4-8v-3l-10-4v-2l10-3-2-6-3-7-6 5-7 8-8 9-5 5-6 9-1 3v8l3 5 7 4h13l17-6 3 16 1 2h2l1 3 7 4h9l11-6 11-11h2l4 10 7 9 8 5 2 1h11l9-4 7-8 6-13 7 6 8 7 9 4h9l7-4 3-4 2-16 4 1 14 5h15l6-5 2-4-1-9-3-6-9-11-9-10-11-12-14-15-9-10-12-13-12-16-10-15-6-10-4-4-13-8zm-22 39v3l-5-1 1 4-3 1v2l3 1-1 5 5-1v3l3-1v-2l5 1v-5l3-1v-2h-4l1-5-4 1-2-3zm-13 1-2 5h5l1-3-1-2zm-26 52-2 8-5-2-4-2 3 9-6 2 1 3 6 1-3 6 1 3 4-3 4-1 1 9 2-2 2-7 7 4h2l-2-5h-2v-4l8-2v-2l-8-2 2-5 2-4-5 2-3 2-2-2-2-6zm-13 53-5 2-10 2-8 9-11 14-10 12-16 20v2l-4 2-7 9-11 15-4 9v9l3 6 8 6 3 1h20l20-8 6-2 1 14 4 11 8 7 2 1h19l11-6 13-12 3-4h3l4 10 7 11 8 8 8 4 4 1h15l9-3 11-10 6-10 4-10v-2l8 7 9 9 9 6 7 2h12l7-2 7-6 3-7 2-17 6 2 10 5 14 4h17l10-5 4-7 1-7-3-9-6-10-14-18-13-16-9-11h-2l-2-4-11-13-11-14-2-2-13-4h-2l-3 13-6 7-8 3-9-1-8-4-10-9-3-1-6 11-4 5-11 6-10 1-11-4-7-6-7-13-3 1-5 5-8 6-10 3-10-2-6-4-3-6-2-11zm-31 112-10 5-15 4-13 16-7 8-11 13-22 28-9 12-4 4-5 11-1 5v7l4 9 8 7 8 3h22l14-4 18-8 4-1 2 20 4 9 7 8 6 4 7 2h15l13-5 9-6 14-13 6-7h2l5 13 6 11 6 7 9 6 12 4h14l12-4 6-4 7-8 4-4 6-14 2-6 4 1 9 10 9 9 14 8 5 2 6 1h10l9-3 9-6 6-9 2-6 1-7v-13l-3-14h-3l-10 7h-3l1-6 6-10-1-3-14-5v-2l11-4 4-2-2-5-5-9v-4l6 2 9 6 2-6 3-12 3-1 2 11 2 7 4-1 9-6h3l-1 5-5 9-1 4 15 6v2l-14 5v4l6 11v4l-4-1-11-7-2 5-2 12 16 8 9 3 10 1h10l9-2 9-6 4-7v-14l-3-8-12-17-10-12-8-10-11-14-11-13-8-10-6-8-15-4-12-5-3-1-1 1-2 13-5 10-8 5-8 2h-7l-13-4-8-6-8-7-3-4-3 1-7 14-9 10-10 5-8 2h-10l-12-4-6-4-5-5-6-9-4-10-4 1-8 8-10 7-11 4h-12l-10-4-7-8-3-7-2-12zm241 59-2 6-1 9-4-1-8-7h-2l1 5 4 7 1 5-9 2-4 1v2l13 4-2 6-4 7v3l4-2 7-6h2l3 13 2 4 4-17 4 2 3 1 1 3 5 2-2-6-4-8v-2l13-4v-2l-13-4 1-5 5-9v-2l-5 2-5 5-4 1-2-12zm-265 64-18 8-19 4-10 11-9 11-12 14-7 8-13 16-13 17-7 10-4 6-2 6v13l5 10 9 7 10 4 5 1h16l14-3 12-4 19-8 10-6 4-1v17l4 12 6 8 7 6 7 3 5 1h18l10-3 11-6 11-9 8-8 6-7 2 3 4 9 5 9 9 10 13 7 9 2h13l13-4 10-6 7-7 2-5h2l7-16h3l11 12 7 7 11 8 10 4 7 2h14l14-4 9-7 6-9 3-9 1-7v-12l22 11 20 8 11 3 10 1h15l12-2 10-7 5-6 2-6v-14l-3-9-12-16-10-13-13-16-7-8-13-15-9-11-10-12-23-5-15-7-2 2-1 15-4 10-6 7-12 6-4 1h-15l-14-5-12-9-13-13-1-2-3 1-4 9-6 11-7 8-10 6-9 3-12 1-13-3-10-6-6-5-4-6h-2l-2-5-5-13h-4l-14 14-13 8v2l-5 1-11 3h-9l-13-4-8-6-6-9-3-9-1-13zm81 143-12 13-11 8v2l-5 2-15 5v2h52l1-1v-15l-8-16zm207 15-5 4-5 10v7l3 5 11 6 9 2h13v-3l-7-2-11-4-4-2 2-7 6-2 10 5 5 4 4-1-2-5-8-11-9-6zm69 0-8 6-7 9-3 5 1 4 4-2 11-7h7l3 3-1 6-8 4-13 3 1 3h13l9-2 10-5 4-5v-8l-4-8-6-6zm-186 3-7 8-10 6-10 4-4 1h-18l-16-6-10-8-3-1v24l2 2 2-1h9l8 4 7 8 3 5 4 1h12l7-10 7-6 5-2h8l5 1 1-1v-28zm126 14-2 2 1 4 8 3 9 1-2-4-9-6zm59 0-9 6-3 4 10-1 8-3 1-4-2-2zm-457 1-4 2v2l-3 1-4 10 1 6 7 6 8 2h16l-4-2-10-3-5-4 1-5 6-2 9 5 3 3 3-1-1-5-4-6-8-7-5-2zm63 0-8 3-7 7-4 6v5l4-2 8-5h7l2 1 1 4-5 5-14 4v1h16l8-2 6-4 2-4-1-8-4-6-7-5zm26 2v27l10 1 1-1v-26l-1-1zm15 0-2 3 1 25h22v-27zm44 0-6 2v26l1 1h10l1-1v-27l-1-1zm10 0v29h16l1-1v-27l-1-1zm21 0-1 1v27h8l5-10v-14l-2-3zm247 0-4 2-3 6v5l1 1h20l1-5-3-6-5-3zm-297 1-1 1v25l1 1h10v-27zm-124 13 1 4 4 3 10 1-1-3-8-5zm52 0-5 3-4 3v2l9-1 5-3v-4zm143 0-5 3-5 8-1 2v7l4 5 9 4 4 1h13v-2l-15-5-2-2v-6l4-2 6 1 9 7 3-1-1-5-8-10-5-4zm62 0-7 2-10 11-3 5 1 3 4-1 8-6 7-1 3 4-1 5-10 4-7 2v2h14l11-4 5-4 1-2v-7l-4-8-4-4zm-232 2-5 5-1 5 1 1h18l1-2-3-6-4-3zm330 0-1 1v29l3 1h27l22-1 1-1v-27l-2-2zm56 0-2 1v111l2 1h27l2-2v-110l-2-1zm33 0-2 2v27l2 2h51l1-1v-29l-1-1zm-123 12-4 4-1 2v17l10 4 4 5h2v-27l-5-5zm-120 1-2 4 5 4 2 1h8l-2-4-6-4zm52 0-9 6-2 3h9l5-3 2-3-2-3zm-283 2-1 1v26l1 1h42l1-1v-26l-1-1zm47 0-1 1v98h24l1-98-1-1zm28 0-1 1v26l1 1h43l1-1v-26l-1-1zm48 1-1 1v33l6 5h2l2 4 4 6h12l2-2v-47zm31 0-1 1v38h3l6-4h10l5 5h2v-39l-1-1zm30 0-1 1-1 23v31l1 5 10 1v23l-3 2 1 4h8l1-1v-41l-2-2h-3l1-33 17-1 1-5-4-7zm71 0-5 4-1 7 1 1h17l1-4-3-6-3-2zm-57 15-1 1v26l1 1h44v-27l-5-1zm48 0-1 1v105l1 1h24l1-1v-105l-1-1zm28 0v28h44l1-1v-26l-1-1zm118 2-1 5 4-1h9l6 4 3 5 1 11-4 5-2 1v2h20v31l-3 2v14l1 1h9l2-2v-76l-4-2zm82 0-2 2v76l2 2h44l1-1v-78l-3-1zm-129 6-5 3-4 5-1 2v7l5 5 7 3h12v-2l-10-3-3-2v-5l3-2 6 1 6 5h4l-2-5-5-7-6-4zm52 0-9 6-6 8-1 3 6-1 5-4 6-1 3 2-1 5-4 3-10 2-1 3 14-1 10-5 3-3-1-9-5-6-3-2zm-392 6-1 1v67l1 1h37l1-1v-67l-1-1zm70 0-1 1v67l1 1h18v-12l-2-2-1-24h18l-4-8 2-10 5-6 3-2-1-4-1-1zm42 2m-3 6-6 5-2 9 5 6 7 3h10v-2l-10-3-2-5 2-3 7 1 6 4 3-1-6-8-6-5-2-1zm50 0-7 4-7 9v2l5-1 7-4 5 1 1 4-4 4-6 2v2h8l8-3 4-4-1-8-4-6-3-2zm185 0v3l3 2h6l-1-3-3-2zm44 0-6 4v2l10-2 1-4zm-22 2-4 2-2 7 1 1h14l1-4-3-5zm-96 7-1 1v75h39v-74l-1-1zm-71 1-1 75h39v-75zm-84 3v3l8 2-1-3-4-2zm41 0-5 3v2l9-2v-3zm-23 2-3 4 1 4h12l1-5-3-3zm183 0v26h37v-26zm41 0v64l1 1h20l1-1v-64zm26 0v25l1 1h36l1-3v-22l-1-1zm-211 5-1 3 3-1zm-84 6-1 3v14l1 2h34l1-1v-17l-3-1zm40 0-2 1v56l1 1h19l1-1v-56l-3-1zm23 0-1 1v17l1 1h34l1-1v-17l-1-1zm170 19-1 1v33l1 1h31l1-1v-34zm63 0-1 1v33l1 1h31l1-1v-33l-1-1zm-291 4-1 1v33l1 1h29l1-1v-34zm57 0v34l1 1h29l1-1v-34z"/><path transform="translate(549,280)" d="m0 0 3 1 3 10 9-4h4l-1 5-4 8 10 2 1 4-7 3h-4l3 8 1 5-7-1-6-3-1 8-2 4-4-2-2-10-10 5-3-1 1-5 4-7-9-2-2-4 2-2 8-3-4-7 1-4 6 1 6 3 3-11zm0 9-2 8-5-2-4-2 4 10-9 1v2l8 2-1 5-2 4h3v-2l6-2 2 9h2l2-8 9 3-2-5-2-4 7-2-1-3-6-2 4-6v-2l-5 2-4 1-2-6z"/><path transform="translate(408,383)" d="m0 0 7 1 4 6 1 4 6 3 8 7 4 8v17l-3 7-7 8-9 5h-16l-10-5-6-7-4-9-1-10 3-10 7-9 10-6 2-7zm0 4-2 2 1 4h8v-5l-1-1zm-1 9-10 4-6 5-5 10v11l4 9 5 6 10 5h12l10-5 6-7 3-8v-9l-4-10-7-7-11-4z"/><path transform="translate(599,387)" d="m0 0h8l4 5 1 5 9 5 7 8 3 7 1 10-3 10-6 8-5 4-7 3-9 1-9-2-6-3-5-5-4-5-3-7v-13l4-9 6-7 9-5 3-9zm2 3-3 3v3h10l-1-4-2-2zm-4 10-10 5-6 8-3 7v8l3 9 8 9 6 3h16l10-6 5-7 2-6v-11l-3-7-7-8-8-4z"/><path transform="translate(498,404)" d="m0 0 3 2 3 13 10-6h5l-1 6-4 6v2l12 4v4l-4 2-9 2 6 11-1 4-6-2-8-4-3 12-4 2-2-3-2-11-8 4-3 2-4-1 1-5 4-7v-2l-11-3-2-4 6-3 8-1-7-12 1-3 6 1 9 5 2-12zm-1 8-3 11-5-2-4-3h-2l2 5 3 6-11 3v2l12 3-6 9v3l5-2 7-4 1 8 1 4h2l3-11 4 1 6 4 2-1-6-10 8-3 3-1v-2l-11-3 5-8v-3l-5 2-4 3h-2l-3-11z"/><path transform="translate(374,499)" d="m0 0 3 1 3 9 1 5 5-2 7-4 4 1-2 6-4 7v2l14 4v4l-13 4h-2l7 13v3l-7-1-9-5-3 13-2 2-4-1-4-14-10 6h-5l1-5 5-10-13-4-1-5 14-4-7-13 1-3 5 1 11 6 1-7 3-8zm0 7-3 13-6-2-6-4-2 1 7 12-13 4 3 2 10 3-4 7-3 5h3l11-6 2 11 1 2h2l3-12 4 1 9 5-2-5-4-6v-3l12-3-1-2-11-3 2-5 4-7h-3l-8 5h-2l-3-12z"/><path transform="translate(459,506)" d="m0 0h7l5 5 1 6 8 4 8 9 3 9v10l-4 10-6 7-11 6h-14l-10-5-7-6-4-11v-12l3-9 6-7 6-4 3-1 3-8zm2 3-3 3 1 4h8l1-3-3-4zm-5 10-7 3-5 5-1 3h-2l-3 7-1 9 4 11 6 7 8 4 4 1h8l8-3 6-4 5-8 1-3v-14l-5-10-8-6-5-2z"/><path transform="translate(546,511)" d="m0 0h8l4 4 1 6 6 3 9 8 4 9v14l-4 10-4 5-8 5-9 2-10-1-7-2-8-7-5-10-1-4v-9l4-10 4-6 10-6h2v-6zm2 3-3 5v1h10l-1-5-1-1zm-4 10-8 4-6 5-4 9v13l5 10 7 6 7 3h10l8-3 10-10 3-9-1-11-4-8-7-6-7-3z"/><path transform="translate(422,578)" d="m0 0 3 1 2 8 5-1 3-2h3l-1 7-2 5 9 2-1 4-8 3 3 6-1 5-5-2-4-1-3 8-4 1-2-5-1-5-7 4-4-1 1-5 3-5-10-3 1-4 8-3-4-9 5-1 8 3 1-8zm0 9-1 6-7-2 2 7-7 1v2l6 2-1 7 7-3 1 6h2l1-6 7 2-2-6 6-2-3-3-3-2 2-5-4 1-3 1-1-6z"/><path transform="translate(343,625)" d="m0 0h8l4 5 1 5 9 5 7 8 3 8v13l-4 9-7 8-8 4h-17l-8-4-8-8-4-12v-8l4-11 5-6 10-7 2-6zm1 3-2 3v3h9l1-2-3-4zm0 9-11 4-5 4-5 9-1 5v9l5 10 10 8 8 2 10-1 9-6 5-6 3-7v-11l-5-10-7-6-6-3z"/><path transform="translate(599,641)" d="m0 0 4 2 1 8 6-3 5-1 1 3-3 5v3l8 2-1 5-7 2 1 4 2 6-4 1-5-3h-2l-4 9-3-1-2-9-10 5-1-5 2-4v-3l-8-3 1-4 8-1-3-8 1-4 4 1 6 2 1-7zm0 9-1 5-7-1 2 6-5 2v2l5 1-2 6 6-2 2 6h2l2-6 6 2-2-7 5-1v-2l-5-1 2-6-6 1-2-5z"/><path transform="translate(688,641)" d="m0 0h7l5 4 3 7 9 6 4 5 4 8v15l-4 8-6 7-10 5-4 1h-7l-10-3-6-4-6-7-3-9v-11l3-9 7-8 9-5 2-7zm2 3-2 2v4l8 1 1-5-2-2zm-4 10-9 4-7 8-3 6v13l4 8 7 7 8 3h12l8-3 6-5 4-8 1-4v-10l-4-10-8-7-6-2z"/><path transform="translate(491,665)" d="m0 0 3 1 3 11 3 1 8-5 5 1-2 5-4 6v3l12 3 1 4-7 3-7 1 6 11 1 3-5 1-9-5h-2l-3 12h-4l-3-8-1-5-10 6-5-1 1-5 4-6 1-2-12-4-2-4 3-2 11-1-6-13v-3l6 1 9 5 3-12zm0 7-3 11-5-2-6-2 2 5 3 6-10 2v3l9 2v3l-5 8 2 1 11-6 1 9 1 2h2l2-10 4 1 7 4v-3l-4-6v-3l11-3v-2l-12-2 6-10-4-1-8 5-1-8-1-4z"/></svg>
