<?xml version="1.0" encoding="UTF-8"?>
<svg version="1.1" viewBox="0 0 1024 1024" xmlns="http://www.w3.org/2000/svg"><path transform="translate(420,234)" d="m0 0h12v2l-2 1-16 2-8 3-12 3-10 7-9 6-10 9-8 11-8 13-6 18-2 9-3 1 1-10 7-19 8-14 9-12 5-5 12-9 15-8 16-6z"/><path transform="translate(438,234)" d="m0 0h10l13 3 7 4v1l-20 3-10 3-14 8-13 11-8 11-7 15-3 12v13l3 10 6 7 7 4v2l-4-1-4-2v-2l-4-2-4-4-2-7-1-16 1-11 5-12 9-15 15-15 21-11 17-3-9-2-12-2z"/><path transform="translate(550,235)" d="m0 0 1 3-4 7-7 14-1-3 5-12z"/><path transform="translate(552,241)" d="m0 0 4 1 6 14v3l-3-2-7-15z"/><path transform="translate(516,260)" d="m0 0h2l3 5 12 12v10l-3 13 8-3 4-1-1 3-9 5-4-1 1-16v-10l-8-7-6-7z"/><path transform="translate(584,260)" d="m0 0 3 3-9 9-7 6 1 14 1 10-3 2-16-8-5-1h-4l1-3 6-1 18 9-3-15v-6l7-8 8-7h2z"/><path transform="translate(651,263)" d="m0 0 7 2 4 1 10-2 1 5-2 7 6 9-5 3h-8v-2l9-1-5-7 2-11-10 2-7-3-2 9-6 7v3l-3-2 1-4 5-4 2-11z"/><path transform="translate(305,270)" d="m0 0 5 3 3 4 8 2v2h-9l-5-6-2 3-3 6-6 2v3l5 4 1 8 2 1-2 4-3-1-1-11-8-7 1-3 9-3 4-10z"/><path transform="translate(442,273)" d="m0 0 6 2 3 3 12-1 1 5-3 7 4 9v3h-13l-2 1 1-3h10l-2-6 1-9 1-4-10 1-5-3-3-2-1 10-7 4 3 4-1 2-6-3 1-4 7-5 2-10z"/><path transform="translate(320,285)" d="m0 0h2l-1 7 2 9-4 1-9-2h-3l1-3 10 1-1-10z"/><path transform="translate(375,303)" d="m0 0h4l-1 4-7 2-5 4-3 3-1-2 4-6 6-4z"/><path transform="translate(547,325)" d="m0 0 6 4 1 3 8 2h7l13-5 6-2h11v2l-15 3-12 4 3 2 14 4 5 5-8-2-27-8-9-5 3 7-3 1-3-1 3 5 7 2v2l-6 2-8 13-2 9-2 11h-2l1-13 4-12 7-13-4-2-3-4 1-4 5 1-2-5v-5z"/><path transform="translate(674,326)" d="m0 0 2 1v7l-1 2 5-2 1 3-1 3h-9v-4l2-4-13 6-7 2h-4v-2h2v-3l-16-4-5-2v-2l8 1 17 6h7l9-6z"/><path transform="translate(338,332)" d="m0 0h2l1 14 6 21 1 5-3-1-7-20z"/><path transform="translate(712,334)" d="m0 0 6 1 4 3 12-2 1 5-1 2v7l4 7v2h-4l-1-5-3-4 1-8 1-3-11 2-6-4-2 7-2 4-5 2 1 3 7 2 4 9 3-1 4-4-2 5-3 4-4-1-3-8-10-4-2-3 9-7z"/><path transform="translate(641,339)" d="m0 0h3l-1 3-15 6-10 9-6 7-3-1-1-4 4 2 2-4 11-11 9-5z"/><path transform="translate(410,344)" d="m0 0h2l-2 4-3 3h-3l3 5 1 13 1 5 7 8 7 6 14 8 10 4-1 2-6-1-12-6-10-6-11-11-4-6-5-2 2-2h4l1-4-13 2-8-2-5-1h-4l4-6 1-2h2v5l9 2 13-1-3-7h-6v-4l8-2z"/><path transform="translate(466,345)" d="m0 0 4 1 4 7 3 3h-4l-4-7h-2l-4 8h-4v-2l3-2z"/><path transform="translate(669,345)" d="m0 0h5l5 10 6 14 1 10h-3l-4-15-7-14-6-2z"/><path transform="translate(563,348)" d="m0 0h22l13 7 8 7 4 6v2l2-1 4-7 9-8 12-6h22l1 3 5 2 4 5 6 4-1 5 5 8-1 24-4 3-4 7-5 4-3 4-5 2-7 1-2 2h-8l-11-4-7-4h-7l2-9 1-2 3 1 2 7 10 5 12 2 5-2h8l1-4 8-4 4-7 3-8 1-18-3-6v-2l-4-2-1-5-7-4-1-3-3-1h-19l-12 6-7 7-6 10-3-1-7-11-6-5-8-5-4-1h-21l-2 4-1 1h-5l1-4 2-2h4z"/><path transform="translate(479,356)" d="m0 0h7l-2 6-3 3v13l-3 1-5-2v-2l-9 2-5 3-2-2v-11l-7-7 1-3h5l-2 1 7 8v9l8-4 5 2 3 2-1-10 5-6-2-1z"/><path transform="translate(550,361)" d="m0 0 4 2-6 9-2 4 1 4 1 2-2 7h-2l-2-6-1-2 3-9 3-5 2-5z"/><path transform="translate(300,367)" d="m0 0 6 2 3 3 12-1 2 4-4 7-2-2 2-5-10 1-7-5-2 4-1-7z"/><path transform="translate(348,375)" d="m0 0h2l10 14 11 12 10 8 19 10 14 4 10 2 1 2-15-1-17-6-10-6-6-4-13-11-7-8-8-12z"/><path transform="translate(298,378)" d="m0 0h2v3l-6 4 4 3 5 5 1 3 4-2 4-3 8 1-3-6h3l3 4v5h-12l-6 7-4-2-3-8-9-5 1-5z"/><path transform="translate(576,383)" d="m0 0h9l9 5 2 4h-4l-6-4h-12l-8 5-4 1-5-5 3-2v-3l4 2 6-1z"/><path transform="translate(635,383)" d="m0 0h10l8 3 5-1h3v2l3 3-6 4-4-1-6-4-3-1h-10l-10 5 1-4 5-4z"/><path transform="translate(503,393)" d="m0 0 3 1-2 5-8 8-10 7-14 7-7 3-7 2-16 1v-2l21-4 10-4 17-10 6-5 1-2-6 1v-2z"/><path transform="translate(537,395)" d="m0 0h2l3 13 6 8 7 6 7 3 11 2 2 3h-14l-2-3-11-5-8 4 1-4 2-2-1-6-5-12z"/><path transform="translate(608,395)" d="m0 0 7 1v3h-6l-4 4 1 5 6 9v2l-4-1-3-5-5 1-11 6-8 2h-8l-13-5-9-9-1-5 5 5 9 5-1 3h8l4 2 10-1 9-4 5-3 4-9z"/><path transform="translate(450,402)" d="m0 0h16l9 1v1h-20l-5-1z"/><path transform="translate(665,423)" d="m0 0h3l-3 9h-2l-2-4-7 1 1-3z"/><path transform="translate(536,430)" d="m0 0 2 1-1 5-4 11-2 6h-2l1-10 5-12z"/><path transform="translate(603,431)" d="m0 0h20v2h-20z"/><path transform="translate(688,431)" d="m0 0 3 1 5 15v6l-3-1-4-16z"/><path transform="translate(379,432)" d="m0 0 9 1 10 6 4 6h-3l-7-6-9-4h-3v2h-2z"/><path transform="translate(429,437)" d="m0 0 5 3 6 13v13l-4 10 1 4 14 12 13 12 12 8 12 5 15 2 7 1 1 3-16 4h-2l1-3 5-1v-2l-10-1-13-4-16-12-10-9-14-12-11-8-15-8v-2l5 1 8 4-1-5h3l4 7h5l2-4v-16l-5-11h-2l-5 10h-2l1-4 5-9z"/><path transform="translate(478,444)" d="m0 0 6 2 3 3h14l-2 6-3 3-1-3 2-4-4 2-8-1-3-3-3-1v9l-8 6h-3l2-4 6-3 1-11z"/><path transform="translate(335,454)" d="m0 0h6l11 11 4 8-1 3-3-3-4-8-8-7h-2l-2 5h-2v-8z"/><path transform="translate(403,455)" d="m0 0h2l3 12 5 6 5 4h5l10 7 11 9 5 5 3 5v2l-3-1-6-8-8-7-8-5 5 5 3 5-4-2-14-12-7-7h-8l-9 3h-3v-2l11-4 1-4-14-7v-3l9 3h5z"/><path transform="translate(629,456)" d="m0 0 6 3 1-3h2l-1 6-4 1-4-4z"/><path transform="translate(560,458)" d="m0 0h2l-2 17-3 12v9h-3l-1 5 9 16v2h2l-1-8v-5l4 2 9 9 10 6h10l7 2 3 4-1 5h-2l-2-6-13-1h-4l-5 2h-15l-1-2 10-2v-7l-7-6 3 9-1 3-5-1-1-3-4-2-6-10-3-6 1-6 7-23h-5zm17 63-2 1v5h3l1-4z"/><path transform="translate(664,460)" d="m0 0 4 4 2 7 4-1 2-5h2l1 7-4-1-1 3h-5l3 12 5 15 2 2 5-1 3-1-2 5-4 4-6-2-2 1 1-9-2-3h-2l-3 3 1-5 1-4-3-14-2-12z"/><path transform="translate(495,461)" d="m0 0 4 2 3 5-1 4-13 1-5 6-3-1-4-10-4-2v-2l6 1 3 4 1 6 6-6h9l-2-5z"/><path transform="translate(321,465)" d="m0 0h9l6 3 2 4-5-1-12-4z"/><path transform="translate(539,466)" d="m0 0 2 1 1 5 3 1-1 3h-6l-3 3-4-1-2-4v-5l3-1 1 6 3-1z"/><path transform="translate(685,470)" d="m0 0 4 2v2h4l1-4h2l-1 9-4 12-1 5-2 1 1-10 1-4-2-7h-6l2-4z"/><path transform="translate(317,473)" d="m0 0 4 2 4 6 6 4 3 1 11 1-4-11v-2l3 1 4 11 5 1h3l2 4 9 6v2l-5-2-9-5-18-2-10-5-7-7z"/><path transform="translate(296,483)" d="m0 0h11v1l-7 1 4 8 7 7 6 3-1 3-8 2-9 5-1 2h-2l1 2 8 3v2l-8-1-4-4 7-8 7-4h3l-7-8-4-6-3-6z"/><path transform="translate(320,486)" d="m0 0 5 2 8 11 1 2 10 2-1 2-9 1 7 3-1 2h-7l-7 7-10 5h-8l1-3 12-3 7-6v-3l-7-2v-2l8-1-3-9-3-3v-2l-3-1z"/><path transform="translate(544,496)" d="m0 0h2l2 11-4 2-1-2z"/><path transform="translate(369,501)" d="m0 0 6 1 6 3 18 3 3 5 16 7 6 6v4h-2l-6-7-14-7-13-6-15-4z"/><path transform="translate(665,502)" d="m0 0 1 2-3 10v5l3-1 3-5 1 3-4 6-3 3-7 1 1-5 2-7-3 3-3 9-3-3h-2l-2 3-5 2h-4l-3-3v-2h8l12-9 7-8z"/><path transform="translate(368,508)" d="m0 0 9 2 14 6 9 3 11 9 3 3 4 7 1 3-5 4h-2l1-4v-3l-13-8-16-8-11-4-13-2-1-3 11 1 14 4 16 9 6 3h3l-10-7-8-4-9-3-10-4-5-1z"/><path transform="translate(589,510)" d="m0 0 5 5 4-4v5l-2 2h-5l-3-4z"/><path transform="translate(407,511)" d="m0 0 12 1 24 5v-5h2l3 6v2l6 2 11 4 9 2v2l-15-2-10-4-8-4-9-2-24-4z"/><path transform="translate(488,529)" d="m0 0h3l2 7 12 6-1 2-7-2-5-3-4-4z"/><path transform="translate(615,529)" d="m0 0h8l1 9 4 2 3-5 2 1v6l-3 2-7-1-3-9-9-2 1-2z"/><path transform="translate(546,532)" d="m0 0 8 1 9 3-1 2-16-3z"/><path transform="translate(648,533)" d="m0 0 9 1 21 5 16 8 24 16 16 5v2h-8l-9-4-6-2 1 5-5-5-6-8-14-10-18-6-16-3-2-1v2l10 2 20 10 8 6 8 10 6 12v3h-2l-10-18-7-7-12-7-15-7-10-2-1-2z"/><path transform="translate(440,534)" d="m0 0h8l-1 3-12 3-6 3-9 8-6 4h-2l2-4 11-9z"/><path transform="translate(472,539)" d="m0 0 6 1 10 6 1 2-6-1-9-6z"/><path transform="translate(585,538)" d="m0 0h3l1 4h-3v3l11 2 3 1v2l-12-1-21-9v-1l16 1z"/><path transform="translate(538,542)" d="m0 0h8l12 5 6 4 8 7 10 2v2h-8l-8-4-7-7-8-4-13-3z"/><path transform="translate(440,545)" d="m0 0h20l10 3 13 8 8 2v2h-12l-13-1v-2l3-1h7v-2l-15-5h-25l1-3z"/><path transform="translate(302,546)" d="m0 0h7v2l-5 1v3l3 1 2 6-6-5-3-4z"/><path transform="translate(317,546)" d="m0 0 8 1 9 6 6 8 2 1 1 4 16 7-1 4-5-3-9-4-7-4h-14l1-2 10-1-1-8-4-2-9-4-3-1z"/><path transform="translate(400,551)" d="m0 0h3l-2 4-4 3h-2v2l15-5-2 4-10 4-15 2h-8v-2l13-4 9-6z"/><path transform="translate(633,551)" d="m0 0 14 1 13 5 15 8 9 10 5 18 3 4 7 3 1 2-8-1-6-6-5-17-6-8-6-5-18-8-11-3-7-1z"/><path transform="translate(531,553)" d="m0 0h7l8 4 4 6v2l36 4 17 5 12 1v2h-12l-16-4-3-1-25-2-9-3-7-8-4-2-9-2z"/><path transform="translate(439,555)" d="m0 0 5 1-1 2-18 6h-2v-2l12-6z"/><path transform="translate(428,549)" d="m0 0h4l-1 3-12 6-13 10-6 2v2l24-7 24-6 4-2 8 1v2l-29 7-21 6-25 5-15 5-15 8-14 5-2 4h-2v-3l-11 3-7 5h-2l-1-4 10-5 4-3-2-4-2-1h-18l-8 4-2 3 9 4 5 2v1l-9-1-8-3v-5l5-4 9-5h14l10 5 4-1 12-7 2 2-10 7-5 2v2l21-8 19-9 5-2 12-2h5l-1-4 13-7 4-2 2-4 10-6z"/><path transform="translate(494,560)" d="m0 0h8l10 3 15 3 28 7 18 4 29 7 15 5h4l10 1 12 5 2 3-7-1-10-4-6-1v2l5 2 14 12 7 11v2l-4-2-6-9-5-5-7-6-9-6-13-5-47-11-25-6-24-6-14-3z"/><path transform="translate(600,560)" d="m0 0h10l15 5 16 9 10 9 7 8 7 11-1 3-4-4-7-11-11-11v-2l-6-2-9-5-12-5-14-3z"/><path transform="translate(634,560)" d="m0 0 9 3 13 6v2l4 2 8 7 9 11 4 17v3l-3-1-4-17-7-10-7-7-16-9-10-5z"/><path transform="translate(373,569)" d="m0 0h13l6 1v2h-13l-6-1z"/><path transform="translate(736,571)" d="m0 0 2 1v36l-5-1-9-8-12-8-3-4 5 1 14 10 7 6 1-6-1-11-11-6-5-5 6 2 10 4z"/><path transform="translate(702,602)" d="m0 0h6l9 6 6 8 4 9v3h-2l-8-15-5-5-10-4z"/><path transform="translate(315,607)" d="m0 0h2l-1 4-4 11 13-2v2l-10 3h-5l1-11z"/><path transform="translate(666,610)" d="m0 0 3 1 7 11v2l2 1h-3l-6-7-3-6z"/><path transform="translate(448,618)" d="m0 0 10 1 3 2v2l-9-2 2 4v3l-5-1-13-4-9-1 1 4-2 1-7-2 2-6h12l15 3z"/><path transform="translate(701,622)" d="m0 0 3 1 9 15 5 14v4h-2l-4-10-6-14-5-8z"/><path transform="translate(401,623)" d="m0 0 4 1 1 3 4 2-1 3-4-2-5-4z"/><path transform="translate(649,623)" d="m0 0 3 1 4 8v3h2v-5h2v23l-3-1-3-16-5-10z"/><path transform="translate(501,634)" d="m0 0 5 4 5 16 2 2-4 2-2-2-2-12-2-4-4-1z"/><path transform="translate(429,635)" d="m0 0 7 1 3 3-2 1-4-1 1 4-4-1-3-3v-3z"/><path transform="translate(471,639)" d="m0 0 5 2 4 5h-4v-2h-3l1 4-3-1-1-7z"/><path transform="translate(681,641)" d="m0 0h11l7 5 6 12 3 11-3 1-4-12-2-5-6-8h-12l-4 4-3 6h-3l3-8z"/><path transform="translate(371,652)" d="m0 0h5v3l-9 6-8 9 1 2h4l-1 5-4 2v-3l-4-1 2-7 7-9 5-4z"/><path transform="translate(514,653)" d="m0 0h3v13l-8 10 4 10 6 8 6 2h5l-1 3v7h8l-1 3-8 2-2-5-1-6-8-4-4-5-3-3-6-11-1-4 6-3 4-11z"/><path transform="translate(417,660)" d="m0 0h8v2l-8 1v2l5 1v1h-6l-2-2v-3z"/><path transform="translate(718,660)" d="m0 0h2l4 13-1 5-2-1-3-12z"/><path transform="translate(660,662)" d="m0 0 3 1 8 24h-3l-8-20z"/><path transform="translate(400,667)" d="m0 0h4v3l-6 1v2l4 2-4 1-5-2 2-4z"/><path transform="translate(672,673)" d="m0 0 2 1 5 19 1 4v7h-2l-5-20-2-6z"/><path transform="translate(477,674)" d="m0 0h8l-1 3-5 2-3 3-5-6 5-1z"/><path transform="translate(427,678)" d="m0 0h2v3l-4 3v3l-5-1 2-5z"/><path transform="translate(499,690)" d="m0 0 4 1 1 2v6l-3 4h-8l-4-5 4-1 3-6z"/><path transform="translate(459,696)" d="m0 0 9 3-2 3-4 2-2 4-4-2 2-4 2-3z"/><path transform="translate(413,701)" d="m0 0h2l-2 5-1 2 3 1-5 3-2-2 1-5z"/><path transform="translate(525,712)" d="m0 0 3 1-7 6-13 6-10 3-4-1 2-2 9-3 2-3 11-2z"/><path transform="translate(705,714)" d="m0 0h2l-2 6-4 6-5 4-2-2 7-8z"/><path transform="translate(436,720)" d="m0 0 6 2 2 2-2 1-9 1-10 5-7 1-9 1v-3l10-4 5 1 9-3z"/><path transform="translate(362,724)" d="m0 0 3 1 2 4 8-2 1 4v2l2 1v2h-6l-6-3-3-3z"/><path transform="translate(711,727)" d="m0 0 2 3-4 10-6 9-5 6h-2l2-5 7-10z"/><path transform="translate(488,728)" d="m0 0h3l-1 3-13 5 1 4 3 2-1 5-5 2-1-4 3-2-5-5-6 1 2 6 4 2-1 2-5-2-4-6h-3l1 3 4 3-1 4-4 4h-6l-1-3h4v-3l4 1-5-5-1-6 7-3 16-4z"/><path transform="translate(394,729)" d="m0 0h4l-1 4-5 2-2-1v2h6l2 7 3 5 4 2v-2l4 1-1 3-5 1-7-6-3-8-12-3-1-3z"/><path transform="translate(662,758)" d="m0 0 3 1-6 12-8 9-13 9-7 4h-3v-2h3v-2l15-10 7-6 7-11z"/><path transform="translate(674,770)" d="m0 0h2l-1 6-5 6-5 3-3-1 9-9z"/><path transform="translate(716,773)" d="m0 0h2l-1 4-6 12-1 3h-3l2-9z"/><path transform="translate(688,777)" d="m0 0h2l-1 8-3 8-8 10-1-3 6-9 3-9z"/></svg>
