<?xml version="1.0" encoding="UTF-8"?>
<svg version="1.1" viewBox="0 0 1024 1024" xmlns="http://www.w3.org/2000/svg"><path transform="translate(415,210)" d="m0 0h10l1 2-18 2-23 7-18 11-12 10-9 11-10 15-8 21-3 14h-2l1-10 6-18 9-17 10-13 10-10 14-10 16-8 15-5z"/><path transform="translate(430,210)" d="m0 0h10l15 3 9 4v2l-16 1-15 4-14 7-10 8-6 5-10 13-7 15-4 14-2-1 2-10 5-12 8-13 9-10 10-9 11-6 8-4 14-3 7-1 1-2-7-1-18-2z"/><path transform="translate(553,211)" d="m0 0 2 1-1 2-2 2-8 18-2 3h-2v-2h2l3-9 7-14z"/><path transform="translate(556,216)" d="m0 0 4 4 4 10 2 4 2 1v2l-4-1-8-18z"/><path transform="translate(516,238)" d="m0 0h3v2h-2l5 5 13 12v7l-3 14v5l11-6 3 1-13 8-4-2 1-10 2-9v-7l-8-8-8-7-1-4z"/><path transform="translate(589,238)" d="m0 0 4 1-1 4-8 7-9 8 1 13 2 10-1 5-6-2-16-9-5 1-4 1 4-4 5-1 20 11-1-11-2-10 1-5 7-7 8-7 3-1v-2h-2z"/><path transform="translate(662,241)" d="m0 0 5 1 5 4 6-1 7-3 2 3-3 11 7 9v2l-13 1-5 9-4 1-4-10-2-2-10-2v-4l8-6zm2 2-1 11-8 7 1 2 10 3 4 10 4-4 4-6 10-1-6-8 2-8v-4l-4 1-5 2-4-1z"/><path transform="translate(287,249)" d="m0 0 4 2 5 7 9 1v2h-10l-5-6v-2h-3l-1 7-2 4-9 2 1 3 6 4 1 1v11l5-2-5 5-2-1-1-12-10-8 1-2 12-4 3-11z"/><path transform="translate(436,252)" d="m0 0 5 2 5 5 7-1 6-1 1 4-4 7 1 5 4 7-1 3-13-1-6 8h-4l-2-11-9-4-3-3 11-8 1-11zm1 3-1 11-10 5 4 4 6 3 2 9h3l6-7h11l-2-5-2-3 1-6 3-4-1-3-8 2-5-1-5-5z"/><path transform="translate(305,264)" d="m0 0v3l-2 3 1 6 2 4-1 4-5-1-5-2-6 1 2-4 6 1 6 2-3-9 1-4z"/><path transform="translate(361,283)" d="m0 0h6v3l-4 2-9 2-5 4-3 3-1-3 4-5 8-5z"/><path transform="translate(357,297)" d="m0 0h3v2l-4 2-1 3v9l3 6 2 1-1-3v-8l4-5 3-1-1-3-3-1v-2l5 1 4 6 1 9-3 7-2 2h-9l-4-4-2-6v-8l2-5zm7 12v3l5-1-1-2z"/><path transform="translate(323,305)" d="m0 0h1l1 24 4 17 5 13-1 3-4-8-5-15-1-5z"/><path transform="translate(549,309)" d="m0 0 4 2 7 6 10 4 10-5 17-5h12v1l-17 3-17 6v1l19 5 8 5-2 1-12-5-24-6-11-7v4l3 4v2l-8-2 2 4 5 4 7 2v1l-8 1-8 14-4 12-1 12h-2l1-13 4-13 6-11 3-5-4-2-4-5-1-5 4 2 4 1-3-8z"/><path transform="translate(383,310)" d="m0 0 4 4 5 6 9 5-1 2-13-8-4-6z"/><path transform="translate(688,310)" d="m0 0h2v8l-2 4 7-3 1 2-3 5-1-3-5 2-4-1 4-5 1-5-9 6-8 3-9 2-4-1 7-2-2-2-15-5-9-2v-2l8 1 18 6 3 2h6l11-7z"/><path transform="translate(730,318)" d="m0 0 5 2 5 4 13-3 1 3-3 8 1 4 6 9-1 1h-13l-7 10h-2l-4-11-8-3-5-2 1-3 9-6 1-12zm1 3-1 11-8 5 1 3 9 2 3 10h3l5-7h11v-3l-5-7 1-6 2-6-5 1-7 2-7-5z"/><path transform="translate(654,324)" d="m0 0h2v2l-12 4-10 6-9 9-5 7-5-5 1-2 5 4 1-4 9-10 13-8z"/><path transform="translate(401,327)" d="m0 0 2 4-4 5-5 2 1 3 3 2 1 13-2 3 6 8 8 8 16 10 16 6-4 1-10-3-17-10-12-11-6-9-7-1v-1l8-1 1-5-12 1v-2l9-2 2-1-1-4-4-4-6 1-4-4v-4h2l1 4 5 1 12-5z"/><path transform="translate(351,328)" d="m0 0h7l6 4 2 4v8l-7 6h-3v-2l6-3 1-2v-8l-5-4h-7l-5 5v7l4 4 3 1v2l-5-1-4-5-1-6 3-7z"/><path transform="translate(462,330)" d="m0 0 4 1 5 9 3 1v2l-5-1-4-8h-2l-4 9-5 1v-2l4-2z"/><path transform="translate(686,330)" d="m0 0h2l2 6 8 16 3 11v5h-2l-4-16-8-16-1-1-8-1 4-2z"/><path transform="translate(564,334)" d="m0 0h25l8 3 10 6 7 7 5 8 2 1 1-5 7-9 10-7 11-4h28v1h-6v2l5 1 4 6 8 6-2 3 4 7 3 8v4h-2v14l-1 4h-3l-1 5-5 7-5 3-1 3-8 3h-6l-1 3h-8l-13-4-10-6h-4l-3 2 2-5 3-8 2 1v7l10 6 7 3 9 1 1-2 14-1-1-3 10-5 4-5 2-5 1-6h2v-17h2l-4-10-5-5v-3-2l-10-5 1-4-8-1h-16l-12 5-10 9-6 12-3-1-6-10-5-6-11-7-7-2h-14l-9 1 1 4-9 3 2-6 4-2h3v-2z"/><path transform="translate(476,342)" d="m0 0h8l-1 5-7 6 2 10v4l-5-1-5-3-7 1-6 4-3-1 1-13-9-8 2-3h6v2h-5l9 9-1 11 6-4 5-2 6 3v2h3l-2-11 8-8-5-1z"/><path transform="translate(554,347)" d="m0 0 1 2h3v2l-5 4-5 10-1 3 4 1-2 10h-2v-7h-3l2-10 5-8v-3z"/><path transform="translate(282,354)" d="m0 0 4 2 5 5 9-1 5-1 1 4-5 9-1-3 3-7-7 2h-5l-8-7v7h-2v-9z"/><path transform="translate(583,353)" d="m0 0 7 1 6 3 6 7 2 6v4h-2l-3-10-5-6-7-2-9 1-5 3-4 8v8l3 6 6 5 3 1h8l8-4 4-8h2l-1 5-6 7-7 3h-8l-9-5-5-7-1-3v-8l4-8 6-5z"/><path transform="translate(647,354)" d="m0 0h4v2l-8 3-5 6-1 3v9l6 8 5 3h10l7-4 3-5 1-3h2l-1 5-4 6-8 4h-9l-8-4-6-8-1-3v-8l4-8 5-4z"/><path transform="translate(655,354)" d="m0 0 6 1 6 4 5 10v5h-2l-2-9-4-6-9-4z"/><path transform="translate(648,359)" d="m0 0 7 1 6 4 3 9-3 8-8 4-8-1-6-5-1-2v-10l4-5zm-4 4v6l4 1 2-4-2-3z"/><path transform="translate(586,359)" d="m0 0 9 2 4 5 1 9-3 6-4 3-7 1-8-4-3-5v-9l5-6zm4 4-2 4 2 2 5-1v-4z"/><path transform="translate(334,362)" d="m0 0 4 5 10 14 9 10 13 10 18 10 13 4 17 3v2l-12-1-20-6-18-10-11-9-11-11-9-13-3-5z"/><path transform="translate(280,366)" d="m0 0h2v3l-8 4v2l8 4 2 3 2 7 7-8 11 1-4-7 1-2 6 8-1 4-13-1-6 8-4-1-2-10-11-5v-4l9-4z"/><path transform="translate(503,383)" d="m0 0 3 1-6 8-12 10-22 12-18 5-12 1v-2l22-4 13-5 18-11 10-9-7 2h-5l3-2 11-5z"/><path transform="translate(539,384)" d="m0 0 2 2 2 11 7 11 9 7 11 4 11 2v2l-10-1-4-1-1 4-2-5-11-6-4-1-7 7v-3l6-6-2-4-5-9-2-8z"/><path transform="translate(617,385)" d="m0 0 6 1 2 3-7-1-5 5-1 3 3 6 4 6 2 1-1 3-5-5-2-4-5 1-11 7-12 3h-7l-2-2-11-3-2-1-2-4-7-6-2-4 2-1 5 7 9 4-1 4 13 1 1 3 16-4 11-7 1-5 3-6z"/><path transform="translate(443,392)" d="m0 0 29 1 1 2h-20l-10-2z"/><path transform="translate(680,415)" d="m0 0 3 1-4 3-1 7h-2v-6l-10 2v-2l12-4z"/><path transform="translate(539,422)" d="m0 0 1 3-5 13-2 11-2-1 1-9 4-12z"/><path transform="translate(703,423)" d="m0 0 4 4 5 16v5l-2 1-3-14-4-10z"/><path transform="translate(610,424)" d="m0 0h24l-1 2h-22z"/><path transform="translate(366,425)" d="m0 0 9 1 11 6 6 7-1 2-5-6-12-7-6-2v8l-2-4z"/><path transform="translate(422,431)" d="m0 0 4 2 7 14 1 3v11l-4 9-3 5 14 12 11 10 14 11 9 6 8 3 22 4 7 1v2l-16 3-7 2 4-4 6-1v-2l-10-1-15-5-11-7-11-9-11-10-8-7-9-7-3-3-22-11 4-1 14 7-3-7 2-1 5 9 2 2 4-1 4-8v-13l-7-15h-2l-5 10-2 3-1-3 6-11z"/><path transform="translate(476,438)" d="m0 0 4 2 5 5 8-1 6-1 1 2-5 10-1-3 3-7-8 3-5-1-5-5-3-1v11l-9 6-1 2-3-1 5-5 6-2v-13z"/><path transform="translate(320,449)" d="m0 0h5l12 11 5 10v3h-2l-4-10-5-6-7-5h-2l-1 7-2 1v-7z"/><path transform="translate(638,450)" d="m0 0 3 1 3 5 2-2 1-4h2l-1 6-2 3-4-1-3-5z"/><path transform="translate(395,449)" d="m0 0h1l1 10 2 2-2 1 5 6 11 9 9 8 5 5 2 4-21-18-10-9-5 2-7 3-10 1 4-2 10-3 4-3-2-4-16-8 1-2 5 2 11 4 1-7z"/><path transform="translate(565,452)" d="m0 0h1l-1 11-3 16-2 7 1 10-2-1v-2h-2l-1 6 4 9 5 9 5 5-3-15 1-2 5 5 10 9 5 4 6 2 1-1h5l5 1 6 1 3 5-1 6h-2l-1-8-5-1h-4l-5-1-4 2-2-2-4 1-2 4-3-1-14-1v-1l8-1-2-4-4 1-7-8-8-14-2-3 5-14 6-20-5 4-4-1 4-2 5-10zm5 59 2 9 5 8 2-1v-9l-7-7zm12 10-2 6 1 3 5-4-2-4z"/><path transform="translate(677,454)" d="m0 0 3 4 5 10h3l2-8 2 2 3 9h-2l-1-4h-2l-2 4-5-2-2-1 4 15 6 19 2 3 1-3h2l1 3 4-7 1 3-6 9-4-1-1-4-4 4-5 10-5 6-3 1-3-1-2 4-4 1v-2h3l2-5 5-12-8 7-1 5v3l-3 1v-5l-4 2-1 3h-6v4h-2l-3-4-4-2 4-1 6 1 11-8 6-5 8-10 6-11-3-11-3-14zm8 40-7 10-3 12v6l4-2 7-11 3-7-1-5z"/><path transform="translate(493,455)" d="m0 0 5 5 3 5-1 3h-13l-6 8h-3l-4-12-8-3 4-1 6 2 2 5 1 5 3-1 4-6h9l3 1-5-9z"/><path transform="translate(303,461)" d="m0 0h8l7 2 7 6h-3l-8-4-11-3z"/><path transform="translate(552,460)" d="m0 0h1l1 8-2-1-1 2h-2l-2 4-4-1h-3l-4 4-3-1-2-6v-5h2l2 8 3-1 3-9 2-1 1 9h3z"/><path transform="translate(701,464)" d="m0 0 2 4 3 4 3-1 1-6h2l-1 9-6 20-3 4 1-7 4-14-4-4v-2l-3 2-5-1 4-2z"/><path transform="translate(300,469)" d="m0 0 3 3 6 8 4 3 7 2h11l-4-11-2-4 3 1 4 8 1 6 7 1v-3h2v5l11 8 3 3-5-2-13-8-3-1-1 2-1-2h-12l-10-4-8-7-3-5z"/><path transform="translate(413,473)" d="m0 0 8 6 13 9 8 7 5 8-1 3-7-10-9-8-13-9-4-4z"/><path transform="translate(695,478)" d="m0 0h2v19h-2z"/><path transform="translate(278,480)" d="m0 0h12v2h-10l5 9 5 6 7 4 4 1v2l-6 1-12-12-6-12z"/><path transform="translate(302,484)" d="m0 0 5 1 7 8 4 8 12 1v2h-16l-1-7-5-8-6-4z"/><path transform="translate(547,494)" d="m0 0h2l1 10 1 4-4 1-1-3h2l-1-3z"/><path transform="translate(356,499)" d="m0 0 6 2 8 4 20 4v4l9 3 10 5 7 7 1 5-3-3-5-6-16-8-13-6-17-5-7-5z"/><path transform="translate(303,503)" d="m0 0h10l1 2 12 4v2l-9-1-7 8-10 5-3 1h-8v-2l12-2 8-5 5-6-2-2-9-2z"/><path transform="translate(291,504)" d="m0 0h2v2l-10 5-6 5v2l10 3 1 2-8-1-6-3 1-4 9-8z"/><path transform="translate(595,510)" d="m0 0h2l3 7 2-1 2-6h2l-2 8-1 1h-5l-3-6z"/><path transform="translate(437,510)" d="m0 0 2 3 3 7 12 6 17 4 1 2-12-2-8-2-15-7-10-3-30-5v-2l11 1 30 6-1-4z"/><path transform="translate(354,508)" d="m0 0 7 1 12 5 16 6 9 6 5 4 6 10 2 2-7 6-2-1 4-4-1-3-17-10-16-8-10-4-17-3v-2l11 1 16 5 18 10 10 5 3 1-6-7-12-7-16-6-10-4-5-1z"/><path transform="translate(488,529)" d="m0 0 1 2 1 7 8 5 6 2v2l-6-1-8-5-4-5v-5z"/><path transform="translate(632,529)" d="m0 0 1 3v8l2 4 4-1 2-6h2v8l-5 2-5-1-2-5-1-6-11-1v-2l10-1z"/><path transform="translate(527,533)" d="m0 0h19v2h-19z"/><path transform="translate(548,534)" d="m0 0 8 1 13 4v1l-8-1-13-3z"/><path transform="translate(660,535)" d="m0 0 18 3 15 4 16 8 13 9 10 7 8 4 14 4v1h-7l-10-3-10-6 2 6 2 4-5-4-5-10-10-8-10-6-16-6-23-4v2l9 2 23 11 9 6 7 8 4 7 6 11v2h-2l-9-17-9-10-11-7-17-8-12-4-1 3-1-2z"/><path transform="translate(436,536)" d="m0 0h7v2l-10 2-8 3-9 7-12 9-2-1 12-10 10-7z"/><path transform="translate(569,540)" d="m0 0 9 2 5 2 7-1 2-3h2l3 6-5-1-2 2 19 5v1l-13-1-25-10z"/><path transform="translate(468,541)" d="m0 0 5 1 12 7 4 3-5-1-16-9z"/><path transform="translate(539,545)" d="m0 0h8l10 3 11 6 5 6 5 3 11 1v2h-9l-7-3-9-9-11-5-14-2z"/><path transform="translate(437,548)" d="m0 0h16l11 3 11 6 6 4 9 2v1h-12l-3-1h-13l-1-2 14-1-9-6-12-3h-18l-9 1 3-2z"/><path transform="translate(286,549)" d="m0 0h6v2l-7 1-1 2h2l4 6 3 4-4-2-7-9 1-3z"/><path transform="translate(299,549)" d="m0 0 9 1 8 5 6 7 1 3 5 1v2h-3l4 4 7 3 10 4-1 4-4 2 3-5-10-3-10-5-2-2-16 1v-2l12-2 2-1-2-5-5-6-8-3-6-2z"/><path transform="translate(424,552)" d="m0 0 3 1-14 7-17 13-8 3-3-1 14-7 14-11 7-4z"/><path transform="translate(392,554)" d="m0 0 2 1-5 5-9 5 12-2 8-4 2 1-4 3-11 4-10 1-9 2h-5v-2l8-2 12-5z"/><path transform="translate(643,554)" d="m0 0 11 1 16 5 14 7 10 8 5 7 3 13 2 7 5 4 9 3-4 1-7-2-6-7-4-16-5-8-8-7-16-8-13-4-12-2z"/><path transform="translate(531,557)" d="m0 0h8l8 3 4 4 2 5 5 2 31 3 10 2 13 4 13 1v2h-12l-25-7-21-1-12-2-5-5-3-5-7-3-9-1z"/><path transform="translate(434,559)" d="m0 0h4v2l-17 5-6 3-2-1 14-7z"/><path transform="translate(446,561)" d="m0 0 6 1h7v1l-20 4-27 8-36 8-15 4-19 10-18 6-1 9h-1v-8l-10 2-12 8v-4l-2-1 9-3 9-7-3-3-7-3h-12l-10 4-6 4v2l12 5 6 1v1h-7l-11-4-3-3 2-4 14-8 4-1h10l7 3 6 4 5-2 13-8 2 1-11 8-7 4-1 2 21-7 15-8 16-6 30-6 25-7 14-4 6-1z"/><path transform="translate(490,564)" d="m0 0h8l39 10 15 3 36 9 20 4 11 4 6 2 14 9 12 11 9 13v2h-2l-7-11-12-12-14-9-20-7-37-8-32-8-21-5-25-6z"/><path transform="translate(605,564)" d="m0 0h11l15 5 17 8 12 9 9 10 9 15-1 3-12-19-10-10-14-9-15-6-14-4-7-1z"/><path transform="translate(645,564)" d="m0 0 10 4 15 8 11 9 9 12 5 17 1 7-3-3-4-17-7-11-8-8-11-7-14-7-5-2z"/><path transform="translate(359,574)" d="m0 0 24 1v2h-13l-11-2z"/><path transform="translate(754,575)" d="m0 0 4 1v38l-1 3-4-2-13-11-11-7-4-3 1-2 11 7 13 10 6 5-1-21-17-9-3-4 16 8 4 1v-12z"/><path transform="translate(629,596)" d="m0 0 10 1 10 3 8 5 1 2-5-2-12-5-12-2z"/><path transform="translate(718,610)" d="m0 0h6l10 6 6 8 6 13-1 3-8-16-7-8-12-5z"/><path transform="translate(299,614)" d="m0 0 1 2-5 13-1 4 16-4-3 3-11 3h-4l1-9 4-9z"/><path transform="translate(679,616)" d="m0 0 4 5 6 10 3 4-1 2-6-7-6-11z"/><path transform="translate(442,627)" d="m0 0 9 1 7 3-1 2-12-4 4 7-1 3-10-5-14-3h-7l4 4v2l-11-2v-2h5l-3-2 1-3h10l16 4 6 2-3-4z"/><path transform="translate(715,630)" d="m0 0 4 2 5 6 7 15 5 13v5l-2-3-8-20-5-10z"/><path transform="translate(660,631)" d="m0 0 4 4 4 8 1 3 2 1v-8h2l-1 15 1 12h-2l-2-13-7-16z"/><path transform="translate(393,633)" d="m0 0h3l-1 4 6 2 1 2-4 1-3-2v-2l-5-1v-3z"/><path transform="translate(500,645)" d="m0 0 5 5 5 15v2h3l-2 4h-3l-3-15-3-6-2-1v2h-2l1-5z"/><path transform="translate(423,646)" d="m0 0 8 2 2 1v2l-10-2 4 4v2l-4-2-4-5z"/><path transform="translate(467,650)" d="m0 0 6 2 4 5v2h-2l-4-5-2-1 2 7h-2l-3-9z"/><path transform="translate(698,652)" d="m0 0h8l7 4 7 11 5 16-2 2-6-18-7-10-3-2h-10l-6 4-4 10h-2l1-5 4-7 5-4z"/><path transform="translate(358,664)" d="m0 0h7v2l-11 7-8 9-2 6 5-2h3l-2 4-5 5 1-5h-5l1-5 6-9 7-7 3-2z"/><path transform="translate(515,664)" d="m0 0 2 1-1 9-1 3 2 2-9 11 1 5 7 12 6 5 7 1 2-1h6l4 5-1 7-3 2-7 2-3-6v-6l-10-4-6-8-7-13-2-1 1-4h2l1 2 5-6-1-4h2l3-11-2-1zm17 49-3 3v6l3 3 5-1 2-1v-7l-3-3z"/><path transform="translate(736,671)" d="m0 0 2 3 4 15v4h-2l-4-17z"/><path transform="translate(411,673)" d="m0 0h7v2l-10 1v2l7 1v2l-10-2v-3z"/><path transform="translate(673,674)" d="m0 0h2l5 17 5 10v2h-2l-8-18-2-7z"/><path transform="translate(392,681)" d="m0 0h4v2l-9 2v2l6 1-1 2-8-1-1-2 4-4z"/><path transform="translate(685,687)" d="m0 0h2l5 19 3 10v5h-2l-4-17-4-13z"/><path transform="translate(473,688)" d="m0 0h11l-1 2-8 3v4l-3-1-5-6 4 1 2 1z"/><path transform="translate(422,692)" d="m0 0 1 2-7 4-1 2h7v1l-10 1 2-6z"/><path transform="translate(741,695)" d="m0 0h2v20h-2z"/><path transform="translate(498,705)" d="m0 0 3 1 2 4-1 7-3 3h-6l-5-4-1-3 3 1 1 2 2-7 2-2h3zm-1 5 1 3 1-3z"/><path transform="translate(453,712)" d="m0 0 11 3v2l-6 2-2 3 2 1-3 2-5-2 7-7z"/><path transform="translate(405,717)" d="m0 0h2l-1 3-4 4-1 2 7-1-4 3-4 1-1-5z"/><path transform="translate(529,728)" d="m0 0v3l-6 5-18 8-10 3-4-1 16-6-1-3h9l8-4z"/><path transform="translate(723,730)" d="m0 0 1 3-4 8-6 7-5 1 5-5 6-8z"/><path transform="translate(430,738)" d="m0 0 2 1v3l6-2v2l-5 2h-6l-10 5-8 2-2-2-10 3v-2l14-5 1 2 7-1 9-6z"/><path transform="translate(349,742)" d="m0 0h2l3 8 4-2 5-2 1 2-2 5 5 1v2h-8v-4l-4 2-4-4-2-5z"/><path transform="translate(728,746)" d="m0 0h2l-2 9-6 11-8 9-3 3 2-5 10-13z"/><path transform="translate(488,747)" d="m0 0 3 1-18 7v4l5 3v5l-5 3h-2v-6l5 2-1-3-5-4-1-2-9 1 3 7 6 3-2 2-5-3-4-7h-5v3l6 4 1 4-7 5h-5l-2-3 6 1-2-5 5 2 1-2-6-5-1-5 9-3 15-4z"/><path transform="translate(385,748)" d="m0 0 4 1-5 5-5-1-1 2 9 2v6l3 6 7 3-2-4h3l2 4-5 2-7-4-4-8v-4l-6-1-9-2-1-2 15-4z"/><path transform="translate(677,778)" d="m0 0 1 3-6 11-9 10-10 8-14 8-2-1 14-9 12-9 8-10z"/><path transform="translate(689,791)" d="m0 0h1l-1 7-7 8-5 3-3-1 9-6 5-8z"/><path transform="translate(735,795)" d="m0 0 1 3-7 10-3 9-2-1 2-8z"/><path transform="translate(703,799)" d="m0 0h2l-1 8-3 10-7 9v2l-4-1 6-7 5-10z"/></svg>
