<?xml version="1.0" encoding="UTF-8"?>
<svg version="1.1" viewBox="0 0 1024 1024" xmlns="http://www.w3.org/2000/svg"><path transform="translate(212,164)" d="m0 0 4 1v13l-5 13-5 8-13 15-7 7-5 8v9l7 10 12 12 8 7 6 7 3 6 1 5v17h-2l-1-7-5 5-4 6-11 9-13 13-1-3 7-8 13-12 8-7v-9h4v-9l-7-11-12-11-12-12-4-6-1-5h-2l2 9 2 10-4-2-2-7v-21l4-13 6-10 6-5-1 4-6 9-4 10-1 8h2l2-4 6-8 8-8 8-10 6-10 3-8 2-10-2 1-3 7-5 5h-2l2-4 6-10z"/><path transform="translate(320,164)" d="m0 0 3 3-10 9-11 10-6 9-3-1 3 13v3h2l5 7 8 7 12 11h1v-6l-4-8-8-7v-2l4 1 7 7 4 7v15l-5 3-7 8-8 7-7 7-2 10 5-1 7-7 8-7 5-6 2-4h2l-2 5-4 6-8 8-8 7-3 3 2 7-6-4-3 1v-13l4-8 12-12 8-7 2-2v-6l-8-8-11-9-7-7-5-11v-15l3-11 6-8 3-3h2l-1 4-5 6-3 7-1 6 7-6 5-5z"/><path transform="translate(441,164)" d="m0 0h2l-1 4-15 16-2 5 1 6 7 8 10 9 5 5 5 6 2 5v12l-5 3-6 7-1-3 6-7-3-7-8-7-13-12-1-4 7 6 15 13 7 5-4-11-7-7-1-3-6-4-12-11-1 7h-2l-1-2v-24l1-3h3l-1 9h2l2-5 7-8z"/><path transform="translate(832,164)" d="m0 0 3 1-1 4-5 5-6 10-4 2-2 4-4 5-6 4 2-4 8-8 10-14z"/><path transform="translate(552,165)" d="m0 0 2 1-7 8-6 8h-2l2-5z"/><path transform="translate(569,165)" d="m0 0h2l-1 4-24 24-4 6v7l11 12h-3l-8-8-2-1-1-4-2-1 2 14 1 5-3-3-2-6v-23l2-6 2 1 1 9 9-10 6-7 8-7z"/><path transform="translate(750,165)" d="m0 0 6 4 13 13 4 7 2 7v24l-3 3 1-13-4 4-7 8-5 5-7 6-6 8-1 6 1 5 4-2 12-13 8-7 1 2-7 8-14 14-1 5-5-4v10l1 7-3-3-1-4v-17l4-10 11-13 8-7 7-9-3-7-7-8v-2l4 2 5 4 3 4-1-10-3-6-11-12-7-7z"/><path transform="translate(738,166)" d="m0 0h2l6 11 4 5 7 6v2l-4-2-11-10-4-9z"/><path transform="translate(833,176)" d="m0 0h2v6l-8 16-7 9-14 15-4 7 2 6 9 10 6 6-1 3-7-6-7-7-6-9h-1l2 11 4 9 4 6 20 20 6 9 2 1-2-13-7-12-2-2v-3l4 2 6 9 4 10 1 5v21l-4 13-3 6h-2l-2 5-8 8-2-2h2l2-4 6-8 5-9 3-16 1-2h-2l-1 5-7 9h-3l8-12-1-9-8-10-19-19-7-10-3-10v-21l4-10 2-3 2 1-4 9v9l4-1 6-8 13-14 10-17z"/><path transform="translate(373,185)" d="m0 0h21l9 4 9 7 8 16 1 7v8l-4 13-6 12-12 12-2-1 2-4 8-7 7-14 2-5 1-6v-8l-3-11-5-10-7-6-12-4h-13l-11 4-11 10-6 11-2 10v13l1 9-3-1-1-7v-15l2-11 6-11 9-9z"/><path transform="translate(296,197)" d="m0 0 4 2 6 5 3 5-5-2-6-7-2-1z"/><path transform="translate(371,197)" d="m0 0 2 1-1 5-10 10-3 6-4 1-2-2v-7l5-8 1 3-2 6-1 5h2l2-6 7-8z"/><path transform="translate(540,223)" d="m0 0 16 16h-3l-10-9-3-5z"/><path transform="translate(560,225)" d="m0 0 4 2 8 7 6 7 3 6v13l-3 1-6 8-7 6v-4l9-8-1-6-9-8-4-6 4 2 10 9 4 2v-9l-6-9-12-12z"/><path transform="translate(347,248)" d="m0 0 4 2 6 9 5 5 7 3h13l5-2 7-1-1 3-10 4-9 2v6l-5 3v23l1 7-3-3-2-6v-23l-5-2 1-4 2-5-10-9-6-10zm17 25v4l4 2 4-1-1-4z"/><path transform="translate(438,252)" d="m0 0h3l-2 4-6 6-4 8v6h4l-1 9-1 3-3-1 1 9 5 9 7 8 4 2v-10l-8-8h3l8 7v14h-4l-8-6-6-7-4-9-1-23 4-9 7-10z"/><path transform="translate(180,258)" d="m0 0 5 4 7 8 13 12v2l-5-2-11-11-6-5-4-7z"/><path transform="translate(448,258)" d="m0 0v3l-9 10-6 5 2-4 7-8z"/><path transform="translate(747,259)" d="m0 0 7 6 10 7 10 4v17l-4 1-10-4-4-3 6 1 10 3-1-13-14-7-9-8z"/><path transform="translate(578,271)" d="m0 0h3l-2 6-7 10-8 7-16 15 2 5 5 6 8 6 12 11 4 9v19l-4 10-7 8-7 7-4 1-1-1v-17l14-13 1-3-4-6-6-5-3-3-6-5 2-2 13 11 7 5 1-7-5-9-11-9-10-8-5-6v-2l-2 1 2 11 6 10-4-1-5-6-1-4v-24l6-9 10-11 4-3h3l-2 4-15 15-2 4v8l4-2 4-5 11-9 10-9zm-3 85-7 9-10 9v13l4-1 10-9 4-7 1-14z"/><path transform="translate(644,283)" d="m0 0h16v2l-17 1-11 6-7 7-1-2 7-8 10-5z"/><path transform="translate(662,284)" d="m0 0 8 2 8 6 2 5 3 1 4 11v2h-2l-4-9-5-8-5-4-9-4z"/><path transform="translate(296,292)" d="m0 0h2l4 8 9 7 7 4 9 2-1 3-5-1-14-7-8-7-3-6z"/><path transform="translate(310,293)" d="m0 0 6 2 11 5v2l-10-3-7-5z"/><path transform="translate(636,293)" d="m0 0h6l3 3-1 5-5 4-6 1v9l-4 8h-6l-1-4 6 1 3-9-1-4-6 3 1-4 2-2h5l-1-5 3-5zm0 2-3 3 1 5 6-1 3-3-2-4z"/><path transform="translate(620,304)" d="m0 0 1 4-3 11v12l4 14 6 10 9 7 4 2 11 1 16-8 7-6 7-12 2-5h2l-3 9-6 10-9 8-12 6-5 1 1 8-5 3v10l8 25v21l-3 10h-3l2-10v-20l-7-22-1-16-5-3 2-7-9-6-8-7-7-17-1-4v-16l4-12zm23 65-2 4 4 2 4-1-1-4z"/><path transform="translate(214,308)" d="m0 0 2 1-4 7-5 7-8 7-12 10-5 8 1 6 6 9 7 7 12 7 9 4v16l-2 2-6-1-14-7-5-4v-3l5 2 10 6 5 2h3v-12l-12-4-15-13-6-9v-2h-2l3 15 5 8v3l-4-2-6-13-1-4v-22l3-7 1 3v9l3-1 6-8 8-7 13-12z"/><path transform="translate(821,313)" d="m0 0h2l-1 4-8 8-8 12-2 11h-2v-10l4-8 12-15z"/><path transform="translate(369,315)" d="m0 0 4 1 7 16v31l-2-1v-24l-6-16-3-5z"/><path transform="translate(815,339)" d="m0 0 1 3-7 8-5 10h-2v-8l10-9z"/><path transform="translate(745,355)" d="m0 0h7l3 3 4-2 1-1h6l5 6-5 6 1 2-5 3-2 3 13-1v-5l-4-2h6l1 1v8l-1 1-7 1h-10l3 23v6h-2l-2-2-4 4v7l3 3h4v-9h2l8 38 3 21 2 2 9 1 7 5v2l-6-2-2-1h-14l-11 2h-11l-20-3-16-6-14-8-4-4-5 1-10 9-5 5 2-4 7-9 7-5-3-4h-12l-21 8-18 6-8 4-4 3 1-4 8-5 32-11 11-4h11l4 2h6l1 7 10 7 10 5 4 1v-6l4-5 3-2h7l5 3 3 7v7l16 1 9-1 2-1-1-3-9-2-5-5v-9h2l1 8 3 3h8l-2-14-2-4-4-23-8-2-3-4v-9l7-7-1-9-3 1h-11l-3 3-1 7h-6l2-5 9-11 6-8-2-12-2-5zm2 2 1 9 4 6 2-1v-12l-1-2zm15 0-4 5-2 4v6l4-2 8-9-2-4zm-11 23-6 7-1 4 1 1h8l3-4-1-7zm-22 78-5 4-1 2v7l9 3h7l2-5-1-6-5-5z"/><path transform="translate(459,359)" d="m0 0h14l12 5v2l4 2 5 4 8 14 2 7v18l-3 10-2 4-3-1 4-13v-19l-6-15-8-8-13-6h-13l-12 5-6 5-6 10-2 7v14l5 16 2 4 5 5-2 2-6-7-5-9-2-9v-17l4-12 6-8 10-7z"/><path transform="translate(477,370)" d="m0 0h6l6 6-1 5 4 1 4 5-1 4-3-6-3-1v7l3 7 4 1-1 2h-5l-2-2-3-11v-4l-8-4-1-2 9 1-2-5h-7v-3z"/><path transform="translate(300,376)" d="m0 0h2l3 5v2h3l1-3h3l-2 4-4 9v3l6-3-1 5-1 6 5 9 4 4 1 4h-5l-3 6 1 7-3-3 1-10 2-2-1-6-3-1-2 5-7 3-3 5h-2l2-11 2-10-8-3-9-3-2-2 1-7 1-1h8l3 1v2l5-1 3 5v2h2l-2-14zm-16 14-2 4 5 3 11 4 2-3-7-7-2-1zm19 13-3 6-1 6 5 1 4-3v-7l-2-3z"/><path transform="translate(727,406)" d="m0 0h2l-1 4-1 3 4 1 4-1 2-7h2v8l-3 3-10 1-5 1-7 9v5l4 3v5h-2l-2-5-5-1-7 8 1 5 4 2 5-1 3-2 1-3h2l-1 5-5 4h-7l-5-3-4-1 2-6 11-13 10-14z"/><path transform="translate(320,422)" d="m0 0 4 2 14 22 1 3h2l16 24 2 5 7-3 14-10h2l-2 4-11 8-3 3v2l4 1h6l9-8 8-4h9l3 7v21l-2 12h-4l-16-16-15-9-6-2-8 4-8 5-15 4-10 2-10 1h-13l-21-3-8 6-13 13-11 16-3-1v-11l2 3 5-1 8-11 8-9-1-5-11-7-1-2 6 2 10 6 7-2 2-4-5-2-22-11v-2l9 2 17 9h2l5-14h2l-1 10-2 7v5l20 2h19l-2-4v-5l3 1 1 7 11-1 9-4-1-6-6-6h-8l-5 4-1 3h-2l1-4 7-6h8l7 5 3 7 6-2 5-2v-5l-8-10h-10l-5-4-1-2v-10l1-7-4-5v-2h-14l-1-2h9l1-4-5-8zm17 28-3 3v8l4 4 7 1 2-1-2-7-6-8zm58 22-9 5-9 8 2 5 11 9 7 8 5-1 2-9v-17l-3-6-2-2z"/><path transform="translate(737,426)" d="m0 0h6l6 5 1 2v8l-5 6-6 1-5-2-5-6 1-8zm1 2-6 5-1 4 2 6 6 3 7-2 2-2v-9l-4-4z"/><path transform="translate(295,427)" d="m0 0h2l3 5v11l-4 5-4 2-5 18-2 1v-8l2-6 3-14 4-13zm1 6-3 5-1 6 4 1 3-3v-8z"/><path transform="translate(494,428)" d="m0 0h2l-2 5-10 9-4 2 1 5 1 3-6 4v25l8 19 3 8 2 8v19l-1 3h-3v-23l-3-12-7-15-3-9-1-8v-10l1-6-5-1v-8l-12-5-7-6v-2l4 2 7 4 4 2h15l10-6zm-23 20-1 4h7v-4z"/><path transform="translate(308,448)" d="m0 0h9v1l-7 1-4 4v9l4 4 9 1-1 2h-9l-5-4-1-2v-11z"/><path transform="translate(398,457)" d="m0 0h10l4 5 1 7-2 1-4-9h-10l-10 4h-2l2-4z"/><path transform="translate(233,472)" d="m0 0h11l3 1v2l-14 1-2 6v32l4 16 3 6 4-1-1 5-6 11-4 1 4-11-5-15-3-15v-29l3-7z"/><path transform="translate(293,472)" d="m0 0h8l5 6v3h-2l-2-4-6-2-5 2-1 2h-2l1-4z"/><path transform="translate(412,473)" d="m0 0 3 3v28l-1 8h-2z"/><path transform="translate(670,473)" d="m0 0h2l-2 6-3 7-12 33-1 2 16-1 11-3 5-6h2l-2 5-8 6-12 3-12 1-12 5-7 8-1 4v16l6 11 5 5 6 5 14 8 15 5 13 3h30l26-6 15-6 5-3h2v-2l10-7 1-9-7-6-5-7-3-10-2-10v-30l2-8h2v39l3 15 7 10 5 4 7 1 9-3 7-4 10-9 7-11 3-7v-11l-7-9-15-13-3-4h3l11 9 12 12 2 4v14l-7 14-12 12-8 6-7 3-9 1v7l2 2 2 12-6-2 2-10-7 2-7 6-8 5-16 6-18 5h-43l-17-5-12-5-5-1h-2l2 8-3 1-2-10-2-6-12-12-2-3h-13v17l22 1v2l-29 1-10-1v-2l13-1v-17l-3-1h-8l-6 1v19h-4l1 40 3 4-11-2v-2l4-1v-38h-24l-1 14-7-2v-7h-5l-1 5-1 2-3-6-6-1-4 2v-6l-4-1-2 1v4l3 1v2l-4-1-3-4h-4l-2 3h-2l-1-7-4-1-1 8-3-1-1-2-5 1-3 3v-6l-3-2h-3l-2 5-11 3-2-2-5 1-1 3 1 4h-5l-4 4 1-5 4-5 4-6 10 1 7-3 4-4 6 2 3 2 6-2 4-3 5 2 4 3 7-1 4-2 8 5h13l5 4v-6l-3-1v-21l2-1h31l-3-2-5-2-7-6v-7h2l2 6 9 6 6 3h3l1-5 1-3-7-8-3-1 1 5 6 7-5-2-6-6 1-5 1-1 7 1 2 2-2-5-2-2h-6l-5 3 2-5 2-2h6l8 7 7 10h6l6-9 9-6 5-3 9-7 5-5 3-5-6 4h-5l3-3 9-6 3-5 10-25zm-40 64-6 4-3 3 1 4-2 4 1 6h-3l-2-5-2-1h-6l-4 4-1 4 2 2 12 1 13-3 2-4-3-3h-2l4-3-1-5h-2v-2l5-2v-4zm-67 26v18l1 1h32l1-1v-16l-3-2z"/><path transform="translate(620,474)" d="m0 0 2 1-1 22-2 1v-22z"/><path transform="translate(287,483)" d="m0 0h3l3 3h8l4-3v3l-6 5-7-1-5-6z"/><path transform="translate(241,485)" d="m0 0h7l4 2-3 1h-7l-2 3 1 21h-2l-2-10v-11z"/><path transform="translate(666,500)" d="m0 0h9l4 4v10l-4 4h-10l-3-3-1-9h2l2-5zm7 5-1 3 4 2v-4z"/><path transform="translate(621,502)" d="m0 0 2 3 4 8 5 4 10 1v1h-11l-5-3-4-5z"/><path transform="translate(719,514)" d="m0 0h6l6 4v11l-5 4h-9l-4-4v-11l3-3zm6 4-2 4 4 2 1-4z"/><path transform="translate(402,515)" d="m0 0 4 1 4 2v-2h2l1 11 8 15 10 30 5 30 1 7v15h-2l-1-2-2-26-5-23-5-18-10-23-9-15z"/><path transform="translate(653,529)" d="m0 0 4 1-5 4v8l5 8 5 4h9l9-4 3-3 1-6-7-7-9-4 4-1 11 6 4 5-1 8-8 7-4 2-9 1 2 9 2 2 12 1-1 3h-11l-6-7-10 2-5-2-3-3v-3h2l3 3 5 1 4-2 1-6-8-7-3-6v-9z"/><path transform="translate(383,542)" d="m0 0h10l6 4 1 4-4 1-2-1h-11l-9 4-4 3-2-1 2-5 8-7z"/><path transform="translate(306,543)" d="m0 0h11l5 2 7 9-1 5-4-2-5-4-3-1h-10l-7 3-4 2 1-7 7-6z"/><path transform="translate(230,556)" d="m0 0h2l-2 9-7 18-3 9-3 14-5 20h-2l1-13 7-26 3-10 6-15z"/><path transform="translate(347,561)" d="m0 0h13l3 3-3 9-3 4 2 6h6l4-4v5l-3 3h-7l-3-2-4 1-2 2h-9l-5-4-1-3h3l1 3 2 1h7l2-3v-5l-8-7v-6zm1 2-4 2 1 6 5 4 6-1 4-5v-5l-1-1z"/><path transform="translate(792,587)" d="m0 0 3 4 8 16 2 5-1 4-9-20-3-6z"/><path transform="translate(467,605)" d="m0 0h2l1 13 3 2-1 4 1 3h-2l2 5 4 2v2l-5 1-1 4h-1v-6h-2l1-3v-8l-4-3h2z"/><path transform="translate(563,615)" d="m0 0 6 3v3l2 1-1 1v9l2 3-3 3-1 5-2-1v-6h-3v-2l3-1v-6l-2-2 1-1v-5z"/><path transform="translate(805,616)" d="m0 0 3 4 6 16 5 22 1 7v32l6-3 4-9 1-4h2l-1 8-5 8-9 7-2-1 1-6v-32l-3-18-4-14-5-13z"/><path transform="translate(459,621)" d="m0 0h4v2l-25 6-17 6-9 6 2-4 5-4 14-6 19-5z"/><path transform="translate(209,630)" d="m0 0h2l-1 15v36l4 21 6 15v4l-4-5-4-9-9 2-14 5-10 6-14 8-1-2 11-8 19-9 8-4 8-2-3-15v-50l1-7z"/><path transform="translate(670,633)" d="m0 0 2 1 4 18 4 10v2l-3-1-5-11-2-6-1-12z"/><path transform="translate(639,633)" d="m0 0h2l1 21-4 1-1-5v-12h-11l-2 3-4-4v-2l18-1z"/><path transform="translate(737,637)" d="m0 0h2l-3 12-6 10-5 7-4 3h-2v-3l5-5 6-9 5-10z"/><path transform="translate(299,647)" d="m0 0h2l8 16 11 12 5 6 2 4v10l-6 8-3 2 1 6 4 10v18l-4 13 12-2 32-3 16-4 13-4h9l7 7h12l5-2v-2l8-7 8-11h2l-2 6-7 9-7 7-7 3h-12l-7-4-3-3-8 2-9 3-22 4-45 5-4 3-4 1h-13l-13-4-24-7-11-4-2-1v-2l-6-2-11-9 1-3 7 6 14 8 12 5 21 5-4-8-2-9v-14l2-8 6-9 5-5-7-7-2-1h-16l-4 1 1-3 9-3 10-1 10 11 8 5 6 2 11 1-2-5h8l2-4-4-4v-2l6 1-3-8-10-10-8-13-4-8zm-10 55-6 5-6 12-1 12 3 12 7 11 7 5h12l9-6 3-3 5-12v-11l-3-12-4-6-2-2-13-3-4-2z"/><path transform="translate(410,655)" d="m0 0 2 1 2 7 10 7 17 6 17 3 1 2-3 1-2 9-5 35-1 10-3 22h-2v-11l5-31 1-11 3-23-9-3-8-1-1 13 9 7 1 4-4-2-6-5h-12l-10 6-7 10-3 12-2 7h-2v-7l5-16 7-8 8-6 11-4 2-7v-6l-12-6-9-8z"/><path transform="translate(636,662)" d="m0 0h2l1 17 2 10 3 4-4-2-5-5 2-2-3-11-4-1h-14l-11 5-21 4v12l3 22 2 19 3 21v7l-4 4h-8l-3-4-2-8-1-10-4-26v-5l2 1 3 16v6l1 2 1 9 3 15 1 1h6l2-2-2-19-2-20-6-40-2-2 1-1 18-3 14-4 12-7 3-2-2 5 13 1z"/><path transform="translate(840,663)" d="m0 0h8l4 5 2 5v13l-3 10-6 8-5 4 2-4 5-6 4-10v-14l-3-7-1-1h-8l-3 2 2-4z"/><path transform="translate(680,664)" d="m0 0 5 5v11l-6 8-4 2h-11l-2-1v-2h8l-2-5 4 1 1 3 5-2 1-4-1-4 4 1z"/><path transform="translate(461,680)" d="m0 0 29 3h58l17-2h5v2l-5 2-37 2-1 60-1 22-5 5-7-1-3-3v-17h2l1 5v13h9v-83l-10-1-1 62h-2l-1-62-25-1-13-1-3 9-1 6h-2l1-16-6-2z"/><path transform="translate(621,682)" d="m0 0h7l3 1v2l-13 1-5 4-3 6-1 8 3 1 1 2h7l-1 3h-6l-3-2 4 11 8 10 6 5 8 3v2l-7-1-10-8-8-11-4-12v-11l4-8 7-5z"/><path transform="translate(763,682)" d="m0 0h9l8 3v3l-9-2-12 1-9 6v-3l10-7z"/><path transform="translate(750,684)" d="m0 0h2l-1 3-7 5-1 3h6l6 7-4-2-7-3h-8l-6 3h-2v-4l-6-3-1-2 6-1v4l10-1 10-6z"/><path transform="translate(566,686)" d="m0 0h2l3 20v6h-2l-3-19z"/><path transform="translate(621,692)" d="m0 0h5l3 5-2 5h-5l-3-3zm1 2-1 5 3 2 2-2-1-5z"/><path transform="translate(633,693)" d="m0 0h6l2 2v6l-3 2-5-1-1-2h6l-1-3-5 1z"/><path transform="translate(426,701)" d="m0 0h6l2 3-5-1-2 2v3h4l1-2h2v4h6l3 3-2 6-3 2-4-1-1-1v-8l-4 1-4-2-1-5zm10 11-1 5 4 1 2-4-1-2z"/><path transform="translate(413,702)" d="m0 0h8l1 7-3 3h-6l-1-1v-8zm2 1-1 5 4 2 1-5z"/><path transform="translate(738,704)" d="m0 0 7 1 1 1v6l-3 3-5-1-3-4zm2 2-2 2 1 4 4 1 1-5z"/><path transform="translate(627,705)" d="m0 0 8 1 6 5 3 7 1 7-6 7h-4l1-3 5-2 1-8-4-6-5-4v-2l-7 2-3 3v-4z"/><path transform="translate(725,707)" d="m0 0h6l3 3-1 5-3 3-6-2v-8zm2 2-1 5 4 1 2-3-2-3z"/><path transform="translate(463,709)" d="m0 0h2l-1 13-3 21-4 20-3 3h-8l-3-3v-3l4 2 1 1h5l3-9 4-26z"/><path transform="translate(835,710)" d="m0 0 3 1v2l6 2 10 6 6 5-3 1-15-9-6-3-24 2 1-4h14z"/><path transform="translate(307,711)" d="m0 0h7l2 1v8l-2 2-6-1-2-2v-7zm2 2-1 3 2 3 4-2-1-4z"/><path transform="translate(748,713)" d="m0 0h6l2 1v7l-3 3-5-2 1-2 4-1-1-4h-5z"/><path transform="translate(623,714)" d="m0 0h1l2 9 7 6v2l-5-2-4-5-2-3v-6z"/><path transform="translate(285,717)" d="m0 0h6l2 2-1 7-1 1h-5l1-3h2v-3l-5 2-1-4z"/><path transform="translate(734,718)" d="m0 0 6 1 6 7 1 2v9l-3 6-6 5-7-2-4-5-1-3v-9h2l1 10 4 5 3 1 5-3 3-7-1-7-3-5-5-2-5 4-1 2-2-1 4-6z"/><path transform="translate(428,719)" d="m0 0 3 1v9l-5 9-4 3h-8l-5-4v-10h3l1 11 8-1 4-4 2-4z"/><path transform="translate(299,723)" d="m0 0h8l6 8v12l-2 5-4 3h-3v-3l4-2 2-4v-8l-3-7-5-1-5 5-1 10-3-1 1-11 3-5z"/><path transform="translate(161,728)" d="m0 0 1 3-8 9-3 6v16l3 7 5 5 9 8 14 9 22 10 36 12 40 10 22 4 19 3 28 4 34 4 59 4 20 1 65 1v2h-80l-36-2-30-3-38-4-33-5-15-3-13-2-30-7-9-3-17-4-18-7-16-6-17-9-8-6-10-9-7-8-3-7v-14l4-8z"/><path transform="translate(861,729)" d="m0 0 5 2 8 9 3 7v14l-4 9-12 13-14 10-22 10-8 3-18 7-10 3-14 3-23 6-14 3-19 3-21 4-32 4-23 2-30 3-14 1h-39v-2l82-5 55-7 16-3 15-2 33-7 10-3 10-2 20-6 27-10 16-8 9-6 9-7 8-8 3-6v-17l-6-10z"/><path transform="translate(811,717)" d="m0 0 1 3-8 11-7 6-21 11-19 4-10 4h-13l-8-4-5-5-19-4-20-4-14-4-11 1-9 3h-8v-2l14-3 6-2h8l22 6 23 4h5v-5h2l5 10 3 3 7 3h12l8-5 4-6 1 2-2 5 14-3 10-4 14-8 11-11z"/></svg>
