<?xml version="1.0" encoding="UTF-8"?>
<svg version="1.1" viewBox="0 0 1024 1024" xmlns="http://www.w3.org/2000/svg"><path transform="translate(186,134)" d="m0 0 4 1v13l-4 12-4 8-13 15-7 7-9 11-2 4v9l8 11 11 11 11 9 7 9 3 7 1 8v13l-3 12-8 11-10 9-8 7-7 7-4 7 1 5 4 6 10 11 10 7 7 3 7 2v19l-4 1-13-5-10-7-3-3 1-2 11 8 11 5h4v-14l-13-5-13-10-7-8-6-11v10l3 11 6 9 2 4-6-4-6-12-2-9v-19l2-9 5-10 12-12 8-7 9-8 2-3v-6l-2-4 6 4v-11l-5-10-8-8-11-9-9-9-6-10-1-5h-2l2 15 2 7h-3l-3-12v-20l3-12 6-12 8-8v3l-8 10-5 13v9l1 1 2-5h2l2-5 15-16 9-11 5-9 3-10 1-10h-2l-2 7-9 10v-3l8-11zm2 141-8 11-10 9-8 7-8 8-4 6-1 6v7l2 3 7-9 9-9 11-9 7-8 4-8 1-6v-8z"/><path transform="translate(304,134)" d="m0 0 2 2-15 14-6 5-7 10-2 3-1-4h-2l3 16 4 7 8 8 10 8 9 9 2 1v-7l-4-9-11-11h3l10 10v2h2l2 6v26l-5 9-10 10-8 7-5 6 2 4 4 5 8 5 13 5 1 1v16l-2 1-11-4-11-7-7-7-3-6-1-23 4-9 8-7 4-5 5-3 7-8 1-1v-5l-5-6-11-9-12-11-5-11-1-6v-10l2-11 6-10 6-5 2 1-9 10-3 8v8l5-5 5-6 8-7zm4 84-12 13-8 7-8 9-2 8 2 4 4-2 8-8 8-7 7-8 3-6v-10zm-30 45v9l4 8 4 5 11 7 5 3 7 1 1-1v-11l-9-4-10-6-6-5-5-6z"/><path transform="translate(436,134)" d="m0 0 2 1-11 12-8 9-3 6 1 5 9 10 14 12 7 8 3 8v20l-2 7-9 11-12 12-3 6 1 7 3 5v2l4 2 10 10v14l-2 1-9-6-7-8-4-8-2-8v-18l3-10 6-9 6-6h2l2-4 4-5 3-2v-5l-7-8-11-9-8-7-3-4 1-3 9 10 11 9 7 6 5 5-1-10-4-6-7-7v-2l-4-2-16-14-2-3v12l-2-2-1-3v-24l2-5 2 2-1 4v7l6-9 5-5zm11 82-11 13-10 10-5 11v8l3-1 6-8 12-12 6-9 1-4v-8zm-27 49v7l3 10 6 9 9 8h2v-12l-12-11-6-10z"/><path transform="translate(556,134)" d="m0 0h2l-2 4-9 10-5 7-1-3 7-9z"/><path transform="translate(860,134)" d="m0 0h3v17l-4 11-9 14-11 12-9 10-4 7 2 6 9 10 10 10h-3l-16-16-5-8v-2h-2l2 15 4 9 4 6 23 23 8 11 1-1v-7l-2-9-7-11-4-4 1-2 6 6v2h2l5 10 3 14v17l-3 13-3 7-5 8-5 5-4 5h-2l2-4 9-11 6-11 3-20h-2l-1 6-4 6-6 7-1-2 6-8 4-7-1-7-6-8-9-10-17-17-6-10-3-11v-20l3-10 10-14 7-7 7-8 9-13zm0 4-9 15-11 12-7 8-6 7-4 8-1 3v8l1 3 3-1 6-8 18-20 9-15 3-12v-8z"/><path transform="translate(575,135)" d="m0 0 2 1-7 8-13 12-10 11-4 7 1 5 8 10 13 11 11 9 7 8 4 8v23h-1v-10h-2l-2 4-12 12-2-1 12-12-1-6-12-12-13-10-10-10-5-10-2-7v-21l3-10 1 4v11l4-5 12-13 17-16zm-36 40v10l2 9 6 9 11 11 14 11 11 11 2-3v-9l-6-9-9-9-8-7-13-11-4-5h-2l-2-7z"/><path transform="translate(758,135)" d="m0 0 2 2 6 12 13 13h-3l-14-14-3-6z"/><path transform="translate(770,135)" d="m0 0 4 2 16 16 5 7 3 10v24l-7 14-21 21-3 4 2 5 4 5 13 9 10 3 1 1v19l-8-1-10-5-9-7-6-7-4-8-1-6v-14l3-10 4-6 9-10 10-9 7-9-1-5-7-8-5-6h3l7 7 4 5v2h2v-8l-3-10-9-11-13-12zm24 48-6 9-8 8-8 7-8 10-2 4 1 9h4l10-11 5-5 8-7 4-7 2-7v-10zm-33 49v9l2 9 2 4h2l2 4 6 7 14 7 5 1 1-1v-14l-10-5-9-5-6-5-7-11z"/><path transform="translate(367,156)" d="m0 0h13l11 4 6 4 5 4 6 10 4 10 1 11-3 14-7 14-9 10-6 5-2-1 5-5 8-7 8-16 2-6 1-10-2-12-7-14-8-7-14-5h-13l-12 4-9 7-6 7-5 11-2 11v11l2 12-2 1-2-6-1-7v-11l4-16 4-8 12-12 13-6z"/><path transform="translate(277,168)" d="m0 0 7 6 4 4v2l4 2 2 3-4-2-10-9-3-4z"/><path transform="translate(359,170)" d="m0 0 2 1v4l-8 7-2 3h-2l-2 7-3 3-4-2-1-1v-6l6-10 2-1-2 5-3 6v6h2l5-9 4-5 5-4z"/><path transform="translate(333,223)" d="m0 0 2 2 5 9 6 7 9 5 3 1h12l11-4 5-1-5 4-10 4-9 1-1 2 1 7-4 1h-2l-1 4v17l3 12-1 3-4-10-1-4v-19l1-4-7-3 2-4 3-3-1-3-8-6-7-10-2-5zm23 26 1 2zm-4 3-3 3 8 4 3-1-1-5z"/><path transform="translate(150,235)" d="m0 0 4 4 7 8 17 16 1 2-4-2-15-14-7-7-3-5z"/><path transform="translate(585,248)" d="m0 0 2 3-5 10-8 9-11 9-10 9-3 4 1 4 5 5 9 8 8 6 7 7 4 8 1 6v14l-3 10-6 9-10 9-3 2h-3v-19l10-8 7-8-1-4-4-5-7-5v-2l-4-2-7-6h3l17 14 4 4h2l1-8-4-8-9-9-11-8-10-10-1-4h-2l2 15 4 6 3 4-1 2-8-9-2-7v-20l3-7 6-8 9-9 6-5 2 1-4 5-8 7-9 10-1 3v10l3-1 7-8 13-11 9-8 5-8zm-4 94-4 6-8 9-7 5v15l4-2 8-7 6-8 2-4 1-14z"/><path transform="translate(659,263)" d="m0 0h12l11 3 10 7 7 10 3 10 1 6v9l-3 15-7 13-7 8-11 7-12 5 1 9-6 1v12l8 25 1 5v19l-4 13h-2l3-14v-18l-5-17-4-13v-13l-7-3 3-5 1-3-11-6-8-9-6-13-2-6-1-7v-11l3-12 8-13 7-7 8-5zm-3 2-12 6-9 8-6 12-3 12v10l2 10 5 12 6 8 9 7 5 2 10 1 11-4 10-6 7-8 6-10 4-11 1-14-3-12-6-10-4-5-10-6-5-2zm0 89 2 2v-2zm-2 3-2 2v3l8 1 1-4-2-2z"/><path transform="translate(649,274)" d="m0 0 7 1 1 6-6 5-5 2-5-5 1-4 4-4zm-1 2-4 3v5l5 1 6-5-2-4z"/><path transform="translate(637,286)" d="m0 0h5l2 3-1 7-3 10-1 1h-5l-2-2v-10l3-7zm1 2-3 3-2 6v6l4 2 2-2 3-10-1-5z"/><path transform="translate(850,295)" d="m0 0v3l-9 9-10 14-2 5-1 13 5-5 10-11v3l-8 9-6 12h-2v-22l2-6 8-11 8-9z"/><path transform="translate(358,297)" d="m0 0 3 3 8 20v27l-1 3h-2l1-7v-18l-4-14-6-12z"/><path transform="translate(767,341)" d="m0 0h6l4 6 6-6h5l5 6-5 6-2 2 10-1 3 2v7l-2 2-13 1-6 1 4 21 1 11 9 46 3 20 1 3 11 1 8 6 1 2-10-5h-13l-7 2-15 1-16-2-11-2-13-5-17-9-6-7-4 2-10 9-8 10-7 14-6 18-6 16-3 4 19-1 11-3 5-4 3-6 1 3-4 6-8 5-8 2-19 2-10 4-5 5-4 6-1 6v15l6 12 5 4 5 6 15 9 13 5 16 4 7 1h29l21-4 16-5 14-7 10-7 5-5 1-8-6-4-7-9-5-14-2-12v-26l2-14h2l-1 14v27l4 18 6 11 6 5 6 2 8-1 9-4 10-8 8-9 4-7 4-9v-11l-6-9-14-12-8-7v-2l4 2 10 9 11 9 5 7 1 3v12l-8 16-11 12-9 7-13 5h-7v8l3 3 1 8 10 19 4 9 6 16 4 10 7 27 2 12v30l-1 4 6-3 5-7 3-10 3-13 4-5 8-1 4 2 4 7 1 5v9l-3 11-4 7-7 8-5 2 1 3 17 9 8 7h-3l-14-9-10-5-9 1-4 1h-12l-2 5-6 8-8 8-14 8-8 4-14 4-12 2-8 4h-12l-8-3-5-4-3-4-30-5-14-3-15-5-9 1-13 5h-15l-10-6-8-8-5-9-5-14v-9l5-10 8-5 8-1 13 4-3-15-10-1h-10l-11 5-27 6 2 18 8 58 1 11-5 5h-7l-4-4-6-36-2-16-4-27v-6l-23 2h-20v26l-1 63-2 5-4 2-7-1-3-3v-20h2l1 20 2 1h8l1-70v-22l-13-1v70h-2v-70h-21l-23-2-2 7-3 19-2 18-7 41-3 4h-8l-4-3v-13l7-47 4-29-15-4h-5l-2 11v4l8 5 3 3 1 6-3-4-5-5-4-2h-11l-11 6-9 12-3 10-2 12h-2v-7l3-12 6-11 8-8 10-5 7-1 3-11v-5l-10-4-9-6-5-6v-20l4-6 6-4 17-7 16-4 15-2 5-1-1-4v-12l3-8 5-6 4-7 2-1 7 3 9-3 5-6 5 2 3 3 7-1 6-5 4 2 5 4h6l5-4 4 2 5 4 10 1 6-2 1 4h2l1 5h2l-1-10-4-2v-23l7-1 30 1v-2l-9-3-8-7v-7l2-1v6l7 6 12 6h3l1-4-4-2-8-7-2-4 1-4 1-1 7 1 7 8-1-3-5-8-4-3h-5l-6 5v-3l6-5 7 1 6 5 7 13h8l6-9 7-6 8-3 4-5 11-7 6-10h-2l-7 5-7 2h-9l-6-4-3-4-4-12-1-5v-20l3-7 4-6 11-5 30-10 15-6h9l7 4 5-2v3h-2l2 5 9 7 10 5 8 3v-6l4-6 6-3 7 1 5 5 2 7-2 7 15 1 13-1 4-2-1-5-10-1-5-5-1-2v-7l4-6 3-2h5l-5-26-9-2-3-5v-8l5-6 3-2-1-12-5 3h-7l-4-1-5 6 1 4v3l-1-2-5 1-3 2 2-4 20-26-2-9-4-9v-5zm0 2 1 7 4 10h2l1-4v-8l-2-5zm17 0-5 6-2 6v7l4-4 7-8 2-2-1-4zm6 13-5 2-4 4v2l15-1 1-1v-5l-1-1zm-17 11-9 11 1 3h9l3-4-1-9zm5 28-5 5v8l5 5 5-1-1-13-2-4zm-86 48-14 5-31 11-9 3-6 6-2 7v20l3 13 4 6 5 4h11l10-6 6-5 7-18 6-15 8-11 7-8 9-7-4-4-3-1zm95-1-7 3-2 3v8l5 5h8l1-1-1-10-2-7zm-39 11-5 4-2 3v7l7 3 9 2 3-4 1-6-3-6-5-3zm-108 86-7 5-4 6 1 2 9-6 4-2 1-5zm-41 5-1 4 9 9 4 2 1-4-4-6-6-5zm38 4-7 6-2 5 3 2 9-7 1-1v-5zm-9 4m-12 4-4 4-1 5 1 1 14 1 4-1 7-1 5-3-1-5-5 2-8 4-3-6-2-1zm24 9v2l3-1zm-72 2-1 1v18l2 2h34l1-1v-18l-1-1zm39 1-1 1v19l3 1h16l1-1v-18l-4-2zm22 1-1 1v18l1 1 33 1-1-3-8-7-7-8-2-3zm178 9-9 8-12 7-15 6-19 5-12 2h-29l-16-3-20-7-7-4-4 2 1 6 9 6 13 5 17 5 12 2h30l20-4 19-7 16-10 10-10v-7zm-289 10-3 4 1 5 1 1h5l2-2-1-7zm-20 1-3 3v5l3 2 5-1 2-4-5-5zm313 0-10 9-14 9-18 7-16 4-20 2-17-1-16-3-16-5-12-5-6-4-3 1-7 19-4 20v18l4 18 7 13 6 8 1 1-5-5-6-8-3-7-4-15-3 1v24l2 13 5 6 6 8 4 9v2l-7-14-8-9-6-4-4-1h-13l-6 4-5 10v7h3l2-3 6 1 1 6-2 2h-5l-2-3h-2l3 11 7 10 8 8 11 5 10-1 18-6 9 1 18 6 31 5h4l-1-9v-19l3-10 6-8 3-3v-2l-8-3-5-5-3-8 1-8 2-2-2 5v5l2 1 5-3-4 4-1 4 5 5h4l4-4-2 4-1 3 8 1 7-3 9-6 7-7 7-10 6-13 3-10 1 1-4 12-10 18-9 10-8 6v2h7l10 9 4 9 2 7v14l-4 15-3 4v2l14-3 13-5 13-7 10-9 7-8 5-10 4-13 1-5v-30l-4-20-3-14-10-26-4-10-10-20zm-273 1-3 3v5l7 1 2-1-1-7zm35 0-1 1v14l2 6v19l5 2 15 2h6v-43l-1-1zm30 0-1 1v44l10 4 9 2 1-2v-46l-1-2zm21 1-1 1v50l6 4h20l2-3 3-15 4-16 5-11-1-9-3-1zm-117 3-3 5-7 1-4-4-8 1-2 7-2 2-7-1-3-2-5 6-1 5v12l3 4 3-1 4-7-1 3-3 5-3 2 1 3 18 6 22 3h23l20-3 13-4 7-4-1-4-4-4-2-3h-2l-2 10-1 2h-5l-3-5-2-4-4 1-3 6v2h-6l-5-4-2-3-5 1-5 10-5 1-4-3-4-9-2-2-4 1-5 9-2 1h-6l-4-4v-3l4 6h6l5-8 3-3 5 1 3 5 3 6 2 2 4-1 3-4 3-7h6l5 7h5l4-9h5l5 9 5-1 2-10v-2h5l2 6 4 1 1-1v-14l-3-6-4-3-5 3-5-1-2-3-1-5-7-1-4 4h-6l-3-2-2-4h-6v3l-3 1h-9l-2-4zm-30 1-4 4 1 4 2 2h5l3-3-2-5zm84 0-5 4 1 4 3 2 4-1 1-1v-6zm-100 37-21 4-19 6-9 4-8 6-2 5 1 5 7 6 10 5 18 6 32 5 22 2h55l29-3 16-3 13-2 17-6 11-7 3-5v-6l-5-6-7-4-18-6-22-5-9-1-1 1v10l12 6 4 4v6l-8 7-23 6-23 3h-33l-23-3-16-4-10-4-5-5v-6l4-4 10-4 3-2v-10zm8 4-1 1v6l9 4 10 3 10 2 10 1h28l18-3 16-5 3-2v-6l-2-1-13 5-10 2-14 1h-25l-21-2-16-5zm-5 9-12 6-3 4 1 4 8 6 13 4 14 3 19 2h30l24-3 21-5 8-5 2-3v-5l-5-4-6-3h-4l-2 9-8 5-15 4-17 2h-24l-23-3-18-6-1-11zm4 1v9l8 4 14 4 17 2h26l20-3 14-4 4-3v-9l-5 1-13 4-17 3h-30l-19-3-16-5zm166 2 2 5 1 1v20l-2 4-3 2v2l6 1h8l1-1 2-26v-7l-1-1zm-232 17 1 10 12 9 16 6 30 6 30 3h57l27-3 23-4 17-4 14-7 5-4 2-3v-8l-5 2-16 8-32 7-22 3-13 1h-57l-29-3-25-5-15-4-12-6-5-4zm466 13-4 5-2 7-2 13-5 9-11 8-3 9v3h10l12-4 8-6 4-5 5-10 2-7v-10l-3-8-3-4zm-417 18-2 3-2 20-7 46-2 17 4 4h6l2-2 11-66 1-12 1-7-2-2zm132 0-11 2 4 31 9 55 2 2h6l4-4-3-25-6-42-2-18zm174 16-8 3-7 7-5 10-1 5v17l4 10 6 7 9 4h12l8-4 6-9 2-7 1-4v-14l-3-11-4-6-7-6-7-2zm-135 7-2 3 3 4 4-1 1-4-3-2z"/><path transform="translate(455,346)" d="m0 0h13l11 4 9 6 7 8 5 10 3 10v16l-3 12-4 7-1-3 4-11 1-5v-16l-3-10-5-10-8-8-12-6-4-1h-12l-11 4-9 7-8 13-2 9v12l4 13 4 8v2h2l4 6-1 2-6-7-6-10-3-13v-15l3-11 7-11 9-7z"/><path transform="translate(475,358)" d="m0 0h5l5 4 2 3-1 5-2 2-5-1-7-4 1-2 7 4 4-1-1-5-4-2-7 1 1-3z"/><path transform="translate(281,364)" d="m0 0 3 1 4 9 4-5 7-1 4 4-1 5-3 3h-2l-2 4-5 8 7 11 6 9v2h2l22 33 7 9 7 11 6 9 4-2 13-10 5-3 3 1-11 8-9 7v2l9 4 4-2 7-7 12-7h8l3 6 1 4v18l-3 15-2 3-6-7-5-5-11-10-12-7-7-3-4 1-13 8-11 4-21 4-19 1-18-3-8-1-8 6-13 13-15 21-1-2 1-5-6-21-1-16 3-7 2-1 9 1 13 7 7 5 4-1 6-4v-2l-17-10-14-6v-1l8 1 12 6 12 7 3-9 3-11 1 4-2 11-2 7v4l5 2 22 2 17-1-3-6 1-8 6-7 4-2h7l6 4 4 5 1 6 12-6 2-3-1-4h-2l-7-11-9 1-6-3-3-5v-8l3-4v-4l-4-4-4-6-5 2h-6l-6-4-3-5 1-8 5-6-4-6-2-1-2 5-3 3-7 2-2 7-2-3 5-19v-3l-10-4-9-2-2-2 1-7 2-2h7l7 4 1-4 5 9v2l2-1v-9l-2-9zm14 5-5 6-3 9 1 5 4-4 7-8 2-2-1-4-2-2zm-32 10-1 6 9 3 8 3 3-1-8-9-3-2zm22 13-3 9-1 7 4 1 5-5v-7zm13 20-3 4-1 6 3 6 4 2h6l3-2-1-4-8-12zm23 33-2 4v7l4 5 7 1 3-1-1-4-8-12zm64 24-8 4-12 10 1 4 13 11 10 10 3-1 2-12v-17l-3-9zm-72 5-6 4-3 6 1 8 2 3 8-1 12-4 2-2-1-7-5-5-3-2zm-95 11-2 2-1 4 1 16 2 10 3 9 4-1 8-11 9-10 4-4-2-4-16-10-3-1z"/><path transform="translate(487,370)" d="m0 0 4 1 4 6 1 10-2 4h-7l-4-16 2-4zm0 2-2 2 2 9 2 6 3 1 3-3-2-10-4-5z"/><path transform="translate(758,395)" d="m0 0h1v9l-5 5-7 1-6-2-11 14-1 3 6 4 1 2v10l-4 5-5 2-7-1-4-3v-2l-4 1 2-5 13-16 13-17 8-9v3l-4 6 3 2 6-1 4-4zm-31 31-9 10-2 4 5 5 6 1 6-4 2-5-1-6-6-5z"/><path transform="translate(276,419)" d="m0 0 4 5 2 4v8l-4 5-5 2-5 16-2 7h-1v-7zm0 7-3 11v3l5-2 2-2v-8l-1-2z"/><path transform="translate(757,419)" d="m0 0 8 1 5 5 1 3v6l-3 5-6 3-7-1-5-4-2-4 1-7 4-5zm1 2-5 3-3 4 1 8 6 4 7-1 5-4v-8l-5-5z"/><path transform="translate(494,419)" d="m0 0 1 3-10 11-10 6 3 5 1 4-5 1-2 2v26l6 15 5 11 4 15v17l-2 6-2-1 1-5v-17l-2-10-6-14-4-9-3-11-1-12 1-11-6-2 1-9-5-2-7-2-10-8-2-3 5 2 6 5 9 4h14l8-4 8-7zm-25 19v2l3-1zm-1 4-3 5 4 1 7-2-2-4z"/><path transform="translate(293,442)" d="m0 0h6l6 4 3 4v9l-8 7h-8l-5-3-2-4v-10l4-5zm0 2-5 4-1 2v9l5 5h8l4-2 2-4v-8l-5-5-2-1z"/><path transform="translate(390,452)" d="m0 0h8l4 4 2 8v5l-2-4-4-9-1-1-10 1-13 5-2-1 11-6z"/><path transform="translate(276,468)" d="m0 0 6 1 5 4 1 7-2-3-1-3-5-3-7 1-4 6-1-4 4-4z"/><path transform="translate(209,469)" d="m0 0h9l8 2-4 1h-13l-3 6-1 4v26l4 20 4 11 3 1 2-5 1 3-10 19-2-2 5-10-5-15-4-16-1-7v-24l3-11z"/><path transform="translate(404,469)" d="m0 0h1l1 6v26l-2 12h-1v-43z"/><path transform="translate(268,479)" d="m0 0 2 1 1 3 3 2h8l5-5 1 2-4 5-5 2-5-1-5-4z"/><path transform="translate(680,499)" d="m0 0h9l5 6v7l-3 5-4 2-9-1-3-4-1-7 4-6zm7 5-1 5 5 1v-5z"/><path transform="translate(392,513)" d="m0 0 3 2v2h2l4 4 1-8h1v14l9 17 4 12 8-1-3 3-3 1 1 5 3 10 6 1-4 2 1 9 1 8 1 4-2 2-3-3-33-10-4-1v-2l17 4 17 5 5 1-4-17h-15l2-2h12l-4-14-9 3-15 6-7 3 1-3 13-6 16-6-7-18-8-15-7-10z"/><path transform="translate(739,514)" d="m0 0 6 1 5 5v9l-4 5-2 1h-8l-6-6v-8l3-5zm4 5-2 2 1 4 4 1 2-4-3-3z"/><path transform="translate(666,530)" d="m0 0h18l12 6 6 7-1 7-7 7-5 3-4 1h-8l2 10 4 4h14l-1 2-3 1h-9l-6-4-3-5-7 4-6-1-5-4-1-6 4 5 5 3 5-1 3-3 1-6-6-4-4-5-3-7v-7l3-5zm3 1-5 4-1 2v7l4 8 7 6 2 1h8l8-3 7-6 1-7-8-7-8-4-4-1z"/><path transform="translate(364,542)" d="m0 0 8 1 6 7v7l-4 6-1 1h-11l-5-5-1-2v-8l4-5zm-3 5-2 4 2 2 5-1-1-4z"/><path transform="translate(290,552)" d="m0 0h9l5 5 1 9-4 6-4 2h-6l-6-5-2-7 3-7zm-1 4-2 5 2 2 4-1-1-5z"/><path transform="translate(206,559)" d="m0 0 2 2-8 20-5 16-7 26-3 15h-1l1-14 7-27 4-13 5-14z"/><path transform="translate(335,565)" d="m0 0h11l4 3-1 6-5 7-2 1 1 6 3 2h6l4-4 2-3-1 7-4 3h-7l-6-4-6 6h-8l-5-4-1-5h2l2 5 2 1h8l3-4v-5l-10-8v-6l5-3zm0 2-6 3 1 6 8 5 5-2 3-3 2-7-3-2z"/><path transform="translate(246,576)" d="m0 0 16 2 25 5-1 2-30-5-11-2z"/><path transform="translate(390,576)" d="m0 0h13l1 2-19 1v-2z"/><path transform="translate(284,589)" d="m0 0 3 1-3 2-37 6-4-1 4-2z"/><path transform="translate(287,596)" d="m0 0h2v2l-17 9-20 10 1-3 9-5 17-9z"/><path transform="translate(426,600)" d="m0 0h1l3 21v14h-2l-2-22z"/><path transform="translate(183,638)" d="m0 0 2 4-2 18v33l3 21 3 10 7 14-1 2-5-7-4-10-6 1-18 7-17 9-10 7-2-1 10-8 28-14 9-3 4-2-1-8-2-9-1-9v-33z"/><path transform="translate(683,643)" d="m0 0h2l3 17 5 13 7 11v10l-4 7-7 4-9 1-7-3 4-1h8l-4-5h3l3 3v2l7-3 1-4-4-4v-2l4 2 3 2-2-11-2-5h-2l-5-11-3-10z"/><path transform="translate(757,647)" d="m0 0 2 1-3 10-5 10-6 9-8 7v-3l8-8 8-15z"/><path transform="translate(280,658)" d="m0 0h2l7 16 8 10 11 11 3 6v9l-6 9-5 3 1 5 5 12 1 6v11l-3 10-3 7 21-2 17-1 25-5 19-6h7l8 7 2 1h11l10-6 7-7 7-11 2-2-1 6-8 11-9 8-8 4h-11l-7-4-5-5-5 1-18 6-9 2-33 4-25 2-8 5-4 1h-11l-13-5-27-7-12-5-12-7-10-9 1-2 10 9 15 8 13 5 23 5v-2h-2l-5-11-2-10v-8l3-12 6-10 7-5-5-5-6-5-3-1h-11l-8 3 1-3 7-3 11-1 1-2 5 5 6 7 12 8 6 2h11l-1-3-4-4 5 1 2 2 5-1 3-5-6-5v-2l5 2 3 2-2-9-7-8-7-7-7-11-6-12zm-9 60-7 5-7 14-1 13 2 10 4 9 5 7 8 4h11l8-4 5-4 5-12 1-4v-10l-3-13-3-6-3-3-11-1-10-5z"/><path transform="translate(789,697)" d="m0 0 9 1 8 4-3 1-5-2-9-1-10 2-9 8v-3l5-5 8-4z"/><path transform="translate(630,708)" d="m0 0h6l3 5-2 5-5 1-4-4 1-6zm0 2 1 7 5-1v-5l-1-1z"/><path transform="translate(644,709)" d="m0 0h5l3 3v5l-3 3-5-1-2-3v-6zm0 2-1 5 5 2 2-2-1-4z"/><path transform="translate(420,717)" d="m0 0h5l2 3v6l-3 3-6-1-2-3 1-5zm1 2-3 3 2 5 5-1 1-5-2-2z"/><path transform="translate(405,718)" d="m0 0h6l3 3-1 6-2 2h-6l-2-2v-6zm1 2-1 1v5l5 1 2-2-1-4z"/><path transform="translate(759,721)" d="m0 0 5 1 2 2v6l-3 3-5-1-3-4 2-6zm0 2-1 1v6l4 1 2-2v-5z"/><path transform="translate(638,722)" d="m0 0 7 1 7 6 4 10-1 7-6 5-7-1-6-4-4-8v-11l4-4zm-1 2-4 5 1 10 6 8 5 2 5-1 3-2 1-8-4-8-7-6z"/><path transform="translate(744,724)" d="m0 0h6l3 4-1 5-4 3-4-2-2-2 1-7zm2 1-2 2 1 5 3 2 3-3-1-4z"/><path transform="translate(278,725)" d="m0 0 6 1 2 3v5l-4 3h-5l-2-2v-7zm0 2-2 3 1 4 2 2 4-1 1-5-2-3z"/><path transform="translate(429,727)" d="m0 0 5 1 3 4-2 5-3 2-5-1-1-1v-8zm1 2-3 3 1 4 4 1 3-2-1-5z"/><path transform="translate(291,728)" d="m0 0h5l3 3v6l-3 3-6-1-2-2v-6zm1 2-2 2 1 5 4 1 3-5-3-3z"/><path transform="translate(770,730)" d="m0 0 5 1 2 2v6l-4 3-4-1-2-3 1-6zm0 2-1 1v6h5l1-5-2-2z"/><path transform="translate(265,735)" d="m0 0h6l3 3-1 7-1 1h-5l-1-2 5-1v-5l-4-1-2 6-2-4z"/><path transform="translate(421,736)" d="m0 0 3 3v8l-5 10-6 4h-8l-4-4-1-3v-7l2-3 1 3v8l2 3h8l5-5 3-6z"/><path transform="translate(754,736)" d="m0 0 6 1 5 6 2 7-1 9-4 6-4 3-7-1-4-5-2-6 1-11 3-6zm1 2-5 3-3 5v12l3 5 4 3 5-1 5-6 1-8-3-9-5-4z"/><path transform="translate(282,741)" d="m0 0h6l7 8 1 4v8l-3 8-5 3-4-1 6-3 3-7v-8l-3-7-3-2-6 1-4 6v7l-1 5-2-4 1-10 4-6z"/><path transform="translate(131,747)" d="m0 0 2 1-11 12-4 9v12l4 10 11 12 15 10 15 8 20 8 20 7 14 4 39 10 23 4 40 7 46 5 29 3 47 3 27 1 91 1v1h-92l-43-1-40-3-52-6-31-4-32-6-34-7-27-8-9-2-23-9-13-5-22-12-13-11-6-7-3-3-3-7-1-3v-12l4-9 11-12z"/><path transform="translate(891,747)" d="m0 0 4 2 10 11 4 10v12l-4 9-7 8-7 7-12 9-16 8-11 5-16 6-14 5-19 5-23 6-51 10-11 2-77 9-41 3h-41v-1l43-2 49-4 33-4 21-2 40-7 32-6 30-8 18-5 29-11 19-9 11-7 9-7 7-7 6-12v-13l-5-10-10-11z"/></svg>
