<?xml version="1.0" encoding="UTF-8"?>
<svg version="1.1" viewBox="0 0 1024 1024" xmlns="http://www.w3.org/2000/svg"><path transform="translate(453,241)" d="m0 0h12l12 2 8 4 9 7 7 7 6 10 10-3h11l12 5 6 5 6 10 1 6 1 8h13l8 3 9 8 3 8v7l-5 10-6 5-4 2h-188l-10-6-6-9-1-12 2-9 6-8 12-6 5-1h11l3-16 8-15 8-9 11-7 11-5zm2 5-12 3-14 7-12 12-3 6-4 14-1 12-15-1-10 3-4 2-3 4v2h-2l-2 4-1 8 3 9 4 5 9 4h181l6-3 5-6 1-9-4-8-5-4-6-2h-11l-5 1-1-1-1-13-3-8-7-9-11-4h-11l-13 5-3-9-7-10-9-7-12-5-10-2z"/><path transform="translate(732,317)" d="m0 0h16l18 6 10 8 9 10 5 8 2 5v3l10-3h15l11 4 9 8 4 8 2 7v9l-4 12-8 9-5 3-7 2h-168l-8-4-5-8v-11l6-8 5-4 5-2 3-10 6-8 6-4 6-2h14l4 1 2-10 8-13 10-9 14-6zm3 5-9 2-10 5-10 9-5 9-2 7-1 8-3 1-8-3h-9l-10 4-6 8-3 13-10 3-5 5v11l4 5 4 2h165l10-4 5-5 4-6 2-7v-7l-3-9-8-9-12-5h-11l-11 4-4 1-3-8-5-11-8-10-11-7-8-4-12-2z"/><path transform="translate(255,376)" d="m0 0h13l15 4 11 8 7 8 5 9 1 4 8-2h7l10 3 8 6 6 9 2 13 8 3 7 8 2 6-1 9-5 8-8 4h-161l-8-4-7-8-2-5v-14l5-8 5-5h2v-2l8-3h15l1-10 4-11 8-13 9-7 8-5 12-4zm2 5-12 3-15 9-8 9-6 12-2 10-1 10-6-1h-13l-8 4-6 7-2 6 1 9 6 8 4 3 3 1h157l7-4 3-7-1-8-5-6-10-3-1-5-1-10-6-8-7-6-10-1-15 3-4-13-6-8-8-7-13-6-6-1z"/><path transform="translate(509,410)" d="m0 0h22l30 4 16 5 20 8 17 9 19 14 10 9 13 13 11 15 7 10 8 16 7 16 6 22 3 20 1 14 18 3 16 6 22 10 14 5 19 2 16-1 11-2 12-4 20-10h4v5l-21 11-10 3-15 4-7 1h-14l-16-3-21-7-19-9-20-6-7-1h-13l-11 2-18 6-15 8-24 8-12 2h-16l-16-3-21-7-16-8-18-6-11-2h-15l-14 3-16 6-15 8-10 3-8 3-17 3h-13l-17-3-16-5-12-5-12-6-20-6-7-1h-13l-16 3-15 6-17 9-13 4-12 3-7 1h-15l-15-3-1-5 27 1 21-3 13-5 28-13 10-3 9-1h21l14 3 4 1 2-27 2-14 5-18 9-22 11-19 14-18 10-11 8-7 7-6 12-9 23-13 27-10 7-2 20-3zm3 5-18 2-22 5-21 7-16 8-9 6-14 10-14 12-12 13-10 14v2h-2l-6 10-10 21-8 28-3 22v18l5 3 22 10 12 4 9 1h26l12-2 16-6 16-8 11-5 7-2 9-1h20l11 1 19 7 15 7 15 6 7 2 17 2 18-1 11-2 15-6 23-11 12-4 16-2 1-1v-12l-3-24-8-24-5-12-12-21-12-16-13-14-11-9-14-10-16-9-17-8-25-7-17-3-12-1z"/><path transform="translate(298,636)" d="m0 0h16l15 3 19 7 16 8 20 6 11 2h16l18-4 15-5 17-9 17-6 11-2h16l15 3 17 6 21 10 22 6 7 1h14l16-3 12-4 16-7 6-4 22-7 7-1h17l18 4 15 6 16 8 20 6 12 2h14l15-3 16-5 19-10 7-1 1 4-19 10-19 8-8 2-10 1h-18l-11-1-16-5-21-9-10-5-10-3-15-2h-10l-19 3-16 8-16 7-18 6-11 1h-18l-15-2-19-7-26-12-14-3-9-1h-10l-15 2-13 5-16 8-21 8-14 2h-20l-14-2-10-3-11-5-10-4-10-5-11-4-16-2h-11l-15 2-12 5-17 8-12 5-12 4-10 1h-19l-8-1-1-5 4-1 7 1h14l16-3 19-7 23-11 14-4z"/><path transform="translate(290,687)" d="m0 0h21l19 4 29 13 17 6 10 2h23l16-4 20-8 15-8 15-4 6-1h21l18 4 12 5 23 10 17 5 6 1h21l17-4 12-5 16-8 12-5 15-3h22l16 3 17 7 7 4 16 6 14 4 6 1h21l13-3 14-5 24-12 5 1-1 4-15 8-14 7-23 6h-25l-14-3-12-3-22-10-15-6-14-3h-17l-17 4-24 11-10 5-21 5-15 1-17-2-18-5-12-5-13-6-17-6-10-2h-17l-16 4-12 5-23 11-22 5-14 1-17-2-19-5-26-12-15-5-11-2h-16l-16 4-15 6-11 6-9 4-21 5h-24l-2-2 1-4h22l14-3 12-4 9-4 17-9 16-4z"/><path transform="translate(284,746)" d="m0 0h25l15 3 10 4 13 6 17 7 10 3 12 1h16l14-2 14-5 16-7 12-6 12-3 6-1h23l16 3 18 8 25 10 8 2 12 1h15l14-2 15-5 7-4 10-4 10-5 12-3 5-1h25l15 3 12 5 23 10 16 5 12 1h16l14-2 18-7 22-11 5 1-1 4-19 10-11 5-21 6-8 1h-16l-17-3-21-7-14-7-17-6-10-2h-21l-12 3-19 8-17 8-11 3-17 3h-15l-16-3-15-4-24-11-19-6-6-1h-19l-16 4-18 8-15 7-11 3-16 3h-17l-20-4-15-5-16-8-18-6-9-2h-20l-16 4-15 6-16 8-22 6-9 1h-13l-2-2 1-4 26-2 16-5 32-15z"/></svg>
