<?xml version="1.0" encoding="UTF-8"?>
<svg version="1.1" viewBox="0 0 1024 1024" xmlns="http://www.w3.org/2000/svg"><path transform="translate(452,263)" d="m0 0h20l12 3 11 7 7 7 4 7v2l6-1h18l10 5 3 3v2h2l5 10 2 10 13 1 8 5 5 4 3 6v10l-6 9-6 5h-176l-8-5-6-9v-13l2-7 6-7 12-6 12-1 3-12 2-6 7-11 8-8 13-8zm6 4-14 5-9 5-11 11-5 13-3 15h-14l-11 4-7 9-1 9 4 9 6 5 4 2h168l8-6 2-3 1-8-5-8-6-4-3-1h-15l-2-14-6-10-4-4-7-3h-13l-11 4-4-10-9-10-10-6-13-4z"/><path transform="translate(711,333)" d="m0 0h20l14 4 11 9 11 13 3 7v3l7-2h18l8 3 8 7 5 9 1 5v10l-4 11-9 9-8 3h-157l-7-4-4-6v-12l7-9 7-4 3-9 6-8 8-4 19-1 2-8 7-11 9-9 11-5zm4 4-11 4-9 6-6 7-4 8-3 12-5-1-3-1h-10l-10 5-4 5-4 13-9 4-4 4v9l5 6 2 1h154l9-5 7-8 2-5v-9l-4-10-7-7-9-4h-12l-11 4h-2l-5-12-6-10-8-7-12-7-10-2z"/><path transform="translate(273,387)" d="m0 0h16l14 4 9 7 1 3 4 2 5 8 2 5 4-1h11l8 3 10 9 3 7 2 9 8 4 6 8 1 9-2 6-6 7-4 2h-150l-8-5-6-7-1-3v-14l7-10 5-4 5-2 14-1 3-12 4-9 6-9 8-7 8-5zm3 4-11 4-13 8-8 9-5 12-2 13-1 2h-17l-8 5-4 5-2 5 1 10 4 6 6 4h146l6-3 3-6-1-9-4-5-5-2h-4l-2-15-10-11-8-2-10 1-7 1-4-12-11-12-13-7-6-1z"/><path transform="translate(504,418)" d="m0 0h30l25 4 19 6 26 12 16 12 15 13 9 9 6 8v2l3 1 10 16 11 23 5 15 2 11 4 28 20 5 18 7 15 7 9 3 15 2 22-1 18-5 18-9 4 1-1 5-17 9-22 7-5 1h-19l-17-4-26-10-8-4-17-5h-21l-11 2-15 6-15 7-21 7-5 1h-21l-17-4-18-7-13-6-13-5-9-1h-19l-14 3-14 6-12 6-18 6-12 2h-15l-16-3-26-10-16-7-14-3h-18l-13 2-18 8-11 6-20 6-5 1h-20l-10-2-3-3 1-3h27l18-3 11-4 19-9 14-5 5-1h27l13 3 2-20 1-14 6-21 8-20 8-13 6-9 10-13 7-6 6-7 11-9 11-8 17-9 8-4 17-6 11-3zm4 5-26 4-16 5-16 6-16 9-9 7-10 8-10 9-8 8-7 10-2 5-4 2-8 15-7 15-3 12-4 15-2 14v19l14 8 15 6 6 2 7 1h29l12-3 14-5 9-5 17-7 6-1h29l9 2 20 8 13 6 13 4 13 2 23-1 20-6 17-9 14-5 17-3 1-1v-14l-3-20-9-26-7-14-10-16-8-10-9-10-7-7-18-13-12-7-10-5-11-5-21-6-22-3z"/><path transform="translate(425,519)" d="m0 0 5 1 3 9 5 6v2l9 3h7l10-5 6-9 3-7 4 1 1 1v7l-6 11-8 6-8 3h-10l-9-3-8-6-4-7-1-4v-8z"/><path transform="translate(553,519)" d="m0 0 5 1 4 11 4 5 6 3 9 1 10-4 6-8 2-7 2-2 5 1v8l-5 9-5 5-7 4-6 2h-8l-10-3-8-6-4-6-2-11z"/><path transform="translate(527,546)" d="m0 0 4 2-1 7-6 7-5 2h-8l-6-3-6-7-1-5 2-2 5 1 3 6 2 1h9l4-3 3-5z"/><path transform="translate(311,626)" d="m0 0h22l15 4 16 6 14 7 12 3 13 3h18l26-7 16-8 20-7 5-1h20l16 4 15 5 16 8 23 6h18l17-4 14-5 11-6 5-2 15-5 5-1h22l16 4 16 7 12 6 16 4 10 2h16l28-7 14-8 2-1h7v4l-12 7-17 7-10 4-7 1h-26l-10-2-16-6-27-12-9-2h-28l-11 3-13 7-13 5-16 6-8 1h-23l-12-2-19-8-15-6-5-3-12-3h-29l-10 3-31 14-12 4-9 1h-23l-18-4-15-7-21-9-7-2h-31l-16 6-24 11-11 4-6 1h-25l-5-3v-4h24l14-3 15-5 16-8 18-6z"/><path transform="translate(304,673)" d="m0 0h26l17 4 26 12 21 6h24l15-4 14-5 16-8 17-5h26l16 4 19 8 8 4 17 5 5 1h23l21-6 27-13 13-3h27l13 3 13 5 14 7 20 6 5 1h23l23-7 17-9 9-1-1 5-28 14-19 5h-25l-21-5-13-6-8-3-11-5-10-3h-27l-13 4-13 6-7 3-11 5-17 4h-25l-17-4-29-12-13-5-4-1h-27l-15 5-26 12-19 5h-26l-17-4-36-15-10-3h-27l-15 5-28 13-18 4h-21l-3-4 2-2 21-1 15-4 10-3 22-11z"/><path transform="translate(300,727)" d="m0 0h28l15 4 26 11 9 4 14 2h22l13-2 31-13 6-3 11-3h29l15 4 8 4 15 6 16 6 11 1h21l13-2 13-5 10-5 14-6 11-3h28l13 3 15 6 20 9 9 2 8 1h21l11-1 18-7 16-8 7-1-1 5-22 12-10 3-17 5h-22l-18-4-12-4-19-9-19-5h-24l-16 5-20 9-10 4-18 4h-20l-21-5-12-4-14-7-21-6h-22l-14 3-15 7-8 4-18 6-10 2h-21l-21-5-13-5-13-6-16-5-5-1h-22l-16 4-26 12-22 6h-18l-2-3 2-3 3-1 23-2 15-5 12-6 16-7z"/></svg>
