<?xml version="1.0" encoding="UTF-8"?>
<svg version="1.1" viewBox="0 0 1024 1024" xmlns="http://www.w3.org/2000/svg"><path transform="translate(429,169)" d="m0 0h11l8 7v2h3v2l-3 1-6-8-2-1h-8l-6 4-3 7-2 1h-6l-3 1-1 10 1 3 3 3-5-1-3-5v-6l5-8 9-2 3-6z"/><path transform="translate(538,169)" d="m0 0 4 1 5 12 9 12 3 5 2 4 2 11 9-11 3-6 2-12 3-8 4-6 3-2 5 1v9l-3 1v-8l-5 5-3 7-4 16-7 11-6 8h-3l-3-15-9-15-6-8-3-6h-2l-1 10 3 12 1 3v14l-3 14-2 1-5-3-7-8-10-7-10-4-7-5-3-1 2 9 7 8 7 6 5 10 3 12v5l-4 1-9-3h-34l2 4 7 4 17 5 10 7 5 5h5v5l-6 1-8 3-10 3-8 6-9 4-6 2-1 3 5 1h11l9-3h13l13 4-2-10 2 1 6 12v3l-2-2-5 1-4 4-7 5-6 9-8 13-5 5 6 1 9-5 10-9 7-4 16-4-2-4-7-7 1-2 7 7 11 7-6 2-5 16-2 26v6l3-1 6-9 6-15 6-8 6-5 1-2h4l1 14 7 16 4 9 2 6h2l2-5v-12l-1-4v-12l4-11 2-6 4 2 6 9 5 5 10 9 8 6 4 4v-8l-7-13-5-7-2-6v-15l5 1 10 6 29 6 4 2-2-5-4-5-15-8-7-6-2-5h-2l-5-9 1-2 22-1 23-6 2-2-6-4-15-1v-2h14l8 3 4 3-1 5-15 3-15 5h-17l7 12 8 6 14 7 7 10-1 5-2 1-9-4-20-3-13-6-4-2 1 15 9 12 5 10v11l-5 1-9-10-14-10-5-6-5-9-2 3-3 9-1 4v7l1 6v13l-3 6-3 4-4-1-4-15-8-15-2-14-5 3-6 7-7 19-8 8-6 2-2-2 2-18 1-17 5-12v-3l-10 2-10 4-8 6-8 7-6 2h-8l-2-3 9-11 7-13 9-10 6-4 1-2-12-3h-9l-13 4-10-1-8-4 1-5 12-4 14-9 10-4 7-1-3-6-8-6-22-7-9-7-1-7 3-1 6 1h28l12 3-6-18-5-8-8-6-5-10v-10h5l8 7 21 11 9 10h2l1-6v-22l-3-7v-13z"/><path transform="translate(672,169)" d="m0 0h11l6 4 2 4 4 1v2h-5l-2-5-6-3h-8l-6 4-2 6-12 4-1 2v8l3 3v2l-4-2-2-2-1-8 6-8 8-2 4-6z"/><path transform="translate(331,176)" d="m0 0h9l11 4 7 6 4 8v2l7-1h13l6 3 4 6 3 11 10 3 6 5 1 3v10l-5 6h-66v-1l62-1 6-5v-9l-4-5-2-1-9-1-2-2-2-11-5-6-3-2-10-1-8 4-3-1-6-12-7-6-4-2h-17l-9 5-6 8-3 11-3 1h-12l-8 5-4 7-1 2v11l5 8 4 4-5-1-6-7-2-5v-9l4-9 5-6 6-3 6-1h9l1-7 5-8 10-8z"/><path transform="translate(456,178)" d="m0 0 5 1 3 4 2 4 6 4v7l-2 3h-3l2-4v-5l-8-3-2-7-3-2z"/><path transform="translate(700,178)" d="m0 0 5 2 4 7 4 2 2 4-1 6-1 2h-4v-2l3-3-1-4-7-3-2-7z"/><path transform="translate(591,192)" d="m0 0h2v19l-1 9 13-4 5-2 2-4 4-2 2-4 7-8 6-3h8l1 4-6 8-4 12-5 10-9 10v4h19l9-4 8-4h11l4 2v5l-9 5-8 9-11 8-8 3h-3v-2l10-4 13-11 5-5 8-4v-2h-13l-10 5-4 1-24 1-2 3-12-12 2-1 7 6h3l3-7 6-4 8-16 4-11 4-6-8 2-6 5-7 9-7 6-15 6-5-1 2-14z"/><path transform="translate(738,200)" d="m0 0h13l9 4 9 8 3 7h21l5 3 5 7 2 10 10 3 5 5 2 9-3 7-3 3h-119l-5-3-4-6-1-3v-11l4-9 7-6 5-2 13-1 3-9 4-6 10-8zm3 2-9 4-8 7-8 16-8-1-8 2-6 4-5 8v12l3 6 6 5h114l6-5 1-2v-7l-6-8-3-1h-8v-7l-3-7-7-7h-14l-7 3-3-9-7-8-13-5z"/><path transform="translate(557,224)" d="m0 0h4v2l-15 5-10 6-8 8-5 9h-2l-1 4-2-1 9-15 8-8 16-8z"/><path transform="translate(590,265)" d="m0 0 6 1 2 2v6l-3 3h-6l-3-4 1-5z"/><path transform="translate(626,265)" d="m0 0 5 2 9 5 4 2-4 1-14-7z"/><path transform="translate(283,267)" d="m0 0h8l7 3 2 1v2l4 2 5 6 10 4 1 2h-2l-1 3-6 4-6 14-5 6-8 4h-6v-2l8-3 8-6 3-5v-20l-6-8-6-3h-11l-10 5-3 5 1 5-5-3-2-4h4l2-4 8-6zm26 18-1 5h5l2-4z"/><path transform="translate(540,267)" d="m0 0h6l3 4-1 6-2 2h-7l-2-3 1-7z"/><path transform="translate(419,273)" d="m0 0h6l7 4 5 7 10 5 2 5-6-5-9-2-6-9-9-3z"/><path transform="translate(257,274)" d="m0 0 4 1 2 4-5-1v6l4 6 1 2h-5l1 6 8 7 9 1-1 2-6 1 3 3 8 4v2l-9-2-8-7-7-11-3-6 1-10 1-5z"/><path transform="translate(412,273)" d="m0 0h4v2l-7 3-5 6-9-3-6 1-7 5-2 2 1-5 7-6h18z"/><path transform="translate(593,280)" d="m0 0h10l3 4v6l-4 5h-8l-4-1-8 6-9 3h-9l-9-3-10-5-3 2h-7l-5-5v-6l5-4h7l5 5 4 6 2 1v2l6 2h17l8-4 5-5 3-8zm2 2-3 3 1 6 5 2 5-3-1-7-1-1zm-59 2-3 3v6l2 2h5l4-4v-5l-2-2z"/><path transform="translate(292,285)" d="m0 0 5 1 1 5-2 3-5-1-1-1v-5z"/><path transform="translate(379,289)" d="m0 0h1v6l-9 3-2 5 2 5h58l16-1 4-3-2 5-3 2h-73l-3-2-2-5 1-5 2-4 9-4z"/><path transform="translate(776,296)" d="m0 0h15l9 5 4 6 2 2-4 4-2-1 1-3-7-8-5-2h-11l-8 4-5 9-1 4v8l4 10 5 5 7 4h13l9-5-1-4 11-10 1-4-5 2-4-1 1-2 5-3 2-3v-7h-4l2-4h3l2 2 1 11 1 2-2 8-10 15-7 5-5 1h-15l-5-2-7-8-4-6-3-10-4-2-4-4v-2l11-3 9-10zm-19 16v4l3 2 2-2-1-4z"/><path transform="translate(727,308)" d="m0 0h8l-1 3-7 2-3 3-15-5v-2h8l6 1z"/><path transform="translate(609,309)" d="m0 0 1 3-11 10-7 3-3-1 14-9 5-5z"/><path transform="translate(774,313)" d="m0 0h6l1 1v5l-2 2h-6l-1-1v-5zm2 2-1 3h3l-1-3z"/><path transform="translate(259,337)" d="m0 0h9l7 5 4 9 5-1 6-3h9l1 2-10 1-6 4-1 7-7-3-1-9-6-7-4-2-4 1-2 5v8l4 6h6l-4 6-4-5-1-1-7-1v-2h3v-14z"/><path transform="translate(679,342)" d="m0 0h12l5 3 7-1 3-2h10v3l-9 1-6 3-1 2-4-1-7-4-9-1z"/><path transform="translate(301,350)" d="m0 0h2l1 6-6 12 5 2 5 8 1 8-4 4-3 1h-9l-7-3-5-3-4 9-3 4-3 14-1 13 3-1 6-8 9-6 8-3h9l3 2v7l-3 10-2 4 5 1 28 2-6-7-4-8-1-7h2l4 10 7 9 6 5 7 1v-11l-5-14-6-7-6-4-5-1-3 4-1-4 2-3h7v2l5 2 6 5 4 6 3 1 1-10 2-8-1-1-12-1v-1l12-1 5-4-1-5-1-4 8 6-1 10 4 8 5 3 4-2 3-6 1 4-2 5-2 2h-6l-8-5-3 13h-2l1-11 2-13-3 3-3 18v18l2-2v-6l7-3 9-8 8-4h14l1 1v10l-5 10-7 7-8 4h-4v2l14 2 16 4-2-8-2-7-2-3 1-6 3-4 5-2 3-7 9-1 5 3h9l5 4 1 11 2 3v7l-2 3-6 2-2 7-3 2h-8l-3-3-5 1 22 7h7l10-2 2-4 5-1 2 1h6l5-6-9-8-1-2v-6l5-4 8-1 7 2-1-7 5-10h8l5 5 2 7 6-1h11l3 3-1 3-4-3h-8l-7 5 2 5 2 4 7-1 5-3 2-5 2 1-2 6-3 2-1 3 4 2h12l50-2 13-1 3-1 1-7 3-2 1-10 3-4h9l7 2 6 5 1 3 3 1 1-5 8-7 2-1h9l3 4-1 14-2 6 8 3 6 7 2 5 6 2 1-8 2-2h8l11 6 5 4 4 5 2 1-2-20-9-4-2-3 6 2h15l8-6 4-5 1-2v-18l-3-5v-3l4 2 2 4v20l-4 8-8 7-3 1-1 17 5-5 7-6 5-3h9l1 3h5l-1 8 5 13 3 4-1 2-6-7-2-3h-6l-2 5-7 8-4 3v5l-3 1-4-2h-11l-9 3v-4l-4-2-2 13-4 9-6 9-7 6v4h-13l-8 1-6 5-1-4-9-4-9-6-5-4-6-10-4-8-11 3-27 9-14 6-14 5-15 7-1 8 5 2h21l2-12 2-3 6 1 8 6 2 3 5-5h6l-5 4-5 6 2 4 5 4 4-2 2-3v-12l-2-2h4l1 3v12l-2 6 13-3h18l2 2-1 13 1 1h21l23-6 11-4 10-2h19l1 3 4 2 3 6 3 3h26l22-3 15-4 15-6 3-3 1-12 7-5 7-2h25v2l-18 1-15 4-2 1-1 13-10 7-10 4-35 7-7 1h-19l-7-3-5-5-5-8h-12l-13 3-22 7-14 3h-22l-3-3v-8l1-4-4-1h-16l4 6 1 1v6l-7 4-7 2 3 9 3 16v6l10-8 10-3h7l1 1v9l-7 9-7 6-6 2v4l-9-2h-11l-4 2-4-1v-3l-10-5-7-7-2-6 4 2 5 7 6 4v2l15 1-3-9-7-8-8-4-12-1v-3h11l10 5 7 7 2 1-2-19-2-6-2-1-1 7-5 5h-5l-5-5-2-3v-6l-5 1h-12l-2-3 1-7 1-3 2-1-1-5-3-5-3-3-1-4-10-2-6-4-1-7-16 8-11 4-2 3-20 9-3 3v11l6-7 11-7 6-2h5l2 2v8l-5 10-7 8-9 4h-3l-1 3-5-1h-11l-6 2-6-4-10-5-3-2-5 1-8 6h-2v2l12 3 20 8 16 7 13 2 36 3 30 5 19 5 16 4 20 9 7 6 4 11 6-2 8-4 20-9 13-4 1-9 3-3 1-9 3-3h10l11 4-2-12-17-2-6-4-1-8 4-6 2-1h12l6 3 4-1 3-1 4 1v2l-6 2-2 3-1 13 6 17 3 2 11-2 8-3 11-9 3-3v-10l4 2v6l-6 8-3 3 11-1 20-3 22-3 31-2h28v3l-39 2-4 2-1 7-5 6-10 5h-3l1-4 10-4 4-5v-5h-15l-20 2-24 4-25 6-17 4-33 11-21 9v8l-4-4-2-3-17 9-16 8-10 6-19 13-9 8-8 7-4 3 2-4 8-8 8-7 17-12 14-8 10-6 2-1v-11l-8-7-22-10-13-4-17-3-20-4-24-3-22-2v2l16 7 1 2-6-1-21-10-12-5-1-1h-5l-4 6-11 3-17 1v7l3 5-1 7-6 3-4 1h-13l-35-6h-18l2 18 2 1v2l-7 2-11 5-2-4-4-12-6-8h-9l-12 12-3 4-3-1-5-8-4-5-6-2v-2l6 1 6 5 3 5h5l9-10 3-2h11l5 5 5 9 2 5 7-1 4-4-1-8-1-4 2-5 3-2h14l25 5 7 1h23l3-2v-7l-3-5v-5l3-3 21-2 6-2 2-2v-3l-20-8-18-7-20-7-12-4-13-4-27-8-31-7-20-5-28-4-12-2-3 2-1 3v7l6 8 12 7 27 9v2l-9-1-18-6-10-5-8-7-4-7v-9l1-4-38-5v-2l40 2-3-6v-11l1-2h7l11 6 10 10v-10l-5-5-1-8-7 1-5-3-3-5v-9l4-6-1-5v-10l5-6 3-1h12l5-6 3-1h9l2 3h-11l-4 4v8l5 1v2l-10 3 1-6-5-5h-7l-5 5v7l5 5h5l2-1 1 11 3 5 4 4-5 1-2 2v7l5 6h8l3-3 1-8-1-2-8-2 1-2 11-1h3l-3 4 2 5 3 2h8l3-2 1-10-5-4-4-1-2 1 1-8 2 1v3l9-1 3-3v-10l-5-4-8 1-2 7-6-5-4-1v-2l8 1 3-5 10 1 7 6 1 9-3 6-3 2 1 5v10l-5 5-9 2-6-1-6 7-3 1-1 11 6-3 5-4 9-4h10l3 2v8l-8 11 10 4v-9l1-1h7l6 4 8 7-1-9h-6l-5-4v-8l4-7-5-3-3-9 2-4 4-3h7l4 1v-7l5-6h3v2l-3 3-1 2v10l6 1v2l-7 3-1 7 3 5 2 1h8l5-4 1 7 5 3v2l-3 1-1 8-4 4h-7l-4-1 1 8 5-2 6-4 6-2h7l3 3v7l-3 7 23 6 19 7h7l11-6 3-1-2-8v-5l4-2h11l5 2h5l-4-10-1-9-11-1-6-3-2-2v-8l6-8-3-5-1-7 3-5 4-2h11l4 1v-6l5-9 6-2v-2l-9-2-4-1-1 9-3 4-4 1-16 1v3 6l-4 4-2 1h-18l-21-5-28-10-8-3-8-6 2-5 5-4-10-5-8-3-7-6-2-4v-8l1-5h-24l-9 7-4 2-1 5-12-4h-7l-12 4 1-7-10-7h-13l-18 2h-7v-3l17-2 17-1-7-14-1-10 3-6 7-1 8 4 9 9 2 4 2 1v-14l-5-4-1-3v-13l2-5-8-2-6-4-4-4v-6l5-5 6-1 1 2-8 4-1 5 6 5 5 2h6l4-2 3 4v2l-5 2-2 4v10l2 5 9-3 4-4 1-5v-5l-5-1v-2l10-1 3-1 2 6 4 3h14l1-7-5-8-4-2h-7l-2 5h-1v-9l6 1 5-4 3-6zm-65 52-2 2v9l3 10 7 10 6 5 5 3 1 1h7l1-5h3l2-35-5 1-1 15-1 6-9-12-7-7-5-3zm149 7-11 4-8 6-8 10-1 8 5 2 9-1 12-6 8-9 3-8-1-5-1-1zm-88 1-9 3-11 8-8 13-1 6 2 2 9 1 14-7 8-9 4-7 1-8-2-2zm115 1-3 2v7l2 2 8-1 1-1v-6l-4-3zm12 3-2 3 1 5 4 4 6-2v-8l-2-2zm216 0-6 4-5 6v7l5 4 3 2 6-1 4-6 1-3v-11l-1-2zm-155-4-3 4-1 3v9l2 3 6-1v2l-6 1-3 6v-8l-5-3h-10l-4 3v5l7 6 2 1h7l3-1 2 6 5 4 9-1 3-3 2 6 5 3 9 1h-11l-1 1v5h-2v-7l-5-5-9 3-1 7 3 5 3 2h6l4-2v5l2 4-7 6 5-5v-4l-2-1h-14l-7 3v3l7 5 8 1 1 3 29 15 6 4 8 5 7-1 12-4 17-7 16-5 17-6 9-2-1 6 3 7 6 8 10 9 8 3h10l4-3-2-9-8-10-2-3 7 6h2l-1-9-4-10-2-2-9 1-8 3-1 2-7-1 6-3v-3l5 2 8-8 1-8-2-6-2-2h-4l2-4h2l2 5 4 2h8 3l-7 3 6 11 5 1 16-4 2-2-1-5-6-5-10-2 1-6-7-9-8-2-5 3-1 2v6h-2v-7l-2-4-7-4-3-2-1-4-3-5-6-5-2-1-10-1-2 3 1 7 1 1 7 1 6 6h4l1 6-11-11-7-1-6 5-2 7-3 2v4l-6-3h-23l-8 2-3 3h-2l3-2v-2h-22l-10 1-2 3-7-6-5-2-4 1-2 3-2-8-7-7 3-1v-12l-5-5zm-83 11-3 3 1 7 3 2 5-1 2-6-2-4-1-1zm14 2-4 2-1 8 3 4 6 1 5-4v-7l-4-4zm13 4-2 2-1 7 2 2h7l3-3-1-5-3-3zm-23 7-4 4 2 7 6 1 4-3-1-4-4-5zm-80 2-3 2-1 9 4 6 13 7 9 3 1 5-6 4 1 4 12 6 36 12 8 2h24l2-1v-11l19-2 4-4 1-2v-9l-6-4-15-5-16-6-30-7-22-5-16-3-9-1zm97 1-7 3v6l4 3h5l2-2v-7zm282 1v31l3-1v-30zm26 4-8 4-6 5-7 12-1 5v7l1 1 8-1 8-6 6-7 4-8v-12zm-256 1-6 4-3 8v5l1 1h10l5-3 2-4-1-5-5-6zm200 2-2 3 2 10 4 8 10 8 9 3h5l1-1-1-9-6-9-9-9-8-4zm-222 6-2 2 1 9 4 5 8 4 4-1-1-7-7-9-5-3zm-7 6-5 2v2l9 3-1-7zm35 3-4 7v4l9-2 1-3-2-6zm-7 4-3 7 3 1 2-5v-3zm169-4 1 9 7 15 3 10 1 12 1 3h2v-18l-1-2h2l1 3 3-1 7-13 9-7v-3l-10 2-9 2-5 3-1 1-9-16zm-2 9-2 3v3l5-1v-4zm40 3-9 6-5 6-4 10-2 4-1 11 2 5 7-1 8-6 9-14 1-3v-17l-1-1zm-209 5 4 8 2 8 2 1 8-1 9 3 1 2v8l-4 6-1 4 5 5 2 7 19-9 9-4 7-4-2-4-15-8h-2v-2l-23-11-16-8zm-8 1-5 5-2 3v10h7v2l-4 1-5 3-4 6-1 8-3-5-6 1-6 4-2 2v7l6 4h12l2-6 5 5-4 1-1 4v8l3 5 3 3 5-1 5-4 3-5v-7l-2-3 8-5 3-6 1-9 1 3 8-1 5-4v-8l-5-4-7-1-7 3-1 4 1 2-4-4h-2v-2h4v-12l-6-7zm-204 4-5 3-3 3v8l6 5h7l5-5-2-5-4-9zm183 11-6 3-1 1v6l5 6h9l5-9-1-5-9-2zm-118 7-3 2 1 7 5 4 7 1 4-7-1-4-4-3zm-80 13-1 1v7l4 8 3 3 11 2h7l1-3-3-5-7-8-9-5zm239 2-5 9-3 3 1 4 6 2h7l7-3-1-9-6-5zm76 1-2 6 1 9 3 2 7-1 3-2v-6l-6-7zm-227 1-6 4-1 9 1 1h9l6-4-1-5-4-5zm-59 1-1 6v9h4v-15zm29 2-11 4-10 7-1 1v5l5 2h13l9-8 3-6-1-4zm44 4-2 1v10l4 5h5l3-3v-11l-3-2zm-7 7-2 7v10h3l2-7v-9zm210 0-5 2v5l6 7h6l4-4 1-7-5-3zm-74 0-2 1-1 7 3 2 6-3 1-4zm94 2-6 4-2 4 1 8 6 5h8l5-4 1-2v-7l-4-7zm-253 2-1 1v6l2 3 10 3 5-1-2-5-9-7zm269 5-1 1-1 12h16l2-2v-5l-5-5-3-1zm-225 4-11 6-1 2 11 4 6-1 3-5v-5l-1-1zm134 1-11 5-8 7-3 5-2 6 3 5 10-3 8-6 6-8 2-4v-6zm63 2-7 3-3 5v6l1 1h10l6-4-1-7-4-4zm-92 2-2 2v11l3 8 2-1v-18l-1-2zm-33 2v7l7 8 6 5 6 2h11l1-1-1-8-6-7-11-5-5-1zm26 1-2 4 4 4 1-1v-7zm124 2-1 2 6 17 1 6 1 18 1 2h2v-29l-4-9-4-6zm-6 1-8 1-2 2v11l4 6 4-1 5-6 2-9-3-4zm94 14-5 4v7l3 3 6 1h12l2-4-1-6-5-4-3-1zm-58 12-12 7-6 9-1 5 1 1h10l8-4 6-5 4-7v-5l-1-1zm57 17-3 3 1 5 2 3-5 2-1 4 2 3 9-1 11-4 7-2-1-5-8-6-5-2z"/><path transform="translate(374,343)" d="m0 0h6l4 6v11l-1 5 10 3 6 5 2 6-6 5-7 3-6 1-2 2-2-5h-8v-2l8-5h2v5h10l7-4-2-5-5-4-2-1h-7l-3 1-4-5-2-1h-8l-6 4 2-6v-4l-6-3-11-1 4 13 4 3 6-1v8l-2-3-6 1-7 6-1 2v8l-4-2 2-9 5-4 2-5-4-6-2-9 3-4 9-1 12 5 1-5 5-6zm1 2-8 7-1 2v6l9 4 5-1 1-1v-16l-1-1z"/><path transform="translate(461,363)" d="m0 0 9 1 8 4 3 4 1 18 2 4-2 6-4 1h-10v7l-3 4h-6l-6-5-1-2-5 1-2 1h-9l-1-5 1-9-3-3v-7l3-3 11-2 8-7 4-6zm2 2-5 6-2 8v2l-4-4-5 5v6l1 2-7 2-3 4-1 8 1 1h6l7-4 1-6-2-3h9l2-1v-3l-3-2 1-1 5 4 2 2-1 2 5 5h9l2-2-1-4-2-2-4-1 4-4v-6l1-5-4-6-7-2zm-22 15-6 5 1 5 5 1 3-2 1-8zm20 13-7 3-1 1v5l6 7 5 1 2-4-1-10z"/><path transform="translate(461,372)" d="m0 0 5 5-1 4 6 2v2h-8l-3-3v-8z"/><path transform="translate(771,373)" d="m0 0 9 2 4 4 1 7 6-2h9l6 5 1 2v12l-2 3 1 5 4 6v8l-5 7-4 2h-9l-2 7-3 4v5l5 1 9-8 8-4h6l3 3 1 9 4 1 13 1v2l-2 1-16 1-6 11-9 9-7 4 1 5-9-2h-13l-9 4h-3l4-5-7-3-8-7 2-1 9 6 5 2h10l1-3-5-13-6-9-11-7-10-4v-2l7 1 8 4 7 5h7v-4l-6-2-5-6-1-3h-15l-6-5-1-2v-9l3-5 1-4-4-2-3-5v-8l3-6 8-3h8l3-8 5-5zm-1 3-8 5-1 9 3 4 18-2 1-1v-8l-4-6-2-1zm22 10-7 6 1 5 5 6 2 5 7-1 5-4 1-3v-6l-3-5-7-3zm-46 5-4 6v8l4 6 9 1 5-12 1-5-3-4zm24 3-9 6-3 7v7 2l-2-2-7 1-4 6v8l4 6 7 1 7-3 3-6-5-5 1-1 6 5h14l7-6 2-4v-11l-7-8-4-3zm24 17-6 12 1 6 5 3h7l6-5v-10l-5-6zm-11 15-14 2-2 2v9l4 5 5 2 5-1 5-3 2-3v-8zm28 15-8 4-10 9-7 11-2 9v5l1 1h8l14-10 6-9 3-6v-13zm-31 7v19l1 6h2l1-5v-18l-1-2zm-7 7-1 3 3 5h3v-7z"/><path transform="translate(700,391)" d="m0 0h6l5 5h8v2l-6 3-4-2-4-5-4 2-5 6-5-2-5-1-2 5v16l4 8-1 2-6-8-1-5v-11l3-8 2-2 10 1z"/><path transform="translate(780,412)" d="m0 0h2v5l-3 2h-8l-3-3v-2l8 1z"/><path transform="translate(697,420)" d="m0 0 6 3 6-1 4-2-2 4-2 2h-10l-3-3z"/><path transform="translate(608,436)" d="m0 0 5 1 3 3 1 3v7l-3 5-5 1 3-6h-5v-2l5-2v-1l-5-1 1-3h3v-2l-3-1z"/><path transform="translate(621,452)" d="m0 0 2 3h6v2l-5 3-2 8-6 1-4 1 2-4 6-4 1-2h-5z"/><path transform="translate(591,453)" d="m0 0 5 2 4 2 3 5v2h-4l-1 3-1-8-6-4z"/><path transform="translate(227,466)" d="m0 0 7 1 4 4-2 4h-12l-1-5zm0 3-2 1v2h10v-2l-2-1z"/><path transform="translate(348,485)" d="m0 0 5 2 2 4v6l4-2h12l2 3-1 9-3 4 2 4 4 3v9l-3 2h-6l6-4-1-6-3-3-9-1-2 2-2-9-6-3 1-3 2-1v-8l-3-5-2-2zm14 11-6 4-1 5 4 6 6-1 4-3 1-9-2-2z"/><path transform="translate(734,490)" d="m0 0 9 1 4 4v5l-1 1h-18l-1-5zm-1 3-3 1v4h13v-3l-3-2z"/><path transform="translate(386,506)" d="m0 0h8l4 4-1 5h-13l-1-5zm2 3-2 3 1 1 7-1v-3z"/><path transform="translate(498,569)" d="m0 0h7l6 5-1 5h-17l-1-5 3-4zm2 2-5 3v3h14l-2-5z"/><path transform="translate(702,569)" d="m0 0 6 5 1 2h7l4 3 10 1v2l-7 2-4 5-1 2h-2l1-4v-7h-6l-3 3h-2l-2-9z"/><path transform="translate(205,599)" d="m0 0 5 1 4 4-1 6-2 3 1 8-4-2-1-6 2-4v-5l-4-3z"/><path transform="translate(639,599)" d="m0 0 6 2 2 2-1 4h-12l-1-5 2-2zm-3 3-1 3h9l-1-3z"/><path transform="translate(505,604)" d="m0 0 17 2 31 5 5 2v2l-12-1-16-3-24-3-2-3z"/><path transform="translate(500,610)" d="m0 0 6 1 17 9-4 1-19-10z"/><path transform="translate(525,614)" d="m0 0 9 2 15 6 8 6 4 4v11l-6 8-6 4h-2l2-4 8-7 1-2v-10l-4-2-10-6-17-6z"/><path transform="translate(746,614)" d="m0 0h7l7 4 9 11v2l5-4 5-5 6-3 8 1 6 9 4 9 2 11v8l2 7h7l18-5h8v2l-18 5-13 3-3 2-4 14-6 10-10 10-7 5-8 3v6l1 1 22 1 20 2h15l10 5 1 2-4 1-3 19-6 16-6 10-8 10-10 8-13 8-1 3 4 1 1 3-9-3h-27l-10 5-3 2v-4l1-3-17-7-9-6-8-7-7-6-4-6-3-5-6-13-3-14-13 4-10 12-2-1 7-10 4-9h2l1 2 10-2 5-5 4-1v2l-4 4 1 11 5 15 5 9 8 8 6 7 6 4 20 10 3 1h10l5-2v-9l-3-12-4-7 1-2 4 5 2-4h1l1 17 3 11 3-1 2 2 10 1 15-8 6-4 12-12 4-6h2l2-6 4-9 3-11v-18l-1-2h-9l-15 8-4 3-2-1 3-3h2v-2l6-4-4-2-34 1-2 1-2-11-2-2-5 1v12l-3-1h-8l-12 1 1-2 16-2 3-2-1-5-2-3 1-1 15-3 8-3 10-8 6-8 5-9 2-7v-24l-4-15-6-11-1-1h-7l-8 7-4 6h-4l-6-10-7-7-2-1h-7l-5 4-5 12-3 8-5-2-6-5-6-2-8 1-3 16v10l1 12h-2l-6-13h-12l-21 6h-8l-5-3-1-7 2-4h2v9l1 1h10l18-5h15l2 2 2-21 6-7h11l10 6 3 1 1-7 6-12z"/><path transform="translate(212,621)" d="m0 0 10 2 12 4 22 4h13l6-8 3-1-1 4-4 6h-2l-1 5-4 10-2 14v18l3 10 6 10 8 8 10 5 8 3 11 2 1 3-4 2-5 33-1 9-1 2 3-3 4-6 7-9 6-7 10-7h2v-2l14-7 11-3h18l4 3v11l-4 12-9 16-14 15-24 14-9 2v4l1 3-6-2-8-5-4-1h-16l-11 4-5 4-3-1 2-4 5-4-10-5-13-9-13-13-7-11-6-15-3-13v-15l6-7h8l12 5 6 4 12 11 10 10 6 11 5 10 5-35-1-5-11-6-7-6-8-10-4-14-11-2-21-2-18-1-6-1v-2h27l19 2h8l6-39-23-2-20-5-9-5zm15 87-2 4v18l5 17 4 10 7 8 4 5 8 7 7 6 14 8 6 2 8-1 1-1v-13h2l1 10 2 1 2-1 1 3 6 2h17l14-6 6-4 7-4 4-4 8-7 10-13 5-11 2-6v-12l-2-2h-15l-13 4-10 5-13 9-10 10-9 14-6 13v3h-2l3-8 1-20 1-14 3-20-2-2h-5l-2 2-5 33v21h-2l1-3-1-4-6-17-9-14-11-13-14-10-10-5z"/><path transform="translate(571,624)" d="m0 0 7 1 9 8v8l-3 5-3 1 2-11-3-5-9-6z"/><path transform="translate(589,624)" d="m0 0 6 1 6 7v8l-4 6h-3l2-4 1-1v-7l-4-5-4-3z"/><path transform="translate(359,641)" d="m0 0 4 3v25h-2l-1-24z"/><path transform="translate(770,656)" d="m0 0h7l2 2v7l-2 2h-7l-2-2v-7z"/><path transform="translate(280,658)" d="m0 0 4 2h9l6 5 1 5-3 1-3-5-7-1-6 4-4-4v-2l4 1z"/><path transform="translate(556,658)" d="m0 0 3 1-2 4-19 10-5 2v-4l19-10z"/><path transform="translate(532,658)" d="m0 0 2 1-1 3-11 5-13 4-20 8-13 5-4-1 6-5 10-3 19-8 9-3 14-5z"/><path transform="translate(734,662)" d="m0 0h5l3 4-1 5-2 2h-6l-3-3 1-6z"/><path transform="translate(436,668)" d="m0 0 5 1 6 7 3 7 9-3 4-1v2l-10 6-2 7h-2l-1-10-7-12-5-1-6 5-6 11h-2l2-7 9-10z"/><path transform="translate(324,670)" d="m0 0h8l1 1h7l-2 5 4 1-4 3-5-1-2-4-4-1-5 2h-3l3-5z"/><path transform="translate(392,671)" d="m0 0h10l1 1v7h-14v-5zm1 2-2 3 1 1h8v-3l-1-1z"/><path transform="translate(773,674)" d="m0 0 2 1-1 5-5 7-6 3h-14l-7-4-3-4v-2l4 2 7 4 15-1 5-5z"/><path transform="translate(291,679)" d="m0 0h2l4 7 3 3 6 2h9l4-2h4v3l-5 3-4 1h-8l-10-5-5-6-1-5z"/><path transform="translate(707,680)" d="m0 0h2l7 14 9 9 12 6 7 2-1 2-6-1-12-6-10-9-6-10z"/><path transform="translate(627,681)" d="m0 0 5 1 11 10 1 2h2l5-5 5-4h2l-1 3-8 7-3 4-3-1-5-8-7-6-4-1z"/><path transform="translate(358,682)" d="m0 0 1 4-2 10 7 3 21 5 1-7 5-4 3-1h16l1 2-18 1-3 2v8l4 8 6 5 6 2h6l3-9 6-9-5-6 3-1 1-3h2l2 8 15 1v1l-11 1-6 3-4 5-2 5v11h-2l-2-3h-6l-7 3-7 8-1 5v7l9 2 1 2h-8l-6-3v-7l4-9 7-8 2-3-6-3-6-8-17-6-15-4-4 1-8 9-9 6-9 3h-9v-2l12-3 14-7 7-8 5-8z"/><path transform="translate(542,682)" d="m0 0 2 1-2 4-9 8-6 10-2 6v8l3 10 5 11h-3l-7-11-2-6v-14l7-14 10-10z"/><path transform="translate(617,687)" d="m0 0 1 2-5 15-5-1-5-3 3-1 5 1 4-10z"/><path transform="translate(510,695)" d="m0 0 3 1-2 4-4 7v12l3 9-4-2-3-9v-7l5-13z"/><path transform="translate(449,696)" d="m0 0 2 4 1 1 23 1 3 5 2 3-5-2-5-3-4-1h-14l-3 6-5-5-1-3 4-1z"/><path transform="translate(480,710)" d="m0 0 3 1v6l-10 10h-2l1 3 25 9 13 5 11 4 24 10 16 6 10 5 8 2v-2l5 2 9 7h6l14-8-1-3-5-5 5 2 11 4h17l15-5 7-5 2 1-7 6-6 4 1 10 3 17v14h2l2-5 6-7 6-8 10-8 9-3h9l3 5v14l-6 17-8 11-5 5-9 7-5 3 4 3 5 3-1 2-9-3-10-3h-13l-12 3-9 4-1-3 3-2v-2l-14-6-7-7-5-4-4-6v-2h-2l-5-12-2-10 2-6 1-1h15l12 5 13 10 7 8 4 5 2 1-1-20-4-22-1-3-5-1h-15l-27 14-11 7-11 6-13 8-15 9-9 5-13 8-23 14-13 8-2-1 2-4 17-10 13-8 15-9 8-5 17-10 13-8 23-13 3-3-9-3-12-6-11-4-11-5-19-7-18-7-27-10-14-5h-18l3 12v15l-5 9-2 2h-8l-9-7-5-5-1 15-1 8h-2v-13l2-13v-10l-4 2-3 12-2 15v26l-2-4-7-13-7-9-8-6-12-6v-2l7 1 4 2 4 4 8 7 3 3v2l4 2 2 2 4-32 1-2-13 1 1-2 12-3 5-4v-5l-5-5-1-4 7 6 4 3 4 1v2l-3 1-1 6 3 11 3 1 4 5 2 1v2l8 2 3-5 3-7v-13l-4-7-7 2v-2l8-7 2-4h2l1 3h7l10-4 8-7 1-6zm161 60 1 12 1 11 1 2v33l-9-15-7-8-8-6-11-6-8-2h-9l-2 3 1 12 5 10 7 9 8 8 16 8 9 1 9-3v-4h2l1 4 3-2 1-10h2v12l11 1 13-8 10-10 8-14 3-11v-13l-2-2h-10l-7 4-13 12-2 5h-2l-8 16-1 5-2-28-4-22-1-4z"/><path transform="translate(676,713)" d="m0 0h2l1 13-1 10h-2z"/><path transform="translate(646,718)" d="m0 0h7l2 2v6l-2 2h-7l-2-3v-5z"/><path transform="translate(424,724)" d="m0 0 4 2 9 1h2l-2 4h-7l-5-3z"/><path transform="translate(615,724)" d="m0 0h5l2 3-1 6-2 2h-5l-3-3v-5z"/><path transform="translate(715,730)" d="m0 0h2v2l-2 2v3l-11-3v-2z"/><path transform="translate(543,734)" d="m0 0 5 4 7 8 8 9 13 10 3 4-4-2-13-10-10-9-9-12z"/><path transform="translate(650,734)" d="m0 0h2v5l-7 8-7 3h-8l-7-3-4-4 1-3 1 2 4 2 5 2h9l6-4z"/><path transform="translate(724,739)" d="m0 0 6 3 11 9 7 7 7 11v2h-2l-7-10-9-10-10-8-3-2z"/><path transform="translate(772,753)" d="m0 0h2v13h3l2-6 2-1-1 5-5 11-3 9-2-1 1-6z"/><path transform="translate(372,761)" d="m0 0h3l-2 5v14l5 14 5 9 8 7 1 3 4 2 11 6h8l1-12h2l1 9 5 1 3 2 8 1 10-3 12-6 8-8 5-4 8-17 2-13h-14l-9 3-13 9-9 9-8 13-2 6h-2v-18h2v7h2l1-4 11-13 11-9 7-4 8-2h14l3 3v12l-4 10-7 11-9 9-11 7-9 4 2 4 1 3-15-6h-14l-10 3-3-5-14-10-7-7-10-17-3-12v-11z"/><path transform="translate(497,773)" d="m0 0h8l4 3v6h-15l1-7zm1 2-2 4 2 2h8l1-2-1-4z"/><path transform="translate(245,794)" d="m0 0h7l4 4v5l-1 1h-12l-2-3 1-4zm0 2-2 2 1 4h8l2-3-2-3z"/><path transform="translate(721,812)" d="m0 0h10l6 4 1 5-2 4h-21l-1-1 1-7zm1 2-5 4 1 4 1 1h15l2-4-6-5z"/><path transform="translate(802,818)" d="m0 0h9l4 4-1 5-1 1h-14l-1-1v-5zm0 2-2 4 1 1h10l-1-5z"/><path transform="translate(340,821)" d="m0 0h12l6 4v8l-1 1h-23v-7l5-5zm2 2-5 5 1 4h18l1-4-4-4-2-1z"/></svg>
