<?xml version="1.0" encoding="UTF-8"?>
<svg version="1.1" viewBox="0 0 1024 1024" xmlns="http://www.w3.org/2000/svg"><path transform="translate(412,139)" d="m0 0h10l6 4 4 6h10l4 2 2 3 1 5 7 3 2 4-1 5-3 3h-62l-4-4-1-2v-7l4-6 3-3 8-1 3-7zm2 2-6 4-3 4-1 6-7-1-5 3-3 6 2 7 4 3h56l4-3v-5l-3-3h-6v-6l-4-5-6-1-5 2-6-9-4-2z"/><path transform="translate(529,139)" d="m0 0 4 1 4 11 7 10 6 8 3 7 2 13 2 1 2-4 10-14 4-20 4-8 6-5h5l-1 14 1 10 1 5v13l-2 9-1 7 17-7 6-4 6-7 7-9 8-4 3-1h7l-1 5-6 8-6 17-6 10-8 8-1 5h22l10-4 4-3 6-2h10l6 3v4l-12 6-7 8-11 9-7 3-6 1-1 2 6 2 6 4 7 2h18l8 2 8 6v4l-13 1-11 4-13 4-16-1-1 3h2l7 11 7 6 16 8 6 7 3 6-2 4-4-1-8-4-23-3-10-5-5-4h-2l1 15 1 6h2l11 16 2 6v9l-2 4-4-2-6-8-12-9-9-7-8-13v-2h-2l-1 5-4 10-1 4v7l2 7v13l-3 7-4 5-3-1-3-14-9-17-2-6-1-14-7 6-7 8-7 20-9 9-6 2-2-3 3-10 1-26 4-10 3-9-16 4-7 3-8 6-8 8-11 4h-6l-3-3 7-8 6-8 6-12 7-8 9-6 1-2-9-2-6-2h-9l-12 4-6 1-12-3-4-3 1-4 13-4 17-11 8-3 10-2-1-4-8-8-8-4-19-5-9-7-3-5 1-4 12 2h10l7-1h9l10 3 6 1-3-9-3-10-5-8-11-10-5-10v-11l5 1 9 8 22 11 8 9 4 4h1l2-14v-17l-4-10v-12zm54 3-7 8-4 21-6 10-8 11-2 2h-2l-1-7-2-11-7-11-8-11-5-11-3 3-1 10 1 7 3 8 1 3v11l-3 16v3l-5-1-6-7-5-5-9-6-11-5-9-6-4-2 2 10 3 5 13 12 5 11 3 12 2 6-1 1-8-1-7-3h-32l-6-1 1 4 8 7 20 5 10 6 6 7 5 2 4-21 8-13 8-9 11-7 9-4 9-2h20l13 4 14 9 6 6 3-1 2-7 4-2 5-5 6-12 5-14 5-7v-2l-7 1-8 6-10 13-10 6-10 3-3 2-4-1 1-10 2-9v-12l-2-18v-7zm-28 58-16 5-12 7-9 9-8 13-4 13v19l3 9 7 14 9 10 12 8 9 4 9 1h14l12-2 11-6 11-8 7-9 6-13 3-14v-8l-2-10-5-13-6-9-7-6-5-5-13-6-11-3zm98 12-15 7-5 1h-23l-1 2 8 14 3 11v17l-2 9-8 16-4 6-10 9-12 6-11 3h-22l-13-4-6-2-2 9-4 11-1 23-2 13 4-1 7-8 6-17 5-8 10-9 1-2h3l1 16 6 15 6 11 2 9 3-1 3-9v-7l-2-8v-12l6-15v-5l5 3 5 9 9 10 15 11 6 7h2v-9l-5-10-7-9-3-6-1-6v-11l-2-4 6 2 11 7 12 3 18 3 7 3 1-2-7-10-16-8-8-6-9-14-1-4h22l19-6 12-2-2-4-9-4-23-1-18-8 1-3 13-5 10-8 9-9 11-6v-2l-2-1zm-151 46-4 3-15 3-9 5-3 2v2l-5 2-12 4-1 3 8 3h9l11-4h13l16 4-1-5-2-7-3-15zm8 29-3 5-9 6-6 7-10 17-7 7v2h7l10-5 10-10 7-4 14-3 6-2-1-4-9-8-4-6z"/><path transform="translate(676,139)" d="m0 0h10l6 4 4 6h10l4 2 3 8 7 3 2 6-3 5-1 1h-63l-4-4-1-9 5-7 3-2 7-1 3-6 6-5zm2 2-7 4-3 5-1 4-9 1-4 3-1 3v7l5 5h57l4-4-1-5-5-3-3 1-1-7-5-5-7 1h-3l-4-7-6-3z"/><path transform="translate(306,147)" d="m0 0h7l12 4 8 7 6 12 6-2 2-1h10l8 4 6 8 2 11 10 2 6 4 3 7v8l-6 7-2 1h-127l-8-7-3-7v-11l4-9 5-6 8-4 10-1 5 1 1-7 3-7 5-5 7-6zm-6 3-9 5-7 8-4 11-1 4-4-1h-10l-8 4-6 7-3 9 1 9 3 6 6 5 5 1 119-1 6-4 2-4v-7l-4-6-7-3h-8l-2-13-3-5-7-5-10-1-11 5-5-12-9-9-6-3z"/><path transform="translate(749,173)" d="m0 0h10l9 3 8 7 6 7 1 6 10-3h9l8 3 6 7 1 4 1 9 12 3 5 4 3 9-2 7-5 5-2 1h-126l-6-3-5-7-1-3v-12l3-8 4-5 6-4 6-2h13l2-9 5-8 10-8zm3 2-10 3-6 4-7 8-4 11v4l-8-2-8 1-8 4-5 6-3 7v8l3 8 5 5 4 1h121l5-2 4-6v-6l-4-6-4-3-3-1h-9l1-2-1-9-3-6-7-6h-15l-7 4-4-10-6-8-12-6z"/><path transform="translate(587,243)" d="m0 0 5 2 3 4-1 5-5 3-5-1-2-2v-7z"/><path transform="translate(254,246)" d="m0 0 10 1 9 6 4 5 2 4 13 3v2h-2v2l-9 7-5 13-7 8-6 3-5 1h-11l-9-3-7-6-5-8-6-10v-6h2l-1-10 3-5 4 1 4 6 5-5 7-6zm-3 3-10 5-5 7 1 4 14 5 3 4v8l-4 5-4 2-11 1 2 4 9 5 7 1 9-2 9-6 6-9v-20l-5-8-5-4-5-2zm-26 7-1 1v7l5 8 3 3-6-3h-3l1 5 6 7 5 4h12l5-4 2-6-3-6-14-6-8-7-2-3zm55 9-1 1v5h4l4-3-1-3z"/><path transform="translate(531,246)" d="m0 0h6l4 5-1 5-3 3h-6l-3-4 1-7z"/><path transform="translate(395,252)" d="m0 0h10l6 3 5 6 2 4 6 1 6 4 5 8-1 9h-2l-2 4-4 2h-78l-4-2-2-7 3-7 10-4 3-8 7-6 2-1h10l6 2 7-7zm3 1-8 3-6 7v2l-7-4-7-1-8 4-4 5v8l-7-1-6 5v7l4 3h22l57-1 4-5v-9l-4-5-5-3-7-1-4-8-5-4z"/><path transform="translate(590,260)" d="m0 0h9l3 3 1 6-3 5-2 2h-7l-2-2-5 1-9 7-11 3-11-1-10-5-4-3v-2l-7 4h-6l-5-5v-7l5-4h7l5 4 2 6 6 5 9 4h12l10-4 8-7 2-8zm1 2-3 3-1 4 5 5 6-1 2-3-1-7-2-1zm-64 2-4 4 1 6 3 2h5l4-5-1-5-3-2z"/><path transform="translate(262,265)" d="m0 0 4 1 2 2-1 5-2 2-4-1-2-5zm1 3v4l2-1-1-3z"/><path transform="translate(789,277)" d="m0 0h14l10 6 5 7 2 1 2-4 5-5 3 5v10l2 1-2 10-4 6-6 10-9 6-7 2h-9l-9-3-9-8-4-8-3-8-8-7-2-2 2-2 10-2 11-12zm2 2-7 3-5 4-4 9-1 5v8l4 10 5 6 10 5h13l10-5 2-4h-11l-7-4-3-9 2-5 5-3 11-4 1-4-7-8-8-4zm33 8-7 8-8 4-7 2-3 4v6l6 7 3 1h7l12-10 2-5-1-3-6 4-3 1v-3l5-2 4-6v-8zm-55 8-4 1 1 3 3 2h3l1-5z"/><path transform="translate(736,290)" d="m0 0h7l1 3h-7l-5 4-1 2-4-1-3-3-7-1h-3l1-3h8l5 3 4-2z"/><path transform="translate(786,296)" d="m0 0h5l2 2-1 5-1 1h-6l-2-4zm1 2v4l3-1-1-3z"/><path transform="translate(226,322)" d="m0 0h9l7 5 1 4h2l3 8 4-2 4-3 5-1h8l5 3 1 4-4 10-4 4 8 6 4 7 1 7-4 4-6 2-10-1-6-3-5-4-2 9-6 7-3 15-1 17 4-4 7-8 9-6 10-4h9l3 3-1 9-2 7-4 7 18 1 20 2 2 1v-2l-4-2-6-8-3-7-1-4v-16l2-3h6l10 7 6 7 4 5 2-12 3-11h-12l-7-3-1-1 1-7 9-10h2l-7-9-2-10 3-4 8-1 9 3 5 3 2-6 4-5 7-4h5l4 6 1 10-3 9 9 1 8 5 4 7-2 4-10 5-9 1v11l-2 7-4 4-6-1-9-7-3 17-1 9 5-4 5-5 5-4 8-4 3-1h13l2 2v7l-4 10-9 10-11 6h-3v2l9 1 22 5 19 6 14 4 7 1 12-3 4-6 6 2 5 1 4-2 5-6-8-6-4-5v-6l4-4 8-2 10 3-1-9 4-8 2-2h7l6 5 2 6v4l8-3h10l4 4-1 9-4 5-2 1v2l6 4 25-1 18-1 37-1 4-4 1-6 5-3v-11l2-4h9l10 4 5 4 2 5h2l1-4 7-8 6-3h9l2 5v13l-4 8 9 3 7 8 2 7 9 2-1-8 2-4h9l11 6 7 6 3 5 4 1-1-18-1-5-10-4-8-7-4-7-1-4v-14l2-7 3-3h5l5 3 6-8 4-1 5 3 4 5 5-2 7-1 4 6 1 4v16l-5 10-5 5-9 5 1 19 5-5 4-5 6-4 5-2h8l3 4 2-2h10l8 3 12 9 9 1-1-6-8-4-4-5-1-6-5 3h-10l-7-5-2-4v-9l3-5 2-4-5-3-3-5v-10l4-6 9-3 8 1 2-9 5-5 7-3 8 2 5 4 2 5v4l7-3h8l6 4 3 5v10l-5 6 1 3 5 5 2 5-1 7-4 6-7 3-9-1-1 8-4 4v8l5 1 7-7 7-4 7-3h6l3 4v10l23 2v1l-24 1-7 13-9 9-9 5v2l5 5-15-5h-8l-12 4-4 3v-3l5-2v-3l-6-1-6-4-10-9-5-6-2-6-6 2-6 9-7 7-5 3 3 4-2 1-6-3h-11l-11 5 2-5-6-3h-2v11l-3 11-7 11-9 8h-2l3 3v2l-14-2-9 2-7 6h-2l2-6-9-2-11-7-8-8-6-11-2-7-42 14-18 7-10 4-11 5-9 4-1 2v7l7 3h24l-1-8 3-9 7 1 6 4 3 4v3h3l2-4 5-3 9-1 2 7-1 11-3 5 17-3h17l4 4-2 8v6l3 1h12l15-3 13-3 25-8 5-1h19l5 5 3 7 4 4 4 1h20l24-4 11-2 17-5 9-4 5-5-1-11 6-5 14-4h24v2l-20 1-14 3-6 3-1 5 1 3v5l-7 6-10 5-35 8-22 3h-10l-9-2-6-4-5-10-2-2-9-1-16 3-19 6-23 6-6 1h-16l-5-4-1-4 3-9-4-2h-12l-7 1v2l6 7-1 5-10 5h-6l5 15 2 14v8l8-7 4-3 10-3h9l1 1-1 9-5 8-9 8-9 2v3l3 1-1 2-4-2-5-2-9-1-9 3-3 2v-3l1-3-6-1-9-6-6-7-2-6v-8h12l10 4 12 12-2-20-3-11h-2l-1 6-5 6-3 2-4-1-6-8-1-8-6 2h-12l-3-5 3-8 3-4-2-4-6-8v-5l-11-1-6-3-2-2v-9l-29 14h-2v2l-14 6-11 6-3 2-1 16 4-4 7-8 10-6 7-2h5l2 2v7l-4 9-6 8-5 4-10 4h-3l2 4h-3l-6-3h-8l-9 4-1-3-16-8-3-3-5 2-8 5-4 4 10 3 16 6 12 5 7 3 10 4 41 4 38 5 32 8 16 5 16 8 7 5 4 8v5l2 1 25-12 14-6 13-4-1-8 3-4h2l-1-9 4-5 8-1 10 4 7 4-5-16-9-2-10-1-5-3-1-2v-8l4-5 6-2 9 1 10 5v-2l3-2h9l5 4 3 6 1-1h7l4 4h13l3 2 1 6-3 5-8 9-2 1 10-1 21-4 30-4 28-2h37l1 3h-27l-19 1-3 2v7l-5 7-12 6h-4v-2l10-4 7-6 1-7-1-2-17 1-43 6-31 7-33 9-19 7-16 6-10 5v7l2 2 16 2 2 1v8l-2 5 1 4 3 2 11-1 26-7 9 1 2 2v3h2l-1-11 2-14 3-6 5-3 9 1 10 6 4 3 2-9 6-12 6-5h8l7 4 8 9 4 6 9-10 8-4 7 1 5 5 6 14 2 12 2 18 10-1 14-4 9-2h5v2l-13 3-23 6-3 3-3 13-6 11-9 10-9 6-10 4v9l26 1 20 2h7l8-1 5 3 7 3 4 2-3 1-5-1v11l-2 12-5 13-7 13-9 11-9 8-13 8-5 3-1 2 5 1 4 4h-4l-9-4-4-1h-20l-13 5-4 4h-3l2-4 4-3-19-7-15-10-12-11-7-10v-2h-2l-6-15-2-7-1-9-15 5-9 11-9 8-9 5-2 1 2 11 3 19 1 18 7-12h2l2-4 7-8 8-7 8-4 7-2 7 1 2 4v16l-3 10-3 8-7 10-8 9-14 9h-2l1 2 11 5v3l-15-6-10-2h-8l-14 3-9 4-4 2 1-4 4-2 1-2-5-1-15-8-10-9-7-10-4-8-3-14 1-7 2-2h13l15 6 10 7 8 7 11 15v-18l-3-22-3-13-21-1-16 8-25 14-9 5-13 8-12 7-10 6-19 11-14 9-14 8-9 6-7 4h-3l1-3 18-10 5-4 11-6 15-9h2v-2l10-6 11-6 25-15 11-6 12-7h2l-1-2-12-5-9-4-23-10-13-5-20-8-16-6-34-12-7-3-18 1 1 5 2 7 1 10-1 9-5 9-2 2h-7l-9-6-6-7v-2h-2l-2 21v18l1 9 4-5 7-10 9-9 14-9 13-4h11l4 4v10l-4 12-6 11-12 12-12 8-10 4h-2l5 5 2 4-4-2-8-5-9-2h-9l-10 3-5 2 2-4-14-9-10-9-7-9-6-12-3-12v-12l2-5 2-1h10l8 4v2l5 2 13 13 5 7 1-4 2-22 3-15-8 2h-16l-7-2-2-5 3-9 6-9 6-5 1-3-6-2-6-7-3-4-33-10-5-1-2 4-5 6-13 9-9 3-20 1-1 3-4 26-2 22h2l2-5 7-11 10-11 14-10 16-8 14-4h14l5 3 1 2v9l-6 18-8 13-9 10-7 7-14 9-12 6-11 3-1 2 5 5h-3l-10-6-9-3h-14l-13 4-7 5-3-1 4-4 5-2v-3l-6-2-12-7-10-8-11-11-7-10-7-16-4-16v-17l3-5 4-3 9 1 14 6 13 11 13 13 9 15 5 12 2 1v-11l3-22 2-13-11-6-9-7-10-12-3-9-2-7-10-2-23-2-20-1-9-1v-2h22l38 4 1-1 2-22 2-10 3-10-3-1-19-2-23-5-12-5-6-5-1-7 3-6v-4l-8-4v-1l7 1 5 5-2 6-2 4 1 7 5 2 19 6 23 4 16 1 6-9 4-2 8 1 6 4 6 9 4-1 10-11 5-3h9l5 3 7 13 2 6 9-2 4-3 1-6-3-8 1-6 5-3h8l25 5 14 3 21 1 7-1 3-3v-6l-4-7v-6l3-2 19-1 10-3 4-4-1-3-22-9-20-7-12-5-13-4-24-8-12-3-27-8-15-3-39-9-16-2-16-3h-5l-3 5v9l6 8 11 7 15 6 18 5 1 2-8-1-15-4-12-5-9-5-7-7-3-5-1-8 3-8-32-4-12-1v-2l26 1 20 2-5-10v-8l3-4 9 2 11 7 7 8v2h2l1-13-4-2-3-6v-5h-9l-6-4-2-4v-9l4-6 3-3-3-3-1-3v-7l4-6 5-3h7l6 2 4-6 5-3h9l6 4 2 5v6h9l6 4 3 4 1 6-3 7-6 5 3 5v8l-3 6-6 3h-7l-3-2h-3l-3 5-5 4h-2l-1 16 8-7 9-5 5-2h12l3 2v6l-6 9-5 6 13 4v-10l2-2 7 1 6 4 7 8 2 1v-13l-9 1-5-5 1-7 6-9-6-2-4-5-1-7 4-4 3-1h7l5 2v-8l2-5 5-3 7 1 4 4 1 9 7-3h9l4 4-1 7-4 6h-2v3l5 2 4 5v7l-5 3h-12l-1 10-5 5-6-1-5-3v12l4-1 7-5 8-3h9l3 3-1 7-4 8 11 2 13 4 10 4 15 5 7-1 14-8-1-6-1-2v-7l3-1h12l8 3h6l-3-5-3-6v-12l-3 1h-8l-8-3-3-3-1-7 4-6 5-5-5-5-1-8 4-5 4-2h11l5 2v-7l4-8 6-4 6 1 5 4 3 9v6l11-2 9 3 3 3 1 7-3 6-5 4v2l6 5 2 4v5l23-11 16-7-1-3-21-12-11-6-19-9-16-8-13-5-9-4v10l-3 5-7 3h-10l-8-1 3 7-1 5-3 3-6 2h-12l-19-4-36-12-12-5-6-4-2-2 1-4 4-3 5-1-3-3-18-7-8-6-3-5v-7l2-7-10-1h-16l-7 6-8 4h-3l4 6h-3l-8-4-4-1h-9l-10 4-4 2 2-4 4-4-5-2-8-6-1-1h-12l-30 3v-3l23-2 16-1-5-9-3-7-1-10 3-7 5-1 8 3 10 9 5 7v2h2v-10l1-7-5-3-2-5v-12l4-8h-8l-8-4-6-7v-5l5-4 5-2 8-1v-14zm3 1-3 5-1 4v7l4 8 4 1 6-3 6-2-1-8-4-6-5-4zm124 7-8 6-3 4-1 7 9 2 6 3 3-5v-11l-2-6zm-93 5-6 3-4 5 2 4 6 8 5-1 5-5 4-7v-6l-1-1zm58 5-1 1 1 9 4 6 5 3 4-1 5-8 2-4-7-5-3-1zm-100 5-9 4-2 5 4 5 7 4 7 1 5-2 1-11-4-5zm23 0-5 3-4 4-1 9 4 6 5 2h7l5-3 3-5v-7l-3-6-6-3zm98 5-5 5-1 3v8l5 5 4 2 7-1 7-6v-8l-4-6-3-2zm19 5-1 3-1 14 2 1h9l8-4 2-4-6-7-8-3zm-100 2-4 9-2 2 1 5 8 4h11l4-1 1-7-4-8-6-4zm69 4-5 2-7 7-2 5 1 4 3 1h12l5-3 2-2-1-4-3-5-2-5zm454 3-5 3-4 4v9l3 4 7-2h13l1-8-4-8-4-2zm-551 3-4 7-1 8 3 9 6-1 7-4 4-6 1-8-9-3-3-2zm121 6-3 1h-8l-2 5 3 9 4 5 5 3 4-2 3-7 1-7-3-7zm454 2-8 6 1 5 5 5 3 7 1 1 7-1 5-5 1-9-3-6-7-3zm-471 5-4 16-2 14 1 12 1 2h2l1-6 1-16 2-12 1-9zm422 0-5 6-1 8 4 7 4 2h7l3-9 4-7-1-4-4-3zm-49 3-5 6-1 3-4-1-5-3h-3l-2 6v18l5 10 5 4 6 2h12l9-4 6-7 3-8v-11l-3-9-2-2-5 1-5 4-7-9zm77 0-7 3-6 5-2 5v10l3 6 6 5 4 2h9l8-4 5-8v-11l-3-5-8-7zm-483 5-2 4v10l4 12h2l2 5 7 7 5 3 8 1v-11l-3-10-4-8-10-10-6-3zm-67 3-2 2-2 18v8l2 12h2l1-4 1-27 1-8zm-33 1-2 2v11l3 10 8 11 8 6h2v2l4 2h5l2-2v-7l-3-11-7-11-8-8-8-5zm162 8-12 4-6 4-7 8-4 6-2 5 1 4 5 2 8-1 14-7 6-5 6-11 1-7-2-2zm-92 0-12 3-13 10-7 10-4 9 1 3 10 2 12-5 10-8 7-11 2-7-1-5zm201 1-4 4-1 3v10l2 4 13-2 1-1v-10l-3-5-4-3zm335 1-4 10-3 4 1 5 6 4h7l6-4 2-4v-8l-5-6-2-1zm-165 3-8 4-5 6-2 5 1 5 6 3 3 3 5-1 4-4 3-8v-7l-2-6zm119 0-6 5-2 5 1 7 2 4 6 3 9-1 5-5 1-4-5-4-5-9-1-1zm-162 2-1 1v9l3 1 6 1 3 2 1 3 5 2 7-1 1-2-4-8-6-5-4-2zm-105 6-5 2-5 5 2 4 5 7 6-2 7-5 2-7-4-4zm-44 5-5 4 1 6 5 5 4 2h7l2-2 2-7v-4l-8-4zm150 2-8 6v6l-5 4 1 7-1 4 3 3 5 1 3 6 4 3 5-1 8-6 5-7 1-6-2-7-13-13zm195-1-2 1-14 1-1 2v9l4 6 8 2 8-3 3-5v-8l-4-5zm-320 3-5 2-3 3-1 3v8l8 7 8-1 5-5 1-2-1-9-5-5zm143 4v3l3 6v12l-1 4 9-1 5-3 3-5-1-9-5-5-4-2zm-320 3-3 4-1 7 4 7 14 7 13 5v4l-8 6v3l8 4 21 8 10 3 26 8h23l3-3-1-7-1-5 22-1 5-5 1-2v-10l-8-3-30-11-16-4-23-6-43-8-7-1zm414 1-1 1v35l2-1 1-4v-25l-1-6zm-68 1-5 3-2 14 4 3 3 1h7l10-4 1-5-7-9-8-3zm-153 2-4 8 1 5 4 3 4 1h7l4-2 1-5-4-6-8-4zm335 2-9 4-10 9-5 8-3 5-3 15 1 1h9l13-9 7-8 5-12v-13zm-268 1-9 1-4 4-17 6-6 3-1 4 4 3 12 2 14 1 1 4-1 4 5 3 6 1h22l7-2 2-4 1-12-7-4v-9l-2-4-5-1zm181 0-7 3-8 7-7 11-3 10v5l1 1 9-1 10-7 6-8 5-12v-6l-2-3zm-279 1-5 4-4 7v7l2 2h8l6-4 4-5v-3l-5-5-2-3zm64 0-14 1-1 4v6l-4 3-7 1-7-1-2 13 4 5-6 7-6 3 1 3 14 7 20 11h2v2l12 7 11-3 24-10 13-4 19-7 9-2 18-6 2-3-4-4-2-7-3-1-9 6-5 2-24 3h-13l-14-2-3-3 1-7-1-1-22-1-6-3-1-5 5-4 9-4 12-4v-2zm228 0-2 2v8l5 12 7 9 9 6 9 4h8l4-2-4-13-8-12-13-10-11-4zm-75 2-1 1v8l4 10 5 6 6 4 5 4 11 2 3-1-1-8-3-6-7-9-9-8-7-3zm117 2-2 1v26l2 4 2-6 1-10-1-14zm-312 4-1 1-7 1-1 1v9l5 6h8l3-4v-7l-3-6zm-47 1v9l3 7 11 5h4l-1-6-6-10-7-5zm312 0-1 4h2zm-498 3-5 6v8l5 1 9 2 5 1 3-7-2-7-4-4zm198 0m187 0-8 3-4 2-1 2v9l3 6 5 4 5-2 5-7 1-3v-10l-4-4zm26 0-6 4-7 2 4 7 3 6 8-1 16-4 1-4-4-6-8-3zm124 1v4l4 6 2-1v-8l-1-1zm16 0-1 4h2l1-3zm-371 2-6 2v2l10 4 1-3-2-5zm189 1-9 7h-9l-5-1v9l1 1 9-1 6-3v-2l4-2 4-4 1-3zm-149 1-4 4-3 7v3l12-4-3-10zm173 0 2 10 7 14 4 13 1 12 2 7h2v-17l-4-17-8-16-4-6zm-415 3-5 5-1 7 4 6 5 2h4l3-6 5-5-1-5-5-4zm233 2-3 6v5l3-1 2-10zm-6 1m-184 4-6 3 1 5 3 12 1 1h8l5-5 1-2v-6l-3-5-4-3zm371 1-4 7h7l1-4-2-3zm39-1-23 6-1 4 5 16 3-1 6-11 5-6 8-6-1-2zm-434 2-7 4-3 5-1 8 3 8 5 4 3 1h10l5-3 4-5 1-11-3-5-6-5-3-1zm226 0-9 5 3 3 8 4h7l4-2v-2l6-3-1-4-3-1zm213 2-9 6-7 8-6 14-1 5v12l1 1h6l10-7 7-10 4-8 1-4v-14l-2-3zm-235 6-6 5-3 5v10l2 1 16 1 2-3v-8l-3-6-6-5zm194-1-17 5-1 3 10 3 8 6 7 6 1 2h2l-1-9-5-14zm-418 6-5 3-3 4v8l7 6h6l7-6-4-9-2-6zm389 2-2 1v7l4 9 8 9 8 6 11 4h8l5-3-2-9-7-9-7-7-11-6-9-2zm-297 3-4 5-1 8 2 5 12-1 1-2v-7l-3-6-2-2zm-51 3-5 7-5 4 2 6 4 3 7 1 5-3 2-2 1-8-3-5-5-3zm158 4-7 4-1 4 3 6 5 4h7l6-9 2-5-5-3zm43 2-7 4 6 9 3 6 7-1 6-5 1-2v-6l-5-4-2-1zm-128 1-8 4-3 3 5 10 6-1 6-5 1-8-5-3zm-101 2-3 4-1 6 4 6 4 3h6l5-3 2-5-1-8-13-3zm210 0-8 3-5 6-2 6 1 9 5 7 7 3h7l8-4 5-8v-10l-5-7h-2v-2l-8-3zm-152 3-3 3 1 5 4 5 6 2 5-1 3-10-3-3-3-1zm24 4-6 3-3 3v7l3 5 4 2h7l5-4 1-2v-9l-8-5zm105 8-8 4-4 5 1 6 6 4h12l4-2-1-4-3-6-2-7zm-216 1-1 1 1 9 5 9 2 2 16 3h5l-1-6-11-12-8-5zm125 1-4 8 2 4 7 4 7-1 3-3-1-5-5-5zm135 2-5 10-4 4 1 3 10 3 10-2 3-3-1-7-4-5-6-3zm82 1-1 3v10l1 3 5 3 9-3v-6l-4-6-5-4zm-309 1-2 5v14h3l2-16v-3zm63 0-6 5-1 3v8h9l5-3 3-3-1-4-5-6zm277 1-7 3-6 7v5l5 3 3 3 4-2 3-4 1-3v-10zm-311 3-9 3-9 6-5 5 1 4 9 2h10l10-9 3-6-1-4-1-1zm55 3-7 1-2 5 3 9 3 3h5l3-3 1-8-2-5zm112 5-2 3v13l4 6 6 1 7-6 3-6v-8l-4-1-9-1zm-125 2-3 14v6l4 1 2-13-1-8zm146 2-2 10 5-1 7-3-1-3zm81 0-5 2 2 7 6 6 8-1 3-7v-4l-4-3zm24 1-7 4-3 4v8l5 6 5 2 7-1 5-5 1-7-3-7-4-3zm-276 2-2 4 2 7 14 4h3l-1-4-5-6-9-5zm292 6-1 1-1 9-1 3 3 2h12l6-3v-5l-7-6-2-1zm-240 4-8 2-9 5-1 2 14 5 4-1 4-5 1-7zm140 2-11 5-6 5-4 5-4 11v3h7l8-3 6-4 7-8 4-9v-5zm68 2-5 3-4 4-1 8 2 1h8l8-3 2-2-1-5-5-6zm-98 1-3 4 1 13 3 7h2l-1-24zm-36 3-1 1 1 7 9 10 4 3 9 3h8l4-1-1-7-8-9-12-6-4-1zm29 1-4 3v2l6 4 1-1v-8zm132 2 2 6 5 12 2 8 1 26 2-3 1-2v-21l-1-9-5-12-5-5zm-5 2-9 1-2 2v10l4 8 5-1 6-7 1-5v-6l-2-2zm103 15-5 3-2 3 1 5 5 4 18 1 1-3v-8l-5-4-4-1zm25 1-4 5-1 3v14l6 17 4 3 20-5 14-12 3-4v-7l-3-2-6 1-6 5-2 5h-2l3-6v-5l-3-3-6 1-4 5-1 2 1-8-3-8-1-1zm-147 11-1 2 1 6h2l2 5 7 7 6 4 11 1 4-2-3-8-9-10-7-4zm61 0-12 6-5 5-4 5-3 7 2 2h8l7-2 10-8 6-10v-4zm-174 12-5 8-10 3h-17l-5 2 1 6 4 8-2 7-8 3h-16l-19-3-18-4-6-1h-14l-2 3 1 5 2 5v9l9 1 4 5 1 5v18l-3 15-3 11-3 7 2 2 16 4 13 4h3v-9l4-3 7-2h12l10 4 3 1 2-6 2-9 4-6 9-9 5-1 7 8 5 10 23-10 24-10 10-3 20-8 19-8 9-7 2-2-1-5-5-4-12-7-15-6-15-8-8-3-15-7-20-9-9-4zm234 7-4 3 1 6 2 2h6l-1 2h-8l-3 2v6l5 1 10-3 5-2 12-3-1-4-6-5-10-5zm-206 1v2l16 7 15 7 23 11 16 8 4 4v7l-4 5-16 9-14 5-18 7-17 6-11 5-11 4-14 8-1 1-2 15 3 1 4-1h7l8 2h4l3-6 8-6 9-5 12-5-3 3-10 4-10 6-8 8 1 4 8 6v5l-9 10-5 3v2l20 8 16 5 12 5 13 5 35 14 14 6 6 3 4-1-12-9-13-11-8-8-11-16-4-15 1-12 4-9 8-11 11-11 14-11 10-7 11-7 21-12 1-2-1-9-6-7-7-4-15-7-11-4-36-8-26-4-22-2zm289 19-7 6-6 14-2 8-4-2-5-5-8-4h-8l-3 2-3 14v15l2 17 5 12 7 10 7 7 10 6 16 4h12l18-4 9-6 10-9 8-13 3-12v-21l-4-17-7-14-2-2h-7l-6 4-7 8-2 4h-2l-6-11-9-9-5-2zm-469 7-10 8-8 11h-2l-4-8-6-7-5-3h-6l-6 8-7 16-3 16v20l4 12 7 11 10 9 15 7 15 3h9l12-3 12-6 9-8 7-11 5-14 2-12v-23l-2-5-2-2h-9l-11 6-5 3-5-17-5-8-4-3zm342 13-16 8-15 8-14 8-18 12-9 8-11 9-9 10-7 11-2 8v10l3 9 8 12 9 10 10 10 17 13 15 11 6-1 10-6 7-4-3-3-11-7-7-7-7-14-4-15-1-10v-9l2-10 1-4 8-1 10 3 7 4 2-5 3-9 6-7 3-2 8 1 9 7 6 8 5-5 7-6 2-1h8l6 8 5 12 2 11 1 8v11l-2 12 11-2 5-3 3-5 2-1h16l25-5 18-3 8-1 2-4-2-6-19-2-13-5-10-8-7-9-4-8-5-17-4-6-2-5-1-1h-10l-20 6-6 1h-9l-4-2-1-2v-6l3-6-2-4-1-1-13-1-5-4-2-6zm-210 38-7 5-6 9-3 7v11l4 2 4-1h9l6 3h4l3-10-2-12-6-11-3-3zm202 14-6 7-5 14v4l-12-8-3-1h-9l-3 5-1 5v17l3 15 3 10 3 5h2l2 4 4 5 10 7 12 4h19l13-4 9-5 5-4 7-10 5-12v-25l-4-15-7-13-4-2-5 1-8 7-5 7-2 1-2-5-6-8-8-6zm-248 12-7 3 1 9 3 7 7 7 7 3h9l2-9 4-6 4-4-2-4-9-5-4-1zm37 9-8 4-4 5-3 8 1 10 1 3h2l2 4 6 5 9 2 8-2 9-8 3-6v-9l-4-9-8-6-3-1zm27 1-5 3 2 4 3 7v15h10l9-4 8-7 3-4v-5l-9-6-9-3zm-246 5-2 4v20l3 12 6 15 5 8h2l2 5 5 5 6 5 5 5 15 9 9 4 11-1 1-1v-14l-4-17-4-11-10-17-11-13-10-8-10-6-9-4zm581 6-2 1 1 13 3 25v29l-1 11 4 16h3l2-21 2-7-1-41-4-24-2-2zm-506 5-1 1-5 38-1 18 3 21h2l4-16 1-2 1-24 3-24 2-10-4-2zm122 5-10 4-8 9-3 9 1 5 9 3h7l13-4 6-5v-5l-5-4-6-12zm-48 1-16 4-10 4-15 10-11 10-10 13-9 17-4 14 3 2 12 2h9l11-4 16-8 6-4v-2l4-2 7-6 6-8 4-4 6-12 4-12v-11l-5-3zm443 1-1 2 2 15 2 29h2l8-15 9-10 5-5 9-8 8-5-4-2-9-1zm55 1-12 5-11 7-10 9-11 15-8 18-4 15-1 12 2 2 12 1 13-7 10-7 10-9 9-12 7-14 4-16v-14l-3-5zm-74 0-35 5-9 3v2l16 8 14 11 8 9 11 17 3 3 1-19-2-31-1-7-1-1zm-62 8-5 5v9l5 18 6 11 12 13 7 7 16 9 13 5h12l6-2v-7l-4-15-6-11-7-10-9-10-9-8-9-6-17-7zm-272 4-5 3-5 1h-13l-1 4 2 9 4 8 8 8 9 4 5-7 3-10v-9l-4-10zm-27 9-3 3-3 14-2 18v21l4 17 1 8h2l2-11-1-42 1-2 1-11 1-8-2-7zm-51 19-3 4v15l4 13 6 11 13 13 11 7 6 3 7-1 1-1v-13l-4-13-3-8-10-14-9-8-11-6zm291 8-3 1 1 8 2 10v5l1 2 1 19v20l3 10h3l3-17-1-22-3-22-3-14zm-186 0-14 3-11 7-10 9-8 9-6 10-5 14 2 4 10 2 8-1 16-8 9-7 9-10 5-10 3-8 1-10-1-3zm238 13-8 3-13 10-7 8-8 14-4 11-1 17 12 1 13-8 10-9 7-10 4-7 2-7 2-10v-8l-2-5zm-107 10-2 2v12l4 11 10 13 10 9 16 8 9 1 10-3 1-4-3-9-7-12-7-9-9-8-14-8-11-3z"/><path transform="translate(686,327)" d="m0 0h7l8 4 3 2 5-4 4-2h10l1 3h-10l-6 4h-2l-2 4-8-6-8-2h-6v-2z"/><path transform="translate(447,350)" d="m0 0 6 1 9 3 4 6 1 1v12l-1 5 4 5-1 5-3 2-8 1-5-1v7l-3 6h-7l-5-4-3-5-9 4h-7l-2-3 1-8 1-5-5-4 1-6 5-4 10-1 9-7 3-6zm1 2-5 5-3 8 1 6 5 5 6 3 10-2 2-4-1-6 2-2-1-4-3-5-7-1-3-3zm-13 13-5 5v8l4 4h8l5-2-5-5-3-5-1-5zm-12 4-6 4-1 5 4 2 6-1 2-7-1-3zm4 11-5 4-2 4v7l5 1 8-4 2-2 1-5-6-5zm32-1-9 1v4l5 4h9l3-2-1-5-2-2zm-15 4-7 3v7l6 7 6 1 2-6-1-8-3-4z"/><path transform="translate(447,359)" d="m0 0 1 3v2h3l-1 3h-2v3h2v2l6-1v3h-8l-4-5v-6z"/><path transform="translate(393,399)" d="m0 0 7 2 3 3 9-1 5 4 1 2v6l-1 3 4 4 1 7-4 5-6 1-1 7-5 4h-6l-5-4v-2l-5 2h-6l-4-3-1-12-4-5v-6l4-5 6-1 2-8zm-2 3-3 4 1 6 2 2 9-1 1-1v-6l-4-4zm16 3-4 3-1 4 5 5 4 1 4-3v-7l-3-3zm-26 8-3 2-1 5 3 5 5 1 3-1 2-9-4-3zm16 1-6 5v8l5 4 8-1 2-3v-8l-4-4zm13 6-3 8 1 3 2 1h7l3-4-1-5-4-3zm-23 6-5 3-1 7 5 4 5-1 3-3-1-4-5-6zm17 5-8 3 1 7 5 3 5-2 2-2v-5l-3-4z"/><path transform="translate(793,403)" d="m0 0h2l-1 5-4 3h-7l-5-5 2-1 1 2 7 1z"/><path transform="translate(718,411)" d="m0 0 2 1v2h-2l-1 3-3 2h-8l-5-4v-3h2l2 3 7 1 4-2z"/><path transform="translate(604,429)" d="m0 0 5 1 5 6 1 6-3 7-4 2h-3v-2l5-3 1-2-7 1v-3l7-1v-2l-9-2 1-2 7 1v-3l-6-2z"/><path transform="translate(190,462)" d="m0 0h8l5 5-1 5h-14l-2-2 1-5zm2 2-3 2v3h11l-1-4z"/><path transform="translate(742,488)" d="m0 0 9 1 5 5v5l-1 1h-20v-6l5-5zm-1 3-4 3v3h16v-3l-4-3z"/><path transform="translate(364,506)" d="m0 0h9l4 5-1 4h-14l-1-1v-5zm2 2-2 2v3l10-1-1-3z"/><path transform="translate(486,574)" d="m0 0h7l5 3 2 2v5l-1 1h-19l-1-5 4-5zm0 2-5 5 1 2h15l1-2-5-5z"/><path transform="translate(636,607)" d="m0 0h8l3 3 1 4-1 1h-15l1-6zm1 2-3 2v2h11l-1-3z"/><path transform="translate(492,612)" d="m0 0 13 1 24 4 21 4 2 3-8-1-35-6-15-2-2-1z"/><path transform="translate(514,622)" d="m0 0 16 5 15 7 7 6 2 4v9l-5 8-9 6h-2l1-3 8-6 4-5 1-6-3-6-9-6-17-7-9-3z"/><path transform="translate(563,633)" d="m0 0 8 1 9 7 2 4-1 8-4 6h-2l2-5 1-2v-9l-6-5-9-4z"/><path transform="translate(584,633)" d="m0 0 5 1 7 6 2 5-1 7-1 2h-2l-2 4-3-1 5-6v-7l-5-6-5-3z"/><path transform="translate(782,668)" d="m0 0 7 1 2 3v5l-3 3h-7l-3-3 1-7z"/><path transform="translate(550,670)" d="m0 0 2 1-1 3-11 6-15 8h-3l1-3 16-8z"/><path transform="translate(522,671)" d="m0 0h3l-1 3-13 5-17 6-13 5-9 3-13 6-3-1 5-4 19-7 23-9 10-3z"/><path transform="translate(260,672)" d="m0 0h5l3 3v6l-3 4h-5l-4-4 1-7z"/><path transform="translate(741,675)" d="m0 0h7l3 5-2 5-2 2-7-1-2-2v-6z"/><path transform="translate(300,681)" d="m0 0 6 1 3 5-2 5-4 2-5-1-2-2v-6z"/><path transform="translate(371,684)" d="m0 0h7l3 1 2 3-1 5h-16l1-6zm1 2-4 4 1 1h12l-2-4z"/><path transform="translate(274,687)" d="m0 0 4 2 5 1h4v2l-7 2-5-2z"/><path transform="translate(259,691)" d="m0 0h3l3 9 6 5 8 3 9-1 7-5 1-2 3 1-3 5-6 4-3 1h-11l-10-5-5-6-2-5z"/><path transform="translate(784,688)" d="m0 0h3l-1 4-4 7-6 4-5 2h-11l-7-3-5-5-1-3h2l5 5 5 2h15l7-5z"/><path transform="translate(534,696)" d="m0 0 2 1-1 3-11 9-7 10-3 8v11l4 12 5 8 1 3-4-2-7-12-2-7v-15l7-14 11-11z"/><path transform="translate(500,710)" d="m0 0 2 2-6 7-1 4v15l4 9-3-1-4-8-1-4v-9l6-12z"/><path transform="translate(404,729)" d="m0 0 5 1 1 4-2 2-4-1-2-4z"/><path transform="translate(647,735)" d="m0 0h7l2 4-1 5-2 2h-6l-3-4 1-5z"/><path transform="translate(404,741)" d="m0 0 3 1 4 4h9l4-2-5 5h-7l-6-3z"/><path transform="translate(611,742)" d="m0 0h7l3 5-3 5-1 1h-6l-2-2v-7z"/><path transform="translate(651,752)" d="m0 0h2v5l-8 9-8 4h-7l-8-3-6-6v-2l4 2 5 4 3 1h10l8-4z"/><path transform="translate(486,795)" d="m0 0 9 1 3 4v5h-18l1-6zm1 2-4 3 1 3h11v-4l-3-2z"/><path transform="translate(210,818)" d="m0 0h8l5 5-1 5h-15l-1-5zm1 2-3 3 1 3h11l-1-5-2-1z"/><path transform="translate(730,837)" d="m0 0h7l6 3 3 4v5l-2 2h-23l-1-5 3-5 4-3zm-1 2-5 4-1 5 1 1h19l1-4-5-5-4-1z"/><path transform="translate(817,844)" d="m0 0h8l4 4 1 5-1 1h-17l-1-4 4-5zm0 2-3 2v3h13l-2-4-2-1z"/><path transform="translate(316,847)" d="m0 0h9l7 4 2 3v6l-1 1h-25l-1-1 1-7 5-5zm1 2-6 4-1 5 1 1h21v-5l-5-4-2-1z"/></svg>
