<?xml version="1.0" encoding="UTF-8"?>
<svg version="1.1" viewBox="0 0 1024 1024" xmlns="http://www.w3.org/2000/svg"><path transform="translate(508,203)" d="m0 0h11l10 4 6 5 2 3-1 5-2 1-1-7-6-5-8-3h-10l-5 3 1 6 5 5 7 3h15l-2 3h-13l-11-5-4-4-1-8 4-5z"/><path transform="translate(706,205)" d="m0 0 9 1 4 4v4h-2l-3-5-3-1-6 1-3 4v5l3 3h8l4-4h2l-2 4-6 4-6-1-5-4-1-8 5-6z"/><path transform="translate(277,208)" d="m0 0h12l1 2-12 1-7 6-2 3v12l-3-2v-10l5-8z"/><path transform="translate(292,211)" d="m0 0 4 2 4 6v11l-4 7-8 5h-10l-8-7-1-3 4 2 5 5h8l6-3 5-6v-11z"/><path transform="translate(631,242)" d="m0 0 10 1 8 6 5 5 1 4h-2l-1-4h-2l-8-8h-13l-8 5-4 10 1 9 5 8 7 4h10l7-4 2 1-6 5-3 1h-10l-8-4-6-7-2-5v-10l3-7h2l2-4 5-4z"/><path transform="translate(383,264)" d="m0 0h13l10 5 6 8 2 6-2 1-4-8-8-8-5-2h-11l-9 6-5 6-2 8v13l-2-3-1-3v-9l4-10 8-8z"/><path transform="translate(412,288)" d="m0 0 2 1-1 9-3 5-8 8-8 2h-10l-7-3v-2l6 2h13l5-1 1-3 6-5 3-6z"/><path transform="translate(733,293)" d="m0 0h11l1 2-11 1-6 5-1 6 4 8 5 2 9-1 4-5 2 1-4 6-5 2-10-1-6-5-2-6 1-8z"/><path transform="translate(491,295)" d="m0 0h9l7 5 1 11-2-2-1-6-6-5-9-1z"/><path transform="translate(482,303)" d="m0 0h1l1 10 3 5 3 1h8l6-4h3l-5 6-2 1h-12l-5-5-2-4v-9z"/><path transform="translate(295,328)" d="m0 0 8 1 7 6 4 8 1 7-4 6-4 1-7-3-8-9-2-5v-7zm2 2-5 5 2 9 7 9 8 2 3-3v-10l-4-6-8-6z"/><path transform="translate(540,352)" d="m0 0 5 1 3 3 3 1h57l9 2 10 6 2 2 4 1v-5h3l4 5 2 6 10 2 2 1-1 3-6 1 8 10-1 4v-2l-4-2-6-6v-5l1-1-5-1-2-3-2-6-2 5-3-1-4-4-9-5-10-4h-29l-6 1h-21l-6-3-4-1 1 8 1 7-11-2 3 15-5 11-1 4v12l1 8h2l2-10 6-12 2-3v-5l9 2 15 6 4 1v2l-8-1-13-5-4 2-4 4-6 15-3 15v21l4 9 6 10 7 6 10 6 9 3 5 1v2l-3 2 1 3 9 2v7l1 2h5l-4 7h-1l-1-5-4 1v7l2 4-2 6v2l-4-1 1-2v-15l-5-1-1-2h-5v-5l5-2 2-4-3-1-2 4-2-1h-2l-3 2h-4l-3-1 15-8-3-3-14-7-10-9-7-12-2-5-1-6v-25l-1-5v-24l3-7-1-9-1-2v-9l5-2 2 2 4 1-1-3v-8zm31 146-1 1v6l1 1h5l2-2v-5l-1-1z"/><path transform="translate(399,379)" d="m0 0 4 1-12 4-12 11-3 7-5 5-2 7v25l-2-3-1-4v-16l4-12 5-9 6-7 12-8z"/><path transform="translate(419,380)" d="m0 0 11 1 6-1 1 2-12 5-3-1v-3z"/><path transform="translate(470,380)" d="m0 0h8l24 12 9 10 5 8 2 5v5l-2-3-6-11-11-12-9-4-9-3-15-1v-2h9l-1-2z"/><path transform="translate(420,391)" d="m0 0h5l3 3v7l-3 1v-6l-4-2-1 4 2 4-5 7-3 1-3 6-3 2-2 6-3 3v7l-3 5-1 11h-2l-1-2-1-12-3-3 1-6 2-2 1-7 5-5 2-6 5-4 3-5 5-1 3-5zm-8 9-1 5 2 2 4-1 1-4-2-2zm-6 7-3 4 2 3h5l1-5-2-2zm-6 9-2 2 1 5 5 1 1-1v-5l-2-2zm-4 10-2 5 4 3 4-1v-5l-2-2z"/><path transform="translate(655,395)" d="m0 0 2 3 1 2v18l-2 7h-1z"/><path transform="translate(721,395)" d="m0 0 9 1 7 4 3 4 1 5h-2l-3-6-6-4h-11l-6 4-2 4v10l4 6 5 3h10l7-6 2-7h2l-1 7-6 7-5 2h-10l-8-6-3-4-1-9 4-9 7-5z"/><path transform="translate(625,396)" d="m0 0 4 1 1 18 5 18 4 7 9-1 4-8h3l-1 4-1 2v7l2 4v9l-3 2v-11l-3-4-12-1-4-8-6-19-2-16-14 2-1-2z"/><path transform="translate(579,401)" d="m0 0h29l-2 2h-26z"/><path transform="translate(383,404)" d="m0 0 7 2 6 1 2-1-2 5-3 2-2-4-8-3z"/><path transform="translate(544,415)" d="m0 0h10l1 3-14 2v-3z"/><path transform="translate(518,420)" d="m0 0h1l1 5v16l-2 8-1 19-2 9 1 7-4 4h-5l-7 7-16 9-5 2-1 2 4 1 21 10 1 1h6l17-8 11-7 9-5 3 1-2 3-13 6h-2l1 4h7l-2 5 6-1v-4l-3-2 6-4h6v-3h2l2 4v12l4 1v-6l1-2h2v5l-1 5h3v2l-14-3-7 1-4-2-2 4-2-2-3-6-2-1v-2l-2 1-1 3h-8l-4 4-3-2-5 2-1 4-15-9-14-7-5-3-4-3 11-3 17-10 6-7 6-10 3-10v-11l-2-11h2l2 3 1-2zm-8 61-1 4h4l1-2-1-2zm39 29-1 1v8l1 1h5l1-1v-5l-4-4zm-23 5 1 2 1-2z"/><path transform="translate(600,420)" d="m0 0 9 1 7 5-1 2-5-2-10-3z"/><path transform="translate(545,429)" d="m0 0h6l2 3v8l-4 3-5-1-3-5 2-6z"/><path transform="translate(298,433)" d="m0 0h3l-2 4-1 5 4 11 9 8h8l3-4-2-9-7-9-5-4v-2l4 1 6 5 6 11v10l-4 4h-10l-10-9-3-5-2-6 1-9z"/><path transform="translate(492,433)" d="m0 0h8l4 2v2h-13v-3z"/><path transform="translate(601,433)" d="m0 0 5 1 3 3 1 6-5 6h-6l-3-4v-7z"/><path transform="translate(433,438)" d="m0 0 1 3-7 10-8 9-7 6h-5v-2l7-3 12-12z"/><path transform="translate(369,439)" d="m0 0 9 12 8 7h5l3 7 2 3 4-1 2-1-2 4-1 7 4 8 5 1 3-2 6 2 5 6 16 9 15 4 7 1-3 5-8 4-9 5-8 13-7 11-7 7 2 4-1 4-4 3-1-4 2-4-4-1-1 3h-2l-4-10-7-1 1 3 2 2-1 8 7 2v3l4 2-2 2-1 5h2l1 5 2 2 5-1 7-6 19-9 1-1v-10l2 1 2 5-1 6 5 2 7 3v2h-8l-8 7-9 10-9 13-9 16-3 9-3 7h-2l2-11 8-16 7-12 8-10 7-8 5-5 2-4-4-1-19 10-10 9-11 11h-3v-5l-5-7-5-1-4 4-5-1-2-2v-3l-3 2-5-1-4-1-1 1h-7l-1-5h-5l-3-4-4-2v-11l-1-1-1-7-1-1 1-12-1-5 3-2 2 6 2 1h6l1-3-1-2-7-1v-3l5-6 8 1 2-7 4 1-2 3 1 6 4 4-9-1-1 4 2 3 8 2 2 4 1-2h2l1 2h3l2 3 5-2 3-2h4l7-6v-6l-4-4v-7l-1-2h11l2 2 1 10 4 4 1 6 2 3 5-1 8-13 7-10 5-4 12-6-3-2-12-2-14-7-7-5-1 1v6l-3 3-6-2-2-3 1-4v-4l-7-3-5-8-5-13-5-5-11-9-6-9-1-3zm42 47m-1 9 1 5 5-1v-4zm-7 25-2 2v6l1 1h5l1-1v-6l-2-2zm-47 7 1 4h4l-1-4zm51 4-3 4-2 5v3l8 2 1 5 4-1-1-4h-2l2-5-2-3-1-5zm-45 9-4 3 1 6 6 3 4-2 1-1-1-7-4-2zm-13 2-3 2-1 4 2 4h10l1-2-2-6-2-2zm41 5-1 2-5 1 2 5 3 2h8l1-1v-6l-4-3zm-16 1-5 3-1 1v6h-2l-1-5-7-1-5 4v6l1 1-4 1-1 4 8 7 2-1v-9l-1-1 5-1v2h-2v7h4l1-3 1 6 7 1 1 4 6-4v-2h-4v-7l-4-4-5 1 1-2 10 1 1 7 1 2h7l3-6 2 4 5 1 4-2v-6l-4-4h-8l-2 1-3-4-3 1-1-7-4 1-1-3zm-24 7-1 2h2zm54 11v3h2l-1-3zm-13 6-1 2 4 5h5l1 7 2 4h5l5-4-1-7-5-4-5-1v2l-7-4zm-4 2-5 3v7l4 1 4-4v-6zm-24 1-1 4 5 1v-4z"/><path transform="translate(442,443)" d="m0 0h6l-1 3-8 3-4 2v-4z"/><path transform="translate(503,442)" d="m0 0h3l-1 6 1 7-2 4-5 2-5-2-3-6 1-6 3-4z"/><path transform="translate(445,453)" d="m0 0 4 1 5 6v8l-4 4-7-1-4-6-3-9 5-1z"/><path transform="translate(561,459)" d="m0 0h2l3 5h10l2-4 1 3-5 5h-7l-4-2-2-3z"/><path transform="translate(501,461)" d="m0 0h7l3 3v5l-3 3h-9l-3-3 1-5zm3 2-5 2-1 4 3 2 6-1 1-5z"/><path transform="translate(634,464)" d="m0 0h6v2l-6 2-7 8-10 7-10 4-9 3h-4v2l10 2 11 3 7 6 2 7h-2l-3-6-7-5-10-3-2 7 1 5-4 2 1-13-4-1-2 1v-3l-6 1v-2l2-2-11-1v-2l19-1 12-3 12-6 12-12z"/><path transform="translate(446,473)" d="m0 0 6 2 2 2-1 6-6 2-7-1-2-2 1-5 3-3zm-3 3-2 2 1 5h7l2-2-1-5z"/><path transform="translate(484,476)" d="m0 0 1 2-3 5-8 1-5-3-1-3h3l3 3h6z"/><path transform="translate(724,495)" d="m0 0 6 1 7 6 1 7-2 1-1-6-7-6z"/><path transform="translate(330,496)" d="m0 0 8 1 4 5v7l-5 8-8 7-6 3-8-1-4-5v-7l5-8 10-8zm2 2-8 4-7 6-3 5-1 8 5 4 8-2 8-6 5-6 1-2v-6l-5-5z"/><path transform="translate(707,503)" d="m0 0h2l5 6 6 3h11l5-2-1 4-5 2-11-1-9-6-3-3z"/><path transform="translate(380,511)" d="m0 0 6 1 3 4v2h5v2l-3 3h-2l-4-8-4-1-1 1v10l-2 1-3-6-5-2v-1l7-2z"/><path transform="translate(594,512)" d="m0 0h2l-2 4-11 11-2-1 6-6 2-6z"/><path transform="translate(622,514)" d="m0 0h2l-1 8-1 7v48l1 11-2-1-2-18v-40l-2-2 4-7z"/><path transform="translate(382,521)" d="m0 0h2l1 8 5-1v2h3l-2 5-6-4-6 2v-4h4z"/><path transform="translate(261,524)" d="m0 0 9 1 6 5 1 3v10l-3 5-3 3h-3v-2l4-2 3-6v-7l-1-4-5-2-7-1-9 4 2-4z"/><path transform="translate(519,532)" d="m0 0 7 4 9 1 3-1 1 4h2l1-4h2l1 7 7 3-2 2-7-1-2 2-2-5-4-3-8 1-10 5h-5l-1-4 11-4-3-5z"/><path transform="translate(443,544)" d="m0 0h2l1 6-5 1-11 11-2-1 11-11z"/><path transform="translate(490,553)" d="m0 0h6l-1 3-3 2-1 7 9 8 8 7 4 6 5 5 9 15 5 10 2-4 2-7-1-3 11 2 6-2 4-8 1-7h2l2 10h-3l-5 8-4 2h-10l-3 10 1 9 5 15 2 10 4 18 2 12 1 19 6 19 2 9 10-3 1-4-6-21-4-17-3-13 1-11 5-17 3-13v-11l-6-5 2-2 6 4 2 2v52l8 16 8 10 13 19 4 8-2 1-6-8-7-10-16-24-5-8-1-3-1-23-4 16 1 12 3 14 8 30v12l-4-2-6 1-4 2-1 5-15 7-13 4-2 1v4h12l15-4 5-4 1 1 9-1 2-2v-10h2l1 11-3 3-5 2h-9l-3 3-14 4h-14l-4-6-11 1-3 6-1 1h-8l-17-9-16-5-15-7-10-4 3 8v10l-2 2-9 1-9-6-9-12 1-10-16-1-19-6-12-7-2-3-5-3-10-10-6-10-2-5 1-7 8-7 10-12 4-6 8-16 5-9 11-18 7-7 2 2-8 11-10 15-8 16-6 10-9 13-8 9-3 3 3 10 8 10 11 11 14 7 13 4 34 5 16 6 12 6 15 6 20 4h19l18-3 15-5 7-3 1-3-3-20-3-10-17-6-3-2v-2l-5-2-11-8-12-11-9-10-9-13-6-10-5-11-6-16v-2l4 1 5 16 10 19 8 11 6 8 12 12 7 5v2l4 2 11 7 14 5-2-21-4-21-2-13-5-13-7-18-7-12-6-9-12-14-7-6-6-1 1 5 7 9 12 23 7 18 2 9h-4l-6-19-3-9-6-11-5-9-10-13-4 1 4 16 1 9-1 6-2-1-6-30-14-2v-2l21-1 5-3-1-4zm-65 173-6 3-1 1v6l7 10 5 4 4 2 7-1 1-1v-6l-2-2h-6v-2h5l1-4-3-7zm66 23 1 3 8 4h6l1-1v-5l-1-1z"/><path transform="translate(563,558)" d="m0 0h5l2 5-2 2-5-1-1-5zm1 2v2h2v-2z"/><path transform="translate(704,559)" d="m0 0 4 2 5 4 4 9v7l-4 6-5 1-2-2 6-2 2-4-1-7-3-7-6-5z"/><path transform="translate(584,574)" d="m0 0h26l1 1v6l-2 2h-21l-4-2zm4 1-2 5 1 1h22v-3l-5-3z"/><path transform="translate(562,575)" d="m0 0h5l1 5-2 3-4-1-2-4zm2 3 1 2z"/><path transform="translate(624,598)" d="m0 0h1v11l-7 3-5 2-5 25-3 14v11l10 15 7 11 9 14 7 14 5 9-4 6-3 3-5 1-3 6-6 6h-2l1-4 6-7 2-5 5-1 4-4-1-5-5-7-5 1-10 7-7 4-4 11-4 2 1-5 3-9-3-1 2-2 6-1 11-6 7-6-1-6-8-11-11-18-7-11-1-1v-12l7-32v-6l-18-1v-2l28-2 4-1 1-9z"/><path transform="translate(438,604)" d="m0 0 2 2-6 20-3 16v35l4 23 2 6v4l-3-1-4-15-3-16v-37l4-19 4-12z"/><path transform="translate(314,608)" d="m0 0h10l2 2 1 9-4 4 1-8-3-5-10 1z"/><path transform="translate(303,619)" d="m0 0 1 3v6l2 3 9-1 6-7h2l-1 4-6 5-2 1h-9l-4-3v-8z"/><path transform="translate(651,630)" d="m0 0h9l6 4 3 4v9l-2-1v-6l-4-6-6-1h-7-3z"/><path transform="translate(746,668)" d="m0 0h13l9 6 2 3-9-3-3-2h-11l-8 5-3 4-2 5v9l4 8 5 4 5 2h9l9-5 3-3h2l-1 4-9 7-4 1h-8l-10-4-7-8-2-5v-11l4-9 9-7z"/><path transform="translate(771,683)" d="m0 0 3 1v13l-3 2-1-3z"/><path transform="translate(274,714)" d="m0 0h10l6 4 5 6 1 2v8h-2l-2-10-4-5-4-2h-9l-5 1z"/><path transform="translate(263,735)" d="m0 0h2l4 7 5 3 7 1 8-5 4-5h2l-2 5-7 6-4 1h-7l-8-4-3-3z"/><path transform="translate(599,746)" d="m0 0h3l1 7h6l6-3h2l-2 4-5 3-6 1-5-4z"/><path transform="translate(684,749)" d="m0 0 4 1-3 2-5 3-1 1v9l4 1h10l9-5-1-8-4-2 1-2 6 4 1 1v6l-4 6-7 3h-12l-2-1v-2l-4-2v-8l5-6z"/><path transform="translate(450,760)" d="m0 0h4v2l-8 4-3 3-1 4 3 6-4-1-2-5 1-4 5-6z"/><path transform="translate(474,770)" d="m0 0 1 3-5 6-10 3h-12l-1-2 14-1 10-5z"/><path transform="translate(547,782)" d="m0 0h5l6 5 4 6 1 3v10l-5 10-8 5-2 1h-11l-9-5-6-9v-14l3-2v14l5 9 8 4h10l9-6 3-6v-11l-4-7-9-6z"/><path transform="translate(351,793)" d="m0 0h17l6 3 3 4-1 7-7 6-6 1v-2l8-4 3-5-2-5-6-3h-12l-7 3-3 5 1 5 4 3 3 1v2l-7-2-4-4v-8l7-6z"/></svg>
