<?xml version="1.0" encoding="UTF-8"?>
<svg version="1.1" viewBox="0 0 1024 1024" xmlns="http://www.w3.org/2000/svg"><path transform="translate(509,176)" d="m0 0h8l10 3 9 6 3 6-2 6-6 4h-13l-12-5-5-6-1-6 3-5zm0 2-5 3-2 3 1 5 4 5 8 4 4 1h12l5-3v-7l-4-5-11-5-4-1z"/><path transform="translate(724,178)" d="m0 0 8 1 5 6v7l-3 5-7 3-6-2-5-4-1-7 4-6zm0 2-6 5v8l4 4h8l5-4 1-5-3-5-5-3z"/><path transform="translate(263,181)" d="m0 0 8 2 6 4 4 7 1 7-3 9-5 5-6 3h-10l-8-6-5-7v-10l4-8 8-5zm-5 3-5 3-5 6-1 3v8l2 5h2l2 4 6 3h8l6-3 5-6 1-2v-11l-5-8-4-2z"/><path transform="translate(644,219)" d="m0 0 8 1 8 5 6 7 2 9-2 12-7 8-9 4h-9l-7-3-7-7-3-5-1-4v-8l3-7 5-6h2v-2l6-3zm-4 3-9 5-4 6-2 7 1 9 5 8 7 5 4 1h8l8-4 4-4v-2h2l2-5v-11l-3-6-7-7-4-2z"/><path transform="translate(374,242)" d="m0 0h11l10 5 7 8 3 8v12l-3 9-10 9-10 3h-7l-8-3-8-6-5-8-2-6v-8l5-12 9-8zm0 2-7 3-8 7-4 8-1 8 3 12 6 7 9 4 8 1 9-2 8-6 4-5 2-7 1-9-4-10-10-9-6-2z"/><path transform="translate(753,274)" d="m0 0h10l6 4 4 8-1 8-4 6-7 3-9-1-6-4-3-7 1-9 5-6zm0 2-6 5-2 5 1 7 3 5 6 3 10-1 6-7v-9l-4-6-3-2z"/><path transform="translate(490,276)" d="m0 0h8l5 3 3 3 2 9-3 9-5 4-5 2-8-1-6-4-3-7v-7l5-8zm-2 2-6 5-2 5 1 8 3 5 4 2h9l6-4 3-4v-8l-4-6-5-3z"/><path transform="translate(277,312)" d="m0 0 7 1 7 6 4 5 3 10-3 7-3 2-7-1-6-4-4-5-4-9v-6l4-5zm1 2-5 5 1 7 4 8 7 6 6 1 4-3v-9l-5-8-7-6z"/><path transform="translate(543,338)" d="m0 0 4 1 5 4 4 2h24l18-2 16 1 11 2 10 5 7 6 2-1v-7l4 2 4 7v5h9l6 3-1 2-7 2v2l7 7 5 13v16l-3 12-1-4 1-10v-13l-2-11h-2l-6-7-3-2 1-5 3-1 1-2-8 2-2-2-2-9-2-1v6l-3 1-5-5-9-6-11-4-5-1h-24l-15 2h-16l-10-4-3-2-1 6 3 9v3l-9-2-4-2 1 10 3 5-1 5-5 10-1 6v10l2 10 2 1 1-8 6-14 6-7-3-6 5 2 11 5 12 4 10 2h34l16-4 5-1 1 4v14l4 15 4 11 2 5 11-1 5-11 2 2-4 10 4 8v8l-5 8-5 3h-11l-7 9-11 8-8 4-17 5h-3l1 2 22 6 8 6 3 7v8l-2 7-1 10v46l2 14 1 10 1 5v8l-6 3-8 2-1 7-7 32-1 7v8l9 14 6 10v2h2l13 21 2 5 2 4 8 13-2 4-7 7h-5l-1 5-9 9-2-1 9-9 2-8 5 1 6-6-1-5-7-10-4 2-10 7-8 4h-2l-3 11-4 7-1-3 5-13-4-2v-3l4 2 14-7 9-7 3-4-10-15-7-11-6-9-9-15v-9l7-34 2-11-37-1-6-3-8-8-4-7h-2l-4 8-7 4-11-1-1 7-2 7 1 7 4 12 6 22 4 24 1 9v10l1 8-19-7-15-10-10-8-11-10-9-11-6-8-7-11-8-16-5-13-2-7 3-1 5 16 3 7 7 14v2h2l7 11 9 11 9 10 11 9 16 11 9 4 8 2-3-29-5-24-1-7-3-9-6-15-7-16-9-14-9-11-9-10-8-6-6 1 2 5 7 9 9 16 4 8 6 15 5 16v2l-3-1-5-16-4-12-12-23-7-9-6-8-6 1 4 12 2 9 1 14h-3l-2-17-3-12-2-5-17-3-7-1-13 12-11 14-8 12-9 18-4 13h-2l2-11 8-16 6-11 8-11 9-10 8-9 4-4-6-2-17 8-12 9-8 9-8 7-3 2 1-6-6-10-5-1-4 5-4 1-4-3v-4l-5 2-4-1-1-3-6 3h-5l-2-2v-4l-5 1-3-5-5-2 1-7 1-4-3-2v-6l-3-4 1-6 2-2-1-4-2-2 1-5h4v2h-2l3 5 6 2 4-1 1-4-3-4-4 1h-4l2-4 2-2 2-4 6 1 4 2 1-8 2-2 11-1 2-4 2-2 6 1 3 4v3l10-1 1 1h9l3 3v9l5 3v5l3 8 4 1 7-9 9-16 5-6 12-6 5-2v-2l-13-2-13-5-11-7-5-4-3 1 4 4v5l-3 3-7-1-2-6 4-7-6-1-6-4-3-6-4-11-4-8-10-6-8-8-5-10-3-11v-12l3-12 6-12 9-10 10-7 11-3h14l10 3 5 1 14-3 7-1h16l16 2 9 4 17 9 6 5 9 13 4 11 2 10v11l-3 12-1 6v12l-3 10 2 10-5 4-5-1-6 7-11 7-10 5-5 1 2 3 10 4 16 9 5 2 22-11 8-5 16-9 8-5 12-5-1-2-13-5-9-6-7-6-7-11-4-11-1-12 1-17-3-11v-22l5-10v-4l-3-8v-9l4-2 5 4 3 1-2-7 1-11zm-149 30-13 4-10 8-7 8-1 5 16 4 4 3 3-1 7-9 8-7 14-8v-3l-6-3-5-1zm50 0-16 3-17 7-9 6-10 9-9 12-4 10-2 10v16l3 15 6 10 3-1 2-3 11-2 8-7 8-8 9-14 5-8 6-16 2-11 5 2 10 6 12 6 15 5 20 4h9l-1 5 5 18h2l2-11v-10l-2-12-5-10-7-9-9-8-9-4-11-3h-18l-13 3-8 2 14-5 5-1 17-1v-2l-9-2-9-1zm107 16-8 9-3 7-4 13-2 13v21l5 12 4 6 5 6 10 7 12 6 12 2h19l15-3 14-8 10-9 4-4v-2l11 1 6-4 3-4 1-3v-7l-4-6h-13l-3-7-7-20-1-5-1-16-11 2-13 2h-23l-20-3-16-6zm-190 10-3 4-2 9-1 13 2 13 6 10 9 9 3 2h3l-2-12v-17l3-13 3-7v-5l-11-4zm79 5-3 14-5 12-10 17-12 13-8 7h-8l-5 5-1 6 3 8 5 4 4-1v-2l7 1 5 6 8 6 13 6 10 3 7 1h15l16-4 14-8 7-6 7-10 4-8 2-9v-9l-5-24-3-6-25-5-18-6-19-10zm71 78-3 4v2l4 1 2-2-1-4zm-109 6v3h2v-3zm174 4-1 4 4 4h7l10-5v-2zm-4 4-3 6v4l4-2 3-5-2-3zm24 1-10 4v6l3 4 3-1 7-11v-2zm-195 1-1 4 2 3 5-1 1-5-1-1zm166 0-4 5-4 7 2 4 2 3-2 1v10l4 1 1-1 1-15 1 7h2l4-8-1-4-6 3 1-9 1-4zm35 0-5 6-9 14-7 14 5 2 9-9v-5l8-3 2-4 1-13zm9 1-3 1-1 11 4-2-7 8-15 16-1 1-12-1-21-5-4 1-3 9-2 9 1 5 15 5 21 4h9l9-4 9-7 16-16 6-10 1-8-4-8-9-6zm-52 2-7 4v2l-5 2-13 7 1 3 4 2 13-8 2-1 1 2 4-1-1-3 4-9zm18 0-2 2v6l2 2 5-1 2-2v-5zm6 9-1 2v10h3l3-6v-5zm-128 1-3 5-12 5-6 4-8 12-5 9-6 8-6 5v3l3 2v2l-5 5-1 5h-6l-2 6 2 1 14-7v-2l5-2 12-11 7-9 2-15 5-6 7-3h7l10 5h3l7-5 8-1 2-1 4 9 1 10 13 6h7l11-5-5-5-2-4v-4h-9l-18-11-12-6-6-2-2-3zm120 1-7 14 1 4 9 2 2-2v-17zm-16 2m-7 1-2 3 2 8 5 1 2-2-1-7-4-3zm-182 3-4 4 1 7 2 7h3l-1-10h2l1 10h3l1-3v-7l-4-7zm176 0-6 5v2h9v-7zm-19 2-1 3 4-1v-2zm-171 4-3 4 1 7 5 2 1 2v12l1 2h2l2-11 2-3v-7l-3-6-2-2zm28 0-5 5v9l10-5v-7l-2-2zm147-4 2 6-5-2h-6l-3 5v7l3 5 6 3 9 1 2-2 2-11-1-5-6-7zm-138 6-2 2v7l6 1 2-3v-5l-2-2zm123 0-7 4v2l7-1 2-2v-3zm28 1-3 9-1 6v6l4 1 4-15 1-5-2-2zm-61 1-8 4-3 3-4-1-6-4-10-1-8 4-3 5-2 14 2 12 3 5 17 5h13l11-3 3-7 4-15v-13l-3-6zm-141 4 1 5 4 2 2-5zm285 2-19 19v2l-5 2-10 5h-11l-12-3-5 1-2 10-1 21v12l4 8 5 5 5 6 5 2 7 1h27l17-3 1-1v-11l-4-25-1-14v-13l1-24zm-241 1-5 4v14h3l3-3 6-5 1-6-4-4zm-36 2-2 3 1 5 10 3v-9l-4-2zm21 0-5 5-1 2v8l3 2 2-7 1-3 2-1-3 8v4l4 1 6-5 1-7-3-4-5-3zm26 1-3 8-3 4 6 2h5l3-3-1-3-2-2 1-5zm130 8-1 2 4-1zm-178 1-4 3v6l6 4h4l4-5-2-4-2-3zm186-1-12 6-28 11-6 4-1 8 12 9 7 7 10 13 8 12 5 10 2 5h2l4-13-7-5 7-25 3-13v-5l1-2 1-16-5-3zm-41 2-4 12v3l6-1 9-4 8-3v-2l-9-2-7-3zm30 0m-2 1m-187 1-4 4 1 6 2 1h8l3-3-4-8zm52 2v4l3 1h9l-3-4zm16 0-3 3 1 3h6l1-4zm143 2-2 4-3 17 1 4 1 1 9 1-1 7h-12l-6 21v5l12 4 7-1 5-5 3-7 3-37v-9l-2-2zm-168 1v3l3 3-6-4-3 1 2 5 6 4 7-1 1-1v-7l-5-3zm-16 1-5 3-2 3v9h6l4 2 4-4 1-3v-8l-3-1-6 9v-3l4-5v-2zm74 1-9 10-10 8-9 5-8 4 1 4 4 4 5-2 5-4v-2l5-2 16-8 3-1 1-2-1-11-1-3zm-45 1-2 7 2 4h7l2-2v-7l-3-2zm12 2-3 8-4 3v2l9 2 1-4-1-4 4-1v-3l-4-1zm-59 1-5 5v5l3 2 8-1-2 5v5l3 1 4-9-2-11-4-2zm-9 2v4h2l1-3zm37 2-5 9 1 6 3 3 5-1 3-3v-7l-5-7zm8 3-1 3 3 8 2 2 7-1 1-1v-7l-4-4zm63 1-1 4 8 5 5 2h24l7-4-1-4-10 3h-15l-13-4zm-106 4-2 3 1 4 5 2 1 3 4-1v-9zm21 0-4 5v7l3 2 6-1 2-2v-7l-4-4zm36 2 1 5h2l-1-5zm-1 6m149 0-2 3 1 2 9 1 1-4-5-2zm-162 1 1 5 5 4 4-2-2-6zm-13 1-5 5v4l8-5-1-4zm9 1-5 4-1 5 2 3 5-1 2-4v-7zm15 0-1 7-1 3 4 8 3 1 7-5 1-5-7-7zm-42 2-1 4 4 2 3-2v-3z"/><path transform="translate(414,380)" d="m0 0 5 2 2 2v6l-2 2h-7l-1 6-3 2h-4l-1 7-4 2-2 7-4 2 1 8-4 4-1 5v11h-2l-1-10v-7l-4-3 1-7 3-2v-7l4-4h2v-6l4-4 3-1 2-6 2-1h6l1-5zm-1 3-2 3 1 4 5 1 2-2-1-5zm-9 7-2 2v5l5 1 3-3-1-4zm-7 8-3 3 1 4 1 1h5l2-4-3-4zm-6 10-3 2 1 6h6l1-1v-5l-2-2zm-5 11-2 2 1 5 5 1 2-1v-6l-1-1z"/><path transform="translate(742,385)" d="m0 0 9 2 7 5 3 7v9l-3 7-6 5-5 2h-9l-9-6-4-6-1-7 3-9 5-5 5-3zm-4 3-8 5-3 6v10l4 6 5 4 3 1h9l8-6 3-4 1-9-3-7-3-3-6-3z"/><path transform="translate(548,407)" d="m0 0h8l3 1v2h-9l-7 2v-3z"/><path transform="translate(549,422)" d="m0 0h5l3 4-1 7-4 4-5-1-3-6 2-6z"/><path transform="translate(281,426)" d="m0 0h11l9 8 6 10 1 3v7l-4 5-2 1h-8l-5-3v-2l-4-2-6-8-3-9 1-6zm2 1-4 4-1 4 3 9 4 6 5 5 5 3h7l4-5-1-8-6-10-8-7-2-1z"/><path transform="translate(492,426)" d="m0 0 9 1 3 3-2 1-8-2-6 1 1-3z"/><path transform="translate(608,428)" d="m0 0h6l3 3v7l-5 5-5-1-2-3v-7z"/><path transform="translate(543,439)" d="m0 0h6l5 4 1 4-1 3-2 1h-10l-4-3v-5zm0 2-3 2 1 5 1 1h9l2-4-2-3z"/><path transform="translate(494,440)" d="m0 0h5l4 4 1 6-4 5h-5l-3-3-1-8z"/><path transform="translate(613,446)" d="m0 0h7l5 3 1 5-4 4h-10l-4-5 1-5zm-1 2-2 2 1 5 3 1h7l2-2-1-5-3-1z"/><path transform="translate(437,450)" d="m0 0 5 1 3 4v6l-3 4h-6l-3-4v-7z"/><path transform="translate(592,453)" d="m0 0h7l1 1v6l-3 6-7 6-5 1h-8l-7-2-6-6-2-6 1-5zm0 2-16 1h-12l1 6 6 7h3l4-4 5-2h13l3-5-1-3zm-8 9-8 4 1 3 6 1 8-3 2-2v-3z"/><path transform="translate(501,457)" d="m0 0h6l4 3-1 6-6 4-7-1-2-2v-7zm1 2-5 3v4l1 1h8l3-4-1-3z"/><path transform="translate(433,468)" d="m0 0 7 1 3 3-1 5-3 3-9 1-4-3v-6l4-3zm-2 3-3 2 1 5 7 1 4-3v-5z"/><path transform="translate(452,472)" d="m0 0h35l-1 8-5 8-9 4h-7l-7-3-7-8-1-7zm1 2-1 5 4 4 2-1h8l8 3 2 2 4-1 4-5 1-7zm4 9 2 4 7 3h6l2-3-6-4z"/><path transform="translate(733,492)" d="m0 0 10 1 9 4 5 6 1 4-3 6-8 3-9-1-11-6-3-5 1-8 4-3zm-2 2-5 3-1 5 6 7 8 4h11l5-3 1-4-3-5-6-5-5-2z"/><path transform="translate(316,495)" d="m0 0 6 1 5 5v7l-4 8-9 8-8 4-8-1-4-5v-7l3-6 5-6 9-6zm1 2-7 3-9 7-4 6-1 9 5 4 7-1 5-3 9-8 3-6v-6l-5-5z"/><path transform="translate(240,525)" d="m0 0 8 1 6 4 3 6v8l-3 6-5 4-9 1-8-4-3-4-1-3v-8l4-7zm1 2-7 3-2 1-2 4v11l4 5 5 2h8l4-2 4-7v-7l-3-6-5-3z"/><path transform="translate(568,562)" d="m0 0h5l2 5-2 3-6-1-1-5zm1 1-1 4h4l-2-4z"/><path transform="translate(715,563)" d="m0 0h7l8 7 4 8 1 8-3 6-5 3-6-2-6-5-4-10v-10l2-4zm2 1-4 3-1 10 3 8h2l2 4 4 3h6l3-3 1-6-3-9-9-10z"/><path transform="translate(591,579)" d="m0 0h26l3 2v6l-3 2h-22l-5-2v-7zm2 2-1 5 1 1h23l2-1-1-4-10-1z"/><path transform="translate(566,581)" d="m0 0h5l2 2-1 5-5 1-3-3zm2 2v4l3-1-1-3z"/><path transform="translate(390,605)" d="m0 0v3l-9 12-9 14-10 19-8 14-10 14-8 8-3 2 1 7 5 10 11 12 7 6 14 8 12 4 20 3 19 3 15 5 16 8 19 7 14 3 10 1h15l21-3 16-5 9-4 2-1-2-16-5-17 2-2 5 15 2 9v4l12-3 2-4-10-36-5-24 1-7 4-16 5-14 1-8v-9l-8-5v-2l6 2 5 4v11l-1 17v28l4 10 13 19 8 11 12 18-1 2-8-10-20-30-6-8-4-8-1-4v-26h-2l-2 9-3 13 2 16 10 36 2 10v10l2 13-3 4-8 3-7-1-3 3-13 4-4 1h-13l-3-2-1-5-14 1-1 6-3 2h-7l-11-5-9-5-16-5-20-9-9-4 4 12v8l-2 3-8 1-8-4-5-5-3-4v-2h-2l-3-5 1-7 1-3-22-3-16-5-12-6-4-3v-2l-5-2-8-9-5-5-8-16 1-4 12-11 12-17 11-21 8-14 8-12zm26 140-1 3 6 9 4 3 7 1 2-4-4-9zm-5 2-2 7 7 11 7 6 6 2 5-1 2-2v-7l-3-1-9-1-6-5-3-5-1-4zm160 0-9 3-1 2v4l-12 6-16 5-6 2v5l1 1h12l17-4 5-6 3 3 9-2 3-3-1-12-3-4zm-84 23 3 3 10 4h6l2-2-1-5z"/><path transform="translate(432,612)" d="m0 0h2l-3 9-4 11-4 24v32l3 22 3 12 2 6h-3l-4-15-4-23v-35l3-17 5-18z"/><path transform="translate(299,616)" d="m0 0h7l4 4 1 7-6 10-8 6-2 1h-8l-4-5v-7l4-8 9-7zm0 2-8 4-1 3h-2l-3 7v6l3 4 4 1 7-3v-2l4-2 1-3h2l3-8-2-5-2-2z"/><path transform="translate(665,640)" d="m0 0h7l6 3 4 5 1 3v7l-4 8-5 3-7 1-8-3-4-5-1-3v-9l4-6 4-3zm0 2-7 4-3 5v7l4 7 3 2h12l5-4 2-4v-7l-3-6-4-3z"/><path transform="translate(767,682)" d="m0 0h13l10 6 3 4-1 2-1-3-5-2-7-4h-11l-8 4-5 6-3 7v8l5 10 4 4 8 3h8l10-4 6-7 1 3-5 5-5 4-7 2h-7l-11-4-7-8-3-8v-8l4-10 9-8z"/><path transform="translate(794,696)" d="m0 0 3 4v12l-2 4-2-2 1-3z"/><path transform="translate(254,732)" d="m0 0h9l8 4 4 5 2 5-1 11-4 6-8 5-8 1-10-5-4-5-1-4v-11l3-6zm1 2-7 3-5 6-1 3v8l5 8 6 4 7 1 7-3 5-4 3-5v-9l-3-6-4-4-6-2z"/><path transform="translate(608,765)" d="m0 0 2 2v7l1 1h7l7-4 2 1-6 5-8 2-5-3-1-2v-7z"/><path transform="translate(702,770)" d="m0 0h11l7 3 2 3-1 7-5 5-7 3h-11l-7-4-1-2v-8l7-6zm2 1-8 3-5 6 2 6 6 3h9l7-3 5-4-1-7-4-3-4-1z"/><path transform="translate(446,782)" d="m0 0h19l5 3 2 3v8l-7 6-9 3h-13l-6-3-3-3-1-6 4-6 6-4zm5 1-10 3-5 5-1 5 3 5 4 2h14l10-4 5-6-1-5-5-4-4-1z"/><path transform="translate(537,805)" d="m0 0h16l6 4 6 7 2 6v9l-4 9-5 5-8 4h-10l-10-5-6-9-1-3v-12l7-11zm4 1-10 5-4 5-2 5v10l4 9 9 6 3 1h9l10-6 4-6 1-4v-8l-2-7-7-7-7-3z"/><path transform="translate(341,817)" d="m0 0h12l9 4 3 5-1 7-6 5-7 2h-13l-8-2-4-5v-7l5-5 6-3zm0 2-7 2-5 4-1 7 5 5 6 2h10l10-4 4-5-1-6-6-4-4-1z"/></svg>
