<?xml version="1.0" encoding="UTF-8"?>
<svg version="1.1" viewBox="0 0 1024 1024" xmlns="http://www.w3.org/2000/svg"><path transform="translate(378,187)" d="m0 0h27l17 4 16 8 7 5 6-1 17-8h8l5 5 3 9 2 11v22l-1 6v9l9 16 3 7 9-3 17-5h3l-1 3-16 5-8 5 4 5 2 1 17-1h12l-1 3-18 2-5 2v4l2 6 15 3 1 2-19-1-1 12-5 15-7 12-6 10-1 3 14 2h17l16-2 14-5h16l8 5 3 3v2l3 1 2 10-1 5-4 7 6 1 14 10 3 2-2 4-1 3v5l-4 1-3 5-8 3-4 1-3-4-1-3-3 5h-2l-2 4-4 4h-2l-1 9 5 3 5 9 12 15 7 9 9 12 4 2 6-1 13-8 17-8 16-4h8l1 1v10l-1 2h26l11 2 12 4 9 5 7 3 17 12 7 8 4 4 9 14 6 12 7 21 1 5v30l-4 17-7 18-10 15-5 6-5 5-12 11-17 10-14 5-20 4h-21l-21-4-16-7-11-7-9-7-10-9-8-10-5-8-2-1-1 3-3 2h-5l-5-8-6-13-1-4-6 2-9 5-6 12-2 8v13l-3 8-3 10-7 10-8 6-10 5-10 4-11 6 1 8v34l-5 20-9 19-3 1-1 5-11 13-12 11-10 7-10 5-10 4-17 4-11 1h-12l-21-3-16-6-17-9-9-9-8-7-9-11-8-12-9-27-2-9v-24l3-15 4-12 7-17h-13l-1-5 7-11 7-9 14-14 10-8 24-12 21-5 7-1h25l13 2h5l7-16-2-6-6-7-6 1-18 7-4 1h-15l-6-4-5-4-8 8-10 7-14 7-13 4-6 1h-15l-16-4-11-6-8-8-3-8v-11l4-6 8-4h10l7 3 13 6 10 2h8l11-2 14-7 2-4-12-12-11-17-5-11-4-14-15-2-16-6-6-4-5-6-4-10v-13l6-26 9-16-1-4-5-2-2-2 1-5 6-5 6-11 9-12 7-6 8-4 9-1 22-1-5-6-9-6-5-7-5-2-1-1-1-14-5-5-5-9-7-23-1-7v-57l4-9 13-3 13-15 11-9 16-9 8-4 14-4zm2 3-16 4-12 4-4 2 1 4 13 5 5 4h2l2 4 5 5 6 8 7-1 18-6 13-2 3-2-1-5-10-14-10-9-2-1zm29 2v4l6 5 6 8 6 10 2 1 23 1v-4l-6-8-8-6-16-8-8-3zm59 6-8 3v2l-5 2-4 3 1 5 2 2 5-1 8-7 7-1 2 8v24l-1 8 5 5 2-4 1-6v-19l-3-14-4-9-1-1zm-127 7-5 3-10 8-8 8-3 6 9 4 8 3 3 3-15-6-5-1h-14l-5 6v25l4 16 6 11-4-4-3-7-3-1v20l4 20 8 16h3l3-10 8-11 6-7 5-13 3-12 9-15 9-7 11-7 16-8 11-4 20-7 12-2h32l6 2v-4l-4-4-12-4h-23l-20 4-13 4-11 4-18 10-16 13-10 11-5 11-6 25-1-1 5-21 5-12 6-10 7-7 12-9 20-12-1-5-9-11-12-8-12-3zm127 3-9 9 1 7 4 5 3 10 3 3h3l1-2v-26l-3-6zm-35 24-1 1-1 11-6 2-3 9-2 3h-7l-6-4-4-1-3 3h-8l-7-5-2-3-6 1-16 8-14 11-7 10-6 16-2 8-2 6v10l3 16 5 11h2l2 6 6 8 5 5 10 7 13 7 8 2 15 2h29l12-3 14-5 10-2 12-6 15-14 8-10 7-15 1-7v-10l-27-1-1-2h28l2-4-4-6h-7l-17 3 21-6v-3l-4-4-8 1-11 7-2-1 15-9 2-3-7-16-3-3-4-7-5-5-8-9-10-7-5-3zm-13 2-21 6-11 3-2 2 1 5 4 4h6l2-1 2-4 6 4 4 3h7l3-3v-11h9l-1-5-2-3zm-96 80-4 5 1 10 2 9 11 21 18 18 17 8 15 4 13 2 2 1v3l4 4h2v2l4 3h30l10-1h24l11 7 18 1 4 1 1-2-3-9-9-16-9-11-5-4-12 7-12 9-8 3-9 1h-17l10-2v-4h-32l-26-5-16-8-10-8-5-6-2-1-9-19-5-22zm-7 12-3 5v12l1 12 7 4 3 5 10 7 7 4h3l-2-4-3-3h-2l-2-4-7-11-6-12-5-15zm238 35-18 6-41 1-1 3 5 9 6 12 3 17 3 4h8l9-4 12-6 9-1 2-4-1-11 3-6h10l7 8 3-3v-6l-5-8 4 2 4 8 3-1v-7l-4-6-8-6-3-1zm-70 6 2 5 9 11 5 8 2-1-8-16-7-7zm-15 4-7 4v2l5-1 5-3v-2zm-18 5-13 4-2 4 1 5 14-3 7-3v-6l-1-1zm-111 4v2l4-2zm-25 1-16 5-10 8-6 9-8 14-3 3 1 4h7l7-14 4-11 6-7h18l4 2 4-1 8-7 3-3-2-2zm30 3-12 4-7 4-3 7 1 2 6-1 12-5h25l13 4 9 3 5 1h7l-2-4-11-8-19-4-10-3zm210 2-4 3v7l7 15v7l5 8 4-2 4-5v-9l-7-17-2-5-4-2zm-254 6-8 7-7 14-3 9-8 17 1 4 11 6 9 2 1 1-1 10-6 22-4 7h-9l-9-5-4 1 2 6h2l2 4 10 9 17 3 6-1 3-2v-8l-2-4h-2v-10l3-6 2-3 3-21 1-10 6-20 5-16-2-10-6-5-5 1-6 19-5 11 2-10 6-14 1-7-1-1zm274 2-2 2v11l5 11h3l-2-6-2-4 5 5 3 5h2l-2-9v-2l7 6v-3l-6-9-2-6zm-229 2-12 4-6 3-4 5-6 18-7 28-2 11 1 14 16-2 17-5 15-8 3-4-4-4 16 4h22l17-5 19-8 4-3 2-11 3-2h10l6 4h9l1-1v-9l-2-4 3 1 4 10 5-2 2-2v-11l-1-3 2 2 3-1-3-6-10-6h-17l-14 3h-32l-25-5-16-5zm196 8-16 8-10 3-1 4 7 7 3 2h6l5-5 5-4v-2l13-3 1-5-5-5zm-51 8 1 6 3 6 9 6 12 10 8 4h8l14-7-1-7-3-3-9 3h-8l-14-11-8-6-2-1zm-5 2-1 4 2 11h4v-9l-4-6zm63 3-10 5 1 3 6 2 2 5 1 6h5l5-4 1-2v-7l-7-8zm-67 7-2 4v4l4-2 1-1v-5zm14 3-6 5-9 2-16 9-6 3v6l7 8 6 11 3 3-1 3-4 1-2 5-5 1v-2h-2v4l-7-2-3-1-6 1 1-7v-24l-10-6-4 1-10 5-15 6-23 4-9 8-15 10-21 9-14 4-13 1-3 2-1 5 2 15 5 13 5 11 7 11 11 12 8 6 11 6 11 5 12 2 11 1 29 1 10 3 5 3 7 12 5 12 6 5 2 1h7l8-4 10-6 16-8 6-4 1-5-4-5 4 1 4 6 4-2 1-5-1-3-5-4-1-4-4-2h-8l-8 2-11 6 4-5 3-2-1-17-4-20-8-16-6-8-8-7-6-3-11-4-5-1h-16v-2l19 1 12 4 10 5 11 11 7 14 5 12 4-1 5-6 7-12 10-13 6-8 2-1 3-11 1-5 1-20v-18l-3-9-13-11zm-49 6 2 5 2 4h2l-1-6h-2l-1-3zm-9 2-1 1 1 8 2 4 7 1 1-1v-7l-4-6zm31 0-4 2-7 1v4l3 1 11-6v-2zm80 6-6 2 1 5 4 3 4-1 5-4-1-4-1-1zm-276 4-4 5-1 3v7l3 5 3-1 1-3 3 1v4l-2 1 1 3h7l8-6 3-5v-5l-8-4-9-4zm261 0-7 1h-5l-2 4v33l-1 10 3 2 25-25 4-3-1-5-4-2v-7l-6-8zm26 2-7 4-3 4v5l11 11 9 13 8 10 1 1h5l8-5-1-6-8-11-5-5-8-11-7-10zm-109 1v2l4-1zm-2 6-2 6v5l4 1 4 17 3-1-2-14h2l2 7 4 4h2l-2-13 3 1-2-6-6-7zm-84 7-15 10-21 7-9 2-14 1-2 2v8l2 2h14l19-5 18-8 13-7 9-7-1-4-5-1zm-99 4-2 3v10l7 8 5 3 6 1 5-2 3-13v-4h-16zm286 3-13 12-19 19-11 14-13 18-9 14-5 9v14l2 6h4l8-17 9-13 10-15 9-12 10-10 9-10 19-19-1-4-5-5zm-105 3m209 2-15 4-18 8-12 8-9 7-2 3v6l3 3 4-2 17-12 16-7 17-6 4-9-1-3zm-207 3v3zm112 5-28 28-7 10 3 14 4 10 3-1 4-10 5-13 6-10 6-12 5-6 3-5v-5zm6 5-11 17-12 23-4 8-5 17-7 20-5 15-5 11-1 11-10 9-3 6 2 2 10 3 4-1 8-13 4-10 6-13 8-25 5-15 3-10 9-20 7-12 5-8v-7l-6-8zm98 0-12 3-22 8-11 7-14 11 1 6 6 7 5-1 7-7 15-8 13-5h39l13 4 8 4h2v2l8 4 17 17 5 7 9 21 3 19-1 17-5 16-6 13-10 14-7 7-14 10-8 4-19 5-13 1-14-1-21-6-12-7-9-7-7-6-7-11-5-8-6-17-1-6v-29l2-10 8-18v-5l-8-9-4 2-4 5-7 16-5 16v34l4 15 9 21 8 11 14 15 17 12 19 8 13 3h31l19-4 16-8 11-7 13-11 9-11 12-21 5-19 2-17v-10l-3-20-4-13-9-16-6-8-14-15-17-12-14-6-16-5-6-1zm-75 7-5 3-1 2v12l3 8 8 12 11 13 11 12 7 8 4 3h2l2 4 15 13 14 10 6 1 4-2 1-5-9-9-11-8-12-11-8-7-10-10-7-8-11-14-6-11-1-8 6-5-2-3zm-11 7-6 8-6 10-6 12-7 16-9 30v5l8 3h5l4-23 2-11 13-26 5-7v-9l-1-7zm82 7-14 4-16 8-13 10 1 5 5-2 10-8 9-5 20-5h22l19 5 10 6 8 6 8 7 7 10 6 10 3 10 2 8v24l-3 14-8 15-8 11-8 8-9 6-15 7-12 3h-23l-17-5-16-9-12-11-7-10-7-14-4-13-1-8v-10l3-16 6-15 1-5h-4l-3 3-5 12-3 11v28l4 15 8 16 7 10 8 7 5 5 16 9 7 3 16 3h16l21-4 12-6 11-7 9-8 8-11v-2h2l7-15 5-21v-16l-4-17-5-13-10-14-13-13-11-7-17-7-9-2zm1 9v8l3 16 1 8 5 22 2 3 4-1 3-13 7-32 1-10-1-1zm-8 1-15 6-2 4 1 3h2l2 5 8 14 4 5 4 8 8 11h3l-3-22-7-32zm37 1-3 9-5 26-4 17v3l4 1 7-11 2-4 4-6v-2h2l9-16 4-6-1-4-8-5-5-2zm-107 1-6 7-8 16-7 17-2 12v33l3 16 6 14 5 9 4-2 1-1v-8l-5-12-3-13v-36l3-14 5-12 8-14 1-5-4-7zm-63 6-4 5-9 12-10 16-6 12 1 4 14 2 6 4 3 6v9l2-2 8-20 3-9v-29l-4-9zm111 3-9 7 1 6 21 21 10 8 6 5h2l-1-5-11-17-14-22-2-3zm82 1-7 10v2h-2l-9 15-7 11-4 7 1 5 5-2 9-6 9-7v-2l5-2 15-10 3-3-1-5-6-5-2-4-5-4zm18 21-8 6-15 10-20 14 1 4 25-6 22-5 7-3-2-9-5-11zm-124 7-3 5-3 8v8l4 2 30 3h5l-1-4-7-7-9-7-5-5-7-3zm-267 15-9 6-13 5-6 1h-12l-13-3-10-6-8-2-9 1-5 3-3 6 1 9 4 6 8 8 8 4 12 3h20l19-5 9-5 11-8 8-8 2-3v-5l-5-4-5-3zm398 2-21 5-28 7-1 4 1 1 49 7h5l3-4v-17l-2-3zm-67 2-3 2 1 4 4 4-1 7-7 5 1 2 9 1 7-4 3-7-1-7-5-5-4-2zm-312 5-1 1 1 7 5 4 4 2 13-1 15-5 1-2-18-2-17-4zm241 1-1 3v12l2 10 2 2 10-2 24-8 12-3 4-2-1-4-3-3-35-5zm-58 3-3 5-8 19-2 4 4 1 15-4 4-3v-8l-4-2v-2l6 4 2 4h2l-1-13-5-4-3-1zm-129 2 1 4 28 28 8 7 7 8 4 4 5-1 4-2-1-5-5-7-14-2-5-5-8-16-4-6-8-6-2-1zm275 6v3l20 11 18 10 7 4h5l3-5 4-12-2-4-12-2-17-2-20-3zm-36 3-35 11-12 4-1 5 7 14 3 3 5-1 11-10 10-8 16-13 3-4-1-1zm-144 2-8 5 1 7 1 1h6l6-4 1-5-3-4zm178 0 1 5 3 5 5 5 12 14 10 13 3 3 4-1 7-8 4-7-1-4-24-13-8-4-14-8zm-27 2-7 7-10 8-12 11-11 9 1 5 13 12 7 1 25-50-3-3zm22 2-1 2 12 38 5 13 1 1 7-1 9-5 4-3-2-5-11-14-10-13-9-10-2-3zm-260 1-7 10-6 15-7 15-10 24-10 25-4 13-1 7 7-6 8-10 8-20 4-9 5-12 10-22 11-22-2-4-3-4zm254 0-2 2-3 23-3 30 1 5h9l12-2 6-3-1-7-6-17-9-27zm-9 1-24 48 1 4 13 5h8l2-5 1-15 3-31v-5zm-173 3-19 9-6 4 1 7 2 2 5-1 19-9 3-3 1-6-3-3zm62 2-5 4 1 5 3 1 5-4v-5zm-124 4-6 12 8 5 11 6h2v2l7 5 5-1 1-2-3-5-8-7-6-7-6-5-3-3zm112 0-16 6-6 9 1 3 11-3 12-5 4-3-1-5-2-2zm-179 7-15 2-17 7-15 8-12 9-10 9-10 13-4 7 1 4 9-2 11-14 8-8 8-6 1-2 10-4 16-8 17-3h41l3-6-1-5-11-1zm135-1-3 2v2l4-1v-3zm-9 4-4 3v11l5 24 2 2 4-1-1-21-3-16zm7 4-1 4 1 7 2 2 10 4 5 4 5 13 2 2 7-1 5-4-2-10-6-11-6-5-13-5zm-74 2-3 4 1 5 9 6 12 6 4 1 5-4-1-4-12-9-11-5zm113 0-6 5-1 6 4 4 4-5 3-9zm-163 4-16 3-21 8-10 6-11 9-9 8-9 11-7 12-5 12-4 16-1 6v24l6 27 3 6h2l2 6 6 10 9 10 9 9 13 9 17 8 20 5 7 1h16l20-4 12-5 12-6 11-8 10-9 8-9 7-11 7-15 5-16 1-10v-21l-1-10-1-2h-7l-10 5-1 31-4 15-5 12-7 11-17 17-14 8-11 4-14 3h-21l-15-3-16-7-14-10-9-9-6-9-6-11-5-14-1-12v-24l5-16 8-15 11-13 8-8v-2l6-2 16-8 14-3 28-1 7-13-2-4-2-1-10-1zm105 0-9 5-10 6-7 6-13 8-4 3v2l-4 2-11 8-12 11-31 31-7 10-1 5 1 7 4 3h8l10-4 18-10 14-7 22-12 24-12 2-2-1-4-4-4-7 1-11 6-15 9-9 5-14 8-12 7-3 2-4-1 5-5 13-10 11-7 16-9 9-4 13-5h7l5 5 9 6 12 4h9l13-5 9-7 5-9 2-7v-4h-7l-5 3-5 9-9 7h-14l-9-6-4-6-3-12h2v6l5 10 3 3 7 3h11l7-3 6-7 1-2v-14l-5-8-5-4-7-1-1 3 3 9 3 5v5l-5 5-9-1-3-3v-13l-2-6-4 2-4 6v2h-2l4-10 5-4v-9l-1-1zm-61 9-4 5-1 9 12 7h6l9-7-2-4-5-5-5-3zm-47 12-13 2-12 5-13 8-14 13-7 10-5 10-6 17-1 5v21l4 18 7 15 6 7 7 8 5 6 10 7 8 5 14 5 9 1h25l16-4 20-11 15-15 8-13 5-11 4-18v-20l-2-4h-3l-1 2v10h-2l-1-5h-13l-16 7-10 4-2 3 22 6 7 1h11l2-2v-4h2l-4 18-8 16-2 5-3 1-7 9-11 8-12 6-15 5h-27l-15-5-12-6-12-9-7-8-10-16-4-16-2-11h2v6l1 1h9l41-9 1-5-9-3-33-6h-8l-2 2v12h-2l2-17 4-16 6-11 6-8 11-11 11-7 22-8 5-1 20-1-1-4zm40 5-1 5 11 5 3-1-1-4-10-5zm-38 2-2 2v8l4 25h4l10-25 2-7-1-2-3-1zm128 2-2 2-5 2 4 1 5-3zm-140 1-12 4-2 2 1 7 8 14 6 11 8 12 4-2v-13l-5-33-1-2zm47 2-4 4-5 15 1 3 6-4 8-8 4-3-2-4-6-3zm-68 8-10 8-7 8 1 5 10 7 12 8 10 8 5 3h6l2-2-1-4-6-11-2-4h-2l-2-6-11-20zm99 18-17 10-9 6 1 3 18-10 10-6v-3zm-119 4-2 5h-2l-6 13v6l6 3 10 2 15 2 10 2h10l1-5-11-9-16-10-12-9zm152 0-10 6-1 1 1 9 2 2 6-1 10-5-3-11zm10 0-1 3 2 6 5-1 6-3-1-3zm-28 10 1 9 2 2h3v-7l-2-4zm-8 3-8 5-25 13 1 3 20-2 10-3 9-5-1-9-2-2zm-80 19-2 5 2 9 4 5 4 2h13l7-6 1-4-2-1-9 4h-10l-4-2-2-6-1-6zm48 4-12 2-2 1v4h9l11-4v-3zm-58 8-33 7-11 2-3 4 6 17h9l11-8 23-14 4-2-1-5zm48 4-3 2 1 4 26 20 7 5 4 4 4-1 9-18v-7l-5-2-18-4-16-3zm-41 3-18 11-24 16-1 3 9 11 8 7 5-1 7-10v-2h2l8-14 9-13-1-5zm31 2-1 5 8 11 8 16 6 10 5 6 5-1 12-11 1-5-8-7-14-10-13-10h-2l-1-3zm-5 3-2 2 1 11 5 34 3 7 1 1 9-1 10-4 1-4-8-16h-2l-2-5-9-17-2-3h-2l-2-5zm-18 2-5 6-12 19-10 16 1 6 8 4 4 1h7l4-9 2-13 5-22v-7zm9 0-4 10-6 26-2 11v7l2 2h20l2-1-1-21-6-30-3-4z"/><path transform="translate(384,197)" d="m0 0h10l7 4 2 4v8l-3 4h-8l-10-6-2-4v-6zm1 3-2 2v5l6 5 9 2 2-2-1-7-6-5z"/><path transform="translate(303,241)" d="m0 0h12l9 4 8 6 1 4-9 3v12l-5 14-1 1h-5l-6-10-5-12-1-6v-13zm3 1-2 2v11l4 13 5 10 4 1 3-6v-17l7-2-2-4-8-5-8-3z"/><path transform="translate(451,251)" d="m0 0h9l4 2 1 4-2 1-5-2-7-1z"/><path transform="translate(374,268)" d="m0 0 5 1-1 4-8 6-1 2h-2l1-8z"/><path transform="translate(465,273)" d="m0 0h8l8 5-1 4-12-1-8 4-7 10-3-1 2-9 4-6 6-5z"/><path transform="translate(385,288)" d="m0 0h14l7 5 4 7-1 4-8-5-6-2-10 1-8 7-4-1-2-3 5-2 2-5z"/><path transform="translate(435,296)" d="m0 0 8 1 2 3-1 5-4 6v7l1 1h9l4-3 3-7 4 1-1 5-5 8h-2l-1 10-4 11-6 5-7 1-9-3-10-9-7-9-4-2h-2l-1-3 2-3 5 1 3 3 4 1h9l6-3 3-4v-5l-11-6-1-1v-5l5-4zm-2 3-6 3-1 4 8 4 4-2 3-5-1-4zm3 23-7 6-11 4v3h31v-9l-3-3zm-11 15-1 4 5 4 4 2h7l6-5-2-4-1-1z"/><path transform="translate(309,298)" d="m0 0 8 1 2 5-1 6-3 3h-5l-3-3v-9zm3 3-2 2v6l4 1 1-1v-7z"/></svg>
