<?xml version="1.0" encoding="UTF-8"?>
<svg version="1.1" viewBox="0 0 1024 1024" xmlns="http://www.w3.org/2000/svg"><path transform="translate(379,159)" d="m0 0h23l20 4 16 8 11 7v2l9-5 14-7 8-1 5 3 4 9 3 12 1 8v16l-2 13v7l4 6 9 19v2l22-7 2 2-13 5-7 3 2 4 8 6h10v1l-9 3-1 2 4 3v5 2l14 3v2l-16-1-3 18-4 9-14 25-3 3 9 2 9 1h17l18-2 18-6h13l9 4 7 7 2 4 1 11-6 9 9 3 10 8 8 4-2 4-5 2 4 3-2 4-5 1-1 5-7 1-5 4-3-1-3-9h-2l-1 6-5 6-6 5-3 5v4l7 3 1 4 2 4 9 11 9 12 1 3 3 1 10 14 8 4 4-2 18-11 14-6 21-6h6l1 1v9l-2 6 5-1h18l17 2 17 6 16 8 16 12 11 11 9 13 9 16 3 9 4 13 2 10v28l-3 15-6 18-8 15-6 9-17 17-8 7-18 10-21 7-17 3h-18l-13-2-12-3-16-6-11-7-10-7-10-9-7-7-11-16v-2l-5 5-4 3-4-2-8-16-4-11v-2l-7 5-10 4-6 13-4 11 1 12-2 3-4 16-7 11-13 10-13 5-18 9 2 14v29l-3 15-6 16-7 15h-2l-2 5-7 9-9 10-14 11-6 4-13 7-20 6-10 2-18 1-18-2-18-5-14-6-15-9-5-5-11-10-9-11-9-14-5-13-3-8-4-17-1-8v-14l3-19 6-18 7-14 1-3-2 1h-14l-1-4 9-15 9-11 10-10 12-9 19-11 11-4 19-5 14-2h18l20 3h4l9-19-2-4-9-10-5 1-15 6-10 3h-16l-6-3-4-5-2-7v-5l-11-7-9-7-11-11-9-13-9-19-3-12-1-3-15-1-13-4-10-5-7-7-5-10-1-10 2-13 6-22 6-10 3-6 1-5-5-1-5-4 1-4 7-6 9-16 7-9 8-7 10-4 16-2h18v-2l-16-11-3-3-2-5-8-2 1-7v-8l-7-6-7-14-6-21-2-15v-10l1-10v-10l-1-5v-18l3-9 2-3 7-2 8-1 9-11 4-5 14-11 10-6 14-7 14-4zm0 3-15 3-14 5-8 4v2l14 6 11 8 7 8 5 8 10-3 16-5 16-2 3-2-1-5-4-6-8-10-10-9-4-2zm28 2v2l8 7 9 13 4 8 4 1h12l14 1-2-5-6-7-12-9-16-8-10-3zm69 7-10 3-11 7-1 4 5 5 4-2 8-7v-2h8l3 8 1 6v17l-2 13 4 6 2-1 2-12v-17l-3-17-3-8-2-3zm-142 7v2l-5 2-10 8-8 8-5 8 5 2 10 3 9 5 1 1-5-1-9-4-13-3h-13l-4 4-2 4v22l4 17 8 16v3l-7-10-3-7-2 1v18l4 22 5 12 6 11 2-3 3-10 7-11 8-8 4-10 4-15 8-16 4-5 14-10 18-10 13-5 16-6 14-4 24-3h15l10 3 3 2 1-4-5-5-10-4-7-1h-18l-15 2-16 4-20 7-13 7-14 9-11 9-9 11-6 10-2 7-5 23-3 3 5-24 6-16 5-8 4-4 4-5 6-4 5-5 13-8 14-8-4-7-9-10-9-6-8-4zm141 3-8 7-5 6 3 5 5 5 2 11 5 4 2-1 1-4v-25l-3-7zm-38 27-4 1 1 5v7l-1 1-8 1-2 11-3 3h-7l-9-6-4 1-1 3h-8l-8-6-3-4-5 1-16 8-14 10-7 7-5 9-5 16-4 12-2 4 2 16 4 14 9 17 9 11 11 8 16 8 13 3 13 2h29l9-2 10-4 13-4h6l14-7 14-12 7-8 4-4 7-15 3-9 1-11-4-2h-36v-2h39l3-3-1-4-4-2v-4l-7 1-17 4-13 4 2-2 16-5 8-2 9-1 1-2-6-5-2-3-6 1-19 10-6 3 8-6 20-11-6-16-2-4h-2l-2-5-8-11-10-10-14-9-2-1zm-14 2-23 6-15 5-2 1 1 5 4 4 5 2 4-1 1-7 6 3 8 6 6 1 3-4 1-7-1-6 10 2 1-3-3-6-1-1zm-105 86-7 8 4 17 9 19 4 6 19 19 16 8 19 5 15 2h19l16-2 4-2-1-3-10 1h-23l-19-3-19-6-10-6-10-8-6-7h-2l-2-5-8-15-3-10-3-17zm-10 14-3 9v6l2 6v11l7 2 3 7 11 7 9 6 3-1-7-7-10-13-6-11-5-13-2-9zm262 38-10 3-12 4-8 1h-40l2 1 2 4 9 16 4 13 1 10 3 5 8-1 9-3 17-9h9l-1-7-1-8 3-6 3-2h9l5 4 3 6 3-3v-8l-3-5-4-5 6 3 4 8 1 4h2l2-7-3-8-8-7-7-3zm-79 6 1 4 12 14 5 9 2 1-1-5-7-13-9-10zm-11 3m-3 1-10 6v2l4-1 9-6zm10 0-14 9-6 3-5 5-11 4-13 1h-8l-18 2h-16l1 3 8 6 4 4h31l12-2 3-1h22l9 6 5 3 4 1 3-1h10l4 2h4l-2-6-6-12-7-12-10-13zm-147 6m119 0-18 5-2 2v6l1 1 8-1 13-4 2-2v-6zm-124 4-1 3 6-1-1-2zm-24 2-14 3-10 4-8 7-6 10-6 11-7 8 1 3 7 1 2-2 3-7 8-19 6-7 6-2h11l8 4h3l6-7 7-4-1-2-4-1zm32 3-12 3-9 4-4 5-2 7 5-1 12-5 7-2h22l14 4 7 3 16 3 4-1-9-7-7-5-17-3-17-5zm234 1m-7 1-4 2-1 2v7l8 17-1 7 3 5 2 4 5-2 4-6v-9l-10-25zm17 7m-294 0-5 3-6 7-11 27-7 14 1 4 14 7 10 2-2 12-6 24-3 6-2 2h-9l-12-6-3-2 1 7 6 8 5 4h2v2l6 3 19 3 7-2-1-12-4-4-1-8 3-7 3-2 2-15 2-16 6-23 6-18 1-4-2-6-1-5-6-4h-5l-4 16-7 17-4 7 3-12 6-15 4-12-2-2zm298 2-3 3v9l3 7 4 8h2l-1-5-3-6 1-2 6 9 5 5-1-5-7-14 7 6 5 6h2l-2-4-9-12 3-1-6-4zm-246 2-13 3-9 4-4 4-6 15-5 18-6 29-1 7v9l2 1 16-2 15-4 16-8 8-5-1-3-9-5 22 6h25l15-4 14-5 14-8v-8l3-5 5-2h7l8 5 9 1 2-2v-9l-4-6 5 2 2 4 1 7 2 1 5-3 2-3v-9l-4-6-4-1v-2l7 3 3 4h2l-2-7-6-5-7-3h-14l-13 3-9 1h-29l-19-3-17-5-9-3-6-1zm263 7m1 1m-54 1-10 6-20 7v3l12 10 4 1 4-2 3-6 9-6 8-2 5-1-2-6-2-3zm56 0m-112 8v4l4 9 10 6 13 11 6 4 3 1h9l7-3 8-5-1-7-4-3-6 2-4 2h-7l-11-8-12-10-6-3zm-7 2 1 6 1 2 1 9 2 2 2-2v-9l-4-6zm71 4-12 6v2l7 2 3 4 1 6v4l6-2 5-4 1-2v-8l-6-7zm-73 6-4 8v3l5-2 2-2v-5zm14 5-4 5-10 2-16 9-10 5-1 4 8 8 8 15 4 4v2l-7 2-2 6-5 1-1-5h-2v6h-7l-1-4-4 2h-5l1-34-7-3-5-4-10 6-21 8-14 3-9 1-9 8-24 15-16 6-17 5-17 2-1 1v8l4 18 8 20 10 15 7 8 11 9 14 8 12 5 13 2 15 1h24l10 2 10 6 7 10 6 15 5 5 7 3 8-2 12-7 26-13 3-3-1-7-4-3-6-1v-1l9 1 5 6 1 3 4-2 2-2-1-7-6-5-2-1 3-1v-2l-8-2-11 1-10 4-7 4 1-3 7-5-2-23-4-19-7-14-7-9-11-10-16-6-9-2h-15v-2h17l13 3 16 8 10 10 8 13 6 18 5-1 10-17 7-10 9-11 6-8 4-13 1-6 1-35-2-11-10-8-11-9zm-54 6 4 6 2 6h2l-1-7-4-5zm-8 2-1 1v8l4 6 5 2 3-5-1-5-4-6-1-1zm35 0-8 4h-8l2 6 6-2 10-6v-2zm89 7-11 2 2 5 6 5 9-8-4-4zm-305 4-4 8-1 7 3 7 2 1 2-5 3-1 3 3-2 4-3 1v2h10l5-3 4-4 3-6v-4l-15-6-8-4zm288 0-7 2-10-1-1 3 1 7v26l-2 13v5l4-2 24-24 7-6-2-5-4-1v-7l-8-10zm27 2-10 6-4 5 2 4 9 8 8 11 10 13 5 7 4-1 5-4 5-2-1-4-12-16-13-17-4-5-2-5zm-120 1-2 3 5 1 1-4zm-2 7-2 4-1 11 3-1v-2h2l2 10 2 9 3 2-2-14-1-6 5 8 2 3h2l2 6 1-4-3-11-2-4 6 5-1-6-6-8-2-2zm-91 8-18 11-10 4-17 5-7 1h-14l-2 3v8l2 2h16l17-4 16-6 19-10 11-9 2-1v-2l-11-2zm-98 2 1 2zm-11 1-2 8v7l3 5 8 6 7 2 6-1 3-9 2-11-5 1-3 1h-8l-6-4zm313 4-8 7-7 6-4 5-8 7-7 8-8 9-10 13-10 14-6 9-6 10-4 7 2 21h4l11-21 15-23 12-16 11-12 7-8 18-18 6-5 1-4-7-9zm-115 2v5h2v-5zm23 3m1 1 2 2v-2zm205 0-17 4-22 10-12 8-7 5-5 6v5l4 5 14-11 10-6 15-7 19-6 4-8 1-4zm-228 2-1 6h2l1-6zm124 6-9 9-8 7-15 16-8 10 1 5 5 15 1 7h3l8-21 7-14 9-16 6-9v-2l3-1 1-4zm6 6-8 11-8 13-8 16-7 16-3 10-9 27-5 14-6 14v11l-5 4-6 5-4 7v2l13 4h3l8-13 3-7 9-20 3-9 11-34 3-10 11-25 6-9 8-14-1-4-7-9zm110 0-13 2-17 6-14 6-10 7-9 7-6 5 2 5 7 8 4-1 10-9 17-9 11-4 15-2h18l18 3 10 4 16 9 12 11 8 9 9 15 6 17 2 10 1 13-1 13-4 15-6 15-4 6-10 13-10 9-11 8-14 6-13 4-15 2-17-1-16-4-16-7-13-9-9-8-10-14-8-16-3-10-2-13v-18l2-15 6-15 5-9-1-4-9-10-3 1-8 13-7 19-3 13-1 10v11l2 15 4 15 7 16 8 14 6 7h2l2 4 5 6 16 12 16 8 11 4 13 3 8 1h21l25-5 12-5 14-8 16-13 9-10 9-14 5-9 5-12 4-19 1-19-2-18-2-10-3-9-9-17-4-7-9-10-6-7-11-9-10-7-21-9-16-4-8-1zm-85 7-7 5-1 2v10l4 10 8 12 9 11 9 10 7 8 10 10 8 7 15 13 14 10 3 2h6l4-3-1-5-9-8-12-9-10-9-13-12-7-7-7-8-5-5-9-11-7-12-4-12 5-1 4-5-5-3zm-13 8-7 10-9 16-9 20-7 21-3 11-3 10 10 3 5 1 3-22 3-14 12-25 9-13-2-17zm93 8-17 4-19 9-14 11-1 4 4 2 8-7 10-7 8-4 19-5 6-1h14l15 3 12 4 15 9 10 9 8 9 9 16 5 16 1 6v20l-3 14-7 16-5 8-9 11-8 7-6 5-20 9-14 3h-22l-16-4-21-11-12-11-6-7-8-14-4-10-3-12-1-9v-9l2-14 6-18 3-5-2-4-4 2-7 16-3 11-1 7v20l3 14 5 13 6 11 8 10 11 11 12 8 12 6 16 4 7 1h16l16-3 10-3 13-7 10-7 8-7 9-12 9-16 3-10 3-17v-14l-3-16-3-10-5-10-9-13-12-12-12-9-19-8-14-3zm3 9-6 1 2 13 6 31 4 17 5 1 11-51 1-11-7-1zm27 2-3 8-2 9-2 14-6 27v4l4-1 7-12v-2h2l14-23 5-8v-2h2l1-4-5-4-14-6zm-40 0-13 5-6 3 1 5 6 9 6 11 5 6 5 9 7 11 2 3 3-1-2-12-5-25-5-23zm-78 2-7 10-8 16-5 12-4 16-1 6v29l5 22 10 23h4l3-5-1-6-6-14-3-12-1-11v-23l2-15 6-16 9-17 4-5-2-5-3-5zm-68 6-13 18-10 15-9 17v3l14 1 9 5 4 7-1 6-1 5 3-1 5-14 8-21v-26l-4-12-2-3zm122 3-11 9 1 5 23 23 14 11 5 4h2l-2-5-6-9-12-19-12-18zm89 1-7 10-7 12-7 10-12 20 2 4 11-7 11-8 3-2v-2l5-2 20-14v-4l-11-12-6-5zm21 22-7 6-12 8-13 9-15 11-3 2v2l12-2 21-5 28-7-1-7-5-13-4-4zm-138 9-5 13-1 10 5 2 34 3h5l-4-5-5-5-8-6-6-7-11-5zm146 18-26 7-15 3-16 4 1 4 1 1 39 5 21 3 2-7-1-16-2-4zm-73 3-6 2 2 4 5 5-1 7-9 6 4 3h8l6-4 3-4 1-9-3-5-5-4zm-344 5 1 8 5 5 6 2 13-1 16-5 2-1v-2l-18-1-18-4zm264 1v16l2 12 2 2 22-7 21-6 12-4-2-4-6-4-40-5zm-63 3-4 8-3 9-7 14v2l17-4 8-4 1-6-3-5-4-2h-3v-2l9 3 3 4 1 4h2l-1-15-5-4-5-2zm-142 2 2 4 28 28 8 7 12 13 5 5 4-1v-2l6-2-6-8-2-4-15-1-6-5-7-17-6-8-7-6-5-2zm301 7-1 3 16 8 17 10 12 6 8 5 4-2 5-14 1-6-3-2-57-8zm-36 3-18 6-17 5-19 6-2 3 7 14 5 7 5-1 8-8 10-8 11-9 15-12-1-3zm-158 2-12 7 1 4 3 5 5-1 8-5 1-4-4-6zm191 0 1 4 11 14 11 13 7 9 9 10 4-2 7-8 5-8v-3l-23-12-16-9-13-7zm-27 3-10 9-10 8-13 11-11 9-2 4 8 8 12 9 4-1 12-24 9-19 5-8 1-4-2-2zm22 2 2 9 11 33 4 11 2 6 6-1 12-6 4-3-1-4-8-10-11-14-7-9-5-5-6-7zm-283 1-6 10-4 8-7 16-6 13-10 24-5 13-7 18-3 10-2 4 1 4 10-11 7-9 3-9 5-13 4-9 5-12 5-10 5-12 12-23 2-5-7-7zm268 1-16 32-9 17-2 7 9 4 11 3 5-1 2-16 4-45zm10-1-3 2-2 17-4 45 1 1h9l13-2 8-3-5-16-4-10-5-16-6-17zm-198 4-19 9-11 7 2 6 3 3 5-2 23-11v-2h2l-1-8zm67 2-7 5 3 7 7-4 1-5-1-3zm-136 5-6 11v3l14 7 11 7 7 5 4-1v-4l-28-28zm124 0-20 7-6 10 1 3 9-3 19-7 1-1-1-7zm-49 6-5 3 1 3 4-1 2-5zm-144 1-23 4-17 7-12 6-16 12-10 9-10 12-7 11 1 3 9-1 6-7 8-10 11-10 6-4v-2l5-2 16-8 10-4 23-4h25l14 1 3-7v-3l-16-3zm134 4-5 3-1 7 6 31 2 3 5-1-1-20-3-20zm7 4-1 1 1 12 9 3 9 6 4 8 3 9h7l7-4-1-9-6-12-7-7-10-5-7-2zm-81 2-4 7 1 3 11 6 8 4 8 5 8-6-5-5-11-8-12-6zm125 0-6 3-3 6 1 5 3 3 3-4 4-10v-3zm-62 4-10 5-18 11v2l-4 2-11 7-16 12-15 12-35 35-7 8-5 8v11l4 4 7 1 10-4 8-5 32-16 16-9 30-15 5-3v-3l-7-6-5 1-16 9-14 8-10 6-16 9-18 10-3-1 2-4 9-7 8-6 17-11 24-12 12-5 9-1 8 7 9 6 12 4h10l14-5 9-7 6-9 3-11v-3l-11 1-3 5-4 8-8 6-4 2h-13l-9-5-6-7-3-10 1-10 3-8 7-6v-7l-2-4zm49 1v2h3v-2zm-161 0-17 2-16 5-17 7-16 12-10 9-11 13-9 15-6 15-4 17-1 8v17l3 18 5 17 12 21 9 11 9 9 15 11 11 6 13 5 19 4 8 1h15l18-3 12-3 16-8 14-9 12-11 8-9 10-16 5-11 6-20 2-14v-16l-2-13-2-5-6 2-11 5v32l-4 16-5 12-7 12-9 11-10 9-12 8-6 3-18 6-11 2h-18l-15-3-19-7-16-11-12-12-9-14-5-10-4-11-3-21 1-16 4-16 8-18 7-9 9-10 8-7v-2l5-2 10-6 14-5 14-3h27l7-14v-3l-7-2zm43 9-5 7-2 8 16 9 5-1 8-7 2-1-1-3-10-7-6-3zm89 1-1 3 2 9 5 6v6l-3 5-4 2-9-1-4-6 1-10-1-9h-4l-6 9-1 3v7l3 9 4 5 9 5 7 1 9-2 9-8 3-7v-9l-4-9-7-7zm-136 12-15 2-12 4-16 9-11 9-7 7-10 15-6 14-4 14-1 8v15l4 20 4 10 6 11 1 2h2l2 4 7 8 9 9 15 9 13 5 14 3h23l21-5 17-9 7-5 12-12 6-8 6-10 7-20 2-12v-15l-1-8-5-1-1 5v22l-3 16-8 16-7 10-10 11-14 9-10 5-17 5h-27l-14-4-16-8-12-9-8-8-7-11-4-6-5-14-2-12v-21l3-16 5-12 8-13 13-13 11-8 8-4 18-6 5-1 23-1 1-4-6-1zm38 6-1 4 5 3 8 4 3-1v-4l-12-6zm-113 3v3l2-3zm79-1-8 1-1 5 5 32 1 2h2l4-10 4-12 5-11 1-6zm133 2-2 3-7 1 1 2h6l4-3v-3zm-150 1-8 2-10 5 1 6 8 14 6 11 11 18 2-2 2-5-1-12-5-35-1-2zm48 2-3 5-7 18v2l5-2 9-9 8-6-2-4-8-4zm-116 3v3zm-4 5m47 1-10 8-9 10v4l12 8 16 11 9 7 7 4 5-1 2-3-10-17-1-3h-2l-2-6-6-10-5-9-2-3zm117 16-2 1v2l3-1zm-8 4-17 9-10 7-6 4 3 1 10-6 16-9 7-4-1-2zm-131 4-5 8-4 8-2 7v4l12 3 33 6h11l1-5-9-7-24-16-10-8zm167 0-12 6-2 2 2 9 2 4 17-8-3-11-1-2zm8 0 1 7 2 4 12-5-1-3zm-29 11-1 3 3 9 4 1 1-5-3-8zm-7 3-10 6-14 7-15 8v2l17-1 12-2 16-8-1-8-2-4zm-152 17-1 17 1 7 1 1 9-1 33-7 13-2 1-5-3-2-24-4-22-4zm62 4-1 2v9l3 6 7 6h15l7-6 2-6-5 1-9 4h-9l-5-3-2-4-1-9zm85 0-9 3-16 7-8 3v2l32 8 12 1 2-4 1-8-1-11-1-1zm-28 4-15 2-4 2-1 3 1 1h10l13-6v-2zm-65 9-42 9-8 1-3 3 6 17 2 4 7-1 10-7 24-15 7-4 2-2-1-4zm52 4-6 3 1 3 11 8 12 9 8 7 11 8h3l8-15 3-7v-6l-19-4-27-6zm-46 4-14 8-10 7-15 9-9 6 2 4 2 3h2l2 4 5 6 8 6 4-2 8-12 5-9 7-10 9-14-2-4zm34 2-2 3 6 10 4 6 5 10 13 22 4 2 11-9 7-8-2-4-19-14-13-10-11-8zm-7 3-2 3 6 34 2 15 3 9 9-2 13-5 1-3-10-18-5-7-6-12-8-13zm-18 1-12 17-5 9-12 19-2 5 6 4 13 5 4-1 3-9 5-23 4-20-1-5zm9 1-3 7-7 31-2 12-1 10 6 1h17l4-2-1-13-8-43-2-3z"/><path transform="translate(383,170)" d="m0 0h8l8 4 4 7-1 6-4 4h-8l-9-5-3-5v-7l2-3zm0 3-3 4 1 5 7 5 8 1 3-2-1-7-7-6z"/><path transform="translate(295,217)" d="m0 0h8l11 4 10 7 2 4-2 2-10 2 2 6-1 1 2 1-1 6-4 8-3 8-4-1-6-9-6-15-2-12 1-9zm2 2-2 2v12l4 14 6 12 3 1 4-10-2-8v-4-4l11-3-4-4-14-7z"/><path transform="translate(453,223)" d="m0 0 9 1 4 3v3l-7-2h-8l-2-3z"/><path transform="translate(371,242)" d="m0 0h6v3l-8 5-3 4h-3l2-6 5-5z"/><path transform="translate(464,248)" d="m0 0 9 1 7 4 3-2 1 5-2 4-4-1-5-3-8-1-6 4-6 9-3 3-1-1v-8l4-8 7-5z"/><path transform="translate(382,267)" d="m0 0h9l10 5 4 7-1 3-5-4-8-3h-8l-6 3-5 8-1 2-5-2-1-4h3l2-7 7-6z"/><path transform="translate(438,277)" d="m0 0 7 1 2 2v6l-6 9 1 7 5 2 7-1 5-5 1-7h3l3 2v2l-2 1-4 8-3 3-3 16-4 8-3 3-6 2-9-1-7-4-9-9-6-8-4-4-5 1 1-5 1-2h4l3 5 5 2h11l7-3 4-7-1-5-13-6-1-5 5-5zm-2 4-9 3v4l9 4h3l5-8-1-3zm2 25-5 5-8 4-8 1 2 5 9-2h13l10 2 1-12-1-1-9-2zm-14 16 1 5 10 6h7l7-6-2-4-2-1z"/><path transform="translate(301,279)" d="m0 0 6 1 3 5v6l-4 5h-5l-4-5v-6zm1 4-2 2v6l4 2 3-4-1-5z"/><path transform="translate(352,296)" d="m0 0h26l14 2v2h-59l4-2z"/><path transform="translate(385,304)" d="m0 0h6l-1 3-32 6-16 5h-2v-2l12-5 28-6z"/><path transform="translate(388,311)" d="m0 0h5v2l-14 6-19 10-10 6h-2v2l-5 3-2-1 10-8 10-7 19-9z"/></svg>
