<?xml version="1.0" encoding="UTF-8"?>
<svg version="1.1" viewBox="0 0 1024 1024" xmlns="http://www.w3.org/2000/svg"><path transform="translate(587,174)" d="m0 0h13l12 5 10 8 10 14 6 16 7 8 9 13 7 18 4 16v25l-4 16-7 18-4 9-5 22-3 16-7 27-4 20-7 30-2 13-1 12-2 13v35l4 25 4 13 8 18 9 17 4 7 8 13 6 11 8 16 8 17 3 12 5 18 2 10 4 4v2l4 2 16 10 15 5 6 1h18l12-2h9l5 2 4 5v10l-5 12-7 11-16 16-11 8-25 13-12 3-21 6-28 3-13 10-17 9-16 5-24 6-13 2-16 8-18 6h-17l-11-4-11-8-5-6-9-14-12-4-22-11h-14l-21 3-26 6-7 4-20 6h-11l-11-4-6-4-5-5-9-10-7-10-8-15-7-18-2-15-1-12v-13l4-6 2-2 4-1h12l6-8 4-2 9 1 8 5 2 3 10 4 4 1 8-16 7-8 2-4-4-9-17-2-13-5-9-7-7-7-7-15-2-11v-9l3-14 4-6 7-9-1-8-7-15-7-2 1 10v17l-5 6h-8l-6-7-1-2v-12l1-6v-8l-3-6-4-4v-15l-6-9-4-10-1-8v-15l4-16 3-6 6-8 1-10 4-6-2-9-4-13v-27l4-12 7-11 9-10 10-9 5-2v-17l5-10 5-4 8-3 7-2 3-15 6-9 7-7 4 1 2 2-1 4-8 7-6 10-2 7 1 1 14 1 8 5 6 8 3 13 14 6 9 7 7 6 10 13 6 15 1 5 1 21 8 5 4 6 10 6 9 8 7 10 6 11 1 8 3-1 6-8 11-18 6-11 6-12 4-10 7-21 1-7h-10l-12-3-11-7-9-12v-13l3-15-11-2h-6l-8 9-7-1-6-9-3-8-5-3-6-5-4-5-6-16-2-10v-13l3-13 6-9 11-8 9-3 14-3 2-4 1-6 1-9 4-6 5-4 4-13 7-14 9-10 9-5h17l8 4 20-3 20-2zm-2 6-13 7-7 6 2-4v-4h-11l-25 4-1-4-4-1h-12l-8 4-8 8-8 16-2 8 3 1v2l-6 1-7 6-1 4 4-2 5-2 7 1 7 6 3 7 1 5-3-1-6-9-5-4h-8l-6 5-1 9 1 1 22 3 16 3v1l-17-3h-26l-12 3-11 5v5l-7-1-4 4-4 10-1 5 1 20 4 12 6 9 9 8 9 4 14 3h31l24-4 18-6 19-10 12-9 7-7 3-5-1-4h-2v-2l10 1 5 2 1 6h-2l-1-3-3-1-3 4-6 21-4 10-9 17-11 12-5 5-10 7-6 3-11 2h-14l-10-2-6-6v-14l1-4v-7l-5-1-2 2-2 13v15l3 6 8 7 9 3 5 1h17l17-3 13-6 14-6 10-6h3l-2 5-4 30-4 19-6 21-4 13-6 16-11 31-4 13-7 24-4 22-1 22-9 9-12 8-3 4 4 8v5l-2-8-3-3h-7l-16 5-9 2-1 1v9l4 5 6 3h3v2l-12-6-2-4-1-8-20-14h-4l-3 13-20 4-1 3v13l-7 6 1 6 1 9-2 7-1 6 4 4 1 9-1 4 6 4 11 3 8 1h26l15-2 25-8 12-5 8-4 11-6 11-7 4-2-5 5-8 7v7l3 15 3 9 5-1 13-8 11-4 11-3h24l-14 1-21 5-16 8-10 8-9 9-7 11-1 5 9 4 6 8 5 9 6 12 2 6h-2l-2-5-5-8-3-2-6 7-7 1-1 2 6 14 3 14v22l-4 18-5 12 10-1 9-5 12-9 3-2 1 5 14-2 18-5 18-7 18-11 10-9 9-11 7-11 5-12 2-7v-4h2l-5 19v6h16l24-4 14-5 16-8 14-10 10-10 3-5v-9l-3-3h-8l-13 3-18 1-6 9-1 1h-15l-6-4-4-4-2-16-10-8h-2l-1 20h-2v-12l-3-21-2-11-5-1-5 1h-11l-11-4-9-9-4-6-3-11v-19l4-12 6-7 4-3-1-6-13-24-7-14-8-24-3-17v-62l-9-6-5-11v-16l5-14 7-6v-2l5-2 10-2 2-2 5-20 5-22 5-20-4-1-3 3 2-5 4-5 9-16 5-13 1-8 1-5v-28l-3-16-5-13-5-8-6-9h-3v2h-2l-2-13-11-20-10-9-12-5zm-222 157-4 3 1 4 2 1h-10l5-3-2-4-9 1-7 5-4 7v14l4 9 5 6 11 4h9l11-4 5-5 3-6 2-7v-8l-3-9-5-6-4-2zm199 0-14 7-7 6-6 8v2h-2l1-4-4-3-5 1-8 8-6 10 2 5 2 1h13l12-3 16-10 8-8 8-11 4-6-1-3zm-26 2-8 3v5l4 4h5l4-7v-5zm-80 2-1 2 4 7 4 2 5-4-1-4-8-3zm-67 25-8 13-8 6-10 3-11-1-10-5-4-4h-2l-2-4-2-1-6 3-13 12-6 9-5 10-3 12v17l4 12 3 6v9l-4 5v5l2 2 8 2 6 5 18 1 4 6 1 24 3 4 4 1 3-4v-24l4-6h8l1 1h8l7-5 11 1 3 2h9l6-9 4-4 13 1 5-3 1-13 4-3 8-3 2-1v-7l-9-5-2-22-3-11-7-13-7-9-9-8-13-6zm196 10-12 9-15 9-12 5-11 3-3 6-4 17-7 16-8 17-7 11-11 17-6 9-4 5-3 18-1 8 2 5v15l-3 3-10 1-3 6-4 4-3 14-1 9-2 10 1 8 9 8 5 3h21l13-4 17-9 12-9 2-2 3-29 2-14 6-21 5-16 4-12 7-18 7-20 11-35 5-26 1-21zm35 39-9 5-6 7-5 12v16l3 7 7 7 3 1 3-5 6-27 3-16-1-6zm-170 34-6 4-9 3-2 3v10l-4 4h-16l-4 9-1 4 4 8 1 4 1 22-2 10 4 2 7 1-6 2-1 11 7 6 2 3v30l3 6 4 2 5-2 1-3v-11l-1-5v-18l1-5 5-3 7 1 9 1 4-5 5-1 7 4 5-2 1-1v-10l-4-7 1-8 3-11v-17l-6-18-9-12-8-7-6-4zm-149 29-6 8-6 12-2 10 1 16 4 12 3 6h2l2 5v15l5 6 1 3 1 30 3 3 5-2 2-3v-11l-1-3v-9l2-5 5-4 3-1h9l12 7h8l10-11 19-1 6-5 4-6 6-2 10-2 4-3v-8l-4-5 3-14v-12l-4-11-3-6-13-1-6-3h-7l-4 4-10 1-4-2-4 1-2 2-1 10 1 14-3 5-2 2-8-1-3-4-1-19-2-9-3-2-17-1-6-4-5-2zm109 71-15 3-3 4 1 3 16-2 9-3 1-3zm54-2-4 4h-8l-6-1-5 3-2 8 4 2 17-6 6-5v-5zm-50 12-25 4-23 2-7 8v2h21l36-5 7-3v-7l-1-1zm40 3-12 4-2 2 1 21-1 1v5h4l5-12v-5l-1-2h5v2l3-1 2-14zm-128 8v3l8 2 4-1-1-2h-2v-2zm87 3-31 4-47 1-1 1 1 8 7 13 2 1 1 6 2 2 18 2-1-4-13-11h-4l-1-5-2-4 4 4h3l2 5 10 9 7 1 2 5 9 8 9 6 5-2h1v6l4 3 4-1 4-5 11-4 7-2 1-3-10-5 7 2 3 2h5l6-9 3-6-1-4-11-1-4-5-4-4-3 1-1 1v-5l5-3v-7l-1-1zm38 8-6 15v2l7 1 2-6v-12zm-8 19-8 14-1 5 12-1 3-3 2-12-4-3zm-106 5-8 10-3 7v8l7 6-4-3-3 1v10l4 11 2 3h4v6l5 5 8 6 11 4h11v-3l-10-2-4-5v-14l-7-4-2-7h2l2 5 5 4 5 1 7-4 5-5v-8l-5-4h-15l-4 5v4h-2l1-9-8-6-2-7 2-7-1-7zm9 7-5 4v7l7 8h7l8-7 2-4-3-5-6-3zm23 0-1 4v12l11 10 2 2 6-7 3-3-2-5-11-8-7-5zm277 9-7 5-6 10-1 5v20l3 9 7 10 7 6 11 4h7l8-4 1-1v-7l-6-15-6-16-8-13-6-11zm-222 3-10 3-7 6 2 6 6 5h7l7-6 1-2v-8l-3-4zm-32 6-11 12-2 4 1 5 3 3-2 3v8l-4 8 1 7 4 6 4 4 5-1 10-13 2-4-11-11 6 4 3-1-2-5 1-7 3-4 3-3-1-4-3-6-7-5zm24 16-10 4-4 4 1 7 6 5 2 1h10l4-4v-9l-5-7zm-53 9-5 4-1 6 2 5 5 3 6-2 8-6 1-1v-5l-5-4zm50 16-4 4 2 6 5 5 6 2 4-1 1-8-7-7zm-11 7-11 13 1 4 10 8h-2l-6-4-4-4-3 2 3 9 8 16 4 1-1 5 6 12 6 6h5l4-5 4-16 1-8 2-5 2-11-2-4-6-1-4 5v2l-3 1-2 5 4 4h-8l-4 5-2 1 2-5h2v-5l-1-2 4 1 5-5 4-6-1-5-10-6-5-8zm142 1-14 8-23 9-21 5h-42l-8-1-3 10-5 22-4 12-6 5h-8l-1 2 5 14 9 15 12 14 10 9 9 6 14 8 12 5 5-1-2-12-4-17v-25l1-7v-14l4-7 4-2 15 1 7-8 4-2 9 1 7 6 3 5 5-1 5-11v-2h2l7-11 3-3-2-14-4-18zm-163 23-10 14-3 7v7l10 5-2 1 2 6 5 10-2-1-4-7-10-10-10-7-6-1-5 5-6 4 4 5 5 3 9 13 8 17 2 10v34l-3 9 10-1 14-6 10-7 2-1-1 4h7l32-6 3-3-15-14-9-12h-2l-2-6-9-19-2-9-3-12-9-17-4-10-4-5zm-52 12-6 7-1 4 1 6 4 2h11l8-3 1-5-4-6-6-5zm-25 11-2 2-1 11 1 1 7-1 7-4 1-9zm398 0-1 1v10l7 7 7 3h7l6-4 2-6-2-2-13-4-8-4zm-188 6-7 7-1 2v7l3 2h18l3-2-1-7-7-8-2-1zm-196 5-8 4-6 6-1 8 4 18 4 9 11 21 8 10 5 5 8 7 9 4h7l5-6 4-11v-20l-4-17-8-19-8-10-8-7-4-2zm170 4-5 6v10l3 1 12-7 2-5-3-4zm51 4-8 6-1 4 2 4 12 9h7l3-5v-8l-3-9-1-1zm-38 8-9 4-8 7-1 3v28l4 20 6 15 4 9h2l2 4 6 7 10 6 5 1h13l6-4 6-9 3-5 2-10 1-26-4-18-9-16-8-8-10-5-10-3zm25 0 1 2zm240 5-5 4v2l-4 2-9 5-19 10-16 4-13 3-24 2-7 10-4 7v2l14-1 19-3 15-5 11-5 9-4 18-13 12-12 5-6v-2z"/><path transform="translate(586,238)" d="m0 0h14l12 5 8 7 1 5-4 6-4 1-5-4-3-3-8-3-10-1-12 3-9 5-3 3h-2l3-10 9-9z"/><path transform="translate(509,270)" d="m0 0h8l6 5-1 4-4-3-13-1v-3z"/><path transform="translate(440,273)" d="m0 0h6l3 4v9l-2 1-6-4-2-3v-6zm3 3-1 4 4 4 1-4z"/><path transform="translate(508,279)" d="m0 0 7 1 1 1v5l-5 5-10 2-1-1v-5l6-7zm0 4-5 4v2h6l3-2-2-4z"/><path transform="translate(321,389)" d="m0 0h10l1 1v9l-7 9-6 5h-6l-2-2-1-10 7-9zm1 2-6 5-3 6v7l1 1h5l7-6 4-8-1-4-1-1z"/><path transform="translate(312,417)" d="m0 0h5l2 3-1 9-4 4-5-2-2-4 1-7zm-1 4-1 4 1 4h4l2-3-1-4z"/><path transform="translate(421,449)" d="m0 0 2 2-6 7-7 2-10 2-3 3h-2l1-4 7-5 16-4z"/><path transform="translate(449,460)" d="m0 0h9l8 7 6 10v8l-3 3h-6l-12-13-3-5v-9zm3 1-2 2v6l9 9 4 6 5 1 1-1v-8l-4-6-7-8z"/><path transform="translate(324,465)" d="m0 0 6 2h9l4-1h13l4 3v2h-18l-2 1h-10l-7-5z"/><path transform="translate(589,480)" d="m0 0h10l4 4 2 7v7l-3 9-6 6h-9l-4-5-2-1-1-3v-12l3-7zm2 2-6 5-3 10 2 9 5 4 9-2 3-4 1-3v-12l-4-6z"/><path transform="translate(301,489)" d="m0 0 6 1 3 3v10l-5 15-2 2-7-1-3-5v-11l4-11zm1 3-5 6-2 7v7l5 6 4-3 3-12v-10z"/><path transform="translate(451,529)" d="m0 0h16l-3 4-17 1 2-4z"/><path transform="translate(391,536)" d="m0 0 3 1-2 4-3 2-9 1 1-3 8-3z"/><path transform="translate(313,554)" d="m0 0h18v3l-4 1h-12l-3-3z"/><path transform="translate(596,562)" d="m0 0h12l6 4 7 9 4 12 1 5v18l-3 10-6 8-5 3h-10l-9-7-6-8-4-10-1-5v-18l5-13 5-6zm2 2-8 7-5 12v18l4 13 5 8 9 6h9l7-6 4-9v-24l-3-10-6-8-8-7z"/><path transform="translate(384,585)" d="m0 0h2v6l-5 3-3 6-6 4 2-5 5-6 1-7z"/><path transform="translate(387,592)" d="m0 0 5 2 2 1v2l5 2 5 3h4l5-7 1 2-2 4v6l3 3h-7l-5 5-2 4-3 1 2-4 4-7-1-6-5-2-9-6z"/><path transform="translate(517,628)" d="m0 0v3l-8 6-5 2h-9v-2l11-2 8-4z"/><path transform="translate(518,637)" d="m0 0h8l4 5-1 8-5 5h-8l-4-5v-6zm0 3-3 3v7l2 2 8-1 3-4-1-5-2-2z"/><path transform="translate(480,639)" d="m0 0 9 1 6 5v8l-6 5-10-1-5-4v-9zm0 3-4 3v6l5 5h8l4-3 1-6-6-5z"/><path transform="translate(628,709)" d="m0 0h14l9 5 6 8 3 7v14l-4 10-8 7-6 2h-13l-9-4-7-8-3-6-1-16 5-9 8-7zm0 3-6 3-7 7-3 7v15l9 10 5 5 12 1 9-3 7-7 3-9v-10l-2-8-5-5-8-6z"/><path transform="translate(735,747)" d="m0 0h8l2 2v6l-3 3-8-1-1-1 1-8zm2 2-1 5h5l1-4z"/></svg>
