<?xml version="1.0" encoding="UTF-8"?>
<svg version="1.1" viewBox="0 0 1024 1024" xmlns="http://www.w3.org/2000/svg"><path transform="translate(596,145)" d="m0 0h10l14 5 9 7 7 8 8 14 3 10 10 12 9 14 7 17 4 16 1 7v21l-3 15-6 17-6 12-2 6-5 25-9 37-14 63-1 9-4 27-1 9v30l3 21 4 17 6 16 8 17 9 16 10 16 6 11 10 19 8 18 3 10 6 22 2 13 10 9 15 10 15 6 12 2h16l19-3 9 1 5 5 1 3v8l-4 11-8 13-12 14-14 11-14 8-16 8-19 6-21 5-26 2-13 10-20 11-25 8-17 4-16 2-17 9-18 6-4 1h-16l-10-3-10-6-9-9-10-16-25-10-14-8h-11l-25 4-28 6-15 7-18 5h-9l-11-4-11-8-10-10-9-13-10-18-7-20-2-8-1-18-1-4v-11l3-6 5-4 9-1 7 1 5-8 7-4 8 1 7 4 4 4v2l6 1 10 5 4-9 6-11 9-10-1-5-4-8-16-1-13-4-12-8-9-10-7-14-3-16 1-12 5-13 6-9 5-5-1-5-8-18v-2l-5-1-4-1v10l1 4v15l-4 6-2 1h-8l-6-7-1-4v-9l2-12-1-9-6-5-2-4 1-14-7-11-4-8-2-14v-10l3-17 5-10 7-10v-9l6-8-1-6-5-10-2-9v-26l4-13 10-16 9-10 12-9 3-1v-17l4-10 4-5 8-4 8-1h3l4-18 4-8 8-9 4-1 4 4-1 3-8 6-6 9-3 8-1 5h4 11l10 5 6 9 2 6 1 9 11 4 12 7 10 9 7 8 6 10 5 14 2 8v20l6 2 5 5 2 4 10 6 10 9 6 7 7 12 5 15 7-9 12-19 12-22 9-21 5-16 2-11h-10l-13-3-11-6-5-5-6-9-1-3v-10l4-19-16-2h-4l-6 8-3 2-7-1-5-7-3-11-5-2-12-12-6-15-3-16v-9l3-16 6-10 11-8 10-4 20-4v-21l5-13 10-10 5-12 8-11 7-6 8-4h16l11 5 16-3 26-2 10-4zm-4 6-12 6-10 9-3 2 4-7 2-1v-3h-10l-16 2-16 3 2-1v-3l-7-3h-10l-8 3-10 9-6 10-1 4 12 5 4 6h2v-2h2l-5 13-5 12-8 11v3l19 4 14 5-19-4-13-2h-25l-14 3-12 5-2 3 2 4-7-3-5 5-4 8-2 10 1 19 4 13 6 10 9 8 9 5 20 4h29l27-4 20-7 17-8 13-9 10-9 6-8-1-4-6-1 3-1h9l6 3 2 2 1 6-5-5-4 1-5 21-7 17-6 12-13 17-10 9-13 8-12 3-7 1h-8l-13-3-7-6-1-3v-11l2-9v-5l-1-1h-6l-2 13-1 5v13l4 8 8 7 9 3 9 2h14l20-4 12-5 17-8 8-5 12-5-6 5-4 32-5 23-3 12-3 11-8 24-6 16-5 13-9 27-3 10-6 24-4 24-1 15 2 2-13 12-12 8v2l-3 1v2l4 4 2 5-1 9-4 6-8 5-7 2-11-1-10-5-4-7v-9l-9-4-9-6-5-5h-3l-2 12v3l-13 4-10 1-1 3 1 2v11l-5 6-5 3 5 10-1 9-5 8 7 8 1 7-3 6 8 4 12 3 14 1h17l20-2 17-5 17-6 19-9 10-6 19-12-4 5-10 8-5 5 8 33 4-2 11-7 11-5 14-4 7-1h16l11 1v2l-3-1h-15l-16 3-11 3-15 8-10 8-9 9-7 10-5 9 12 3 4 5 4 9 7 10 4 10 3 15h-2l-1-9-8-14-4-4-5 8-2 1h-9l2 4 6 15 3 12 1 7v16l-3 16-4 11-5 10 9-2 14-7 13-10 3-3-2 8 16-3 17-4 18-7 16-8 14-10 8-9 5-5 9-14 6-14 3-10v-3h2l-2 10-4 15v3h16l18-3 17-4 23-10 18-13 10-10 4-7v-9l-3-3h-7l-19 4h-17l-4 9-4 3-4 1h-8l-7-3-6-5-1-2h-2l-1-13v-5l-11-8-2-1-1 21-1 6-2-26-4-22-2-7-5 2-7 2h-8l-10-4-9-6-8-11-4-11-1-5v-16l3-10 4-8 10-8-2-6-15-27-7-15-8-24-3-13-1-16v-32l1-18v-8l-10-6-5-10-1-4v-15l6-18 3-1 5-5 6-4 11-2 7-27 3-15 7-28-3-1-8 8 7-11 6-9 6-11 5-12 4-20v-26l-5-22-4-10-8-14-5-7h-2l-1 6-4-16-8-16-6-9-10-8-12-5zm-100 36-8 3-7 8-4 10-1 10 1 7 4 2 1-2-1-9 3-9 5-7 7-3 7 1 3 2h3l-1-7-5-5zm-5 18-2 3 1 4 2 2 5-1 1-1v-5l-2-2zm-136 117-5 2-1 4 4 1 3-1-3 3-2 1h-7l-3-1-1-2 6 1 1-3-2-4-9 1-7 4-4 7-1 3v14l3 9 6 7 9 4 5 1h7l10-3 6-4 5-8 3-11-1-11-5-9-5-4-5-1zm216 0-12 5-11 9-7 10v2h-2l1-6-6-3-4 1-8 8-7 12 1 5 5 1h12l12-3 15-8 10-9 9-11 7-12v-1zm-27 2-10 3-2 3 6 7h5l4-8 1-5zm-90 2 1 5 6 7 4-1 3-4v-3l-11-4zm-71 27-9 15-8 6-8 3-8 1-10-2-10-5-8-10-5 1-11 9-10 11-7 14-4 13v20l4 13 4 9v7l-5 6v6l3 2 8 1 4 5 2 1h18l5 5 2 5v23l3 5 5 1 3-4v-11l-1-13 3-7 5-3 5 1 4 2h6l8-6 2-1 9 1 6 4h8l4-5 4-8 4-3 8 1 6 1 5-3v-13l4-4 10-3 2-2v-7l-10-5-1-2-1-20-2-11-8-16-8-11-9-8-14-7zm214 11-19 13-11 7-15 6-11 2-2 5-6 22-7 17-11 21-8 13-7 10-10 16-3 4-1 10-3 10-1 6 4 8v14l-6 5h-9l-3 7-5 4-7 39 1 5 8 7 8 6h21l16-5 17-9 15-11 1-1 2-29 5-25 7-24 7-21 4-10 5-14 7-20 7-21 4-13 2-12 5-27 1-15zm37 43-10 5-7 8-4 10-1 5v13l2 8 8 9 5 1 2-6 6-28 4-20-1-5zm-186 37-5 4-11 3-2 4 1 9-3 5-3 2h-8l-9-1-2 4-3 9 4 8 3 11v17l-3 12 2 2 11 2 4 3-5-2h-6v8l-1 6 6 3 4 6 1 3v14l-1 6v9l3 7 3 2 5-1 2-4v-11l-2-9v-14l2-9 4-2 3-2 9 2 1 1h6l5-6 5-1 8 5 4-1 2-3v-9l-5-11 3-11 2-9v-15l-3-12-4-10-7-9-7-8-11-7zm-161 31-7 9-6 14-2 10v13l3 12 7 14 4 5-1 8-1 6 5 4 2 5 1 4v30l3 3 5-1 3-5v-8l-2-10 1-10 4-5 7-3h9l12 7 1 1h8l6-5 4-6 3-2h19l5-3 6-9 4-2 11-1 6-3 1-2v-7l-5-6 1-5 3-12v-10l-2-8-5-12h-12l-9-4h-7l-6 5-9 1-6-3-4 1-2 3-1 7 2 16-2 6-5 5-7-1-4-4-1-4v-12l-1-14-4-4h-18l-5-3-4-4zm177 75-5 5h-8l-3-2-7 1-3 6-1 6 3 1 18-6 7-4 2-7zm-58 2-2 1-15 2-4 6 2 2 15-2 13-3v-3zm7 11-34 5-2 1-20 1-8 10v1l22-1 40-5 8-3v-9zm41 3-16 6 1 10 1 11-3 8 4 2 8-18-6-5h-2l1-2 6 4h3l1-1v4h2l2-8 1-11zm-142 9 1 3 11 2h3v-2l-5-3zm100 3-24 4-19 2h-47v4l4 9 5 11 3-1 4-7-7-7v-2l7 7h2l6-8-5 9 2 4 13 11 5 1 11-15 1-6-7-6 9 6 4-5-1 8 18 12 6 3 6-9 6-10-1-3-9-6 10 5 3-1 1-2v-8zm39 8-4 9-4 8 1 3 6 2 2-5 1-5v-11zm-36 8-8 14-2 6 5 4 17 8 3-2 6-11 3-5-2-4h-10l-5-3-4-7zm-39 4-4 5-2 5-3 1-5 7 2 4 6 5h2v2l12 8 4-1 7-10 5-8-1-3-14-9-7-6zm-37 4-6 7 1 5 2 3 12 1 5 2h4l-1-4-11-9zm102 6-8 14-3 5 1 1 13-1 4-4 2-12-5-3zm-115 5-9 11-3 9v7l7 5 5 10 1 10-3 11 6 7 9 6 11 4 13 1v-4l-10-1-5-4-2-4 1-9 1-4-6-3-3-3-1-3v-9l1-6-9-6-3-7 2-7 1-5-2-6zm77 4-8 10-6 8 1 4 5 3h3l6-7 9-3 11-3v-2l-19-10zm109 3-17 5-11 2-2 3v7l4 6 8 4 4 1h7l9-3 5-3 3-4 1-10-3-6-3-2zm-176 1-5 3-1 2v7l5 6 4 2h7l8-7 2-3-1-5-6-4-5-1zm23 0 1 5v7l-2 5 9 6 4 5 2 3 7-8v-2l3-1-1-5-14-10-6-5zm303 10-7 4-6 9-3 10v16l3 11 5 9 8 9 8 4 7 2h7l9-4 1-1v-7l-6-16-9-21-5-8-9-16zm-240 3-12 3-6 4-2 2 1 6 7 6 7 1 6-4 4-5 1-6-3-6zm-36 6-12 14-3 4 1 4 10 9 12 8 1-2-3-7 1-5 4-5v-2l5-2-6-11-8-5zm-72 4v11l2 8 5 9 3-1 2-5-1-10-6-10-2-2zm30 0-4 5-1 6 3 6 5 4 5 1 8-4 6-7v-7l-5-4zm67 14-10 4-5 5 1 6 7 6 9 3 5-2 3-4v-9l-5-8zm-43 5v2l3-1zm-12 4-5 3-2 2-1 7 2 5 5 3 5-1 9-6 2-3v-5l-5-4-2-1zm17 0 2 5-1 8-6 9 5 10 8 7 3-1 14-19-5-5-13-10-5-4zm35 18-4 4 1 6 8 7 9 1 1-1v-8l-7-8zm-10 6-8 10-5 5v4l8 6 5 5 7 4 4-2 8-12-4-4-10-6-3-6zm154 2-13 8-19 8-7 3-26 6-6 1h-30l-17-3-2 3-3 15-2 11-4 14-5 9-5 3-9-1 1 5 5 13 10 16 12 14 10 9 9 6h2v2l15 8 14 6 5-1-6-23-2-13v-20l2-10-1-3v-11l4-9 8-3 10 2 3 1 8-10 7-3 7 1 5 3 5 6 3 5 4-2 4-10 10-15 5-5-2-10-4-15-1-8-1-3zm-175 13 1 4h2l-2-4zm4 5-1 4 9 20 4 6h2l9-12-2-4-11-7-8-7zm38 1-10 14 4 4 8 5h3l4-16-1-5-4-2zm-45 6-9 12-5 11-1 8 12 5h2v2l-6-1 2 5 6 10 2 7-7-11-9-10-12-9-5-2h-3l-2 4-10 5v2l10 7 9 12 7 14 5 16 1 11v17l-2 13-3 6v2l10-2 14-5 11-8 5-4-2 4v3l27-5 19-3-1-3-10-8-9-10-10-14-7-14-6-16-2-13-10-19-5-12-5-7zm32 12-4 5-6 5-1 7 7 13h2l2 4 3 3 5-1 3-3 2-7 4-15-1-5-12-5zm-89 2-5 5-3 8 1 4 6 3h10l10-4 1-4-6-8-6-4zm-26 11-3 3-1 10 1 4 5-1 10-6 1-9-3-1zm431 1-1 2 1 9 7 8 8 3h7l6-3 3-5-1-4-14-4-11-5zm-203 6-7 6-3 6v5l4 3h18l5-3-1-5-3-6-7-6zm-210 5-11 4-8 7-1 7 4 20 7 16 9 17 9 12 3 1 2 4 5 5 10 6 11 2 5-5 4-11 1-5v-18l-3-16-5-13-3-8-9-13-7-7-8-4-5-1zm181 5-4 4-2 7v6l2 2 14-8 3-5-2-4-5-2zm57 4-10 7-1 4 4 6 8 6 4 2h8l2-6v-7l-3-9-3-3zm-42 5m0 4-11 4-8 7-2 6v20l4 26 5 15 8 16 7 9 10 7 5 2 7 1h9l6-2 6-7 6-12 2-11 1-7v-18l-4-20-8-16-9-10-10-6-9-3-7-1zm25 0v2l3 1-1-3zm264 4-9 8-10 7-22 11-25 7-12 2-22 1-9 15-3 4v2l13-1 27-5 19-7 17-8 15-11 10-9 8-9 4-5z"/><path transform="translate(591,185)" d="m0 0h17l10 6 6 8 4 9 1 4v13l-4 13-4 8 5 1 1 2-20-1-13 2-15 5-3-1 3-1-3-5-5-8-4-11v-14l3-10 6-10 7-6zm2 6-8 3-8 7-4 9-2 13 2 11 4 9 4 5 4 1v-3l-5-7-1-4v-13l5-10 6-5 6-2 9 1 6 4 4 5 3 6v12l-3 10 3-1 4-8 1-7v-14l-2-8-6-8-8-5-4-1zm-1 24-4 3v6l3 3h6l2-3-1-7-3-2z"/><path transform="translate(511,249)" d="m0 0 9 1 4 5v4h-2l-4-5h-12l-4 1 4-4z"/><path transform="translate(435,252)" d="m0 0h5l3 5 1 9-2 1-6-3-3-5v-5zm2 3-1 5 3 4h2l-1-7z"/><path transform="translate(509,259)" d="m0 0 5 1 2 2-1 6-5 4-11 2v-6l7-8zm0 4-5 3-2 2v3l6-1 4-3-1-4z"/><path transform="translate(306,378)" d="m0 0h8l2 2v8l-4 7-6 7-4 2h-6l-3-3v-9l7-10zm0 2-6 5-4 7v8l2 2 4-1 9-9 3-7-1-4-1-1z"/><path transform="translate(294,409)" d="m0 0h5l3 4-1 9-5 4-5-2-2-5 1-6zm1 3-3 3 1 7 4 1 3-5-1-5z"/><path transform="translate(414,443)" d="m0 0 1 2-5 7-6 2-12 2-6 5-2-1 7-7 4-2 13-2 3-1 2-4z"/><path transform="translate(445,455)" d="m0 0h7l6 4 6 7 4 9v7l-4 4h-5l-6-7-7-8-4-6v-7zm2 2-2 2v6l6 7 4 4 4 6 5 1 1-1v-8l-5-9-5-5-5-3z"/><path transform="translate(306,461)" d="m0 0 5 1 4 2h8l7-2h11l8 4-3 1-3-1h-13l-7 2h-8l-5-3z"/><path transform="translate(597,477)" d="m0 0h8l5 4 3 11-1 9-4 8-6 4h-7l-7-6-2-5v-9l2-8 5-6zm2 2-5 3-4 5-2 11 2 7 6 5 7-1 6-6 1-7v-8l-4-7z"/><path transform="translate(284,487)" d="m0 0 5 1 3 4v9l-3 8-2 10-3 2-6-1-3-4-1-4v-8l3-11 5-5zm0 3-5 5-3 9v7l3 6 4 1 3-3 2-12 1-2v-9l-1-2z"/><path transform="translate(463,529)" d="m0 0v3l-4 3h-14l-5 2 2-4 4-2h13z"/><path transform="translate(382,538)" d="m0 0 3 1-4 5-5 2-8 1v-2l11-4z"/><path transform="translate(294,558)" d="m0 0h23v2l-10 2h-8l-5-3z"/><path transform="translate(605,566)" d="m0 0h10l8 5 6 8 4 9 3 14v14l-3 12-6 9-7 4h-9l-9-5-5-6-7-14-2-9v-16l4-12 6-9zm0 3-8 7-5 11-1 6v13l3 12 6 12 11 8h9l8-6 5-12v-22l-3-10-6-11-8-7-2-1z"/><path transform="translate(519,648)" d="m0 0h7l5 5v7l-5 6-2 1h-7l-5-5v-7zm0 3-4 4v7l5 3 7-3 2-3v-5l-3-3z"/><path transform="translate(479,650)" d="m0 0 7 1 6 4 2 3v6l-4 5-5 2-8-1-5-4-1-2v-9l5-4zm-1 3-5 4-1 4 3 5 4 2h7l5-3 1-5-3-5-4-2z"/><path transform="translate(639,726)" d="m0 0h13l9 5 8 9 4 10v11l-4 11-6 7-5 3-8 2h-9l-9-3-8-7-5-10-1-3v-13l4-9 7-8zm1 3-9 4-7 7-3 9v14l5 8 8 8 5 2 9 1 11-4 7-7 4-11v-8l-3-11-5-5-8-6-3-1z"/><path transform="translate(756,767)" d="m0 0 7 1 2 2v5l-4 4-7-1-2-2 1-7zm-1 3v5l5 1 2-2v-4z"/></svg>
