<?xml version="1.0" encoding="UTF-8"?>
<svg version="1.1" viewBox="0 0 1024 1024" xmlns="http://www.w3.org/2000/svg"><path transform="translate(753,275)" d="m0 0h21l10 5 9 7 7 7 8 15 2 7v7l4-1h10l12 6 6 7 3 7v7l-2 6-4 5-5 2-14 2h-114l-52-1-13-3-8-7v-11l7-8 8-4 8-1-1-3v-10l5-10 7-7 8-3h15l7 3 4-1 4-4 6-3h12l9 4 1-5 8-9 9-5zm6 3-10 3-12 10-6 10h-2l-4-4-4-2h-9l-9 7-2 3-6-1-6-4h-14l-10 7v2h-2l-3 6v17l-2 1-9 1-8 5-3 5v6l5 6 6 2 71 1h102l10-1 6-4 2-4v-7l-2-6-4-5-7-5h-20l-3-16-6-12-11-12-15-8-3-1z"/><path transform="translate(236,296)" d="m0 0h18l12 4 7 5 5 6h17l7 1 3-1h16l8 4 8 9 3 9 1 9 5 2 7 2 7 7 1 2v9l-4 7-8 4-11 2-20 1h-68l-40-1-18-1-10-2-8-5-2-3v-10l3-8 11-8 5-1h10l1-11 7-14 5-6 8-6zm3 4-10 4-10 6-7 7-5 12-1 12-2 3h-12l-6 2-7 6-3 5v6l3 5 7 2 7 1 58 2h61l24-1 14-2 7-6v-8l-5-6-4-2-11-2-2-14-3-7-10-9-2-1h-12l-7 3-5-1-2-2h-9l-3 3-5-1-9-10-12-6-3-1z"/><path transform="translate(483,349)" d="m0 0h7l6 7v13h6l4 4 1 10-3 8 5 2 2 3v7l-6 11-8 7 1 3 16 10 4 1 4-2 9-16 6-8 7-10 11-13 10-9 11-7 5-2h15l5 4v12l-5 10-3 3v2l8 3 1 1v13h-2l-2 5-5 6 2 4 2 2v9l-6 8-9 6-13 5-15 4 5 5 12 9 10 8 11 7h36l5 3 2 2v10l-1 5 7 3 10 1 23-1 10-3 10-6 4-4h2l-2-10-10-19-3-12v-23l3-12 5-12 7-9 3-3 5 1 3 5 3 16 5 9 11 13 5 5 3 8v6l11-3 43-1 9-3 5-3h7l2 2-1 11-9 17-7 9-11 9-20 9-14 3-19 2-6 3-7 8-2 1-4 8-10 14-9 11-16 17-7 7-8 7-20 15-15 9-16 8-11 6-20 6 2 5v6l-5 4-3 1h-11l-19-5-7-1-18 2h-35l-28-3 1 8v11l-3 4-9 1-20-9-8-7-5-4-4-5v-2l-3-1-5-7-3-6-32-16-10-7-13-9-11-9-14-13-7-8-13-16-5-9v-3l-4-1-7-14-7-17-1-8v-12l4-5 4-4 7-28 8-19 8-11 7-9 7-7 15-9 13-5 11-2 9-1h33l18 2 21 6 16 5 3-14 3-10 3-9 7-11 6-7zm1 5-8 7-7 14-5 13-3 12v5l11 7 16 8 6-2 9-8 4-8-1-6h-10l4-9 2-10-2-3-6 1-4 2 2-10v-9l-5-4zm102 17-14 7-8 6-6 7-5 4-7 9-10 15-9 14-9 10-11 11 1 5 8 7 3 2 6-1 9-4 27-5 16-5 9-6 5-5 1-6-3-3h-11l5-5 10-9 5-6v-7l-2-2h-8l-7 2 4-6 8-10 4-9-1-7-3-3zm-215 22-19 4-14 5-11 6-13 12-4 5-8 14-5 12-7 26v6l17 2-19 1-6 4-2 5 2 2 23 1 22 3 31 7 11 4 20 9 10 8 14 9 10 9 15 15 9 7h2v2l26 13 8 3h6l1-10 2 1 3 18 5 12 2 3h2l2 5 7 8 12 10 20 10 18 5h15l2-4-7-11-8-15-6-19-9-10-8-7v-2l15 13 7 9h30l15-2 20-4 29-11 14-7 9-7 14-14 13-17 7-10 8-11 7-5 7-2 23-3 16-4 5-3 5-5 10-9 8-9 6-15-1-3-18 7h-38l-14 4-5 3v-12l-8-14-7-7-7-11-3-6-3-14-4-1-6 10-5 12-1 7v26l7 16 7 14 1 3 5-1 5-4-9 11-7 6-9 6-20 6h-23l-20-6 1-5 4-7-2-5-3-2-10-1-15 3-2 1 1 3-7-2-15-10-3-1v-2l-12-9-16-13-3-2h-8l-9 4-4 2-6-1-9-5-3-4v-10l2-4 5-4-1-4-19-12-16-9-23-11-17-6-24-6-13-2zm-87 109-2 4 7 19 8 14 8 12 3 4h2l2 5 5 5 16 17 9 8 8 7 20 13 5 1-5-6-13-10-9-9-6-5-7-8-11-13-6-8-8-14-9-17-5-13-4-6zm14 0-1 5 6 15 5 10 9 15 10 15 14 16 20 20 14 10 19 12 14 8 8 4 37 10 11 2h15l-3-2-30-10-27-12-21-13-6-4h-2v-2l-11-8-20-18-9-11-7-8-7-10-11-19-11-23-3-2zm20 2 1 8 8 16 8 13h2l1 4 10 15 4 5 10 10 10 11 6 4 5 5 22 15 9 5 10 6 27 12 17 5 13 4 9 2 11 1h23l7-1-1-4-10-6-16-2-12-2-21-6-18-6-16-8-9-5-5-4-13-8-13-11-9-9-8-7-8-9-2-1-2-5-3-3-8-13-4-7-4-6-4-12-5-4-16-2zm30 5-1 5 9 16 5 9 7 9 8 11 23 23 17 13 16 10 28 14 9 3 18 5 17 4h8l-2-5-9-10-5-5-24-8-21-9-8-5-10-6-8-6h-3l-2-4-10-9-5-4-9-11-3-3-12-20-3-6-8-4-21-7zm35 14-1 3 1 2h2l2 5 9 13 11 13 12 12 14 10 18 11 21 10 17 6h5l1-3-4-11-3-3-15-5-14-7-14-8-11-9-13-12-8-8-9-6-11-8zm280 62-17 7-13 5-23 5-43 5-1 3 3 7 1 1h14l32-6 13-3 16-6 10-7 10-9v-2zm-37 26-26 6-28 4-1 3 5 8 3 1 10-1 11-4 20-9 9-6v-2zm-216 23 2 7 12 12 16 11 5 2 8 1 1-1v-15l-3-6-10-2-27-9z"/><path transform="translate(436,503)" d="m0 0 13 1 9 4 4 6-1 5-4 1-9-8-7-2h-10l-11 5-1-2 5-6z"/><path transform="translate(771,571)" d="m0 0h9l12 3 10 5 6 5 7 12 2 5 16 1 8 7 4 10 1 4 13 4 10 6 4 6 1 11-6 10-7 6-2 1-11 1-28 1h-121l-22-2-8-3-5-8 1-13 3-5 7-5 17-4 4-11 4-7 11-8 2-1h15l9 3 4-12 3-2 3-6 7-7 10-5zm-2 5-12 6-7 6-5 9-3 7-1 10-8-4-5-3h-14l-9 5-5 6-2 6-1 7-2 2-14 2-8 6-5 5-1 7 6 7 7 4 5 1 26 1h86l46-1 13-2 6-3 5-5 2-5-1-10-7-7-7-3-13-2-2-14-6-7-2-1h-11l-6 2-4-12-7-10-10-7-8-3z"/><path transform="translate(255,623)" d="m0 0h23l10 4 11 8 9 12 3 8 6-1 7-3h11l10 4 6 8 3 8h16l9 5 4 5 4 8 2 7 16 2 13 5 8 5 3 6-1 10-5 5-14 5-15 2-36 2-12 1h-130l-26-1-22-2-12-6-4-5-1-2v-12l4-7 9-6 11-4 1-11 4-10 7-7 9-4h17l4 1 2-6 4-10 12-14 9-6zm5 4-10 3-10 5-9 9-7 12-3 14-9-4h-15l-8 4-7 9-2 6 1 14-13 2-8 6-4 5-1 8 5 7 9 4 13 2 14 1 61 2h70l75-6 13-2 8-5 2-2-1-6-7-8-13-5-20-2-4-16-5-6-3-2h-14l-7 2h-2l-1-11-6-8-7-4-13 1-10 7-2 1-8-18-6-7-5-5-11-5-7-2z"/></svg>
