<?xml version="1.0" encoding="UTF-8"?>
<svg version="1.1" viewBox="0 0 1024 1024" xmlns="http://www.w3.org/2000/svg"><path transform="translate(775,254)" d="m0 0h20l9 4 13 9 8 9 4 7 5 10 2 8v6l4-1h11l14 7 6 8 3 8-1 10-4 6-5 3-11 2-13 1h-41l-130-1-16-3-6-4-3-5v-10l6-8 8-5 11-2-1-3v-11l4-9 7-8 11-5h14l9 4 2 2 6-7 9-4h9l8 3 3 2 2-5 7-9 11-7zm6 4-10 3-8 5-7 8-5 9-3 1-2-4-8-4h-7l-8 5-6 8-5-2-6-4-3-1h-13l-10 6-5 6-2 5v11l1 7-12 2-9 4-4 6v7l5 6 8 3 136 1h45l15-1 8-4 3-7-1-9-5-8-10-6h-15l-5 1-1-1-2-14-4-11-7-10-9-9-16-8-4-1z"/><path transform="translate(215,277)" d="m0 0h14l11 3 10 6 9 10 5-2 1-1h9l5 3h4l7-3h10l9 3 8 6 6 9 2 9v8l11 3 7 4 4 5 1 3v7l-4 8-10 5-15 2-40 1h-31l-81-2-13-2-8-4-3-4-1-3v-7l4-9 5-5 6-4 8-2 10 1v-11l5-13 7-9 7-6 16-8zm1 5-10 3-12 7-9 10-5 13-1 15-14-1-6 2-6 4-4 5-2 4v6l3 5 9 3 11 1 71 2h41l35-1 17-2 5-2 4-4 1-8-4-6-7-4-11-1-1-1v-9l-2-9-6-8-8-7-5-1h-9l-6 2-3 2-4-1-4-3h-8l-5 4-5-1-5-8-6-5-12-5-4-1z"/><path transform="translate(481,335)" d="m0 0h7l6 7 1 4v7l-1 4h6l5 5 1 9-4 10 6 1 3 5-1 8-5 9-8 8-2 1v3l20 12 4 1 4-2 2-4 14-22 6-9 9-11 13-13 11-8 10-4 3-1h11l6 4 1 3v10l-5 10-5 6v2l7 1 4 4v11l-6 9-5 5-1 2 5 3 1 2v8l-6 9-9 6-14 6-17 4-2 1 10 8 8 6 5 5 17 12 5 2h13l10-2h12l8 4 2 3v8l-3 8 10 3 14 2 16-1 14-3 14-8 4-4 1-2v-7l-12-23-3-9-1-8v-17l2-13 4-10 7-13 4-5 3-2 5 1 2 3 3 17 6 12 9 10 9 11 4 10v5l13-4h43l9-2 4-1v-2l6-3h5l3 3-1 10-4 9-6 10-7 9-10 9-9 5-13 6-12 3-22 2-9 3-7 8-2 3h-2l-2 5-12 17-13 16-9 10-15 15-14 11-16 12-16 10-30 15-19 6h-3v4h2l1 8-4 4-5 2h-10l-17-4-10-3-16 2-13 1h-25l-24-2-14-2 2 14v7l-3 5-8 1-12-5-10-5-10-8-6-5-10-13-6-10-16-7-19-10-9-6-18-13-15-13-15-15-9-11-12-16-2-6h-2l-8-15-7-17-3-14v-8l4-6 5-4 8-30 4-11 5-12h2l2-6 8-11 12-12 11-7 13-6 14-4 19-2h23l22 2 19 5 26 8 4-16 6-19 7-12 8-9zm1 5-8 7-8 14-6 17-2 10-2 7 9 6 17 8 4 3 4-1 9-7 6-8 2-7-2-3h-7l-4 1 5-12 2-9-2-4-6 1-4 3h-2l3-13v-7l-3-5zm111 19-9 4-10 6-10 9-9 9-14 20-10 16-8 10-16 16 1 6 7 6 6 3 4-1 9-4 20-4 18-4 10-3 10-6 6-6 1-7-3-3h-13l5-5 8-6 8-9 2-4-1-5-2-2h-7l-10 3 2-4 10-12 6-13-1-7-4-3zm-232 24-18 3-17 5-13 7-10 8-10 11-5 8-9 19-5 19-4 17 1 1 22 2 13 2 2 1-17-2h-22l-6 3-3 5 1 4h21l26 3 28 6 17 5 24 11 10 7 16 11 7 3 4 1h11l6-2v-4l4 1 4 6-6-1-8 4-11 1 6 7 9 9 9 7 5 4 11 6 21 10 11 4 1-1 1-12h2l2 15 5 15 9 14 7 8 13 10 21 11 22 6h15l2-2-1-5-9-12-7-14-6-19-7-9-9-7-4-5-1-3 6 4 10 9 5 4 6 9h25l16-1 20-4 17-5 15-5 25-12 10-8 16-17 12-16 8-12 9-12 8-5 11-2 19-2 18-5 8-5 10-8 11-12 8-16 1-6-4 1-15 6-4 1h-15l-7-1h-16l-13 4-9 4v-12l-8-16-10-10-9-14-2-10-1-9h-4l-6 9-6 16-2 9v21l4 13 7 14 5 9 1 6 4-1 7-7 2-1v2h-2l-7 9-8 8-11 8-17 6-9 2h-20l-16-4-10-4 2-4 5-9-1-4-4-3-8-1-22 4 1 3 4 1v2l-10-4-15-10-16-12-16-13-7-6h-7l-10 3-3 3-7 1-12-6-5-7v-8l3-4v-2l4-2 3-4-11-8-20-12-23-12-27-11-26-6-20-3zm-98 118-1 3 5 16 10 19 13 19 12 14 5 5 9 10 8 7 15 12 17 11 7 4 2-1-9-7-10-8-15-14-11-11-9-11-10-13-10-17-8-16-6-13-3-9zm15 0-1 2 6 15 8 17 8 13 13 19 11 13 11 12 12 11 20 15 14 9 10 6 15 8 13 4 26 7 22 4h12l-3-2-26-8-16-6-27-13-11-7-14-9-11-8-11-9-5-6-6-4-6-8-5-5-10-12-11-17-6-10-10-21-4-9-7-1zm22 2 1 6 8 16 8 15 2 3h2l2 5 9 13 9 11 12 13 13 12 16 12 9 6 11 7 20 11 10 4 14 6 29 9 20 4 9 1h16l13-1v-3l-12-8-24-3-17-4-26-8-26-12-9-6-16-10-10-8-17-16-13-13-3-4h-2l-2-5-1-2h-2l-2-4-12-20-4-6-6-15-5-3-20-3zm33 6-1 2 4 9 6 11 9 14 10 14 11 12 15 15 14 11 13 9 13 8 26 13 17 6 28 7 15 2-2-4-9-10-5-7-27-9-15-6-24-13-14-10h-2l-2-4-11-9-7-7-9-11h-2l-2-4-12-19-4-8-5-3-16-6zm37 15 2 4 9 14 11 14 11 12 11 10 14 10 11 7 19 10 12 5 21 7 3-1-2-5-3-10-4-3-11-3-15-7-16-9-11-8-10-9-10-10-5-6-12-7-12-9-11-6zm308 67-13 6-20 7-13 4-24 4-37 3 1 8 3 4h12l26-4 16-3 24-8 10-5 15-13 2-3zm-313 30m273-1-14 3-19 4-15 2-13 1-1 4 5 8 1 1h8l13-3 26-12 12-7zm-238 24 2 5 2 4 5 5 11 10 9 6 10 5 10 1v-15l-2-7-3-2-12-2-30-10z"/><path transform="translate(433,483)" d="m0 0h9l6 4 1 6-5-2-11-5z"/><path transform="translate(429,497)" d="m0 0h7l6 3 5 6 1 9-3 6-6 5-9 1-7-4-4-6-1-7 4-8 5-4zm7 7-2 2 1 5 5 1 2-2v-5l-1-1z"/><path transform="translate(799,576)" d="m0 0 14 2 13 7 8 7 6 10 3 8h17l8 6 5 9 1 9 12 2 10 5 5 5 3 5 1 10-3 7-6 8-5 3-10 2-11 1-66 1h-71l-32-1-16-4-5-4-3-8 1-10 3-5 7-6 11-4 10-1 2-10 4-8 9-8 5-3 4-1h13l11 5 3-12 2-4h2l2-5 6-7 10-7 9-3zm-7 6-12 5-8 7-6 9-4 10-1 11-6-3-5-4-4-2h-13l-8 4-5 4-4 6-2 6-1 9-16 2-8 4-7 7-1 8 3 5 5 4 7 3 7 1 37 1h59l70-1 16-2 7-3 5-5 3-7-1-9-7-8-9-4-13-1-1-1v-8l-3-9-4-5-4-2h-10l-8 3-5-15-7-10-9-6-11-4z"/><path transform="translate(234,633)" d="m0 0h22l11 4 11 7 8 9 5 10 2 7 10-5 7-2h8l11 4 7 8 4 12 8-2h8l9 4 5 5 5 8 2 11h11l13 3 12 6 6 5 3 6-1 8-5 6-13 5-13 2-67 5h-101l-54-1-24-2-11-3-6-3-5-5-2-4v-12l3-6 8-7 6-3 10-2v-11l4-12 9-9 11-4h14l7 2 4-13 4-8h2l2-4 5-6 7-5h2v-2l12-5zm6 4-12 3-12 6-9 9-8 14-3 14v2l-12-6h-13l-10 5-4 5-3 3-3 9 1 10 1 5h-8l-9 3-6 4-5 6-1 8 3 6 6 5 11 3 29 2 49 1 19 1h65l82-6 17-2 10-5 2-4-1-6-6-7-16-6-4-1-17-1-1-2-2-12-4-8-7-5h-13l-7 3h-4l-1-11-4-7-6-5-7-3-10 1-8 5-6 5-3-3-4-13-5-8h-2l-2-4-5-5-10-5-12-3z"/></svg>
