<?xml version="1.0" encoding="UTF-8"?>
<svg version="1.1" viewBox="0 0 1024 1024" xmlns="http://www.w3.org/2000/svg"><path transform="translate(458,216)" d="m0 0h29l28 3 30 7 25 6 22 10 5 3v2l5 2 12 10 14 6 13 10 8 10 4 8v7l-5 5-3 2 8 7 8 10 6 12 2 8v13l-4 9-6 4-4 1h-8l-10-3-13-12-7-8v-2l-3-1-3-3-1 17-3 8h-2l-2 5-8 7-6 2h-12l-8-2-9-6-10-10-8-11-6-11-4-5-3 9-6 8-7 5-9 3h-12l-15-5-11-8-9-10-2-2-13 9-8 7-5 5-8 9-9 13-11 22-3 10-5 17-2 12-1 13v10l2 19 5 19 6 16 9 17h3l1-17 2-9-4 2h-6l-4-4 1-8 5-8 7-3h8l2-6 10-19 9-10 7-8 12-10 11-8 22-11 25-7 15-2h23l13 2 23 6 16 8 11 6 9 7 10 9 8 8 18 5 5 5 2 5v10l-2 5 1 18 3 19 7 8 9 9 6 10 3 7v7l-3 5-2 1h-9l-11-4h-2l-5 15-9 19-8 10-9 11-10 9v9l49 8 22 3 40 8 19 4 38 10 10 4 8 5 3 6-1 9-5 5-8 5-15 6-17 5-6 1 12 5 16 5 15 3 40 9 5 3-1 4-4 2h-8v-2l10-1v-2l-33-6-21-5-19-5-20-8-12 1-27 3 3 2 16 5 27 8 25 5 8 2v2l-18-3-28-6-37-12-5-2-52 1-5 4h-2v3l5 1 11 5 12 4 22 8 16 4 25 6v2l-10-1-31-8-27-9-25-10-6 1-8 4-5 1h-12l-13-3h-8l-13 4h-13l-14-4-12 1-6 1h-25l-9-6-4-2-42-2-15-2-7-6-1-6 1-6-5-4-7-1-40-2-16-4-10-5-3-4-1-5 3-5 3-3-2-4-13-6-19-6-16-4-17-6-8-5-3-5 1-5 7-6 8-2h12l9 1-4-6-9-8-22-12-9-8-2-3v-7l5-4 2-1h10l12 4 15 8 11 9 8 7 7 8 9 10 7 8 4 2h6l2-7 3-3-13-12-11-11-10-13-6-9-10-18-10-26-5-25-2-15v-41l4-27 3-16 6-19 3-7 7-15 8-14 12-16 9-10v-2l-7-3-16-3h-7l-4 11-5 4-6 4-11 17-11 20-6 16-6 18-4 20-3 19h-2v-8l4-22 5-21 10-26 13-23 6-8 1-2-6 1h-22l-12 3-8 5-6 7-6 10-5 6-7 6-5 9-1 12-4 10-8 9-12 9-6 8-3 7-2 14-5 13-8 11-5 6-8 7-10 10v-3l4-5h2v-2l7-6 11-14 7-16 4-19 3-8 8-8h2l1-3 9-7 5-6 3-6 3-16 4-8 10-10 12-17 7-6 10-5 14-2h18l12-3 6-5 1-11h18l13 4 11 4 10 5 14 4h9l8-4 3-4 1-3v-7l-4-10 1-4 9 2 15 8 10 9 9 11 7 9 7 7 13 8 3 1h19l6-3 8-8 3-8 1-8 3-2 5 6v2h2l10 18 9 12 11 8 9 4h11l8-4 6-7 4-11 1-5 1-16 4 1 8 9 6 8 5 6 11 7 6 2 9-1 5-4 3-7v-10l-4-11-8-13-10-10-7-6v-4h10l2-1v-7l-5-10-8-8-11-7-9-3h-8l-6 1v2h-2v2l-2-1 5-5 7-3-5-5-10-7-10-6-15-6-16-5-17-3-20-5-27-4h-30l-41 6-23 5-10 2-20 7-16 6-15 8-10 5-9 6-19 12-6 4h-2v2l-11 8-17 14-22 22-11 14-8 11-10 14-10 16-10 19-8 18-7 19-4 16-6 26-2 13v38l5 27 8 26 8 17 9 17 8 13 10 13 8 10 9 10 9 9 14 11 14 10 11 7 20 12 23 12 18 8 7 3 14 5 10 4 25 8 30 9 24 7 14 3 39 9 16 3 33 8 19 3 41 7 17 2h15l4-2-19-8-17-5-19-6-17-4-28-8-10-2-18-5-2-1 1-2 28 7 6 2 14 3 28 8 16 4 23 8 12 5 6 5-1 3-9 2h-11l-31-3-33-6-35-7-30-7-8-2-13-2-28-7-11-3-9-2-28-9-21-6-32-11-14-6-10-4-23-11-8-5-17-10-30-20-14-12-14-14-7-8-8-10-10-15-8-13-11-21-9-25-4-17-3-21-1-12v-14l2-20 2-14 5-21 10-32 9-20 6-11 9-16 2-3h2l2-5 11-16 12-16 9-10 10-11 5-5 11-10 13-10 14-10 15-10 18-11 11-6 12-6 10-4 18-7 16-4 27-6 13-2 19-2zm-35 91 2 9-1 9-4 7-11 4h-9l-17-4-8-4-4 1-11 12-11 16-4 7-12 25-3 11-6 21-2 10-1 12-1 8-1 25 1 18 3 23 4 15 3 10 4 10 8 16 8 14 9 12 4 5 5 5 4 5 8 7 5 5 5-1 15-6 16-3 26-1-2-4-7-11-8-15-4-10-14 7v3l12 13v1l-15-15-9-2-3-1v-14l-8-13-9-16-9-27-2-10-2-15v-35l3-21 5-17 9-21 3-6v-2h2l-7 14-9 27-4 18-1 7v36l3 18 6 21 5 12 5 10 6 11 4 6 3-1 8-13 5-6-2-5-7-12-8-20-4-15-1-11v-35l2-17 5-16 5-13 8-16 7-10 10-13 11-11 14-10 3-2-2-5-13-13-6-4-8-4zm119 103-23 5-14 6-15 9-13 11-9 9-9 13-8 14-1 7h8l3-3 3-5 10-5 16-6 13-3 8-1h12l15 3 11 6 5 5 8 12 16-1 8-16 8-7 8-4 12-4 11-2 22-1-2-4-7-7-15-11-14-8-20-8-24-4zm-41 10m-2 1m-4 1-16 10-10 8-6 5-9 11-7 11-6 10-2 5v3h7l3-5 3-7 9-16 12-15 11-9 10-7 5-3zm-43 31-8 10-7 11-4 9v3l4-1 4-11 8-13 4-6zm172 3-19 4-11 7-7 7-4 8-2 8-5-1h-8l-8 2-5-10-6-8-14-7-11-2h-15l-15 3-19 6-9 6-2 2v12l4 5 4 25 6 11 6 7 12 8 13 3h12l12-3 11-6 6-5 6-10 4-12 1-14 2-4 4-2h10l4 2 7 23 7 9 7 6 10 5 6 1h18l10-2 10-5 1-3 4-2 5-5 4-9 2-8 1-14v-12l2-6v-9l-2-5-2-2-14-3-8-1zm-170 31-34 4-5 3-3 4-1 8 4 1 3-4 3-5 5-1 34-2 1-3-2-5zm-2 11-7 1-2 6-1 9v22l3 16 4 11 5 12 9 16 11 14 11 10 17 12 3 3h-2l-1 22-5 12v4l4 2 9-1 8-7 4-4v-2h2l6-12 2-5 18 4 11 1h16l19-3 17-6 16-8 14-10 4-5 5-5 8-11 8-15 7-18 3-15v-28l-2-7h-2l-8 16-4 5-9 6-12 4-5 1h-17l-13-4-10-6-8-9-6-13-3-12-4-3-9 1-3 4v11l-3 12-7 12-7 7-10 6-16 3h-12l-16-4-9-6-8-9-3-6-5-17-2-13-1-1zm-25 2-2 5-2 11v14l4-2 4-27zm11-1-5 2-2 6-1 7v12l2 2-12 9-9 9-8 11-3 8v9l1 1h9l16-9 12-7-2 3 1 8 9 17 8 11 5 5 1 3-11-13-3-5h-2l-2-5-5-12-2-6-3-1-3 3 3 10 6 13 5 9 5 5 9 11 10 9 10 8 17 9 4-1-1-4-9-6-9-5-10-8-4-6h2l2 4 8 7 8 6 12 6h2v-6l-8-7-7-5-15-15-6-7-9-16-5-11-7-22-1-6v-30l1-9zm243 29-1 19-1 9 12 6 8 1 3-3v-9l-6-10-12-13zm-392 52-2 2v6l9 8 15 8 14 10 7 9 1 6-11-1h-16l-8 3-2 3 1 5 7 5 22 7 19 5 10 3 16 8 3 3v5l-6 5 1 6 5 4 14 4 18 2 28 1 12 4 3 4-1 10 4 4 9 3 21 2 29 1 6 3 6 4 4 1h15l12-2h17l9 4h12l14-5h7l14 4h11l10-4 11-6 2-1-1-3-34-3-32-4-18-2-37-8-21-7-16-8-11-7-15-8-12-4h-11l-4 4v6l-9-2-13-8-13-10-13-11-10-6-14-6-10-3-5-4-9-11-15-16-15-12-16-8-7-2zm131 34-17 4-6 2v2l49 11 13 2 19 4h3l-1-3-10-6-10-8-8-8zm-29 9-8 6-1 4 3 3 8 4 12 8 16 8 16 6 15 5h13l13 4 10 6 25 6 30 7 58 10 15 2 44 3h58l36-3 26-5 17-5 8-3-4-2-64-6-27-3-26-3-41-6-4-1h-20l-6-3-58-10-13-1h-14l-7 10-7 6-7 3h-7l-6-3-2-4 1-10 3-10-2-2-55-12-17-3-26-6zm239 7-11 7-10 5 1 7 8 15 3 2h9l10-3 2-2-1-4-7-6-1-21zm8 9-1 1v9l6 5 1 8-2 5 24 4 60 8 25 2 57 5 6-1 6-5-1-3-22-8-45-11-17-3-49-9-35-5zm-105 3-3 6 5 2 8 1h19l18-3 11-3v-1h-36zm-34 2-4 13v6l3-4 3-8v-7zm102 1-20 6-15 3 4 2 41 7 1-3-5-12-2-3zm-184 11v2l15 11 10 6h4l2-7-11-5-13-5zm83 26 4 4 14 7 22 8 48 9 21 3 36 3 17 1h53l45-4 28-6 21-7 8-4v-2l4-2 2-2v-8l-4 1-9 6-21 7-21 5-22 3-20 2-18 1h-38l-31-2-35-4-12-1-43-8-26-5-19-5z"/><path transform="translate(479,256)" d="m0 0h13l15 6 11 8 2 5 4 2 6 9 4-2 2-2 7 1 9 8 8 10 5 6 4 2 4-1 2-3v-10l-5-17 2-5 2-2 9 1 11 7 8 11 3 6-1 3-10-15-8-7-5-2h-7l1 8 3 10v13l-3 5h-9l-7-6-10-13-7-6h-6l-2 3h-5l-7-8-7-9-10-7-12-5-10-1-7 2 6 7 4 6 1 8-4 5h-10l-12-5-16-8-12-4-6 1-5 5-6-1-17-9-15-4h-18l-21 5-10 4-2 1 2-4 11-4 17-5 7-1h11l14 3 16 7 5 4h7l5-5h8l15 6 16 8 8 3h7l1-1v-7l-4-8-7-7 1-3z"/><path transform="translate(672,304)" d="m0 0 10 2 10 6 6 7 1 9-4 5-2 1h-8l-6-5-8-16-3-5 1-3zm1 4 1 4h2l3 9 5 8 6 2 5-3v-6l-4-6-6-5-8-3z"/><path transform="translate(524,361)" d="m0 0 6 1 6 4 4 6v8l-3 4-7 1-6-4-2-6v-11zm3 3-1 1v12l4 4 5-1 2-1-1-7-6-7z"/><path transform="translate(616,364)" d="m0 0 6 1 6 5 4 8v7l-4 6h-9l-5-6-1-4v-8l2-8zm1 4v15l4 5h5l3-5-1-6-4-6-3-3z"/><path transform="translate(673,374)" d="m0 0h6l8 4 5 4 3 5v9l-5 5h-7l-5-4-5-12-1-10zm3 3 1 9 4 9 4 3 5-1 2-2v-7l-5-7-9-4z"/><path transform="translate(249,402)" d="m0 0 2 1-6 26-2 13v7l-1 2v44l4 24 4 15 7 21 8 17 7 14v2h2l7 12 3 4-1 2-6-8-8-12-5-9-8-15-5-14-7-21-2-8-3-25-1-16v-11l2-24 3-21 5-18z"/><path transform="translate(630,461)" d="m0 0h10l12 3 5 3 5 6 4 11 1 4v16l-3 12-7 10-8 6-9 4-4 1h-16l-10-3-10-7-7-11-4-12-1-13 2-9 6-9 9-6 11-4zm3 3-7 10-8 16-8 14-7 14-2 3 1 4 6 5 11 4 4-1 10-19 12-24 10-17 1-3-6-4h-5l-10 19-3 5-11 19-3 7 2-6 7-14v-2h2l12-23 2-3-1-4zm-12 1-14 4-10 7-5 8-1 4v12l2 9 5 11 3-1 9-17 5-10 12-22 2-5zm36 8-3 5-8 14-10 19-9 17-3 6 1 1 12-1 14-5 7-8 5-10 1-5v-19l-4-12-1-2z"/><path transform="translate(506,471)" d="m0 0h20l11 2 8 6 6 7 2 6 1 6v16l-2 10-8 11-8 6-10 4-6 1h-10l-11-3-8-4-7-7-6-13-2-7-1-15 3-12 7-8 12-5zm0 2-12 3-9 5-4 5-3 9v12l3 13 3 6h2l4-7v-2h2l15-27 7-11 2-5-1-1zm14 0-7 10-9 16-7 11-11 19 4 6 7 5 10 2 15-25 13-22 6-9 1-7-7-4-4 1-8 15-8 13-9 14-5 9 1-3 8-15 7-10 9-16v-2h2l2-6-3-2zm25 10-6 8-11 19-11 18-8 14 1 1h12l12-3 8-6 1-3h2l5-10 2-7v-18l-4-11z"/><path transform="translate(575,524)" d="m0 0 7 1 4 5-1 6-4 4-4 1-4-2 8-3 1-1v-6l-1-1h-8l-5 1 4-4z"/><path transform="translate(551,549)" d="m0 0 13 1h15l4-1h8l5 4 1 6-5 10-8 6-6 2h-13l-10-3-8-8-3-5v-6l5-5zm34 2-7 1h-29l-2 3v7l2 1 9-2 10 1 10 4 5 5 4-1 6-7 1-9-3-3zm-34 12-1 4 8 6 6 2h14l3-1-1-4-9-6-4-1z"/><path transform="translate(207,564)" d="m0 0h2l13 30 13 20 11 14 21 21 17 13 24 16 18 10 19 10 26 12 9 4 24 10 9 3 21 8 13 4 10 4 7 3v1l-9-1-24-9-13-4-26-10-35-15-22-11-22-12-7-5-11-6-10-7-12-9-12-11-19-19-3-4v-2l-3-1-10-15-7-12-8-18z"/><path transform="translate(604,749)" d="m0 0 11 3 18 6 21 6 20 6 12 2 23 5 19 3 23 2v1h-13l-19-1-28-5-25-6-21-6-36-12-5-3z"/><path transform="translate(801,764)" d="m0 0h15l12 4 5 3 1 4-5 4-4 1h-13l-13-4-6-5 1-4zm4 2-9 2v3l9 5 10 2h8l7-2v-4l-2-2-10-3z"/></svg>
