<?xml version="1.0" encoding="UTF-8"?>
<svg version="1.1" viewBox="0 0 1024 1024" xmlns="http://www.w3.org/2000/svg"><path transform="translate(458,240)" d="m0 0h37l22 2 52 13 21 10 2 3 7 4 10 8 10 4 12 9 8 10 3 6 1 6-3 5-3 4 8 8 7 10 4 9 1 11-1 12-2 4-7 4h-13l-8-3-15-15-4-5-2-1-1 2-1 11-3 7-6 8-7 5h-19l-8-4-10-9-7-8-9-15-4-2-2 7-7 8-12 5h-14l-14-5-11-9-6-7-5 1-5 4-11 9-12 13-9 14-8 17-7 22-3 15-1 19 3 21 5 18 4 10 8 16 2-1 1-14 2-7-2 1h-7l-4-5 2-8 5-6 4-2 9-1 5-12 9-14 15-16 13-10 11-7 18-8 21-6 8-1h29l14 3 17 5 16 8 14 9 13 12 5 5 9 3 8 2 6 7 1 5-1 9v18l2 17 9 11 7 7 7 14v7l-3 5-1 1h-10l-10-3-7 17-7 14-11 14-8 9-4 3v8l8 2 35 6 18 2 20 4 24 5 15 3 40 11 10 7 3 5-1 8-11 10-23 8-10 2 1 2 24 8 18 4 25 5 9 4-1 5-2 1h-8v-2h7l-1-2-30-6-26-6-12-4-10-4-3-1-19 1-14 1-2 1 24 8 28 7 18 4v2h-8l-28-6-31-9-13-5h-23l-26 1-5 5 11 4 24 9 24 7 15 4 9 2-1 2-11-1-21-5-25-8-16-6-11-5-7 1-9 4h-16l-8-2h-10l-10 3h-14l-10-3-15 1h-27l-10-6-43-3-11-2-6-5-1-2v-11l-6-2-43-3-15-4-8-5-2-4v-6l3-4-1-4-15-7-15-5-14-3-14-5-9-6-1-2v-7l6-5 5-2h21l-2-5-4-2-7-6-19-10-9-8-1-8 6-5h13l15 6 11 7 13 11 15 16 7 8 3 2h6l3-9-13-12-10-10-13-19-9-16-9-24-5-22-1-12v-47l1-2 2-17 3-15 6-18 9-19 6-11 12-16 7-8 1-4-18-4h-8l-4 10-10 7-9 14-8 14-6 13-7 21-5 22-3 16h-3v-7l5-24 7-25 9-20 10-17 4-5h-26l-11 3-7 5-9 14-7 8-5 5-3 5-1 13-5 9-8 9-10 7-6 9-3 12-3 13-7 11-8 10-13 12-3 2-1-2 7-8 12-12 8-16 4-13 2-10 3-6 7-7h2l2-4 10-9 4-8 4-16 3-6 9-9 4-6 9-11 9-6 7-3 6-1 23-1 10-3 4-4 1-8 1-1h19l16 5 15 7 9 2h10l7-3 2-3v-11l-2-6 1-5 10 2 12 6v2l4 2 9 9 7 8 8 10 14 10h23l8-7 3-4 2-6 1-7 4-1 9 12 7 13 5 6 4 5 11 7 5 2h11l8-5 3-4h2l1-6 1-5 2-18 4-1 10 11 7 9 9 7 6 3 9-1 5-3 2-5v-13l-4-10-7-10-15-15 1-3 9-1v-8l-5-9-9-8-10-5-3-1h-15l4-4h2l-3-5-16-11-20-8-16-4-12-2-20-5-19-3h-32l-38 6-19 4-16 4-18 7-11 4-12 7-12 6-10 7-18 11-12 10-5 3-5 5-13 12-12 12-10 13-8 10-11 16-5 9-5 8-14 29-8 24-7 32-1 7v44l6 28 6 18 5 11 3 6 7 12 6 11 9 11 11 14 10 11 11 9 13 10 17 11 14 8 8 5 26 13 11 4 12 5 41 14 15 4 26 8 19 4 28 7 22 4 27 7 22 3 40 7 7 1h16l1-2-16-7-16-4-18-6-18-4-24-7-18-4-6-3 1-2 47 11 18 6 15 3 25 9 9 3 7 6-1 4-5 1h-18l-25-2-50-10-17-3-31-8-18-3-23-6-16-4-31-10-21-6-10-4-12-4-23-10-16-8-20-11-24-16-13-9-13-12-11-11-13-17-7-10-5-9-5-8-11-23-6-19-4-18-3-23v-15l3-25 6-26 5-17 4-12 4-8 4-10 7-12 6-12 6-7 3-6 4-4 8-12 11-14 16-17 9-9 20-15 9-6h2v-2l16-10 9-5 19-11 15-6 16-6 28-7 19-4zm-26 83-1 4v13l-4 6-8 3h-11l-17-4-6-2-5 3-7 8-14 20-7 16-5 9-6 23-4 16-2 19v37l3 23 6 19 3 10 8 16 8 14 9 12 11 12 11 11h7l14-5 11-2 25-2-1-5-5-9-5-8-5-12-4-2-8 4-3 5-3-2-10-3-1-14-1-3 4 1 2-4h2l6-10 2-2-1-6-7-12-8-20-2-10-1-8v-37l2-17 4-13 7-15 2-5 7-11 8-11 9-10 9-8 10-7 1-3-7-8-7-7-10-6zm106 95-21 5-19 9v-3l-4 2-13 8-15 12-9 12-3 5 2-5 1-4h-2l-7 10-8 15v3l4-1 2-1v2h5l5-4 1 3h6l9-9 9-4 16-5 10-2h19l12 3 9 5 6 7 6 8 14-1 3-5 6-11 8-6 12-5 21-3 12-1 1-2-7-8-16-12-15-8-17-6-17-3zm76 42-16 4-12 8-5 6-6 13h-13l-5 1-7-12-5-5-10-5-9-2h-19l-21 5-10 4-7 5v14l2 2 4 23 7 13 7 7 8 5 12 3h13l12-4 9-5 5-4 6-12 2-5 3-19 3-2h11l3 3 6 18 7 10 9 7 6 3 5 1h18l11-3 7-4 2-3 5-3 4-6 4-15 1-22 1-2v-14l-3-4-18-4zm-159 29-28 4-5 3-2 4v6l4 1 4-7 10-2 27-2v-5l-2-2zm-2 10-4 4-1 5v-7l-5-1-4 2h-1-4l-3 9-1 16h4l2-7 1 7-13 11-9 10-5 10v11l1 1h8l17-9v-2l5-2 2-1v6l-6-1v7l7 16 6 10 5 5h2l2 4 5 6 8 7 7 6 15 8 5-1-1-4v-1l2-1v-5l-8-7 7 4 5 4v20h-2v-5h-2l-3 9v5h2v7l1 1h12l5-4 4-5v-2l4-2 5-11 1-2 7 1-1 1h-5l-3 5 9 3h22l19-4 4-1v-2l21-7 16-8 12-9 9-9 11-16 4-8 7-18 2-9v-32l-2-4-4 4-7 13-1 4 3 5-2 5-6 4-3 1h-12l-6-4-2-3-14-1-10-3-10-6-7-9-6-13-2-9-3-2-9 1-2 3-2 15-4 11-5 8-7 6-10 5-9 2-11 1-4 6-5 3-4 1h-8l-10-3-5-6 2-6 7-4-2-5-5-6-4-10-4-21-1-1zm215 28-1 1v25l10 5 7 1 3-2v-11l-8-11-4-5-4-3zm-21 7-9 5-11 3 2 4 4 2h9l8-4 2-2v-5l-3-3zm-163 10-6 5 1 5 5 4 3 1h15l6-4 1-4-15-5-3-2zm-178 31v7l7 7 11 6 11 7 8 7 3 5v5h-25l-6 3-1 1v5l6 5 31 10 16 4 17 9 1 6-5 4v5l6 5 9 3 17 2 23 1 11 2 6 3 1 1 1 12 5 3 6 2 18 2 23 1 9 2 10 5h17l5-1h21l6 3h13l8-3h15l7 2h13l12-5 7-5-1-3-17-2-17-1-45-6-17-4-16-3-24-9-14-8-16-9-10-4-3-1h-11l-3 3-1 6-10-3-13-8-11-10-12-9-12-6-12-5-8-3-12-14-13-14-15-11-14-7zm313 46-10 6v2l-6 2-1 1 1 8 7 11 2 3h9l10-3 1-4-4-5-3-3-1-15-1-3zm-194-15-11 3-7 2 1 2h2v2l-2-1h-7l-7 5-1 5 8 5 10 6 8 5 6 3h2l-1 4 12 9 10 6 4-1 1-6-6-3 10 3 17 1 10 4 6 4 13 4 2 4 14 7 16 6 22 5 19 3 24 4 47 4h54l41-4 33-8 15-6 3-2v-2l5-2v-8h-3-2l2-1-1-5-14-5-4-2-18-4-32-8-21-3-42-8-26-3-8-1-1 1v9l4 3 1 12 4 2h10v2l-11-2-14-1h-12l-7-3 1-6-6-12-9 1-15 5-10 2 1 2 32 6h4v2l-25-5-16-3-14-1h-19l-9 11-9 5h-9l-4-2-1-3v-8l1-4 1-8-7-2-8-1 1-6-12-7-13-12z"/><path transform="translate(478,277)" d="m0 0h20l12 6 8 6 3 5 5 4 2 5 6-3 8 1 10 10 8 10 2 2h6l1-1v-12l-3-11 1-7 2-2 10 1 11 8 7 11 1 4-4-2-9-12-8-5h-6l1 9 2 8v10l-4 5h-8l-9-8-6-8-7-6h-5l-2 2h-5l-11-13-5-5-14-7-8-2h-6l-2 1 2 5 5 6v9l-3 4h-11l-17-8-17-7-6 1-5 4-7-1-16-8-11-3h-19l-23 6-5 1 1-3 23-8 5-1h16l12 3 14 6 3 3h7l4-3h10l14 5 14 7 5 2 8 1-1-9-3-6-5-5 1-4z"/><path transform="translate(658,321)" d="m0 0 12 1 9 6 5 6 1 9-4 5h-10l-5-4-9-17-1-4zm4 3v4l3 5 4 9 4 3h5l2-2v-8l-5-6-10-5z"/><path transform="translate(523,373)" d="m0 0 6 1 7 5v2h2l1 9-3 4-8 1-5-4-1-2v-15zm4 3-1 1v12l2 2h6l1-1v-6l-5-7z"/><path transform="translate(608,376)" d="m0 0 6 1 6 5 3 6v7l-4 6h-8l-5-7-1-9zm2 4-1 2v12l3 4h5l3-3v-6l-5-8z"/><path transform="translate(660,385)" d="m0 0h7l10 6 4 6-1 10-3 3h-8l-5-5-4-11zm5 3-1 1 1 9 3 6 2 2h7l1-1v-8l-3-5-8-4z"/><path transform="translate(388,411)" d="m0 0h2l-3 11-3 9-1 5-2-1 2-9z"/><path transform="translate(270,412)" d="m0 0h2l-1 8-5 22-1 32v16l2 23 4 16 8 24 13 27 4 5 6 10v2l-3-1-5-8v-2h-2l-5-9-9-16-4-10-9-26-4-29-1-14v-13l3-28 3-19z"/><path transform="translate(617,465)" d="m0 0h15l11 3 7 6 6 15v15l-3 12-8 10-8 5-9 4h-19l-14-7-6-8-3-6-3-9-1-12 3-11 6-8 10-5 9-3zm6 3-15 2-10 3-8 6-4 8v21l5 10 9 10 10 4 10 1 11-2 10-3 8-11 3-6v-25l-4-9-4-5-4-2-8-2z"/><path transform="translate(501,474)" d="m0 0h27l8 2 8 6 5 6 3 10v16l-3 11-9 11-10 5-7 2h-15l-12-4-9-8-6-12-2-7v-18l3-9 6-6zm5 2-11 3-9 6-3 4-1 5v17l3 12 6 8 5 5 11 4 5 1h11l10-3 10-9 6-12 1-5v-13l-4-11-8-8-11-4z"/><path transform="translate(611,474)" d="m0 0h8l8 4 6 7 4 12v14l-3 9-5 5-7 4h-12l-8-5-4-6-3-9v-16l4-10 8-7zm0 3-2 1v2l10 3 5 5 4 8 1 3v13l-3 7-1 4 4-2 4-5 1-5v-14l-2-8-3-5-7-6-3-1zm-6 11-4 4v8l3 4 6-1 3-5-1-7-3-3zm15 18-1 1v5h4l1-5z"/><path transform="translate(512,479)" d="m0 0h7l10 5 7 9 3 8v15l-4 11-5 6-9 4h-9l-7-3-8-7-3-7v-23l5-10 7-6zm-3 4-7 5-6 12v16l4 10 7 6 3-1-5-8-2-5v-15l4-11 6-5 8-3v-1zm1 11-4 5 1 7 4 3 5-1 3-5-1-7-2-2zm17 20-1 1v5h5v-6z"/><path transform="translate(381,499)" d="m0 0h2l6 20 6 15 3 6-1 2-6-9-10-30z"/><path transform="translate(568,523)" d="m0 0h8l4 4v7l-6 5-4-1v-2l5-2 1-7h-11z"/><path transform="translate(547,546)" d="m0 0h40l3 4v7l-4 8-9 6-3 1h-14l-8-3-8-7-2-3v-8zm29 2-29 1-2 2v7l3 2 1 4 7 5 3 1h16l1-3-6-5 4 1 2 2h5l6-6v-10l-1-1z"/><path transform="translate(232,561)" d="m0 0 4 2 6 14 3 8 12 19 11 15 8 7 15 15 19 13 15 10 22 12 15 8 33 15 26 10 22 8 17 6 8 3v2l-10-1-11-4-17-6-25-9-11-5-13-5-46-23-10-7-11-6-17-12-14-12-20-20-3-5-5-5-5-8-8-13-4-10-5-12z"/><path transform="translate(661,659)" d="m0 0 12 1 7 1v2l-13-1-6-1z"/><path transform="translate(773,671)" d="m0 0h18l-4 4-8 3-4-1 5-1-1-2-6-1z"/><path transform="translate(649,690)" d="m0 0h54v1h-54z"/><path transform="translate(598,730)" d="m0 0 12 3 45 14 34 7 21 4 20 1 1 2h-21l-25-3-25-6-16-4-33-11-10-3z"/><path transform="translate(777,744)" d="m0 0h18l12 5 2 5-7 5h-15l-11-4-5-4 1-5zm2 2-5 3 3 3 9 4 5 1h8l5-2 1-4-6-4z"/></svg>
