<?xml version="1.0" encoding="UTF-8"?>
<svg version="1.1" viewBox="0 0 1024 1024" xmlns="http://www.w3.org/2000/svg"><path transform="translate(504,81)" d="m0 0h16l8 4 7 9 2 6v11l-4 8-5 6-10 5v42l110 1 9 4 8 6 7 10 3 9 1 35 9 2 8 5 4 5 3 9v64l-2 8-9 9-6 3-8 1v11l-4 11-3 5h-2l-2 5-7 5-13 4-60 1-1 33h90l12 5 8 7 5 6 12 1 8 4 6 7 3 7 2 18 18-4 21-6 15-5 9-5 9-8 5-10 2-9 1-12v-31l-1-33-10-3-10-5-8-8-6-12-2-11 1-11 5-12 6-8 5-4 12-6 3-1h17l11 4 8 6 8 9 5 13v16l-3 8-4 8-5 6-10 7-12 4v72l-3 16-6 12-8 9-13 8-18 6-29 8-12 3-1 1-2 27-3 8-5 6-5 3-11 2-1 143-5 14-5 5-9 7-6 2-5 1-35 1 3 8v83l-3 9 14 1 10 6 6 9 2 6v17l-4 10-4 5-8 5-5 1h-86l-10-3-7-8v-2h-2l-3-9v-16l4-10 3-1 2-4 5-4 4-2 11-1-3-9v-82l3-9h-74l3 8v83l-3 8 1 1 10 1 8 5 3 3v2l3 1 4 10v17l-4 9-5 6h-2l-1 3-9 3h-86l-8-2-8-7-4-6-2-7v-16l4-10 4-5 10-6h15l-4-10v-82l4-10h-36l-9-2-6-4-6-5-5-6-4-13-1-141-11-3-8-7-4-8-1-4v-16l-6 3-17 12-10 8-7 6-3 5-3 3-4 9-1 5v16l7 33 8 34 1 1 14 2 9 3 7 5 5 5 5 7 4 14v10l-4 14-6 8-9 8-11 5-5 1h-10l-13-4-10-6-6-7-5-10-2-7v-15l4-10 6-9 9-8 7-4-6-24-3-15-6-28-1-15 3-14 4-8 6-8 12-12 6-4 5-5 15-10 10-7 1-24 4-10 4-5 9-5 12-1 7-9 10-6 8-3h90l-1-33-60-1-15-5-6-5-1-4-3-1-5-11-1-5v-10l-8-1-9-6-5-6-2-6v-70l5-8 7-6 5-2 6-1 1-34 4-11 6-9 8-6 9-4 110-1v-42l-10-5-7-9-2-6v-9l4-10 4-5zm4 9-6 3-5 6-1 3v7l3 6 6 5 10 1 5-2 6-5 2-5v-7l-3-6-6-5-3-1zm-108 92-10 4-7 7-3 5-1 5v153l4 8 9 8 9 3h221l10-3 9-8 3-6 1-5v-151l-3-8-9-9-9-3zm-35 65-7 4-4 8v62l4 8 6 4 4 1 1-1v-85zm291 0-1 1v85l2 1 8-3 4-5 1-2v-67l-4-7-6-3zm131 31-10 4-9 8-6 12v14l3 7 6 9 11 7 3 1h15l9-4 8-7 2-5h2l3-10v-10l-4-10-6-8-9-6-6-2zm-315 106-1 1v33h82v-33l-1-1zm-99 43-9 4-8 7-5 11v223l4 10 7 8 11 4h278l11-4 8-9 3-9v-223l-4-9-7-8-8-4-3-1zm-34 19-8 4-4 6v55l4 7 6 3 5-1 1-73zm343 0-1 2 1 73 2 1 8-3 4-5 2-5v-51l-3-6-6-5zm-401 193-9 3-9 6-7 10-2 7v10l4 11 9 10 11 5 10 1 10-3 10-7 6-9 2-5v-15l-5-12-8-7-9-4-5-1zm143 64-7 4-3 6v83l6 7 4 2h33l8-4 4-7v-80l-4-7-7-4zm142 0-6 4-4 5-1 2v79l3 6 6 5 3 1h32l6-3 5-6v-84l-4-6-6-3zm-168 111-7 3-5 6-2 5v12l3 7 4 5 7 3h83l8-4 4-5 2-5v-14l-5-8-3-3-6-2zm145 0-7 3-5 6-2 5v13l4 8 5 4 5 2h83l8-4 4-5 2-5v-13l-4-8-4-4-6-2z"/><path transform="translate(441,224)" d="m0 0h13l9 3 11 7 9 12 2 9v14l-3 10-7 10-10 7-8 3h-19l-9-4-8-6-6-7-4-10-1-5v-11l4-12 4-6 7-7 12-6zm2 9-10 4-9 8-4 8-1 4v8l3 10 6 8 7 5 9 2h8l10-3 9-8 4-9 1-4v-10l-4-10-8-8-8-4-3-1z"/><path transform="translate(571,224)" d="m0 0h12l13 5 8 6 6 8 4 12v13l-4 13-9 10-9 6-6 2h-19l-9-4-6-4-8-9-4-9-1-4v-14l2-9 10-13 12-7zm1 9-8 3-8 6-4 4-4 11v9l4 11 7 8 5 3 8 2h8l11-3 8-7 5-10 1-4v-10l-6-12-8-7-10-4z"/><path transform="translate(443,245)" d="m0 0h9l7 4 4 5 1 3v10l-4 6-5 4-3 1h-8l-7-3-4-5-2-5v-7l4-8 5-4z"/><path transform="translate(572,245)" d="m0 0h9l6 3 5 6 1 3v9l-5 8-5 3-3 1h-8l-6-3-4-5-2-4v-9l5-8z"/><path transform="translate(450,312)" d="m0 0h124l8 4 6 7 2 6v13l-4 9-7 6-5 1h-124l-8-3-5-6-3-7v-13l4-9 7-6zm0 10-5 4-2 5v9l3 5 3 3 3 1h18l1-1v-25l-1-1zm30 0v26l1 1h26v-27zm37 0v27h26l1-1v-26zm37 0-1 1v25l1 1h18l6-3 3-6v-9l-3-6-4-3z"/><path transform="translate(412,455)" d="m0 0h200l8 4 5 6 2 5v99l-4 8-6 5-5 2h-200l-8-4-6-8-1-3v-99l4-8 6-5zm2 9-6 4-2 4v95l4 6 4 2h196l6-4 2-4v-95l-3-5-5-3z"/><path transform="translate(446,501)" d="m0 0 5 1 7 8 10 14 7 9 4-4 7-10h2l2-4 7-10 4-4 6 1 10 14 13 17 3-3h2l2-5 10-13 8-10 5-1 5 5 13 18 9 11 3 5-1 5-2 2-4-1-7-8-6-8-10-13-1-2h-2l-10 14-6 7-6 8-3 3-4-1-7-7-10-14-7-10h-2l-8 10-10 14-7 8-5-1-9-11-10-14-4-5v-2l-5 5-8 10-11 15-3 3-5-1-2-2 1-5 16-21 12-15z"/><path transform="translate(424,614)" d="m0 0h11l10 5 5 6 4 8v12l-5 10-8 6-7 3h-9l-10-4-5-5-5-8-1-4v-9l4-9 4-5 9-5zm2 9-6 3-6 7v12l7 8 5 2 9-1 8-7 2-4v-8l-5-8-7-4z"/><path transform="translate(507,614)" d="m0 0h10l9 4 5 4 5 9 1 2v11l-4 9-4 5-6 4-6 2h-9l-10-4-5-4-5-9-1-4v-10l6-11 9-6zm2 9-6 3-6 7-1 8 3 7 7 6 9 1 6-3 6-7 1-9-3-6-7-6z"/><path transform="translate(589,614)" d="m0 0h11l9 4 5 4 5 9 1 3v10l-4 9-5 6-8 4-4 1h-9l-12-6-4-5-4-9v-10l6-12 8-6zm2 9-5 3-6 7-1 9 3 6 7 6 9 1 6-3 6-7v-12l-7-8-5-2z"/></svg>
