<?xml version="1.0" encoding="UTF-8"?>
<svg version="1.1" viewBox="0 0 1024 1024" xmlns="http://www.w3.org/2000/svg"><path transform="translate(581,201)" d="m0 0h18l24 9 8 4 5 5 4 14 4 23 8 1 8 7 5 11 3 15 2 15v22l-5 8-7 4 1 15v15l-6 9-18 11-12 6-28 6-25 3v7h11l19-2h19l10 3h13l14-11 11-10 16-14 6-3 4-1 2-4-1-6-2-3v-10l8-46 2-13 4-6 7-2-3-7-7-13v-8l5-17 4-7 2-1h16l8 4 3 3 1 8v7l4-2 5-17 4-4 7-1 16 4 8 5 3 4 1 11-7 26-3 6-8 8-1 4 1 2v12l-3 19-7 36-4 8-5 3-2 12-4 11-8 8-6 4-9 3-8 9-6 4-7 7-11 9-13 11-4 8-5 12-8 9-9 5v23l3 49v21l-4 6-14 9-11 5-12 2-2 5 8 25 10 29 2 4 5 3 7 9 2 9v13l-4 12-6 8v10l-5 14-4 8-6 14-7 20 4 4 8 6 10 9 8 6 3 5v17l-2 5-4 3-20 4-38 6h-19l-4-2-1-2-16-8-12-7-3-3-10-5-8-6-2-7 1-12 2-6h2l2-5 8-11 1-1 2-10 4-12 9-17 2-6 14-29h2l1-3 6-3 2-12 2-7-5-16-4-14-4-11v-3l-34-2h-14l-4 5-13 7-16 8-17 9-5 8-4 5 1 5 2 3v9l-3 12-4 18-7 25-2 11-2 3-2 16-4 10-8 11-5 4h-10l-21-6-14-3-19-5-9-6-11-12-7-8-7-6-5-6-4-4-4-7 1-10 7-12 5-6 12-7h12l15 1 2-10 8-29 2-9 8-7 4-16 3-6 10-12 7-4 22-1 22-12 4-2h3l-1-2-8-3-5-5-2-6-1-45-1-24-14-4-12-11-4-4-4-8-16-10-12-6-25-15-13-3-8-5-7-6-4-10-1-4-9-3-5-6-4-10-8-16-10-19-4-11-1-10-13-7-5-6-6-12v-2h-2l-5-11v-11l6-7 13-9h11l5 4 7 12 4 2v-3l-1-5v-10l6-7 7-4 4-1h7l5 3 6 8 6 12v12l-4 12v2l8 2 8 7 10 23 5 10 6 15 4 8v14l5 4 10 2 11 7 11 6 11 7 5 4 6 2h10l10-4 3-2 21-2 25-3-1-3-8 1-42 7h-15l-8-4-5-6-3-7-5-27-7-2-7-4-4-5-4-11-4-24-1-10v-12l3-6 10-8-1-10-5-26v-11l5-10 8-6 8-3 16-3 16-2 48-10 16-2 36-8 20-3zm-3 8-43 9-19 3-44 9-24 4-32 7-12 1-6 4-5 6-1 7 3 19 7 37 3 22 9 50 1 12 2 10 8 9h16l18-3 44-7 21-4 16-2 30-5 27-5 21-3 5-5 4-5v-12l-4-26-4-27-6-37-3-17-2-15-4-25-6-8-3-3zm29 3-1 5 3 14 2 14 9 53 4 26 7 43 1 13 5-1 6-4 9-8v-13l-3-12-8-3-3-3-5-12-6-24-1-8v-30l1-3 7-1 2-2-2-14-2-13-4-8-16-8zm152 24-4 9-5 15-8 2 1 4 7-1 6-4 5-19v-5zm-41 1-4 6-3 11v3l4-1 5-5 1-3v-11zm8 1-2 5v9l5 3h4l1-14-4-3zm40 0-3 7-5 19-11 7-5 11v4l12 3h10l6-5 6-9 6-21v-10l-8-5-2-1zm-46 17-7 7-1 3 7 11 5 6 1 2 10 1 6-9v-8l-9-7-10-6zm-91 9v26l3 18 4 16 6 12 7-1 7-3 2-2-2-9-5-15-3-13-1-29zm23 3-1 1v20l4 21 4 13 4 2 1-1v-12l-5-27-3-12-3-5zm-347 12-1 1v5l7 10 6 2 1-2-6-12-3-4zm-9 5-3 3 1 7 3 6 4-1 3-3-1-6-3-6zm416 6-2 2-8 42-2 16v8l4 3 17 5 9 2h21l3-4 5-22 4-23 2-17-5-5-17-4-18-3zm-445 1-1 5 11 17 2 2 10 1 2-3v-3h-9l-5-5-7-12zm-10 4-9 7v7l12 22 5 5 6 4 7 3 7-1 13-8-2-4-4-5-5-5-12-3-9-15-3-6-1-1zm50 4-8 8-5 9v6l7 8h6l6-4 6-16 1-5-6-5zm83 11-5 5v11l4 22 4 20 6 4h5v-8l-2-16-7-36-1-2zm-69 20-20 9-10 6-8 5-3 3 1 7 17 35 10 19h11l16-7 15-8 7-6-1-8-10-21-13-28-4-6zm384 39-4 4-1 7 9 9 9 13 2 2h9l8-6 5-6 1-3v-13l-7-2-20-4-4-1zm-17 13-11 11-11 9-13 11 1 5 10 7 9 15 2 5 4-1 11-10 10-8 13-11 2-5-3-7-7-9-8-9-4-3zm-335 21-10 7-19 8-2 2v10l7 8 5 4 3 1h9l4-6 4-11 5-8v-2h2l1-6-4-6zm201 2-33 6-20 3-2 1 1 5 1 1h10l47-6 4-2v-6l-2-2zm-183 8-8 10-7 14-2 10 4 4 29 16 9 5 4-1 3-13 3-7 6-8 3-2-1-5-21-13-17-10zm229 3-40 5-34 4-22 2-41 5-13 1-7 4-3 4v55l2 72 1 11 5 6 13 2 45 2 36 2 31 1 34 2h13l2-2-1-47-4-70-2-50-1-8-1-1zm20 2-1 1v16l2 38v18l3 51 1 32 1 16 5 1 15-9 1-1v-40l-2-34v-13l-3-6-6-3-4-8-4-10-2-11v-24l1-12-3-2zm15 4-3 5-1 7v18l2 14 5 13 5 3 9-2 4-2 5-5 4-5 3-7v-18l-5-10-9-9-4-2zm-208 19-8 4-7 7-5 10-1 4v11l4 9 7 8 9 7h7l1-1v-46l-1-12-1-1zm58 153 2 4 7 5 3 5 4 4 6 10 45 2h26l9-6 14-12 4-3-1-3-26-2-32-1-50-3zm-22 2-8 4v4l10 6 6 9 4 11 3 9 6-1 14-7 3-3-2-8-8-11-10-9-11-4zm-17 9-14 6-1 4 12 6 7 3 4 4 4 10 2 10 6-1 6-4v-14l-7-14-10-8-4-2zm157 7-7 7-8 5-3 3-9 4-12 1 1 8 5 13 4 1 14-9 13-3 12-1 2-2-1-5-4-11-3-9zm-200 5-9 7-7 11-2 7v6l2 2 27 2 10 4 8 7 5 4h7l5-7 3-8v-13l-5-10-16-8-12-3-3-1zm199 27-13 4-11 8-4 4 1 7h6l8-3h33v-6l-3-8-3-5-4-1zm-225 12-3 5-10 40 1 5 4 2 12 2 10 7 4 4 4-1 3-8 5-20 8-28-1-5-4-2-15-1zm43 6-4 9-4 18-8 27-1 2v10l10 10 7 8 4 4h5l8-29 5-21 3-11-1-7-11-11-8-7-2-2zm169 7-8 5-4 5-3 8-1 10 2 9 7 8 6 3 9 1h29l7-4 4-7 2-6v-15l-5-10-3-3-14-3-9-1zm-24 36-6 9-15 31-11 24 2 5 11 8 10 5 4-1 3-4 4-11 8-18 5-14 4-8 2-5-1-4-9-6-8-11zm-234 5-10 6-6 8-2 3 1 5 20 4 27 4h10l1-3h2l5-9 1-2v-8l-4-3-10-2-22-3zm54 11-2 4v7l10 11 4 5h2l2 4 11 12 10 11 3-1v-15l-38-38zm206 4-5 8-3 9-8 19-4 10-6 14-1 3 6 1 29-4 7-2 4-6 7-18 4-9 4-11 4-9-1-5zm-276 11-2 2 7 8 17 17 7 8 6 7 8 3 19 4 21 6h7l-2-6-12-13-11-14-9-11-15-4-31-6zm65 0-5 6 1 6 10 12 5 5 9 10 9 11 3 4 5-2 3-4-1-6-7-7-9-11-9-10-11-14zm150 46-8 10-2 5 9 6 8 4 13 8 12 6 8 5h9l53-8 4-1-1-4-5-5-14-11-6-5h-20l-19 2h-12l-16-8-6-4zm-12 21-1 2v8l11 8 14 8 11 7 8 4 5 2 2-5v-7l-9-6-10-6-23-13-4-2zm113 19-28 4-27 4-3 3-1 10 3 1 26-4 21-3 16-3 3-3 1-8-1-1z"/><path transform="translate(564,277)" d="m0 0h17l4 2 2 4-1 1h-17l-12 6-3 4 8-3h15l10 4 6 7-1 5-4 1-5-5-9-3h-10l-9 4-5 4-7 7-4-1-1-1v-8l3-10 6-8 8-6z"/><path transform="translate(434,297)" d="m0 0h15l11 4 10 9 4 9-1 5-4 1-11-6-4-1h-12l-10 5-6 9-5-1 1-8 4-6 6-5 8-3 10-1 3 1v-2l-6-2h-14l-8 4-2 2-4-1 2-5 7-6z"/><path transform="translate(504,319)" d="m0 0h11l6 3 3 6-1 7-4 5-6 3-10 2h-11l-5-4-3-7 1-7 5-5zm0 4-11 3-3 3v6l5 5 12-1 11-4v-9l-3-3z"/><path transform="translate(550,344)" d="m0 0h5v7l-5 9-6 7-14 8-10 3-12 1-8-1-2-2 1-4 21-1 14-5 6-5h2l7-14z"/><path transform="translate(518,444)" d="m0 0h23l13 5 10 7 8 8 7 14 3 12v10l-2 10-5 12-7 9-5 5-5 4-10 5-9 3h-18l-16-6-8-5-9-8-6-11-4-11v-24l6-14 6-8 4-5 11-7zm4 7-13 4-10 7-7 8-4 8-3 8v18l5 14 7 9 6 5h2v2l10 5 5 1h19l8-2 11-8 7-7 6-9 3-8v-22l-6-12-7-9-9-7-10-4-4-1z"/><path transform="translate(522,460)" d="m0 0 17 1 10 4 12 12 3 8v21l-3 7-4 6-5 5-8 5-11 2-10-1-9-2-6-4-7-6-6-12v-20l4-10 7-8 10-6zm4 5-9 3-8 6-7 8-3 8v12l5 10 7 8 9 5 4 1h13l13-8 8-11 2-10-1-9-5-10-5-6-10-6z"/></svg>
