<?xml version="1.0" encoding="UTF-8"?>
<svg version="1.1" viewBox="0 0 1024 1024" xmlns="http://www.w3.org/2000/svg"><path transform="translate(589,174)" d="m0 0h12l20 7 16 7 7 7 4 17 4 22 10 2 7 6 6 14 4 20 2 14v20l-4 9-10 5 1 14 1 5v12l-3 7-7 6-21 13-9 4-31 6-21 3-6 1v7l1 2 34-3 7-1h9l14 4 7 1 9-1 10-9 11-9 14-13 8-7 5-3 6-1 4-7-2-4-3-5v-7l7-41 3-22 3-8 3-3 8-2-3-5-8-14-1-3v-7l6-21 4-6 4-2h9l11 3 6 4 2 5-1 13 5 1 7-23 6-4h7l16 5 6 3 5 6 1 9-6 25-3 9-9 10-5 6h2l2 4v9l-9 47-3 18-4 6-6 3-1 12-5 12-6 8-9 6-9 2-8 10-5 3-5 5-15 13-11 9-8 7-5 15-6 9-9 8-7 3v16l4 72v13l-3 6-7 5-22 11-10 1h-2l-3 4 1 6 14 41 5 16v2l5 2 9 10 3 9 1 5v9l-3 12-6 10-3 3 1 9-5 12-11 27-7 17-2 8 4 2 7 5 5 5 12 10 7 6 2 6v13l-2 7-5 4-23 4-17 2-30 5h-11l-7-3v-2l-6-2-21-12-4-2v-2l-5-2-16-9-3-4-1-9 2-12 3-6 10-14 3-3v-7l5-13 8-16 3-7 9-19 8-17 4-5 7-2v-9l4-11-2-9-7-21-7-20-29-2-22-1-4 6-19 10-10 5-19 10-4 1-2 6-6 8-3 3 4 5 2 4-1 9-5 18-2 10-10 37-1 6-2 3-2 18-3 8-6 10-7 7-2 1h-9l-31-8-21-5-10-3-6-4-9-10-12-13-5-4-6-7-6-5-5-9 1-10 7-13 6-7 10-6 5-2 13 1 14 1 6-21 2-10 6-22 4-5 5-2 3-15 4-10h2l2-4 7-8 9-5 4-1h8l9 1 16-9 16-8h2l-1-2-9-2-5-4-3-7-1-3v-26l-1-48-17-5-8-7-7-7-5-11-18-10-16-9-11-6-10-6-2-2-12-2-10-5-9-8-4-8-2-8-9-2-6-7-5-12-8-15-8-16-8-18v-11l-12-6-6-5-8-14-5-9-4-9v-9l4-6 17-12 2-1h9l6 5 7 13 4 4 3-3-3-9v-9l4-5 10-7 9-2 8 3 5 7 6 11 3 6v9l-4 13-2 7 2-1h6l6 4 4 4 8 19 6 12 4 10 7 15 3 7v7l-2 5 6 7h8l18 10 9 6 18 10v2l6 2 6 1 12-2 8-5 31-4 20-2-1-5-29 5-16 2-17 3h-7l-10-4-7-8-3-7-5-30-12-3-7-6-4-10-2-12-5-31v-10l3-6 8-7 4-3-1-9-6-33v-8l4-10 8-7 8-3 19-4 15-2 49-10 14-2 44-9 23-4zm-3 9-23 4-39 8-17 3-46 9-18 3-39 8-14 2-6 4-4 5-1 4 1 13 9 49 5 33 7 39 3 21 2 12 6 8 5 3h10l39-7 16-2 57-10 17-2 48-9 16-2 7-2 6-7 1-4v-10l-2-17-10-57-1-11-10-57-2-18-3-6-5-5-4-2zm24 3 1 5 2 5 8 48 2 16 9 51 1 10 6 36v13l5-2 15-10 2-4v-12l-3-15-2-1h-6l-4-4-6-14-6-23-1-10-1-8v-24l2-6 9-1 1-2-5-29-3-7-5-4-13-6-5-2zm124 26-4 5-5 17v2l4-2 6-6 1-5v-10zm44 0-2 2-7 24-4 2h-8l5 6 12-6 6-23v-5zm-36 2-2 6-1 9 8 5h2v-7l1-10-6-3zm43 0-2 6-4 19-3 5-12 7-5 12-1 3 18 5 6-1 11-10 4-9 6-24v-6l-6-4-8-3zm-49 19-9 9 1 4 9 13 4 5 2 1h9l6-10v-7l-8-7-13-8zm-99 9-1 1v25l3 18 5 21 6 14 3 1 14-6 1-4-6-14-5-21-1-13v-20l-2-2zm23 4v20l4 22 4 15 3 6h2l1-3v-10l-4-25-4-18-4-7zm-376 13-2 4 7 12 5 3 5 1-5-10-6-9zm-9 5-5 4 1 5 5 11 7-7-1-5-4-8zm452 7-3 3-11 65v6l5 3 14 4 14 3 7 1h16l3-5 10-50 2-17-5-5-12-3-30-5zm-486 1 1 6 7 11 6 9 11 2 3-5-1-3-3 2h-6l-5-5-8-14-3-3zm-8 4-11 8-1 5 6 12 10 17 6 5 13 6 4-1 11-6 6-4-5-5-3-4h-2l-2-5-14-3-8-13-5-10-2-2zm54 4-10 11-5 8v6l7 8 2 2 5-1 6-4 8-21-2-4-9-5zm91 12-7 6-1 5 4 26 6 27 5 4 7 1v-8l-9-49-2-11zm-75 22-24 11-19 11-4 5 1 4 10 21 16 32 5 9 9-1 15-6 19-10 9-7-1-7-5-11-9-20-13-28-3-3zm415 43-4 6-1 5 10 10 10 14 3 4 8-1 8-5 6-7 2-6v-13l-24-4-12-3zm-17 14-8 8-8 7-14 12-10 8 1 3 10 6 7 8 5 10 2 7 5-2 10-9 11-9 13-11 5-6-2-6-7-10-9-10-7-6zm-364 23-11 7-24 11-1 5 3 8 10 10 4 2 10 1 2-1 6-17 10-15-1-5-4-5zm222 2-35 6-22 3-7 2v5l2 2 13-1 49-6 4-2v-7zm-203 8-8 10-9 17-2 6v6l10 6 8 4 12 7 12 6 6 4 2-1 2-13 4-10 6-8 5-4v-3l-10-6-18-11-7-4-10-6zm254 4-39 5-24 2-82 10-24 2-6 3-4 6v42l2 92 1 16 4 5 13 2 91 5 35 1 35 2h15l2-2-1-27-6-110-1-39-1-14-1-1zm15 2v15l5 94 2 36v17l1 26 3 1 20-11v-39l-3-56-2-6-6-2-4-5-6-14-2-11-1-9v-15l2-19-5-2zm17 4-3 9-1 7v14l3 18 4 12 3 5h8l8-3 9-8 5-10 1-4v-14l-5-12-7-8-7-5-5-1zm-223 21-9 3-9 8-5 10-2 7v10l3 10 7 9 9 7 6 2 5-1v-40l-1-25zm60 166 1 3 9 7 7 8 7 12 1 1 19 1 36 1h21l9-5 14-12 8-7v-1l-6-1-109-6zm-21 2-12 6v2l11 7 7 9 5 11 2 13 5-1 17-8 4-4-3-10-7-9-8-8-14-7zm-20 10-17 8-1 3 19 8 7 6 4 10 2 13 5-1 8-4 1-10-3-11-5-10-9-8-8-4zm171 8-11 10-12 8-8 3h-13l2 9 6 16 4-1 10-7 9-4 8-2 16-1 1-3-10-28zm-217 5-10 7-8 11-3 9v8l1 1 32 2 8 3 8 7 9 8 5-1 6-8 4-10v-11l-3-8-4-5-12-6-13-4-10-3zm218 30-10 2-12 5-9 7-3 3 1 8h4l10-4 11-1 27 2-1-7-5-13-7-2zm-247 13-3 2-13 52 7 2 13 2 9 6 7 7 3-1 6-22 7-26 4-13v-6l-1-1-30-2zm46 6-3 7-7 28-8 27-1 10 7 6 7 8 11 11h3l8-30 4-16 6-23-1-5-10-10-8-7-6-6zm185 8-7 3-5 4-5 10-2 11 3 12 8 9 6 3 11 1h30l6-3 5-7 3-10v-14l-4-10-6-5-18-3-10-1zm-28 39-3 5-8 16-7 15-16 34 1 4 10 7 16 9 4-4 5-13 15-36 4-9 3-8-10-6-6-7-4-7zm-253 5-9 5-7 7-5 9 1 3 43 8 19 2 7-10 3-7v-9l-6-2-37-6zm58 12-2 3-1 8 10 11 9 11 8 9 5 5 9 10 2 3h2l1-3v-15l-42-42zm225 4-4 6-9 22-5 12-3 7-6 15-3 6v2h8l35-5 3-1 9-20 5-14 7-17 3-7-1-5-1-1zm-304 13 2 4 8 9 8 7 11 12 13 14 10 3 14 3 30 8h7v-2h-2l-2-4-5-5-12-14-9-11-11-13-23-5-16-3-15-2zm73 0-6 7 1 4 13 15 8 9 9 11 11 13 4-2 5-7-2-4-12-13-9-11-11-12-8-10zm164 49-8 10-3 5v3l19 10 9 6 12 6 14 8h10l24-3 39-6-1-4-14-11-8-6-5-5-3-2h-15l-28 4h-10l-16-8-11-7zm-13 23-1 3v9l10 7 14 8 11 7 11 6 4 1v2l3 1 2-7 1-6-5-4-42-24-5-3zm128 21-32 4-36 6-1 4-1 9 1 1 12-1 60-10 2-3 1-9-1-1z"/><path transform="translate(565,233)" d="m0 0h8l11 4 9 7 5 9 1 4 1 11-2 11-6 9-7 6-9 4-8 1-12-3-6-4-8-7-4-10-1-4v-10l4-12 6-8 10-6zm-1 6-10 4-5 5 1 2 7-3h11l10 5 5 7 2 6v8l-4 10-7 6-3 3 7-1 8-5 6-8 3-10-1-10-4-8-8-8-9-3zm-15 17-3 4 1 6 3 2h5l3-3v-6l-3-3z"/><path transform="translate(429,257)" d="m0 0h13l8 3 9 7 6 9 2 6v15l-7 14-8 7-9 4h-13l-10-4-8-6-6-10-2-6v-13l4-10 9-10zm1 6-8 3-7 6-4 8-1 4v12l4 9 4 5 8 5 4 1h12v-2l-10-3-7-6-4-8v-12l5-10 9-6 14-2-1-2-7-2zm0 14-4 4v5l4 3 6-1 2-3-1-5-3-3z"/><path transform="translate(557,315)" d="m0 0h6l7 6 1 2v9l-5 14-6 10-7 6-5 5-10 6-10 4-5 1h-20l-14-4-14-7-9-9v-2h-2l-3-7 1-7 5-5 6-1 9 1h20l17-3 13-4 16-9 5-4zm3 6-6 3-14 9-15 6-12 3-16 2-28-1-1 1v6l6 8 13 9 6 2 5-1 7-8 15-9 13-4h15l9 1 4-5 3-9v-11zm-21 30-11 2-12 5-10 7-3 4v2l4 1h13l16-4 12-9 5-6-9-2z"/><path transform="translate(520,438)" d="m0 0h17l13 4 13 8 10 10 8 14 3 11 1 10-2 14-4 10-7 11-10 10-12 7-13 4h-17l-14-4-12-7-10-9-8-13-4-11v-24l3-10 8-13 7-8 11-7 10-5zm3 8-16 4-13 9-8 10-5 12-1 4v19l4 12 6 10 10 9 12 6 11 2h10l12-2 12-7 10-10 7-12 2-8v-21l-4-10-7-10-8-8-10-6-13-3z"/><path transform="translate(519,457)" d="m0 0h17l12 4 13 13 3 7 2 11-1 11-2 8-4 6-8 9-8 4-14 3-13-2-9-4-10-9-6-12-1-4v-15l5-13 8-9 10-6zm8 4-9 2-10 5-7 7-5 10-1 3v13l4 10 9 10 12 6h16l10-5 6-5 7-11 2-13-2-9-4-8-6-7-10-6z"/></svg>
