<svg xmlns="http://www.w3.org/2000/svg" viewBox="0 0 1024 1024">
  <g fill="#fff" stroke="#000" stroke-width="10" stroke-linecap="round" stroke-linejoin="round">
    <path d="M720 810 C 880 790 925 655 862 598 C 830 568 778 580 778 626 C 778 662 832 668 848 646 C 858 702 798 752 714 760 Z"/>
    <path d="M512 900 C 330 900 280 760 300 640 C 315 545 400 480 512 480 C 624 480 709 545 724 640 C 744 760 694 900 512 900 Z"/>
    <circle cx="512" cy="320" r="185"/>
    <path d="M355 235 L385 85 L495 160 Z"/>
    <path d="M669 235 L639 85 L529 160 Z"/>
    <path d="M383 200 L400 118 L462 162 Z"/>
    <path d="M641 200 L624 118 L562 162 Z"/>
    <circle cx="432" cy="300" r="30"/>
    <circle cx="592" cy="300" r="30"/>
    <circle cx="432" cy="300" r="11" fill="#000"/>
    <circle cx="592" cy="300" r="11" fill="#000"/>
    <path d="M512 362 L487 336 L537 336 Z"/>
    <path d="M512 362 C 512 397 480 402 465 387 M512 362 C 512 397 544 402 559 387" fill="none"/>
    <path d="M305 330 L398 344 M305 382 L398 374 M719 330 L626 344 M719 382 L626 374" fill="none"/>
    <ellipse cx="512" cy="730" rx="90" ry="105"/>
    <ellipse cx="452" cy="878" rx="56" ry="30"/>
    <ellipse cx="572" cy="878" rx="56" ry="30"/>
  </g>
</svg>
