<?xml version="1.0" encoding="UTF-8"?>
<svg version="1.1" viewBox="0 0 1024 1024" xmlns="http://www.w3.org/2000/svg"><path transform="translate(392,116)" d="m0 0 7 1 7 6 11 7 15 10 5 3 4 4 11 7 15 10 2 1 11-1 13-2h36l19 3h5l23-15 14-10 36-24 4 1 3 4 9 43 3 17 10 48 2 11 8 13 9 19 5 13 2 10 4 19 1 9 1 20 8-1h9l2 2-1 5-3 2-16 3-5 26-1 7 22 2 3 1 1 5-4 4-26-2-8 18-6 11-10 15-9 11-9 10-11 10-17 12-13 8 3 2 13 5 19 10 17 12 11 9 10 9 7 8 9 12 8 11 8 17 4 9 6 19 5 24 1 17v40l-1 17-4 19v3l15-3 14-4 12-4 17-8 13-8h2l1-3 11-9 6-7h2l10-20 3-9 1-11h-3l-11 4-12 1-15-3-6-3-9-7-4-5-4-7-1-4v-15l4-13 7-10 9-8 8-4 11-2h12l12 2 16 8 9 8 5 6 4 4 8 15 5 14 2 10v24l-4 18-5 13-8 16-10 14-9 10-13 13-10 7-4 4-18 10-19 9-10 4-36 9-15 2-4-3-2-13v-5h-2l-2 6-6 12-13 18-11 12-11 11-15 11-12 8-3 9-6 8-9 7-12 5-12 3-9 1h-14l-17-3-13-5h-36l-13 5-15 3h-18l-16-3-17-7-10-9-4-9-2-5-15-10-13-10-12-11-11-13-9-13-4-6-8-17-4-8-7-22-4-16-3-25-1-25 2-30 2-17 5-19 8-22 7-13 10-16 9-11 12-13 13-11 15-10h2v-2l15-8 15-7 7-2-5-4-17-11-10-8-10-9-8-8-12-16-11-18-10-21-2-1-24 2-4-3v-5l3-2 24-2-5-19-2-14-16-3-4-3 1-5 5-2 13 2 1-23 3-19 6-21 5-13 8-16 6-10 2-5 4-23 9-42 3-18 7-32zm5 13-6 27-2 13-9 42-3 18-4 20 5-1 10-6 27-14 14-8 10-5 19-10 14-8 10-5 3-4-14-10-33-22-8-6-27-18-4-3zm226 0-11 8-16 10-15 11-11 7-15 10-12 9-6 4 1 3 23 12 22 12 17 9 22 12 16 8 9 5 1-5-3-14-3-18-9-43-2-13-6-26zm-129 43-11 1v3l15 10 1 5-3 3-13 7-19 10-12 7-16 8-22 12-23 12-22 12-7 2-6 12-3 10-5 18-3 21v19l6 2 56 9 3 3-1 4-5 1-36-6-21-2-1 3 4 20 3 7 1 1h9l32-3h14l1 5-1 2-51 5-1 4 8 17 10 16 10 13 14 15 17 13 11 7 16 8 11 5 22 6 18 3 20 1 21-2 27-6 15-6 16-8 11-7 12-9 10-9 11-11 9-12 4-6v-2h2l10-19 4-10-1-1-44-4-7-1-3-1 2-6h14l33 3h8l3-5 5-25-4-1-24 3-33 5-3-2 1-5 8-2 51-8 5-2v-16l-2-17-5-21-6-18-5-9-8-2-9-5-19-10-32-17-18-10-12-6-19-10-12-7-6-3-1-1v-5l17-12-1-2-12-1zm-51 326-17 6-12 5-20 11-16 12-12 11-9 9-10 13-7 11-8 16-6 15-4 14-2 13-3 24v37l3 22 3 17 5 16 8 20 8 15 4 7h2l2 4 10 13 14 14 13 10 9 6 5 1 4-6 9-6 13-6 14-3h26l15 4 12 5 6 4 6 7 2 3h2l6-8v-2l4-2 15-7 11-3 6-1h24l14 3 12 5 8 5 7 8 5-1 10-7 10-8 10-9 12-13 6-8 7-11 10-19 7-20 6-23 2-18 1-12v-30l-2-21-2-15-4-15-8-21-8-15-6-9-9-11-9-10-8-8-13-10-8-6-24-13-24-9-4 1-17 6-28 5-12 1h-15l-21-2-22-5-16-6zm350 84-13 3-8 5-8 10-3 8-1 5v9l3 9 8 8 9 4 4 1h16l12-5 5-5h8v22l-3 12-6 15-4 6-9 11-9 9-12 9-10 6-19 9-19 6-21 5-9 3-1 3v10l3 21 1 1 13-1 22-6 18-6 17-8 16-9 11-8 15-14 10-11 2-5 3-1 6-11 8-16 3-10 2-14v-21l-3-16-9-17-7-9-9-8-10-5-9-3zm-353 246-13 4-11 6-6 7-1 8 4 7 9 6 8 4 12 3 18 1 14-2 14-5 9-6 5-6 1-6-3-7-7-6-13-6-8-2zm110 0-13 4-10 5-7 8-1 8 5 8 10 6 14 5 15 2 16-1 15-4 8-4 8-6 3-6-1-8-6-7-10-6-14-4zm-40 30-3 5v2h8l-2-5-1-2z"/><path transform="translate(406,146)" d="m0 0 5 1 13 9 22 16 16 11 7 5 1 5-3 3-21 10-16 8-35 17h-5l-2-2v-7l8-40 6-27 1-6zm5 14-4 15-5 24-3 18h3l41-20 11-5-1-4-16-11-5-4-19-13z"/><path transform="translate(611,147)" d="m0 0h6l3 6 2 10 2 11 9 41 1 13-3 3-6-1-47-23-17-8-8-5-1-4 5-5 18-13 15-10 9-7zm-2 13-11 7-6 5-19 13-6 4 1 3 17 8 16 8 19 9h2v-8l-10-46-1-3z"/><path transform="translate(430,287)" d="m0 0h15l9 3 7 5 6 9 3 10v8l-3 11-8 10-10 6-12 2-11-2-10-6-8-10-3-8v-13l4-10 6-8 10-6zm1 9-8 4-6 7-3 8v8l4 9 8 7 5 2h13l6-3 7-6 4-11-2-12-4-6-6-5-5-2z"/><path transform="translate(577,287)" d="m0 0h15l9 3 8 6 5 8 3 10v8l-4 13-6 8-11 6-9 2-11-1-12-6-7-8-4-8-1-3v-13l5-12 4-2 2-4 5-4zm1 9-8 4-6 7-2 7v9l3 8 7 7 6 3h13l8-4 6-7 3-8v-7l-4-10-8-7-6-2z"/><path transform="translate(435,303)" d="m0 0 8 1 6 4 3 6v9l-5 8-8 3-9-2-5-5-2-4v-9l3-6 6-4z"/><path transform="translate(583,303)" d="m0 0 9 2 5 4 2 5v9l-3 6-6 4-7 1-5-2-5-4-3-5v-9l4-7 5-3z"/><path transform="translate(486,347)" d="m0 0h51l2 3-1 5-8 7-7 8-6 6v26l9-1 13-5 4-1v-2l8-6 8-9h5l2 2-1 6-7 8-9 8-14 7-10 3-7 1h-12l-11-2-13-4-10-6-10-9-5-7v-6l1-1h6l12 13 11 7 13 4h5l1-2v-23l-18-18-5-6 1-4zm15 10 6 8 3 3 4-1 7-8v-2z"/><path transform="translate(499,613)" d="m0 0h23l12 3 15 6 14 10 12 12 11 16 8 19 4 17 1 9v19l-3 17-6 18-8 15-8 11-7 8-13 10-16 8-14 4-8 1h-10l-16-3-12-5-10-5-13-10-9-10-9-14-7-15-5-17-1-9v-28l2-14 6-17 9-17 9-11 4-5 14-11 16-8zm3 9-15 4-14 7-11 9-7 7-7 10-6 10-5 13-4 22v19l3 17 2 9 5 11 8 14 11 12 8 7 16 9 10 3 18 1 16-2 10-4 13-8 10-9 7-8 6-10 7-14 4-12 2-18v-13l-2-19-6-17-8-15-9-11-7-7-10-7-12-6-9-3-6-1z"/></svg>
