<?xml version="1.0" encoding="UTF-8"?>
<svg version="1.1" viewBox="0 0 1024 1024" xmlns="http://www.w3.org/2000/svg"><path transform="translate(674,206)" d="m0 0 5 2-1 2-3-1-8 21-2 9-8 9-2 2 1-4 5-8 6-15 3-11z"/><path transform="translate(322,210)" d="m0 0h5v2l-12 3-13 7-7 8-1-3 8-8 11-7z"/><path transform="translate(334,210)" d="m0 0h9l11 4 10 6 6 6v3h2l5 10 1 7 7-2 11 1 8 6 1 3 11-2 4 1-11 4-5 1-3-6-7-4h-11l-6 2-3-9-7-14-7-6-10-5-7-3-10-1z"/><path transform="translate(679,210)" d="m0 0 3 4 8 16 7 13 8 9 11 4h13l16-5 2 1-13 6-3 1h-16l-9-4-6-4-6-8-5-9-8-17-2-3z"/><path transform="translate(584,240)" d="m0 0h6l24 12-4 1-14-7-5-3-4 1 3 10 7 20v17l-4 8-4 3 2-4 3-9v-11l-4-15-4-11-2-7z"/><path transform="translate(614,253)" d="m0 0 11 2h16l9-2-3 3-4 2-13 1-11-3-5-2z"/><path transform="translate(287,242)" d="m0 0h1l1 20-5-1h-12l-8 5-4 7-1 2v11l1 6-9-3-7-3v-1h6l6 2v-13l6-11 6-4 9-2 9 1v-12z"/><path transform="translate(761,241)" d="m0 0h6l2 5-8 24-1 19 1 9h2l5 8 5 4 13 5 28 5 5 3-2 5-8 6-16 10-3 3v2l4 2 10 10 6 11 3 14 8-6h7l-2 2-8 4-2 4 16 2 2 2v8l-5 4-17 8-13 11-8 11h-2l-2 5-5 14-2 10h65l-1 3-65 2-5 23-3 20-1 12-6 26-7 25-5 12-8 16-8 13-11 15 1 3 8-1 6-13 10-14 8-7 15-8 14-3h13l15 2 19 10 11 10v3l-4-1-5-5-9-7-9-4-12-4h-21l-14 4-10 6h-2v2l-8 7h-2l-2 5-6 9-4 11-2 2-10 1v-2h-5l-14 14-18 13-13 8-12 6-17 8-9 3-12 3-9 3 1 6 4 10 1 7 1 6 5 1v2h-6v16l2 10v14l-3 6-10 6-6 2-17 3-29 6h-17l-4-4-23-1-4-6-13-2-2-2v-9l7-10 10-9 19-10v-5l-9-8-2-1h-44l1 12v18l-4 5-12 4-14 3-28 4h-25l-3-3-21-2-3-5-9-2-3-3 1-8 6-9 6-5 1-4 18-6 6-3-1-5-10-13-5-8v-2h-2l-7-12-3-10-3-9v-26l5-18v-9l-3-23-1-4h-21l-13 5-14 9-9 10-7 11-4 10-4 3-8-1-9-10-7-8-9-8-15-6-4-2-6-1v-2h6l15 6 10 6 4 5 6 4 6 8 4 5h7l4-5 5-12 9-12 7-6 14-8 13-4 19-2 2-16v-4l-13-1-8-4-7-7-10-17-16-8-3-4-128-1-1-1v-47l4-2-1 2v44h125l4-5 4-1-1-10-6 1-5-10-4-2h-13l1-6v-12l-6-7-7-2v-2h7l7 7 2 7v11l11 1 5 3 3 6v3l11-5 6 1 6 2 4-5 6-1 6 7 3 8 1 9 7 7 5-2 8-6h2l4-24v-12l-10 1h-42l-13-3-16-6-9-7-6-6v-2l-3-1-3-5v-8l7-8 4-5h8l4 2 10-5 3-3-1-7-4 5-6 5h-5l-7-7-2-5-5 5-4 3-6-1-5-5-5-9-9-4-4-9-2-9v-28l2-10v-4l-23-1-6-3-8-9-2-7v-12l5-9 11-8 2-1h6v2l-10 3-5 5-2 3h-2l-2 6v12l5 9 5 4 8 3h18l4-3 6-11 7-8 8-6 16-8 17-5 21-5 9-10 7-8 10-5h18l9 3h12l10-3 5-2h18l11 4 4 2-4-7-6-5 4-1 7 8 4 9 4 2h20l10 3 6 5 3 7v28l14 8 8 8v2h2l2 3v13l-8 16-3 5v4l11 8 8 9 2 4v12l-8 16-4 7 6 2 10 3 7 4 4 6 1 10 1 7 29 14 18 10 9 8 8 7 5 5 8 9 9 14v2l9-3 10 1 10 9 3 4 3 1 1-5 5-10 5-4 4-2h12l8 2-1-5v-19l4-5 13-6 4-2-5-17v-2l-28 1-7 13-5 1-6-12v-2l-31-2-6-4-1-3h-2l-2-7 1-8 3-6 6-7h2v-2h-15l-15 5-16 9-4-1-2-2 2-9 5-14 2-6v-13l-4-10-4-5-9-4-20-2-5-3 2-5 10-8 7-7 1-3v-10l-5-9-8-7-11-7-1-1v-5l2-2 23-3 13-5h2l-1 3-9 4-24 4-2 1 2 4 10 6 7 8 4 4 1 3v12l-5 9-10 8-4 3v2l27 5 9 7 5 10v17l-9 25v2l4-1 22-10 6-2h14l10 2 1 2-7 3-6 5-3 6v12l2 5 7 2h76l6-7 15-8-1-7v-15l3-6 11-4 9-2 3-8 3-7 5-5 2-1h11l8 1 12-4 7-1 1-1v-10l-6-15-7-8-8-6-7-3v-2l7-1 3-1 1-3 15-10 8-5-3-3-28-5-10-4-8-6-6-8-2-8v-18l2-12 5-17v-2l-5 2-12 6 2-4 8-5zm-349 23-9 3-11 7-7 5 4-6-3-1-14 2v-2l4-1v-3l-8-3-12 1-11 6-7 8-1 6 2 1-24 6-21 6-14 6-11 8-7 8-6 11-3 10-1 10v23l2 12 5 5 7 3 26 5 21 2h44l16-3 17-6 10-4 8-8 8-7 5-7-2-2h-3v-2l10 1 5 3v2l-3-1-2 2-4 18-12 22-11 12-11 8-14 7-13 4-17 2h-17l-20-2-12-3-13-4-1 3 3 7 6 8 9 6 13 6 23 4h21l27-4 24-7 18-7 13-7 11-9 4-3-4 6-13 10 1 9h-2v-5l-4-2-14 7-13 5-18 5-2 2-2 13-3 23-2 13-6 28-2 14v34l3 16 9 24 6 11 7 10 8 7 4 5 8 7 8 6 16 8 5 3 15 5 16 4 15 3h12l-2-6-4-9-5-19v-31l4-19v-5l3-4 8-16 5-8 3-2-6 10-7 16-4 10-2 15-1 7v22l2 17 8 16 6 10 17 17 8 7 3 4-1 5-18 12 5 5 4 1 2-1 9-1v2h-8l-6 4-6 9-1 3v9h21l4-6 3-6v-6l-4-5 5 3 5 1h2l-5 5v2h-2l-3 5-2 10 2 2h11l17-3 1-3-3-10-6-7-6-1v-2l7 3 6 7 5 11h14l17-5 12-6 3-3v-14l-3-12-2-29-6-16-1-7 3-7 4-6 5-5 6-11 7-14 5-15 1-8h2l-4 15-1 9 4 1 2-1v2l-9 3-5 12-7 10-7 11-2 3 1 1 9-1 21-7 19-8 10-6 9-5 15-11 10-9 16-16 13-19 9-16 9-24 5-15 9-49 3-18 1-10 4-15 7-20 2-6h-2l2-4 7-8 13-9 18-10 6-3-1-5-2-1h-15l-19 4-12 5-12 8-10 9-8 11-12 22-5 15-8 21-5 13-9 17-12 14-12 9-10 5-14 3h-27l-1 2 5 21-2-6-5-16-9-19-6-10-9-12-8-7-6-7-19-12-26-13-10-4-19-11-7-7-6-10-6-19-3-19-3-27-2-20-5-21-6-19-10-17-6-5-7-8-9-7-2 1 1 7 1 4h-2l1-3-4-7-4-5-5-5-8-5-4-1zm46 12 1 5 10 8 6 7 7 10 1 2h2l1-3-1-18-4-6-5-4-3-1zm32 46 4 17 4 26 2 3 3-1 8-18v-11l-7-9-10-7zm-72 56-11 10-2 3h-5l-7 4-1 3 1 2h-5l-3 4-3 7 2-10h-7l-7 3-1 4-5-4-3 3v2h-2l-2-4-13 2-1 4 4 5-3-1-5-7-4 2-8 9h-12l-3 3 2 4 1 3-2-2h-6l-5 6 1 4 13 2 2-5 3 6 3-1 2-4 1 5h16l-1-5-5-6h-5l-3 3 1-3 6-1 3 1 7 9h3l1-2 1 2 14-1 3-2v-3l4 2 2-6 2-7 2-2h7l-7 1-2 3-1 8h5l9-6-1-3h6l1-1 1-10 5-5 8-1 5-8 5-11 2-8zm83 2 1 19 4 27 4 1 8-11 3-9v-10l-6-8-7-7-3-2zm270 17-6 4-3 6 1 4 7-4 10-7-1-3zm-503 3-1 2 3 6 5 4 5-3 2-3v-4l-9-2zm23 3-1 2 3 8 3 2 7-1 4-6-1-4-5-1zm25 3 1 7 4 5h5l7-7-1-4-3-1zm84 1-3 4v4l5-1 3-4-1-3zm349 13-9 3-4 5-1 3v9l2 4 3-1 8-14 4-5 1-3zm-461 3-3 5 1 3 5 3 5 1 1-4-2-6-3-2zm224 14 1 5 7 9 8 7 9 3 1-1v-9l-5-8-8-5-4-1zm218 18-10 6-2 2v15l3 7 4-2 3-10 5-14v-4zm-60 13-1 2 6 12 1-2h2l4-9-1-3zm-331 21-3 5-2 7-5-6-4-2h-6l1 7 5 9-9-1-3 2 1 5 4 3 12 5 8 15 10 11 4 2 7 1 7-2 3-5 1-13 3-19h-3l-9 7-5-1-8-8-1-2-1-13-4-6zm376 5-10 3-5 6v14l2 6 3-1 7-10 6-12 1-5zm-39 33-5 5-5 10 1 5 10-3 10-5 9-8v-3l-3-1zm-40 6-4 3v7l5 4 8 2h11l1-3-7-9-5-4zm-265 89-3 7-1 11v18l2 12 10 18 4 7 10 12 5 7 1 8-8 4-11 4-1 4 3 3 11-1v2h-6l-6 4-5 7-3 9 2 3h16l4-1 6-13-2-5h2l5 1 3-1-5 5-6 10-1 2v6l1 1h16l10-2 1-4-2-8-6-7-4-1v-2l7 4 5 8 1 6 2 3 16-1 21-3 5-3 4-4 1-10-4-36-5-5-23-8-14-6h-2v-2l-13-8-14-11-7-8-10-15-8-16-3-5zm104 81-1 5 2 11 2 2h15l22-1-2-4-7-9zm-102 32-9 8-4 6v5h10l10-13-1-5-1-1zm141 18-8 7-5 8-1 6h11l5-3 4-8 2-5-5-5z"/><path transform="translate(632,277)" d="m0 0h2v3l-7 4-11 11v-3l5-6z"/><path transform="translate(407,286)" d="m0 0h13l10 5 6 9 1 3 1 15-3 7 1 5 2 1-1 3-18 1-8 3-6 2-2-5-8-7-4-6-1-16 3-9 5-5 6-5zm1 2-9 6-6 9-1 4v9l6 12 2-2-2-6v-10l4-8 5-3h12l5 4 3 3v21h4l4-8v-15l-5-8-6-5-3-3zm-2 15-3 3v5l3 3 6-1 2-2-1-6-4-2z"/><path transform="translate(258,334)" d="m0 0h5l2 2 1 10-3 1-6-5v-7z"/><path transform="translate(321,337)" d="m0 0h7l2 2v5l-8 6-4 2-5-1 1-6z"/><path transform="translate(604,380)" d="m0 0 5 5 5 9 11 12 7 6-2 1-9-7-7-8-4-5-6-11z"/><path transform="translate(682,407)" d="m0 0h2l-1 3-6 4-6 8-3 12-3 1-3-3h4l-2-4v-3l3-1 6-10 7-6z"/><path transform="translate(228,423)" d="m0 0h9l12 3 8 6 4 5v2h2l2 4-1 5-2-2-4-9-8-7-6-3h-19l-7 4-8 8-5 9-2 10v10l-5-1-3-2-12-1 1-2h10l5 1 2-14 7-13 9-8 8-4z"/><path transform="translate(470,508)" d="m0 0h1l2 20 1 6-2 1h-23l-9 4-7 8-5 10v9l1 3 4-1 4-8h3l3 10 2 4 4 1 3-10 3-9 1-1 12 1h16l10-5 4-10 3-19h2v17l-3 11-7 8-5 2h-25l1 7-3-3-1-2h-2l-4 14-4 4-6-1-5-7-4 1-2 2h-5l-4-6v-13l3-9 6-8h2l2-4 12-6v-10l2 4 2 5h15l1-18z"/><path transform="translate(748,544)" d="m0 0 1 3-5 15-9 20-1-3 6-15 5-12z"/><path transform="translate(475,589)" d="m0 0 4 4 10 15 1 2-4-1-7-11-4-6z"/><path transform="translate(210,591)" d="m0 0h8v2l-15 4-10 5-9 7-2 3v163h6l-4 4-2 1v20l5 12 4 4 9 5h40 3 93l10-9 1 2-5 7h317l1-7 2-1 1 7 1 1h95l7-6 2 1-3 5h59l10-5 5-6 4-9h2l-1 5-5 9-7 6-7 3h-626l-10-6-6-7-4-9v-193l5-5 10-6z"/><path transform="translate(726,592)" d="m0 0 1 3-9 12-14 14-14 9-2-1 16-12 15-15z"/><path transform="translate(793,633)" d="m0 0h9l6 6 1 9 9-1 5 3 3 3v10l-4 5-5 2-1 2 4 2 3 5-1 5-4 6-9 1-8-2-1 5-4 4-7 2-6 18-3 12 14-14 13-8h8l5 4-1 11-5 9-8 9-9 7-12 8-1 1 16 4 22 9 17 6 6 4v2l-4-1-15-7-37-13-16-4-24-7-51-11-12-2-16-2-39-6v-2l14 1 27 4 20 4-5-11-1-5v-7l2 1 1 7 6 12 2 3 8 1-2-11-1-7 3 3v2l2-1 1-6v-8l-7-6-4-9v-4h2l4 9 4 5 5 3h9l8-6 6-9 1-3 1-7 2-1v7l-4 10-4 5-7 6-6 3-3 13-1 5h2l2-4 9-8h4l-1 3-9 6-6 7-2 5 9 1 10-8 4-3-2 5-7 6-1 2 17 4 11 2-7-20-2-9v-14l3-9 1-1h10l6 9 4 10 2 10 2-3 7-23v-8l7 6h6l5-5v-11l-6-2v-2l7-1 4-5 1-8 2 1 1 3h12l3-2 1-9-3-4h-9l-6 4-2 4-4-4 4-2 2-4-1-11-3-2h-6l-5 5v12l7 1v1l-10 2-2-8-4-4h-11l-2 9 3 5 8 3 4-1 1 9 5 5v2l-5 2-3 9-1-4-3 1h-8l-6-4-2-3v-9l6-5 3-3-5-5v-9l4-5 9-1 5 2h3l3-6zm-25 32-4 4-1 8 4 4 2 1h8l6-4 1-4-3-9zm39 4-7 7 1 5 7 8h7l5-5v-7l-5-6-5-2zm-56 28-3 4-1 5v14l4 15 7 15 9 1h2 3l7-23 4-15 2-9v-6h-3l-3 10-9 31-1-14-3-13-6-12-3-3zm-39 13-4 20v7h3l3-17v-10zm94 1-8 5-10 9-7 8-7 15-1 6 4 2 4-1 16-10 13-12 6-9 2-5-1-7-1-1z"/><path transform="translate(334,635)" d="m0 0 4 1-1 2-5 1-5 6h-3l-1-7 5 1 3-3z"/><path transform="translate(310,633)" d="m0 0h1l-1 7-2 6-4-2-4-4h-6l1-3 6 1 2 2 4 1 1-6z"/><path transform="translate(239,646)" d="m0 0 1 2h3l-1 8 1 4h-11l3-3 4-2z"/><path transform="translate(221,654)" d="m0 0 3 1 7 7-2 5 1 8 3 3 9 1v2l-4 2v8l3 6-8-4-2 3h-2v-2h2l3-9-1-4-5-4-5 1-5 5-1 5h-2l1-7 2-3v-2l7-3 1-10-5-4-5-1v-2h5z"/><path transform="translate(259,656)" d="m0 0 2 2-1 3 7 3v2l-6-1h-10v13l2 1 11 1v2l-8 1v9l-2 4-1-2v-9l-2-5-7-1 3-5v-8l-3-5 9 1z"/><path transform="translate(333,667)" d="m0 0v3l-6 6-5 1v16h-2l-1-14-4 1-4-4h9l8-4z"/><path transform="translate(715,670)" d="m0 0h8l4 7 8-1 3 2v2l-7-1-6 5-1-5-2-5-1-1h-5l-3 2 1-4z"/><path transform="translate(701,671)" d="m0 0 5 1 4 4 3-1-1 5-4-1-3-4-5-1-1 5h-2l1-5z"/><path transform="translate(246,697)" d="m0 0h6v8h-2v-3l-4-1v3h-2l-2-6z"/><path transform="translate(309,707)" d="m0 0h2l3 9h4l2 18 1-1 1-18 4 1-2 17 1 1 9-1 5-8 1 3-1 4 15-1v2l-39 6-3-1 4-2v-7l-6-18z"/><path transform="translate(689,708)" d="m0 0 6 1 7 8-1 2-5-5-4-3-5 1z"/><path transform="translate(249,720)" d="m0 0h2l3 14 1 11-2-2v-4h-2l-7-11 1-2 5 6 1-1z"/><path transform="translate(260,725)" d="m0 0 2 2-1 21 3 1-3 2-24 8h-5l3-2 9-4 1-4 10 2-1-4h5l-4-19h4z"/><path transform="translate(221,728)" d="m0 0 14 14 7 5-3 1-11-9-7-8z"/><path transform="translate(302,731)" d="m0 0 7 6 1 3-22 5-6 1v-2l22-6-1-4z"/><path transform="translate(316,786)" d="m0 0 2 1-6 7-2 3h-2v-10h2v3l5-3z"/><path transform="translate(743,789)" d="m0 0h7l2 3v8h-2v-9l-8 2-8 9h-2l-1-9h2v2l5-2z"/><path transform="translate(270,794)" d="m0 0 3 1 2 5h2v-5l2-1 1 12-3-1-7-9z"/><path transform="translate(329,794)" d="m0 0 2 1v4l5-2h8v2l-9 1-8 5-1-3z"/></svg>
