<?xml version="1.0" encoding="UTF-8"?>
<svg version="1.1" viewBox="0 0 1024 1024" xmlns="http://www.w3.org/2000/svg"><path transform="translate(689,179)" d="m0 0 4 2 8 16 4 9 9 16 7 7 11 5 3 1h12l17-6 6-2v-2l10-6 4-2h5l2 4-6 18-3 11-1 18 2 10 5 9 7 6 11 5 36 6 4 3-1 4-25 16-7 6-1 2 5 2 10 9 8 13 3 11v7l11-8 6-1h11l6 4 2 2v90l-72 1-4 16-4 26-2 17-6 28-5 20-6 16-4 9-6 12-11 19-10 13-2 4 5 3 7-3 7-16 9-12 7-7 14-8 9-4 16-2 16 1 10 2 9 4 14 9 10 10-3 1-9-9-12-8-16-6-6-1h-19l-15 4-15 9-8 7-9 13-3 5-3 9-4 4-8 1-6-4-17 17-16 12-15 9h-2v2l-22 10-8 4-13 4-23 7 2 6 4 8 2 8 1 11 38 4 36 6 4 1-8-14-1-7 1-7 3-3 5 1 5 4 7 11 2 4 2-13v-6l-9-8-4-10v-18l4-5 6 1 3 4 3 1 2-5 3-2h6l4 4 1 6 8-4 5 3 1 7-2 8-7 11-7 6-8 3-4 22h2l2-4 9-8 4-2h9l2 2v7l-6 8-8 7h-2l1 2 32 8-3-9-4-11-4-16v-10l3-10 3-3h8l6 7 5 11 4 19 7-25 3-10-1-6v-9l-4 2h-7l-7-4-2-4v-8l3-5 7-3 1-2-4-2-3-5v-7l4-6 5-2 8 1 3 2h3l3-7 5-4h9l6 5 1 2v10l6-2 7 1 5 4 1 3v8l-3 5-5 3h-3v2l4 2 3 4 1 5-4 8-6 3-7-1-6-3-2 7-5 4-7 1-3 8-5 18-3 11 4-4 9-11 13-9 7-3 8 1 4 5-1 9-5 9-9 10-9 8-15 10h-2v2l17 4 27 10 15 6 9 4v26l-5 10-8 8-11 4h-677l-12-6-6-7-4-9-1-4v-206l8-8 14-8 10-4 5-1h27l15 5 13 8 10 9 8 9 5 7h8l3-3 4-11 10-15 8-8 18-11 16-4 19-1 2-24-11-3-2 8-5 10-3 3h-6l-5-6-2-4-4 2-3 2-4-1-3-4-1-3v-11l4-11 6-8 8-7 11-4h10l14 2 3-8 5-23 2-14v-13l-23 3h-24l-20-3-20-7-14-10-7-9-3-5-1-6 3-5 5-4 4-6 2-1h6l3 2v2l11-5 8-7-2-6-2-2-6 9-3 3-6 1-6-5-4-8v-3l-3 3-3 5-5 3-6-1-5-5-5-10-10-4-4-8-3-14v-25l3-16 1-3h-23l-10-4-5-4-5-9-1-8v-8l4-9 8-7 6-4 3-1h20l10 4-1-2v-13l6-12 8-5 10-2 9 2-1-12 3-12 3-7h2l2-5 9-8h2v-2l11-5 10-2h16l11 2 13 7 8 7 7 11 4 13 9-3 9 1 8 5 3 4v2l14-4h9l9 3 7 7 2 5 2 6 6 3 17-1 12 2 9 6 3 7 1 5v15l-1 12 9 5 13 9 6 9 1 2v10l-5 13-5 8-4 7 11 8 9 8 5 9v11l-8 17-7 10 15 3 10 5 5 6 2 8 1 12 41 20 11 7 13 11 8 7 11 13v2h2l9 16 10-4 9 1 8 6 7 9 2 1 2-6 5-10 5-5 7-3h8l13 3-2-8v-18l3-5 12-6 9-3-5-17-1-5h-31l-8 16-3 2-4-6-5-12-32-1-8-4-4-7-1-8 3-9 9-10h2v-2l-7-1h-9l-16 5-16 9-5 2-4-1-1-4 6-14 5-18v-11l-4-11-5-6-11-5-24-3-2-2 1-5 13-9 6-7 2-5v-9l-5-10-8-7-15-10v-6l26-4 10-3 8-4 5-7 3-10v-10l-5-19-6-14-1-7 2-2 5 1 16 8 11 5 12 4h15l11-4 3-1 2-4 6-8 5-11 7-21zm0 3-3 7-7 20-2 8h-2l-6 9-9 7-7 3-11 1-10-2-18-7-17-9h-5l12 36v15l-3 8-6 8-7 5-15 4-21 3 2 4 16 11 8 9 2 5v12l-5 10-16 12 1 3 20 3 11 3 8 7 5 12v15l-5 15-6 17 2 1 19-10 14-5 4-1h11l11 3 4-1h11l11 3v-5l-9-3-17-6-12-7-7-5-5-5-4-5-5-5-9-15-6-18-2-12v-17l3-15 6-18 7-10 6-8 5-5 9-8 9-5 14-7 15-4h30l16 4 17 8 9 7 10 9 9 11 8 16 4 11 2 17 2 4 14 1 10 2 13-10 20-13v-3l-8-2-23-4-12-3-9-7-7-8-4-12v-14l3-15 5-16 1-7-5 1-15 9-13 6-7 2h-13l-10-3-10-7-9-14-7-16-6-12-1-3zm-376 3-12 2-14 7-10 9-7 14-1 3v15l1 6-7-3h-11l-8 4-5 6-3 7v10l3 9-15-7-5-1h-8l-11 4-6 4-6 8-2 5v11l5 10 7 6 9 3h18l5-2 8-15 8-9 13-8 13-6 40-10 5-5 9-12 10-7 8-2h13l10 3 3 2h10l8-2 10-4 4-1h14l13 4 5 4h2l-2-5-7-8-6-3-8-1-8 2-10 5-1-5-5-5-6-3h-10l-8 4-3-13-6-11-5-6-11-7-13-5zm93 57-11 3-14 9-8 7 1-3 5-7-20 2h-3l9-3-1-3-10-3-11 1-12 6-8 9-2 6 9-1-12 5-27 6-14 4-15 6-13 9-7 8-7 11-5 16-1 14v14l1 13 4 9 8 4 26 5 16 2 19 1h37l17-2 16-5 16-7 11-9 10-10 4-6-5-1-3 1 3-3h9l5 3 2 2 1 4-6-4-2 6-4 17-8 16-7 10-9 10-12 9-16 8-16 5-22 2-24-1-15-2-18-6-5-2-1 1 1 7 6 9 7 6 15 8 6 2 17 3 11 1h14l19-2 18-3 22-7 15-5 19-10 8-6 10-9 3-3-8 11-8 7-7 5 1 9 7 37 4 20 6 22 1 1h16l1-2v-15l1-7h2l-1 4v8l3 14 1 4-3-1h-24l-10 4-5 5-4 5-4 9-1 4v7l2 6 4-2 5-10 2-1 2 9 4 8 4 2 4-9 3-12 1-2 9 1 6 1h15l10-4 4-5 4-14 1-16h2v17l-3 13-7 9-4 2-6 1h-24l3 10 12 23 13 19 5 6 3-1 4-10 9-17 11-12-7 11-6 11-7 16-4 13-3 22v18l3 21 7 16 8 13 13 13 8 7 9 8 1 5-3 5-18 10v2l8 6 5-3h7l8 6 4 4 5-2 1-1h8l8 6 4 8 3 9 14-1 17-4 13-5 5-4 1-3v-12l-3-12-1-7-1-26-4-12-5-11 1-6 7-10v-2l3-1 8-13 9-17 6-19 1-8h2l-5 23-1 4 4 1 17-5 13-5 17-8 15-10 10-8 13-13 10-14 9-15 10-25 6-18 4-18 8-37 2-11 6-18 5-13 10-16 11-12 15-11 19-10 6-3 1-4-7-2h-12l-17 3-13 4-15 9-11 9-10 12-12 21-8 20-6 18-5 13-10 22-7 9-9 11-15 11-8 4-18 4h-21l-7-1-1 2 4 16 2 9h-2l-1-7-6-19-11-23-11-16-11-12-10-9-17-11-23-12-21-9-15-9-8-7-7-10-6-14-4-17-4-36-1-15-4-23-5-19-3-10-11-21-6-7h-2l-2-4-5-5-11-8h-2l3 12 1 2h-2l-2-7-8-11-8-7-8-4-5-1zm281 1-20 4-17 7-5 3v2l-5 2-13 12-6 8-7 11-5 12-3 14-1 17 2 15 4 15 11 19 11 12 8 7 17 10 7 2 12 3 4-1 7-12 8-6 11-4h9l9 3 4 1 2-19 6-18 11-14 12-10 5-3 15-4 2-2v-9l-4-16-8-18-9-12-10-10-13-9-16-7-15-4-9-1zm-234 12v4l9 7 9 9 10 16h2l1-7-1-15-3-6-6-5-5-2-6-1zm35 50 1 6 5 18 1 9 3 18 3-1 8-16 2-5v-10l-6-9-10-7-5-3zm294 27-13 3-11 6-11 10-9 12-4 11-2 8-1 13v7l-12-5-9-1-9 2-9 6-6 7-3 6-1 11h-3l-6-3-5-1h-9l-8 2-8 6-4 6-1 3v11l4 7 8 3h82l5-8 18-9-2-11v-12l3-7 10-4 12-2 3-4 3-12 5-6 5-2h8l10 2 12-4 10-2 2-2v-8l-4-13-5-9-12-11-8-4-10-2zm-370 32-9 9-5 4-2 13-3 3-9-1-4-3-4 1-4 12-5 3-7-2-7-8-4 1-5 13-5 3-6-2-5-5-5-7-3 3-7 9-3 2h-6l-4-2-6 5v2l4 2 6 15 3-1 6-11 4-2 6 1 6 7 3 5 3-2 4-11 5-3 6 1 8 9h3l1-11 3-5 2-1h6l6 4h5l1-1v-9l2-5 5-3h8l10-19 3-10zm88 4 1 18 3 23 2 11 3 1 9-14 4-10v-9l-4-7-7-7-8-6zm356 1-9 4-6 5v2l18 2 3 3v6l-5 5-19 9-13 10-9 11-7 12-4 11-3 10v3h70l1-1v-85l-6-5-7-2zm-463 11-11 6 1 4 4 2 7-2 2-10zm402 7-5 2-4 4-3 9h3l12-9 7-4-4-2zm-549 3 1 6 5 6 4 1 5-4 2-6-4-2zm121 1-10 3v4l5 5h7l3-5 1-7zm-96 2 1 7 4 6 5 1 5-3 3-6-1-3zm27 4 3 9 4 4h5l4-4v-2h2l2-5-7-2zm47-1-18 2 2 6h2l2 4 2 2 6-1 4-5 1-4zm45 2-3 4v6l4-1 5-6-1-3zm-24 14-2 3-1 10 5-1 10-6v-3l-5-3zm406 0-12 3-4 5-1 3v9l1 6h3l6-12 8-10 1-4zm-501 2-5 5-1 4 5 3 8 2-1-9-5-5zm72 5-4 5-2 4 1 5 14-3 4-2-5-7-3-2zm-54 1-4 5-2 4 3 2 14 2v-7l-4-6zm27 2-5 6-1 5 1 1h17l1-2-5-8-3-2zm493 4m-1 1-7 10-8 17-7 22-5 23-5 26-6 22-6 18-8 19-12 20-11 14-8 7-5 5-11 8-11 6-15 8-33 11-5 2-5 12-12 19-7 9 3 1 22-6 13-5 17-7 14-8 11-7 13-10 12-11 12-12 10-13 10-15 8-16 5-12 9-28 5-25 11-66 5-17 8-19zm-296 3-1 2 7 11 10 9 11 6 1-1v-10l-3-8-8-6-12-3zm-87 14-10 5-20 8-22 6-3 29-2 13-8 39-3 22v32l3 18 7 21 8 16 9 13 18 18 8 6 15 9 15 7 17 6 31 6 12 1-2-6-6-13-4-15-1-6v-28l4-19 1-8-5-5h-2l-2-5-1-2h-2l-2-4-15-26-5-12-3-6-2 1-5 17-4 4-6-1-6-9h-3l-4 5-5-1-3-4-1-4v-11l3-8 7-11 7-6 11-5 1-2-7-28-2-12-9-45zm324 6-10 6-3 3v15l4 9h2l11-33zm-65 14-1 2 5 12 3 1 6-13-1-2zm50 28-12 4-5 5-1 3v11l2 10 3-1 10-16 5-10 1-6zm-404 36-6 3-5 4-8 11-1 4v15h3l7-11h1l2 11 5 8 3-1 4-9 3-10 2-2 14 2 2-6 2-17-1-1-8-1zm362 0-5 3-6 10-3 8 4 1 11-4 14-8 6-7-2-2-7-1zm-44 7-7 4 3 9 8 3 7 1h11v-3l-8-10-6-4zm-319 51-14 5-13 8-8 7-9 12-5 10-4 9-5 2-6-1-7-7-7-9-13-12-15-7-9-3-7-1h-14l-16 4-10 5-11 8-4 5v178l2 1 40-16 16-5 12-4 1-3-10-6-11-9-6-8-4-9 1-8 6-2 9 3 9 7 9 10 1 2h2l-4-19-5-17-6-4-3-5-6 5h-12l-4-6v-7l4-6v-2l-9-2-4-6 1-8 4-4 2-1 9-1-1-10 3-6 4-2 9 1 5 6 1 2h2l5-5 9-1 5 3 2 4-1 9-3 4 10 4 3 6-1 7-5 5-2 1h-8v3l1 6-3 7-3 2 1 8 3 14 3 12h2l5-17 6-10 4-2 5 1 3 5v14l-4 13-5 13 2 1 24-6 10-2v-4l-8-10-3-6h-2l-3-9-2-7v-8l3-4h7l7 5 5 8h2l2 6 3 6 2-1v-11l-2-30-5-3-6-3-5-4-5-9-4-11v-11l2-4 5-1 6 4 2 2 3-9 5-2h7l4 5 2 4 4-2 3-3 5-1 3 3 1 2v15l-5 14-8 9-7 3v18l1 20 1 6 3-3 4-10 6-9 3-2h8l2 5v11l-4 10-7 14 17-2 21-2 10-3 12-5 3-2-1-5-10-12-10-15-6-10-7-19-1-6v-22l4-18 3-7-1-10-2-11-2-16-1-1zm29 46-3 14-1 8v14l3 15 8 16 5 9 13 16 6 8 1 7-4 4-18 7v3l3 4 11-1 8 5 2 3 5-1 1-1h8l6 4 5 8 3 10 1 1 14-1 18-2 13-4 5-5 1-8-3-25-1-13-3-8-7-3-17-5-18-8-16-10-13-10-11-11-9-13-9-16-4-10zm-63 12-4 7-1 8-5-5-6-5-4 2-1 2v9l3 12 7 9 8 7 11 1 7-3 7-6 5-8 2-10v-12l-2-4h-5l-6 7-3 3-1-7-4-6-1-1zm524 2-5 5-1 2v10l1 3 14 1 4-8-1-9-5-4zm-615 6-6 3-2 4v6l6 8 4 1 4-3 6-2-1-10-3-5-4-2zm21 3-6 7-1 9 6 4 4 2 6-4 4-4 1-7-4-6-4-1zm569 0-4 4-1 7 3 5 6 4 6 1 8-9-2-5-6-7zm44 7-9 6-1 3 5 10h11l6-4 2-8-4-6-2-1zm-24 6-6 5-1 2v9l4 5 2 1h11l5-6v-10l-4-5-2-1zm-627 3-5 5-1 5 3 6 5 3h7l5-3 1-8v-3l-5-4-2-1zm25 1-6 3-3 6 1 8 4 4 2 1h9l5-4 1-2v-9l-5-6zm23 5-7 1-1 14 5 3h11l4-4v-9l-4-4zm557 1-6 5-1 8 4 5 5 2 6-1 7-5 1-4-2-3-2-7zm40 5-7 8 1 5 6 7 2 1h8l5-5v-8l-7-6-5-2zm-98 3-4 5-2 5-2-1-3-6-1-1h-5l-3 6v10l3 9 6 8 6 4h9l7-4 7-8 4-8 1-10-2-2h-5l-5 6h-1l-2-9-3-4zm-534 4-6 4-3 4-1 7 3 5 4 2 7-1 4-4 3-8-1-3-7-6zm609 1-4 6-1 9 5 6 2 1h6l5-3 2-4v-9l-1-4-10-2zm-586 2-10 5v8l3 6 4 2 9-1 3-5v-7l-3-5-3-3zm77 0-1 2 1 24 2 36 3-1v-18l-2-39-2-4zm-28 19-2 5 1 9 7 16 4 6 10 10 7-1 1-4-1-9-6-15-6-10-8-7zm52 1-7 7-7 14-3 20 3 1 9-2 6-10 5-10 2-6v-11l-3-3zm448 0-3 4-1 4v17l4 16 8 17 8 2 2-3 1-5v-20l-3-15-4-9-4-6-2-2zm35 0-3 7-11 39-2 10 1 5h2l11-40 4-16v-5zm-584 3-1 2 7 26 3 17 2 9 4-1-5-23-4-19-3-10zm248 4 1 12 2 7 43-1-5-5-7-9-20-2zm-220 2-5 4-4 9-3 12v20l3 3 5-2 6-10 5-15 1-5v-11l-3-5zm454 5-2 2v9l6 12 5 7 8 1 1-1-1-8-4-11-6-8-4-3zm24 0-4 24v6l3 1 4-27v-4zm104 1-6 3-10 8-8 8-4 5-8 16-1 8 9 1v-2l5-2 13-9 13-12 7-11 2-5-1-6-2-2zm-638 4-2 3 1 7 4 8 11 11 14 10 6 2 4-2-3-11-9-14-9-9-10-5zm556 5-10 6-8 9-3 5 1 3 9 1 11-9 6-7v-7l-1-1zm-277 4-1 1 1 12 1 5v14l-3 6-8 4-19 4-38 5h-22l-4-4-21-1-3-3-1-3-13-3-1-6 6-11 7-7 3-2v-3l-23 3-34 6-13 2-30 7-25 6-24 8-9 2-16 6-10 4-12 5-9 5-1 1v20l4 11 5 7 10 6 4 1h41l1-2v-9l8-2 12 1-2-5-4-8v-9l2-2h8l9 6 6 7h1l2-21 4-12 6-7 8-1 5 3 4 5 4 11 2 12 4-2 5-5 4-3h6l3 3 1 2v8l-1 6 9-3 9 1 2 2 1 6-3 10-6 6v2h347v-9l6-5h13l9 2v-3l-4-8-1-9 3-3h6l8 6 3 4h2l3-18 6-11 5-2 9 1 5 5 5 15 1 7 4-1 5-5 4-2h7l1 9-2 9 9-2h7l4 4-1 9-4 5v2h64l9-4 8-7 5-10 1-3v-19l-5-3-18-8-20-7-18-6-31-9-52-12-10-2-14-2-44-7-24-3h-5l-1 1v15l3 16v9l-3 8-8 5-7 3-45 9-12 2h-14l-5-5h-25l-4-8-13-1-3-2v-9l5-8 6-7 14-10 14-7 1-1v-5l-14-11zm-112 13-9 7-5 7-2 6 1 1h11l8-12 3-3-1-4-3-2zm14 4-6 4-3 4v2h-2l-4 11 1 4h16l6-1 7-14-1-4-4-5-3-1zm25 5-6 4-6 9-2 5v6l1 1h15l13-2 1-1-1-9-3-6-7-6zm113 11-10 9-6 12 1 2h12l5-3 5-10 3-2-2-4-5-4zm18 4-8 6-6 10-1 5v7h14l10-1 6-12 2-2-1-5-6-7-2-1zm26 6-6 5-6 10-2 10 2 2h10l19-3 2-1-1-7-3-8-8-7zm-285 2-5 3-3 3-5 14-1 9v11l1 7-4-4-6-8-5-5-5-2h-6l-3 5 3 9 9 13-9-3h-12l-4 3v6l2 2h101l9-8 4-6v-7l-3-4h-10l-12 7 5-13v-7l-4-4-6 1-7 6-5 8-2 1v-12l-2-12-6-9-3-3zm460 7-5 3-4 5-3 10-1 7v11l1 2h-3l-2-5-6-8-5-3h-6l-2 6 4 11 6 9-9-3-7-2h-11l-5 3-1 6 3 4h104l6-5 3-5-1-7-4-2-8 1-11 6 5-11v-10l-1-1h-6l-7 6-4 6-2 1-1-13-3-11-4-6-4-4z"/><path transform="translate(400,266)" d="m0 0h11l10 5 6 7 4 10v12l-4 10-1 3 6 3v2h-18l-10 3-7 4-2-1 1-3-9-7-6-9-1-7-1-8 4-11 1-2h2l2-4 6-5zm0 3-10 5-6 9-2 7v8l4 11 2 3h2l-3-11v-7l3-8 5-5 5-2h9l5 3 4 5h2l1 6v13l-2 6h4l4-8 1-4v-13l-4-9-8-7-4-2zm-3 16-3 3v6l4 4 5-2 2-3-1-7z"/><path transform="translate(237,317)" d="m0 0 5 2 2 5v9l-4-1-5-6v-7z"/><path transform="translate(305,322)" d="m0 0h8l1 6-5 6-10 4h-3l1-7 5-7z"/><path transform="translate(209,415)" d="m0 0 12 2 10 5 5 5 6 9 1 6v8l4-1h13l6 5 4 7 1 9-2 8 2-1h10l6 4 4 7v3l9-3 10 1 8 6 2 4v7l-5 6-5 2h-159l-1-2v-50l4-3 3-1h8l8 2 1-14 5-12 7-9 11-7 5-2zm-5 3-9 3-11 10-6 10-3 14 1 10-9-5h-12l-3 2v48l1 1h159l6-5v-6l-4-6-6-3h-10l-5 2h-3l-3-9-5-4-3-1h-7l-6 2 1-6 1-2v-11l-5-8-4-3-9-1-6 3-3 2 1-3v-8l-4-11-8-9-10-5-3-1z"/></svg>
