<?xml version="1.0" encoding="UTF-8"?>
<svg version="1.1" viewBox="0 0 1024 1024" xmlns="http://www.w3.org/2000/svg"><path transform="translate(386,304)" d="m0 0h22l11 4 8 5 18 18 9 10 7 4 11-1 10-3h5l-4-4-4-3v-2l2-1h16l5 2 3-1-2-5 1-1h7l9 6 5 6 17 4 9 3 12 6 6 5h10l15-9 9-4 9-6 22-11 16-4h12l11 2 12 5 12 8 10 9 11 11 10 14 8 14 5 15v18l-6 12-8 8-13 10-6 8-5 10-5 14 1 5 9 10 8 15 6 15h7l5-3 1-14 3-5 3-2 3 1 2-10h4l3 9v13l-4 8-5 5-9 11-9 6v39l-1 18v14l3 15 5 18 3 12v20l-5 9-8 6-12 5-8 2h-28l-10-4-6-7-1-24-5-13-2-4-10 3-2 10-2 16-6 8-5 3-8 1-25 1-5 13-6 5-10 4-15 3h-18l-18-4-9-6-4-4v-12l7-20 2-26 2-8h-2l-2 5-8 15-5 12-8 17-10 8h-18l-15-4h-7l-7 8-14 10-12 6-14 5-11 2h-24l-16-3-19-8-6-4-1-3-5-2-11-9-11-14-4-5-7-17-4-15v-26l4-17 7-16 7-9 11-12 8-8 17-10 10-4v-2l-7-8-8-3-10-3-5-6v-10l7-9 3-3v-7l5-10 4-3h11l7 7 5 10 19 12 13 4h13l-3-15-12-5-8-7-6-12-3-11-7-6-5-4-6-9-3-7-1-8v-12l-4-11-7-10-4-5-4-8v-18l8-16 9-11 9-10 16-11 14-7zm3 6-13 4-15 9-15 15-2 5-3 1-6 10-4 12v8l5 10 10 14 3 8 2 16 2 11 5 10 8 7 5 4 6 13 4 11 7 6 2 1h8l4-5 4-13-1-12v-30l4-16 7-16 9-14 4-5-1-5-9-11-10-13-11-8-7-3h-15l-11 4-14 7 10-8 13-5 5-1h10l14 4 10 8 7 8 12 16h4l13-10 6-4v-4l-11-9-9-11-12-12-11-6-4-1zm264 18-12 3-13 5-30 16-9 5-16 8-8 6 2-4v-5l-16-10-11-5-7-2-10-2-11-11-2 1 1 9-5-3-8-4h-5v3l3 7-16 2-11 4-16 8-10 9-7 6-4 5-5 5-12 22-5 21v42l-7 17v16l3 5 7-2 11-12 5-5-2 6 1 1 9 1-9 1-6 5 1 4 3 1 8 2 8 8v2l-4-5-7-5-8-2h-6l-5 5v3l4 4 4 7-10-10h-15l-1 1v6l1 2h-2l-2-6-4-3-19-8-8-5h-2v-2l-5-3h-5l-1-7-5-8-3-2-7 1-3 3-3 13-5 5-3 5v7l3 3 8 2h12l-1 6 12 11 17 11 15 7 14 5 12 2h29l16-3 21-8 10-6 13-11 5-7-1-3h-2v-2l8 2 3 4-5 1-11 23-5 4-2 1h-6l-2-2h-3l1 5 3 2h9l12-5 9-5 5-2 17-3 21-7 9-5 12-9 7-7 1-2-1-18h2l2 10 6 12 9 10 7 4 8 1 10-4 9-7 11-14 6-4 16-6 10-6 8-9 4-8 12-26 11-12 11-8 8-10 2-5 1-9-4-16-8-16-5-8-5-5-9-10-8-8-11-9-15-6-8-2zm38 160-8 10-10 7-16 5-5 5-6 5-5 7-8 7-1 3-12 3h-9l-12-4-6-7h-2l-2-5h-3l-13 12-16 8-10 4-15 3-15 2-17 10-5 2-11 1-7-3-3-3-9 1-2 2 1 14-3 2-1 3v9l4 9 3 14v25l-3 16-4 9v5l5 6 3 11 2 2h11l6-5 8-14 5-12 8-16 4-7-1-4-11-9-8-7-9-11-1-3h-2l1-2 10 12 17 13 11 6h4l3-8 2-8 1 12-5 19-4 32-2 10 2 2 8 3 2 4 12-1 6 4 3 11 4 1 16-2 6-3 7-6 2-6 1-26 6-14 11-18 6-14-1 10-5 13-1 4 1 1 23-1 19-4 1-1-1-10-1-4h2l2 6 9 16 6 9 1 3 2 16 8 2 3 3 11-1 5 3 6 9 11-2 10-4 7-7 2-5v-10l-4-19-3-13-3-12-1-5v-27l2-30-2-20-6-22-7-14-7-11-5-6zm55 15-2 4-5 1-1 3v8l2 2 5-1 3-3 1-3v-11zm-11 23-12 5v5l5 1 8-6 2-5zm-387 18-9 4 1 4 7 6 15-1 5-2-5-5-7-6zm148-1-10 8-2 4 5-1 6-5 2-3zm-166 8-6 4-14 11-1 4 15-1 12-1 6-5-1-7-5-5zm41 5-1 4 1 1h7v-3zm-17 4-10 4-4 6-1 7 6 8 6 3h10l7-2 6-7v-10l-3-5-5-3-5-1zm28 2-5 3 2 13 1 2 13 5 17 10 14 12 9 9 9 13 6 12 6 18 3-1 4-11 2-12v-15l-2-14-6-16-9-14-7-8-24-1-21-4-3-1zm71 2-5 2 1 5 6 8 2-1 1-3v-10zm-132 7-19 5-5 7v2h-2l-7 15-2 8-1 9v19l2 14 3 10 4 7h3l1-2 1-15 2-12 8-19 6-10 10-13 12-12-2-13zm55 11-7 8 2 7 5 8 3 7 10 26 2 7 3 22v25l-3 19 1 1h7l17-7 14-10 10-9 6-7 5-8v-11l-3-12-5-13-8-12-3-1-2-4-10-11-8-7-16-10-14-7zm-38 5-11 10-10 13-6 10-6 15-4 14-1 7v18l4 8 15 15 13 8 7 4 12 4 13 2h18l5-2 4-10 1-10v-29l-4-20-7-21-4-10-8-15-4-7-16-1-7-3zm275 67-15 1-5 9v6l8 6 4 8 1 1h13l8-4 4-5 2-11v-10l-1-1zm-156 19-5 6 1 4 7 3 4-1 1-5-3-5zm136 2-1 1v7l4 2 4-1v-6l-2-3zm75 7-2 2v7l6 3h3v-8l-4-4zm15 4-4 4-1 5 4 2h11l1-1v-6l-3-4zm-162 4-6 5v6l6 5h5l2-6-2-6-4-4zm13 7-5 7 2 4 6 2h10v-8l-4-5z"/><path transform="translate(651,354)" d="m0 0h22l13 4 12 7 9 7 7 6 12 18v2l-3-1-2-5-3-1-7-9-11-9v-2l-5-2-14-7-6-2h-24l-14 7-10 7-10 9-9 9-7 8-8 6 1 8 4 13 1 21-4 17-3 8h-3l3-16-1-28-6-17-5-5 2-4 10-6 15-14 12-12 16-11 12-5z"/><path transform="translate(418,463)" d="m0 0 6 1 4 4 3 5 1 6h-4l-3-6-6-3-5-2 1-4z"/><path transform="translate(517,469)" d="m0 0h12l7 4 1 6-5 1-4-2h-12l-10 5-3 1 1-5 6-7z"/><path transform="translate(441,483)" d="m0 0h14l7 3 2 4-11-3-14-1z"/><path transform="translate(333,489)" d="m0 0h2l1 11-4 6-4 4h-3l1-4 5-6 1-9z"/><path transform="translate(440,496)" d="m0 0 7 1 9 6 2 4-9-5v-2l-10-2z"/><path transform="translate(281,547)" d="m0 0 3 1-2 4-5 6-6 13-4 9-2-1v-10l4-9 8-11z"/><path transform="translate(299,547)" d="m0 0 3 1-1 3-9 7-7 10-7 16-2 4h-1v-10l2-8 6-9 9-10z"/></svg>
