<?xml version="1.0" encoding="UTF-8"?>
<svg version="1.1" viewBox="0 0 1024 1024" xmlns="http://www.w3.org/2000/svg"><path transform="translate(377,286)" d="m0 0h18l11 3 9 5 13 12 4 4v2l4 2 4 6 8 7 9 6 19-6 9-1-5-4-6-4 1-2 4-1h14l9 4 2-1-4-6v-2h7l7 3 7 7 3 4 16 3 19 7 15 10h7l14-8 12-6h2v-2l23-12 10-5 15-4 7-1 16 1 18 6 15 11 10 9 8 8 13 17 8 14 6 15 1 5v18l-6 12-8 8-14 11-7 8-8 16-5 14 2 4 9 10 7 12 5 10 4 12 1 1 8-1 5-3v-14l4-8 4-2v2h2l3-12h3l3 7 1 5v12l-3 8-8 7-6 9-5 4-8 4 1 7v34l-2 23v10l2 14 4 14 6 27v19l-3 7-5 6-10 6-16 5-6 1h-22l-12-4-6-4-3-5v-25l-5-13-3-5v-2l-13 4-3 27-3 6-7 6-13 3h-25l-4 12-5 6-12 6-13 3-9 1h-12l-13-2-12-4-10-7-2-3v-10l7-20 1-4 2-24 2-11 1-3-2-1-5 9-6 11-10 23-6 12-3 1-2 4-4 3-3 1h-16l-15-4-5-2h-4l-7 8-10 8-14 8-10 5-9 3-17 3h-22l-21-4-16-7-11-6v-2l-4-2-10-8-10-11-4-6v-2h-2l-7-14-6-18-2-12v-19l4-19 4-11 5-10 8-11 7-8 9-9 10-7 15-8 8-3h3l-5-5-5-6-4-3-16-4-6-7v-9l6-9 5-4 1-11 4-8 6-4h9l8 7 4 9 5 5 18 11 15 5h15l-3-8-1-11-7-1-8-4-7-7-6-12-2-9-4-6-9-7-7-8-4-10-1-5-1-18-3-10-7-11-5-5-5-10-1-3v-14l3-10 7-11 8-10 9-10 13-10 13-8 7-3zm2 6-13 4-12 6-14 11-8 8-10 13-8 16-1 10 3 8 16 22 3 12 1 19 4 11 6 8 11 8 4 8 6 16 4 6 8 5h8l7-15 1-6-2-19v-22l4-18 6-16 9-15 9-11-2-4-11-13-11-14-11-8-8-3-9-1-14 3-14 7-14 11 6-7 11-9 15-7 11-2 10 1 11 4 10 7 7 8 10 13 7 9 8-6 9-7 7-4v-4l-6-4-8-7-9-11-10-10-5-4-10-5-7-2zm287 20-15 3-12 5-16 8-10 6-19 10-17 8-9 8-3 3 6-11-1-3-15-9-12-6-20-5-6-5-7-8h-2l2 12-6-3-4-3-7-2h-6l6 7 1 3-1 1-15 2-12 3-14 7-12 8-12 11-10 12-10 17-5 12-4 21v24l1 15-2 8-6 13-1 11 2 9 2 3 5-1 8-7 9-11 5-4-4 7v3l16 1 9 3 8 6 3 5h-2l-2-4-10-6-10-3h-10l-6 3-2 3v3l12 3 8 6 5 8h-2l-2-4-10-8-5-2-11-1-7 6 5 5 4 6 2 5-3-3-6-8-4-2h-9l-7 1 1 11-5-10-8-3-13-5-13-8-7-5-4 1-1-6-5-10-5-4-7 1-4 5-1 11-3 5-6 5-2 6 1 5 4 3 8 2h13v2l-3 1 2 4 14 12 15 10 19 9 15 5 15 2h27l16-2 15-5 19-9 11-9 5-4 7-9-2-3h-3l1-2h6l5 3 2 4-5-1-4 8-8 18-7 6-2 1h-7l-2-3-4 1 2 4 4 2h9l11-4 10-6 7-3 15-2 20-6 17-8 12-9 8-8 2-5-2-9v-11l1 1 3 10 7 15 4 6 9 8 5 2 8 1 9-3 6-4 5-4 8-10 7-8 8-4 12-4 11-6 7-7 5-7 6-13 8-19 7-9 11-10 9-7 6-7 3-7 1-9-2-11-4-13-7-12-10-14-12-13-11-10-7-5-15-7-13-3zm40 174-9 11-10 7-20 7v2l-4 2-5 5-12 13-8 7-11 3h-8l-13-4-7-6-6-9-3 1-7 8-9 7-11 6-12 5-26 5-9 1-13 8-13 6-9 1-9-3-4-5-8 1-3 2 1 11 1 6h-3l-2 7v6l5 12 3 16v24l-3 17-5 13-1 3 6 5 2 4 1 11 3 1h11l5-3 4-5 8-16 8-18 9-16 1-3-13-10-10-9-11-14-3-5v-2l8 10 9 9 16 12 9 5h2v2l3 1 2-2 4-17 1-9 1 3v18l-6 24-3 31-3 10v4l8 1 3 3 2 4 5-1 7-1 7 4 2 4 1 9 1 1 15-1 9-2 8-5 4-6 1-5 1-25 5-14 7-12 6-9 7-17 2-8v10l-2 9-7 17 1 2 24-1 23-5 1-3-2-6-1-12 4 11 8 14 8 12 2 6 1 17 8 1 5 5 9-3 7 2 4 5 3 7 9-1 14-6 8-7 2-6v-10l-3-17-7-24-2-13v-28l1-10 1-25-2-20-4-17-6-15-8-14-9-12zm60 15-4 7-4-1-2 6v6l3 4 5-2 4-6v-14zm-10 25-9 5-7 1-1 4 1 4 5-1 8-6 4-5zm-262 19-13 10-1 4 2 1 5-3 7-8 1-4zm-160 2-12 4v3l9 8 16-1 5-1 1-3-15-10zm-20 7-12 8-10 8-5 6 15-2 18-1 6-7-1-5-7-7zm42 6v4l5 2 5-2-4-3zm-16 4-11 4-5 6-2 7 4 8 8 5 3 1h9l8-3 5-5 2-5-1-9-4-5-6-3zm31 2-7 3-1 2 2 5 1 9 11 4 23 13 10 9 8 7 8 9 7 9 8 16 4 10 3 12 3-4 4-13 2-12v-15l-3-17-7-18-6-10-8-10-2-2h-23l-19-3-13-4zm77 3-9 3 6 8 3 5h2l1-4v-12zm-141 7-16 3-10 4-6 9-7 14-3 9-2 18 1 18 2 13 7 16 3 3 1-2v-15l4-18 10-24 8-11 7-9 9-9 6-5-2-6-1-7-1-1zm56 12-6 7-2 1 1 5 9 16 5 13 4 10 5 16 4 26v25l-3 18-1 5 8-1 16-6 13-8 9-7 11-11 9-13-1-12-8-24-8-12-6-8-9-10-12-10-12-8-19-10zm-42 6-10 9-9 11-8 13-6 11-6 21-2 14v11l2 10 9 10 7 7 12 8 10 6 10 3 9 3 13 2h15l7-2 4-11 2-12v-25l-4-24-8-26-6-13-8-16-4-6h-15l-7-2-3-2zm314 72-31 1-6 12v6l7 2 4 5 2 7 1 1h14l10-4 3-4 2-13 1-13zm-185 21-5 7v4l12 4 2-2v-6l-4-6zm147 2v9l3 2h6l1-5-3-5-1-1zm83 8-3 3 1 7 9 4 1-1-1-9-5-4zm16 4-4 5-1 5 5 2h12l1-1-1-7-4-4zm-177 5-6 6v5l6 5 3 2 4-1 1-9-3-6zm16 7-5 6-1 5 9 3h10l1-1-1-8-4-5z"/><path transform="translate(665,340)" d="m0 0h18l13 4 14 7 13 10 8 8 12 18-1 3-9-13-7-8-14-11-16-9-10-3h-23l-14 6-12 8-5 4-17 17-8 9-11 8 6 18 2 13v11l-2 13-5 17-3 3 4-22-1-28-6-18-3-5-4-2v-2l12-7 13-12 17-17 17-12 13-6z"/><path transform="translate(412,457)" d="m0 0 6 1 3 4 1 3v8l-3 5-5 3-5-3-3-4-1-9 3-5zm3 5-2 4h4l-1-4z"/><path transform="translate(514,463)" d="m0 0 7 2 5 6 1 3v8l-4 6-3 2h-7l-6-5-2-7 1-10 5-4zm1 7 1 5h3v-5z"/><path transform="translate(434,481)" d="m0 0h12l9 2 5 5-16-4h-14l1-2z"/><path transform="translate(315,488)" d="m0 0h3l1 11-3 5-5 5-3 2-1-4 7-8z"/><path transform="translate(260,550)" d="m0 0 3 1-8 9-6 12-5 15-2-1v-11l4-10 9-12z"/><path transform="translate(281,550)" d="m0 0 2 2-10 8-7 8-5 8-7 19-2 1v-7l2-10 7-13 9-10 5-4z"/></svg>
