<?xml version="1.0" encoding="UTF-8"?>
<svg version="1.1" viewBox="0 0 1024 1024" xmlns="http://www.w3.org/2000/svg"><path transform="translate(312,121)" d="m0 0h10l8 4 6 7 2 5v9l-4 10-7 6-5 1h-10l-8-3-5-6-3-7v-10l4-8 7-6zm2 9-6 4-3 5 1 9 5 5 9 1 6-3 3-6v-6l-4-6-4-3z"/><path transform="translate(238,169)" d="m0 0h11l11 4 7 8 5 10v12l-3 7-4 6-7 6-5 3-4 1h-11l-10-4-8-7-4-8-1-4v-11l4-11 8-8zm2 9-9 4-6 8-1 3v9l4 8 6 5 6 2h7l6-2v-2l4-2 5-6 1-3v-9l-4-8-8-6-4-1z"/><path transform="translate(184,260)" d="m0 0h8l8 4 4 5 2 6-1 9-7 8-9 3-9-2-7-6-2-6v-8l3-6 6-5zm1 9-4 4-1 6 3 5 4 2 5-1 4-3 1-7-4-5-2-1z"/><path transform="translate(525,321)" d="m0 0h29l16 2 17 6 16 8 14 11 1 6-7 12-6 12-6 9-5 11 1 5 5 3 8-1 33-11 14-3 16-2 20-1 18 2 11 2 14 8 7 8 4 9v14l-5 17-9 19 1 4 9 7 14 12 3 2 13-11 14-11 16-13 8-7 16-13 20-16 16-13 10-8h5l3 5 7 25 4 17 6 26 2 17 1 13v11l-2 24-6 26-5 18-4 15-4 12-2 2-7-1-10-9-11-9-10-8-16-13-13-10-15-13-16-13-14-11-10-8-4 1-9 9-14 11-3 1 4 6 8 11 7 15 3 10v12l-3 7-4 6-9 8-16 8-25 7-22 3h-21l-21-3-17-5-14-6-14-9-4-4-28 5-25 3-13 2 2 4 15-2 11-2h7l6 10 13 26 10 19 7 14-1 5-8 6-15 7-6 1h-27l-14-5-6-4-9-7-6-7-17-8-11-10-8-13-5-13-3-19-35-2-36-4-29-6-18-5-13-3-17-6-8-3-12-5-16-8-11-7-14-10-12-12-5-8-4-11v-10l4-14 3-6h2l2-5 10-13 17-17 18-13 19-11 9-4 20-8 25-8 12-3 35-7 28-4 12-1 8-24 7-12 7-9 11-11 6-4 4-4 16-8 13-5 13-3zm3 9-23 4-12 5-17 9-15 13-10 14-8 19 1 4 33 3h21l5-9h5l1 1-1 8 2 1 9 1 21 1 36 5 7-11 9-17 6-10 6-12 3-4-1-4-8-6-11-6-13-5-23-4zm146 68-31 5-24 8-9 4 2 2 21 6 16 5 29 12 24 12 15 9 5 2 4-7 7-16 3-11v-10l-4-8-7-6-13-5-10-2zm-209 12-34 2-25 2v4l7 8 10 14 8 16 5 11 4 20 1 10v12l-3 21-4 16-12 27-9 15-8 12v2l-2 1 1 1 22 2h64l5-2-3-11-3-6-16-8-10-6-1-5 1-2 7 1 9 6 16 8 15 6 9-3 11-8 8-8 6-10 5-12 2-10v-11l-4-16-7-14-2-2-9 1-8 2-15 6-17 9-15 11-4 3v2l-7-1-1-6 4-2 5-4v-2l4-2 4-3 1-20 4-30 2-13 7-25 2-8-1-1zm121 0 2 2v-2zm-81 1-3 7-8 28-1 9-4 26-1 10v10l6-2 16-8 18-6 5-1h9l8 11 6 14 3 14v15l-4 16-8 16-9 11-8 6-10 6-8 3-10-2 1 5 3 5 15-1 26-4 15-2 26-6-1-10-6-23-4-23-1-10v-44l3-23 5-24 3-13-5-2-30-5-36-3zm363 3-5 4v2l-4 2-11 9-16 13-14 11-10 8-5 5-14 11-16 13-10 8-3 6v3l14 11 16 13 9 8 20 16 16 13 14 11 13 11 7 6 3-1 2-7 7-24 4-16 4-25v-32l-3-22-6-26-6-23-2-8zm-481 3-28 6-10 3 6 8 11 16 4 8h2l3 9 4 10 5 20 1 8v22l-3 16-2 9-5 12-9 17-3 4v2l-3 1-4 6 1 3 30 5h6l8-11 10-16 8-16 6-13 6-23 1-6v-28l-4-17-5-14-10-18-18-22-1-1zm209 6-3 9-5 21-3 30v40l1 17 5 25 6 20 1 2 9-1 28-10 16-6 17-8 12-6 18-10 14-9 22-18 10-9 8-8-2-4-11-10-14-11-8-6-18-11-22-11-25-11-32-10-6-2-11-2zm-260 6-17 6-20 8-17 9-13 9-10 8-10 9-7 7-7 9v2h-2l-7 14-2 7v7l3 5 12 6 7 2h8l11-3 10-7 2-3 5 1 1 3-6 8-7 5-9 3-5 1h-12l-6-1 2 4 13 10 9 6 22 11 16 6 17 6 27 7 3-3v-2l4-2 7-10 8-14 3-7 6-19 2-14v-14l-3-19-7-21-6-11-7-11-11-14-4-4zm377 117-9 6-21 12-27 13-22 9-11 3-24 8-9 2-2 3 13 8 15 6 16 4 6 1h36l17-3 16-5 12-4 11-8 6-8v-15l-5-13-7-10-7-9zm-222 68-27 1-9 1 1 10 4 15 6 11 5 6 8 6h2l-3-16v-17l2-6 5-2 16-2 1-2-3-5zm43 10-42 7-5 2-1 1v12l2 10 5 12 5 8 5 5 8 6 6 3 12 3h18l15-4 8-5-2-7h-2l-3-9-19-37-5-7z"/><path transform="translate(195,390)" d="m0 0 10 1 5 4 4 8-1 9-4 6-8 4-9-1-6-4-3-6v-11l4-6 4-3zm2 9-5 3v7l4 4 6-1 3-4-1-5-5-4z"/><path transform="translate(309,475)" d="m0 0h13l12 4 10 7 3 5v6l-1 1h-5l-7-7-10-5-5-1h-8l-10 3-11 10-5-1-2-1 1-6 5-6 12-7z"/><path transform="translate(338,514)" d="m0 0h8l8 6 1 3v8l-4 6-4 3-7 1-6-3-4-4-1-3v-9l5-6zm2 6-5 5 1 6 2 2h7l3-3-1-7-4-3z"/><path transform="translate(156,722)" d="m0 0h5l3 5 4 20 1 9v20l-2 18-5 24-4 18-5 25-1 11v14l2 17v5l42-2 7-1 1-2v-25l-3-19-5-23-6-31-1-9v-30l3-18 4-12h7l1 7-4 17-1 9v24l3 21 6 26 2 12 3 16 1 8v29h100l68 2 50 1 159 7 63 2h131l25-1 4-1 2-14v-21l-3-21-7-31-4-23-1-9v-30l4-25 3-5h5l3 3-1 7-3 14-1 9v24l3 21 3 15 4 19 4 20 1 8v29l-1 10 42-3-3-21v-23l3-20 6-26 2-12 4-18 2-22-1-21-4-20 1-5 2-2 5 1 2 4 4 20 1 11v18l-2 18-5 26-7 30-3 21v16l3 20 1 3h9l36-4h7l2 2v5l-2 2-33 5-65 5-40 2-45 1h-50l-52-1-84-3-69-3-42-1-74-3-76-2h-59l-28 1-3 7-5 1-3-3-1-5-35 2-11 1-5 1-27 1-22 3h-7l-2-2 1-7 27-4 24-3-2-17v-23l3-20 5-23 2-10 5-24 2-21-1-21-4-20v-5z"/></svg>
