<?xml version="1.0" encoding="UTF-8"?>
<svg version="1.1" viewBox="0 0 1024 1024" xmlns="http://www.w3.org/2000/svg"><path transform="translate(509,255)" d="m0 0h6l10 11 5 11 3 10 7-4 5-5 9-6 12-6 6-2 9 1 1 1v23l9-3 10-4 15-4h16l4 4 1 8-4 13-3 8 13-3h21l15 3 3 2-1 9-9 9-1 2h18l14 2 9 3 9 6v7l-9 8-10 7 4 2 7 5v2l4 2 8 7 7 8 4 4 8 13 2 4v8l-1 1h-16l5 4 13 13 7 10 5 7 6 15 3 5 1 12-2 2h-11l-5-1 7 10 9 19 3 6 2 13v13l-2 2-7-1-6-3 3 10 3 16v33l-3 12-5 1-5-2-2-3-2 13-2 15-4 17-6 15-3 4h-7l-4-5v-2h-2l-1 6-8 15-9 11-10 10-13 9-14 7-18 6-9 2-6 11-5 3-3 5-8 6-14 7h-15l-6-4-5-5-2-6-36 4h-46l-28-3-9-1-6 10-8 5h-15l-14-7-9-7-3-3-1-3-5-4-4-8-16-4-18-7-14-9-10-8-9-9-7-10-8-16v-3l-2 1-3 6h-7l-4-4-3-7-5-16-3-14-2-23-4 4-7 1-3-4-2-9v-33l5-24 1-2-8 4-5-1-2-2v-12l1-9 7-16 8-16 4-5-1-1h-14l-2-2 1-12 8-17 5-9 6-7 7-9 4-5 8-6v-1h-14l-3-3 2-8 6-11h2l2-5 10-11 5-5 5-4h2l1-3 7-4 2-1-1-3-14-10-3-3v-7l6-5 17-5 7-1h20l-7-8-4-5-1-5 4-4 12-3h24l12 2-6-20 1-9 4-3h14l17 4 17 7h2l-1-19 3-5 6-1 10 3 13 7 10 7 5 5 4 1 1-7 5-13zm2 6-6 7-6 9-5 19h-4l-11-11-11-8-16-7-4 1-1 1v13l1 13-2 1-8-4-6-4-14-5-14-2h-11l-1 3 2 9 8 16v5l-25-4h-11l-15 2-3 2 2 4 15 15v1h-25l-16 3-14 5v5l11 9 8 6v3l-14 9-10 9-11 11-8 13-2 3v3h10l8-1h6v4l-12 9-12 11-9 13-8 13-4 10-1 10 17-3 6-1-2 5-7 9-8 12-5 10-5 17-2 11 7-1 12-6 1 2-9 26-2 12v25l3 9 4-1 7-8 5-1v28l1 11 5 20 5 10h4l6-12 3 3 5 16 9 16 11 12 7 6 13 8 13 6 8 3 8 1v-3l-13-12-6-7-7-10-2-1-11-23-6-15-7-30-1-7v-60l4-24 5-21 4-13 7-19 11-22v-2h2l2-4v-4l-12-7-6-7-5-11v-13l5-13-2-4-9-8-2-4v-6h18l5 1 1 2-12-3h-7l-3 4 3 5 8 7h5l5-4 11-4h17l12 5 5 4 7 10 6-2 17-8 14-5h33l17 6 8 5 7 5 5-1 14-9 17-6h31l16 5 17 8 5 2 5-5 8-9 12-5h17l12 5 4 3 6-1 7-6 3-7-2-2h-9l-11 3 1-2 5-1h18l-1 8-7 8-5 5 3 9 1 2v18l-6 12-7 6-9 5 1 5 12 23 5 13 6 16 5 19 6 33v59l-4 22-5 19-6 15-7 14-10 14-11 13-5 5-5 4v2h8l15-6 16-9 10-8 9-9 9-14 5-13 3-10h3l6 12 5-5 6-18 2-8 1-39 5 1 8 9 4-1 2-8v-25l-3-15-9-25 11 4 7 4 3-1-2-12-8-24h-2l-2-5-8-12-7-8v-3l15 3h9l-3-12-7-14-7-11-11-12-10-10-10-7 1-3h10l5 1h8l-1-5-6-11-11-12-10-10-11-7-5-3 1-5 11-7 8-7-1-4-6-2-16-5-11-1h-22l1-3 8-7 8-8v-3l-7-2-10-1h-10l-22 3-5 1 1-7 9-19 1-5-2-2-21 1-13 4-13 7-7 3-1-1 1-13v-13l-2-2-6 1-14 7-12 9-8 8-1 2-4-1-4-16-9-15-4-4zm-143 130-9 4-11 11-3 10v12l4 9 8 8h2v2l4 2h6v-6l-10-9v-17l4-6 9-5h10l10 4 4 4h5l2-2-1-6-13-13-6-2zm273 0-8 4-10 10-2 3 1 5 1 1 7-1 5-5 6-2h11l8 6 5 5v15l-4 6-6 5v5l1 1h5l9-7 4-5 3-3 2-9v-11l-4-10-4-3h-2l-2-5-7-4-5-1zm-186 4-17 4-16 6-11 7-16 13-13 13-6 9-4 4-4 6-3 6-8 14-5 12-6 15-5 17-4 15-3 17-2 23v32l2 22 5 23 6 17 8 16 10 16 6 7 15 15 6 5 3 8 9 12 10 9 8 4 5 2h13l7-5v-11l-6-8-11-10-8-5-9-3v-2l16 6 9 5 4 4h2l2 4 6 9 22 3 23 2h31l34-3 13-2 7-8 3-4v-2l4-2 10-6 14-5 2 1-10 3-11 8-2 4-4 2-5 6-2 4v9l7 6h13l13-6 11-10 10-14 2-8 5-2 4-4v-2l4-2 7-7 8-10 10-17 6-12 7-20 4-20 2-24v-28l-2-25-4-21-5-17-8-24-11-24-5-5-3-7-4-7-5-5-8-10-12-12-9-7-16-10-21-7-10-2h-16l-13 3-14 6-12 9-5-1-12-9-20-7-6-1zm-82 13-9 5-4 7v11l7 9 3 2 4-1 8-8 7-8 5-5v-5l-11-7zm269 0-9 4-3 4 1 5 12 12 7 8 4 1 8-8 2-4v-10l-5-8-7-4z"/><path transform="translate(469,303)" d="m0 0h6l7 7 4 10v4h-4l-6-12-2-3h-3l-3 18h-3l-1-1v-15z"/><path transform="translate(548,303)" d="m0 0h7l4 5 1 3v16h-4l-2-15-1-4-5 4-5 8-2 5h-3l1-8 5-10z"/><path transform="translate(459,334)" d="m0 0h7l10 9 3 5v5h-4l-5-9-4-4-4-1v20h-4l-2-5v-16z"/><path transform="translate(557,334)" d="m0 0h8l3 3 1 5-1 13-3 5h-3l1-9v-12l-4 1-7 8-4 6-3-1 1-7 8-10z"/><path transform="translate(621,349)" d="m0 0 5 1 3 2v9l-5 10-5 6-2-1 1-6 4-9 2-6-11 4-6 4-5-1 4-5 7-5z"/><path transform="translate(383,350)" d="m0 0h9l13 7 3 3-1 3-5-1-9-5-6-1 3 9 3 6 1 5h-3l-7-8-3-7v-9z"/><path transform="translate(522,357)" d="m0 0h6l5 10v13l-4-1-2-15-2-2-3 1-4 8-2 7-5 1 1-9 6-9z"/><path transform="translate(442,361)" d="m0 0 7 1v2l4 2 6 5 3 5v4l-5-1-9-10-4-1 1 19h-4l-3-8v-13z"/><path transform="translate(522,437)" d="m0 0h5l4 4v5l-5 7 16 3 2 3-1 8 4 5 3 3 5 13v19l-5 13-8 10-5 4-6 12-9 8-5 2v3h7l13-3h3l1-4 7 1 4 5-2 4-3-2-1 5-6 11-9 8-10 4-12 1-14-3-8-6-6-7-5-12-3 1-1-3 4-5 6-1 3 3 12 3h11v-2l-10-6-8-9-5-10-9-9-4-8-3-9v-17l4-12 2-4h2l2-4 8-7 8-4v-7l2-2 10 1 6 1 6-11zm1 5-5 6-2 10-5-2-7-2v3 2l-7 3 1 2 10 1v7l5 1 3-4 7 1 5 2h4l-2-8 7-2-1-3-6-1h-9l-2 1 5-10 3-4-1-3zm-34 24-11 11-4 8-1 4v15l2 9 10 13 2 2 7-1 11-4h14l11 4 4 2 5-3 8-10 3-6 1-5v-16l-4-10-8-9h-2l-2 3h-10l-2-1h-6l-3 3-6 1-2-7-6-2zm14 62 1 5 1 1h14l2-2v-4zm-2 45-8 3 1 4 11 4h13l10-4 2-1-2-4-7-2z"/><path transform="translate(427,447)" d="m0 0h10l3 4-2 4-8 3-9 3-4 1-1-3 5-8z"/><path transform="translate(588,447)" d="m0 0h8l7 4 4 6v5l-5-1-15-6-2-5z"/><path transform="translate(306,449)" d="m0 0h22l3 2-1 3h-19l-1 2 4 5 10 6v4l-7-2-9-6-4-5v-7z"/><path transform="translate(695,449)" d="m0 0h23l2 2v7l-6 7-7 5-6 1-1-4 9-6 5-4-1-3h-19v-4z"/><path transform="translate(489,471)" d="m0 0h9l2 2v11h-2l-2 4-4 4h-6l-5-5 1-8zm2 3-7 6v7l4 1 5-2 3-3 1-8-1-1z"/><path transform="translate(428,478)" d="m0 0h12l10 6 4 5 3 7v9l-4 10-7 8-2 2-7-1-18-4-5-4-3-8v-9l2-8 4-6 9-6zm2 4-7 3-6 7-2 4v13l5 9 5-1-1-3v-18l4-5 5-3h14l1-2-5-3-4-1zm10 12-2 2v5l2 2h5l3-5-1-3z"/><path transform="translate(584,478)" d="m0 0h12l11 7 3 5 3 9v9l-4 9-3 3-19 4h-8l-7-7-5-11v-10l4-9 7-6zm1 4-7 3-2 2 2 1h13l7 5 2 3v17l-1 3 2 2 4-1 4-8v-13l-6-9-5-4-4-1zm-7 13-2 5 3 3 6-1 1-1v-5l-1-1z"/><path transform="translate(303,495)" d="m0 0h14v3l-19 4 2 4 16 6v4l-4 1-10-3-9-6-1-6 7-6z"/><path transform="translate(706,495)" d="m0 0h15l7 3 4 4-1 6-9 6-12 3-3-2 1-3 13-4 5-3v-2l-9-3-9-2z"/><path transform="translate(403,524)" d="m0 0h17l10 4 5 4 3 7-1 7-7 6-5 1h-13l-9-3-8-7-2-2-1-8 5-6zm-1 4-5 4-1 5 2 5 7 6 7 2h12l7-3 3-4v-6l-9-8-3-1z"/><path transform="translate(604,524)" d="m0 0h17l8 5 3 4-1 7-7 9-11 4h-14l-8-3-4-4-1-7 5-9 10-5zm-1 4-8 4-5 6 2 7 6 5h13l9-3 7-6 1-5-3-7-3-1z"/><path transform="translate(725,544)" d="m0 0 9 3 11 7 1 7-6 5h-19l-2-1 1-4h16l3-1-2-5-13-7z"/><path transform="translate(294,545)" d="m0 0h5v4l-10 5-4 3 1 4 18 1 1 3-2 1h-18l-6-3-1-5 3-5 9-6z"/><path transform="translate(305,592)" d="m0 0h3l-1 5-6 5-4 6-1 3 16-2h6l-2 4-9 3h-14l-2-2v-8l11-12z"/><path transform="translate(715,592)" d="m0 0 5 1 8 6 5 7 1 6-4 4h-13l-10-4-1-3 11 1 10 1-3-7-5-5-5-4z"/><path transform="translate(523,596)" d="m0 0h2l-2 4-8 3h-8l-6-3-1-2h15z"/></svg>
