<?xml version="1.0" encoding="UTF-8"?>
<svg version="1.1" viewBox="0 0 1024 1024" xmlns="http://www.w3.org/2000/svg"><path transform="translate(509,233)" d="m0 0h6l5 5 5 6 5 10 5 13v2l11-9 9-7 11-6 14-5 5 1 3 3v19l-1 7 14-7 21-6 8-1h12l5 4 1 7-5 16-4 8 21-3h12l16 2 7 3 2 2-1 7-11 11-1 2h16l17 3 11 3 8 4 3 3v6l-5 5-10 8-4 3h-2v3l6 2 13 10 13 13 10 14 6 11v7l-2 2h-13l-4-1v2l4 2 16 16 10 15v2h2l11 25 1 10-3 3h-8l-10-2 6 8 8 14 7 16 3 13 1 5v10l-3 3-6-1-9-4 4 10 4 23v29l-3 15-2 2-7-1-6-6-3 31-5 21-8 18-2 2h-6l-5-7v-2h-2l-1 6-7 14-8 11-9 10-12 10-13 8-12 5-15 5-12 3-7 12-3 3h-2l-2 4-9 8-12 6-6 2h-14l-7-4-6-7-1-6-24 3-23 2h-36l-25-2-23-3-4 9-5 5-6 3h-14l-13-5-13-9-4-5v-2l-4-2-5-9-2-3-22-6-15-6-10-6-11-8-10-9-9-11-4-7v-2h-2l-6-14v-3h-2l-2 6-3 3h-6l-5-8-5-12-5-21-2-17v-14l-7 6-7 1-3-5-2-12v-29l4-23 4-10-11 5-5-1-2-3v-8l2-12 6-16 8-16 8-12-8 1h-9l-3-3 1-10 9-21 7-11 9-12 7-8 8-7 3-1v-2l-4 1h-13l-3-4 2-7 8-14 9-11 8-9 16-12 6-2-1-3-14-10-5-4-1-2v-6l5-5 13-4 12-3 8-1h17l-7-8-6-6-1-4 4-5 11-3 8-1h16l14 2 6 1-6-13-3-11 1-7 5-4h12l16 3 15 5 12 6-2-21 2-6 5-3 13 4 8 4 14 9 10 9 2 1 3-10 6-14 9-11zm2 6-6 7-7 12-6 21-4-1-9-10-10-8-10-6-13-5-5 1v12l2 14v5l-5-1-14-8-16-6-16-2h-9l-1 1 1 9 11 24v3l-7-1-10-2-16-2-19 1-9 3 6 7 14 14-1 2-24-1-15 2-14 4-8 4 2 4 7 5 4 4 10 7v4l-10 5-12 9-15 15-10 15-3 6v2h8l14-2h5l1 4-10 7-14 12-9 11-9 14-8 16-2 8v5l11-2 10-3h5l-1 4-7 8-11 17-6 12-3 10-4 18 1 2 5-2 12-7 5-1-4 11-6 18-3 18v22l2 13h4l9-11 6-1-1 23 1 18 6 23 5 12 3 2 8-16 2 1 7 20 8 15 9 11 7 7 14 10 16 8 13 5 9 1-1-3-11-9-9-10-9-13h-2l-2-5-12-24-6-18-6-25-2-14v-58l4-26 7-28 3-11 12-30 13-24 1-2-11-6-8-7-7-13-1-5v-9l3-10 4-8-12-10-4-7v-5l3-2h15l9 2 1 3-15-3h-7l-2 2 1 5 8 8 5 3 4-2 5-4 13-5h15l13 5 8 7 7 10 4-1 8-5 23-9 8-2h32l18 6 12 7 7 6 4-2 13-9 15-6 7-2h31l15 4 19 8 7 5 4-1 8-11 8-6 11-4h15l13 5 8 6 7-4 7-8 1-5-1-1h-9l-14 3 1-3 8-2h16l3 3-1 6-6 8-9 7 6 14v16l-4 10-6 8-10 7-6 3 16 30 5 14 4 10 4 11 2 10 6 26 3 20v58l-4 24-5 18-6 18-8 16-5 8v2h-2l-7 10-12 14-11 9v1h9l18-7 14-8 13-10 8-8 10-14 6-13 5-16h3l7 15 4-4 8-24 2-9v-41h4l5 4 7 9 3-1 2-13v-22l-3-18-10-29 9 3 11 7 3-1-3-16-4-12-5-12-7-10-6-9-7-8v-4l12 3 11 3 4-1-3-12-8-16-9-14-11-12-9-9-13-9v-4h8l13 2h7l-2-6-9-14-9-10-10-10-17-11-3-1 1-5 11-8 11-9v-2l-11-5-16-4-18-1-17 1 1-4 8-7 11-11-1-2-9-2-16-1-26 3-9 2 1-5 11-25 1-5-3-2-20 1-13 4-16 8-6 4h-4l1-12 1-7v-12l-5-1-13 5-11 7-9 7-10 11h-3l-5-18-5-10-6-9-3-3zm-152 141-12 4-12 12-3 7-1 4v13l4 11 7 7 8 5 6 1 1-1v-5l-8-6-3-4-1-4v-14l5-8 8-5 4-1h7l11 4 8 7 5-3 1-3-5-8-10-9-11-4zm296 0-10 4-11 10-4 7 2 4 5 1 8-7 9-3h8l7 3 8 7 2 5v12l-3 8-7 6-2 1v5l4 1 11-6 8-9 3-10v-12l-3-10-4-5h-2l-1-3-8-6-10-3zm-202 5-17 3-16 5-20 12-10 8-10 9-10 11-13 18-3 6v2h-2l-8 16-8 17-11 34-3 14-4 25-2 22v24l2 22 4 22 3 12 4 12 5 12 6 11 11 17 11 13 12 11 5 4 4 10 10 13 9 8 8 5 10 3h11l7-4 1-2v-10l-4-8-7-6-5-5-8-5-12-6h-2v-2l12 3 15 8 8 7 8 12 8 2 31 3 21 1h17l31-2 26-3 5-5 6-9 10-8 15-7 9-2v2l-9 3-14 8-3 3v2l-4 2-6 7-2 6v8l4 5 5 2h11l13-5 13-11 11-15 4-9 10-9 8-7 9-11 9-14 6-10 8-19 5-15 5-28 2-23v-20l-2-25-4-25-4-17-11-33-11-24-4-7h-2l-2-5-6-10-9-12-14-15-12-10-13-8-10-6-16-5-16-3h-13l-15 3-13 5-13 9-5 4-4-2-14-10-12-5-11-3-7-1zm-91 14-10 5-4 6-1 3v10l6 9 7 5 5-5 13-15 7-6-2-5-10-6-3-1zm292 0-10 4-5 6 1 3 8 7 12 14 4 4 10-9 3-5v-10l-4-8-8-5-3-1z"/><path transform="translate(465,285)" d="m0 0h7l7 8 4 8 1 7h-4l-4-9-6-9h-3l-2 7-1 15-4-1v-17l4-8z"/><path transform="translate(552,285)" d="m0 0h7l4 6 1 5v15l-4 1-1-16-3-7-5 5-5 8-3 7-3-1 1-7 5-10 5-5z"/><path transform="translate(456,318)" d="m0 0h6v2l4 2 5 4 5 9-1 5-3-1-4-8-5-6-5-2h-1v16l1 7h-4l-3-8v-14l3-5z"/><path transform="translate(563,318)" d="m0 0h6l4 5 1 9-2 11-3 4-3-1 2-12v-12l-5 2-8 9-4 7-3-1 1-6 6-9z"/><path transform="translate(373,336)" d="m0 0h8l12 6 6 5-1 3-5-1-8-5-6-3h-4l1 6 6 12 2 2-1 4-3-1-3-4v-2h-2l-5-11v-8z"/><path transform="translate(632,335)" d="m0 0 5 2 2 2v7l-4 10-6 9-3-1 1-5 5-9 2-9-6 1-11 6-5 3-2-3 11-9z"/><path transform="translate(524,343)" d="m0 0 6 1 4 9 1 4v12h-4l-1-5-1-11-1-5-5 1-5 9-3 9-4 1 1-9 6-11z"/><path transform="translate(437,348)" d="m0 0 5 1 8 6 7 9 1 4-3 1-5-5-7-8-6-3 1 18 1 6h-3l-3-7-1-4v-12l3-5z"/><path transform="translate(523,431)" d="m0 0h5l5 5v3l-8 10h7l14 3 1 5-3 3 2 4 6 7 6 13 1 5v15l-5 14-6 9-7 7-3 2-4 11-4 5-9 6-5 2v8l6 5h8l5-3 4-2v4l-4 4-8 3-8-1-5-3-5 1-8 3-10-2-5-4-2-5h3l5 4 3 1h7l5-3 2-4v-5l-11-6-7-6-4-8-2-6-10-9-5-8-5-15v-14l3-10 6-11 7-7 14-8-1-9 11 1 5 2h4l4-11zm1 5-5 6-2 9v4l-8-5-8-1 3 4v2l-9 3 1 2h13l-1 10 3 1 5-5 2-3 4 2 10 4 3-1-4-6-2-2 10-2 1-3-11-2h-6l-5 3 7-14 3-3-1-3zm-37 26-12 12-4 10-1 6v12l2 10 7 11 8 7 4-1 7-4 9-2h11l10 3 6 4 5-1 9-10 4-7 2-9v-14l-2-9-6-9-7-6-1 6h-11l-6-3h-3l-5 5-6 1-2-9-1-1zm16 67-2 2 1 4 3 1h14l4-2-1-4-1-1z"/><path transform="translate(422,441)" d="m0 0h7l4 4 1 3-3 2-14 4-8 5-1-4 4-8 7-5z"/><path transform="translate(596,441)" d="m0 0h6l8 5 4 5 2 7h-3l-12-6-9-3-1-4z"/><path transform="translate(291,443)" d="m0 0h17l7 3v3l-20-1-4 1 1 4 7 6 10 5-1 3-6-1-11-7-4-5-1-2v-6z"/><path transform="translate(717,443)" d="m0 0h16l5 3v6l-4 6-11 8-7 1v-4l10-5 7-6v-3l-5-1-19 1 1-4z"/><path transform="translate(489,467)" d="m0 0h6l4 4v9l-5 7-6 3-6-1-4-5 1-7 4-6zm0 4-6 5-1 2v7l1 1 7-1 5-5 1-7-1-2z"/><path transform="translate(423,475)" d="m0 0h9l7 3 7 5 4 7 2 8-1 10-5 10-9 8-28-6-4-5-3-10 1-12 4-8 8-7zm1 4-9 4-6 7-2 5v13l5 10h6v-2h-2l-1-6v-14l4-6 6-4 3-1h8l7 2-2-4-10-4zm11 13-3 2v6l4 3 5-2 1-6-1-2z"/><path transform="translate(592,475)" d="m0 0h9l9 4 6 5 5 10 1 11-3 10-4 5-24 5h-5l-8-7-5-10-1-4v-7l3-10 4-5 9-6zm1 4-8 3-3 2v2l5-1h9l8 4 5 7v16l-2 3v3h5l5-10v-13l-5-9-5-4-7-3zm-10 14-1 6 4 4 5-2 1-1v-6l-1-1z"/><path transform="translate(290,493)" d="m0 0h11v3l-18 4-5 3 4 4 11 4 7 2-1 4-8-1-11-4-6-4-1-7 6-5z"/><path transform="translate(723,493)" d="m0 0h10l12 3 6 5-1 7-8 5-14 4-4-2 1-3 13-3 8-5 1-2-9-3-15-3z"/><path transform="translate(396,525)" d="m0 0h14l11 4 7 6 3 6-2 9-5 4-9 3h-9l-10-3-6-3-7-8-1-7 4-7zm-2 4-6 4-2 4 1 5 6 7 6 3 7 1h10l7-2 4-5v-7l-8-7-6-3z"/><path transform="translate(615,525)" d="m0 0h13l10 4 4 7-1 6-4 6-4 4-14 5h-10l-11-4-4-5-1-6 4-8 8-6zm-4 4-9 5-5 6 1 7 5 5 4 1h12l8-2 6-4 5-6-1-7-4-4-3-1z"/><path transform="translate(742,547)" d="m0 0 6 1 11 6 5 4 2 3v5l-5 4-3 1h-17l-5-2 2-4 7 1h8l8-1-2-5-9-6-8-3z"/><path transform="translate(276,548)" d="m0 0h6l-1 4-9 3-8 6-1 4 6 1h17l2 3-4 2h-18l-6-3-2-2 1-6 4-5z"/><path transform="translate(288,599)" d="m0 0 3 1-2 4-10 9-2 4v3h10l10-3h4l-1 4-13 4h-12l-3-3v-7l6-8 8-7z"/><path transform="translate(733,599)" d="m0 0 4 1 9 7 6 8 1 6-5 4h-11l-13-4-1-4 6 1 7 2h11l-1-5-4-5-10-8z"/></svg>
