<?xml version="1.0" encoding="UTF-8"?>
<svg version="1.1" viewBox="0 0 1408 768" xmlns="http://www.w3.org/2000/svg"><path transform="translate(384,59)" d="m0 0h19l7 5 7 15 4 16v20l-3 12-3 7h15l13 3 6-19 3-6 3-7 8-10 11-9 9-5 13-6 15-4h10l9 3 5 5 4 6 2 7v14l-4 15-7 14-10 13-16 12-10 4-13 4 4 5 7 18 5 12 4 9 9 11 12 8h18l11-3 16-10 8-6 7-4 16-12 14-10 10-5 14-8 13-6 8-4 19-5 23-5 9-1h30l19 3 21 5 11 3 16 8 9 4 12 8 9 7 10 9 10 7 11 7 15 13 10 8 15 14 10 8 8 8 8 6 13 11 11 7 10 7 13 7 12 6 20 7 17 4 7 1h26l16-3 17-6 9-4 16-9 9-6 13-11 8-8 6-7 8-7 14-15 5-3 14-10 20-7h8l8 4 3 4-1 9-8 9-10 8-10 14-2 4h-2l-2 5-7 12-5 10-8 10-5 9-6 8-3 5-5 5-5 6h-2l-2 4-5 6-8 6-11 10-6 5-10 5-7 5-17 8-7 4-20 7-17 4-11 2-16 1h-39l-26-3-24-6-15-4-11-4-11-5-10-4-6-3-5 1-3 6-3 10v12l4 11 6 8 11 8 9 6 11 4 7 2 13 5 8 6 6 8 4 10 5 12 7 17 6 11 7 11 14 15 22 12 10 9 6 10 2 10-1 10-4 10-8 6-5 2-10 1-10-2-9-3-14-6-8-6-10-9-6-8v-2h-2l-6-9-4-8-12-21-8-15-6-10-2-4h-2l-7-9-11-9-12-5-10-3 6 12 5 12 3 9 3 5 4 10 6 10 8 11 7 7 18 12 8 8 3 6 3 9v7l-3 10-7 7-6 3-4 1h-10l-9-2-16-7-14-11-9-11-1-3-4-4-9-16-5-11v-2h-2l-8-16-6-9-4-7-5-5-8-6-14-6-14-4-10-2-13-1-9-1-9 3-16 4-1 1-16 2h-21l-20-3-10-3-9-3-14-7-8-5-9-5-5-3-10-5-7-8-6-12-3-11-1-8v-16l-12-6-8-5-5 1-6 6-9 3-8 4h-9l-7-3-14-14-2-6v-12l-29-2h-9l3 5 1 4v8l-2 5-8 7-5 5-5 2h-11l-14-7-5-6-3-7v-19l4-13 2-4 5-5 12-8 9-2 27-3 1-3-4-19-8-13-12-18-5-3-9-7-2-1h-7l-11 4-9 7-10 7-9 4h-19l-8-6-4-7-2-16-14-3-15-2-6-4-7-8-4-8-1-14 2-7 4-5 11-8 10-2 2-5 4-11 4-20 3-10 6-9 7-8 11-8 4-3-1-4-6-9-5-14-1-6v-10l2-10 5-12 8-11 7-7zm6 5-12 8-8 10-3 4-4 13-1 10 2 11 5 13 2 4 5 5 4-1 17-4 9-2 3-3 3-8 2-8v-20l-2-9-4-13-7-9-2-1zm119 14-9 3-7 2-12 6-13 10-4 5v2l-3 1-7 16-6 18-5 9-2-1 1-6-8-3-6-1h-20l-17 4-18 8-10 7-7 6-2 4 5 3-3 2-8 4-4 6v6h8l6 4v11l-3 5-8 7-9 5-8 3-8 4v2l16 2 6 3 2 4-1 6-5 5-10 6-5 2-1 2 4 8 5 4 5 2h19l10-3 11-6 8-6 10-9-1-4-2-1 1-1h7l7 4 1 3-5-2-2 5-1 7-3 7-4 10-3 4-4 7-7 6-6 2-9-1-4-4-3-12-3 1 2 16 5 5 6 3h7l13-5 13-10 4-3v-2l7-2 2 1 20-7 7-2 14-7 11-10 6-9 3-7 2-17 2 3v14l-3 11-4 5-2 4-3 2v2l10 8 8 9 9 11 12 13 5 5 17 13 11 6h2l-1-4-3-3-3-8-1-9 2 3 6 12 9 10 13 8 9-1h11l-6 2-11 3-11 5-12 4-11 3-14 7-10 10-7 15-1 5v10l2 5h3l2-12 3-2-2 7v8l3 8 3 3 3 1h9l3-2-1-4-3-4-1-3v-10h1l2 11 3 4 4 2 6-1 5-6 1-7-2-6 1-5 3-7 1-7-1-5 3 4 15-1 20-2 21-5 7-4 8-9 1-3v-7l-5-13-9-14-6-9-5-6 4 2 10 9 4 5 6 8 4 7 2 9v13l-1 2 15 3 10 1 21-1 17-3 2-2 1-18 3-12 6-14 6-9 2-6h2l5-8 13-13 8-6 6-4 1 1-10 9-11 12-4 4-4 7-7 12-6 14-4 12-2 12v19l3 16 7 18 6 8 4 8 5 6 8 7 10 9 10 6 17 9 13 5 8 3 21 7 16 4 27 7 16 5 12 6 9 6 8 7 10 14 7 12 4 7 10 19 6 11 2 3h2l1 4 6 9 14 14 13 8 5 1-2-4-8-8h3l5 5 9 7 7 3h13l7-4 3-6-1-1-12-1-7-3-8-5-5-7 5 3 8 6 9 4h10l2-2v-8l-3-8-9-10-8-6-10-5-6-4-12-11-10-14-3-5-8-16-3-5-3-10-5-13-6-10-7-6-12-4-12-3-9-4-11-7-8-7-8-11-4-11-1-11 4-16 4-9 7-14 4-10 4-11 4-20 1-8v-23l-1-6h2l1 4 2 14v19l-1 14 6 5 7 3 9 6 12 6 17 8 24 8 16 4 20 2 21 1 19-1 16-1 21-6 23-8 14-8 8-4 14-10 11-9 16-16 5-4 9-13 4-4 4-5 3-5 7-9 9-14 12-14 7-7 5-3 1-1v-5l-3-3h-10l-7 2-14 7-11 9-6 5-7 6-7 8-6 7-5 3-7 8-12 11-11 7-10 6-11 5-15 6-17 4-26 1-23-2-18-5-12-5-9-4-14-7-10-7-9-5-16-12-10-9-7-6-8-7-11-10-11-9-8-8-6-4-3-3h-2l1 4 9 17 2 6-4-4-5-9h-2l-2-6-7-8-9-11-17-17-7-4-8-6-9-5-18-9-9-3-8-3-11-3-20-3h-38l-24 4-10 3-7 3-16 6-15 8-10 5-11 7-11 8-11 7-13 10-16 10-13 6-4 2 1 1h9l-4 2h-17l-10-3-16-10-7-7-6-11-5-10-6-17-8-14h-8l2-3 18-5 13-5 11-8 5-4 7-9 7-12 4-13 1-7v-8l-2-8-2-5-7-4zm-161 113-4 2-3 9v6h3l1-7 3-4 7-2-2-4zm-9 21-1 3h3l-1-3zm-22 21-5 2-3 7 5 8 3 3 10 1 5-2 10-7 1-7-7-4-3-1zm-8 18-1 2 6 12 8 6h2l1-3-2-3-2-6-2-3zm86 5-6 7-11 8-12 5-4 2v10l3-1 4-6 6-5 8-3 9-2 5-13zm69 12-6 5-9 4-10 4-4 2 4 5 8 7 11 14 6 10 7 10 6 9 3 4h2l2 4 11 12 11 8 7-6 15-8 10-4 14-4v-4l-16-8-7-4-14-10-8-8-6-4-9-11-6-8h-2l-2-4-8-9-8-6zm-80 7-8 3-9 9v6l1 1 8-1 8-6 5-7 1-5zm787 37-6 7-5 5-13 12-10 8-10 7-11 7-12 6-9 4-22 9-15 2-16 3-9 1h-29l-37-6-11-3-7-3-20-7-15-8-10-5-14-9h-3l-4 11-4 12-4 7-1 4 5 3 16 7 8 4 9 2 19 7 39 7 20 2h20l18-2 27-5 19-7 10-4 8-3 11-7 9-5 13-10 9-7 10-9 4-4v-2l3-1 6-8 4-4 9-12 2-6zm-698 33 2 6v4l-6 2-25 3-9 2-10 6-7 8-4 10-1 4v14l3 7h2l1-10 2-1 1 11 4 6 8 4 6-1 2-4-9-8-2-8 2 2 2 5 5 5h9l5-6v-7l-5-8-1-4 1-11 3 3 1 4 17 1 11 2h14l3-5 4-8-1-4-6-4-7-6-4-5-9-9zm153 14-5 6-10 6-13 5-5 1-36 2-4 2-3 14 3 9 5 4 14 8 11 5h5l1-7-7-5-5-10-1-10 3-4 9 1 10 6 8 10 14-1 3-13 6-8 9-5h7l4 4 1 4v16l-4 9-7 5 5 12 4 4 2 1h7l8-9 7-13 6-12 6-14 6-18v-4l-9 1-14 2h-18l-14-2zm65 18-9 23-4 6-6 11-5 9-4 6-7 7-7 8-4 5v4h-2l-1 4-6 4h-7l-2-1h-7l-6 3-2 4-5 2-7-1-3-2-4-9-4-5h-2l-1-4h3l2 4 3 3 3-1-2-4-5-3-3-4v-7l1-1v-8l-6-4-2 1 1 18 2 9 4 10 7 9 12 8 8 3 7 6 15 7 12 5 16 3 7 1h29l19-2 17-6 10-5 11-6 13-10 7-7 3-5-12-5-11-5-11-6-9-6-13-10-9-9-4-7-3-4h-2l-2-6-7-14-3-11-1-5zm-53 1-8 5-4 7-3 17h-2l-2-3-10 1-14 8-2 5 2 1v3l-5 5 4 1 5 1 1 5h-2l-1 3 6 3-1 4-2 5 5 1 7-4v-5l3 2-4 10v2l6-2 9-4 4-3 3-1h11l5-3 3-5-1-4-6-2-4-4-4-10-2-4 6-5 5-6v-4h2v-14l-3-5-1-1zm-58 10v9l5 10 5 4 5-1 7-6-4-8-7-6zm12 45-1 5 4-2zm3 8v4l4-1 1-3zm-4 5 4 4h2l-1-3zm42 1-5 4-1 7 3 1 2-1 1 4h2l1-4-1-2 5 2 1-1v-9l-1-1zm-13 7-4 4h6l2-3zm-21 4-1 1v5l5 1 1 3 3-1 4-2 1-1v-5l-2-1zm186 10-4 5v2l-4 2-11 10-7 5-5 3v3l28 6 10 2 10 5 10 7 7 9 8 13 5 9h2l1 4 13 26 7 11 9 11 5 6 12 8 3-1-7-10h2l1 3 11 9 6 3 11 1 9-3 2-2v-5l-11-1-12-6-7-8 13 10 8 2h10l2-2v-8l-6-11-8-8-13-8-8-6-6-7-5-9-4-4-5-11-6-16-4-10-7-14-5-7-9-5-14-3-34-10z"/><path transform="translate(509,87)" d="m0 0h6v2l-14 4-10 5-11 10-4 8-3 12-3 14-4 10 17-2 9-4 5-2-2 4-5 3-16 5-14 1v-4l3-4 3-10 5-22 6-11 7-8 11-7 8-3z"/><path transform="translate(409,165)" d="m0 0h9l6 4 4 6v4l-5-2-4-3-6-2-7-1v-4z"/><path transform="translate(403,192)" d="m0 0h2l-1 3-4 4-4 7-2-2 3-7z"/><path transform="translate(411,203)" d="m0 0 10 1 6 3 3 1-2 4-10-2h-9l-12 5-4-1 5-6z"/><path transform="translate(636,380)" d="m0 0h2l-6 12v14l6-4h3l-6 7-5 1-2-2v-16l4-8z"/><path transform="translate(615,424)" d="m0 0 7 1 1 5-4 3-4-1-2-2 1-5z"/><path transform="translate(399,575)" d="m0 0h7l4 6v4l4-2h11l3 2v8l-5 4 2 4 3 5-2 5-3 2-9-1-3-1v7l-4 5-2 1h-6l-5-5h-2l-3 7-5 19-1 10 5-5 7-8 10-6 4-2h5l1 1-1 7-5 10-11 11-10 7h-5v7h-3l-3-3-6-12-14-19-7-6-7-8-9-8-9-5-1 1 11 14 7 9 3 5 6 11 2 6h2l4 8v5l-6-2-7-6-10-6-11-5-3-1 5 5 6 5 7 8 6 7-1 3-5-2h-22l-18 2-13 3h-6l4-2 16-4 21-3 15-1-12-13-11-9v-3l12 1 10 4 15 9-8-16-12-17-6-8-5-5-8-10-1-2h7l14 9 11 8 10 9 7 8 2 2-1-7v-9h2l3 13 2 5v2l4 2 4 5h2l-3-14-7-12-3-3h-4v-5h4l7 7 5 9 3 6h1l4-16 5-14-2 1h-9l-3-3 1-6 6-8-4-2-1-1v-6l3-3h13l3-7zm0 3-2 5v7l-7-3h-8l-1 1v5l2 2 7 2 1 2-5 1-6 5-1 4 1 1h9l8-4-1 5v6l3 4h6l3-4v-10l5 2h10l2-3-5-6-5-1 1-2 7-3 2-2v-5l-3-2-7 1-8 5 1 3 2 1v6l-5 4-7-1-3-4 1-5 3-3 7-2 1-1v-7l-2-4zm1 16-3 2 1 5 2 2h6l2-2v-5l-3-2zm9 43-9 5-12 12-5 10 1 3 5-2 9-5 11-13 3-8-1-2zm-38 18 2 6 3 1 1 3h2l-1-5-5-5z"/><path transform="translate(1099,596)" d="m0 0 2 1-1 4-4 5h-2l-2 5-3 3-4 7-3 5h-2l-1 4-9 15-6 14-3 8 11-9 9-6 18-6 8-1-1 4-16 16-7 10-2 4h15l30 3-1 3h-9l-25-2h-15l-1-3 5-9 5-5 9-10 3-4-10 1-11 7-13 10-5 7h-3l1-9 5-12 5-13 9-14 14-21 1-2-7 4-13 11-9 11-7 9-7 12-6 17-2 4h-2l-3-11-3-1v13l-4 1-5-12-6-9-4-4-3-1 3 6 4 16v8l-1 1-12-1-28-3-16-1-74-1-25-1-28-2-36-2h-15l-25 1-1-4 7-11-9 3-5 4-5-1 7-14 8-12-11 6-7 8-3 5-2 5-3 2-8-20-8-11-3-2 4 11 5 18v7l-5-1-9-8-6-3-5-1 9 13 1 6h-3l-4-8-9-12v-3l9 1 11 5 6 4-2-10-4-15-5-9 1-3 4 1 10 9 8 11 3 9v2l3-1 5-8 5-4 10-7 7-3 4 1-2 4-8 11-2 4h-2l-2 6 12-5h8v4l-10 10-1 2 14-1h41l53 5 103 2 22 1 15 2h5l-3-15-3-9-2-5v-5h3l8 7 8 9 3 6h2l3-13 4-1 2 7v6h3l1-7h2l1-5 5-10 2-1 4-7 11-13 9-9 10-7 9-6z"/><path transform="translate(462,624)" d="m0 0 4 1-2 4-6 5-9 11-11 15-4 8 5-4 10-4 8-4 12-3h5l2 3-6 6h-2l-2 4-1 5 40-5 23-2 24-1h48l28 1 1 2-20 1-75 1-44 4-16 1-5 1h-10l-1-2 5-9 4-4-1-1-16 5-8 4-10 8-2 2h-3l1-5 8-16 13-17 6-6v-2l-9 5-11 8-9 7-7 9-4 4-4 7-4 4v-3l5-10 8-10 5-5 8-7 17-11 8-3z"/></svg>
