<?xml version="1.0" encoding="UTF-8"?>
<svg version="1.1" viewBox="0 0 1408 768" xmlns="http://www.w3.org/2000/svg"><path transform="translate(369,31)" d="m0 0h21l6 5 7 14 4 14 1 6v21l-3 13-3 8h15l14 3 2-6 5-16 6-12 8-11 9-9 21-12 20-5h11l9 3 7 8 4 11v15l-3 14-5 12-8 14-5 6-9 7-11 7-15 6-7 1 6 9 3 9 6 17 7 14 9 12 13 9h19l14-6 14-9 8-6 7-4 14-11 15-11 16-10 18-10 20-8 11-4 29-6 9-1h32l20 3 21 5 20 8 16 8 14 9 10 8 10 9 24 18 14 12 11 9 15 15 11 9 9 9 8 7 13 11 9 6 13 9 19 11 25 10 21 5 7 1h28l15-3 12-3 16-7 14-8 12-9 14-12 9-9 7-8 3-1 2-4 16-17 12-9 11-7 11-5 8-2h7l8 3 4 6-1 10-8 9-9 7-10 14-8 13-8 14-6 11-9 14-13 20-5 5-11 13-7 7-8 7-10 9-10 7-11 7-19 10-10 5-27 9-8 2-31 4h-36l-32-4-26-7-19-6-18-8-10-4-7-4-4-1-2 7-4 9-1 5v12l4 11 7 10 8 7 14 9 12 5 12 3 10 5 9 8 8 17 3 11 11 25 11 19 15 16 11 7 11 6 11 10 7 12 2 10-1 10-5 12-8 6-5 2-12 1-11-2-16-6-11-7-14-13-10-14-7-12v-2h-2l-9-19-13-23-9-15-7-9-14-10-19-8-3-1 7 14 10 26 8 17 8 14 9 10 9 7 11 8 9 8 5 11 2 7v8l-3 10-7 8-6 3-4 1h-11l-12-3-12-5-11-8-10-11v-2l-3-1-8-13-6-10-11-23-9-16-7-12-3-4v-2l-4-2-5-5-10-6-15-5-18-4-13-2-10-1-11 4-18 5-16 2h-22l-19-3-20-6-16-8-11-7-9-6-9-4-9-8-8-14-4-14-1-9v-18l-14-7-8-6-3 1-6 7-10 3-9 6h-10l-6-3-7-8-8-7-3-7-1-13-21-2-19-2v2l3 1 3 8v9l-3 6-8 7-5 6-5 2h-10l-9-5-7-3-6-7-3-8v-19l3-10 6-11 7-7 9-5 11-3 26-3 1-3-3-20-6-10-14-21-5-5-9-8-8-4-13 5-10 7-10 8-12 5-4 1h-11l-8-3-5-4-4-8-1-4-1-13-14-3-14-2-8-4-7-8-4-7-2-8v-11l3-9 9-8 9-5 6-2 6-12 5-26 3-11 7-11 6-7 13-10 4-3-1-4-8-12-3-10-2-10v-10l3-14 6-14 11-13zm7 5-7 4-9 8-9 14-4 13-1 10 3 15 8 16 4 5 5-1 7-3 19-4 3-2 5-14 1-5v-21l-4-17-6-12-4-5-3-1zm124 15-15 5-14 7-15 12-7 11-6 12-7 21-5 10-3 1 3-7-2-2-13-3h-23l-16 4-15 6-11 7-10 9-3 4v2l5 2 1 3-8 1-6 4-3 8 1 5 8-1 4 3h2v13l-3 6-8 7-28 14 1 2 13 1 10 3 3 6-1 5-5 5-10 7-8 4 5 10 7 5 3 1h20l12-4 12-7 10-9 7-6 1-4h-5v-3l9 1 7 4 1 4-4-3h-2l-4 18-7 17-4 6-4 5-6 4-6 2-9-1-4-5-2-12h-4l1 15 4 7 6 4 3 1h7l11-4 17-12 9-9 3 3 15-6 18-6 11-7 11-10 6-10 4-11 1-5v-11l2 1 1 3v15l-4 13-8 11-1 3 10 8 3 1 2 4 14 18 12 13 7 8 11 8 10 7 7 4 3-1-6-8-4-14 1-4 3 9 7 11 11 11 9 5 10-1 12-1v3h-7l-10 3-20 8-24 9-9 6-7 6-7 14-3 10v12l3 6 2-1 2-13 2-2-1 7v9l3 8 3 4 3 1h10l3-2-1-4-3-5-1-4v-10l2-1v8l2 7 6 5 6-1 6-7 1-8-2-6 1-6 3-7v-5l1-3-2-6 3 3 2 3 42-5 15-4 9-6 5-4 3-8v-8l-5-14-11-18-6-9-5-5 5 3 12 11 9 14h2l3 10 2 7v10l-1 6 3 1 12 2 11 1 21-1 18-3 2-2 2-22 2-7 4-12 7-14 11-18 17-17 12-9 8-4v1l-11 8-9 9-7 8-9 12-8 14-7 16-5 19-1 8v21l3 17 7 19 10 17 9 10 12 12 9 6 19 11 14 6 11 5 31 10 21 5 31 9 16 8 9 7 7 7 7 10 12 20 8 16 12 22 8 13 7 9 12 12 14 8 4 1-2-4-7-7-2-5 5 5 12 10 8 4h14l6-4 4-6v-2l-13-1-12-6-6-5-4-7 7 6 9 6 11 4h6l3-2v-10l-3-8-8-10-11-8-14-8-13-12-7-10-4-7h-2l-2-6-8-16-10-27-7-14-8-7-24-8-12-5-11-8-7-6-7-10h-2l-3-10-2-11 1-12 4-13 11-23 7-19 2-9 3-16 1-9v-32l3 9 2 11v20l-2 15 10 8 21 12 16 8 14 6 25 8 13 3 18 2 22 1 19-1 23-3 33-11 16-8 11-6 15-11 10-8 8-7 12-12 7-8 8-10 5-7v-2h2l18-27 3-5v-2h2l9-12 10-10 4-2 2-3v-6l-3-2h-12l-9 3-12 7-11 9-15 14-9 11-9 8-7 8-12 11-13 9-18 10-23 9-13 3-27 1-17-1-21-5-20-8-20-10-12-8-11-7-16-13-14-13-8-6-15-15-11-9-11-11-9-7-2 1 9 17 4 10-1 1-3-6h-2l-2-6-7-10-8-11-6-8-8-7-11-11-15-11-8-5-16-8-16-6-17-5-22-4h-39l-25 5-24 8-27 13-13 8-9 6-17 12-15 12-18 12-12 6-9 3v2h8l4-1-1 2-4 1h-18l-12-4-14-9-7-7-9-14-5-13-4-13-9-18h-9l-1-2 10-3 21-7 10-6 11-9 9-11 5-10 4-12 2-13-1-14-4-8-6-4zm-166 122-6 3-3 5-1 10 2 5h2v-10l3-5 8-2-1-4zm2 10-1 3h3l-1-3zm-14 13-1 5 4-2zm-23 24-5 2-3 4 1 6 4 6 4 4 8 1 7-3 10-7 1-2v-6l-6-4-4-1zm-9 19 3 10 4 6 7 6h4l-2-5-3-9-10-7zm91 6-6 7-12 9-16 7-1 1v10l3 1 3-6 5-5 5-4 7-2 8-1 3-5 3-12zm72 13-6 5-19 9-6 2v2l11 9 13 16 11 19 8 12 10 12 7 8 11 10 5 2 7-7 16-8 10-4 13-4 3-2-1-3-5-3-10-4-16-10-13-11-10-9-9-11-2-3h-2l-2-4-9-12-11-10zm-80 6-10 4-8 7-4 5-1 4 2 2 9-1 8-6 7-12-1-3zm823 37-7 8-9 11-12 11-14 12-17 12-11 6-15 7-22 8-24 5-18 2h-28l-27-4-14-3-24-8-12-5-17-8-18-11-11-7-4 9-4 13-6 14 2 4 15 7 13 6 10 3 20 7 28 6 20 3 12 1h22l19-2 21-4 20-6 25-11 19-11 14-10 11-9 15-15 7-8 11-14 9-14 2-5zm-734 40 1 7 3 3-9 4-26 3-13 4-7 5-7 10-4 13v15l3 8h3v-11h1l3 15 5 5 6 2 7-1 3-4-8-6-3-4-2-8 2 1 4 8 6 5h8l4-6v-9l-6-11 1-14h3l1 7 1 1 17 1 12 2h14l3-4 5-10-1-4-6-4-8-7-9-11-3-1-2-4zm160 16-8 9-14 7-18 4-22 1-13 2-2 7-2 5 1 9 2 5 8 6 16 9 9 4 4-1 2-6-7-6h-2l-2-5-3-7-1-9 2-5 7-1 12 6 7 8 2 4 4 1 12-1 1-5 2-9 6-9 10-6h7l4 4 2 5 1 10-2 9-5 9-5 3-1 3 6 14 5 3h9l6-9v-2h2l9-17 8-19 6-17 3-12-3-1-14 3-8 1h-19l-18-3zm68 19-9 25-8 15-6 11-4 6v2l-3 1-9 12-9 9-3 10-6 4h-7l-6-2-9 3-4 6-5 2-6-1-5-5-3-7-6-7-1-3h2l2 4 3 3 4-1v-3l-6-3-4-5v-8l1-2v-9l-6-3h-3v9l2 17 5 14 4 6 4 5 10 7 13 7 14 9 16 7 13 4 15 2h30l20-3 19-7 14-7 14-10 10-9 6-7-1-3-11-4-20-10-17-12-12-11-8-9-10-16-7-15-3-12-1-6zm-54 1-7 4-7 9-2 9-1 11h-3v-4h-7l-11 4-8 6-2 3v3h4l-5 5-2 4 3 2 5-1 1 1v5l-3 5 7 2-1 5-2 2 1 4 7-1 5-5v-3l4-1-3 6-3 10 5-2 11-4 5-5 9-2 6 1 7-8 2-1-1-3-10-4-6-14-3-4 9-8 5-10v-14l-3-6-1-1zm-61 11-1 1v9l3 7 7 8h5l5-4 3-2-1-6-5-6-8-5zm12 48-2 7h3l2-4zm3 10v4l5-1 1-3zm-5 3 1 4 5 4 3-1-2-3-5-3zm44 4-4 3-1 3v7l2 1 1-3 3 5 3-1-1-7h2v3h3l1-3v-7l-1-1zm-34 4 1 2zm9 0m-7 1m21 1-6 4v2l7-1 1-4zm-23 5-2 3 1 7h2v-3h2l1 5h3l1-4 4 2 1-9h-8zm194 11-8 10-11 10-10 7-5 3 1 3 29 6 13 4 11 6 9 7 7 10 4 7h2l2 6 15 29 9 17 6 9 8 11 7 8 13 8 2-1-6-8-2-5h2l2 5 11 10 6 3 12 1 7-2 5-6-1-3-14-2-10-6-5-5h-2l-1-4 10 8 10 5 3 1h9l3-3v-8l-4-9-9-10-17-12-10-9-9-14-9-17-6-15-4-12-6-14-7-9-10-5-27-8-15-4z"/><path transform="translate(500,61)" d="m0 0h7v2l-15 4-11 6-10 9-6 12-6 26-5 13 19-4 9-4 6-3v3l-10 6-11 4-12 2h-7l1-4 5-10 5-25 5-13 9-11 10-7 12-5z"/><path transform="translate(399,145)" d="m0 0 8 2 5 4 4 8v2l-4-1-5-4-8-3-7-1v-4z"/><path transform="translate(392,171)" d="m0 0h9l5 3 6 7v18l-1 2 3 1v2h-10l-11 2-5 2h-3l-1-4-3-7-1-8 3-10 5-6zm2 2-6 4-4 7-1 8 2 7 3 5 4-2-2-6v-9l5-6 9-1 3-1-5-5-2-1zm7 11-2 1 1 4 4 1 2-4-2-2z"/><path transform="translate(634,380)" d="m0 0h2v2l-5 5-3 7 1 14 5-3 3-2v3l-7 6-4 1-1-3v-17l5-10z"/><path transform="translate(612,427)" d="m0 0 5 1 2 3-1 4-3 2-4-1-2-2 1-5z"/><path transform="translate(385,592)" d="m0 0h7l4 6 1 5 8-3 7 1 3 3v6l-5 6 5 10-2 5-3 2-9-1-3-1-2 10-5 4h-6l-6-7-3 4-5 16-2 10-1 11 1 1 7-9 4-5 10-7 6-3h5l1 1-1 7-6 12h-2l-2 4-8 8-9 6-6 2v7h-3l-6-10-5-9-12-17-7-7-7-8-11-10-13-8 6 8 7 10 4 4 10 17 11 20 2 7h-4l-12-10-17-9-8-2 7 6 6 5 8 10 3 4v2h2v4l-3-1v-2h-26l-15 2-9 1-17 4v-2l9-3 27-5 26-2v-2l-4-2-7-8-10-9-5-4v-3h7l12 4 12 6 8 6 3 2-14-25-11-16-10-12-6-8-3-2v-2h6l13 7 16 13 9 8 10 13-1-8-1-3v-17l5 1 9 11 5 10 1 3 2 1v-8l6-18 3-8-3 1h-8l-4-3 1-7 4-5 2-2-5-5v-6l3-3h9l4 1 4-10zm0 3-2 5v8l-7-3h-9l-1 1v5l4 3 7 1-1 2-7 3-5 6 1 4h8l9-4v12l3 4h6l3-4v-12l6 3h11l1-4-4-5-4-2h-3v-2l5-1 6-4v-7l-7-1-12 6v2l3 3v7l-4 3h-6l-5-5v-5l5-4 6-1 1-2v-9l-2-3zm1 17-3 3 1 5 2 2h6l3-3-1-5-3-2zm-39 31-1 6 2 11 7 13 6 6h3l-1-10-5-13-6-8zm49 16-10 6-13 13-5 11 1 4 10-6 6-4 8-10 6-12-1-2zm-48 10m7 8 1 4 6 10h2v-7l-8-7z"/><path transform="translate(1117,615)" d="m0 0 3 1-6 9-8 11-9 15h-2l-2 6-7 12-5 14-3 9 7-7 13-9 15-6 8-2h5v3l-12 12-9 11-7 11h16l31 3 1 3h-11l-27-2h-15l-1-3 6-10 5-5 7-9 7-8-9 2-12 6-10 8-6 5-7 9-2-1 1-9 6-16 12-25 6-9 3-5h2l2-5 7-11-10 7-12 11-9 10-11 16-8 17-5 16h-3l-3-13v-4h-2l-1 19h-4l-4-11-9-14-6-5 5 15 2 10v9l-1 1-11-1-29-3-18-1-75-1-39-3-32-2-25-1h-15l-27 1-1-4 8-11 2-3-12 5-7 5h-3l3-9 5-9 8-12-5 2-8 6-6 7-5 9-2 4-3-1-3-12-6-12-7-9-3-3 3 9 6 20 1 12h-4l-5-5-8-6-6-3-3 1 7 10 3 9h-3l-7-13-7-9v-3l9 1 9 4 9 6 1 1-1-8-5-18-6-12 1-3 4 1 8 7 6 7 6 10 3 11h2l2-6 8-9 13-9 5-2h5l-1 4-12 16-5 9 16-7h6l2 3-10 10h-2l-2 5 15-1h42l36 3 20 2 49 1h17l42 1 44 4-2-13-5-17-1-2v-6l5 2 12 12 5 8 1 5h2l2-13 3-5 3 1 2 15h2l1-5 7-17 6-9 7-9 13-15 10-8 13-9z"/><path transform="translate(452,645)" d="m0 0 3 1-2 4-15 16-11 17-5 8-1 3 11-8 17-7 9-2h6v4l-9 10-2 6 24-4 43-4 25-1h50l31 1 1 2-22 1-79 1-36 3-26 2-12 2h-5l1-4 7-11 2-4-18 6-10 6-10 8-4 3-1-5 8-16 7-11 14-17 2-2-5 1-12 8-11 9-10 11-6 8-7 11h-2l2-6 5-9 11-13 6-7 19-13z"/></svg>
