<?xml version="1.0" encoding="UTF-8"?>
<svg version="1.1" viewBox="0 0 1408 768" xmlns="http://www.w3.org/2000/svg"><path transform="translate(414,31)" d="m0 0h8l5 5 1 3 24-4 8-1h31l22 3 15 5 16 7 5-1 6-4 6-2h9l10 4 7 8 4 8v15l-3 9h-2l2 4 5 5 4 5 17 13 9 7 8 9 10-1 13-1v2l-17 4-2 1 2 5 7 14h10l12 1v2l-22 2-3 5 4 17 1 3 14 3 5 2v2l-8-1-11-2-3 8-4 4-6 1 1 5 10 3 15 3 34 2 19 3 15 4 12 6 9 6 6 5 7 10 4 9 2 9 1 10 18-3 13-3h13l5 3 1 5h18l13 3 8 5 2 3v6l9 2 10 4 9-3 16-4h16l11 2 4-5 12-9 11-4h14l11 4 11 7 7 7 8 14 4 9 14 1 15 3 16 8 12 7 9 6 17 7 14 3h10l9-2 5 1-3 3-8 2-6 1h-15l-14-3-19-9-21-12-15-5-11-2h-5l2 10 3 22 1 21-2 15-2 8-4 8-8 7-9 5-12 2 1 4 12 3h29l21-4 22-7 19-9 14-9 11-8 11-10 8-7 11-12 3-4h2l2-4 9-10 7-6 11-6 4-1h11l8 4 4 4v2h2l4 11 1 5v15l-3 20-9 27-9 20-9 14-11 15-5 7-21 21-22 16-16 10-27 12-27 7-20 3h-30l-22-3-21-4-8-1h-19l-16 3-13 5-7 10-6 7-10 8-15 8-11 3-6 1h-25l-16-3-28-9-15-2-16-1-26 1-14-2-19-7-14-8-28-21-9-6-19-9-10-3-18-4-18-2h-15l-38 3h-36l-14-3-13-5-9-7-2-4 5 2 14 7 12 2 11 1h13l-3-5-5-8-16-3-22-8-5-3-11-4-9-6-8-8v-2l-3-1-12-18-5-5-9-8-16-8-12-4-7-1-35-2-14-3-9-6-4-6-1-3v-8l5-10 8-7 16-6h5v3l-13 5-9 7-5 8v8l3 5 8 3 4 1 28 1 19 2 17 5 3 1-3-7h-8l-7-6-5-9-4-11-4-20-2-24-7-4-11-11-3-4h-8l-7-6-6-12-2-6-7-3-4-8-8-30-13-4-10-6-6-8-4-11v-12l4-12 9-10 9-4 2-1 5-22 6-17 11-21 12-16 10-10 4-5 8-7 16-12 9-6 7-9 4-7h2l2-5 4-4h7l6 5 7-7 10-6zm2 8-16 10-8 9-3 4-3 1v-10l-2-4-3 3-6 9-9 11-10 8-11 8-9 7-12 12-5 7-4 4-8 12-7 14-5 12-5 19v5l1 1 9 2v3l-14 2-10 5-6 4-4 6-2 6v11l4 10 11 9 9 3h16l-2 5-4 2 3 15 4 16 3 1 4-8h1l4 20 6 12 2 1 1-14 2-2 5 12 5 9 11 12 6 4 1-1v-9l5 2 10 8 11 6 12 3 5-1-5-5h-2l-1-4 3-1 22 4h12l21-3 23-6 14-6v3l-4 8-3 11v10h4l6-9h2l4 18 4 8 8 9h7l13-5 9-6 13-13 11-14 11-11 17-9 7-3 1-11 5-8 6-5 1-8 5-8 6-5 7-2 11-1 7-5 12-3v-2l-15-5-6-1v-2l8-4v-2l-6-1h-11l-10 2-5 5-10 9-7 4 3-4v-2l4-2 8-10 8-13 6-13 3-10 1-7v-12l-1-1h-37l-10 1 1 7-3 12-8 11-10 7-2 6-3 12-7 13-7 6-10 4h-17l-14-5-3-1-13 3h-8l-12-3-8-5-1-3 4 2 9 3 5 1h11l11-3 9-6 7-5 8-14 2-6v-9l-3-2h-13l-11-2h-14l-5-3-3-9 2-15 5-14v-2h2l6-7 11-5h17l14 5 9 6 4 6v7l-3 7-4 6-4 10-6 8 2 5 8 5 3 1h14l9-4 8-6 5-7 3-7 2-9-4-1v-2l17-2h35l9 1 1-5-4-11-3-6-10 1-14 3-20 7-12 4 3-2 14-7 13-4 31-7-1-6-6-11-4-1-13 5-15 8-8 4-10 7-8 6-3 1 5-5 13-10 18-10 12-5 9-4-2-5-13-11-11-8-13-12-10-13-18-18-13-9-19-9-24-6-20-2-23 1-30 6-9 3h-3l3-11zm145 11-7 4v3l7 5 4-1 4-2 6-1v2l-5 1-2 3 1 5 5 5 6 7 3-1 1-3v-12l-4-8-7-6-2-1zm68 135 5 6h2v-6zm2 28-4 9-1 5h-2l-3 5v3h21l7 3-1 4-2 1 1 3 10 4 4 3 4-1 6-9 10-6 8-3 6-1h10l-1 3-20 6-8 6-5 8-1 4v10l2 1 6-10 7-6 3-1-2 4-7 8-3 10 1 6 6 5 10 3 4-1 3-10 7-8 5-2-3 4v2h-2l-4 9-1 6 1 1h16l15-5 8-6 5-5 3 1h8l1-2v-10l-3-8-5-9-5-6-10-7-7-4-17-6-18-3-44-3-17-5zm-104 8-3 7-4 8v4l5-1h16l6 2 3-6 2-10-15-1zm-3 21-10 4-9 7v2l11 3h10l11-4 7-7-1-4-2-1zm125 19-6 3-3 3-14 1-8 5-5 6-2 11-8 6-3 9 1 6 15 4 8 5 1 1 15 3 32 12 1 2-8-4-25-8-9-2-1 2 5 10 2 5 22 2 6 1h-27l-1 2 1 9 5 1 45-6 11-2 3-3 5-30 1-7v-8l-1-1h-7l-1 4 1 14h-2v-9l-2-9-9-2 5 20-8-20-4-4-9-6-7-10-2-7-1-8-1-1zm155 15-30 6-27 2-2 4-5 2-5 4-13 4-7 1-1 1-1 7v8l7 5 2 4v9l-9 7-5 3-3 6-3 3-9 3-6 10-8 4-7-1-6-4-5-6-24 3-7 21-5 12-10 18-7 9-7 10-1 3h-2l1 6 6 12 8 9 7 5 2-1-1-15 4 1 10 9 14 9 19 7 12 3 16 1 7-10 9-11 8-7 10-5 3-1h10l2 3 9-2 12-4 6-1h28l1-1 1-12 5-12 5-6 10-7 4-2 6-1h17l8 2 10 5 12 11 10 13 11 18 10 18 2 6 6 14 4 13h2l4-10 7-8 13-7v-19l4-6 8-5 8-6 6-7-11-10 15 5-2-9-8-15-2-3 5 3 5 5 5 7h10l9-4 5-5 5-7 3-11 1-8v-10l-2-18-5-22-3-10-7-15-2-4-5-5-7-6-8-4v3l5 8 2 7 1 10-2-1-5-14-5-8-6-5-2-1-11 1-6 4v4l7 6 6 10 3 12-3-3-7-13-5-6-3-2-6 1-3 9-1 11 3 16 6 17 6 14 2 6 1 10 2 8 1 9-6-16-10-18-8-12-7-9h-2l-2-4-15-15-9-6-13-9-16-7-9-4-21-4v-3l12-3-1-3-14-2h-18l-6 1h-8l2-4 5-5zm98 25-12 3v3l13 9 11 9 14 14h2l-2-11v-24l-3-2-5-1zm-306 19-9 2-11 7-11 10-8 11-16 16-11 7-9 4-7 1h-14l-9-2-6-4v-1l15 1-9-18-2-9h-2l-4 5-5 1-2-4v-13l3-9 1-4-5 1-13 6-13 4-13 2-18 1h-11l-3 6-4 2-11-1-15-6-9-6h-2l-2 3v12l3 21 4 17 6 12h3l3-14 3 1 5 16 7 16 3 5 11 9 8 9 6 10h2l2 4 7 7 15 11 17 8 12 4 17 3h7v-4l-6-4v-2h17l14-2 16-4 17-8 5-3-1-5 13-7 10-9 11-13 8-11 5-9 8-14 7-16 2-10 1-6v-14l-1-2-6 1-8 6-4 4-2-1 2-5h2l5-5 7-4 2-1-2-6-8-7-2-1-9 1-9 6-8 7v2l-2-2 5-8 8-7zm115 1-2 10v5l5-2 4-3v-5l-4-5zm470 23-10 5-11 11-8 10-5 5-9 10-8 8-14 11-14 10-16 9-24 10-26 6-8 1h-29l-16-4-6-1-9 10-12 6-4 4-1 3v19l-4 3-7 3-7 6-7 14-3 13-2 10-3 6v2l9-1 7-1h19l24 4 11 2 15 1h28l21-2 20-6 12-4 19-9 14-8 16-12 13-11 9-9 6-7v-2l3-1 10-15 7-11 8-15 4-10 6-19 4-22v-15l-2-8-4-6-4-3zm-498 11-13 1-2 1 2 4 5 4h5l7-8v-2zm161 53 6 7 6 9 2 10-3-3-5-9-10-10-7-3-6 1-8 5-5 6v2h-2v2l10 3 11 8 6 10 1 4-5-4-7-8-5-4-7-3h-5l-2 2v17l3 10 8 16 7 11 10 12 9 11 5 5v2l-6-2-10-9-8-7-10-14-7-11-6-13-2-9-4-3-7-1h-17l-14 3-18 8-4 3h-3l2-7v-4l-5 1-14 9-10 11-9 14-6 14-1 5-2 1 3-18 1-4-7-2-20-2-16-6-14-8-10-8h-2l1 10-1 1-9-1-8-6-9-14-3-8-4 1-8 7-4 6-15 11-19 9-13 4-21 3-2 6-4 3-9 2 2 5 4 5 4 3 23-1 30-3h15l18 2 17 3 19 7 16 8 17 12 17 13 13 8 15 6 16 2h42l20 4 19 6 20 5 16 1 17-3 13-5 11-7 11-11v-3l-14-3-3-3 15-1 12-4 7-5 4-8 2-10-1-13-4-15-7-16-9-16-10-17-10-13-10-10-13-6z"/><path transform="translate(525,78)" d="m0 0h9l8 3 2 2-1 4-5-1h-11l-9 2-1-5 3-3z"/><path transform="translate(544,110)" d="m0 0h11l8 5 4 8v8l-3 7-6 5-9 2-8-2-6-5-3-7v-8l4-8 5-4zm5 6-2 2v5l3 2 5-1 2-3-1-4z"/><path transform="translate(489,144)" d="m0 0h8v2l-11 4-8 5-5 4-1-2 6-8 8-4z"/><path transform="translate(379,150)" d="m0 0 5 1v4l-9 7-1 2h-2l-3 10h-4v-10l4-8 6-5z"/><path transform="translate(790,157)" d="m0 0h14l18 3 11 3 14 6 19 11 14 8 15 7 23 6 7 1h26l22-4 46-11 6-1h25l17 4 20 8 11 7 4 3v2l-6-2-19-9-6-2-17-3h-27l-22 4-27 8-8 2-23 3h-19l-26-4-14-5-12-6-9-5-8-5-11-6-14-7-17-6-12-2h-21l-26 5-12 3-26 3h-14l-18-3-3-3 3-1 9 2h25l15-3 22-6 22-4z"/><path transform="translate(402,180)" d="m0 0 10 1 8 5 4 8v9l-2 5h-2l-2 4-8 5h-10l-8-4-4-6-1-3v-12l4-6 5-4zm4 6-3 2v6l2 2 5-1 2-2-1-5-2-2z"/><path transform="translate(772,189)" d="m0 0 22 1 17 4 12 4 18 11 10 7 15 6 15 3 27 3 13 5 10 6 1 3-6-1-11-5-11-3-8-1h-31l-18 3-19 4-7 1h-9l-10-2-9-4-7-4 4-1 11 4 5 1h16l31-6h7v-2l-9-3-15-9-9-6-17-8-12-3-10-1h-31l-16 2-17 5-4-1 1-2 11-4 28-6z"/><path transform="translate(283,205)" d="m0 0h9l9 4 1 3-1 2v13l1 4-4 1-4-5-1-10 1-5-3-1h-8l-6 3h-3l1-5 5-3z"/><path transform="translate(214,219)" d="m0 0h16v3l-20 3-27 6-9 4-17 9-10 9-7 12-6 24-6 13-6 7-13 8-9 4-16 6-19 9-13 11-9 14-4 14-1 6v9l4 16 7 11 8 7 14 7 13 3 10 1v2h-15l-15-3-11-6-9-7-7-11-4-8-2-8v-20l5-16 7-12 9-10 7-6 10-6 14-6 25-10 9-7 5-6 5-12 2-13 7-16h2l2-4 10-10 13-8 16-6 20-5z"/><path transform="translate(442,225)" d="m0 0h2v3l-18 6-23 10-20 12-14 11-5 4v-3l12-12 21-14 23-11z"/><path transform="translate(445,235)" d="m0 0h4l-1 3-13 8-6 5-7 4-16 15-10 9-10 13-6 8h-2l2-5 10-15 16-17 9-8 14-10z"/><path transform="translate(455,240)" d="m0 0h3l-2 4-4 6-5 5-7 11h-2l-2 5-12 23-8 21-3 1 4-16 7-16 8-15 9-13 8-9z"/><path transform="translate(250,256)" d="m0 0h14l1 3-22 4-10 3-7 5-5 7-6 16-6 8-9 8-21 10-12 5-14 10-7 9-3 8-1 10 2 8 4 8 9 8 10 4-1 2-10-2-11-8-1-3-3-1-5-12v-14l4-11 6-9-10 3-10 6-9 7-7 10-3 8v11l3 8v2l3 1 2 4h-4l-4-5-4-8-1-4v-10l5-14 3-4h2l2-4 11-9 16-8 12-5 17-6 11-5 10-4 12-8 6-9 8-19 7-6 11-5 7-2z"/><path transform="translate(909,254)" d="m0 0h28l22 4 19 5 33 7 23 2 21-2 48-12 5-1h24l16 5 10 6 14 12 10 7 10 5 10 4 8 2 24 5 17 7 9 7 7 6 2 5-4-1-7-7-14-8-28-6-18-4-12-4-11-6-26-20-12-5-11-2h-15l-21 5-21 6-20 3h-29l-25-4-21-6-13-4-27-5-9-1h-14l-19 3-6 2h-5v-2l13-5z"/><path transform="translate(641,270)" d="m0 0 4 1 8 7 7 8 8 9 9 13 8 13h-3l-12-17-13-16-5-5-6-7-5-4z"/><path transform="translate(285,281)" d="m0 0 2 1-1 6-7 13-8 9-15 10-20 8-22 7-10 6-5 5-3 1-2 6-3 10v12l4 13 5 7-1 3-6-5-8-14-1-4v-17l4-11 7-9 8-6 16-8 8-3 12-3 13-5 11-6 13-12 6-10z"/><path transform="translate(615,290)" d="m0 0 9 3 16 8 16 10 16 13 5 4v2l-4-2-18-13-16-10-19-10-6-3z"/><path transform="translate(291,336)" d="m0 0h10v3l-18 4-10 3-13 7-10 9-7 11-2 7v12l4 9 6 8 7 6 16 8 34 9 22 5 16 6 11 6 10 9 6 10 3 13 1 14 4 11 6 8 11 9 16 7 16 5 20 3v2h-14l-15-2-15-5-16-8-12-11-6-10-3-11-2-19-4-8-6-7-17-10-29-8-20-5-14-3-18-8-10-7-6-6v-2l-3-1-4-8-2-7v-16l3-10 8-11 10-8 8-5 22-7z"/><path transform="translate(1265,364)" d="m0 0 8 1 16 3 33 11 21 11 10 8 8 6 7 10 7 13 2 7v17l-4 10-7 9-7 6-9 5-28 7-23 5-18 8-9 5-10 8-8 8-7 10-1 2h-3l1-5 8-12 9-10 15-11 16-8 21-7 21-4 12-4 11-6 8-9 3-9v-13l-4-13-6-9-13-13-10-7-23-12-36-12-10-3z"/><path transform="translate(1035,371)" d="m0 0 15 5 6 1h16l12-3h3l-2 4-13 4-6 1h-8l-12-3-10-5-2-3z"/><path transform="translate(1213,393)" d="m0 0 13 1 15 5 10 5 7 6 7 10 4 10v13l-4 10-6 10-10 8-14 8-19 7-13 8-6 8-4 9-4 13-9 14-10 9-14 9-11 5-19 6-17 3-10 1h-21l-14-2-10-3-3-3 2-1 15 3h28l19-3 19-5 17-7 12-7 9-8 7-10 9-24 7-10 9-8 25-11 12-5 9-7 7-8 4-10v-13l-5-12-7-7-11-7-25-7z"/><path transform="translate(1273,396)" d="m0 0h9l21 5 12 7 9 9 5 9 2 11-2 10-6 11-7 7-10 6-11 4-3-1 3-3 12-6 12-11 4-9 1-12-3-9-6-8-3-3-11-6-8-4-19-4z"/><path transform="translate(103,409)" d="m0 0h22l21 4 15 6 16 8 15 7 27 8 21 3 28 2 24 4 25 8 11 7 9 6 9 9-1 2h-3l-5-5-11-8-16-7-14-4-33-4-33-3-26-5-16-6-19-9-16-8-15-6-14-3-8-1h-17l-15 1 1-3z"/><path transform="translate(1221,427)" d="m0 0 5 2 7 8 1 2v9l-5 8-10 7-13 4-4-1 3-3 15-7 6-5 3-6-1-8-5-6-3-3z"/><path transform="translate(128,475)" d="m0 0h19l18 3 16 5 15 9 10 9 6 7 6 12v3l-3-1-9-11-9-9-14-9-19-7-14-3-8-1h-46l1-2 21-4z"/><path transform="translate(248,481)" d="m0 0h15l14 5 6 5 4 7 4 19 5 9 7 6 11 5 16 4 24 3v3h-22l-18-4-13-5-10-9-4-5-3-7-3-18-7-8-12-5-14-3z"/><path transform="translate(435,506)" d="m0 0 5 2 8 6 13 6 16 5 18 2 51 2 20 3 21 6 17 9 13 9 11 8 11 7 15 6 13 3 8 1v2h-18l-13-4-17-8-15-10-18-11-17-7-17-4-22-2-34-2-21-3-14-4-11-4-12-7-9-6-3-4z"/><path transform="translate(1281,540)" d="m0 0 2 2-13 10-12 14-10 14-9 10-13 13-13 9-16 8-19 7-8 2-26 3h-29l-40-4-24-3h-18l-14 2v-3l11-3 8-1h24l38 4 13 1h26l23-3 16-4 13-4 21-11 17-12 13-14 9-11 11-13 10-8z"/><path transform="translate(197,544)" d="m0 0 4 1 1 4 4 2 7 8 17 12 18 8 13 4 22 5 9 1h26l20-3 22-5 27-9 32-7 8-1h27l19 4 16 6 18 11 18 14 10 7 14 9 17 8 15 5 24 4h21l16-2v3l-12 3-5 1h-31l-15-3-20-6-16-8-13-8-14-10-11-8-7-4-5-4-20-9-16-4h-35l-27 6-34 10-25 6-15 1h-24l-15-1-17-4-18-7-10-4-17-10 2 4 13 13 18 13 8 5 20 9 10 3 19 4 9 1h31l27-4 30-4h14l14 2 13 4 11 6 11 8 16 13 13 8 15 7 25 5 22 1h16l-2 3-14 2h-23l-15-2-27-9-16-10-14-11-7-4-9-6-12-5-11-3h-25l-36 6-18 1h-19l-17-1-25-6-21-8-18-11-14-11-14-14-10-13-2-5h-2l-8-13z"/><path transform="translate(1231,548)" d="m0 0h3l-1 4-9 10-7 7-15 11-16 8-14 6-29 7-17 2h-25l-31-3-25-3h-37l-25 5-18 6-15 8-31 20-17 9-21 7-15 2h-29l-17-2-2-1v-3l19 2h19l19-3 17-5 12-5 15-9 14-10 15-10 16-8 16-6 18-4 19-2h21l52 6h49l25-5 25-9 23-13 13-12z"/><path transform="translate(943,574)" d="m0 0h25l12 2v3h-24l-19 2-22 5-22 10-20 12-13 8-17 7-13 3-17 1-19-3-15-5-10-4-18-8-14-2-15 1-14 3-19 4h-25l-19-4-15-5-19-9-15-10v-2l5 1 16 9 21 8 15 4 12 1h15l17-2 25-7 6-1h12l16 4 11 5 10 4 14 6 12 2 18 1 16-2 13-5 21-11 17-10 15-7 27-7z"/><path transform="translate(1007,648)" d="m0 0h8l6 1-1 3-21 1-18 4-20 7-28 13-21 9-27 6-10 1h-24l-21-3-26-6-27-11-13-7-2-4 9 3 17 8 24 7 19 4 8 1h41l20-4 15-5 13-5 16-8 16-6 16-5 18-3z"/><path transform="translate(1010,676)" d="m0 0h12v3l-19 4-18 6-20 10-20 12-16 9-27 11-23 5-7 1h-34l-26-4-18-3-21-6-26-8-20-7-24-8-16-4v-2l14 1 15 3 29 9 17 5 21 6 25 5 24 4 10 1h26l19-3 26-8 29-14 16-9 17-9 25-8z"/></svg>
