<?xml version="1.0" encoding="UTF-8"?>
<svg version="1.1" viewBox="0 0 1408 768" xmlns="http://www.w3.org/2000/svg"><path transform="translate(427,59)" d="m0 0h7l4 3 2 5 10-2 21-3h30l19 3 14 4 10 4 6 3h5l7-5 5-1h9l9 3 9 10 2 6v14l-3 7v3l5 5 4 5 12 9 6 5 5 3 6 6v2l4 2 21-2v2l-18 3 3 7 6 12h10l10 1v1l-20 2-2 4 1 9 3 10 16 4 1 3-7-1-11-2-2 7-4 4-5 2v3l19 5 5 1 32 2 33 3 8 3 14 9 7 8 5 10 4 13 1 11 14-2 16-4h12l5 4 1 4h18l12 2 6 4 3 5 1 3 12 4 7 3 13-5 9-2h15l11 2 11-10 6-4 8-2h15l9 2 14 10 7 8 5 9 4 8 18 2 9 2 9 4 8 4 13 8 19 9 12 3h18l8-1v2l-9 3-6 1h-15l-14-3-12-5-12-7-14-7-8-3-15-3h-6l4 22 2 17v10l-2 14-4 10-9 10-6 4-6 2h-8v5l13 2h26l16-3 14-3 7-2 13-6 16-8 10-6 9-7 14-12 9-8 9-11 5-6 8-7 8-6 6-3 5-1h11l6 3 6 5 4 7 2 9v13l-3 19-7 20-4 10-9 18-11 15-6 7-9 11-16 15-20 14-7 5-12 6-24 10-11 2-8 3-25 4h-29l-27-4-21-4h-18l-15 3-13 5-6 9-7 7-10 8-8 4-11 4-10 2h-24l-15-3-15-5-20-4-22-2-25 1-16-3-15-5-6-3-18-12-9-7-7-4-7-5-7-3-16-8-25-5-16-2h-15l-36 3h-34l-8-1-9-3-16-8-4-5 2-1 12 7 17 3 9 1h11v-3l-6-9-19-3-16-6-8-4-10-4-8-6-10-9-7-11-1-4-4-2-9-9-9-5-12-6-15-3-34-2-15-3-8-6-4-6v-10l4-8 11-8 12-4h5v3l-12 4-9 7-4 7-1 8h2l3 5 6 2 30 1 19 2 16 5 2-1-1-5h-8l-5-3-6-8-3-7-5-19-2-14v-13l-4-2-6-4-8-8-2-3h-8l-7-6-6-10-1-7-6-1-3-4-4-10-2-7-4-15-13-4-11-7-5-9-2-5v-14l3-8 4-6 8-7 8-3 2-13 4-13 5-12 5-9 7-10 5-8 13-13 4-5 8-7 24-16 8-10 7-10 3-3h7l4 3 4-1 7-6 7-4zm1 9-8 4-9 6-8 10h-2l-1-9-1-2-4 1-5 9-9 10-10 8-11 8-9 6-10 10-5 7-3 2v2h-2l-9 15-8 17-3 8-3 12 1 5 9 2v3l-12 2-10 3-7 5-4 5-2 6v10l3 7 9 9 9 4 16 1 1 3-5 3 4 19 3 8h4l1-5h3l1 11 6 16 4 2 1-12 2 1 4 8 5 9 4 5 11 9h2l1-8h3l7 6 12 7 14 4 4-1-5-5-1-4 11 2 5 1h27l20-4 13-4 12-5 3 1-4 6v4h-2l-2 9v8h4l5-6v-2l2 1 3 13 4 10 9 9 10-1 16-8 7-7 7-6 9-11 13-12 9-6 12-6 1-1 1-9 4-6 5-5 3-9 4-6 5-4 7-2 11-1 5-4 10-4v-2l-7-3-10-2 1-3 6-2-1-2-4-1h-11l-10 2-11 11-9 5 7-8 6-7 6-9 5-8 4-10 2-7 1-7v-11l-1-1h-34l-10 1-1 15-6 10-5 4-8 5-2 6-1 7-4 8-2 5-1 3-4 2-5 4-9 3h-15l-9-3-5-2-9 1-6 1h-9l-9-2-9-5-2-3-3 1-6 8-8 10-5 10-6 10-5 12-2 7-3 3 5-15 5-12 7-13 3-4v-2h2l7-11 9-10 4-2-3 4 2 4 7 4 8 1h13l8-2 9-6 8-7 5-9 3-10-1-5-1-1-18-2-19-1-4-1-3-5-1-8 2-11 4-12 9-9 10-4h18l12 4 10 7 2 3v12h-2l-5 8-1 4-1 6-4 2-2 4 1 4 5 4 5 2h15l7-3 6-4 7-9 3-6 1-8-3-1v-2l16-2h34l8 1 1-4-3-9-4-7-16 2-23 7-10 4-4 1 4-3 12-5 15-5 27-6-1-5-3-6-3-5-9 2-16 7-16 9-14 9-1-1 14-10 11-7 16-7 10-4v-4l-9-9-15-10-12-11-8-11-15-14-11-9-9-5-17-7-15-4-24-2-23 1-11 1-10 3-10 2-8 2 2-10zm140 9-6 3-1 4 6 4 4-1 3-2 6-1v2l-4 2-2 2v4l5 3 6 8 3-1 1-3v-10l-4-8-6-5-2-1zm66 124v3l4 3 1-5zm-1 27-5 12-2 3v3l20 1 5 2-1 5v3l4 2 4-1 9-11 10-8 5-3-1-3-29-2-13-3zm-98 7-7 13-1 3h22l6 1 3-10v-4l-14-1zm165 1-15 5-9 6-7 7-4 7-3 7v8l4 9 3 2 3-1 2-9 5-10 5-4 2 1-6 12-2 6v10l3 6 4 3 10 1 5-2 2-11 5-8 3-4 5-1-8 14-1 9 3 4h9l10-4 6-4 8-7 4-5 5 1 4 1 2-2v-9l-2-8-4-9-7-8-7-6-12-5-8-2zm-167 17-12 5-7 6v2l9 2h11l10-3 7-7-1-4-2-1zm120 18-6 2-3 3-14 1-8 5-5 5-2 11-8 5-1 3v7l19 1 9 4 10 7 6 6 20 7 2 2-13-4-4-2h-4l1 6 2 4 9 1v2h-8l-1 8 1 1h10l31-4 5-3 2-5 5-30-1-5-4-3h-4l1 15h-2v-8l-1-4h-8l2 5 2 7-2-2-4-9-5-3-8-7-1-5-9-4-4-4h-2l-1-6-1-1-1-8zm145 14-26 5-25 2-11 9-10 6-12 3-1 3v8l7 5 1 3v8l-9 7-5 5-2 4-10 4-3 4v2l-3 1-4 4-5 2-7-1-5-3-5-6-7 1-3 2-6 18-7 12-7 11-9 11-6 8-11 9-2 2 1 7 10 13 4 4h6l-1-6-1-8 5 2 15 12 14 7 10 4 21 3h8l6-9 9-10 7-6 10-5 3-1h9l2 3 9-2 11-4 6-1h27l1-1 2-14 6-11 10-8 10-3h18l12 3 10 7 7 7 5 7 5 5 8 14h2l2 6 4 7 4 8 3 8h2l3 13 3 6 2-3 3-6 8-8 8-4 3-1v-19l8-7 10-6 7-7-5-5-5-6 11 5 3-1-5-12-6-11 8 5 5 8h13l8-4 6-7 4-13 1-7v-10l-3-26-5-17-8-17-3-4h-2l-2-4-6-5-5-3h-2l1 4 3 5 2 7 1 8h-3l-1-7-6-11-5-6-4-2-8 1-8 3v4l7 7 1 2h2l3 9 1 7-4-5-5-9-5-5-3-2-5 1-3 8-1 10 2 11 4 13 10 24 1 10 4 16h-2l-2-9-8-15-3-5-10-15h-2l-2-5-18-18-5-3-15-10-14-7-16-6-15-3-1-2 9-3v-3l-12-2h-18l-13 1 2-4 3-3v-2zm95 23-11 2 1 4 14 9 11 9 10 10 2-1-2-9v-22l-7-2zm-181 18-3 9 1 5 7-4-1-7zm-107-5-12 5-12 8-12 12-8 10-8 7-6 5-11 7-4 2-9 1h-14l-10-2-3-4 12 1v-3l-5-6-5-15-7 5-4-1-1-13 2-8 2-5-2-1-13 6-21 5-18 2h-15l-4 6-3 1h-7l-14-4-10-6-5-1-2 2v11l3 19 3 9 2 9 5 9h2l2-13 4 1 3 10 4 10 6 11 6 7 10 8 7 10 5 7 11 9 11 8 7 3 8 4 14 4 16 3h6v-4l-6-4v-1h16l14-2 14-4 11-4 9-5 3-2 2-4 8-4 7-4 14-11 11-11 7-8 8-11 2-5h2l8-15 4-10 2-8v-14l-1-1h-7l-9 6-6 5 5-8 6-5 8-4 1-2-1-2h-2l-2-4-7-6-3-1-12 4-9 7-3 3h-2l2-4 4-6 7-5v-1zm555 26-11 6-9 9-7 8-16 17-11 9-16 12-8 5-16 8-17 7-19 5-15 2h-28l-13-2-5-2-5 1-5 5-12 8-5 3-2 3v12l1 7-5 2-8 4-5 4-7 13-3 13-2 10-2 5 3 1 12-2h18l23 4 12 2h54l18-4 8-3 7-3 10-3 15-8 8-4 14-10 14-12 5-5 5-4 7-8 8-10 8-11 4-8 4-7 5-10 6-19 4-20v-14l-1-7-5-6-4-3zm-475 10-13 1-1 4 4 4 5 1 5-5 3-4zm154 49 2 4 6 7 3 5 2 8-3-1-3-6-4-6-4-4-5-3-6-3-7 2-8 5-4 5v3l11 3 8 7 1 2h2l2 5 3 6-5-3-9-10-7-4h-8l-2 2v15l4 12 2 2 3 7 7 10 12 16 6 5 7 8-3 1-8-5-14-14-8-10-6-8-1-3h-2l-1-5-4-14-5-3-6-1h-16l-16 3-16 8-2 2h-3l1-6 1-3h-7l-12 8-9 10-1 4h-2l-5 7-6 13-1 6-2 1 3-21-26-3-16-6-12-7-11-7v11l-9-2-6-4-5-4-3-6-5-8-5 2-9 8-15 9-19 9-16 4-14 2-3 2-1 4-8 3-5 2 3 5 6 6 22-1 9-1 20-1h15l16 1 17 3 13 4 12 5 20 12 18 14 6 4 11 6 13 5 15 2h41l17 3 25 7 12 3 15 1 18-2 11-4 12-7 11-11-1-2-13-3-2-1v-2l14-1 13-4 5-4 4-8 2-12-1-9-3-9-6-15h-2l-1-6-7-13h-2l-2-6-7-10-10-13-9-8-12-5z"/><path transform="translate(533,103)" d="m0 0h9l8 3 1 4-3 1-2-1h-10l-10 2-1-5z"/><path transform="translate(551,132)" d="m0 0h11l8 6 3 6v8l-3 6-6 5-8 1-9-2-6-6-1-3v-12l5-6zm4 6-1 5 3 3 5-2 1-4-2-2z"/><path transform="translate(498,163)" d="m0 0h7l-1 3-12 5-9 6v-3l5-6z"/><path transform="translate(393,169)" d="m0 0 5 1v4l-5 4-4 2-6 11-3-1v-9l5-8 4-3z"/><path transform="translate(779,175)" d="m0 0h21l18 3 20 7 20 11 9 5 12 6 21 7 16 3h24l25-5 16-4 24-5 6-1h24l16 4 13 4 13 7 7 5v2l-4-2-25-10-17-3h-25l-21 4-20 6-13 3-23 3h-18l-26-4-9-3-18-8-12-7-9-5-16-8-11-4-16-3h-21l-24 4-11 3-25 3h-15l-16-3-2-1 1-3 9 2h23l27-5 14-4 15-3z"/><path transform="translate(416,196)" d="m0 0 9 1 7 4 4 8v10l-6 8-6 3h-14l-6-5-3-6v-12h2l1-4 6-5zm2 7-2 5 3 3 5-2 1-3-2-3z"/><path transform="translate(769,205)" d="m0 0 21 1 14 2 12 4 16 9 10 7 14 6 17 4 26 3 9 2 9 5 5 5-7-1-13-5-5-2-10-1h-28l-13 2-29 6h-10l-8-2v8h-4l-2-9-10-6v-2l7 1h2l-7-11-3-3v-3l5 2 6 5 6 13 3 1h14l15-3 21-3-3-2-16-8-10-7-5-3-12-4-8-3-14-2h-29l-15 2-9 2-8 3-3-1v-2l11-4 13-3 2-1z"/><path transform="translate(301,219)" d="m0 0h10l8 4 1 3-1 2v15h-4l-3-3-1-9 1-5-3-1h-7l-6 3-3-1 2-5z"/><path transform="translate(236,232)" d="m0 0h15v3l-19 3-25 5-10 4-11 6-6 3-8 7-5 7-4 11-5 19-6 11-5 5-5 3-12 6-14 5-7 3-10 4-8 5-8 6-5 7-3 3-5 10-3 13v8l3 12 5 10 9 9 8 4 11 4 17 3v2h-14l-14-3-10-5-10-9-7-9-3-9-1-5v-18l4-16h2l1-4 7-11 16-12 17-8 18-6 10-5 10-8 3-6 3-8 2-13h2l1-7 4-7 16-14 12-7 14-4 5-2 19-4z"/><path transform="translate(453,238)" d="m0 0 3 1-2 3-13 3-10 4-8 4-8 3-7 5-14 7-13 11h-2l2-4 10-9 12-8 8-5 12-5 8-4z"/><path transform="translate(455,247)" d="m0 0h5l-1 3-12 7-6 5-7 4-11 10-8 7-5 4-8 11-9 9v-3l3-5 5-6 3-5 20-20 11-8 9-6 10-6z"/><path transform="translate(269,266)" d="m0 0h14v3l-20 4-12 4-8 8-5 13-4 8-12 10-12 6-11 4-14 7-9 7-5 6-3 8-1 9 2 8 4 8 8 7 9 4-3 1-8-2-9-6-5-6-4-9v-14l3-9 1-2h2l2-4v-3l-14 6-11 8-7 8-3 8v12l2 7 4 5v2l-4-2-6-8-2-7v-9l5-12 9-10 10-7 7-4 9-3 8-4 16-5 12-5 10-4 11-7 7-11 5-13 9-8 16-6z"/><path transform="translate(900,264)" d="m0 0h26l20 3 20 6 38 7h29l24-5 32-8h25l18 6 14 10 9 8 6 4 13 6 8 3 31 6 10 4 10 6 9 8 2 4h-3l-11-9-12-6-31-6-11-2-13-5-14-8-10-8-10-7-8-4-13-2h-15l-17 3-19 6-17 3h-40l-18-3-18-5-15-4-25-5-9-1h-13l-14 2-10 3h-4v-2l15-6z"/><path transform="translate(645,279)" d="m0 0 5 2 5 5 14 15 7 10 8 11 2 5-3-1-6-7-3-5-10-13-19-19z"/><path transform="translate(303,290)" d="m0 0h2l-1 6-6 12-8 8-8 6-10 5-21 7-13 4-16 9-4 5-4 11v13l3 11 5 7v2l-4-1-4-5-7-14v-16l4-10 7-9 6-5 18-8 21-6 13-5 9-6 10-9z"/><path transform="translate(618,298)" d="m0 0 7 1 17 8 12 7 3 3 7 4 9 7 4 4-1 2-11-8-5-4-6-3-12-8-7-3-8-4-9-4z"/><path transform="translate(309,340)" d="m0 0h10v3l-17 3-9 3-16 8-7 7-6 8-3 8v11l3 8 11 12 15 8 14 4 18 4 33 8 12 5 11 8 7 8 4 7 1 9 1 14 5 12 4 5 14 10 16 6 13 4 17 3v1h-13l-13-1-10-3-12-5-9-5-12-11-5-10-2-7-2-18-5-9-14-11-6-2-8-3-21-6-12-2-20-5-17-7-10-7-9-8-3-5-2-8v-17l6-14 7-7 18-10 16-5z"/><path transform="translate(1241,366)" d="m0 0 18 2 15 4 8 3 12 4 10 5 16 9 12 9 7 9 3 5 3 6 2 8v16l-3 8-7 9-5 5-10 5-32 8-17 3-15 6-11 6-10 8-7 7-5 6-5 5-1-2 4-7 9-12 8-7 18-11 13-5 8-3 13-3 24-5 11-6 7-6 4-8 1-3v-12l-2-7-6-11-14-14-11-8-15-7-14-6-15-4-21-7z"/><path transform="translate(1020,372)" d="m0 0 15 5h26l8-2v3l-13 4-6 1h-8l-9-2-9-4-4-3z"/><path transform="translate(1191,392)" d="m0 0 16 2 13 5 8 4 6 5 8 12 2 6v12l-3 9-8 11-8 6-10 6-22 8-11 6-8 10-3 7-1 5-4 10-6 9-13 11-10 6-12 5-5 2-10 2-12 3-16 2h-20l-14-2-10-3-1-2h8l7 1h27l18-2 21-6 18-7 13-10 9-11 8-21 7-10 8-7 14-7 10-3 14-7 6-4 7-8 4-9v-16l-5-8-9-8-8-4-23-7z"/><path transform="translate(1249,395)" d="m0 0h8l17 4 8 3 9 7 6 5 5 10 1 9-2 10-7 11-6 5-8 5-11 4h-2v-3l9-4 11-8 8-9 2-10-1-8-4-8-5-6-10-6-7-4-21-4z"/><path transform="translate(128,407)" d="m0 0h23l20 4 11 3 19 10 12 5 14 5 25 5 17 2 18 1 16 2 17 4 14 5 10 6 9 6 9 8-1 2-4-2-14-10-9-4-20-6-32-4-31-2-29-6-25-10-11-6-20-9-14-3-11-1h-30l1-2z"/><path transform="translate(1198,424)" d="m0 0 5 1 7 8 1 2v8l-6 8-9 6-12 3h-3v-2l17-8 5-4 3-9-2-5-5-5z"/><path transform="translate(151,468)" d="m0 0h21l16 2 11 3 16 8 11 9 7 7 5 8 1 6-4-2-7-8-8-8-12-7-8-4-10-3-16-4-7-1h-43v-2l14-3z"/><path transform="translate(269,473)" d="m0 0h14l12 4 7 6 4 8 3 15 4 8 9 7 10 4 20 4 16 2v3h-20l-17-4-12-4-10-9-6-7-1-8-1-9-3-6-8-6-15-5-6-1z"/><path transform="translate(447,496)" d="m0 0 5 2 6 5 8 3 9 4 12 4 66 3 19 3 12 3 5 2 9 3 8 4 11 7 12 9 13 8 10 4 17 4 6 1v2h-16l-13-4-9-3-13-8-14-9-11-6-20-8-8-2-44-3-23-2-20-4-5-2-7-2-14-7-10-7-2-3z"/><path transform="translate(1254,528)" d="m0 0 3 1-3 3-12 9-10 13-4 6-5 5-1 2h-2l-2 4-12 12-16 11-7 4-13 5-8 3-12 3-25 3h-28l-39-4-5-1-17-1h-18l-13 1v-2l11-3 7-1h23l38 4h44l14-2 23-6 12-5 11-6 11-7 10-8 9-9 9-11 5-5 8-9 10-7z"/><path transform="translate(220,531)" d="m0 0 3 1 2 4 4 2 6 7 16 11 14 6 15 5 17 4 13 1h25l19-2 18-4 15-5 7-2 32-8 14-2h25l22 5 12 5 8 4 11 7 18 14 14 9 22 11 14 4 23 4h19l16-2v3l-5 2-11 2h-29l-14-3-11-3-17-6-14-8-9-6-5-3-8-6-7-5-7-4-12-7-13-5-14-3h-34l-15 3-17 4-14 4-13 4-23 5-14 1h-23l-14-1-18-4-1-1-7-1-8-4-10-4-13-7-4-3 2 5 4 2 12 11 13 10 24 12 21 6 20 3h29l22-3 9-2 17-2 6-1h14l14 2 12 4 15 8 7 6 7 4 11 9 8 4 7 4 7 3 25 5 21 1h15l-1 3-14 2h-21l-15-2-16-5-12-4-10-7-10-6-8-6-12-8-11-5-14-3h-23l-34 5-17 1h-19l-16-1-20-4-14-5-12-5-15-9-8-6-9-7-6-5-12-15v-2h-2l-7-10-5-7z"/><path transform="translate(1208,535)" d="m0 0 3 1-6 8-8 8-14 10-9 5-5 3-11 4-9 4-21 5-20 2h-25l-29-2-24-3h-35l-28 5-12 4-17 9-7 4-16 10-10 6-13 6-13 5-19 3h-29l-15-2-3-1v-2l10 1h34l21-5 14-5 11-6 16-10 10-7 11-7 11-5 18-6 16-4 8-1h39l41 5h47l16-3 20-5 8-3 8-4 15-8 11-9z"/><path transform="translate(931,559)" d="m0 0h26l9 1 2 2-1 1h-21l-19 2-19 4-15 6-9 5-17 9-7 5-12 5-8 4-11 3-21 1-14-1-9-2-9-4-16-6-9-4-16-3-14 1-32 7h-23l-18-4-13-4-13-6-14-7-7-6 4-1 4 3 19 9 16 5 6 2 17 2h13l13-1 28-7 5-1h13l17 4 17 7 7 4 11 3 17 2 17-1 16-4 16-8 12-7 9-5 9-4 21-7 12-3z"/><path transform="translate(993,627)" d="m0 0h10l4 1v2l-21 1-13 3-16 5-13 4-11 6-15 6-15 7-26 5-9 1h-24l-33-5-20-6-12-5-8-3-11-7v-2h5l12 7 17 5 22 6 17 3h39l15-3 20-6 8-3 16-7 3-2 30-10z"/><path transform="translate(997,652)" d="m0 0h10v3l-24 6-12 4-16 8-21 12-17 9-6 3-11 3-7 3-17 4-14 2h-29l-27-4-24-5-25-7-12-4-5-2-17-5-21-7-13-3v-2l12 1 21 4 21 7 26 7 11 3 14 3 32 5 10 1h24l14-2 21-5 9-3 11-5 8-3 6-4 12-6 19-10 27-9z"/></svg>
