<?xml version="1.0" encoding="UTF-8"?>
<svg version="1.1" viewBox="0 0 1024 1024" xmlns="http://www.w3.org/2000/svg"><path transform="translate(365,166)" d="m0 0 5 5 8 10 13 11 18 11 4 2 6-1 14-8 20-7 14-4 25-3h34l24 3 21 6 18 7 11 6 6-2 14-9 14-11 9-10 4-6 2 1v7l-3 11-1 2 9-6h3l-2 10-5 7 10-2-3 9-7 8-3 2h8l-3 5-9 8-5 3h-2l4 7 6 10 8 16 6 18 5 25 1 22-3 3-2-1v8l-3 17-1 2-4-1v11l10 11 10 15 6 11 5 13 6 18 4 29v27l-3 25-4 16-7 20-3 9-11 23-12 18h-4l-2-4-5 5-7 8-7 7-4 3 31 3 36 6 20 4 25 8 9 3 22 9 6 1 3-15v-27l-5-21-5-15-2-4-16-3-10-7-6-7-4-9-1-6v-12l3-15 6-18 5-10 6 2 1 3 4 2 10 8 8 8 10 13 4 11 1 5v9l-3 9-4 6-6 6h-2l4 7 9 14 6 10v2h3l2-5 4-6-1-4-7-9-3-10v-13l4-10 6-9 8-8 14-10 17-9 13-5h4l3 16v31l-4 16-4 9-6 8-9 7-8 3-10 1-9-1-2 7-2 8v14l4 21 7 16 8 16 6 8 5 5 22 12 5 3 14 9 1 1v175h-58l-1-1-2-13-5-19-5-14-5-12-10-20-10-14-22-22-14-12-18-14-9-5h-7l-15 4-13 4-20 7-15 5-18 7-3 1-2 5-4 9v3l9 6 5 6 4 11v11l-4 13-9 14-11 13-8 7-3-1-11-19-5-14-2-9v-14l3-10 8-9 11-5 5-2 1-2v-9l-15 3-17 7-6 4 2 11v10l-3 10-9 10-16 8-19 3h-27l1-9 5-17 8-16 1-3h-17l-14-3-16-8-12-7-5-4 2-4 8-8 16-11 7-4 15-5 10-1 9 2 10 6 8 11 2 5 6 1h29l14-2 14-4 11-4 6-3h2v-2l15-9 13-10 9-9 4-6-1-3-25-11-25-7-17-4h-2l-2 15-3 6-5 4-9 1-4-1-1 5-6 5-9 1-7-3-2 5-6 4h-9l-8-7v-2l-5 1h-8l-5-2-4-5-1-3h-9l-7-4-3-7-1-8v-16l-34-3-71-10h-16l-36 11-10 2-20 5-6 1h-20l-14-2-4 12-7 11-9 6-12 4h-18l-23-5-19-8-8-5v-3l8-10 14-14 14-10 12-7 9-2h16l9 3 8 6 6 8 4 7h9l16-2 13-4 17-7 25-14 8-7 4-3-2-7-11-14-13-12-26-20-19-13-16-11-6-2-10 9-9 4h-20l-12-5-11-8-9-9-9-12-10-17-3-7 1-4 20-5 20-2h9l15 2 8 3 9 5 7 6 6 10 2 8v15l8 4 15 6 3 1-5-11-9-27-2-9-10-4-9-6-6-9-3-6-1-13 2-10 6-17 11-18 8-10 5 5 9 11 7 10 6 12 4 11 1 5v10l-3 10-6 9-8 6-4 2h-3l9 20 7 10 7 11 9 10 11 7 14 9 32 16 17 8 14 5 16 5 15 2h16l3-6-1-3-8-4-10-7-19-14-12-11-12-12-10-13-6-9-8-14-8-18-5-22-2-14v-22l3-19 3-14 6-15 8-16 7-11 1-1v-7l-2-10-5-2-3-14v-12h-2l-1 2-1-1v-21l4-25 7-22 7-15 8-13v-2l-10-5-10-9v-2l-2-1 3-1 5 1-5-5-6-9-1-6 11 3-6-7-3-9 2-2 7 5h3l-3-8-1-4v-7zm4 12 1 5 8 13-12-6-3-1 2 5 7 8 9 6-9-2-9-3h-3l2 4 9 8 9 4 8 1v2l-19-2v3l10 6 13 4 16 3 27 3 21 5 21 11 10 9 7 6 2 4 4 4 6 10 3-3 7-11 8-9 5-5 9-6 19-10 21-5 33-4 21-5 13-7v-3l-15 1-5 1v-2l10-2 10-5v-2l4-2 5-5-2-2-18 6h-2l9-6 5-4 5-7v-2l-5 2-7 4h-2l7-14-1-3-10 10-15 11-12 7-23 9-18 5-14 6-14 8-13 11-8 9-9 15-3-3-7-11-9-10-9-8-11-7-16-8-16-5-20-7-16-8-15-10-12-11zm122 7-25 4-26 8-17 8-2 4 30 10 10 4 19 11 8 8 6 5 8 10 4 6 4-5 11-14 8-7 8-6 14-8 6-3 17-5 21-7v-3l-19-9-21-6-19-4-8-1zm139 48-15 4-8 2v2l9 4 4 3h2v2h2v2l-4 1 10 8 6 7 1 2h-4l2 4 4 5 4 9v6h-2l1 7 2 13-5-2v13l-2 9-3 5v2l-3-1-6 11-5 5-11 5v2h2v3l-18 2-1 3h-18l-19-4 1 3-6-1-8-5-2-3-4 1-5-5-4-6-6 1-5 9-7 9-5-1-7-8-6-9h-4l-5 8-5 3v-3l-4 2-7 6-9 4 3-4v-2l-4 1-17 4-14-1-5-2-14-2-2-2 2-3-12-6-7-10-2-5h-4l-4-13-1-15-4 1 1-11 3-8h-3l-3 1 6-15 6-10h-3l4-7 10-8 2-1v-2l-2-2 8-6 8-3v-2l-19-4h-5l-6 8-8 14-9 27-5 25-1 14h4l2-1-1 13 2 14h3 2l2 15 3 7 9 7 9 4 7 2 2 4 11 3 27 1-4 8h13l13-4 7-3-1 5h5l5-2 3 7 11-3 8 5 5 2h5l9-6 7 1 6 1 1-7 9 3h3v-5l13 5 10 2h12l-4-8h22l15-2 1-3 13-5 12-6 11-8 3-21 4 2 1-1 1-7v-19l4 1 1-1-1-17-5-26-5-15-8-16-4-7h-2l-2-5-3-4zm-210 8-11 2-6 3v2l7 1v2l-5 1-12 6-5 5v2h4l-5 5-7 8-4 8v2l5-1 2-1-7 15v5l5-2-1 4-1 9 1 14 1 3 6-1 3 12 4 7 8 5 11 2v3l-1 3h13l9-3-4 6h16l13-5 6-4v5h3l7-8 3-5h1l1 5 4-4 4-8v-2h2v2l3-1 3-10 2-8 5 2 4-17 2 11 2 5 4-1 2 7 4 12 5-2 3 9 3 4h2l1-3 2-1 2 5 7 8 3 1v-6l10 6 9 3h17l-5-6 9 3h14l-1-3-2-2 16-4 6-5 4-6 3-13 5 2 2-7v-14l-2-9 3 2h3l-1-6-7-14 7 2-1-5-6-9-9-8 5-2-5-5-7-5-8-3h-3v-2l7-1v-2l-8-4-8-1h-13l-14 2-19 7-7 4-10 7-10 9-9 12-7 14-8-14-9-12-11-10-9-6-17-8-13-4-10-1zm87 85-5 7h-3l-4 9-1 9 6 9 6 7 6-5 7-11 1-4-5-15h-5l-2-6zm143 45-13 9-17 8-1 3-10 3-3 4-4 13-2 13v26l2 18 5 24 4 15 4 11 7 11 5 5h7l5-6 3-12 1-18 2 15 6 16 7 6 7-1 3-5 3-10 1-9v-9h2l1 17 4 10 4 1 3-7 3-14 2-15-1-29-5 4h-7l-6-4-5-7h-2l-4 12-3 3h-8l-5-3-6-9-3 1-4 11-2 2h-9l-6-5-5-10-4-11h2l3 10 7 10 5 4h5l4-4 1-6 1-16h2l3 9 6 11 5 4 5 1 5-6 2-8v-14l2 2 5 12 9 9h5l4-5 1-3v-15l-5-18-7-18-12-21-11-14zm-278 5-7 10-8 14-9 24-3 14-1 10v14l3-1 4-10v-3h2l1 13 3 6 5-1 4-5 3-9v-3h2l1 10 4 8 3 1 5-5 4-7 3-9 3-19 6-23 4-12-4-2-9-3-2-4-15-8zm35 17-4 10-7 28-3 18-1 15v14l2 20 5 21 5 16 11 23 13 19 11 14 15 15 5 4 4-1 5-2 7 1 3 2 13-1 5 3 5 10 2 1h27l4-11 6-3 7 1 5 1 4-3h10l3 2 13-1 6 1 10-8 13-12 10-13 8-14-1-5-16-40-9-31-4-21-1-18v-22l1-14 4-16-2-1-19 2v2l4 3h-28l-7-1v2l-13-2-3-1-2 5-8-1-6-1-10 6-5 1-10-4-4-3-13 2-3-5-6 1-9 2v-3l-10 2h-18l-5-2 4-3v-2l-18-2zm-144 38-5 6v2l-3 1-10 19-4 11-2 11 1 12 3 8 5 6 9 6 7 2 2-4 1-13v-20h2v36l2 1 6-3 10-9 4-8 1-5v-10l-5-17-12-20-10-12zm125 29-5 8-3 2-6-1-4-7-7 7-5 1-5-4-2-4-4 2-3 3v9l2 16 4 14 3 8h2l-1-16h2v9l3 10 6 10 3 2 4-1 2-3 1-5-1-15-1-9h2l1 9 3 10 6 7 5-1 2-4 1-10-2-19-1-27zm356 31-4 5-4 12-4 16-1 7v10l3 12 5 8 5 4 9 4 10 1-1-6-6-17-4-15h2l1 7 7 19 5 8 4 1 7-6 4-8 1-5v-10l-2-8-7-12-11-13-12-10zm105 16-9 4-16 8-9 6-13 11-8 10-3 10v11l3 11 7 9 4-2 13-24 9-13-1 3-10 18-8 18v3l2 1h16l10-5 6-5 7-10 2-7 3-14v-30l-2-12zm-651 2-19 2-17 4-1 3 6 11 9 14 11 13 11 9 13 7 5 1h12l12-5 7-5 2-5-10-7-11-7-14-7-5-2 11 3 9 4 14 8 6 4h3l1-2v-11l-4-11-8-10-9-6-14-4-9-1zm197 9-5 6h-7l-5-4-1 8 5 15 7 14 6 10 9 12 2 1-1-11-2-15-1-18-6-18zm249 5-5 10-5 4h-7l-5-2 3 9 5 11 6 15 8 17 3 1 3-26v-28l-3-7zm28 4-5 8-4 3-7-1-4-1-1 30-3 24 1 6 1 2 4-1 9-14 4-11 5-24 2-14v-7zm-312 1 5 10 8 12 11 13 14 14 2-1-7-9-6-11-6-12-3-10-2-4h-11zm316 1-4 26-1 7h2l6-15 3-11v-4zm-403 3 1 7 7 20 6 11 4 4-15-6-8-4-4 1 17 11 8 6 19 14 13 10 12 11 7 8 5 9 3 7h6l-8 3-10 8-13 8-11 6v3l-4-1-15 7-9 3-22 3v2l15 1 17-2 25-6 27-8 12-3 21-8h3l-13 5 2 3 15 2h15l6-3 4-1v2l-7 1-2 2 33 5 40 5 12 1 42 2 26 2 29 4 32 6 33 11 16 8 4 1 1 5v7l-1 1v-8l-2-1-6 8-11 11-11 9v3l-7 1-13 8v2h12l15-6 20-9v-2l5-2 8-6 7-13 6-3 10 1 9 5 4 5 3 10 16 12 17 14 14 12 13 12 7 9 5 3 7 3-8-2 2 5 12 23 9 23 4 16 3 16 1 1h44l-1-7 3 6 1 1h5l1-1v-32l-7-8-8-8-8-7-9-12-6-13-2-9h2l1 9 4 10 9 12 13 13 5 4 5 5 1-1v-18l-9-13-11-19-2-6 1 1 8 16 7 11 4 6 2-1v-46l-10-14 4 4 1 2h2l1 3h2v-28l-11-8-8-5h-2l1-2 18 12 2-1v-26l-13-8-10-6-11-6-16-9-9-6 6 3h2l-2-6-9-15-5-12-6-22-1-7v-11l4-17h-2l-2 5h-2l-5 9h-2l-10-19-7-10-2 2 6 16 4 20v22l-3 16-1 6-6-1-9-4-1 2 9 13-6-7-8-10-17-7-16-5-26-7-25-4-9 1 1-2-22-3-12-1-26-1v3l11 5 10 2h5v2l-16-4-10-4-4-3h-6l-2 7-3 11 15 3 38 1 12 2 13 7 9 8 9 4 13 5 21 5h14l5-4v-2h2l-2 4-4 2h-16l-16-3-15-5-14-7-11-9-8-4-11-2-38-1-17-3-6 5-5 1-5-4-4 2-4 3h-6l-5-5-3-1-4 5v2l10 2-23-1v-2h7l-2-4-6-8h-30v-2h29l-1-10-1-1-28-1-2 7-1 5 1 3-3 1-1 6-4 2-1 1h-5l-5-6-5 5-3 2-7-1-5-4-3 3-5 1-7-4-5-7-11 1-6-3-7-6-32-1-11-3-6-4 4 2 8 3 4 1 29 1 9 3 5 5h12l1-4-1-10-1-1-24-2-16-3-19-7-9-4-13-6-17-8h-2v3l-4-7-17-9-15-10-7-8-5-5-9-15-6-11zm132 16 1 14 5 25 5 5 26 17 3 1 1-3-10-16-5-5-10-14-6-9-6-11-2-4zm225 19-5 9-3 3-7 9-9 10-4 4v19l1 1h8l9-14 8-17 5-15v-7zm5 9-3 5-3 11-9 19-7 11 7-1 14-12 9-10 2-3-1-5-8-15zm-188 27 2 5 1-2zm150 3-8 6 1 5 3 5h6v-16zm-129 3-6 3-2 6-1 5v10l2 9 5 7 6 1 5-6v-22l1-10-5-3zm-18 1-6 5-3 9v8l4 11 5 5h6l3-4-2-9v-14l2-8-4-3zm106 0-4 5 2 15-1 11 3 6 3 3h5l6-8 2-7v-14l-3-8-3-3zm22 0-5 3 1 6v18l-1 8 4 4 6-2 4-5 2-6v-15l-3-7-3-3zm-90 0-5 3-3 6-1 5v10l4 11 4 4 4-2 4-7 2-8v-13l-3-6-4-3zm51 1-5 6-1 3v12l4 11 5 6 4-2 5-7 1-4v-14l-3-8-4-3zm-330 45-13 5-10 7-9 7-10 9-11 12v4l16 7 10 4 14 3 6 1h18l10-3 8-6 5-6 5-12-1-5-1-1h-25l-16 3-2 1v-2l20-4 24-1-1-6-7-9-7-5-8-3zm275 25-1 1v24l4 6 2 1h9l1-1v-29l-1-1zm18 2-1 1v28l4 8 5 4 7-1 3-2-1-36-2-2zm20 1-1 1v18l1 15 3 8 6 5h7l5-3 3-6 1-7v-29l-1-1-10-1zm29 2-1 1-2 34 6 4h6l5-3 3-6 1-4v-23l-3-2zm20 2v25l4 2 7-1 5-5 1-3v-15l-1-1zm120 31-7 6-4 9-10 8-17 9-16 7-10 2h-8l-4-1-15 6-13 3-24 3v1l22 2v2l-5 5 4-1 11-5 17-4h4l1 7h2l5-9 14-7 24-8 16-6 10-3 23-6 5-1-1-6-3-5-6-5-8-3zm-186 25-15 4-12 7-11 8-9 8 1 4 8 6 17 8 8 3 4 1h20l8-4 9-9 3-9-4-2-20-2-13 1v-2h36l1-3-7-11-6-5-11-3zm34 27-2 7 2 1 3-1h11l14 5 4 1 7-5v-2l-2-1-27-4zm4 9-10 3-11 11-5 9-8 17-4 16 1 3 9 1 21-2 14-4 12-6 7-7 4-8 1-4v-9l-3-8-3-1-10 5-17 12-7 6 6-7 17-13 9-6v-3l-5-3-7-2zm67 10-11 4-7 6-6 12v12l3 12 7 16 4 8 3 4 5-1 12-13 7-10 6-12 1-6v-11l-3-9-7-8-6-3-3 1-6 21v9h-2l4-26 1-6z"/><path transform="translate(529,190)" d="m0 0h9l4 2 2 3-1 4-4-5-9-1-5 5h-2l2-5z"/><path transform="translate(473,191)" d="m0 0 9 1 5 5v3h-2l-5-5h-8l-3 2-2 4-2-1 2-5 3-1v-2z"/><path transform="translate(501,200)" d="m0 0h9l5 4 1 5h-2l-2-4-4-2h-6l-5 5-2 1-1-3z"/><path transform="translate(569,200)" d="m0 0 6 1 5 5v2l-3-1-3-3h-7l-4 4h-2l2-5z"/><path transform="translate(452,203)" d="m0 0h7l5 3 2 2v3l-3-1-3-3-6-1-5 2-2 4h-3l2-5z"/><path transform="translate(545,208)" d="m0 0h10l5 6-2 2-4-5-7-1-5 5h-2l2-4z"/><path transform="translate(479,213)" d="m0 0 8 1 5 4 1 3-5-2-2-2h-8l-5 5h-2l2-5 3-3z"/><path transform="translate(526,214)" d="m0 0 7 1 6 5 1 3-3-1-4-4h-9l-5 5h-2l2-5 4-3z"/><path transform="translate(501,230)" d="m0 0h9l6 5-1 4-4-5-4-2-6 1-4 4-1 2-2-1 3-5z"/><path transform="translate(441,266)" d="m0 0h14l14 7 7 8 5 10 1 12-3 10-6 10-8 6-8 4-5 1h-9l-11-4-9-6-7-11-2-7v-12l4-11 6-8 9-6zm3 3-9 3-9 6-7 10-2 9 1 11 5 10 9 8 10 4h12l7-3 9-6 6-9 2-7v-10l-3-9-6-8-10-7-8-2z"/><path transform="translate(560,266)" d="m0 0h14l10 4 8 6 7 11 1 6v14l-2 8-6 8-7 6-9 4-4 1h-10l-9-3-9-6-6-7-5-13v-10l4-11 6-8 7-6zm3 3-10 3-9 7-5 8-2 7v12l4 11 4 5 9 6 7 2h13l12-6 8-9 3-7 1-11-3-10-6-8-7-6-11-4z"/><path transform="translate(445,278)" d="m0 0h11l10 6 6 9v13l-3 6-4 5-9 5h-12l-6-3-8-9-2-5v-10l4-8 8-7zm-6 7-2 2v6l3 3 6-1 3-5-2-4-2-1zm17 24-2 2 1 4 5 1 1-5-1-2z"/><path transform="translate(559,278)" d="m0 0h11l9 5 7 9 1 4v8l-5 10-7 6-5 2h-12l-7-4-7-8-2-6v-8l3-7 6-7zm-6 7-2 3 1 6 1 1h7l3-4-2-5-1-1zm17 24-2 2 1 4 5 1 1-5-2-2z"/><path transform="translate(403,435)" d="m0 0h2l3 13 5 8 6 1 5-5 2-6 2-11h2v8l-4 11-4 5-7 1-6-4-5-10z"/><path transform="translate(452,436)" d="m0 0h2l2 13 5 9 7 1 4-4 4-11 1-7h2v8l-4 11-5 5-6 1-6-3-5-10-2-12z"/><path transform="translate(530,436)" d="m0 0h2l-2 16-5 8-4 2-8-1-5-6-2-6-1-4v-8h1l4 16 5 6 4 1 5-3 4-9 1-10z"/><path transform="translate(557,436)" d="m0 0h2l4 16 4 6 6 1 5-5 3-7 2-11h2v7l-3 10-4 6-3 2h-7l-6-5-4-10z"/><path transform="translate(425,476)" d="m0 0h2l2 12 2 7 4 2 1 1h6l5-6 2-9 1-7h2v8l-4 12-6 5h-6l-7-6-3-6-1-5z"/><path transform="translate(479,477)" d="m0 0h2l4 18 5 5h6l6-8 3-14h1l1 6-3 10-4 6-4 3h-7l-5-5-4-10-1-4z"/><path transform="translate(533,477)" d="m0 0 3 1 3 14 4 7 7 1 5-5 3-11 1-6h2v7l-3 10-7 8h-7l-5-4-4-9z"/><path transform="translate(414,518)" d="m0 0 2 4 2 6 4 6 6 1 5-4 3-8 1-5h1v9l-5 8-4 3-8-1-5-6-2-7z"/><path transform="translate(460,518)" d="m0 0 2 1 2 9 3 6 4 3 6-1 4-6 2-11 2-1-1 13-4 6-5 3-7-1-5-6-3-8z"/><path transform="translate(514,518)" d="m0 0 2 1 3 13 5 5 6-1 5-8 2-10 2 1-1 9-4 8-5 4-8-1-4-5-3-9z"/><path transform="translate(568,518)" d="m0 0h2l3 12 2 4 2 1h7l3-4 3-12 3-1-2 11-5 8-2 1h-7l-5-4-3-5-1-4z"/><path transform="translate(433,552)" d="m0 0 2 1 3 11 4 4h7l4-5 2-11 3 1-2 10-4 6-3 2h-7l-6-5-3-9z"/><path transform="translate(541,552)" d="m0 0h1l3 11 4 5 5 1 5-3 3-6 1-7 2-1-1 11-4 6-5 3-7-1-6-7-1-3z"/><path transform="translate(591,552)" d="m0 0h2l2 10 3 5 2 1h6l3-2 4-13 2-1-1 9-4 8-4 2h-6l-6-5-3-6-1-7z"/><path transform="translate(508,552)" d="m0 0h2l-2 12-4 6-3 2h-6l-6-4-4-9v-6h2l3 11 5 5 7-1 4-6 1-9z"/><path transform="translate(294,575)" d="m0 0 5 1 8 6 10 11 7 8 10 8 14 11 7 6 3 6v5l-2-4-4-6-10-9-16-12-12-12-7-9-8-6z"/><path transform="translate(464,583)" d="m0 0 3 1 4 11 2 2h8l4-8 2-6h2l-2 10-3 5-4 2-9-1-4-5-3-8z"/><path transform="translate(537,583)" d="m0 0h2l-1 8-4 7-4 2h-6l-2-2h7l4-4z"/><path transform="translate(568,583)" d="m0 0h2l4 11 3 3h7l3-5 3-9h2l-1 8-4 7-4 2-8-1-5-6z"/><path transform="translate(789,621)" d="m0 0 4 2-1 4-2-3-1 1-1 14h-2v-13z"/><path transform="translate(658,633)" d="m0 0 4 1-11 4h-19v-2l19-1z"/><path transform="translate(380,639)" d="m0 0h17l11 3 14 5 4 2 8 2 9 3v1l-9-1-17-6-10-4-9-2h-19l-9 4-13 10-17 8-14 4-8 1v-2l11-2 18-7 12-6 9-8z"/><path transform="translate(683,643)" d="m0 0h12l10 2 12 5 15 8 5 4 3 5v3h-2l-3-6-9-7-17-8-15-4h-10l-5 3 1 5 10 7 11 5 11 3h8l-2-4-10-7 3-1 9 6 3 4-1 4-2 1h-8l-18-6-13-8-4-4v-7l2-2z"/><path transform="translate(697,652)" d="m0 0 9 2v1h-9l2 4 5 1v2l-6-2-4-4 1-3z"/><path transform="translate(443,655)" d="m0 0 14 1 31 4v2h-9l-32-5z"/><path transform="translate(567,656)" d="m0 0h16l31 4 21 4v2l-9-1-25-4-34-4z"/><path transform="translate(413,662)" d="m0 0h8l25 4 24 1 1 2h-16l-21-2-21-3z"/><path transform="translate(652,666)" d="m0 0 13 5 13 7 10 4 13 5 11 2v1h-11l-11-4-20-9-18-9z"/><path transform="translate(473,668)" d="m0 0h23v2h-24z"/><path transform="translate(500,669)" d="m0 0h49v2h-49z"/><path transform="translate(580,670)" d="m0 0 29 3 36 7 18 6 23 10 18 10 9 6 9 5 7 6h-3l-16-10-11-7-30-15-12-4-19-6-17-3-27-4-11-1-3-1z"/><path transform="translate(773,676)" d="m0 0 8 6 5 4 6 3-4 1-9-6-6-6z"/><path transform="translate(751,682)" d="m0 0 10 5 24 14 9 6 7 5 7 4 19 13 8 7h-3l-17-12-24-16-17-10-13-8-10-6z"/><path transform="translate(712,690)" d="m0 0h10l13 5 10 6 16 8 11 4 9 3 13 5 4 3-6-1-25-9-16-7-23-12-9-3-7-1z"/><path transform="translate(792,690)" d="m0 0 8 1 14 7 13 10 12 11 4 4h-3l-11-10-11-9-15-9-11-4z"/><path transform="translate(798,724)" d="m0 0 6 2 12 9 9 9 12 17 6 11v2h-2l-6-12-10-13-7-8-7-7-10-7z"/><path transform="translate(773,726)" d="m0 0h9l11 4 2 3-12-4h-11l-6 4-2 3v9l-2-1-1-8 4-6z"/><path transform="translate(781,736)" d="m0 0 9 3 12 10 7 10 3 8-1 6-5 4h-7l-9-4-1-2 9 3h8l3-3-1-8-7-11-7-7-10-6-3-1z"/><path transform="translate(800,736)" d="m0 0 4 2 8 7 7 8 2 5-3-1-4-7-8-7z"/><path transform="translate(835,737)" d="m0 0 4 2 10 9 12 12-1 2-14-14-8-7z"/><path transform="translate(782,744)" d="m0 0 6 1 8 7 6 8v6l-2 2-7-1-8-6-9-9-1-4 12 12 7 5h5v-5l-5-6-7-7h-4l2 5 6 5 4 1-1 1h-5l-7-7-1-7z"/><path transform="translate(749,745)" d="m0 0 6 5 8 10 7 7 14 11 2 3-5-2-11-9-9-8-9-11-3-4z"/><path transform="translate(821,758)" d="m0 0 5 5 6 16 1 8h-2l-4-16-6-11z"/><path transform="translate(788,782)" d="m0 0 4 1 18 10 6 5 6 10 8 20 9 13 7 9-1 2-6-7-9-12-6-12-6-15-4-6-7-6-16-9z"/><path transform="translate(805,812)" d="m0 0 5 4 6 9 6 12 6 10 5 13 5 16v2h-2l-6-18-8-19-15-25z"/><path transform="translate(846,852)" d="m0 0 4 2 3 5 8 13 1 5-3-3-7-12-6-8z"/></svg>
