<?xml version="1.0" encoding="UTF-8"?>
<svg version="1.1" viewBox="0 0 1024 1024" xmlns="http://www.w3.org/2000/svg"><path transform="translate(376,194)" d="m0 0 4 2 9 11 10 9 15 9 6 4 9-2 14-8 26-8 20-3h40l20 3 19 6 16 6 7 4 8-1 15-10 11-9 8-9 2-3h3v9l-2 6 4-2h5l-1 9-3 5 6-1 1 2-4 9-6 7h5l-2 4-8 8-5 4 16 30 5 17 4 19 1 10v13l-4 2-3 21-1 3h-4l1 11 9 9 7 11 5 8 4 9 7 20 2 6 2 16v46l-3 16-10 32-4 9-8 17-12 16-4-1h-3l-15 16h-2v2l24 2 29 5 14 2 16 4 33 11 13 6 6 1 2-12v-28l-5-19-4-13-3-3-14-3-8-6-7-8-3-9v-17l3-16 6-15 4-6 5 2 12 10 8 7 10 13 4 9 1 4v13l-4 10-5 6-3 3 8 14 9 14 6-9-2-6-4-5-3-9v-14l5-12 8-10 13-10 20-11 9-3h5l2 2 1 8v35l-2 10-5 12-5 7-10 7-10 2h-12l-2 2-2 9v17l3 18 9 19 6 12 9 10 20 10 10 7 6 4 2 2v160l-1 1h-52l-2-4-4-18-6-19-5-13-8-16-4-7-5-5-7-8-21-21-8-7-13-10-8-5h-13l-20 6-11 4-10 3-17 6-14 6-6 12v3l10 7 6 12v14l-4 11-9 14-11 12-4 4-5-1-7-12-7-17-2-6v-18l4-9 6-7 15-7v-8l-16 4-11 4-6 4 1 6v15l-3 8-8 9-14 7-15 3h-12l-1-2 21-3 16-6 8-7 5-10v-11l-2-6-7 1-9 6-11 8-2-1 9-8 8-6 7-4-1-4-1-2h9l4-4-24-4-10-1-1 1v5h15l6 2-4 1h-18l-5 3-9 9h-2l-3 9-8 16-2 12v4h4v2h-7l-1-5 4-18 9-17v-1l-18-1-12-3-21-11-6-5 1-6 10-9 11-7 8-5 16-4h9l8 2 8 6 7 10 4 4h31l15-3 15-5 10-4 10-7 8-5h2l1-3 8-7 7-7 2-5-16-8-18-6-18-5-11-1-2 13-4 6-3 3-10 1h-2l-4 6-2 2-11 1-5-1-6 6h-11l-7-7h-13l-5-5v-2l-11-2-7-5-2-9-1-17-1-1-33-3-60-9-21 1-18 6-13 4-16 3-12 3h-25l-8-1-8 16-6 7-12 6-5 1h-18l-20-5-17-7-7-5 1-5 8-10 10-10 10-7 13-8 7-2h20l7 2 8 6 8 13h11l13-2 25-9 23-13 12-10-3-7-9-11-10-10-13-10-11-9-14-9-19-13-6-2-10 8-7 3h-20l-14-7-10-8-10-12-6-9-7-12-2-7 3-3 14-4 15-2h18l12 2 14 7 6 5 7 12 1 3 1 16 14 7 6 2v-3l-4-9-6-18-3-11-12-6-7-6-6-11-1-6v-9l2-9 4-10 2-6 5-8h2l2-5 7-9h3l12 14 9 15 5 11 1 5v17l-3 8-3 1-2 4-5 4-3 3-4 3 8 17 15 22 8 7 18 11 10 6 16 8 22 10 19 7 9 2 9 1h18l2-3-1-4-11-6-14-10-11-9-22-22-8-10-8-13-8-16-4-10-3-13-2-14v-28l2-11 1-10 5-14 11-23 6-8v-9l-1-7-5-2-2-6-1-5v-12h-3v-22l3-21 8-23 7-14 5-8-1-2-6-3-10-9-2-3 4-2-7-10-1-6 2-1 6 2-5-6-2-8 4-1 7 4-3-9zm254 12-6 7-13 9v2l-5 2-7 4-13 5-14 5-12 3-24 12-13 11-8 9-7 12h-2l-7-11-9-10-10-9-22-12-9-3-8-2-18-7-16-8-12-8-9-9-5-1 2 6 4 6-8-3h-3l1 4 7 8 3 2-7-1-6-1v3l9 9 5 2 9 1v2l-12-2-4 1v3l11 6 23 5 29 4 17 4 19 10 15 14 9 12 2 3h2l2-5h2l7-10 8-9 16-10 10-5 23-5 29-4 18-4 10-6v-4l-16 1v-1l11-2 6-4 5-5 3-2-1-3-12 3h-2l5-3 8-10-2-2-10 5 6-13zm-140 5-21 4-24 7-15 8v4l32 11 18 10 10 9 5 4 11 14h2l1-4 4-2 8-10 11-10 13-8 10-5 18-5 14-5 1-4-19-9-16-4-17-4-7-1zm129 44-19 5v3l11 6 3 1-1 5 8 7 4 5h2v2l-3 1 2 5 5 8 1 7-1 4 1 12v3h-3l-1 14-4 9-5 6-5 7v2l-5 2-8 4 1 4-15 3-1 1h-19l-4-1h-14l-8-4-3-3-7-1-2-4-3-4-6 1-6 10-4 5-6-1-7-8-4-6-5 1-5 7h-6l-8 6-5 1v-2l-9 1 14-7 1 4 7-6v-2h2l1-2 4 1 4-5 2-6 4 1 3-9 3-7 5-1 2-10 1-1 1 8 2 4 4 1 1 5-6-2-1-3-4 1-2 3-4 2-4 13 1 4 8 11 4 2 7-8 4-8v-7l4 2h2l5 10 6-2 2 6 7 6 1-5 14 7 4 1h13v-4l5 1h13v-3-2l14-4 7-8 3-8 1-4 5-1 1-3v-18l-1-4 5-1-3-9-4-7h6l-2-6-11-12 1-5-8-7-10-4 4-2v-3l-10-3h-18l-17 3-17 8-13 9-5 5-6 7-8 14-3 3-2-6-5-8h-2l-2-5-15-15-16-8-11-5-12-2h-17l-11 3-1 3 5 1v2l-6 2-8 4-5 6 1 2-7 8-4 7v4h4l-5 12 1 5 3-1-1 8v9l1 10h6l3 12h2l1 4 6 5 10 2 2 6h12l5-2 1 5 9 1h-9l-21-3-3-1-1-5-11-6-8-12-3-1-3-9-2-15-3-1 1-11 1-6h-4l5-12 4-6 2-9 8-7 3-2v-5l5-4 8-3-2-3-13-3h-7l-4 5-9 15-5 16-4 12-4 19-1 13 1 1h5l-1 14 2 9 4 2 2 14 5 7 10 7 10 3 5 5 7 2 25 1-2 4v3h12l12-4 5-1v3l9-1 2 5 12-1 9 5h8l6-4h10v2l-9-1-9 5-7-1-8-4-13 1-3-4-13 2-3-2-4 1h-20l-2-2v-4l-3-1h-17l-3 8-8 30-1 6-2 33-1-14h-3l-5 6-7-1-3-4-4 2-5 3-5-1-3-4-5 1-3 3v10l3 17 5 15h3l1-1 5 10 4 5h5l3-5-1-21-1-3h2l2 12 4 8 3 3 5-2 2-2 1-13-1-8v-4l3 16 7 24 7 15 3 7h2l2 5 8 12 10 13 17 17h7l2-1 9 1 6 1 4-1v2l-4 2-2 5-1 3v13l4 9 2 2 5-1 3-5 2-7v-15l-4-6 4 4 5 7h25l2-2 3-8 3-2 5-1v2l-5 1-4 5-1 2v13l5 10 3 3 4-1 5-5v-3h2l1 6 4 5h5l4-5 3-7v-16l-4-8-1-1h-9l-4 5 1 5h-2l-2-6-3-4h8l1-1h10l1 1 9-1v2l-4 2v29l3 3h5l5-5 2-4v-17l-5-8-2-1h6l13-10 11-11 10-15 1-4h2l1-5-8-20-9-24-4-14-6-27-1-9v-37l2-12 2-9-1-1-14 1-5 2 1 2h2v2l-6-1-3-7h22l10-2 3-3 21-9 11-8 3-17 2-2h2l1-3 1-20 4-1-1-18-4-21-6-17-9-17-3-2-3-6-2-2zm19 127-7 5v2l-6 2-14 7-2 3-8 3-3 3-4 16-1 6v29l3 20 4 20 6 18 6 11 6 5h6l5-5 3-10 1-8 3 9 4 10 6 5 7-1 3-5 3-12v-12h2l1 15 4 8h4l3-8 3-13 1-8v-13l-1-14h-3l-4 1h-5l-7-6-4-4-3 8-3 5h-9l-5-5-3-4-4 1-5 10h-10l-5-6-5-11v-1l7 12 6 5h5l3-3 1-3 2-17 2 3 4 9 4 6 4 3h6l4-6 1-4 1-13 4 9 6 7 4 4 5-1 4-6v-16l-7-22-4-10-6-10-5-10-11-13zm-255 5-7 10-8 14-5 14-3 9-2 8-1 9v14l4-1 3-7v-3h2l1 12 5 5 5-4 3-9v-3h2l2 11 3 5 4-1 6-7 4-10 2-10 1-10 7-24 1-7-11-5-5-5-11-5zm-100 50-5 6-4 5-8 15-4 13-1 11 1 9 4 8 7 6 6 4 5 1 2-3 1-9 1 10 3 2 9-6 7-8 3-8v-12l-5-15-10-17h-2l-2-4-7-8zm441 57-4 8-4 13-3 12v13l3 10 7 9 8 5 11 1 1-2-6-19 2 4 7 13 4 2 8-7 3-8v-14l-2-8-7-10-12-13-5-5-6-4zm97 13-16 8-9 5-14 11-7 7-5 8-1 4v15l2 7 6 8 5-1 9-16 5-8-12 25 1 5h17l11-7 6-7 4-7 4-15v-32l-2-9zm-601 2-16 2-12 3-2 2 1 5 7 13 8 11 6 7 8 7 8 5 10 4h14l14-7 3-3v-5l-18-12-8-4 6 2 16 8 5 4 4-1v-12l-4-10-9-10-8-5-16-4zm184 9-4 4h-8l-3-1-1 7 1 2-2-1-13-1 1 5 11 17 14 15 6 6h2l-2-5-1-2 8 10 2-2-4-40-5-14zm229 5-6 9-2 2h-10l-1 3 6 14 6 15 7 14 3 1v-4h2l-1 9 2 4 5-1 7-11 4-10 2-11v-5h2l-1 5h3l6-15 1-12-5-1v2h-2l-1-5-4 4-1 3-3 2h-11v17h-2v-21l-5-8zm-341 8 2 10 8 20 5 7-15-6-3-2h-3l2 4 10 6 17 13 14 10 11 9 6 5 9 11 7 14-6 4-10 7-12 7-6 4v2h-6l-15 7-14 3-10 1v2l16 1 25-4 27-8 20-5 10-4 1 4 12 2 21 1 38 6 33 4 16 1 33 1 21 2 31 5 28 6 22 8 16 7h3l1 6h-4l-7 9-7 7-10 8-3 3-7 3-8 5v3l-5-1-15 6-12 2-15 2v3l11 1 3 1-1 4 6-1 11-4 7-2h7l1 5h2l4-7 19-9 19-6 19-7 17-4 12-3 11 9 17 14 11 9 12 11 5 4 7 9 4 3 1 6 10 19 8 20 5 19 2 12 1 1h40l2-2 2 2 5-1v-29l-5-6 1-1 3 2 1-1v-16-4-43l-4-6 4 1v-25l-2-2 2-1v-24l-8-6-9-5-12-7-18-10v-4l-5-10-5-8-4-10-5-18-1-6v-15l3-13h-3l-1 3-4 4-2 5h-3l-2-6-8-15-3-4h-3l1 6 4 11 2 10v35l-3 11-6-1-7-2-1 2-5-5-20-8-26-7-11-3-17-3h-11l-10-2-16-2-28-1-2 2-1-1h-6l-2 3-3 13-6 5-6 1-2-2h-5l-3 3h-7l-4-4-5 1-2 4 3 1v2l-13-2 4-2-2-5-4-5h-27v-2h25l1-3-2-7-25-1-3 5-1 8-3 5-3 4h-6l-5-4-6 5-8-1-2-2-4 1-6 1-6-4-4-5-2-2 1-1-1-11-7-2-24-3-16-4-20-9-7-3-18-8-3-1-4-4-20-11-3-1v-2l-8-7-9-10-6-11-5-9zm122 14v14l5 22 8 7 21 14 3-1-1-5-7-10-9-11-10-15-8-14zm206 19-8 11-8 10-9 10v17l1 1h7l6-8-2 4v3l7-1 7-6 5-6 6-5 2-3-1-9-6-10-4 1v-9zm-31 35-5 4v6l2 4h5l1-1v-13zm-118 2-5 3-3 8v13l3 8 4 5 5 1 5-5 1-30-4-3zm-16 1-6 5-2 7v10l4 9 4 4h6l2-3-1-6v-18l1-5-3-3zm-222 42-14 6-10 8-11 9-12 12-2 4 4 4 18 7 5 2 14 3h19l9-3 11-9 5-12-1-6-1-1-14-1 14-1 1-3-2-5-8-9-10-5zm254 23-2 2v21l4 6 2 1h8l1-1v-27l-1-1zm16 2-1 1v27l5 8 5 2 7-2v-13l-1-21-2-2zm18 1-1 1v21l1 10 4 8 3 3h9l5-5 2-5 5 4 2 1h6l5-4 2-6v-24l-1-1-15-1-1 1-1 10v15h-2v-26l-5-2zm46 4-1 1v22l4 2 6-1 6-7v-14l-5-2zm-63 51-13 4-16 10-10 9-2 1v5l6 5 21 10 8 2 20-1 6-4 8-8 1-9-8-2 8-1 1-4-7-10-5-4-8-3zm97 43-11 4-7 9-3 6v13l4 13 5 13 6 9h5l9-9 6-8v-2h2l6-12 1-4v-14l-3-9-7-7h-7l-3 8-1 6h-2l2-8 1-7z"/><path transform="translate(527,216)" d="m0 0h11l3 3v4l-4-2-1-1h-8l-3 3-3-1 2-4z"/><path transform="translate(474,217)" d="m0 0h8l5 2 2 2-1 4-3-1-2-3h-8l-4 4h-2l2-5z"/><path transform="translate(501,225)" d="m0 0h10l5 6-2 2-5-4h-6l-4 3-4-1z"/><path transform="translate(563,225)" d="m0 0 8 1 4 5h-4l-2-1h-7l-4 2 1-4z"/><path transform="translate(456,228)" d="m0 0h8l6 5-2 2-4-3h-9l-3 4-3-1 4-5z"/><path transform="translate(542,232)" d="m0 0h9l5 6h-3l-2-2-7-1-5 4v-3z"/><path transform="translate(480,237)" d="m0 0h7l5 3 2 3-6-1h-8l-3 3h-2l1-5z"/><path transform="translate(523,238)" d="m0 0 9 1 6 5-2 2-4-3h-9l-5 3-1-3z"/><path transform="translate(501,253)" d="m0 0h11l4 3-1 4-7-5-6 1-4 4h-2l1-4z"/><path transform="translate(441,311)" d="m0 0h14l13 5 9 7 3 5v5l-4-2-8-7-8-4-4-1h-14l-9 3-6 4-5 6-5-2-6-7v-4l10 2 10-7z"/><path transform="translate(560,311)" d="m0 0h13l10 3 6 4 6 3 8-3 1 4-8 10-5-1-5-6-8-4-8-2h-10l-13 4-5 4-5 6h-3l1-6 4-6 11-7z"/><path transform="translate(541,404)" d="m0 0 9 2 10 3v2h-11l-4 1-12-1-2 3h-3l1-7 2-2 9 2z"/><path transform="translate(412,442)" d="m0 0h2l3 12 3 4v2h7l4-5 3-12 3-1v8l-4 10-7 4-5-1-5-4-3-6z"/><path transform="translate(457,442)" d="m0 0 3 2 1 10 4 7 7 1 3-4 5-14h2v8l-4 9-4 4-7 1-6-4-4-11-1-8z"/><path transform="translate(528,442)" d="m0 0h2v11l-3 7-4 5-6 1-5-2-5-6-1-5v-9l2 3 4 13 3 2 7-1 4-7z"/><path transform="translate(554,442)" d="m0 0 2 1 5 16 1 3h6l6-7 2-11 3-1v7l-4 11-4 4h-8l-6-5-3-8-1-9z"/><path transform="translate(432,480)" d="m0 0 3 1 3 15 4 2h6l3-4 4-14h2v8l-4 9-5 5h-7l-7-8-2-6z"/><path transform="translate(482,480)" d="m0 0h2l4 16 4 4h5l5-6 3-12h2v9l-4 8-5 5h-7l-6-6-3-10z"/><path transform="translate(532,480)" d="m0 0 3 2 3 13 2 5h7l5-6 2-10 1-2h2v7l-3 9-6 6h-6l-6-5-4-10-1-8z"/><path transform="translate(465,518)" d="m0 0 2 2 3 10 2 3h8l3-5 2-9 2-1-1 13-5 6-6 1-5-3-4-5-2-5v-6z"/><path transform="translate(514,518)" d="m0 0 3 3 2 9 3 3 7 1 4-10 2-6 2 1-1 9-6 8-2 2-8-1-4-6-2-6z"/><path transform="translate(564,518)" d="m0 0h2l3 11 3 3h6l3-4 3-10 3 1-2 9-6 8h-8l-7-8-1-9z"/><path transform="translate(442,519)" d="m0 0h2v8l-7 9-9-1-4-4-2-6v-5h2l4 9 1 2 6 1 4-4z"/><path transform="translate(584,549)" d="m0 0 3 1 3 10 3 3h6l4-9 2-4h2l-1 8-4 7-2 1h-8l-6-7-2-5z"/><path transform="translate(460,549)" d="m0 0h2l-1 10-6 7h-9l-5-6-2-5v-5l3 1 3 9 3 3h6l3-4z"/><path transform="translate(508,549)" d="m0 0 2 1-2 11-5 6h-8l-5-4-3-7v-5h3l3 9 3 3h6l3-4 2-9z"/><path transform="translate(539,550)" d="m0 0 2 1 2 8 4 4 7-1 3-5 2-7h2l-1 10-4 5-3 2-8-1-6-7z"/><path transform="translate(313,570)" d="m0 0 5 2 7 5 7 8 10 11 12 9 10 8 5 6 1 5-13-13-16-12-8-7-9-11-7-6-4-3z"/><path transform="translate(469,577)" d="m0 0 3 3 3 8 1 1 8 1 3-9 2-4 2 1-1 8-5 6-7 1-5-2-4-7-1-6z"/><path transform="translate(535,577)" d="m0 0 2 1-1 8-5 6-2 1h-6v-2l6-2 4-8z"/><path transform="translate(584,577)" d="m0 0 2 2-1 6-4 6-3 2-8-1-5-6-2-7 3-1 4 9 2 2h6l1-2h2l2-9z"/><path transform="translate(766,613)" d="m0 0 4 1v2l-2 1-2 11h-2v-12z"/><path transform="translate(645,623)" d="m0 0h3v2l-6 3h-19v-2l18-2z"/><path transform="translate(389,629)" d="m0 0h20l19 6 20 7-1 2-10-2-12-4-9-4-6-1h-22l-8 4-11 8-17 8-12 3h-6v-2l13-3 23-10 9-8z"/><path transform="translate(665,633)" d="m0 0h22l13 5 16 9 6 7-1 3-5-5-5-4v-2l-9-3-11-5-10-3h-11l-2 2v5l15 9 13 4h5l-1-4-7-5 3-2 8 7 2 2-1 5h-11l-13-4-16-10-1-1v-9z"/><path transform="translate(681,641)" d="m0 0 9 1-1 2-5 1 4 3-1 2-7-4-1-3z"/><path transform="translate(451,644)" d="m0 0h15l22 3 1 3h-11l-27-5z"/><path transform="translate(566,644)" d="m0 0h15l33 5 9 2 1 3-16-2-35-5-8-1z"/><path transform="translate(422,650)" d="m0 0h10l18 3 23 2v1h-28l-22-3z"/><path transform="translate(641,654)" d="m0 0 8 2 16 8 20 8 10 2v2h-11l-18-8-8-3-17-9z"/><path transform="translate(502,656)" d="m0 0h43v2h-43z"/><path transform="translate(576,657)" d="m0 0 13 1 20 3 30 6 18 7 9 4 14 7 14 8 14 9 2 4-5-2-17-10v-2l-6-2-19-10-34-12-54-8z"/><path transform="translate(752,664)" d="m0 0 5 2 11 8v2l-4-1-10-7z"/><path transform="translate(732,669)" d="m0 0 6 2 20 11 31 20 11 8 7 6v2l-5-2-10-8-19-12-16-10-20-12z"/><path transform="translate(698,676)" d="m0 0h9l11 4 16 9 16 7 20 7 3 3-7-1-16-5-18-8-19-10-9-3-6-1z"/><path transform="translate(770,676)" d="m0 0 9 1 12 6 13 11 12 11-3 1-7-7-13-10-17-10-6-2z"/><path transform="translate(777,708)" d="m0 0 5 1 11 8 6 7 4 4 10 15 4 9h-3l-7-12-11-14-11-11-8-5z"/><path transform="translate(751,709)" d="m0 0h11l9 4-4 1-4-1h-13l-5 5-1 7h-2l-1-2v-6l4-5z"/><path transform="translate(760,718)" d="m0 0 9 3 10 8 7 11 2 5-1 7-4 4h-8l-7-4 3-1 3 1h8l2-2-1-8-6-9-7-7-11-6z"/><path transform="translate(779,720)" d="m0 0 4 1 8 7 5 8v2l-4-2-4-6-9-9z"/><path transform="translate(811,721)" d="m0 0 4 1 13 12 5 5v2l-4-1-18-18z"/><path transform="translate(761,725)" d="m0 0 6 1 7 8 5 5v7l-3 2-7-2-10-8-4-5 1-3 10 10 6 4h3l-1-6-8-9h-3l2 5 6 3v2l-5-1-6-5-1-6z"/><path transform="translate(730,727)" d="m0 0 5 2 9 11 7 7 10 8 2 4-5-2-14-12-8-8-6-8z"/><path transform="translate(796,739)" d="m0 0 4 2 4 8 3 10v5l-2 1-4-16-5-8z"/><path transform="translate(768,761)" d="m0 0 4 1 16 9 5 5 8 16 6 13 9 13 3 5-2 1-4-5v-2l-3-1-7-11-9-19-4-8-8-7-11-6z"/><path transform="translate(783,790)" d="m0 0 3 1v2l3 1 12 23 4 6 7 22-1 4-2-1-7-21-8-16-9-16z"/><path transform="translate(820,825)" d="m0 0 7 6 6 11 1 4h-3l-6-11-6-9z"/></svg>
