<?xml version="1.0" encoding="UTF-8"?>
<svg version="1.1" viewBox="0 0 1024 1024" xmlns="http://www.w3.org/2000/svg"><path transform="translate(592,299)" d="m0 0h34l15 3 17 6 16 8 11 7 5 4 12 12 9 11 12 23 4 16 2 13 1 40 4 14v5l9-2 6-1h16l6 4 3 7-1 8-3 9-7 10 25 5 7 2v2l-26-2h-12l-7 6-5 5-10 8-16 9-15 7-8 3-22 5-8 6-5 2v2l15-4 50-8 18-2 15-1h12v2l-30 3-50 8-51 12-18 8-11 4h-2l3 5 4 3 16-4 24-7 31-7 19-4 22-3 24-3 14-1h14v2l-33 3-29 4-27 6-34 8-24 7-11 3h-3v11l-4 6-5 4-12 5-9 2-18 1-17-2-9-1-12 5-16 6-33 13-15 6-24 10-22 9-21 8-19 7-28 10-41 12-16 3-29 5h-5v-2l26-5 19-4 30-9 17-5 16-6 19-7 12-5 13-5 29-12 14-6 35-14 13-5 9-4 12-4 6-3h3l-1-2-11-4-6-3-12 2-22 8-14 6-14 5-17 7-14 5-29 11-18 7-17 6-13 5-27 9-10 3-35 10-17 3-3-1 7-2 25-7 14-4 29-10 12-4 20-8 15-5 11-5 24-9 13-5 45-18 12-5-30-1-18-3-15-4-6-2-7-1-2 4-8 8-10 6-7 1-4-2-12-1-4-3-9-2-6-6-12 7-11 6-10 7-18 11-13 10-16 10-11 7h-2v2l-23 12-9 4-4-1 16-9 17-11 15-10h2v-2l39-26 10-7 19-11 6-4 7-4 4-9 7-11 4-5-1-5h-3l-5 12-9 13-8 6-2 1h-6l-4-3-9 1-5-2-3-3-2-7-9-4-2-5 2-12 5-13 6-10h2l2-5 11-12 9-8h2v-2l7-3h8l3-20 6-27 3-23 4-16 4-13 2-5h2l2-6 7-8 6-3h5l8 6 9 8 13 5 24 1 19 4h15l3-3 7-21 5-13 13-23 11-14 7-6 5-5 9-7 14-8 11-5 15-5zm2 6-21 5-13 5-16 9-15 13-11 12-6 8-8 14-9 19-9 28-1 6-2-8h-20l-10-2-10-1h-19l-11 1 2-1-1-4-11-6-8-8-3-2h-5l-7 8-8 17-4 16-4 29-6 24-3 23-1 18 3 17 3 6 4-2 7-6 12-5 8-2 16-1 19 2 17 4 28 5h6l2-2v-5h2v14l4 11 7 11 10 11 15 11 16 8 15 5 15 2h23l15-3 10-6 2-4v-6l-5-7-16-12-8-7-10-10-6-8-4-9-2-12 4 8 5-1 8-5-1-3-16-6-15-8-7-5 3 1 3 2 3-1-6-9-2-5-1-7v-8l2-9 6-10 4-5 4-3-3-13-1-9v-11l1-11 7-16 9-12 13-9 10-4 14-2 16 1 8 2 16 8 9 7 3 5 5 5 5 8 2-1 4-11 8-14 7-7 10-4h7l6 1 1-2-6-9-8-11-14-14-14-10-20-10-22-5-7-1zm103 63-6 4-10 10-6 12-5 14v2l-2-1-5-10-9-11-9-8-15-8-12-3h-16l-14 4-12 7-11 11-8 15-3 11v20l3 12 1 6-7 7-8 13-1 4v13l4 9 4 6 8 8 17 9 17 6-7-1-11 7-6 4 4 8 9 11 10 9 10 7 9-3 13-5 12-5 16-8 14-8 13-10 12-12-3-1-13 5-27 5v-2l13-1 18-6 16-8 10-7 10-9 8-11 3-6 3-10v-17l-3-11-1-41-3-17-4-12-7-6-3-1zm54 95-16 3-2 6-3 11-8 14-8 9-16 12-10 14-4 5 7-1 21-8 20-11 11-10 8-7 9-11 2-5h2l4-10v-7l-5-4zm-407 50-10 5-12 11-9 12-9 16-4 14 2 4h7l6-5-2 5-1 1v8l3 4 8-1 11-9-5 8 1 4 7-1 7-7 9-16 4-10-5-12-2-6-1-7v-17zm51 25-15 3-11 6-5 4-1 5 8 10 11 9 15 10 21 9 13 4 28 4h30l19-2v-3l-13-12-9-12-5-10-3-13-1-1-21-3-21-5-21-3zm-28 34-7 10-4 8-2 6v7l1 1 9-1 7-4-5 7 2 4 8-1 9-6-5 6v2l8-1 9-6 7-7-1-4-16-8-8-6-9-7z"/><path transform="translate(703,415)" d="m0 0 7 1 8 9 2 7v8l-4 10-5 4-5 2h-9l-5-4-2-5-1-6v-8l2-8 4-6zm-1 4-7 6v1l11 1 6 7 1 4v8h2l1-4v-12l-4-8-5-3zm-6 11-2 2v5l6 1 2-4-1-3z"/><path transform="translate(606,420)" d="m0 0 8 1 8 4 6 8 2 6v11l-3 9-4 5-8 2-14-1-10-5-4-5-1-5v-15l6-9 6-4zm-3 5-6 3-6 7-2 4v10l5 10 5 1-2-6v-9l3-7 5-4 5-2 9 1 5 2-2-4-6-5-2-1zm1 12-2 1 1 7 4 2 4-3v-5l-2-2z"/><path transform="translate(666,452)" d="m0 0h8l6 3 10 8 6 9v6l-8 5-4 1-1 12-6 5-4 1h-8l-10-4-8-6-6-7-3-6 1-5 11-9 10-10zm0 4-8 6-8 8-7 5 1 3 5 2 7 1h25l9-3 2-2v-5l-9-10-9-5zm-22 26 6 8 6 5 8 3h10v-2l-12-3-6-4-8-7zm13 2v3l8 5 9 2 1-3-5-6zm21 0v5l2-4zm0 8 1 2z"/><path transform="translate(608,667)" d="m0 0h12l30 11 5 4 9 21 1 8-4 9-6 2-24 3h-36l-28-4-3-1-1-2v-9l4-14 5-5 14-6 20-16zm3 3-9 6-9 8-16 8-6 4-5 13-1 6 2 2 26 4 9 1h26l20-3 10-2 3-6-1-7-6-15-5-8-27-9-5-2z"/><path transform="translate(611,681)" d="m0 0 6 1 8 5 10 4 3 5 1 3v9h-2l-2-10-3-5-12-5-5-4-5-1z"/><path transform="translate(708,682)" d="m0 0 12 1 10 3 6 5 4 9v9l-5 3-4 1h-28l-11-3-3-3v-7l6-8 7-7zm0 4-8 7-7 7-1 5 7 3 7 2 11 1 16-2 4-2v-6l-4-8-4-4-14-3z"/><path transform="translate(436,686)" d="m0 0 14 1 7 3 13 10 2 4v11l-2 2-12 3-14 2h-20l-12-3-2-3 1-7 9-10 6-5 5-5zm-2 4-12 12-6 5-2 3v6l9 2h23l21-4 2-2-1-9-11-9-4-3-5-1z"/></svg>
