<?xml version="1.0" encoding="UTF-8"?>
<svg version="1.1" viewBox="0 0 1024 1024" xmlns="http://www.w3.org/2000/svg"><path transform="translate(584,316)" d="m0 0h36l16 4 16 6 19 11 10 9 9 9 7 10 10 19 5 21 1 6 1 40 4 13 9-2h18l6 4 2 5v9l-5 12-2 2v3l26 6v3l-19-1h-16l-13 12-12 8-9 5-20 9-22 5-5 4h-2v2h-3v2l21-5 34-6 26-2h17l-1 2-33 4-47 8-39 10-23 10h-3l5 6 17-4 26-7 23-5 19-4 36-5 10-1h19l1 2-3 1-31 3-37 6-40 10-13 3-23 7-1 9-4 6-7 5-10 4-6 1h-30l-12-1-11 4-19 8-15 5-16 7-13 5-11 5-16 6-16 7-9 3-20 8-14 4-10 4-11 4-13 3-19 6-37 6h-6v-3l24-4 24-6 11-3 25-8 20-7 28-11 19-8 10-4 19-8 18-7 9-4 12-4 10-5 12-4 4-2h3l-1-2-12-5h-9l-18 6-12 5-16 6-11 5-15 5-21 8-25 10-15 5-18 7-34 11-13 3-19 6-14 2-1-2 29-9 12-3 25-9 10-3 19-8 14-4 15-7 20-7 12-5 11-4 12-5 22-9 2-1-27-2-18-3-13-4h-9l-7 8-9 7-9 1-1-1-13-2-6-3-7-3-2-2-7 1-12 7-11 7-13 8-6 4-10 8-20 12-8 6-19 10-10 5-3-1v-2l20-11 9-7 16-10 12-9 26-17 13-9 13-7 10-7 7-14 5-7v-4h-2l-5 12h-2l-2 5-6 7-6 4h-8l-1-1-13-1-5-5-3-6-6-3-2-3 1-13 6-14 4-6 3-3 3-5 11-12 11-8 10-2 8-43 4-24 7-25 4-5 3-5 4-5 5-3h7l13 11 8 4 3 1 27 2 13 3h16l3-4 10-29 8-13 4-8 11-14 10-9 11-8 18-10 19-6zm-1 6-18 5-21 10-5 4-4 4-5 4v2l-4 2-5 5-8 10-9 16-8 17-5 16-3 11h-2v-4l-22-1-11-2h-29l-3-5-9-5-8-8h-8l-6 9-7 15-3 11-3 23-5 22-2 7-2 17v28l2 9 2 3 5-1 5-4 13-6 11-2h15l15 2 22 5 14 2h9l3-6v14l5 12 1 2h2l2 5 9 10 10 8 19 10 18 5 6 1h27l12-3 9-5 2-5-1-6-6-7-10-7h-2l-2-4-10-9-9-9-5-12-1-7 4 4 8-4 2-3-5-3-24-11-3-2 3-1-1-4-4-8v-19l4-10 8-10 1-4-3-16v-13l2-12 6-12 8-10 14-9 5-2 10-1-15 5-11 7-7 7-9 17-1 3v31l1 4v7l-6 7-6 9-1 3v15l6 11 8 9 16 8 7 3h3l-3 3-11 7-1 5 6 9 5 6 8 7 10 7 10-3 16-6 21-10 16-10 11-9 7-7v-2l-8 1-7 3-6 1 1-1 12-4 6-4 7-3 11-8 8-7 9-14 3-8 1-16-3-13-1-31-2-17-4-16-7-6-12-1h13l1-3-9-14-11-12-8-7-10-7-16-8-13-4-10-2zm147 145-12 3-4 9-2 8-7 11-8 9-9 7-8 7-8 12 2 2 9-3 16-6 12-7 5-3 12-11 6-5 7-9 6-10 1-4v-7l-4-3zm-373 46-10 6-13 13-4 6v2h-2l-7 14-3 10 1 5 1 1h6l5-3-2 4v8l3 3 7-1 6-5v7l4 1 5-3 6-7 8-15 1-9-2-7-3-7-2-21-2-2zm45 23-15 4-10 7-1 7 9 10 14 11 24 12 18 5 21 3h34l9-1 3-2-1-4-10-9-9-13-4-8-2-11-5-2-19-3-10-2-22-4zm-22 31-9 11-3 9v9l4 1 7-2v2l1 5 8-1 5-3-1 5 9-2 8-6 4-4-1-4-17-10-13-10z"/><path transform="translate(680,379)" d="m0 0v3l-8 7-4 5-7 15-3 9h-2l-6-11-9-11-10-7-12-6-8-2v-1h8l16 8 9 7 5 7 9 9 1-6 9-17 7-7z"/><path transform="translate(594,437)" d="m0 0h10l10 6 6 9v5h-4l-9-7-4-1h-10l-7 3-5 4h-3v-6l4-6 6-5z"/><path transform="translate(688,437)" d="m0 0h11l4 5-1 5-6-2-8 1-8 6-4 4-1-3 5-10z"/><path transform="translate(653,457)" d="m0 0h10l9 6 6 5 3 5v8l-8 5-2 1-1 10-7 6h-11l-9-4-9-7-5-8v-7l13-11 7-7zm1 3-10 8-11 10 5 5h34l5-3 1-1v-5l-10-10-7-4zm-18 24-1 2 7 8 4 3 6 2h8l-1-3-11-3-10-9zm10 2 1 4 6 4 9 1-1-4-4-4z"/><path transform="translate(599,655)" d="m0 0h15l17 6 12 6 8 16 2 5v10l-5 6-6 2-15 2h-41l-25-4-1-1v-13l4-11 5-4 15-8zm4 2-11 9-9 6-15 8-3 4-2 7-1 9 7 2 23 3h31l21-3 5-5v-8l-4-11-5-10-9-3-22-8z"/><path transform="translate(604,667)" d="m0 0 6 1 8 5 8 4 4 6v8h-3l-3-10-4-3-11-5-1-2-4-2z"/><path transform="translate(692,668)" d="m0 0 14 1 9 4 6 7 2 5v8l-7 4h-30l-9-3-1-1v-9l6-8 7-6zm0 4-7 7-5 4-2 5 3 3 8 3 15 1 12-2 3-2v-7l-6-9-12-3z"/><path transform="translate(442,672)" d="m0 0h9l9 2 11 8 4 5 1 2v10l-4 3-18 3h-25l-9-3-1-1v-7l9-11 10-9zm-2 4-17 17v6l2 2 7 1h22l15-3 3-2v-10l-13-10-3-1z"/></svg>
