<?xml version="1.0" encoding="UTF-8"?>
<svg version="1.1" viewBox="0 0 1024 1024" xmlns="http://www.w3.org/2000/svg"><path transform="translate(683,209)" d="m0 0h19l11 3 16 8 10 9 7 11 2 7v10l-6 12-7 8-11 7-9 3-6 1h-19l-22-5-2 14-4 14-8 16-6 9 7 7 10 13 6 10v2h2l6 11 4 10 9 17 13 11 7 11 3 9 1 5v19l-3 15-9 19-7 11h-2l-2 4-8 10-10 10-6 4-4 9-6 8-7 6-6 3h-2l1 11 7 8 10 9 11 8 21 9 6-2 8-3 13-1 12 4 8 6 6 7 2 8-1 12-6 10-8 10-7 7-12 8-10 5-8 2h-8l-6-1-5 15-9 11-7 7-16 10-10 5-16 3-13-2-12-5-19-12-13-11-5 1-23 12-10 4-9 10-5 1 2 4 15 4 10 5 6 9 1 4v9l-3 7-5 6-12 6-8 2-15 1h-12l-13-1-11-6-11-11-7-11-7-12-3-9v-8l-11 7-7 4-13 3h-3v6l7 8 6 8 3 8v9l-2 6h-2l-2 5-5 4-8 4-14 3h-17l-16-4-8-6-9-10-4-9-6-20-3-19v-13l3-12 6-8 8-7 3-6v-12l-4-20-1-10v-14l3-20 2-6-1-5-8-4-11-9-7-8-2-5-5-5-6-8-3-10 1-4 1-3-4-10-1-8v-20l2-8 4-7 2-2h5l1-6 8-11 7-7 8-5 6-1 3 1 10-4 4-1h7l3 2-1 8-9 23-2 10v24l3 13 6 12 7 10 4 3 8-6 19-7 18-3 40-3 12-4v-3l-7-12-4-11-5-18-8-20-6-26-1-13-15-4-12-5-14-8-10-8-4-4-4 1-9 10-12 9-8 4-13 4h-12l-10-3-11-6-7-6-7-10-4-7-1-4v-13l5-12 9-11 11-9 11-7 18-10 14-6 15-9 13-8 12-4h13l13 4 21 12 14 10 11 7 7 6 4-2 10-9 6-4 6-9 1-2h2l2-7 5-6h5l3 5 5-2 5-4 10-5 8-2h6l2 2-1 9 12-2 5-22 5-16 10-24 7-11 4-5 10-6 9-3 7-1 18-1 14-3zm5 7-24 4-3 1v2l8 2v1l-46 1-14 4-6 4-5 6-8 15-8 21-6 17-1 8v7l17 1 1-1 2-18 6-16 6-10 3-4v-2l-4-1v-2l12 1 17 6 20 8 18 6 16 3h21l13-4 8-6 6-7 4-10-2-11-5-8-10-9-12-6-13-3zm-73 46-6 8-5 9-6 16v8l4-2 5-3h3l1 9-1 7 16 8 5-1 10-13 4-11 4-21-8-5-21-9zm37 15-4 21-5 13-8 11-3 3 8 6 4-2 6-9 5-11 4-15 2-14-6-3zm-46 25-7 7v2l6 1 3-6-1-4zm-59 3-14 7-11 9-4 4h-2l-1-10-3 1-8 15-7 7-8 7-5 4-3 4v3l-4-1-5-4-4-4-20-13-11-7-14-8-11-5-4-1h-8l-11 4-15 8-16 12-10 8-1-1 2-5-5 2-20 11-12 9-5 6-5 5-3 5-3 7v9l4 11 9 10 10 7 11 4h10l12-4 12-7 4-4v-2l4-2 7-7 11-16 11-20 10-19 3-3 4-5 2-1-3 5 1 3 12 4 8 5 13 10 8 9 6 9-13-3h-4l2 4 5 4 2 1v2l-6 3v1l7 1-5 12-3 5-2 1h-11l-11-3-17-9-13-12h-2l-4 7 1 4 12 11 14 8 15 7 17 4v13l4 19 7 20 7 21 4 13 6 12 9 10 7 6 16 9 21 6 13 2h34l16-2v-3l-2-1 8 1 12 3 15 1 10-2 12-5 8-6 7-11 7-16v-2h2l-1 6 4-2 9-9 7-10 2-5h2l7-13 6-18 1-5v-20l-5-13-9-10-7-6-8-12-10-21-8-14-10-14-9-10-6-5-3-1h-12l-11 4-10 10-3 7-2 10v12l3 17 8 16 8 11 7 7 10 6 3-1-7-9-5-11-1-3v-21l6-9 5-3 4-1h11l12 5 8 9 5 11 1 3 1 15h3l-5 6-12 9-9 6 1 3-15-6h-14l-13 4-16 8-9 7h-1l8-8 10-7 7-3 15-3-1-3-11-9-8-11-6-12-5-16-1-5v-13l3-12 4-8 6-7 6-4 7-2 10-1v-2l-14-8-21-6-18-2-15 1-18 4 2-6 4-5v-3zm-132 41-8 16-8 17-2 5 13 11 11 7 15 5 12 1 4-10-1-2-6-3 1-4 2-1-1-4-4-5-1-5 1-1h11l-2-4-11-10-16-10zm227 34-9 3-7 8-2 6v4h2l5-5 4-2h12l8 4 6 7 4 10 1 9 4-2 1-3v-9l-4-14-8-9-7-5zm-6 23-5 4 1 6 1 1h7l2-2v-5l-5-4zm-277 57-11 4-10 7-5 5v-6l-4 1-8 9-7 14-4 14-3-7-2 1-1 5v17l3 8 3 4h2v-9l1-5 4 2 2 3 3-1 2-10 3-3 5 8 3 1 4-11 2-2 4 10 2 1 1-20 4-16 5-12 3-9zm-20 58-2 5v4l-6-3-3-4h-2l-1 2-1 11-7-4h-2l1 12-6-1 1 6 3 5h2l2 6-7-2 1 5 8 9 10 8 2 1-4 1 2 4 9 6 7 4h3l9-16 11-12-2-5-7-9-6-12-4-11-6-5-3-5zm139 23-10 4-15 3-44 4-14 4-17 9-12 11-7 10-5 10-5 15-3 18v13l2 17 5 30h-3l-6 10-10 9-2 9v17l3 20 6 17 5 9 4 5 9 6 7 2h12l2-2v-12l-5-9 5 5 4 7 1 11 11-1 6-3 2-2v-13l-3-7-3-4 6 4 4 7 2 7 3-2 1-8-3-8-9-10-4-6-1-7-1-1-13-2 25-5 10-4 12-6 11-10 8-12 5-15 1-4v-24l-4-15v-2l4 5 5 14 1 24h15l24-4 17-6 15-8 1-4-3-7v-5l3 6h2l2 5 7 9 9 10 10 10 14 11 7 5h2v2l10 6 18 8h7l12-3 16-8 1-1v-8l-6-8-8-5-2-1 8 1 7 4 4 5 3 7 4-2 9-9 1-2-1-9-4-6-8-6-5-2h8l6 4 6 7 1 2 3-1-1-9-4-6h-2v-2l-8-4-3-1h-13l-12 4-9 5 7-8 2-1-1-3-10-8-11-12-11-18-5-12-6-15h2l2 5 4 6h3l6-8 6-5 5-2h8l6 4 2 5 2 1 2-15v-18h-25l-4-1h-10l-25 3h-29l-19-2-18-6-17-9-8-7zm166 40-4 24-6 18-8 16 2 4 15 10h16l11 4 6 5 5 7 9 1 8-14 9-11 5-4 1-4-4-5-6-4-7-1v-2l12 2 6 4 3 3 5-2 10-7-2-5-7-8-8-4h-10l-11 4-9 6 4-7-15-7-15-9-9-9zm-25 6-8 5-9 10-2 5 12 20 6 8h3l10-21v-15l-3-8-5-4zm106 21 5 5 5 8 1 2h5v-3l-7-8-6-4zm12 21-9 5-11 9-9 9-10 14v3l8-1 11-6 11-9 8-10 6-10v-4zm-204 38-10 6-11 5-24 6-15 2-13 1-4 13-6 11v2l4 1h31l14-1 18-4 21-8 15-8 1-4-10-11-7-10zm-22 50-20 4-14 1h-12l-18-2-2 4 1 10 5 12 11 16 9 9 9 4 6 1h20l10-2 2-4-3-9-7-6-1-2 9 5 4 6 3 8 10-3 2-2-1-8-8-12 6 3 5 6h2l-1-6-1-2h-2l-1-3-5-4-9-3-11-3-4-6-9 1 1-2 12-6 4-3v-2z"/><path transform="translate(619,342)" d="m0 0h13l8 4 5 4 2 5-10-2h-9l-11 1-4-4 1-5z"/><path transform="translate(503,388)" d="m0 0h6l3 3-1 6-13 12-7 13-3-1v-14l3-7 4-6 6-5z"/><path transform="translate(530,418)" d="m0 0h7l12 4 9 7 6 8 5 15v13l-4 11-4 4-13 3-22 2h-8l1-4-4-2-6-7-4-8-2-8v-11l3-11 7-9 9-5zm0 7-8 2-3 2v2l-3 1-5 7-2 6v14l7 14 9 8h2l-2-4-6-9-1-5v-13l5-8 5-4 5-1h9l8 2 1 3 5 5 3 5 2 9-1 9-1 5 4-1 2-9v-12l-2-9-6-8-7-7-6-3-6-1zm-3 23-2 2 1 7 2 2h5l3-3-1-7-2-1z"/><path transform="translate(627,441)" d="m0 0h10l7 3 4 4 2 6v7l-4 11-6 10-5 4 1 10 8 2 10-1 7-4 5-8 1-7v-12l-2-3 4-3 6 1 4 4-5 1v10l-2 10-5 10-6 6-4 20-4 10-5 6-7 4-9 3h-11l-14-5-10-7-12-9-13-7-3-3h-2l-2 4h-2v-7l4-5 4-2h4v2l-2 1 2 6 6 2 5 2 6 1h14l8-2 6-4 8-9 2-5v-7l-1-2h-16l-12-3-8-5-4-5-1-6 3-9 3-1 2-4h2l2-4 14-7zm1 6-12 3-12 7-6 5-3 5v7l4 5 11 4h18l8-6 3-4v-2h2l4-11-2-10-5-3zm6 73-2 1 2 5-10-2-8 1-10 5 2 4 8 4 7 2h7l10-3 10-9 1-3-5-4-3-1z"/></svg>
