<?xml version="1.0" encoding="UTF-8"?>
<svg version="1.1" viewBox="0 0 1024 1024" xmlns="http://www.w3.org/2000/svg"><path transform="translate(672,232)" d="m0 0h21l8 3 17 9 8 8 6 10 1 4v11l-6 12-6 7-9 5-11 4h-23l-18-4-4 19-3 9-5 10-5 8 1 4 7 8 9 13 5 8 8 16 9 17 11 10v2h2l6 10 2 8v25l-1 9-13 26-5 4-9 12-10 10-4 2-6 12-7 8-9 5v9l7 8 12 11 24 12 10-3 10-2h8l11 5 8 7 4 5 1 4v9l-3 9-9 13-8 7-8 6-14 7-3 1h-15l-4 10-4 7-12 13-22 13-13 3h-8l-12-3-15-8-12-8-9-8-9 3-28 14-6 7-3 2v2l16 5 8 5 5 8v13l-6 10-14 7-10 1h-28l-9-2-8-6-10-10-9-16-3-6-1-4v-8l-15 9-16 4 1 6 8 9 5 10v12l-7 10-8 5-12 3h-21l-14-4-10-9-6-8-6-17-2-9-2-13v-17l3-10 9-10 4-4 1-2v-16l-3-14-1-25 3-18 1-7-3-3-10-6-8-9-4-4-3-6-7-8-3-9v-11l-3-12v-20l4-13 3-3 5-2 3-8 11-12 7-5 13-2 7-2h10l1 1-1 10-4 12-4 10-1 5v24l3 11 8 16 4 5 7-1 14-7 10-3 17-2 28-2 9-2 6-2-1-5-6-11-7-23-8-22-5-20-2-13-1-1-10-2-14-6-4-3-9-5-11-9-5 2-7 8-13 9-13 5h-20l-9-4-10-7-7-8-6-10v-18l5-10 11-12 10-8 23-13 7-3 14-7 9-6 16-8 3-1h14l12 4 10 6 11 6 8 6 14 10 3 3 6-1 11-10 4-1 2-5 4-6h2l1-6 5-6 5 1 1 3 6-2 12-7 7-2h8l1 1v8l10-2 6-23 6-18 10-21 7-9 10-6 10-3 23-1zm4 7-21 3-1 4h5v2h-15l-27 1-13 4-8 7-1 4h-2l-6 12-4 11-8 21-1 16 16 1 4-21 7-16 5-7-2-4 13 1 18 7 14 5 18 6 10 2h22l12-4 8-6 6-9 1-4-1-13-6-8-9-8-8-4-11-3zm-66 42-7 10-5 11-3 9v7l4-1 3-2h4l1 15 13 6 6-1 7-9 5-11 4-18-1-4-8-5-10-4-7-3zm35 14-1 3-4 18-4 9-7 11-2 4 7 5 5-4 5-8 6-17 3-14-1-5-4-2zm-44 24-5 5v2l5 1 3-4-1-4zm-54 2-12 6-10 8-3 3h-2l-2-8h-2l-9 16-7 7-11 9-4 5-12-10-12-7-3-1v-2l-19-11-14-7-3-1h-10l-15 6-11 7-20 15-3-3-16 8-16 12-9 10-4 8-1 11 4 10 9 10 10 6 7 3h12l14-5 8-6 4-5 8-7 9-12 10-18 10-19 6-8 2 5 9 3 10 6 10 8 5 6 5 5 2 5-12-2v4l5 4-1 3-2 2 2 2h3l-7 15h-14l-15-5-12-8-7-7-4-1-4 8 7 8 8 6 13 8 13 5 12 3 1 1 2 17 2 12 8 21 3 10 7 21 5 10 8 7 4 5 19 10 13 4 12 2h39l11-2 1-2 11 2 22 1 12-3 10-6 6-7 5-10 4-9v-2h2v3l5-2 9-10 6-10 5-6 7-18 3-13v-10l-2-10-5-9-6-7-8-7-8-13-4-10-8-14-5-9-3-4h-2l-2-5-14-14-9-2v-4l-17-8-18-4-8-1h-10l-14 2-10 1 5-8-1-3zm-120 38-9 16-4 8-3 7 1 5 8 8 14 8 8 3 15 1 4-8-3-4-3-1 2-5-1-5-3-1-1-7 10-1-2-4-8-8-13-8h-2v-2l-6-2zm-55 105-12 6-9 7v-4l-4 1-8 9-6 13-3 9-2-3-3 1-1 4v14l3 8 4 4 1-1 1-9h3l4 2 2-3 2-7h3l4 5 3-1 3-9 2 1 3 7 2-1 2-19 4-15 6-15-1-4zm-15 54-2 6-5-2-3-3-3 1v9l-8-2-1 1-1 9-4 1 2 6 5 8-6-1 2 6 6 7 9 7-1 4 13 10 5 1 4-5 6-10 8-9v-6l-7-10-7-14-2-6-8-8zm127 20-19 5-28 3-16 2-16 5-13 7-10 9-8 11-6 13-4 18-1 6v16l5 32v8l-10 13-6 5-2 7v19l4 21 3 9 5 10 6 7 8 5 4 1h13l1-1v-13l-1-4 5 9 1 8 1 1 10-1 6-4v-15l-2-5 4 4 4 9 4-4-1-8-4-7-7-8-3-7-2-4-9-1v-2l8-1 18-4 15-8 9-8 8-11 5-16v-27l-2-10 2 2 4 11 2 23h17l17-2 18-7 12-6 2-2-1-7-2-4h2l1 3 2 1 5 9 24 24 9 7 14 10 15 8 4 1h10l10-2 14-8 1-1v-8l-6-7-5-3h-2v-2l10 4 5 6 2 5 5-1 8-7 1-7-2-7-5-6-4-3 5 1 10 10 2-2-1-7-3-5-6-5-5-3h-15l-12 5h-3l5-6-13-13h-2l-2-4-8-11-7-14-8-19h2l2 6 3 4 4-1 8-9 8-4v2l-5 2-8 7-3 4v8l4 7h2l2 5 7 10 4-1 6-12 2-5v-17l-3-7-5-1v-2l6 3 4 5h2l2-8v-20l-1-1-23-1h-15l-17 2h-35l-14-2-19-7-14-8-5-4zm153 38-5 24-3 10-8 16 1 5 12 9 1 1 18 1 10 4 9 10h8l9-15 8-9 4-4-2-5-7-5-6-1 2-1 9 2 7 5 6-2 7-5v-5l-8-9-6-3h-10l-12 5-3 1-1-4-16-8-10-6-11-11zm76 24 2 4 7 9h4l-1-5-7-7zm9 19-11 7-12 11-8 9-4 7 1 3 7-1 11-7 12-11 7-10 2-3v-5zm-187 35-20 10-23 5-23 3-3 5-5 12-2 7 1 1h37l13-2 11-3 18-6 14-8 1-5-7-7-8-11zm-22 46-19 3h-28l-10-1-2 4 2 12 4 10 10 13 9 9 9 4h25l6-2 2-3-1-4-2-5-4-4h-2v-2l8 5 6 11 10-3 1-5-2-6-5-7 5 3 3 3 3-1-2-6-7-6-18-6-4-5h-7l5-4 6-3 2-4z"/><path transform="translate(613,346)" d="m0 0h3v2l-10 5-7 7-4 10-1 5v12l4 18 6 12 9 12 7 6 6 2-4-6-2-9v-15l2-4 1 2v15l2 7 3-4 5-9 6-6h3l-2 4-2 3h-2l-2 5-2 7v5l6-9 7-7 9-4h8l6 4v2l-13 3-9 6-6 7-5 9h-16l-11 3-16 8-7 5 2-4 7-6 9-5 16-4-2-4-8-6-9-12-7-18-3-10v-14l4-13 6-9 7-6z"/><path transform="translate(619,446)" d="m0 0h14l8 5 3 8-2 10-6 12-5 5v10l4 1h7l9-3 4-4 2-5v-20l3-2 6 1 2 4-2 1-2 16-4 10-6 7-5 20-6 12-10 6-2 1h-18l-11-4-13-10-10-7-12-6-4 2v-6l4-5 6-1 2 9 12 3h17l8-3 9-9 2-4v-9l-16-1-11-3v-2l-5-2-4-4-1-10 3-6 8-7 10-6zm3 5-13 4-12 8-4 5-1 2v6l4 5 8 3h20l7-5 5-8 2-5-1-11-5-4zm6 67-1 5-12-1-8 3-4 3 2 4 8 4 3 1h10l8-3 10-9-2-4-5-3z"/><path transform="translate(545,433)" d="m0 0 6 1 10 9 4 7 4 11v10l-1 1h-5l-10-5-3-1h-15l-10 4-8 5-4-1 1-5 7-8 9-4 4-1h14l11 4h3l-9-6-7-3h-20v-2l7-2h15l10 3h3l-8-10-8-5z"/></svg>
