<?xml version="1.0" encoding="UTF-8"?>
<svg version="1.1" viewBox="0 0 1024 1024" xmlns="http://www.w3.org/2000/svg"><path transform="translate(662,301)" d="m0 0h34l16 4 17 7 4 4 6 4 7 5 7 8 6 7 9 15 9 21 4 13 1 4v28l-5 13-8 13-6 7-5 3-6 2-6 12-11 12-8 5-8 4-10 3-20 2-9 7-4 10 1 5 8 17 3 9v12l-6 12-5 7 1 4 8 11 10 18 4 9 6 19 3 15 2 17 1 2 8 1 4-24 4-10 5-1 4 8v14h2l2-5 6-10 11-12 7-6h5l1 2v9l-9 21-2 7 12-6h8l1 1v7l-8 11-1 3h8l11 3v4l-10-1-13-4-1-4 7-10 2-4-6 1-8 4-8 8-2-1v-7l9-24 6-12-1-2-7 4-6 8-6 9-6 12-4 7h-2l-3-27v-3h-2l-5 30-1 5-1 1h-15l-15 8-9 3-5 1h-24l-15-4-12-6-4-5-2-5-12-2-1-2 2-23-4 4-5 12-3 7h-2l-5-15v-3h-2l-1 19-13 2v15l1 8-3 7-5 4-8 4-14 4h-26l-15-4-8-4-7-4-5-4-3-5v-25l-10-1-2-1v12l-6 5-14 4h-26l-23-5-9-6-3-5-1-2h-21l-6 1-1 4-1 16-5 5-12 6-12 2h-13l-15-3-12-6-9-7-5-5v-2l-6-2-1-1-1-32-3 3-3 22h-4l-5-15-4-13-6-9-3-3 3 21 5 20 1 5h-4l-8-10-7-6-10-4 6 10 8 13 2 5-7 3-13 3h-6l1-4 5-2 13-3-2-6-1-4-4-2-7-11v-7l1-1 8 1 14 9 3 2-5-23v-14l1-1h5l8 10 8 18v3h2l2-10 2-4 5-1 3 5 1 7h2l2-5 9-16 4-11 1-8-15-2-11-3-3-2v-2l-5-2-5-6v-5l5-4 7-1v-16l5-9 7-6 2-1 3-42 3-25 4-20 11-36 7-14 10-19 8-13 5-5 11-12 12-12 15-11 14-8 16-8 16-6 25-5 8-1h23l21 3 23 6 16 7 6 4 5 3 3 3 12 8 15 13 5 6 2 1 1-6 5-8 7-12 11-12 13-10 13-8 22-7zm10 5-18 2-16 5-20 9-13 11-10 10-8 13-6 12-4 17-1 7v14l4 20 5 13 6 13 4 11 2 11v12l-4 15-7 12-7 6-4 4v11l4 6 7 6 5 5 16 8 11 4h25l10-4 3-3 4-14 3-7 5-17 4-10 6-8 1-4-6-2-12-2h-6v-2l9 1h36l13-2 14-6 9-7 4-5 8-14-1-4-5-2-5 1-10 17-5 4-7 3h-15l-11-4-8-6-8-7-5-6-8-17-8 1 4-5v-2l9-1v5l9 6 8 4 11 3 38 1 14 1 7 2h7l9-10 7-15 3-13v-9l-2-13-5-1-3-3-5-1-5 3-4 7h-2l1-8 4-6 3-2h7l6 4-2-11-8-17-6-8-9-5v-8l-11-11-19-11-11-4-8-2-11-1zm-233 13-20 4-17 6-6 4 2 3 8 3h15l27-6 13-5 7-6v-3zm34 0-7 8-15 7-14 4-15 2h-17l-10-3-2-2-6 1-9 5-8 6 1 4 7 6 14 5h38l27-5 13-5 18-10 10-9 3-5-1-4-6-2-14-3zm32 8-9 10-5 5-10 7-15 7-19 5-21 3h-30l-18-5-8-6-1-2-7 1-5 4 1 5 6 4 4 6v22l-5 12-9 19-12 20-9 8-6 3-5 1h-24l-2 3v6l3 2 13 2 15 6 10 6 6 5 5 7 4 10 2 17-1 18-4 23-4 16 4 2 11 1 1-1 1-23 4-20 5-16 7-9 14-8 14-4 12-2h29l11 4 8 8 8 16 6 14 2 5 4 18 2 2 6-1 11-6-2-5-5-8-11-24-3-11-1-4v-21l2-9 5-8 8-12 4-5 9-6 13-5 7-1h29l8 3 8 6 5 6 8 15h3l-1-8-10-23-5-14-2-5-2-1-25 8h-25l-8-4-7-8-7-11-4-6-9-18v-14l4-6 9-8 20-13 3-2-1-3-9-4zm22 9-11 6-11 7-8 6v3l-4 1-5 5v11l8 16 12 21 10 9 5 3 3 1h12l21-6 12-5 1-1v-15l-4-1-14 5-16 1-10-1-6-5-8-13-4-8v-7l3-6 8-7 10-7 10-5-5-5-6-3zm15 11-16 8-8 6-6 7v7l3 7 4 8 11 11 2 1h13l17-5 9-5 3-7 1-5v-7l-12-13-14-13zm-191 14-8 8 1 5 4 6v12l-4 11-13 19-8 8-9 4h-10l-5 12v7l8 2h13l12-6 7-6 8-11 10-19 7-16 4-10v-13l-7-8-6-5zm-13 14-5 6-7 8-7 12-8 14-5 13 1 3 6 1 11-6 8-9v-3l3-1 7-11 4-8 1-3v-9l-6-7zm200 64-17 3-12 6-9 8-7 10-5 7-4 12v18l3 13 7 15 3 8 9 14 4 1 11-8 3-3-2-4-11-19-4-10-2-8v-20l4-12 9-6 5-3 9-2h12l10 3 8 5 8 10 3 1 7-4 6-5-2-7-7-11-7-7-13-5zm141 18v4l8 7 11 5 13 1 6-2-2-4-4-5-10-5-3-1zm-146 3-13 5-8 6-5 8-1 4v18l4 13 9 17 7 8 4-1 11-13 10-17 6-11 1-3 3-1 6-8 1-1-1-7-11-11-7-5-4-1zm-238 9-3 6-1 11 2 2 12 4 11 6 5 6 4 9 1 6v26l-6 18-1 7 5 3 12 3 6-1 3-5 4-16 2-15v-32l-4-12-4-6-9-8-19-9-13-3zm295 3-14 8-8 7-4 6 2 2 7 3 5 3 1 3 5-1 8-8 1-6v-16zm-299 18-3 5-2 26v31l8 7 8 5 7 3 5 1 5-7 4-11 2-12v-17l-3-11-9-11-10-6-9-3zm271 6-6 9-9 15-4 7 1 4 7 3 5 6 5 1 3-4 14-28-1-5-5-5-6-3zm-147 3-19 5-9 3-9 7-7 10-3 12-4 21v24l6 2 8 1h11l1-1 1-26 2-13 6-9 7-5 8-3h19l10 4 5 5 4 9 3 19 1 9 1 2h8l18-7 1-1v-7l-4-15-9-24-4-2-1-5-7-9-9-6zm256 22-4 9-1 10 4 10 2 6v9l-1 6h3l6-8 2-6v-13l-5-15-5-8zm-258 8-7 2-9 10-6 16v23l3 4h23l26-4 10-3 1-1v-10l-3-17-3-9-8-9-5-2zm127 2-9 10-7 7-22 14-21 10-5 2-7 2-2 2v14l5 12 2 2h7l13-5 16-8 12-8 10-9 16-15 9-13-1-7-7-7zm30 2-5 9-8 11-9 12-2 3 1 4 6 4h5l7-9 12-9 10-5-6-7-5-5-4-8zm-289 20-5 5-4 5-1 3v10l11 12 10 8 14 6 3-1 2-13 4-8 3-5-9-6-20-10-4-5zm387 3-2 4v8h3l1-3v-8zm-5-12-8 16-5 3-8 2h-16l-15-2-13-5-4-2-10 1-9 5-2 2 1 4 13 7 23 7 6 1h20v2l-19-1-18-3-12-5-14-7-2-2-4 1-7 8-2 3v7l8 14 4 5 12 5 14 3h22l8-3 8-7 5-5 7-8 3-6-1-1-9 1v-2l10-2 5-3 3-5 7-12 2-8v-6zm-1 28-6 8-6 10-11 13-8 7-10 7 1 9 4 20 2 22 4 8 4 3 13 4 7 1 2-3 2-12 3-2h9l4 2h3l5-8 1-1h7l4 3 3-1 5-8-2-13-3-8-7 1-3 1h-15l-7-3-4-5-2-1-1-5v-11l3-8 3-5v-2l5-2 5-3-1-5-7-8-4-5zm-121 1-8 8-18 13-14 8-1 1-3 26-3 15-4 16-3 10-1 7v8l4 6 8 7 5 3 6 1 3-4 4-9 1-1h10l3 3 6-1 6-8h8l4 5 5-1 3-5 8-2 1-23h-25l-7-3-6-5-2-4v-15l6-11 7-6 8-2h11l1-1-1-8-8-16-5-8-6-4zm-219 2-7 7-4 8v12l4 4 25 7 11 3 25 3h26l1-1v-29l-2-2-30-2-25-4-22-6zm140 3-14 4-40 5-3 2-2 6v15l5 8 1 1h9l26-3 25-6 3-2-2-5-3-7-2-16zm-193 6-10 4-1 4 6 5 15 6 4 1h10l1-4-15-9-8-7zm408 8-9 5-4 6-2 6v12l5 8 6 4 4 1h8l8-2 4-3-1-8-10-22-4-5zm-377 13-2 5-4 15-11 21-7 12v10l8 11 8 7 4 1 5-8 4-3h8l4 3 4-1 6-6h6l4 2 5 5 5-6 7-1 3-5 6-24v-21l-6-2-30-7-18-6-5-2zm193 0-9 5-1 3 6 12 4 4 2-4 1-7v-13zm78 4v8l4 16 5 1 19-8 13-7v-3l-19-2-18-5zm-94 2-17 5-17 4-1 3 4 10 9 10 2 1h32l3-5v-7l-7-11-4-9zm75 0-10 5-7 8-3 8v9l3 6 8 7 6 2h11l9-4 3-3v-15l-3-15-3-6-2-2zm-183 11-1 1v6l5 4 19 4h10l-1-5-6-8-18-2zm60-1-28 3-1 4 7 10 7 2 23 3h12l1-3-7-10-6-9zm184 1-14 8-23 9-1 1v23l6 2 4-1 2-6 1-10 3-3h2l4 11h3l6-13 4-4h2l1 2v24l1 1h9l1-1v-10l-4-25-3-8zm-244 14-2 6-4 19 1 1 19-1 7-2 2-6v-11l-2-2-17-4zm29 6-2 3-1 5v17l10 7 15 5h8l3-8 2-5 2-3 7-1 7 4 6-7 8-1 1-1v-8l-2-2-32-2zm71 6-1 1v7l2 3 15 1 2-3 1-8-1-1zm233 11-1 1v13h4l1-4-1-9zm-245 1-4 4-1 3v10l5 1 7-3 2-2v-8l-4-5zm230 1-6 8v11l4 2 13-4v-7l-3-5-6-5zm-250 3-4 4v11h15l1-1-1-8-4-5zm230 3-5 5-2 6v5l1 1h15l2-2-2-11-6-4zm-337 6-8 7-3 8v5l1 1h13l7-3-1-10-3-6zm18 1-3 3-2 9v5l9-2 4-4v-7l-3-4zm-41 3-6 4-2 6 1 3 8 3h7l1-1v-9l-4-5zm257 5-4 5v14l6-1 6-5v-8l-3-5zm-20 1-6 5-3 10v6l1 1h12l7-2v-10l-4-8-3-2zm-24 6-5 6-1 2v6l4 2h12v-11l-5-5z"/><path transform="translate(447,373)" d="m0 0h15l9 6 8 13 8 18 7 19 1 3v9l-4 10-6 10-7 7-20 12-23 7-17 3-10 1h-27l-12-2-10-7-5-8-1-4v-12l5-20 10-21 2-6 5-9 7-11 7-8 6-3 12-2 25-2zm0 4-10 2-37 3-6 2-5 4-7 8-14 28-5 13-5 12-1 5v19l4 6 5 4 15 5h23l32-5 21-7 13-7 13-12 6-10 1-3v-14l-8-24-9-17-3-7-7-5z"/><path transform="translate(658,380)" d="m0 0 10 1 10 5 5 6 2 5v4l-5-1-4-4-10-4h-15l-11 6-5 5-3-1 1-7 7-8 8-5z"/><path transform="translate(421,393)" d="m0 0h12l11 6 5 7 6 18v19l-6 9-11 6-13 3-6 1h-18l-8-3-6-7v-17l4-17 6-11 8-8 11-5zm1 4-9 2-10 7-4 6v2h-2l-4 8-2 9v22l4 4 6 2h17l18-4 11-6 4-6 1-3v-11l-4-16-5-10-6-5-4-1z"/><path transform="translate(733,402)" d="m0 0h7l6 5-1 3-5-2-5-3-2-1z"/><path transform="translate(418,691)" d="m0 0 4 1 2 2 1 26 8-6 2-1h8l1 3-2 9-3 4-3 6-2-1 4-16-5 2-10 10-2-1v-31l-4 2-3 7-4 21-4 1-6-14-7-12-2-4h-2l4 16 4 11v6h-3l-8-8-7-4 10 20h-4l-6-10-6-9v-5l1-1h7l8 5-2-9-2-7v-9l2-2h3l7 8 4 5 4 8v3h2l2-9 6-14z"/><path transform="translate(640,694)" d="m0 0 4 1 1 1v24l5-3 8-5h7l1 1v6l-9 16-2-2 1-7 5-10-5 1v2l-6 4-7 8-2-1v-19l1-11-4 2-5 15-3 12h-4l-7-11-4-3 3 11 3 9-4 1-4-10-3-8v-6l1-1h7l8 9 2 1 1-9 7-14z"/></svg>
