<?xml version="1.0" encoding="UTF-8"?>
<svg version="1.1" viewBox="0 0 1024 1024" xmlns="http://www.w3.org/2000/svg"><path transform="translate(680,292)" d="m0 0h27l20 4 13 5 8 4v2l5 2 9 7 7 6 9 11 10 15 6 13 6 15 4 15 1 5v22l-4 13-5 10-6 9-5 6-6 4h-6l-7 14-7 9-7 7-11 6-12 4-12 2-13 1-8 6-5 6-3 9 8 16 4 9 2 8v12l-4 10-7 9-2 4 9 11 10 17 5 10 7 20 4 16 3 28 11 1 3-22 5-15 2-2 4 1 3 7 1 6v12l2-2 6-12 9-11 11-11 4-2 4 1 2 5-6 16-5 11-4 12 12-7 6-2 6 1 1 1-1 7-9 12-1 3h7l15 4v4l-19-4-8-3 2-5 7-9 3-4v-2l-7 1-11 6-8 8-2-1 1-8 5-13 5-12 6-13 1-5-7 4-4 2-2 4-7 9-9 15-4 12h-3l-1-5-2-23-1-6h-2l-1 7-3 15-2 17-3 1-7-1h-8l-5 4-12 6-11 3-8 1h-18l-16-3-12-5-6-4-3-6-1-4-14-1-1-3 2-11v-15l-4 4-4 7-4 14-3 2-3-9-3-12h-2l-1 21-1 1-15 1v9l3 14-1 7-5 6-10 5-15 4-7 1h-20l-15-3-16-7-8-6-4-5-2-4v-16l2-10-15-1v13l-5 5-15 4-8 1h-15l-15-2-16-4-10-6-3-5-1-4h-19l-11 1-2 9v13l-3 5-14 7-9 2-16 1-15-2-14-5-11-8-7-7-2-3-6-2-1-2v-24l-1-11-3 2-3 16-1 11-3 1-6-21-4-11-9-14-3-2 3 18 3 15 5 19v2h-3l-8-11-8-7-14-7 4 8 10 14 5 9-1 3-24 5-4-1 2-3 22-5-7-12-4-4-7-11v-5l2-2 7 1 10 6 10 8-1-7-5-23v-12l1-1h6l7 9 6 12 4 10v3h2l2-10 3-6 5-1 3 6 2 9 11-18 7-15 3-14h-12l-17-4-12-8-3-5v-5l4-4 10-3 1-2-2-6v-7l5-10 5-5 6-4 2-38 4-35 5-22 8-28 5-13 12-24 9-15 11-15 11-12 9-9 13-10 11-7 15-9 23-10 9-3 27-5 12-1h18l18 2 23 5 14 5 15 7 9 5v2l5 2 11 8 13 11 10 11 2 1 1-5 5-12h2l2-5 7-10 8-9 16-12 14-8 18-6 17-4zm10 5-22 2-11 3-16 6-14 7-12 9-12 12-9 14-7 14-5 22-1 14 2 16 4 16 10 21 5 15 2 11v11l-3 16-7 14-9 8-4 2-2 10 5 10 9 9 10 6 12 6 13 4h26l10-4 4-4 3-11 8-24 1-5 4-9 7-11 3-4-1-1-24-4h-4l1-2 11 1h36l16-2 13-5 9-6 7-7 9-16 1-4-9-3-4 1-8 16-5 6-8 4-3 1h-14l-10-3-8-5-12-11-7-8-9-18-5 1-4 3 2-5 5-5 10-2v3h-3l2 4 13 8 17 5 54 1 14 5 5-2 8-10 8-16 3-15v-9l-2-13-6-21-6-13-9-16-9-11-11-11-14-9-12-6-13-4-21-2zm-257 14-20 4-13 4-13 5-2 1v3l10 4h16l17-3 15-4 13-5 8-7v-2zm36 0-8 9-17 8-15 4-18 2h-16l-9-2-5-4-6 2-13 7-5 4 1 4 7 6 12 5 5 1h39l20-3 18-5 19-9 11-8 7-7 4-7-9-4-16-3zm35 8-9 11-9 8-9 6-15 7-16 5-32 4h-27l-14-3-9-3-8-7-1-2-5 1-8 6 1 3 8 5 5 8v20l-5 14-7 15-9 16-9 14-7 7-9 5-6 1h-15l-11-1-2 5v5l3 2 15 2 13 5 6 3 11 7 8 9 5 11 2 8 1 18-2 21-5 26-3 10 5 2 12 1v-17l2-17 4-18 6-15 6-8 11-7 13-5 26-4h24l12 4 10 9 8 14 10 25 5 21 3 1 16-8v-3l-6-8-8-17-5-10-3-11-3-10v-17l3-11 9-16 9-12 9-7 11-5 14-3 10-1h14l13 3 6 4 9 8 9 17 1 3 4-1-4-13-10-22-7-20-10 3-14 5-13 2h-15l-10-3-8-7-12-19-12-23-1-4v-9l3-7 8-8 16-11 10-6 4-2-1-3-14-5zm25 10-19 10-14 10-1 3-4 2-5 5-1 3v8l8 16 11 20 7 9 9 8 7 2h12l14-3 12-4 11-4 1-4-1-15-5 1-14 5-14 2-13-1-7-5-9-13-5-10-1-8 3-7 5-5 11-8 16-8-4-4zm16 12-12 5-11 7-9 8-2 4 1 9 7 14 11 11 7 2 12-1 17-5 10-5 3-12 1-8-9-11-12-11-9-7zm-209 16-10 10 6 7 2 4v11l-3 10-10 15-8 11-8 7-6 3-4 1h-10l-6 17 1 3 10 2h12l11-4 10-9 9-12 16-32 6-17v-14l-6-8-7-5zm-13 14-7 8v2l-3 1-12 19-10 19-4 11 1 2h8l9-5 8-8 3-4v-2h2l9-15 5-10v-10l-7-8zm220 70-20 3-13 5-10 9-7 9-7 11-3 7-2 7v17l3 14 12 27 9 15 4 1 8-6 8-7-6-8-9-15-6-16-2-8v-16l4-11 2-5 4-2 8-6 12-4 5-1h7l10 3 11 7 10 12 5-1 12-8-2-5-6-12-9-10-12-5-6-1zm150 19-2 3 9 8 15 7 11 1 8-2v-3l-10-9-8-4-4-1zm-157 4-13 4-9 6-6 7-3 9v16l3 12 5 12 6 10 7 9h4l11-13 4-6 8-14 5-9 10-14 5-5-1-4-11-12-9-6-8-2zm-261 9-3 9-1 11 6 2 8 2 11 6 7 7 6 12 1 8v25l-6 18-4 7 2 4 20 6 5-1 5-16 2-9 2-18v-30l-3-12-6-9-9-8-14-7-11-4-14-3zm322 4-14 7-10 9-5 6 1 2 8 3 4 3h2l2 5 3-1 4-4 6-5 1-6v-19zm-326 19-2 3-3 25-1 15v24l7 6 9 6 14 6 4-4 6-15 3-15v-16l-4-13-8-11-11-7-12-4zm294 7-8 14v2h-2l-8 15-2 3v3l8 3 5 4 3 5 4-1 10-18 9-18-5-7-7-4zm-156 3-19 4-12 4-11 8-8 11-3 9-5 25-1 12v16l1 1 19 2h7l1-1v-23l3-17 5-10 8-7 10-4 5-1h14l11 4 7 6 6 12 2 12 2 19 4 1 16-5 10-4 1-3-4-14-7-21-6-14h-2l-2-6-7-9-9-6-3-1zm275 24-4 10-2 9 6 12 2 7v10l-2 8 4-2 3-4v-2h2l3-7 1-11-3-11-4-10-4-9zm-274 8-13 3-6 5-6 9-4 12-1 7v17l2 6 1 1h21l24-3 20-4 1-3-3-23-4-13-7-9-5-3-8-2zm132 3-11 12-10 9-16 10-17 9-11 5-13 4-2 2v13l4 11 5 6 10-1 14-6 17-9 14-10 5-5 13-12 5-5 11-15v-5l-9-10zm33 1-4 8v2h-2l-10 16-9 11-3 4 8 6 4 2 7-9 9-8 10-6 8-3-2-3h-2l-2-4-7-7-4-9zm-314 23-8 6-4 9v8l5 8 10 9 7 5 17 8h2l1-13 4-9 5-6v-3l-11-5-19-10-8-7zm420 1-3 9v6l3 2 2-3v-12zm-6-11-5 14-4 5-11 4-7 1h-12l-16-3-12-4-8-4-10 1-8 4-5 4 1 3 17 9 19 6 11 2h22l13-3 6-3 10-19 3-12-2-5zm-102 25-6 5-6 9v5l9 16 3 5 12 5 14 4 7 1h19l7-2 13-11 9-9 7-10-3-1-16 2h-13l-21-3-16-6-14-7-3-3zm101 5-10 17-9 11-6 7-11 9-8 5 1 7 4 20 3 31 4 7 6 3 9 3 12 2 2-13 1-4 4-2 1-1h7l5 3 3 1 4-8 4-3h6l7 5 3-7 4-4-5-22-3-2-7 4-6 1h-10l-8-3-6-7h-2l-2-10v-7l3-9 5-8 8-5 3-1-1-4-8-10-5-6zm-130 1-7 7-17 13-19 11-3 2-1 20-3 18-4 16-6 21-1 13 4 7 8 7 7 4 7 1 4-11 5-5h9l5 5h3l6-8 3-3h7l6 5 1 2 3-1 4-7 8-1 1-1 1-25-12 2h-13l-8-3-8-7-3-6v-13l7-14 7-6 12-4 11 1 1-2-8-19-6-10-7-8zm-240 3-5 5-5 9-1 4v9l3 5 21 7 21 5 30 3h26l-2-8-1-13 1-13-30-2-30-4-22-6zm154 3-20 5-37 4-5 2-3 9v13l3 7 3 4 18-1 25-3 26-7v-3h-2l-2-5-3-9-1-15zm-210 6-12 5-1 4 8 6 16 6 5 1h10v-4l-15-9-10-9zm443 9-8 4-6 7-3 8v11l5 10 9 5 9 1 10-3 6-4-3-10-9-19-5-8zm-411 14-4 19-8 17-8 13-6 12 2 9 8 11 10 8h3l4-8 6-5h6l4 2 2 3h3l6-7 4-2 7 1 4 4 2 3h2l4-6 6-2 3 1 3-8 3-11 3-14v-21l-4-2-25-5-15-4-21-8zm211 0-10 5-1 2 5 13 5 6 2-1 2-10 1-14zm84 3v7l3 12 2 9 2 1 16-6 17-8 6-4-1-2-18-1-16-4zm-102 4-12 4-20 4-6 2 1 5 4 8 9 10 3 2h35l3-8-1-5-6-9-6-13zm82 0-7 3-6 4-7 10-2 8 1 10 4 6 8 5 8 2h8l10-3 4-4v-15l-3-18-3-7-5-1zm-200 12-1 3 2 6 8 3 19 4h10l-5-9-4-5-23-2zm69-1-35 3 1 5 7 9 3 2 33 4h12l-2-4-6-8-6-11zm199 0-14 8-19 8-9 3-1 1-1 25 1 1 10 1 1-1 2-16 3-5 4 1 4 12 3-1 5-12 6-7 3 1 1 4-1 24 1 1h10l1-1v-9l-3-20-4-16zm-268 16-5 23-1 4 2 1 27-2 2-6v-15l-6-2-15-3zm32 6-2 6-1 8v14l9 6 15 5 5 1h8l3-13 4-5 7-1 8 6 5-8 2-1h9l1-2-1-8-2-2-29-1-25-3zm77 7-1 3 1 7 2 2 16 1 2-3 1-10zm254 11-2 4v11l1 3 4-2 1-2-1-13zm-265 1-5 4-2 6v10l9-1 6-3v-10l-4-5zm248 2-4 5-2 6v9l2 3 9-2 7-2 1-4-3-9-5-5zm-271 3-5 6v10l3 1h12l2-1v-7l-3-6-3-3zm249 4-5 5-2 7v5l1 1h16l3-2-3-12-6-4zm-366 6-8 7-4 11 1 5h11l11-2v-7l-2-8-4-5zm20 1-4 6-2 12 2 1 8-3 4-3 1-6-2-5-2-2zm-45 3-5 4-3 6v4l12 4h5l1-1v-9l-1-4h-2l-1-3zm280 5-5 6v16l7-2 6-5v-9l-3-5zm-21 2-5 3-3 4-3 11v5l1 1h11l9-2 2-2-1-9-4-8-4-3zm-27 6-5 5-2 5v6l8 2h10l1-3-2-10-5-5z"/><path transform="translate(660,323)" d="m0 0 5 1 2 2-1 5-4 3-10 4-8 7h-2l1-7 3-6 7-6z"/><path transform="translate(445,369)" d="m0 0h11l6 3 5 5 5 7 9 19 7 18 3 9 1 5v8l-3 9-7 12-7 7-14 9-10 5-21 7-13 3-22 2h-25l-13-2-11-6-6-9-2-9 1-11 3-12 4-11 15-33 10-16 6-7 8-4 11-2 26-2zm0 4-23 4-36 3-5 3-7 8-4 4-10 20-5 11-10 24-2 10v16l3 7 8 6 11 4 7 1h22l22-3 17-4 18-6 11-6 11-8 7-7v-2h2l5-11 1-11-4-15-7-18-12-24-6-5-3-1z"/><path transform="translate(663,354)" d="m0 0h13l10 5 5 6 4 8 1 4v16l-4 11-1 5-10-2-13-3h-16l-9 1v-2l2-1-3-13v-11l3-10 6-8 7-4zm4 4-9 3-5 4-5 8-2 8v7l4 12h3l-2-8v-9l6-12 9-2 8 1 5 4 4 6 1 4v11l-2 5v3l5 1 3-5 2-10-1-13-4-8-8-7-7-3zm-7 17-4 3 1 7 1 1h7l2-3-1-6z"/><path transform="translate(417,391)" d="m0 0 10 1 10 5 6 9 5 15 1 4v20l-6 9-10 6-18 5-7 1h-16l-11-4-5-6-1-3v-14l5-20 7-13 8-8 11-5zm-1 4-13 3-9 6-4 5-6 10-4 12-1 8v15l5 6 7 2h17l17-3 12-5 6-5 3-7v-11l-4-17-6-12-6-5-8-2z"/><path transform="translate(789,397)" d="m0 0 5 1-5 5-2 4-3-1 1-5z"/><path transform="translate(753,400)" d="m0 0 7 1 5 5v3l-4-1-4-4-7-1z"/><path transform="translate(411,715)" d="m0 0 4 3v30l5-3 5-4 6-3 5 1 1 1-1 8-7 14h-3l3-10 4-7v-2l-6 1-10 9-3 4h-2l1-37-5 3-5 10-3 22-3 2-4-10-8-16-7-9-1 3 6 21 3 9v5l-4-2-7-8-10-5 2 5 8 13 2 6h-3l-12-20-2-3 1-5h7l10 7 1-1-3-10-3-11v-7l4-2 8 7 6 9 4 8v3h2l2-9 5-13 5-6z"/><path transform="translate(650,718)" d="m0 0h5l1 4v19l-1 8 10-8 7-4h5l2 4-2 6-8 15h-2v-6l8-14-2-1-10 6-10 11h-2v-11l2-25-5 4-3 7-4 15-2 9h-3l-5-9-6-7-3-1 1 5 6 17-1 3-3-2-7-21v-5l1-1h6l6 5 4 6 2 1 2-11 6-13z"/></svg>
