<?xml version="1.0" encoding="UTF-8"?>
<svg version="1.1" viewBox="0 0 1024 1024" xmlns="http://www.w3.org/2000/svg"><path transform="translate(442,241)" d="m0 0h9l5 4 1 2v10l-7 14-3 3-4-1-6-10-1-3v-12l3-5zm3 3-5 5-1 7 5 10h4l5-10v-7l-5-5z"/><path transform="translate(389,254)" d="m0 0h18l12 6 10 8 6 7 7 12 4 9 2-2 7-16 14-15 9-6 8-3h18l10 5 7 6 5 8 1 3v10l-4 6-8 6-6 1h-20l-11 3-8 6-7 6-6 16-2 6h2l4-7 5-6 14-9 8-3h21l7 3 9 7 4 5 5 11v12l-4 8-5 4-3 1h-9l-16-7-2-2h-12l-10 6-7 7-6 12-4 13-3 24h-10l-4-3-2-23-4-11-7-14-8-7-8-4h-11l-17 8-1 1h-10l-6-3-5-6-2-7v-8l4-9 6-8 7-6 8-4h21l13 5 13 12 6 7 1-3-4-11-6-10-6-5-12-6-4-1h-21l-8-2-8-7-1-3v-12l3-8 8-7 3-3zm4 4-9 4-6 4-6 7-2 4v8l5 6 5 3 25 1 14 4 10 8 7 9 4 11 3 22-5-2-5-10-9-10-8-6-11-5-3-1h-16l-7 2v2l-4 2-5 4-5 8-2 7 1 10 4 6 4 2 11-1 9-6 4-2h16l8 4 7 6 3 3 8 16 4 15 2 16 4 1 1-1 3-21 5-15 6-10 8-9 8-4 3-1h14l10 5 4 3 3 1h7l7-3 2-3 1-6-1-12-3-5-8-9-8-4-4-1h-14l-10 3-10 7-11 11-6 10-3 3v-16l5-16 6-9 9-8 11-4 5-1 26-1 8-7v-12l-6-9-10-6-3-1h-17l-13 7-13 13-6 11-6 18v2l-3 1-3-12-9-20-9-10-6-5-11-5-5-1z"/><path transform="translate(342,296)" d="m0 0h18l8 4 4 3v5l-11 5-11 8h-9l-6-4-2-5 1-8 6-7zm5 3-5 2-5 6 1 5 4 4h9l14-10-1-4-6-3z"/><path transform="translate(532,296)" d="m0 0h18l6 4 3 3 1 9-4 6-5 3h-7l-12-7-5-3-6-3 1-5 6-5zm4 3-6 3-2 4 10 7 3 3h12l2-2v-9l-6-5-3-1z"/><path transform="translate(344,339)" d="m0 0 5 1 2 2-1 4-2 7-2 12-3 5-4 3h-10l-5-4-2-4v-8l5-8 7-6zm-4 6-8 5-5 6-1 7 2 5 2 1h7l5-4 4-17-1-3z"/><path transform="translate(544,345)" d="m0 0h6l11 5 6 5 3 5 1 11-7 8-7 1-8-5-3-8-4-20zm5 5-1 4 2 13 3 6 3 2 7-1 3-3v-9l-7-8-7-4z"/><path transform="translate(409,419)" d="m0 0h24l29 3 25 6 26 10 16 9 13 9 11 9 10 9 10 10 7 9v2l4 2 12 17 16 24 7 8 9 11 10 10 15 10 11 5 11 3h14l11-3 13-8 3-5-1-9-13-15-7-9-6-12-4-13v-26l3-11 3-9 3-4h2l2-4 5-1 4 7 4 10 9 10 8 6 16 10 6 8 6 12 1 5 9-4 6-2h15l24 7 15 1 15-5h7l1 1-1 11-3 8-9 14-11 12-13 8-14 5-6 1-34 1-8 3-7 9-9 14-5 5-8 10-15 16-11 9-1 2 27-9 10-5 13-4 12-2h13l18 3 27 14 8 4 16 4 7 1h33l1 4-6 3-7 1h-14l-17-3-17-5-12-5-9-6-13-5-11-4h-20l-17 5-6 3-13 5-9 4-7 2-19 2-7 5h-2v2h13l18 2 13 4 15 8 11 6 25 12 15 5 16 4 5 1 46 1v3l-3 2-5 1h-34l-22-4-15-5-17-7-22-12-16-8-18-6-6-1h-22l-14 3-15 6-20 7-16 4-6 2v12l-4 4h-26l-11-3-14 1-6 1h-21l-17-3-14-3-15-5-11-5-10-4-38-19-13-5-15-6-27-4h-27l-27 4-17 6-18 7-14 7-27 10-12 3h-38l-9-2-2-4 1-1 13 1 6 1h18l16-3 13-4 16-6 17-8 12-5 10-4 23-6 14-3h6v-2l-9-3-15-7-24-9-9-1h-22l-11 2-13 5-10 4-19 7-8 2h-34l-3-3 1-3h30l19-5 13-4 14-7 18-4h28l18 4 18 8 28 12 4 1-5-5-15-14-8-9-7-10-7-11-9-22-6-6-2-5v-11l7-12 4-23 4-18 8-19 10-18 12-14 9-7 14-8 12-5 16-4zm-2 5-21 2-18 5-15 6-10 6-10 9-7 8-10 14-5 11-6 17-6 28-1 9-6 11-2 3 1 8 5 5 4 3 19 6 16 4 22 5 17 3h20l16-4 10-5 4-5-2-4 7 3 2 1 1 5-6-1-5 5 1 8 6 10 9 10 15 10 17 8 11 4 5-1 3-4h2l2 10 4 16 8 12 9 10 12 10 18 10 11 4 17 4h20l3-2-1-6-11-12-6-12-2-10-4-13-10-10-9-6-1-3 11 6 5 5 5 6h2l2 5 4 2h41l24-4 21-5 14-6 22-11 9-6 11-8 8-7 7-10 6-9 7-8 4-2 35-1 14-2 19-10 11-11 9-16 3-9-5-1-8 2h-21l-12-2-10-3h-17l-11 4-6 5h-2l-2-16-5-9-11-11-14-8-10-9-7-12-2-4-4 2-6 12-2 12v15l2 11 7 15 9 12 7 7 2 1 3 6 2 1 2 6 4-2 4-4-2 6-12 13-11 8-13 4h-22l-13-4-18-10-13-12-5-5-10-12-12-17-8-12-12-16-4-5h-2l-2-5-26-26-18-13-18-10-12-5-19-6-21-5-18-2zm-105 150-1 2 5 11 10 19 11 13 14 14 11 9 8 5 4 1v-3l-10-9-8-7-7-9-4-4-9-14-8-15-5-10-6-3zm18 5-1 4 6 14 11 17 8 10 12 13 13 11 13 5 12 3 2-2-5-6-10-8-7-7-8-7-9-11-7-9-11-20-4-4-12-3zm23 6v4l7 13 7 10 7 9 11 12 7 7 12 9 10 7 11 7 8 5 22 10 13 4 17 6 11 2 19 2h22v-2l-11-7-19-5-17-5-13-6-13-5-19-10-11-8-9-5-5-5-8-6-10-10-5-4-2-3-3-1-4-8-5-5h-2l-2-5-3-3zm68 1-12 3-1 4 7 9 16 15 15 11 11 7 17 9 22 9 4 1 1-1-1-8-4-9-9-3-10-2-22-11-10-8-4-2-2-4-4-5-8-13-1-2zm-37 5v4l8 11 22 22 19 14 15 9 8 5 16 8 19 7 10 4 17 4-1-5-9-11-4-6-20-7-13-6-12-6-14-8-10-8-8-6-15-15-9-10zm336 32-11 7-16 8-11 5-25 7-13 3-9 1-47 1-2 2 2 9 3 5h15l34-4 13-3 18-7 14-5 22-12 12-11 4-4v-2zm-39 32-16 6-7 3-27 6-26 3-12 1 1 5 4 6 5 2 20-4 23-7 9-4 23-11v-2l5-2 1-2zm-184 39v2l19 5 7 1h29v-4l-1-1-42-2z"/><path transform="translate(450,532)" d="m0 0h12l11 4 4 4-2 5-4 1-7-4-7-1h-9l-8 2-6 5-3-1 1-4 5-5 9-5z"/><path transform="translate(301,697)" d="m0 0h34l15 3 15 5 23 11 10 6 16 8 15 7 20 8 29 8 13 3 15 2h30l18-3 27-8 15-6 10-5 14-5 6-3 14-4 19-4h35l23 5 14 5 2 4-2 2-5-1-17-6-17-3h-31l-20 4-15 6-10 3-27 12-19 7-29 5h-39l-24-3-16-4-24-8-19-9-10-4-14-8-12-6-6-4-25-10-17-4h-31l-17 4-13 3-2-4 8-4z"/></svg>
