<?xml version="1.0" encoding="UTF-8"?>
<svg version="1.1" viewBox="0 0 1024 1024" xmlns="http://www.w3.org/2000/svg"><path transform="translate(437,217)" d="m0 0h7l6 4 2 4v9l-7 16-4 4-4-2-5-9-3-6v-11l3-6zm2 4-5 5-1 7 4 10 2 3 3-1 6-12v-7l-5-5z"/><path transform="translate(384,231)" d="m0 0 13 1 10 4 11 8 8 8 11 18 3 10 2-3 8-18 11-13 7-6h2v-2l11-5 9-2 12 1 10 4 8 6 7 11 1 3v10l-3 6-6 5-5 2-10 1-15-1-13 4-10 6-7 7-5 10-5 16h3l2-5 9-10 11-8 13-5 5-1h12l12 4 9 6 6 8 4 10 1 3v9l-4 10-5 4-5 2h-8l-10-4-12-7h-10l-12 6-8 8-8 16-4 13-2 24-2 2h-7l-5-2-1-1-1-19-4-16-8-16-9-9-11-6h-10l-22 11h-8l-7-3-5-5-3-9v-7l3-10 4-6 6-7 11-7 8-2h13l18 6 14 12 8 10 2 1-4-14-4-9-7-9-14-8-10-3-19 1-10-2-8-7-2-4v-11l4-10 11-10 10-4zm1 5-8 2-9 5-7 8-3 6v8l4 6 8 4h24l12 3 6 3h2v2l8 6 7 9 5 12 2 8 1 15-1 3-4-2-8-14-12-12-10-6-7-3-6-1h-12l-10 3-10 9-4 6-3 11 1 9 4 6 6 3 8-1 9-5 6-4 3-1h15l8 3 10 9h2l10 20 4 13 2 21 4 2 1-1 3-22 4-15 3-6 9-13 8-7 10-4h13l10 4 6 5 6 2 9-1 5-5 1-3 1-9-2-11-8-10-9-6-9-2h-11l-9 2-11 6-10 9-6 7-8 14h-2v-17l4-16 7-12 9-8 9-5 13-3h24l5-2v-2l4-2 2-3v-9l-5-10-7-6-10-4h-16l-13 6-8 7-8 9-7 12-7 23h-3l-4-16-8-16-5-8-7-6-5-5-11-5-8-2z"/><path transform="translate(328,277)" d="m0 0h18l10 5 4 4v4l-12 5-11 8-2 1h-8l-7-4-2-4v-9l6-8zm8 3-9 3-5 6v5l5 5h9l14-10 3-3-9-5z"/><path transform="translate(535,277)" d="m0 0h17l7 4 4 5 1 8-4 7-6 3h-7l-8-4-8-6-9-4v-4l7-6zm8 3-10 3-4 3v2l8 4 8 7h10l4-4v-7l-7-6z"/><path transform="translate(331,324)" d="m0 0 5 1 1 4-3 7-2 15-3 6-6 4h-9l-5-3-3-5v-9l4-8 8-7 9-4zm-4 6-10 5-6 7-1 3 1 8 4 4h6l5-4 2-6 3-16z"/><path transform="translate(545,331)" d="m0 0h7l13 5 8 8 2 4 1 10-4 6-4 3-7 1-8-4-3-6-3-17-3-9zm6 5 2 17 4 8 4 2 6-1 4-5v-7l-4-6-6-5-6-3z"/><path transform="translate(410,411)" d="m0 0 25 1 25 3 23 6 20 7 23 11 10 7 13 9 11 9 18 18 11 14 11 15 6 8 8 12 13 18 11 13 9 9 14 10 14 7 16 4h12l12-3 12-6 5-4 3-6-1-8-9-11-10-11-10-16-4-13-1-6v-22l2-11 5-13 8-11h5l4 9 3 9 11 12 8 5v2l5 2 11 7 8 9 7 14v6h4v-2l11-4 6-1h10l16 4 14 4 13 1 12-3 7-3h6l2 2-1 9-3 10-6 10-8 10-9 9-13 8-13 5-11 2h-33l-8 2-5 4-18 26-9 11-9 10-10 10-11 9-4 4 19-5 21-9 12-5 13-3 15-1 13 2 12 3 23 12 12 6 13 4 16 3h24l10-1 1 4-8 3-15 1-20-2-21-6-16-7-8-5-16-7-9-3-5-1h-17l-16 4-22 9-9 4-13 4-18 1-10 7-3 2 26 1 11 2 14 5 16 8 10 6 19 10 10 4 24 8 17 3h48v3l-5 2-9 1h-29l-20-3-17-4-26-11-16-9-11-6-12-6-18-6-11-2h-19l-18 3-25 10-18 6-15 3-7 3 3 6v6l-4 4-2 1h-25l-16-4-9 1-16 2h-13l-16-2-18-4-22-7-27-12-15-8-23-11-26-10-14-3-21-3h-23l-28 4-16 5-16 6-16 7-8 4-13 5-12 5-12 3-9 2-9 1h-21l-20-3-1-4 4-1 21 3h13l20-3 18-6 13-5 17-8 19-8 10-4 16-4 19-4 13-2-17-7-10-5-14-5-10-4-7-2-12-1h-17l-14 2-13 5-15 6-16 6-12 3-7 1h-22l-9-2-1-4 4-1 9 1h17l17-3 18-6 17-8 19-5 6-1h23l17 4 13 4 17 8 9 4 20 8h4l-14-12-8-7-7-8-10-13-6-9-8-17-4-12-6-5-4-8v-9l6-9 3-7 3-21 5-20 4-12 5-12 6-10 4-7 9-11 9-9 15-10 16-7 17-5 25-3zm-8 5-25 3-21 5-13 5-11 6-9 6-7 8-5 5-9 12-6 12-6 14-4 15-5 25-2 12-4 6-4 7 1 8 6 7 7 3 12 3 24 7 18 4 25 4h17l16-3 13-5 5-4 1-4-3-1v-3l9 3 3 3v6l-5-3-8 7 3 10 7 10 7 8 14 10 17 9 19 6 5-1 1-5 4 1 2 16 6 16 7 10 9 10 12 10 19 11 7 3 23 6 5 1h19l4-3-2-5-7-8-6-7-5-10-6-22-2-6-12-11-9-6-1-4 9 5 11 8 6 8 3 5 7 1h39l27-4 24-6 21-9 14-7 19-12 13-10 7-9 13-20 8-5 5-1h31l17-3 12-5 11-7 10-10 8-13 4-8 2-7-3-1-14 4h-17l-18-4-11-3h-14l-13 4-9 7h-2v-12l-2-8-7-11-8-7-18-11-10-9-6-11-4-8-3 1-7 16-3 15v11l3 15 7 15 7 10 9 10 4 2 2 5 1 2h2l1 7h4l4-5v-2l3 1-1 4-7 9-9 9-10 7-13 5-4 1h-20l-14-4-8-4-12-7-14-12-7-7-9-11-9-12-8-11-12-18-12-16h-2l-2-4-11-12-14-14-11-9-10-7-21-12-17-7-11-4-21-5-15-3-19-2zm-118 163-1 2 6 15 9 16 7 9 6 7 10 10h2l2 4 12 10 10 7 5 1v-2l-11-9-12-12-8-10-10-14-10-19-4-10-5-3-5-2zm17 6 3 9 9 17 11 16 9 10 7 8 8 7 11 9 20 6 10 2-5-5-11-9-13-12-9-9-9-11-6-8-12-21-3-5-6-2-10-2zm27 6-1 3 10 17 10 14 12 14 7 7 8 7 17 13 11 7 9 6 16 8 10 4 20 7 11 4 22 4 19 2h20v-2l-11-7-26-7-16-5-26-11-21-11-10-7-11-7-16-12-5-6-8-7-6-6h-2l-2-4-3-5-5-5-6-9zm77 1-13 4-5 1 2 4 6 8 8 7 10 10 12 9 16 10 16 9 30 12 3-1-5-17-8-3-13-3-23-11-14-11-8-8-9-14-3-6zm-45 6 2 4 10 13 20 20 14 11 11 8 21 13 16 8 12 5 20 8 20 5 4-1-7-7-7-10-3-5-16-5-23-10-17-9-8-5h-2v-2l-14-10-12-11-12-12-6-8zm370 34-19 11-16 8-19 7-23 6-11 2-17 1h-42l-1 4 3 11 2 3h11l24-2 28-5 23-8 15-6 16-8 10-6 12-11 6-7zm-40 34m-4 1-16 7-12 4-25 6-22 3-22 1-1 2 6 9 4 3 19-3 17-5 20-7 26-13 10-6zm-202 43 1 2 21 5 19 2 18-1 3-1v-2l-4-2-38-1z"/><path transform="translate(450,521)" d="m0 0 10 2 6 4 6 7 1 5v10l-2 8-2 4 3 4-10-1-5-1h-15l-6 1-6-12-1-4v-7l4-10 5-5 7-4zm-3 5 1 3 7 3 4 6 1 4v8l-2 5v4h6l5-8 1-8-3-9-4-5-6-3zm1 8-3 3v5l2 2 5-1 2-2v-5l-2-2z"/><path transform="translate(287,713)" d="m0 0h30l16 3 15 5 19 8 10 6 14 7 8 5 16 7 7 4 14 5 16 6 32 8 24 3h27l21-3 23-6 19-7 10-5 10-4 17-7 23-7 17-3h32l20 4 24 8 1 4-4 1-19-7-24-4h-28l-24 4-22 8-20 8-12 6-20 7-13 4-19 3-9 1h-32l-28-3-22-6-27-9-10-5-14-6-15-8-10-5-10-6-19-9-15-5-13-3-8-1h-26l-20 4-11 3-6 1-1-4 10-4 19-5z"/></svg>
