<?xml version="1.0" encoding="UTF-8"?>
<svg version="1.1" viewBox="0 0 1024 1024" xmlns="http://www.w3.org/2000/svg"><path transform="translate(500,193)" d="m0 0h28l25 2 25 8 11 4 9 4 16 8 17 12 9 7 10 9 14 14 13 17 7 11 6 10 4 10 4 8 7 21 5 22 2 17 1 16 10 4 8 6 6 10 2 10v17l-4 18-9 17-9 10-9 7-6 3-9 2-12 1-5 7-5 5-10 13-18 18-16 12-10 7-20 11-13 5-1 1h53l5 8 11 22 5 11 8-6 8-4 3-1h11l10 4 5 4 4 5 4 4 5 10 6 16 3 13 1 10v26l-3 17-3 10-6 15-4 6h-2l-2 4-7 7-7 4-7 2-5 36-3 15-8 27-6 16-2 2-27 1 7 4 7 8 2 4v11l-5 8-7 6-9 5-7 2-12 3-8 1h-23l-20-4-11-4-10-6-6-8-2-6 1-8 6-9 8-6h3v-2h-65v2l5 2 8 7 3 7v9l-4 8-8 7-6 4-10 3-12 3-8 1h-23l-16-3-13-4-8-5-8-7-3-7 1-11 4-6 9-8h3v-2h-27l-5-8-7-20-8-34-3-19-1-16-9-2-6-3-7-6-7-11-5-10-6-24-1-6v-33l4-19 4-13 8-14 7-8 8-5 7-2h10l10 4 7 5 3 3 1-5 12-25 6-10 2-2 51-1-15-6-20-11-12-8-10-9-11-9-14-15-6-7-7-10-2-3-17-2-14-7-10-9-7-10-6-12-4-13-1-5v-19l5-13 8-9 14-7 2-25 3-18 4-17 6-16 6-14 12-21 16-20 12-13 11-10 10-8 10-7 18-10 12-6 10-3 8-3 19-6zm-18 11-1 112-2 3-37 1-1 2 5 5 30 40 6 7 30 40 4-1 5-7v-2l4-2 10-14 10-13 12-16 1-3 3-1 8-11 16-21 1-3-37-1-2-1-1-113-1-1zm-15 3-21 7-19 8-13 8-11 7-11 9-7 7-6 5-7 8-6 7v2l-4 2-7 11-10 17-10 23-5 19-4 20-1 10v26l3 23 5 20 4 13 7 15 4 8 13 20 13 16 12 12 8 7 15 11 23 13 10 4 19 7 10 3 21 3 11 1h23l18-2 16-3 21-7 13-5 23-13 18-14 13-12 11-12 9-11 11-18 8-16 7-19 5-18 3-18v-41l-4-22-5-16-4-13-8-16-7-13-2-3h-2l-2-5-10-13-11-12-9-9-13-10-9-7-11-6-21-10-20-7-8-1-1 1v102l2 1 42 1 1 4-7 11-8 10-13 17v2l-3 1-14 19-10 13-9 12-7 8-8 11-5 6-6-1-7-10-5-5-30-40-7-8-14-19-10-13-7-9-3-4 1-5 43-1 1-1v-103zm245 196-1 1-3 21-5 21-4 13-6 14-6 12v3l8-1 12-6 8-7 9-14 5-16 1-7v-12l-3-10-4-6-6-5zm-398 0-6 3-5 4-4 8-1 4v16l2 12 4 10 7 11 7 8 10 6 8 3 5-1-8-17-6-15-4-13-4-20-2-16zm82 184-7 15-9 19-2 10 7 18 4 20 1 18-2 20-4 17-8 19-11 13-10 6 1 23 6 29 9 30 3 6 1 1h278l3-4 10-30 6-33 2-17v-5l-11-6-7-8-9-16-5-18-3-22v-16l3-21 4-15 4-8-1-8-4-8-4-10-8-17-2-2zm-53 29-10 5-8 10-6 14-4 13-2 12v28l3 16 4 13 4 9 6 9 7 6 7 3 9-1 8-5 7-8 8-18 4-17v-41l-5-19-8-16-8-9-9-4zm335 0-10 5-8 10-5 10-6 21-2 18 1 20 3 15 5 17 8 12 9 8 6 2 9-1 9-6 7-10 7-16 2-7 2-16v-24l-2-18-5-15-8-15-8-7-7-3zm-255 246-19 5-11 7-4 6v6l4 6 8 5 16 5 12 2h19l16-3 15-5 3-2v-2l4-2 3-4v-6l-4-6-10-6-11-4-9-2zm150 0-15 4-12 6-6 7v8l6 7 12 5 15 4 7 1h18l17-3 14-5 9-7 2-4-1-7-4-5-16-8-14-3z"/><path transform="translate(431,443)" d="m0 0h11l9 3 8 6 7 8 3 9v12l-5 12-7 8-9 5-5 1h-12l-8-2-9-6-6-8-4-11v-9l3-10 7-9 5-4 8-4zm1 9-7 3-9 8-2 7v12l5 9 7 5 7 2h7l10-4 7-8 3-7v-8l-4-9-5-5-4-3-6-2z"/><path transform="translate(586,443)" d="m0 0h12l10 4 10 9 4 8 1 4v14l-3 9-7 8-8 6-8 2h-12l-9-3-8-6-4-4-5-13v-11l5-14 7-7 11-5zm2 9-9 3-5 4-4 6-2 7 1 11 6 9 8 5 3 1h9l9-3 5-4 4-8 1-4v-8l-4-10-7-6-7-3z"/><path transform="translate(432,460)" d="m0 0h9l6 4 3 4 1 3v8l-3 6-5 4-3 1h-7l-7-4-4-7v-8l4-6 4-4z"/><path transform="translate(587,460)" d="m0 0h8l6 4 4 5 1 3v7l-2 5-6 5-3 1h-8l-6-4-4-5-1-2v-7l3-6 6-5z"/><path transform="translate(465,514)" d="m0 0h97l3 3v9l-1 9-8 14-6 7-10 7-13 5-5 1h-18l-13-4-10-6-8-7-9-14-3-12v-8zm7 9-1 4 1 6 5 8 4 1 10-6 9-3h21l9 3 12 6 3 2h3l4-6 4-13-1-1zm29 18-10 4-6 4 4 4 7 4 10 3h15l9-3 9-5-5-5-10-5-5-1z"/><path transform="translate(404,736)" d="m0 0h221l1 1v6l-2 2h-219l-3-3 1-5z"/><path transform="translate(405,772)" d="m0 0h219l2 2v6l-2 2h-219l-3-3 1-5z"/></svg>
