<svg xmlns="http://www.w3.org/2000/svg" viewBox="0 0 1024 1024">
  <g fill="#fff" stroke="#000" stroke-width="10" stroke-linecap="round" stroke-linejoin="round">
    <path d="M382 588 C 322 700 322 800 356 885 L 668 885 C 702 800 702 700 642 588 Z"/>
    <path d="M356 885 L 668 885 M395 760 L 629 760 M395 800 L 629 800" fill="none"/>
    <ellipse cx="330" cy="700" rx="42" ry="80"/>
    <ellipse cx="694" cy="700" rx="42" ry="80"/>
    <ellipse cx="430" cy="915" rx="60" ry="28"/>
    <ellipse cx="594" cy="915" rx="60" ry="28"/>
    <circle cx="512" cy="380" r="210"/>
    <path d="M472 172 L 552 172 L 552 298 L 602 298 L 512 415 L 422 298 L 472 298 Z"/>
    <circle cx="428" cy="472" r="30"/>
    <circle cx="596" cy="472" r="30"/>
    <circle cx="428" cy="472" r="11" fill="#000"/>
    <circle cx="596" cy="472" r="11" fill="#000"/>
    <path d="M462 550 C 490 578 534 578 562 550" fill="none"/>
    <path d="M302 388 C 285 388 272 402 272 420 M722 388 C 739 388 752 402 752 420" fill="none"/>
  </g>
</svg>
