<?xml version="1.0" encoding="UTF-8"?>
<svg version="1.1" viewBox="0 0 1024 1024" xmlns="http://www.w3.org/2000/svg"><path transform="translate(509,277)" d="m0 0h27l14 4 19 10 11 9 10 11 8 13 6 14 4 16 1 7v16l-3 16-5 13-6 12-10 13-11 10-14 8-14 5-9 2-19 1-2 13-4 12-9 17-5 7 9 6v2l4 2 1 1h8l8-7 11-8 13-4h17l9 3 5-1 3-17 4-10 9-10 11-8 11-4 5-1h14l13 4 7 5 9-1 16-2 8-7 9-4-3-13v-6l1-2 8 1 7 3 6 5 1 4 2-1 2-4 4-1 5 4-2 8 14 8 10 9 2 3h8l12 3 10 6 6 5 3 4v2h2l3 3 7-3-4-9-1-9 3-4 7 1 8 4 5 5v3l5-5h5l2 2v6l-3 7 5 1 9 5 10 9 7 13 1 7 9 1 36 9 1 1v155l-6 3-23 7-54 18-12 3-27 9-16 5-18 6-17 5-17 6-8 2-31 10h-7l-35-11-12-3-26-8-15-4-23-7-13-3-25-8-25-7-9-2-5 9 1 4 3 6-1 7-7 6-15 3h-19l-17-3-8-3-6-5-6-12-1-5-16 2h-40l-9 11-4 13-7 6-5 2-8 1h-26l-9-2-9-6-6-7-8-19-4-12-8-30-3-16-1-12-1-17-6 1-5 6-2 1h-8l-3-3-9 1-5-3-3-9-3-4-1-7 2-14 5-14 8-16 10-15 9-11 9-10 6-5v-3l-8-7-8-9-8-13-3-8-4-1-16 5-6 1h-17l-12-2-17-6-11-7-13-11-10-13-6-10-6-17-2-10v-26l4-17 7-16 9-14 6-7 11-9 12-7 12-5 7-2 22-1 13 1 18 6 15 9 13 11 3 4 4-2 8-7 11-8 19-10 16-5 19-5 12-2 11-1h20l22 3 16 4 16 5 12 7 7-9 11-12 14-11 19-8zm5 4-17 4-10 4-15 9-12 11-9 13 4 5 9 7 3 3 3-1 5-8 6-7 14-9 15-5 6-1h12l16 4 13 7 12 11 5 7 6 13 3 10 1 7v12l-3 14-5 12-6 10-12 12-16 8-11 3-15 1 1 13 1 1h19l14-3 14-7 13-10 9-10 2-5h2l8-16 4-16 1-7v-16l-3-16-5-15-6-10-8-11-9-9-9-7-14-7-13-4-5-1zm-151 25-24 3-16 3-19 7-12 5-19 13-11 10-4-2-7-8-15-11-18-8-12-3-8-1h-10l-15 3-16 6-6 4-10 8-10 10-9 14-6 14-3 16v24l3 16 8 16 6 10 14 14 13 8 11 5 16 3h17l16-3 19-8-1 3-3 2 1 6 6 12 7 9 8 9 8 6h2v2l14 8h2v2l-16-6-5 1-17 17-4 5v2l-4 2-10 16-7 15-5 15-1 5v11l4-1 2-2-1 12 3 3 5-2 4-5 2 1v6l3 3 5-1 4-5 1-2 9-3 14-9 14-12h2l-9 11-13 10-5 4 1 18 4 24 7 30 8 22 4 10 5 8 8 5 9 2 1-1v-9l3 3 1 7 1 1h13l1-1v-7l-1-5 2 2 2 9 5 1 5-2v-8l-1-2h2l2 6h4l3-5 3-10 5-8-8-4-5-2-1-2 20 4 8 1h30l20-3 15-4 17-5-14 8-13 4-1 3 7 15 8 4 12 3h13l1-2-3-7h-2v-2l4 2 4 8 1 1h13l1-5-3-6h2l3 1 2 7 2 1 5-4-1-6-4-5 3-9 7-14 8-24 4-16 2-17 1-10v-29l-2-21-2-16-2-10 1 1 6 22 2 13 1 12 5 5 6 2 4 4h6l2-2v-8l6 5h6l1-1v-7l-2-7h2l3 3v-11l-4-13-10-18-12-16-16-16-16-12-5 2-8 5 3-5 8-7 6-8 7-12 5-15 1-5v-24l-4-18-6-18-7-17-8-16-8-14-5-5-7-9-9-9-8-6h-2v-2l-16-8-12-5-18-4-24-3zm156 3-17 3-6 3-13 9-8 9-3 5 1 5 11 15 10 17 7 17 5 12 8 24 2 5h15l11-3 13-7 11-10 9-14 4-12 2-12-1-16-6-18-5-8-5-5-4-5-14-9-7-3-14-2zm185 118-2 2 1 7 5 8 7 4h3l-2-4-6-8 9 9h2l-1-6-7-8-8-4zm25 8-4 6-1 9 2-2 5-10-1-3zm-23 13-10 4-9 7-6 7-4 8-3 9v15l11 9h2l8 16 3 8 4-2 7-6-1-7 1-1h6l1 3 4-1 4-6 5-4 7-2h4l1 8 5-2 16-8 2-10-2-15-4-10-8-10-10-7-8-3-4 1-3 6h-3l-2-4-11-3zm-79 6-13 4-6 3-10 9-4 5-5 10-2 10v7l2 6 7 7 7 13 3-3 6-13 7-8 11-7 10-3 14-1 10 2h6l1-19-7-9-7-6-11-5-8-2zm48 6-7 3v4l5 5 3-3 3-5v-4zm135 5-1 5 3 8 5 5 8 1-6-7-2-4 9 10 2-2-3-8-8-6zm-48 3 3 9 2 9v16l1 1 15 1 6-8 8-6-1-5-7-8-5-4-12-5zm73 4-3 4-2 10h2l5-11-1-3zm-23 15-10 4-8 6-6 6v3l10 4 9 7 9 14 4 17 4 1 22-7 13-3 6-3 1-1v-15l-3-10-8-11-7-6-11-6-3 1-2 4h-4l-2-4zm-169 9-10 3-12 8-7 8-5 10-1 9 3 2 12 3 9 5 4-1 10-8 11-5 9-2 4-8 1-1 7 1v7l5 2 11 2-3-9-4-8-6-7-11-7-8-3-4-1zm-89 6-16 5-10 8-6 8 1 5 9 9 8 10 6 9 9 3 8 1 4-6 5-5 5-4 1-4-4-9-1-5 14 2 7 3 3 2 2-4-1-6-4-6-10-10-7-3-11-3zm211 4-14 5-4 3 1 3 11 4 9 6 7 7 7 14 3 10 4 1 20-6 6-2 2-4-2-10-5-10-9-10-10-7-13-4zm-29 1-10 5-4 6-1 8h2l1 3 8-3 5-6 1-12zm-25 11 2 6 3 5 1-2-3-9zm29 1-6 9-12 5-2 2-5-1-3-7-5 2-6 5 2 4 9 8 7 14 2 6 1 10 4 1 25-7 16-5 12-3 3-4-4-13-4-6-7-9-10-7-11-4zm-68 2-2 4v13h2l2-9 2-6zm199 2v3l8 3 7 1 2 3-10 3-12 4-13 3-26 8-22 6-19 6-12 3-26 8-8 2-33 10-16 4-6 2-11-1-15-4-14-3-35-9-14-3-31-8-11-2h-4v3l21 6 15 4 15 3 34 9 21 5 23 6 9-1 30-9 17-5 22-7 12-3 26-8 21-6 18-6 13-3 25-8 9-2 24-8-3-3-16-3-12-3zm-293 7-1 5 4 6 5 4 9 1-2-4h4l-2-5-5-4-8-3zm293 0v4l6-1v-2zm-269 1-2 3v7h3l1-9zm62 0-11 4-11 7-7 7-7 14-2 12 8 3 34 9 10 2 10-1 12-3 16-5 2-2v-10l-6-16-10-11-14-8-7-2-5 1v4l6 1v1l-6 1 1 6-4-3-5 1-4 2 2-6h-7l1-2 7-2-2-4zm245 3-18 6-15 4-5 3-11 2-21 6-26 8-21 6-15 5-16 4-24 8-16 4v2l-13 2-22 6-2 2v46l2 1 11-4 13-3 25-8 21-6 19-6 18-5 2-2 10-2 21-6v-3l7 1 19-6 12-3 26-8 20-6 1-1v-30l-5 1-3 3-5-1v-4l5-1 5 1 3-2v-13zm-303 6-1 9-1 2-8-2h-7l-6-3-5 2-8 7-4 5 1 2 30 7 22 6 3-1 4-15 4-8v-2l2-1-5-4-6-3-6-1zm294 11v3l3-1v-2zm-346 19-1 2 4 12 1 5-1 8-3 3 1 5-4 5-9 1-1 2 28 8 15 3 32 9 21 5 22 6 17 4 4 1v-47l-6-3-18-4-30-8-12-2-37-10-14-3zm354 16-12 3-28 9-16 4-22 7-9 2-28 9-8 2-28 9-1 1-11 2-29 9-12 3-18 6-2 2v31h6l2-3h5l2 4-3 3-5-2h-6l-1 1v14l2 1 12-3 27-9 8-2 28-9 23-7 24-7 28-9 12-3 27-9 21-6 15-5v-48zm-392 24-1 1v10l7 3-6-1-1 1v10l-2 7v6l-1 1-1 8 9 3h5v2l20 6 17 4 24 7 8 1 8 2 10 4 17 5 16 4 28 8 7 1v-50l-9-3-21-6-14-3-29-8-28-7-18-5-18-4-6-1h-7l-8-5zm392 28-29 9-25 8-7 3v2h-2v-2l-11 3-21 6-31 10-24 7-15 5-18 5-21 7-12 3-7 3-1 1v46l2 1 18-6 20-6 17-6 17-5 21-7 11-3 23-8 12-3 20-7 16-5 2-4h11l11-4 8-2 17-6 1-1v-44zm-398 23-1 5-1 4-2 6v5l22 8-21-7-3 1-7 17 2 2 27 8h6v2l19 5 26 8 11 3 27 8 18 5 8 2 5 2 9 3 12 3 10 3h3v-10-3-33l-5-3-16-4-38-11-16-4-28-8-16-4-25-7-16-4-6-2zm184 22-1 4 3-1-1-3z"/><path transform="translate(185,339)" d="m0 0h21l18 6 5 3v2l4 2 7 6 8 11v4h-3l-7-11-9-8-12-7-13-3h-18l-12 3-11 6-10 9-6 8-7 14-2 12v16l2 12 6 13v2h2l6 8 8 7v2l5 2 12 5 8 2h19l18-6 6-4h2l-1 4-14 8-11 3h-19l-12-3-15-8-11-10-7-10-6-13-3-12v-20l6-20 6-9 9-10 8-7 12-6z"/><path transform="translate(441,382)" d="m0 0h14l12 6 7 8 5 11 1 5v9l-4 12-6 8-8 6-6 2h-13l-10-4-7-6-5-9-3-8v-14l4-10 6-8 5-4zm0 4v2l12 3 8 7 4 6 2 6v15l-6 12-6 5-4 2v2l9-2 9-7 5-8 2-8v-10l-5-14-7-7-9-4zm-8 13-5 3-1 1v7l3 3 4 1 5-3 1-1v-8l-5-3zm19 28-2 2 1 4 5 1 2-4-3-3z"/><path transform="translate(313,399)" d="m0 0h9l11 4 8 6 5 8 3 9v14l-4 12-7 8-10 5-3 1h-14l-12-5-5-4-6-10-2-7v-15l4-11 8-9 10-5zm-4 4-8 4-7 7-4 8-1 4v13l3 9 8 9 7 4 8 2h6l-1-2-8-3-7-5-5-8-2-11 1-11 3-7 6-7 9-5v-1zm1 11-4 3v8l4 3 6-1 3-2v-7l-4-4zm23 29-2 2 1 4h5l1-4-2-2z"/><path transform="translate(388,435)" d="m0 0h10l5 3v6l-5 5-2 1h-9l-5-3-2-2v-5l5-4zm1 2-5 3-1 5 5 3h6l6-4 1-4-4-3z"/><path transform="translate(626,458)" d="m0 0 9 3-2 5-1 3h-6-4l-2-5v-3l5-2zm0 4v3h3l-1-3z"/><path transform="translate(408,460)" d="m0 0 2 1-2 5-4 3h-7l-4-1-4 3h-6l-6-5 1-3 4 3 5 1 5-3 3-2 5 3 5-2z"/><path transform="translate(640,500)" d="m0 0 7 1h2v6 3l-5 2-4 2-2-4-4-2 4-5zm1 5v3h3l-1-3z"/><path transform="translate(899,566)" d="m0 0h5l5 6-5 3h-8l1-6zm2 2-1 4h4l-1-4z"/><path transform="translate(900,599)" d="m0 0 5 1 2 6-4 3h-3l-3-4 1-4zm1 2-1 4 4-1-1-3z"/><path transform="translate(665,608)" d="m0 0 9 2 1 3-2 5h-5l-2-5zm4 4v4l3-1-1-3z"/><path transform="translate(693,609)" d="m0 0 4 1 1 1v5l-5 2-3-2v-5zm0 2v4l3-1-1-3z"/><path transform="translate(899,619)" d="m0 0h5l5 2-5 6-5-1-3-3zm2 2v4l3-1-1-3z"/><path transform="translate(667,628)" d="m0 0h5l2 2-1 5-5 1-2-2zm2 2v3h3l-1-3z"/><path transform="translate(691,628)" d="m0 0h6l2 5-2 2-7-1v-5zm2 2v3h3l-1-3z"/><path transform="translate(541,632)" d="m0 0 6 1 19 7 7 2-1 2-11-3-13-5-7-3z"/><path transform="translate(900,651)" d="m0 0 5 1 2 7-9 1-1-5zm1 2v4l3-1z"/><path transform="translate(557,652)" d="m0 0 17 4 19 7v2l-10-3-18-6-8-2z"/><path transform="translate(667,661)" d="m0 0 7 1 1 3-3 4h-5zm2 3v3h3l-1-3z"/><path transform="translate(692,662)" d="m0 0 5 1 1 5-2 2-5-1-1-5zm1 2v3h3l-1-3z"/><path transform="translate(595,664)" d="m0 0 12 3 21 7v2l-10-3-23-7z"/><path transform="translate(899,670)" d="m0 0h5l2 2v5l-4 2-4-3v-5zm2 2-1 4 4-1-1-3z"/><path transform="translate(668,681)" d="m0 0 5 1 3 2-2 4-4 2-3-2-1-5zm1 3v3h2v-3z"/><path transform="translate(596,709)" d="m0 0 11 3 12 4 3 3-10-3-16-5z"/><path transform="translate(694,713)" d="m0 0 5 5-1 4-5 1-3-3 1-4zm-1 4v4l3-1v-3z"/><path transform="translate(665,715)" d="m0 0h6l4 3-2 5-4 1-2-2zm4 2-1 4 4-1-1-3z"/><path transform="translate(693,735)" d="m0 0 5 1 1 4-2 2h-7l1-5zm0 2 1 3 2-1v-2z"/><path transform="translate(667,736)" d="m0 0h7l2 6-8 1-3-4v-2zm3 1-2 3h4l-1-3z"/></svg>
