<?xml version="1.0" encoding="UTF-8"?>
<svg version="1.1" viewBox="0 0 1024 1024" xmlns="http://www.w3.org/2000/svg"><path transform="translate(511,296)" d="m0 0h27l12 3 15 8 10 8 10 10 6 8 4 8 6 16 3 15v16l-3 15-4 11-8 15-5 7-8 7-8 6-19 9-8 2-20 1-1 1-2 11-1 7-10 19-4 5v3l9 7 3 3 8-1 7-7 8-6 13-4h16l10 3 2-1 5-20 5-8 4-5 11-8 10-4 5-1h14l15 5 4 3 21-3 8-6 7-4h2l-3-9v-9l5-1 9 3 6 5 1 2h2l3-4 5 2 1 1v5l-1 3 16 10 7 8 14 2 10 4 9 7 4 5 3 3 7-1-4-11v-7l2-3 8 1 7 4 4 4v2l5-4 5 1 2 4-3 9 6 2 10 6 6 6 4 8 3 9 17 4 21 6 5 3-1 141-12 5-18 5-3 2-18 5-5 2-8 2-14 5-11 3-18 6-1 1-9 2-11 4-21 6-27 9-13 4-11 4-8 2-9 1-21-6-8-3-17-5-8-2-13-4-38-11-9-2-7-3-33-9-8-3h-7l-4 8 2 5 1 3v7l-7 6-13 3h-17l-20-4-7-4-4-5-4-9v-4l-7 1-9 1h-36l-4 4-4 6-4 12-6 5-5 2-6 1h-24l-10-2-8-5-4-5-8-18-3-9-5-17-6-23-2-27v-5l-5 1-7 6h-7l-3-3h-10l-4-4-2-7-3-5v-10l4-15 3-7 4-9 11-17 9-11 9-10 4-3-1-4-5-5-9-10-8-14-2-5-5 1-14 4-5 1h-15l-16-4-10-4-7-4-13-10-10-12-8-14-6-22v-24l3-14 4-12 12-19 11-11 9-6 15-7 14-3h15l16 2 14 5 16 11 8 7 2 3 4-2 7-6 11-8 8-4 15-7 18-5 19-3 10-1h19l21 3 14 3 16 6 6 3h5l6-8 9-10 12-9 12-6zm5 3-17 4-17 9-10 8-10 11-2 3v6l9 7 3 3 4-1 1-4 3-1 5-7 13-9 14-5h24l13 5 6 4 10 9 4 5 3 3 8 21 1 6v13l-4 15-7 14-9 10-5 4-7 4-12 5-18 2-1 2 1 10 1 1h17l15-4 12-6 9-7 7-7 9-12 4-7 6-19v-27l-6-21-10-16-11-12-10-8-14-7-10-3-7-1zm-139 23-22 3-19 4-9 4-14 5-7 6-9 5-12 11-7-6-7-7-11-7-11-6-28-5-14 2-10 3-14 7-4 4-8 7-7 7-9 15-4 9-2 15v23l2 13 5 12 6 10 9 10 10 9 10 6 8 3 15 3h15l21-5 7-4 4 1-3 2v5l7 14 9 10 5 6 9 7 11 6h2v2l-13-5h-5l-17 17-3 5-6 5-7 12-7 15-2 8-3 11v8h3l2-2-1 10 2 3h5l7-6v8l6 1 4-4 1-3 12-4 11-8v-2l5-2 7-7v2l-7 9-10 8-5 3-2 2 1 16 5 26 3 12 3 14 7 19 5 11 6 7 9 4 4-1 2-7 3 8 1 1h12v-7l-1-4h2l2 9 1 1h6l2-2-1-8h3l2 6 5-5 2-9 5-7-1-3-8-3h-3l1-2 24 4h27l23-4 21-6 5-2v2l-6 2-8 4-10 4-1 5 5 10 5 4 15 4h10l1-3-3-6 3 1 4 8h12l1-4-1-4v-2l3 3 2 4 5-2 1-5-4-6 3-9 4-10 4-8 6-18 2-11 4-27v-26l-3-26-3-17 2 4 6 22 2 19 3 3 6 2 4 4 6-1 2-2v-6l6 4 5-1 1-5-3-8 5 1 1-3-2-11-7-14-8-14-11-13-11-11-11-8-4-3-4 2-7 4v-2l4-5 5-4 8-11 5-9 5-17v-21l-5-20-4-13-9-21-6-11-6-10-11-14-9-9-9-7-9-5-9-4-14-5-27-5zm146 2-16 3-8 4-11 8-8 9-2 3v5l8 10 1 2h2l2 6 7 11 5 12 6 15 6 17 2 7 1 2 4 1h8l13-3 11-6v-2l4-2 5-4 9-13 4-10 2-14-1-14-3-12-7-12-9-10-7-5-11-5-13-2zm168 110-1 1v8l3 5 6 4h4l-3-6 4 3h2l-1-5-6-7-6-3zm23 8-4 7v2h2l3-9zm-23 11-11 6-8 7-5 9-3 8v16l5 5 8 6 5 9 3 9h3l7-6v-7h6l4 2 6-8 3-2 10-1 1 6 15-6 5-3 1-8v-8l-5-16-3-1-2-5-10-9-8-3-5 1-3 5-3 1-2-4-8-3zm-72 6-7 2-8 3-7 5-8 10-5 13v11l2 6 6 6 3 5 4 5 10-17 5-5 9-5 4-2 19-1 13 1 1-6 1-10-6-9-6-5-11-6-7-1zm45 5-7 3 2 4 2 3h3l3-4v-5zm125 5-1 1 1 8 4 6 5 2 4-1 3-2-3-8-8-5zm-44 3 2 9 2 10v12l1 1h14l7-8 5-4-1-6-8-9-8-4-4-1zm66 4-3 4-1 6h2l4-7v-3zm-22 13-8 3-9 7-3 4v3l7 3 8 6 7 8 5 13 2 9 2 1 11-4 18-4 9-3 2-3v-13l-3-10-9-11-12-8-4-1-4 5-3-1-2-3-6-1zm-155 8-11 4-11 8-7 11-2 7v5l8 3 11 4 5 2 8-7 11-5 9-2 3-6v-2h9l1 7 6 2 7 1-3-11-4-6-4-5-10-6-10-4zm-82 6-6 2-7 1-10 8-5 8 1 5 7 7 8 10 4 7 7 3 10 2 7-10 6-4 1-4-3-7v-4h8l7 2 6 2 2-5-4-8-9-9-4-3-13-3zm195 3-9 3-6 4v3l12 5 8 7 4 4h2l1 4 5 13 2 5 9-1 16-4 3-3v-9l-5-10-4-6-7-7-9-5-9-3zm-30 2-7 6-3 5v5l3 3 6-2 4-4 3-12-1-1zm8 10-3 3-3 5-8 3-5 3-4 1-3-7-4 1-6 4 1 5 7 6h2l2 5 6 16 1 8 9-1 25-7 17-5 3-3-3-14-9-12-5-3-9-6-5-2zm-63 2-3 6 1 6h2l3-7-1-5zm37 0v2l2-1zm146 2v3l9 3 5 1v2l-20 7-17 4-23 7-25 7-9 3-8 2-5 2-9 2-29 9-9 2-23 7-10 3-12-2-9-3-10-2-29-7-16-4-15-4-11-2-16-4h-4v3l9 3 14 3 28 7 14 3h4v2l23 5 16 4 14 3 19-5 13-4 9-3 8-3 9-2 13-4 24-7 19-6 13-4 19-5 18-6 20-5 14-5 5-2-3-2-22-5zm-144 3m-126 4v6l4 5 3 2h7l1-2 2-1-2-5-5-4-3-1zm270 0v2l4 1v-3zm-248 1-1 2v6l2-1v-7zm56-1-16 8-8 7-6 9-3 10v6l4 3 28 7 15 4 8-1 19-5 9-4 1-7-2-9-5-10-7-8-10-6-9-4-5 1v4l4 2-4 1v5l-3-2h-5l-4 2 2-5-5-1v-1l5-1-1-4zm226 3-8 3-16 5-7 1-4 3-14 3-14 4-13 4-34 10-10 3-7 2-11 4-12 3-10 3-18 6-9 2-14 4-5 3-1 21 1 8v12l3 1 7-3 12-2 21-7 7-2 17-5 23-7 8-2 8-3 22-6 2-2 9-1 18-6 48-14 3-2v-26l-3-1-4 3-5-1 1-4 8 1 3-3v-11zm-277 6-4 10-3-2h-8l-7-3-4 1-7 6-4 5 1 3 42 10 6 1 2-2 5-16 3-5-1-3-7-4-5-1zm270 10 1 2zm-318 18-1 4 3 8 1 8-3 6-1 3-1 5-7 4 1 2 22 6 14 3 20 6 21 5 20 6 16 3 9 2 1-23v-6l-1-3 1-1v-9l-5-3-28-6-9-3-11-3-7-1-34-9-8-1-9-3zm322 14-13 4-10 3-22 7-22 6-14 4-15 5-15 4-24 8-10 2-16 5-11 4-11 2-11 4-7 3-2 2v27l4 1 3-3h5l2 3-4 4-4-2h-5l-1 1v13l7-1 26-8 17-5 14-5 12-3 24-8 17-4 10-4 11-4 11-2 20-7 5-2 10-2 21-7 3-2v-42zm-357 22-1 1-1 8 5 3h-4l-2 15v6l-2 6 1 4 12 3 9 4 25 6 14 4 9 3 9 1 27 9 28 7 16 5h4v-17l1-12-1-17-11-3-15-5-14-2-8-3-26-7-17-4-16-5-15-3-10-1-5-1-10-5zm358 26-11 4-12 3-21 7-8 3-12 3-18 6-16 4-7 3-30 8-7 3-24 7-18 6-18 5-2 2v43l10-3 15-4 9-3 13-4 7-3 30-9 15-5 7-2 14-5 14-4 18-6 7-2v-2h-2v-2h3l1 2 6-3 11-1 27-9 3-3v-38zm-364 21-1 5-3 6v6l6 3h3v2l-9-3-5 8-2 5v5l11 4 18 4 4 3 15 3 25 8 40 11 16 5 18 5 15 5h4v-42l-2-2-26-7-12-4-10-2-21-6-20-6-12-2-8-3-17-5-10-2-13-4zm168 21v2h2v-2z"/><path transform="translate(211,353)" d="m0 0h23l9 2 10 5 12 10 5 8v2h2l-1 4-4-4-6-9-11-8-9-4-4-1h-26l-9 3-10 6-3 3h-2l-2 4-8 11-3 7-2 12v16l3 15 6 11 9 10 8 6 15 6 4 1h16l16-6 5-3h4v2l-7 5-8 4-9 2h-18l-9-2-12-6-10-8-9-10-5-10-4-15v-19l4-15 5-10 12-13 10-7 10-4z"/><path transform="translate(393,404)" d="m0 0h8l7 3 7 8 8 16 3 12v10l-3 7-5 5-7 4h-4l2 5h7l4-2-2 4-3 3-11-1-4 3-5 1-6-5 2-2 2 2h7l2-4 1-3h-11l-9-4-4-5-2-8v-22l4-15 4-6zm4 3-7 3-5 6-4 11-1 5v21l2 4h8l4 3h2l2 5h7l5-2 2-5 5-5 5-2-1-13-7-19-2-3h-2l-2-4-5-4zm21 48-5 5 1 3 5-3 1-5zm-34 4 1 3 6 3 3-1-3-4z"/><path transform="translate(457,413)" d="m0 0h13l9 3 5 4 2 4v5l-5 1-5-3-6-2h-12l-9 4-5 5-4 5h-3l-1-7 3-7 5-6 6-4z"/><path transform="translate(330,425)" d="m0 0h9l9 2 6 4 5 5 2 4v5l-3 1-8-6-6-2h-16l-9 6-4 5-5-1-2-3 1-6 8-9 7-4z"/><path transform="translate(619,462)" d="m0 0 8 2-1 5-1 3h-10l-1-6zm1 4 1 2z"/><path transform="translate(632,501)" d="m0 0 5 1 4 1v6l-6 3-3 1-1-3-3-2 2-4z"/><path transform="translate(870,562)" d="m0 0h6l3 5-3 2h-8l1-6zm3 1-1 4h3l-1-4z"/><path transform="translate(871,592)" d="m0 0 5 1 1 6-3 2h-3l-3-4 2-4zm1 2v3l3-1-1-2z"/><path transform="translate(657,600)" d="m0 0 7 3v5l-5 2-3-3v-6zm2 4v3h2v-3z"/><path transform="translate(680,601)" d="m0 0 5 1 1 5-2 2-5-1-1-2zm1 2-1 3h3l-1-3z"/><path transform="translate(870,610)" d="m0 0 7 1-1 5-3 2-5-3zm2 2v3h2l-1-3z"/><path transform="translate(657,619)" d="m0 0 5 1 1 4-2 2-4-1-2-4zm2 2v2h2v-2z"/><path transform="translate(679,619)" d="m0 0h6l2 3-3 3-5-1-1-4z"/><path transform="translate(871,640)" d="m0 0 5 1 1 5-2 2h-5l-1-1v-5z"/><path transform="translate(657,649)" d="m0 0h5l3 4-4 3-5-1v-5zm2 3 1 3v-3z"/><path transform="translate(679,650)" d="m0 0h5l2 2v3l-3 2-4-1-1-5zm2 2-1 2 3-1z"/><path transform="translate(870,657)" d="m0 0h5l2 5-3 3-4-2-1-4zm3 3 1 2z"/><path transform="translate(658,667)" d="m0 0 5 1 2 2-1 4-6 1-2-2 1-5zm1 3 1 2z"/><path transform="translate(680,698)" d="m0 0h4l2 3-1 4-4 1-3-4zm1 3v2h2v-2z"/><path transform="translate(658,699)" d="m0 0 5 1 2 3-4 4-4-2-1-5zm1 2-1 2h3v-2z"/><path transform="translate(680,717)" d="m0 0h5l2 4-3 3h-8l2-4z"/><path transform="translate(655,718)" d="m0 0h8l1 5-5 2-3-2zm4 2 1 2z"/></svg>
