<?xml version="1.0" encoding="UTF-8"?>
<svg version="1.1" viewBox="0 0 1024 1024" xmlns="http://www.w3.org/2000/svg"><path transform="translate(511,314)" d="m0 0h12l10 3 16-2h13l19 2 26 6 15 6 21 10 10 7 14 10 12 11 12 12 11 15 10 15 10 22h2l5-25 6-16 4-6 6-4h6l5 1 5-11 10-13 7-7 7-5 12-5h11l6 3 4 5 2 6v19l-5 19-3 7v6l4 10-1 9-5 12-7 11-22 22v5l4 5 1 2v7l-5 10-10 9-13 8-9 5-1 2 6 1 10 5 14 3 13 7 10 8 6 7 4 8v10l-3 5-7 6-13 5-5 1v11l1 18-2 13-6 7-6 3h-10l-10-4-4-5-3 1-6-9-4-4-3-1 5 16 1 3h-2l-4-8-2-7v-6l4-1 8 7 4 6v-9l4-16 3-10v-4l-14-3-8-4-6-7-1-3v-7l4-10 11-12 7-5h2v-2l13-6-3-2-16-6-9-2-2 6-4 13-5 12-10 17-13 16-7 7-10 8-13 9h-2v14l-4 17-8 16-11 16-11 12-7 8-10 12h-2l-2 5-8 16-3 11h-1v-9l5-12 9-14 11-13 10-11 9-11 6-9h2l2-5 6-14 4-16v-10l-14 8-7 3-4 13-8 16-10 13-16 16-11 9-14 11-12 11-10 13-3 5-1-4 9-13 15-15 14-11 13-11 8-7 9-10 7-10 6-10 5-15-14 6-10 4-19 5-25 6-34 4-30 2-8 6-16 8-36 15-6 2-18 8-12 5-11 6-16 9-13 9-8 8-2-1 10-10 7-5h2v-2l9-6 12-6 10-6 15-6 8-4 14-5 19-8 16-6 17-9 4-4h-14l-15-1-14 7-36 12-18 5-24 8-32 12-20 11-6 3-11 8-6 4-2-1 11-9 20-12 12-6 21-9 36-12 42-13 14-5 8-4-1-1-15-3-19-7-19-10-10-7-16-15-4-5-5-5-8-13-4-5-2 5h-2l2-8-4 2-5 5-5-12-4-4 1 19-8-6-5-1 7 11h-3l-6-9-1-6 7 1 6 3-1-11 2-5 4 2 6 9 2 4 7-7-4-9-5-17v-5l-19 7-33 16-9 5-1 12 8-6 5-2 7 1 7 8 2 12-1 19-2 11 6-3 5-2 6-8 9-6 4-2h14l9 5 5 4 6 10 1 3v7l-5 5-12 3v8l1 5v13l-3 5-5 2h-10l-5-3-3-7 1-17 1-7-4-1-1 10-4 10-7 11-9 10-7 5 3 15-1 4-5 3-4-2-3-15-1-1-23-1-15-3-11-6-7-8-2-5 1-8 4-6 5-3-1-3-17-9-8-7-5-9-1-2v-12l3-5 5-5v-3l-7-6-9-13-5-10-2-8v-12l3-9 10-11 9-4h11l9 4 11 11 4 8 1 3 4-1 5-3 8 1 5 4 6 13 1 6 4-2 12-7 16-8 17-7 1-1-41-7-14-5-12-9-3-7-1-15-8-6-10-6-15-14-7-10-3-8v-12l3-10-7-8-8-10-5-13v-14l5-9 6-5 8-2h12l12 3 11 6 12 9 8 8 5-1 5-4h8l9 5 7 8 8 13 8 14h7l6 4 6 8 3 10v5h2l1-6 8-21 8-14 5-9 12-16 11-13 7-7 11-9 11-8h2v-2l16-9 12-6 19-6 9-2 8-8 5-3zm4 4-10 3-6 5 1 3h4v2h-12l-16 4-20 9-17 10-11 8-13 11-4 5-7 6-13 17-11 18-9 20-3 9-6 20-3 17-1 10v23l3 21 5 17 4 11 4 8 11 17 11 12 11 10 10 7 16 9 19 7 21 5 13 2h53l28-4 36-8 20-7 12-5 26-13 10-7 10-8 10-9 8-8 9-12 5-8 9-20 3-11 3-16 1-12v-13l-3-22-3-14-6-17-6-14-8-13-8-12-8-10-14-14-6-5-5-5-18-12-20-11-16-6-21-6-18-2h-26l-16 2-4 1v-4zm282 25-8 3-7 4-5 5-5 4-3 5v2l-3 1-9 17-12-1-5 4-5 10-4 13-4 20-3 4v7l4 14 3 14 2 14 2-1 9-21 4-8v-12l-1-7 2 10h3l18-32 1-6v-17l1-1v17l4-2 13-20-2 5-12 23v3l5-2 5-3h2l-15 8-12 23-4 10 1 3 12-6h2l-12 6-7 6-5 12-7 20 2 1 11-6h2l-16 9-3 6-3 12 1 5 10 1 16-8 12-9 9-9 2-5v-8l-5-6v-5l9-10 13-13 7-11 5-11 1-10-4-8v-8l6-15 2-10v-20l-3-6-3-3-3-1zm-564 25-9 4-5 5-2 6v13l4 11 7 9 9 11-3 10-1 7 4 13 7 10 11 10 9 6 11 6 1 3 1 16 4 6 6 5 16 7 13 3 23 3 14 2v-4l-6-7-7-8-9-3-10-2h-5v-2l16 3h5l-6-8-10-13-11-13-7-3-10-3h-7v-2l18 4 2-1-11-13-11-14-7-9-23-9 13 4 5 1-2-4-10-13-7-8-2-4 15 16 11 12 16 17h3l-1-20h2v12l1 13 7 8h2l2 4 5 4-1-28h2v19l1 12 9 11 10 11 4 4v-25h2v11l1 18 11 13h1l3-35 2-14v-8l-3-14-4-8-7-6-9-1-9-16-8-12-10-10-3-1h-8l-5 5-4 1-8-7-3-3h-2l-2-4-15-9-10-4-7-1zm530 59m-1 2m-1 1-12 22-5 12-7 15-4 12v13l3-3 3-12 14-36 6-13 3-7zm-480 8 2 2v-2zm5 5 2 5 9 10 7 9 11 14 7 8 2 4 5 5 13 16 8 11 3 4h3l-1-10-11-12-7-8-9-10-9-11-12-13-7-8-11-12zm-58 75-8 5-6 8-3 9v11l4 12 6 10 9 10 5 5-1 4-6 5-3 9 2 9 6 9 13 9 12 6 1 5-6 4-4 4-1 8 3 6 8 7 12 5 6 1h26l-3-15-8-5-13-5 12 3 6 2-1-5-5-12-8-19-6-7-16-7 13 4 3 1-1-5-11-19-4-6-9-6-2-2 7 3-2-5-7-11-4-5 5 5 9 12 5 5 5 7h2l1-15h2l-1 7v14l15 24 3 6h2l5-17-4 23 6 12 10 25 2 9 5-1 11-11 7-11 4-9 1-5v-10l-3-7-3-2-9 1-4 3h-2v-7l3-14v-19l-3-7-6-5-7 1-8 7-2 3h-2l-1-20-3-13-4-6-4-3h-7l-5 5-2 3-3-5-6-12-8-9-7-4zm534 14-12 5-10 7-7 6-7 10-2 6 1 7 4 5h2l2-8 6-5 9-4 11-2h22l13 4 6 4 2 3 1 5 3-1 2-4v-8l-4-8-6-7-8-6-7-5-11-4zm-5 29-16 4-5 3-3 5 1 6 5 4 9 3 5-1 1-1v-5l-8-3h4 5l2-3-4-7 7 7 6-2 1-6 2 7 5 1 6-7-2 5-1 4 4 1h4l-5 3 2 6 11-3 6-5 2-3-1-5-5-4-13-4zm2 14-2 2-4 20-6 19v12l5 6 6 3h12l8-5 3-7 1-11-2-23-2-12-3-4zm-490 18m1 1 1 4 4 6 1-2-5-8zm83 6-8 4-10 9-1 4 3 3h2l2 9 8 3h24l8-3 3-4-2-8-6-9-10-7-3-1zm-77 4 3 9 8 16 10 23 5 17 5 19 2 9h4l1-1-1-9-1-7-2-7-6-17-8-19-15-28zm74 30-2 6-2 9v10l3 5 4 2h9l5-3 2-9-3-19-1-1z"/><path transform="translate(524,340)" d="m0 0 4 1 8 9 2 4-1 3-9-12z"/><path transform="translate(503,342)" d="m0 0h2l-7 21h-2l2-11z"/><path transform="translate(486,344)" d="m0 0 2 1-12 9-7 7-1-2 7-8 9-6z"/><path transform="translate(583,397)" d="m0 0 10 3 8 6 5 6-1 2-15-3-17-1-1-1v-6l4-4zm-4 3-4 2-1 6 18 1 9 1-5-6-8-4z"/><path transform="translate(446,423)" d="m0 0h7l6 5-2 4-8 4-9 4-9 8-2-1 1-8 7-11 6-4zm-2 2-7 6-5 9v2l5-2 16-8 3-2-1-4-3-1z"/><path transform="translate(580,440)" d="m0 0h13l8 4 8 8 3 10-1 4-4-2-6-7-7-5-3-1h-8l-6 3-6 7-5 14h-3l-1-4v-11l3-9 7-7z"/><path transform="translate(457,462)" d="m0 0h11l11 6 6 9 2 5v7l-4-1-6-8-8-6-9-1-8 4-4 5-4 9-2 5h-4l-1-3v-11l4-9 8-8z"/><path transform="translate(620,466)" d="m0 0h4v2l-15 6-7 5-2-1 5-5 12-6z"/><path transform="translate(522,486)" d="m0 0 7 1 5 4 1 4-5-4-9-1-5 5-1 3h-2l1-5 5-6z"/><path transform="translate(431,499)" d="m0 0h10l9 3 3 2-1 2-9-3-17-1v-2z"/><path transform="translate(576,499)" d="m0 0 9 6 3 1v2h-4l-1 10-4 14-5 11-8 11-9 8-9 4-10 3h-14l-13-4-11-6-9-8-8-11-5-10h-6l2-4 4-5 1-3 3 1 1 4 19 5h24l16-4 15-6 16-10 4-2zm3 8-10 8-19 10-9 3-19 3h-15l-19-3-5-2h-3l2 6 5 8 10 12 10 7 4-2 5-6 8-5 6-2 13-1 7-3h16l4 1 3-3 3-7 4-16v-8zm-25 33-11 4-7 7 2-5-5-1-10 4-8 6-4 6 5 3 7 1h15l10-2 10-7 9-9 2-4-2-2-6-1z"/><path transform="translate(713,506)" d="m0 0h2l-1 10-2 10-6 16-8 14-9 11-5 5-2-1 7-7 9-14h2l3-9 7-18 3-16z"/><path transform="translate(389,572)" d="m0 0 3 3 8 11 9 9 14 10 14 8 21 8-3 1-13-4-17-8-13-9-10-9-7-8-6-9z"/><path transform="translate(550,578)" d="m0 0h2l-1 3-9 3h-11l-4-2v-1l17-1z"/><path transform="translate(716,589)" d="m0 0 6 1 4 4v5l-4 2h-10l-3-2v-5l5-4zm-2 3-3 3v3l2 1h8l4-4-4-3z"/><path transform="translate(622,607)" d="m0 0 3 1-7 3-19 7-11 3h-7l3-2 20-6z"/><path transform="translate(398,633)" d="m0 0h8l5 3 1 6-3 2h-13l-3-2 1-6zm2 2-5 4 1 3 2 1h9l3-2-2-4-3-2z"/><path transform="translate(689,638)" d="m0 0 11 1 10 6 9 10 2 6-1 6-8 5-8 2 2 19-3 9-7 3-9-1-5-4-1-2v-12l1-11-12-4-5-5 1-9 3-6 5-6 11-6zm-1 3-9 4-9 9-3 6v5l5 4 7 2 8 1h9l16-3 6-4-1-8-6-8-6-5-9-3zm-1 33-2 5-2 12 1 7 4 4h10l4-3 1-3v-10l-1-10-2-2z"/><path transform="translate(779,643)" d="m0 0h7l1 2v14l-3 15-2 8-5 10-8 12-2 4 7-2h7l1 5-6 8-9 8-10 6-3-1 11-8 8-7 5-5 1-3-11 2-16 8 6-7 11-14 8-14 4-10 2-13v-15l-8 1-14 6-11 7-9 9-6 10-5 12-2 8-1 15h-2l-2-9-4-5-5-2v10l4 15 2 3-1 3-6-10-2-18 2-7 5 1 6 5 3-12 4-10 8-11 6-7 10-7 10-6 8-3z"/><path transform="translate(570,653)" d="m0 0h10l8 5 3 4-1 5-6 3-5 1h-9l-9-3-1-6 4-6zm-1 2-6 6v5l5 2h14l6-2v-5l-5-5-11-1z"/><path transform="translate(765,667)" d="m0 0 2 1-9 14-5 9h-2l-2 6-7 18-1 4h-2l2-10 4-10 8-15 8-12z"/><path transform="translate(507,675)" d="m0 0h11l10 6h4l3-2h9l6 5 2 6-5 4-9 1h-3l-4 5-6 2h-27l-6-3-2-3v-6l6-8 5-4zm2 2-7 2-6 5-4 7 1 5 3 3 9 2h13l10-2 4-4-1-7-7-8-8-3zm28 4-5 4 2 6 1 1h10l4-2-1-5-6-4z"/><path transform="translate(663,698)" d="m0 0 5 1 7 7 5 10 2 8-2-1-7-14-5-6-4-2 3 17 1 6-3-4-3-9v-12z"/><path transform="translate(423,711)" d="m0 0h14l8 3 5 6 1 4-3 5-9 4-4 1h-13l-7-2v-2l-3-1-1-2v-6l5-7zm-1 2-6 4-3 4v6l4 3 9 2 11-1 10-4 2-5-3-5-9-4z"/><path transform="translate(508,711)" d="m0 0 10 1 7 4 2 4-1 5-8 5h-15l-6-3-2-2 1-6 6-6zm-1 2-8 6-1 1v5l6 3h11l9-3 1-4-5-6-5-2z"/><path transform="translate(648,713)" d="m0 0 6 1 6 5v5l-8 3-10-1-3-3 2-6zm-2 3-4 4 1 4 2 1h9l4-3-2-4-2-2z"/></svg>
