<?xml version="1.0" encoding="UTF-8"?>
<svg version="1.1" viewBox="0 0 1024 1024" xmlns="http://www.w3.org/2000/svg"><path transform="translate(511,330)" d="m0 0h11l9 3 15-2h12l26 3 19 5 18 8 12 6 13 9 14 11 17 17 13 18 7 10 4 10 4 9h2l6-28 5-12 7-6h11l5-10 11-13 6-6h2l1-3 13-5h11l5 3 4 5 1 4v18l-3 16-4 8v6l4 8-1 9-3 7-8 14-20 20v6l4 5v7l-5 10-9 8-14 8-6 3 3 2 12 6 12 2 14 8 11 10 5 10v9l-3 5-6 5-8 4-9 2v10l1 17-2 13-7 6-4 2h-10l-8-4-3-3-4-2-8-10h-3l3 10v3h-2l-3-11v-6l6 1 7 8 4-18 4-11v-4l-13-3-8-4-5-5-1-4v-7l3-8 10-11 9-7 10-5h2v-2l-11-3-12-5h-2l-7 21-11 21-9 12-14 14-12 9-7 5-2 18-5 16h-2l-2 7-7 10-8 11-15 16-12 15-7 15-1 4h-2l2-10 1-3h2l2-6 6-9 9-11 10-11 11-14 7-9 3-7 3-10 2-7 1-4v-8l-5 2-6 4-8 3-3 10-3 5-1-3 3-7v-3l-4 2-17 6-12 3-8 3-17 4-19 2-16 2-28 2-5 5-17 8-8 4-7 2-6 3h-3v2l-18 6-9 4-11 5-9 4-8 5-10 5h-2v2l-3 2-3-1 11-8 11-6 6-4 12-5 7-4 18-6 17-7 13-5 17-9 4-2v-1l-20-2h-6l-8 5-8 3-14 4-7 3-17 5-9 2-9 3-6 3-5 2-12 3-16 7-21 10-15 10-5 4h-2l2-4 10-7 12-7 6-4 15-6 10-5 11-3 7-3 13-5 14-3 26-9 9-2 12-5 2-2-1-1-13-2-18-7-14-7-12-8-16-15-5-5-12-18v-2l-5 4 1-6h-2l-5 5-7-13h-1v15l-4-2-5-3-2 1 3 5-1 2-5-6-1-5 4-1 5 2 2 1v-8l2-6 4 2 4 4 2 7 2 1 2-4 3-2-2-6-4-10-3-12-17 6-19 9-18 10-1 1v9l6-5 3-1h8l7 8 1 2 1 13-1 13-2 10 10-4 4-6 7-6 7-3h14l12 9 6 11v7l-5 5-10 1-1 7 1 5v14l-5 5-11 1-5-3-3-7v-6h2l1 7 2 4 4 2h8l4-1 1-3v-12l-2-12h-13l-3 9-1 4h-2l1-14-3 3-1 5-4 10-7 11-8 8-6 5 3 13-1 4-5 3-4-2-2-13-2-2-21-1-13-2-9-5-8-7-2-6 1-7 3-5 3-3 3-2-6-4-12-6-10-11-2-5v-11l3-5 4-4 1-4-4-2-3-3v-2l-4-2-5-9-4-8-2-7v-11l3-8 10-11 7-3h12l7 3 10 10 5 10 4-1 4-2 7 1 6 5 4 8v8l5-2 15-8 7-4 10-4 9-4-4-2-31-5-10-3-10-6-6-5-2-6v-14l-4-2-14-9-13-12-6-8-4-10v-9l3-9-2-4-11-12-5-14v-13l4-7 5-5 8-2h13l11 3 9 5 5 4 8 7 5 5 5-2 3-3h9l8 5 8 10 5 6 7 14v2h8l8 6 3 7 2 7v4h2l1-6 4-8 3-10 8-13 3-7 4-4 4-7 9-11 9-10 10-9 10-7 11-8 17-8 2-2 26-7 7-7 5-3zm-1 4-8 5-2 4 1 1-20 4-17 8-10 5-14 9-16 13-5 6-6 5-10 13-10 15-4 9-5 9-4 10-3 12-2 6-4 19-1 10v20l3 20 3 9 4 14 10 18 5 8 16 16 8 7 11 6 8 5 16 6 17 5 12 2h62l22-4 36-9 15-6 8-3 16-8 14-8 12-10 8-7 8-8 10-14 4-7 4-8 5-14 1-1 2-12 2-17v-11l-3-21-3-13-6-17-4-9-5-8-6-11-11-15-5-4-7-8-10-9-10-7-11-7-9-5-8-4-19-7-15-4-16-2h-23l-15 2-7 3v-2l4-1-1-3zm262 23-10 5-9 8-3 2-9 15-3 7-11-1-5 4-4 6-5 16-2 15-4 6 1 9 2 5 3 18 2 10h3l7-16 3-6-2 6-10 24-1 4v9h3l-3 10v3l3 2h10l12-7 11-8 9-9 1-3v-9l-4-5v-5l9-10 10-10 6-8 6-13 1-9-4-8v-7l4-8 3-9 1-6v-18l-3-6-3-3zm-520 23-6 4-4 5-1 4v13l2 6 6 10 9 10 1 4-3 7-1 6 3 10 8 12 10 9 18 11 1 3 1 14 4 6 6 5 14 6 13 3 25 3h9l-6-8-8-9-17-4h-3v-2l17 3-2-5-9-11 3 2h2l2 6 5 5 6 7 3 5 6 8 3-3-2-7-9-10-7-8-12-14-13-15-5-6 5 5 3 2 1-4-1-20h2v16l1 11 6 8 12 13 1 2h2v-21h2l1 26 9 11 2-1 2-29 2-14v-8l-3-15-6-8-2-2-10-1-8-15-8-12-8-8-3-1h-8l-5 5-5-1-13-13-22-11zm-1 137-8 5-6 9-2 7v10l4 11 5 9 11 12 2 2-1 4-5 4-3 8 1 7 6 9 7 6 12 6 5 4 1 4-4 1-6 6-1 7 3 6 8 6 10 5 7 1h21l1-5-3-10-11-6h5l3 1-1-7-6-15-6-12-6-5-10-5h-3v-2l14 5-1-5-6-10-6-11-4-4-7-2v-2l5 2v-3l-4-7-7-9h2l2 4 9 11 8 10 1 2h2l1-13h2l-1 6v12l9 15 8 12 3-1 2-10-1 7-2 10 8 16 4 10 5 15 3 2 8-7 7-8 5-11 3-8v-10l-3-6-3-2-8 1-5 3 1-13 1-6v-18l-3-7-5-4-7 1-7 7-1 2-3 1v-19l-3-12-5-7-2-1h-8l-4 5v2l-4-4-7-14-8-7-3-2zm491 13-16 8-11 9-7 11v10l3 4 3-1 1-5 7-6 6-3 11-2h20l13 4 6 5 2 5 3-1 1-2v-7l-3-8-6-7-10-7-11-6-3-1zm-5 27-13 3-6 4-3 4v5l7 5 7 2 5-1 1-5-8-3 2-1 6 1 1-4v-3l3 3h6l1-1v-5l2 5 5 2 4-4-1 6 3 1h5l-5 2 1 5 8-1 7-4 3-5-2-5-5-3-11-3zm2 13-2 2-3 19-5 14-1 4v11l6 5 4 2h10l7-4 4-5 1-13-1-20-2-12-3-3zm-373 23-10 5-8 8 2 4 3 2 3 8 7 2h21l7-2 3-4-2-9-5-7-9-6-3-1zm-70 6 1 4 8 16 5 12 4 9 7 22 4 19 3 2 2-2-2-12-2-9-5-15-4-9-3-7-9-17-6-11zm429 18 1 2z"/><path transform="translate(524,354)" d="m0 0 4 2 6 7 2 5-4-2-7-9z"/><path transform="translate(504,356)" d="m0 0 1 4-5 11-1 3h-2l3-12z"/><path transform="translate(486,358)" d="m0 0 2 1-3 3h-2v2l-7 6h-2v2h-2l2-4 9-8z"/><path transform="translate(766,393)" d="m0 0h2l-2 5-4 7-7 14v5l-5 4-8 17-4 8-1 4 5-3h2l-1 3-8 5-5 10-7 21 11-6 2 2-16 9-1-4 5-14 6-16 6-13 2-7-7 13h-2v-8h4l1-4h2l1-5 10-17 3-9 4-2z"/><path transform="translate(271,411)" d="m0 0 6 5 7 8 14 15 8 9 1 4 5 7 3 2 3 5 20 25-1 2-6-7v-2l-4-2-4-3-7-3 4-2-11-14-8-10-5-7-12-5v-1h6l-8-11-7-7-4-6z"/><path transform="translate(312,436)" d="m0 0h2l2 22v3l-6-7 2-2z"/><path transform="translate(583,455)" d="m0 0h11l11 4 5 6-1 3-8-1-6-2h-13l-10 5-6 5-4 4-1-1v-7l3-5 8-7z"/><path transform="translate(521,488)" d="m0 0 8 1 4 4v2l-4-2-3-1h-7l-4 6h-2l1-4 4-5z"/><path transform="translate(571,501)" d="m0 0 4 2 5 3 1 2-2 1-4 19-6 13-8 10-10 9-12 4h-21l-10-4-14-11-9-11-4-9h-5v-3l6-8h2v3l9 3 10 3h22l15-4 11-5 7-3 11-8 2-3zm2 7-12 9-19 9-8 2-11 1h-16l-16-2-8-2 1 4 4 8 10 12 14 9 5 2 5 1h14l11-3 9-7 7-7 6-10 5-15 1-10z"/><path transform="translate(695,518)" d="m0 0h2l-1 8-6 15-4 4 1-5 6-15z"/><path transform="translate(685,545)" d="m0 0 1 3-4 6-5 7-2-1 8-13z"/><path transform="translate(399,568)" d="m0 0 3 1 3 6 11 12 14 10 13 8 10 4 8 2v2l-13-3-10-5-5-3-11-6-11-10-7-8-5-8z"/><path transform="translate(547,573)" d="m0 0 2 2-9 3h-11l-2-1 1-2 16-1z"/><path transform="translate(700,583)" d="m0 0 6 1 3 3v5l-3 2h-10l-3-2 1-5 3-3zm-3 3-2 4 3 2h6l3-2v-3l-2-1z"/><path transform="translate(603,603)" d="m0 0 4 1-15 6-10 2-4-1 6-2z"/><path transform="translate(407,623)" d="m0 0h7l6 4v5l-5 1 2-4-3-3-7 1-2 3 2 3-4-2v-5z"/><path transform="translate(623,628)" d="m0 0 1 3-4 9-14 16-11 11-8 6-5 5-10 8-10 9-9 12-4 5v-5l9-12 13-13 13-10 11-9 5-5 8-7 12-17z"/><path transform="translate(675,628)" d="m0 0 10 1 6 3 7 6 4 5 2 6v5l-8 5-7 2 2 17-3 9-7 3-8-1-6-5v-12l1-10-9-3-5-3-1-2 1-10 5-8 8-5zm-1 3-8 3-9 9-2 4v6l3 3 7 2 16 1 16-3 5-5-2-6-4-6-7-6-7-2zm-1 30-2 4-2 15 3 5 2 2h9l4-3 1-3v-9l-2-10-1-1z"/><path transform="translate(752,633)" d="m0 0h12l1 1v13l-4 20-4 9-7 10-3 5 12-1 1 1v5l-9 10-9 7-4 2-3-1 10-7 8-7 4-4v-2l-9 1-9 4-5 3 2-4 11-13 5-7 6-13 3-16v-14l-10 2-11 6-6 3-10 9-6 9-4 8-3 12-1 13h-2l-1-8-3-1-5-5-2 7h-2l1-10 3-1 6 5 3 1v-6l5-14 8-11 6-7 7-5 5-3z"/><path transform="translate(565,642)" d="m0 0h11l6 4 3 3-1 5-5 3-4 1h-10l-7-2-2-2 1-7 3-3zm-1 2-5 6 1 5 4 1h12l6-2-1-6-5-4z"/><path transform="translate(744,655)" d="m0 0h2l-2 4-10 17-5 8-3 9-3 8h-2l4-16 15-25z"/><path transform="translate(507,662)" d="m0 0h11l4 4-13-1-8 3h-3z"/><path transform="translate(522,666)" d="m0 0 8 2 3-2h9l6 5 1 5-3 3-12 1h-2l-2 4-4 3-3-1 1-2 5-3v-7l-5-6zm13 1-4 3 1 6 2 2h7l5-2-2-6-5-3z"/><path transform="translate(496,670)" d="m0 0 1 2-2 4 1 6 5 3-1 2-5-2-3-4v-6z"/><path transform="translate(651,683)" d="m0 0 5 1 5 5 4 5 2 8h-2l-6-10-5-5h-1l1 10 2 8-3-1-3-8v-12z"/><path transform="translate(696,691)" d="m0 0h2l4 18-2-1-3-6z"/><path transform="translate(430,695)" d="m0 0h13l8 3 4 4 1 5-3 5-7 3-5 1h-12l-7-3-3-3v-6l7-8zm-1 2-6 4-2 3 1 7 3 2 12 1 11-2 5-3 1-4-3-5-8-3z"/><path transform="translate(507,695)" d="m0 0h7l6 2 5 5 1 4-5 5-4 2h-13l-5-2-3-3 1-5 8-7zm0 2-8 6v5l6 3h10l7-3 2-4-4-5-5-2z"/><path transform="translate(637,697)" d="m0 0 7 1 4 4v5l-5 2v-2h2l-1-5-1-1h-8l-2 2-1 4h2v2l-4-2v-4l1-3z"/></svg>
