<?xml version="1.0" encoding="UTF-8"?>
<svg version="1.1" viewBox="0 0 1024 1024" xmlns="http://www.w3.org/2000/svg"><path transform="translate(729,148)" d="m0 0 5 5 7 14 5 6 10 5h18l15-6 4-1v8l-1 3v19l3 9 5 5 5 3 20 5 3 3-14 13-4 5-2 4v13l6 9 7 6 6 4v4l-16 2-10 3-5 4-3 6v22l1 6-1 2-5-1-7-5-12-5h-11l-9 4-4 4 7-1 7 4 2 4v12l-4 8-4 5 1 4 8 4 4 3 1 3v8l-5 8-8 6-7 27-12 27-8 15-10 16-12 15-5 7v37l-2 12-6 9-6 5-3 1h-9l-7-1-2 5-7 8-6 4-3 1h-10l-6-3-4-7-1-3v-13l-16 8-2 13-4 4-6 3-4 4-9 4-5 4h-6l-3 3-11 8-5 3-17 5-10 2 1 8 2 6 15 2 15 8 6 7 6 12 1 5 10-2 35-9 26-8 5-2 12-3 27-9h15l5 3 1 3 4 2 8 8-2 19-5 22-3 11-3 9-7 18-8 16-9 15-10 13v2l11 1 11 4 12 7 12 6 3 1 27 1v4h-26l-9-3-16-8-9-5-7-2h-11l-18 5-33 17-11 4h-22l-11-4-13-7-10-7-18-8h-23l-18 5-29 12-17 5-8 1h-11l-16-4-10-5-17-11-6-2h-16l-21 7-16 5h-17l-12-4-14-8-7-3-5-1h-10l-13 4-15 6-10 2h-14v-3l23-4 16-6 13-4h12l8 3-4-8-6-10-10-22-7-25-5-25-6-2-4-5-1-10 2-6 3-3 10-2 17-2 30-5 1-11 2-4 1-28 1-20 4-20 4-15 4-10 6-12 8-10 6-8v-2l-9-6-17-5-11-6-6-5-11-5-6-5-6-12v-13l6-9 6-5v-19l-7-14-3-11-66-2-10-2-6-4-3-7v-9l3-7 5-6 8-4 4-1h17v-23l6-10 5-6 13-7 10-2 12 1 9 4 8 6 6 8 3 7 7-6 6-2 14-4h8l5 1 14-7 23-5h19l13 4 6 4 6 5 6 10h33l11 4 3 4v10l-4 6-9 7-12 6-5 1 6 17v4h6l6 4 4 3 6 3 5 3 7 3 4 4 1-6 4-10v-6l-6-4-3-5v-12l3-9v-12l-2-7v-14l4-9 9-10 8-5 15-5 17-3h24l24 4 9-1 18-7 16-4 14-4 6-7 4-8v-13l-3-5-5-4-16-8v-4l13-4 9-5 6-8 2-9-1-13-4-13 2-5 5 1 15 5h21l11-6 9-9 9-16zm-1 7-7 13-9 9-10 5-7 2h-14l-14-4-5-1-1 3 3 12v14l-4 11-8 8-9 3-4 2 1 4 12 7 5 6 1 3v14l-6 11-2 3 1 1h29l1-2-6-15-2-8v-18l5-18 6-10 5-6 8-6 17-8 5-1h23l13 4 13 7h2l2 4 5 5 4 5 7 17 2 10v11l-4 16-7 14-8 9-12 8-17 5-8 1-2 2 1 4 8 11 5-2 10-5h13l11 4 5 3h4v-21l5-10 9-6 14-3v-5l-7-6-4-7-1-4v-12l4-8 9-9 3-2-1-3-17-6-6-3-7-8-2-9v-15l1-7-4-1-13 5h-14l-10-4-8-7-8-13-2-3zm-5 35-12 3-10 5-9 7-9 10-5 8-3 13v22l4 14 8 10 25 10 13 10h20l10-3 11-7 10-9 6-9 5-15 1-4v-17l-4-13-5-10-9-10-10-8-16-6-5-1zm-67 93-17 3-18 4-12 4-6 13-5 18v36l5 19 8 16 5 8 15 16 9 8 10 7 20 8 12 3h29l13-3 12-5 7-17 5-14 1-11-1-1-16-1-4-1 17-1 8-2 7-5 3-5v-7l-3-5-6-2-1 2-1 6-10 5-4 1-30 1-4 8-1-2 1-2v-12l4 5h11l12-6 13-10 7-7 7-12 1-7-5-6-6-1-8 6-7 10-8 13-2 1 7-12v-2h2l6-10 3-4-1-7-8-12-13-13-14-8-13-5-14-3zm-110 12-20 3-12 3-8 4-11 10-4 8-1 11 3 12v11l-4 10v10l5 6 4 2h3l6-10 2-7-1-1h-9v-2h14l6-7 7-9 2-5-1-1h-21l-2 1 1-2 28-1 8-9 14-11-1-3-10-2-26-1 20-1 25 2 15-10 7-4-1-3-16-3-12-1zm55 2-12 5-14 9v10l5 6 8-1 9-4 7-22-1-3zm-339 11-14 4-8 7-4 5-3 6-1 4v20l1 2-7-1h-12l-8 3-7 6-3 7v8l6 7 8 3 8 1h56l6-2 4-9 4-10 6-9 8-10 13-13 3-2 1-9-4-1-7 4-3 3v2h-5l-4-11-5-5-8-7-10-3zm111 3-12 3v4l17 5 11 7 9 10 10-3 14-3 2-2-1-6-4-5-10-8-7-2zm194 4-16 12-5 5-8 7v10l3 7 8 6 6 2h8l2-5 1-10 5-10 7-8-1-5-4-6-2-5zm-222 6-12 6-9 7-4 16v15l3 14 2 2 4-1 14-11 20-12 14-8 14-6 2-2-1-4-5-5-6-5-6-4-9-2zm-18 1-6 5 1 5 11-7 2-3zm263 5-12 7-7 8-3 7-1 10 2 9 9 11 10 7 4 2-1 4-4 11v11l4 10 7 8 10 5 23 1 4 12 7 8 5 3 11 3 11-1 12-5 4 2 5 4 9 4h12l9-4 6-7 5-9v-4l-8 1-12 3h-27l-15-3-19-8-14-10-10-9-8-8-9-14-5-10-5-14-3-15-1-29zm-151 6-16 2-17 5-15 5-12 5-19 10-11 8-14 10-3 3v2h12l19-4 19-10 11-8 9-6 16-9 10-4 14-5 14-2v-2zm8 5-17 5-6 3-1 3 2 3h2v2l8 6 6 6 8-2 17-9 6-6v-7l-7-4zm-130 1-13 12-9 11-7 11-5 15v10l4 13 3 5 4 1 10-13 7-6 5-6 6-5-1-9-2-11v-27zm216 6-12 12-7 10-8 12-5 11 1 5 4 2h10l2-1v-21l3-8 8-7 8-4-2-10zm-119 6-15 8-16 11-14 8-14 5-10 2-18 1-5 3-8 8 1 5 6 12 1 12-6 4-1 11-2 6-4-1-9-5h-9l-3 1v2l-4 2-4 5v15l6 10 5 5 7 2h11l8-1 8 11 6 5h2l1 3 17 9 9 3 18 3h16l3-1-2-5 15 5h14l10-5 5-4 5-8 3-8 2 3 5-2 8-9 6-10 4-11v-7l-2-1-7 3-19 4-3 2-5 13-4 5-8 4-4 1h-9l-13-4h-8l-10 5h-16l-7-3-12-2-8-5-5-13-1-1v-11l7-11 3-2h5l2 3h-2l-1 6 4 4 2 1h6l8-4 10-9 9-4 7-2 4-4 1 8 7 3h9l13-3 6-5 3-6v-6l-4-6-7-2h-10-4l7-2h8l8 4 3 3h27l1-4-3-6-4-5-7-14-3-9-2-2h-26l-3-3v-6l3-2 18-1-2-4-7-6-7-4zm122 8-8 4-8 7-2 6v11l6 10 8 6 5 1h8l7-2v-19l4-10 2-4 2-1-6-3-9-3-5-3zm210 4-8 7-11 6 1 3h7l10-3 5-4-1-8zm-327 4-3 2v5l1 1h22l-1-5-6-3zm145 0-7 8-4 9v14l6 10 9 8 8 3h8l1-1 1-15 3-10v-5l-11-6-7-8-5-7zm-108 26-1 3 4 5 3-1-1-5zm42 4-5 10-4 10-1 7v7l-4 10 1 1h11l3-3-1-4-2-7-1-3 2-13 6-10v-4zm16 2-6 2-6 5-5 9-1 9 3 9 7 8 6 3h15l2-1 1-10v-13l7-11-1-3-10-5-3-2zm-48 2 1 3h2v10l-5 4-20 1-6 2-5 12-2 3-11 5h-20l-6-4h-11l-8 5-10 8-9 4-7-1-4-2-2-10-4 1-1 2v9l1 4-4-4h-2v9l3 5 7 4-4 1 1 4 8 5h10l10-3 6-5h2l-5 5-7 4v2h14l10-3 11-11 5-11-3 10-2 3v3l5-1 8-6 6-9 2-8 4 2 9 5 11 1v-4l-6-3-1-1 6 1 4 2h16l7-4 1-3-12-1 1-1 12-1 6-3 6-5 3-7v-3l-4 1-5 5-3 1 5-5 5-6 1-3v-7l-3-5h-4v6l-2 1v-7l-5-6zm-158 2-9 10-5 10v15l7 2 8 4 3-1 1-6v-13l-1-4 5 5 3-1-2-13-6-8zm155 2 1 6 3 1v-6zm88 1-10 2-4 4v2l-3 1-3 6-1 5v7l6 12 8 7 7 3h12l5-3 2-14 6-11 2-2-1-4-12-5-6-5-3-4zm33 17-6 4-5 7-2 6v13l4 9 7 1 28-14 5-5 2-4-6-2-9-2-9-5-5-8zm40 16-7 7-18 11-33 16-10 8-5 9-1 3v9l4 8 8 6 6 2h19l9-3 10-8 8-8 4-5v-2h2l11-23 2-5 1-5v-7l-4-11-2-2zm-123 2-6 3-12 1-3 7-1 5v13l5 9 5 4 5 1h14l-1-14v-8l3-8 4-6-10-7zm28 4-12 4-6 7-3 6v13l4 8 8 7 4 2h19l1-5-1-5v-8l4-10 3-4v-3l-13-7-5-5zm-107 11v3l3-1v-2zm141 1-9 2-7 9-2 5v10l2 5h3l5-8 8-7 9-6 1-5-3-5zm74 2-4 9-1 5 3 9 6 7 5 3h16l10-9 2-9v-9l-3-1-3 1h-15l-11-4zm-211 1-10 5-3 4v3l12 2 7 2 4-4 2-6v-5l-1-1zm255 0-4 5-1 12 3 12 7 6 5 1h8l9-11 9-13v-2l-22-1-7-3-5-6zm-206 2-2 1-3 10-9 14-6 7-3 3 2 2 13 4h5l1-3 3-30v-8zm-66 13-6 3 1 4 7 2 12-1 4-3-2-4-1-1zm69 1-2 4-1 19 1 19 4 4 3 1h8l2-2-2-9v-12l4-9v-5l-11-5zm151 4-7 11-3 6v2l6-1 8-4 3-4-3-9zm-316 3-5 2 1 5 8 5h6l-2-5-6-7zm360 2-7 7-1 3v14l3 6 3 3h6l13-13 3-2-1-5-10-5-7-8zm-166 1-9 4-4 7-2 7 1 9 3 7 6 7 8 3h10l7-3 2-2-2-10v-11l2-5-1-4-10-5-5-4zm131 6-6 5-9 5v9l6 9 5 4 6 2h11l10-5 4-4-2-10-1-12-15-1-5-2zm-98 2-8 2-3 5-1 15 5 10 7 6 8 3h12l9-3 6-4 1-4-3-3-13-4-7-5-4-11-2-7zm-94 7-5 6 1 6 10 18 8 21 7 1 5-5-1-9-7-16-7-13-8-9zm10 1v4l9 15 9 21h2l-1-15-2-18-3-3-10-4zm159 0-7 7-13 8-15 4-1 4 5 5 8 4h19l10-7 4-4-1-7-2-6-2-7zm78 4-4 4-2 28-2 7 1-10 1-7v-11l-4-1-7 6-2 18-4 14v5l4 3h8l7-4 6-12 2-7v-27l-2-6zm-348 7-5 5v3h15l9 4 7 5 9 13 7 10 8 10 6 6 4-2v-8l-3-10-5-9h-2l-2-5-9-12-6-5-17-3-6-2zm93 0-7 11-6 4-4 1h-13l-12-3-6-2 1 5 7 10 9 18 5-1 6-5 10-5h17l6 2h4v-6l-12-25zm-8 2-6 2h-25l-7 1v4l15 6h14l7-4 5-5-1-4zm236 4-8 6-8 3h-9l-7-2-3-3-5 2-3 5-16 7-2 2v8l3 6 4 4 8-1 18-10 14-9 13-10 5-4-1-3zm-325 4-8 6-4 5-7 15-5 18-4 23-1 10v34l5 3 5 2 7 1h22l10-2 9-5v-5l-11-8-15-15-5-8h-2l-4-10 5 5 7 11 7 8 5 5 6 5 16 9 13 3h24l20-4 12-4 1-5-2-6-5-12-3-9-2-17-1-1-29-1-11-7-6-7-12-17-11-13-6-5-4-2zm137 1-1 1v9l3 17 5 8h9l13-5 7-3 1-17-7-3-8-3-4-3zm190 3-4 4-5 22-2 4 2-11 1-10-4 1-7 5-6 19v-3l2-7v-5l-5 1-7 5-2 10 1 10 7 6h10l8-6 7-8 4-8 3-12 1-3v-14zm-141 2-8 5-2 5v13l4 10 9 6 9 3h9l12-6 1-2-5-13-1-11-9-3-9-4-3-3zm50 1-18 9-1 3v10l5 10 4 4 9 4h6l4-5 10-1 3-3 10-1 1-2-5-7-3-12-2-2-12-3-7-4zm-149 18-10 5-7 7-3 4v8l4 2h10l17-3 14-4 1-3-4-1h-21l-7 2v-2l13-1h14l13 2 2-2-1-5-5-4-12-5zm46 1-6 8-7 14-1 1v10l6 21 2 2 6 1h19l15-4 9-7v-2l-6 1-7 2v-2l9-3 8-5 1-5-4-1-8 4-7 2 3-3 12-5 5-4v-6l-1-1-9 1-10 6-3-1 8-4 9-8v-5l-1-1h-9l-11 5-3 1h-9l-4-4-3-8zm126 14-2 4 2 9 5 1 3-4v-7l-2-3zm-12 2-3 4 1 11 4 6 5-1 2-2v-11l-4-6zm-27 2-15 8 1 5 11-1 12-4 2-1-1-4-5-3zm-111 3-10 4v13l4 17 4 8 3 7 2 2h7l8-4-1-7-5-14-4-18-2-8zm78 0-4 6 1 9 3 1 14-3 1-5-2-4-11-4zm46 5v10l3 6 5 1 3-3 1-6-3-7-2-1zm-15 6-16 4-21 3-2 2v6l8 16 12-1 13-3 10-6 2-2-1-5-2-3v-8-3zm8 2-4 4 1 7 4 3 5-2v-7l-4-5zm-98 25v3l4-1-1-2zm48-9-13 7-1 1 1 15 4 18 1 4-6-19-3-16-1-1h-9l-4 3-1 13v13l-1-5v-22l-3-2-5 1-6 9-3 2 2 4 3 5h2l2 5 8 12 10 10 10 7 7 4h9l6-5 3-8v-27l-5-17-4-9zm-58 24-17 6-11 3-24 3-18-1-11-2h-5l-6 5-10 4-5 1h-22l-13-3h-7v20l2 11 4 4 25 5 41 4 14 1h68l29-2 6-2-1-11-3-8-5-5-5-4-3-3-11-4-6-1h-11l-17 2-23 4-13 4h-3l18-6 15-3 10-1h35l1-4-7-13-4-3zm74 12-2 2-1 14-2 11-4 5-2 1h-10l-9-4h-4l2 11 2 5 17-1 29-6 22-5 1-1-1-9-7-11-7-6-12-5-5-1zm160 0-2 2-1 18-1 3-1 17-3 18-7 28-5 15-9 21-8 15-3 9 5-1 9-6 11-20 10-22 5-17 6-18 3-17 4-28v-15l-2-2zm-7 2-17 6-13 4-27 8-39 11-37 8-21 4-34 5-34 3h-67l-32-3-43-6-35-7-28-7-3-1h-7l-2 2v12l2 4 10 3 29 7 49 9 19 3 57 4h48l57-4 30-5 29-6 26-6 35-9 27-8 17-5 5-3 1-2 1-10v-9zm24 5-2 5v16l7 6 3-1 2-12v-7l-7-7zm-411 12-31 4-4 1v3l17 5 19 4h9l1-3-3-13-1-1zm384 11-25 7-20 6-31 8-11 3-26 5-22 5-16 2-41 5-30 2h-46l-30-2-42-5-11-1-49-10-16-3-6-1-1 1v8l2 9 2 3 22 6 16 3 45 9 20 2 32 4 26 2h68l37-3 42-5 19-3 35-8 18-4 22-7 9-2 6-3 4-15 2-16zm24 2-2 6-4 21v8l3 3 5-1 4-13 3-14-1-4-6-6zm-33 35-27 9-24 5-24 6-11 2-9 1-39 6-39 3h-83l-36-3-45-7-10-1-36-8-20-4h-6v10l5 13 3 3 26 7 18 4 14 2 25 5 29 4 54 5 17 1h62l37-3 36-4 35-6 12-3 15-3 13-4 4-4 6-15 3-13v-8zm25 5-9 23-3 12 3 2 7-10 5-12 3-8-1-6zm-423 34-1 4 5 12 7 7 22 6 15 3 29 6 13-2h20l9 4 7 4 53 5h21l15-7 14-5 7-2h27l10 3 14 8 2 2h10l36-4 28-4 10-3 6-7 11-22v-3l-13 1-28 7-23 4-24 3-13 2-42 3h-71l-45-3-30-4-18-2-34-6-19-4-27-6zm408 6-7 13v3h2l9-13-1-3zm-394 20-1 4 7 9 8 5 8 3 13 1 17-4 6-3v-2l-41-9zm350 15-32 5-35 4v3l17 7 4 1h14l13-4 10-4 4-2 1-2 8-4v-4zm-228 7v3l12 5 5 1h18l14-3v-2l-38-4z"/><path transform="translate(478,161)" d="m0 0h16l9 3 11 8 6 9 5 11 2 3 11-5h11l10 4 7 5 4 8 2 6v13l13 4 5 5 2 4v11l-4 6-5 4-4 1-45 1h-127l-10-3-6-4-2-6v-9l4-6 4-3 9-2v-9l4-11 7-7 7-3h12l8 2 1-10 5-12 9-10 14-7zm-1 3-10 4-10 8-8 13-3 16-3 1-9-4h-8l-8 4-5 5-3 7v14l-10 2-5 3-4 6 1 7 7 6 8 3h152l17-1 6-2 5-4 2-4v-8l-6-8-8-2-7-1v-18l-4-8-5-6-8-3h-14l-11 6-2 1-6-19-9-10-6-5-9-3z"/><path transform="translate(702,231)" d="m0 0 7 1 4 4 1 5v5l-3-1-4-8-5-1-3 3-2 7h-3v-7l4-6z"/><path transform="translate(752,232)" d="m0 0h6l6 5 2 8-3 2-4-9-1-1-7 1-3 9h-2v-9l4-5z"/><path transform="translate(714,252)" d="m0 0h2l6 8 6 3 9-2 4-4 3-4 3 1-3 7-4 4-4 1h-12l-6-3-5-7z"/><path transform="translate(656,348)" d="m0 0h13l8 4 4 5-1 5-5-2-7-3-4-1h-7l-8 3-6 5-1-5 7-8z"/><path transform="translate(352,386)" d="m0 0h11l3 2v7l-7 6-10 5-7 6-5-1-1-1v-8l5-9 6-5zm0 3-8 6-3 5-2 4 1 4 5-2 8-6 8-4 1-1v-5l-1-1z"/><path transform="translate(438,391)" d="m0 0h5l2 3-9 4v1h7l7 3-1 2h-15l-5 2h-4l1-7 9-7z"/><path transform="translate(360,414)" d="m0 0h14l6 5-1 3-6-1-5-2-10 2-6 5h-2l1-5 7-6z"/><path transform="translate(333,428)" d="m0 0h7l2 2v5l-6 3h-4l2-4-4-2z"/><path transform="translate(618,451)" d="m0 0 3 1-1 5-10 9-4 5-4 3h-2l-2 4-14 10-11 7-4 2-4-1 4-4 11-7 12-9 15-13 9-9z"/><path transform="translate(290,453)" d="m0 0h9l9 6 3 6-1 3-3-1-2-4-4 1-1 7-3 1v-10l3-4h-11v-4z"/><path transform="translate(624,457)" d="m0 0 3 1-2 6-10 16-8 10-9 10-8 8-4-1 2-4 6-5 7-8 10-13 3-5h2l2-5z"/><path transform="translate(429,490)" d="m0 0h4v3l-8 4h-12l-1-3 10-1z"/><path transform="translate(330,816)" d="m0 0h21l12 5 24 12 14 5 13 1h33l2 4-1 1-8 1h-23l-20-4-12-3-17-9-17-8-5-1h-12l-22 8-13 3h-15l1-3 17-2 24-9z"/><path transform="translate(666,817)" d="m0 0h15l13 5 6 1h14l-1 5h-18l-17-6h-10l-13 6h-5l2-4z"/><path transform="translate(524,827)" d="m0 0h13l10 1 21 10 16 3 17 1v4h-21l-15-5-13-5-15-5h-13l-17 5-11 4-7 1-1-2 10-5 15-6z"/></svg>
