<?xml version="1.0" encoding="UTF-8"?>
<svg version="1.1" viewBox="0 0 1024 1024" xmlns="http://www.w3.org/2000/svg"><path transform="translate(747,118)" d="m0 0 2 1 4 9 6 11 8 9 8 4 4 1h15l16-6 4-3h3l-1 9-2 7v16l4 10 5 6 10 5 10 3 11 2v4l-12 9-7 8-3 7v11l5 10 9 8 8 5v3l-18 2-9 3-7 5-4 7-1 2v18l2 10-1 4-4-2-9-6-10-5-4-1h-9l-9 3-6 4-1 3 7-1 7 3 4 6v12l-6 10-4 5 1 5 10 3 4 5 1 3v7l-4 8-11 8-4 20-8 21-7 16-10 19-11 18-5 5-8 11-6 7v10l1 8v18l-2 16-4 8-5 6-7 4h-10l-7-2-4 7-8 9-7 4-10 1-7-3-4-4-3-7v-13l1-3-19 9-1 3v10l-5 6-6 2-2 4-5 3-7 2-6 5h-7v2l-8 5-8 6-14 6-14 3-7 1 2 10 2 6 17 3 14 7 8 8 6 12 1 8 14-3 24-6 30-9 17-5 25-8 18-6h13l6 3 4 4 5 4 6 8-3 21-4 20-7 22-5 15-11 24h-2l-2 6-9 14-10 13v1l15 1 9 3 15 9 12 6 11 3h24l-1 3-6 1h-17l-11-2-16-8-13-8-13-4-12 1-13 4-21 10-10 6-11 5-13 4-10 1-16-3-17-8-14-10-16-8-7-2h-20l-15 4-30 12-11 5-16 4-7 1h-16l-11-3-9-3-12-8-14-9-6-2h-13l-13 4-10 4-13 4-8 2h-18l-10-3-22-12-7-2h-14l-8 2-17 7-4 2-12 2-14 1-2-1v-2l21-3 15-5 9-4 14-4h10l10 3 2 1-2-5-6-9-8-16-6-14-6-19-4-17-3-18-8-4-4-5v-15l4-5 31-5 32-5 1-13 2-3 1-39 3-23 5-21 3-11 8-18 6-9 11-13 1-2-13-9-13-3-9-4-6-4-5-5-13-5-7-6-6-11-1-4v-11l4-8 8-7 3-2v-19l-6-9-4-9-2-11-66-1-13-2-9-4-5-8-1-8 2-7 7-9 9-5 10-2 12 1v-20l5-13 7-9 14-8 12-3 12 1 10 4 9 7 4 5 5 9v3h3l1-3 7-5 16-4 4-2h7l5 2 18-8 21-5 7-1h13l10 2 12 5 8 7 6 10 1 2 12-1h22l11 3 6 5 1 3v8l-4 7-8 6-13 7-9 3 1 5 6 12 1 6h6l6 4 4 4 7 2 3 3 9 3 3 4v2h2l3-9 5-11v-4l-6-3-5-6-1-10 2-8 3-7v-9l-3-11-1-10 3-12 6-8 5-5 5-4 18-7 14-3 11-1h20l21 3 9 2 7-1 19-7 21-6 12-3 9-10 4-8 1-10-3-9-9-7-16-7v-4l15-4 10-6 6-8 2-6v-17l-5-17 1-5 20 7 5 1h17l11-4 8-6 6-7 7-12zm-1 9-7 13-9 10-10 6-10 3h-14l-15-4-5-2h-3l4 17v15l-4 11-10 10-13 5-1 3 14 7 6 7 2 5v13l-7 14-3 3v2h34l-2-6-4-9-4-14v-18l3-12 4-11 8-11 9-9 19-10 8-2h26l15 5 13 8 3 1 2 4 9 10 8 19 2 12v10l-3 14-4 10-6 10-9 10-15 10-14 4-14 2 2 5 6 7 4 6 8-6 7-3 10-1 12 3 10 6 4 1-1-7v-15l4-10 5-6 10-5 13-2v-4l-8-7-6-10-1-4v-9l4-10 13-13 2-1v-2l-17-5-10-6-5-7h-2l-3-12v-13l2-11-5 1-11 4-4 1h-12l-11-4-8-6-8-11-5-9zm-7 38-16 5-11 7-10 9-9 13-3 9-2 8v22l3 12 9 15 9 3 16 7 9 5 9 8h21l16-7 10-7 8-8 7-11 5-15 1-6v-15l-4-15-6-12-11-12-9-7-14-6-8-2zm-69 102-20 3-20 5-13 4-7 14-5 21-1 7v25l3 15 4 15 12 22 9 10 7 8 5 5 14 10 17 8 17 5 6 1h27l14-3 15-5 5-12 9-28 1-7-4-1-10 1-11-2v-1h15l12-3 9-6 4-6v-7l-4-6-6-2-2 2 2 2-1 5-14 7-5 1h-30l-4 9-4 1 4-6v-9l-3-7 5 5 2 3h10l10-3 11-8 9-7 8-9 6-10 1-9-5-6-6-1-6 4-6 8-2 5h-2l-10 16-3 1 2-4 7-10 6-11 6-7-1-6-10-15-9-10-13-9-18-8-12-3-8-1zm-129 14-17 3-16 5-10 7-7 8-3 7-1 10 4 17v8l-4 11-2 4 1 9 4 5 8 4 10-17v-3l-12-1-1-2h17l10-13 7-9v-1l-15-1-13 1 1-2 5-1h26l13-13 12-9v-3l-17-2h-29v-1l6-1h30l17 2 15-10 11-6v-2l-14-3-8-1zm68 1-11 5-10 5-9 6-1 1 1 9 6 7 7-1 10-3 9-27v-2zm-368 12-12 3-8 4-8 8-5 8-2 11v8l1 9 1 2-13-2-10 1-10 5-5 6-3 8 1 8 5 6 8 3 6 1h70l4-9 6-14 10-14 9-10 8-8 6-5v-10l-6 1-6 4-5 6h-3l-4-11-8-10-5-4-14-5zm127 3-18 3-5 2v2l15 4 12 6 10 9 5 6 20-6 7-1 1-5-4-6-5-5-8-6-8-2-6-1zm205 4-11 7-10 8v2l-4 2-9 8-1 7 3 10 8 7 8 3h10l1-1 1-14 3-8 6-8 5-5-1-4-5-6-3-8zm-242 7-16 8-8 6-5 16v22l4 14 4 1 12-11 23-15 18-10 14-6 5-3-2-5-9-8-10-6-12-3zm-20 1-6 4-3 4 1 4 9-6 4-3 3-2-1-1zm286 6-14 7-8 9-3 9-1 9 2 10 5 8 7 7 10 6 4 1-1 4-4 9-1 4v14l6 12 7 6 7 4 4 1h18l5-1 5 16 8 9 8 4 12 2 10-2 10-5 4-1 5 6 10 5 3 1h10l10-3 7-6 8-16-2-2-13 4-11 2h-25l-18-4-15-6-8-4-14-10-10-9-10-11-9-14-4-8-7-20-3-15v-32zm-156 6-16 1-19 4-18 6-17 6-16 8-11 7-15 10-12 9-3 3v2l16-1 16-4 16-7 15-10 11-8 21-12 20-8 13-3 14-1v-1zm15 2 4 1zm-15 4-18 5-10 5 2 4 10 7 7 7 1 2 7-1 16-8 8-6 4-6-1-4-6-4-3-1zm-141 1-10 8-7 8-5 5-10 15-5 13-1 4v14l4 12 4 7 4-1 8-11 12-13 10-9-2-9-2-10v-28l1-5zm234 6-14 15-14 21-4 8-4 7 1 4 3 2h15l1-5-2-5v-14l5-10 9-7 8-3-3-13zm-130 7-17 10-10 7-12 8-16 8-14 4-6 1-22 1-12 12 1 4 6 10 2 6v11l-1 2-5 2-1 13-3 8-4-2-7-5-3-1h-9l-6 3-6 7-1 3v12l6 12 7 6 7 2h11l9-2 8 11 9 9 13 8 13 6 15 3 10 1h12l9-1-3-4h-2l1-2 5 2 8 3 4 1h15l9-4 8-7 5-8 2-9h2v5l5-2 7-7 4-5v-2h2l7-17 2-7-1-5-8 4-13 2-9 3-3 2-4 11-6 8-6 4-5 2-10 1-12-3-5-3h-7l-11 6-4 1h-13l-7-3-2-1-12-2-7-3-4-5-3-8-4-8 1-9 4-5 4-8 4-2h6l2 2-3 3v7l3 3 7 1 10-4 10-9 7-5 13-4 2-4 3-1-1 2v6l3 4 8 2 12-1 9-3 7-6 3-7-1-7-5-5-5-2h-11l-9 2 2-2 10-3h8l8 3 5 6h28l2-4-5-9h-2l-2-5-5-9-5-14-2-4h-19l-10 1-4-3v-7l4-3 3-1h10l7 1-1-4-10-8-8-4zm134 9-9 4-8 7-3 7v12l4 9 5 5 7 4 4 1h14l2-4-1-4v-14l4-9 6-9-5-2-9-2-6-4zm228 4-9 8-8 5-5 2v2h11l12-4 3-3-1-10zm-356 4-4 3v5l3 2 15-1 8 1v-4l-5-4-5-2zm158 0-7 8-4 8-1 3v15l6 12 8 7 5 3 10 2h5v-18l5-13v-3l-9-4-8-6-6-9-3-5zm-120 29 2 6 3 3 4-2v-3l-5-4zm48 4-7 14-4 12 1 10-5 10v4h10l6-3-1-4-4-10v-11l5-12 5-5v-3zm22 2-11 2v2l-4 2-3 3v2h-2l-4 9v11l5 10 7 6 7 3h11l6-2-1-19 2-8 6-9 1-3-8-3-8-6zm-57 2v3l4 4v7l-4 5-5 2h-20l-6 2-3 9-4 7-12 6-4 1h-17l-6-3-3-4-8 1-9 4-10 9-10 6-7 1-8-4-2-3v-10l-5 4-1 2v8l3 5-1 2-4-5-1-2-3 1v7l4 7 6 4 3 1 12 1-3 1h-10l-5-1 1 5 7 4 4 1h9l13-4 6-6h2l-2 4-5 4-9 4 3 2h12l12-4 13-13 4-10v-2l2-1-2 10-5 9v2l5-2 10-8 2-5h2l4-9v-5l5 3 6 4 6 2 9 1 2-3-8-4-3-3 6 1 5 3 4 1h14l9-4 2-4h-16v-3h14l8-3 8-7 3-9-3-1-5 5-4 3-3-1 9-7 4-5 1-9-3-5-4-3-1 2v8l-2-1-1-9-5-5zm-171 2-12 14-4 8-1 5v12l1 1 10 2 6 4h3l1-3v-18l-1-6h2l4 6h2v-10l-3-8-6-7zm166 3 4 9 2-1v-7zm95 2-7 1-5 4-6 8-2 7v9l4 10 7 8 9 5 5 1h8l7-2 1-5 1-11 4-9 6-7-1-3-10-3-6-4-5-5-3-4zm37 18-5 4-6 9-2 5v16l5 9 5 1 27-13 8-5 5-7-1-1-13-2-9-5-4-2-2-4-3-5zm48 17-6 2-4 5-13 9-10 6-16 7-16 8-11 8-6 9-2 6v9l4 8 7 6 13 4h11l12-3 10-6 10-9 10-13 8-16 6-15 1-9-5-12-2-4zm-137 3-8 4h-12l-3 8-2 12 1 7 5 9 7 5 6 2h11l3-1-2-9-1-9 3-13 5-6 2-2-8-4-4-3zm31 4-13 4-7 8-4 10 1 11 3 6 6 7 8 5h20l2-3-2-7v-11l6-12 3-4-12-6-8-8zm-58 2v6l2-4v-2zm-59 9-1 5 4-1-1-4zm58 1 1 3zm98 1-12 2-7 8-3 7v11l2 7h2l4-8 8-8 14-9v-3l-3-7zm77 2-4 14 2 10 6 8 7 4h16l9-7 4-5 1-17-2-1-6 2h-14l-11-4-5-4zm-226 1-11 4-7 8v1l14 2 6 3 4-2 4-8 1-6-5-2zm50 1-3 10-10 17-6 7-6 5v2l22 6 1-1 3-35 1-10zm225-1-5 5-1 13 2 10 4 6 5 4 7 2h7l11-14 10-15-2-1-3 1h-18l-10-3-2-4zm-296 17-9 4 3 3 8 2h8l10-3-1-4-5-2zm74 1-1 3-1 15 1 29 6 4h10l2-3-4-13 1-9 7-14-11-4-7-6-1-2zm166 3-6 10-7 12 2 1 12-5 6-6-2-5-4-7zm-345 5-7 3 2 4 11 6 6 1-2-4-7-10zm392 2-8 8-1 4v12l2 7 6 6 4-1 14-13 5-5v-3l-9-3-8-7-3-5zm-180 1-9 3-5 7-3 9v7l4 10 7 8 9 4h9l10-4 1-4-3-8v-11l3-8-1-4-11-4-6-5zm142 6-5 5-6 4-5 2v10l5 8 5 5 9 3h10l10-4 6-5-1-5-2-6v-14h-15l-8-3zm-101 1-14 3-4 8v17l6 9 7 6 4 2 6 1h10l9-2 9-6 1-3-4-4-12-3-10-7-4-8-2-12zm-109 9-5 8 1 4 6 11h2l2 6 4 9 6 17 4 3 4-1 5-6-1-7-6-16-8-15-8-11-2-2zm10 1 2 5 7 10 4 8 8 19 2 4 1-3-2-17-1-15-2-5-14-6zm175 0-10 10-12 7-9 3-9 2 2 5 10 7 3 1h19l8-4 9-8-1-6-3-7-2-9zm85 4-5 5-1 24-2 15h-3l3-14 1-10v-9h-4l-8 7-2 22-4 14v5l4 2h10l6-4 5-8 3-10 1-7v-21l-2-10zm-378 8-7 7v2l14-1 10 3 9 6 9 12 7 11 9 12 5 6 5 4 3-1 1-8-4-12-8-14-8-11-5-6-5-4-17-3-10-3zm100 0-7 13-12 6h-12l-13-4-10-4 2 4 9 13 10 21 4-2 7-6 10-5 5-1h12l14 4-1-8-14-28-2-3zm-7 2-9 3h-15l-7-1-14 2 1 3 14 6 5 1h13l7-3 6-5 1-5zm-97 9-8 5-6 7-7 16-5 15-4 23-2 15-1 27 1 14 9 4 3 1 13 1h12l14-2 10-5 2-2v-4l-9-5-10-9-5-5-7-8-10-16-1-3 4 2 6 10 11 14 8 8 13 9 8 4 16 4h20l18-3 14-3 10-4-1-4-7-16-4-13-3-21-7 1h-24l-10-6-8-8-13-18-10-14-7-7-8-4zm147 1-1 4 3 21 3 9 5 5 8-1 10-4 10-3 2-4v-8l1-8-13-4-8-6h-14zm205-5-7 6-11 4h-8l-10-2v-2l-4-2-5 5-1 3-5 2-9 4-7 3 1 9 4 8 5 4 6-2 19-10 18-12 14-10 5-4v-2zm5 7-7 6-4 22-4 10-2 1 2-7 4-17v-5l-4 2-8 6-6 20-1 4h-3l6-16-1-5-11 6-3 6-1 11 3 9 5 4 3 1h7l8-5 7-7 5-8 6-19 1-7v-11zm-153 3-8 4-5 3-1 6v10l5 13 6 5 8 4 5 1h9l11-4 4-3-2-5-3-6-1-5v-11l-5-2-10-3-6-3-4-4zm53 1-8 5-12 4-2 5v10l4 10 4 5 12 5 6 1 3-6 3-2 9 1 5-5 10 1-1-4-4-5-2-5-1-10-1-1-11-2-10-5zm-161 20-10 4-9 7-5 7-1 8 2 2h17l20-4 14-4-4-2-5-1h-16l-13 2v-2l12-2 13-1 13 2 6 2 3-4-1-4-8-5-10-4-4-1zm49 0-6 7-5 10-3 7-4 5 4 18 4 14 1 1 10 1h18l16-4 8-5 3-4-2-1-9 3h-6l3-2 11-4 6-4 2-6-4-1-4 3-8 3h-6l-1-1 14-5 9-6 1-7-1-1-9 1-12 7-5 1-1-2 10-4 9-7 2-3v-5l-1-1h-8l-16 7h-12l-3-2-4-13zm136 16-2 2 1 10 1 5h5l3-6-1-8-2-3zm-14 3-3 4v6l4 12 5 1 4-5v-9l-3-6-3-3zm-28 2-9 5-8 3-1 5 2 2 8-1 17-5 2-2v-3l-8-4zm-37 3-2 3v3h-2l1 12 19-4 1-2-2-7-13-4zm-82 0-13 4-1 1v10l5 23 8 16 2 3 5-1 10-4 1-3-5-13-6-20-2-14-1-2zm133 5-2 3 1 9 4 7h5l3-4v-7l-3-6-3-2zm-8 5v2h2v-2zm-7 2-19 5-14 2-10 2-1 1v6l4 10 4 8h9l19-5 10-6 3-4-5-6v-9l3-4zm5 3-3 4 1 7 3 3h5l2-2v-6l-3-6zm-52 17-17 9 2 15 4 18 5 13-3-3-5-13-4-15-2-15h-8l-5 2-1 1-1 7v23l-2 1-1-6v-16l1-10-1-1h-7l-5 10-6 4 5 5 5 8 7 11 9 10 11 9 10 6 3 1h8l6-5 4-10v-24l-3-14-6-18zm-52 9-2 2 1 3 3-1 1-3zm-13 18-10 4-23 6-19 3h-18l-14-3-7-2-8 7-10 4-14 2-17-1-18-4-4 1v15l3 16 3 6 33 6 22 3 45 3h53l46-3 2-2-2-13-4-8h-2l-2-4-7-7-9-4-9-2h-22l-36 6-20 6 2-3 21-6 26-5 9-1h18l13 2-1-5-7-13-6-4zm81 12-1 1-1 19-4 13-5 4-3 1h-7l-14-7h-2l4 17 3 2 36-6 18-4 16-3 3-2-1-8-6-11-5-6-8-5-13-4zm174 1-1 1-4 41-2 17-6 26-7 22-6 15-3 7-7 14-8 15 2 1 12-6 9-15 13-26 13-39 7-37 3-26v-8l-2-2zm-7 2-36 12-18 5-22 7-16 4-26 7-16 3-39 8-31 4-31 3-17 1h-51l-29-2-44-5-38-7-33-7-25-7-4 1-2 3v10l3 6 4 2 14 3 35 8 58 10 16 2 42 3 26 1h21l40-2 27-2 39-6 24-5 12-2 36-9 9-2 31-9 16-4 24-8 2-2 1-4v-20zm26 4-2 6v18l8 7 3-2 2-20-8-8zm-447 14-39 6-1 2 26 7 13 3 13 1-2-8-1-10-1-1zm418 12-15 5-16 4-23 7-24 6-23 6-16 3-28 6-17 3-26 3-28 3-14 1-44 1-43-2-38-4-25-3-65-13-12-3-4 1 1 10 2 10 7 3 19 5 34 7 27 5 46 6 33 3 16 1h69l39-3 32-4 29-4 33-7 30-7 26-8 11-3 5-3 4-19 2-15zm26 2-1 1-4 23-2 9v5l5 5 3-1 7-25 2-9-8-8zm-32 38-35 11-14 3-33 8-30 5-33 5-17 2-40 2h-67l-40-2-40-5-36-6-25-5-24-6-16-3 1 10 5 15 5 5 27 7 60 12 19 2 39 5 36 3 20 1h62l32-2 36-4 25-4 21-3 38-9 11-3 4-4 6-16 4-16 1-7zm23 5-3 9-8 23-2 5 1 4h3l6-10 9-21 1-6-4-4zm-462 38 1 5 7 14 4 5 10 3 41 10 24 4 7-1 10-2h14l10 3 11 7 21 2 38 3h21l24-10 10-4 11-2h20l13 3 19 11 1 1h10l33-3 36-6 12-3 6-8 12-24-1-4-11 3-29 7-13 2-36 6-22 3-49 3h-63l-56-3-46-6-23-4-15-2-41-9-17-4zm447 5-10 18 1 3 8-11v-2h2l2-6zm-11 21m-420 2v4l7 10 5 4 10 4 9 2h9l15-3 10-4v-2l-23-5-20-4zm385 17-17 3-48 6-12 1 1 3 14 6 12 3h9l12-3 13-5 8-4v-2l6-2 5-4v-2zm-253 7 1 3 10 5 10 2h20l11-2 4-1v-2l-17-2-33-3z"/><path transform="translate(475,133)" d="m0 0h14l9 3 8 4 9 8 4 7 5 11 1 6 12-6 5-1h8l11 4 8 6 6 12 1 11-1 7 14 3 6 5 3 6v10l-3 6-7 6-3 1-11 1h-178l-9-2-7-5-3-7v-8l3-6 6-5 11-2-1-3v-8l3-9 8-9 9-4h11l9 3 2-12 7-14 9-10 14-7zm-1 4-10 3-12 9-9 14-3 11-1 10-5-2-6-3-8-1-9 3-7 6-4 9v9l1 7h-9l-8 4-4 6v6l4 6 6 4 6 2 9 1 171-1 10-2 6-5 3-6v-6l-4-6-6-5-9-2h-6l2-9v-9l-3-8-8-9-10-4h-11l-12 6-3 3h-2l-5-19-7-10-9-8-8-3-4-1z"/><path transform="translate(717,217)" d="m0 0h6l5 5 1 6h-3l-3-6-1-1h-5l-2 2-2 5h-2l1-7 3-3z"/><path transform="translate(773,217)" d="m0 0 8 1 4 6-1 5-2-1-3-6-5-1-3 5-3 3-1-1 1-7z"/><path transform="translate(730,239)" d="m0 0 3 1 4 8 8 4 9-1 4-2 6-9 3 1-3 7-6 6-8 2-8-1-5-2-6-7-2-6z"/><path transform="translate(643,296)" d="m0 0h6l2 2v5l-11 9-4 6h-3l-1-5 3-9 6-7z"/><path transform="translate(666,314)" d="m0 0h11l10 4 8 6 5 7 2 7v18l-5 9-4 5-10 6-7 2h-8l-11-3-10-8-5-8-2-6v-15l4-10 4-5 11-7zm0 4-10 4-7 6-5 9v18l6 10 8 6 10 3h7l9-3 8-6 6-9 1-3v-14l-5-10-7-7-10-4z"/><path transform="translate(668,327)" d="m0 0h7l9 5 5 6 1 2v12l-6 8-5 4-5 2-10-1-8-6-3-5-1-4v-8l4-8 6-5zm7 4-5 4 1 7 3 2 6-1 2-3v-6l-4-3z"/><path transform="translate(339,379)" d="m0 0h8l4 2 1 2v6l-5 5-12 6-8 7-5 1-3-4 1-8 3-6 8-8zm0 3-7 4-5 5v2h-2l-3 9 1 2 4-1 10-9 9-3 2-2v-5l-2-2z"/><path transform="translate(423,381)" d="m0 0h7l6 4 4 7v5h-3l-5-8-4-3-4 1-3 5v11l-4-1-2-9 2-7z"/><path transform="translate(345,407)" d="m0 0h7l6 4 4 7 1 5-3 1-2-1-4-8-3-2h-7l-3 6v11h-4l-2-6v-6l3-6 5-4z"/><path transform="translate(316,426)" d="m0 0h10v6l-8 5h-4l2-4 5-3-9 1 2-4z"/><path transform="translate(627,450)" d="m0 0 3 1-2 5-19 19-14 11-15 10-8 5h-4l1-3 15-9 12-9 15-13 12-12z"/><path transform="translate(270,453)" d="m0 0h9l7 4 4 5 2 7h-3l-4-6-4 1-2 10-3-1v-9l5-6-9-1-5 1v-3z"/><path transform="translate(633,457)" d="m0 0 3 1-2 5-3 6-11 16-11 13-7 8-8 7-3-1 1-3 8-7 9-10 8-10 7-10z"/><path transform="translate(422,493)" d="m0 0 4 1-8 6-3 1h-10l-4-2 1-2h10l8-3z"/><path transform="translate(317,849)" d="m0 0h15l11 3 29 15 16 6 26 3 28-1v3l-1 1-7 1h-30l-15-3-15-4-19-10-16-8-7-2h-16l-17 6-11 4-14 3h-12l1-3 4-1 16-2 21-8z"/><path transform="translate(677,851)" d="m0 0h18l13 5 4 1h19v4l-4 1h-13l-9-2-14-5h-11l-16 7h-4l1-3z"/><path transform="translate(524,861)" d="m0 0h14l11 2 16 7 6 3 16 4 22 1v4h-20l-13-3-22-9-11-4-4-1h-17l-17 5-19 7-2-2 4-3 23-9z"/></svg>
