<?xml version="1.0" encoding="UTF-8"?>
<svg version="1.1" viewBox="0 0 1024 1024" xmlns="http://www.w3.org/2000/svg"><path transform="translate(522,179)" d="m0 0h14l16 5 9 2 25 9 10 3 12 5 11 5 14 6 15 7 10 6 20 20 9 11 9 14-1 14-4 19-3 24v9l2 8v18l-3 10-7 10-2 24-6 7 8 1 14 8 14 12 10 10 6 7 2 5h2l9 15 2 10 11 6 5 4 10 6 10 9 10 10 9 14 8 16 4 14 4 19v27l-4 22-2 10-4 12-6 12-4 10-4 5-9 15-10 13-12 13-14 11-14 9-12 7-18 7-9 1-16-6-18-9 2 7v11l-3 7v34l12 11 6 12 2 5v13l-5 7-11 4-8 1h-33l-14-2-19-6-11-6-4-5-2-12-2-20-2-14-3-9-3-5-2-29-24-1-13-2-3-4-1-5h-2l-2 27v11l-3 8-5 26-3 24-4 4-8 3-19 4-13 1h-43l-12-2-7-3-3-4v-17l5-10 11-10 14-7v-19l-5-9-1-4v-15l3-11v-3l-15-5-12-5-4-3v-15l5-7 3-19 10-34 6-9 2-20 3-11-3-11-10 2-7 5-18 4-22 1-1 2 4 2 4 4v2h2l2 5v14l-4 8-7 7-12 3h-12l-9-3-6-7-4-7v-12l3-10-7-5-8-10-2-5-2-7-4-6-1-14-1-1v-11l-15 2h-14l-9-4-5-11-3-11v-7l7-6 14-5 9-2-1-6-6-15-7-23-5-12-6-19-6-16-3-10-9-27-7-20-4-12-8-23-2-5v-11l9-29 3-11 9-26 2-6 6-1 8 7 13 12 12 11 11 10 8 7 7 7 3 14 3 15 6 26 3 21 10 48 3 19 5 25 6 29 11-2 7-2h10l1-5 6-12 10-13 7-8 11-11 15-10 6-2-1-9-5-19-2-11-7-14v-22l3-9 2-2-1-9-1-4v-20l8-44 6-20 4-6 9-7 13-8 10-6 42-21 15-5zm0 6-16 6-8 4-10 4-15 8-14 7-15 9-14 9-3 3-5 19-7 32-1 11v11l7-2v2l-5 1-2 2v12l1 2h3l3-11 11-4 18-4 44-6 12-1 7-1 1-3-3-6h2l2 6 3 3 31 4 55 10 25 7 5 4 12 19h4l1-5-8-14-6-8-15-5-29-8-12-3-12-2-7-1v-2l24 6 10 2 32 9 9 1 2-1 2 6 7 13 3 5 5-1 8-4h8l6 3 3-1 7-35 2-15v-11l-5-6h-2l-2-4-12-14-7-7-5-6-2 1-9 40 2-14 6-26-2-5-16-9-13-5-10-5-26-10-38-13-11-3h-9l-1 6h-2l1-5zm-286 56-3 4-5 17-9 28-5 21 3 10 20 60 5 12 3 11 8 22 5 17 6 15 3 12 9 24 3 10 3 3h9v-3l6 3 10-2 1-5h2l1 3 9-3 5-3 6-3v-9l-8-39-8-43-3-13-5-31-7-31-2-13-5-25-7-8-10-10-11-9-7-7-11-9-5-5zm262 60-1 1v9l3 5 1 6h11l5-3 2-3-1 14 1 1 9-1 11-5 13-9 5-6-1-4-6-2-21-3zm-16 3-11 3-10 6-6 5-6 9-1 2v7h-2l1-9 5-9 9-8 3-3-5-1-23 5-2 2v26l5 9 3 3h3v-12h2l-2 21-2 6v12l2 2 34 11 16 3 13 3h17l41-5 13-1 37-9 7-2 1-4-2-3-5-2 5-12v-14l-8-7-6-5-9-16-4-5-20-4-4-1h-9l-13 14-14 8-12 4-9 1 3-8-1-4-7 2h-10l-2-9-3-10-1-1zm-56 9-4 2-3 16-1 12v29l5 5-4 1v7l5 21 3 13 5 8 11 9 20 12 8 5h7l2 4 16 8 12 5 5-1-2-11-3-15v-3l7 30 2 2h7l37-8 22-6 21-7 17-7 17-9 1-1 3-38v-11l-5-1-15 6-7 2-2 4-3-2-8 1-18 5-14 2-37 5v-2l13-1 19-2 22-4 22-6 10-2 16-6 8-6 2-2 2-8v-23l-5-7h-3l-2 11-4 24-2 5-8 3-26 8-22 3-24 4-37 4-6 3v-4l-31-8-16-4-14-5-7-3-13-6 3-1 1-41 1-17-1-1zm176 2 1 7 3 3 3 5 12 12h2v18l-2 7v3l9-1 3-2 2-13 1-23-5-8-5-3-17-5zm60 17-7 6-5 10-1 16 3 9 4 7 5 3h8l8-6 6-8 2-7v-13l-5-12-6-5zm-248 3-3 8v20l2 5 2-1 1-32zm19 10v25l3 5h3l1-1 3-19-9-10zm195 27-1 4h3l1-3zm19 2-3 4-2 39-1 13 2 1 11-8 12-11 6-7 2-11v-8l-1-1-13-1-6-3-5-7zm21 48-10 4-5 3-14 9-19 11-13 13-1 6 5 1 2 7 2 1v6l-4 3-1 8-6 5 1 6 1 1h6l11-8 18-10 11-4 19-4 8-1 19-1 1-3-8-11 5 5 6 9 18 4h8l4-3-1-6-6-9-3-3-7-9-9-10-7-7-14-10-5-3zm-247 2-10 5-12 9-9 8-10 13-10 15v7l7 7 7 8 11 11 9 7 4 4 7 5h7l10-10 7-8 21-21-2-6-4-1-2-7-5-2 1-6 2-1 3-7 5-3-1-3-16-10-13-10-3-4zm38 29-2 3-4 2-3 6-1 3 4 2 3 6 4 2 1 2 4-1 8-8-3-8-3-3-3-5zm148 0-15 6-27 7-18 5-13 2-22 1-13-4-23-11-5-1 2 6 11 12 11 7 15 6h15l21-4 15-4 24-10 19-10 5-5v-3zm-6 16-8 9-3 5 1 5 6 8 7 1 6-5v-6l3-3-1-5-2-4-1-3-5-2zm-5-1-21 9-8 4-28 8-10 2h-21l-15-7-6-3-9-9-4 1-8 7-12 13-17 17-5 14-6 21-7 31-1 3v13l5 10 12 5h4v-5l8 8 23 4 8-1 2-2h34l15 2 5 2 5 6h26l9-7 1-43-5 1-8 2v5l2 4-1 9h-2l2-9-2-2v-8l10-3 4-5 3-7-1-5-3 1v-2l7-2 8-16 1-4h2l7-11 6-7-1-5-9-11-7-9 1-5 8-12zm85 14-19 3-23 10-14 10-13 12-8 10-7 11-5 11-6 18-1 14h-2l2-13 6-21 2-4v-3h2l8-15 6-8 8-7 5-5 2-4-5 2-12 11-1 3-4 2-8 10-8 16-4 7-5 21-1 6v36l6 25 7 20 10 18 12 17 12 13 13 13 20 14 15 8 12 5h6l-4-3-23-11-11-8-11-9-10-9-12-12-8-11-3-5h-2l-2-6-8-16-7-18-4-19v-10l3 20 8 24 8 16 10 16 8 9 2 4 8 7 9 9 10 8 19 12 22 10 7 1 14-5 18-10 11-8 10-10 8-7 10-11 7-11 8-13 8-15 10-30 3-14v-34l-5-21-11-24-7-11-4-5-8-7-5-5-13-10-16-7-9-4-8-2-10-1zm-331 3-14 6-5 5-12 7-6 2-22 4h-18l-20 7v3h5l-2 3v3h-2l-1-4h-3l-1 4 4 13 3 5 4-1-4-11h2l1 5 3 7 1 1h14l30-5 16-5 18-7 22-12 3-3-1-5-4-14-3-2 3-5-1-1zm12 4 1 7 3 11 3-1-2-10-3-7zm8 2 2 24h6l8-7-2-5-12-12zm257 6-2 4 4-2v-2zm-234 13-12 8 3 5 6 7 7 14 3 11v25l1 1 9-1 6-4 9-31 3-14 3-11h-3l-6 6-6-1-14-10-8-5zm-22 9-17 9-6 3-3 4 2 5 5 8 4 10v25l-3 9 1 1h12l21-3 7-3 4-8v-21l-4-15-3-9-9-10-6-5zm-46 16-16 5-1 2h13l5-3 2-3zm5 3-5 4-3 10-2 11 1 3 7 1 6-4 3-5v-2h2l2 10 4 2-1 8 3 13h4l4-7v-21l-6-17-5-5-3-1zm-26 7-6 3-3 3v7l5 4 10 1 7-3 3-7 1-7-1-1zm-2 18-5 2v9l6 5h13l12-4 2-2-1-4-8-2-3-3zm35 4-5 5v3h7l1-1v-6zm1 9-4 4 2 5 6-1 1-1v-5l-2-2zm-12 1-3 2-20 2-2 3 3 5 6 3h12l9-5 1-1v-8l-1-1zm13 9-6 4v7l-8 5-3 2v2l12-3 10-1 2-1-1-13-1-2zm-13 6-5 2-9 1-1 2 2 3 9 1 7-3 2-2v-4zm11 12-9 6v-2l-5 1-5 5-1 2v12l4 7 7 5h5l1-2 3 2h10l10-8 3-5v-11l-6-8-6-4zm81 1-3 7v12l6 4 14 5 23 4 9 2h6l2-20-4-3-36-7-13-4zm63 7-3 4-2 8v17l2 4 8 4 21 3h21l5-6 2-9v-15l-4-6-9-3-7-1zm90 6v2l3-1zm-31 5-2 7-1 16h41l2-2-2-11-3-9-1-1zm-125 7-5 9-5 10-9 37-1 8 3 1v2h-5l-2 2v11l5 3 19 7 20 5 36 6h9l4-9v-5l-2-2-4-1 7-1 4-9 6-15 3-8 3-2 1-24-6-2-14-3-6-4-5-4-31-7-11-3-8-2zm132 19-12 1-3 3-4 1-23 1-2 11v15l3 4 8 29 3 3v11l3 7 5 2 12 1h33l39-2 33-5-1-4-11-10-2-1h-11l-9 1v-2h8l7-1-1-5-9-9-1-2-3-1-4-7h-2l-2-5-10-18-5-10-3-7-1-1zm-48 34-3 4-3 10-10 30 1 4 5-1 6-16 3-10 5-15v-5zm5 10-6 15-4 13-4 11-5 2-14 1 2 5 5 6 2 1h21l3-4 4-15 2-12-1-13-2-9zm-78 34-6 9-2 5v11l4 9 6 8 4 3h12l11-1 12-6 9-7 2-4-1-6-1-2h-2l-2-5-7-7-16-4-14-3zm203 9-16 2-19 2-6 4-6 7-1 10 5 6 16 8 12 3 15 1 8-6 7-5 5-8 1-10-5-13-1-1zm-62 5-6 2 1 7 3 1h14l5-5 2-4-1-1zm-85 8-2 3-1 8h21l4-3 1-6-2-2zm80 4-1 1v8l5 3 13 1 1-3-2-8-5-2zm-65 9-24 1-8 5-8 3-13 3h-11l-3-2-4 1v15l1 1 18 2v2l-2-1h-19l1 4 11 4 3 3-10-5-5-2h-11l-11 7-6 8-3 9 4 2v2h-3v5l4 3 7 2 9 1h36l19-2 20-5 4-5-1-3-9 1-14 3v-2l10-1 13-4 3-5 2-17 3-17 3-8 1-1v-6l-1-1zm65 5-1 4 4 8 5 19 2 24 9 6 9 3h6l8-11 4-5 9-6 10-4 3-1 14-1 1-3-7-2h-21l-7 2 1-1 5-2h28l1-1v-23l-6 1-8 6h-17l-15-4-11-6-22-3zm65 38-9 5-9 6-7 8-3 6v3l-8-1-14-5h-4l1 6 8 5 12 4 5 2 19 3h26l17-3 6-5v-5l-4 1v-2l4-2-1-9-4-6-7-8-5-3z"/><path transform="translate(525,193)" d="m0 0h2l-2 13-4 19h-2l1-10z"/><path transform="translate(550,208)" d="m0 0h9l3 3 1 10-7 38-3 12-3 4h-8l-4-7 1-11 2-18 6-28zm2 3-2 2-10 49v8l2 2h7l3-5 2-15 6-32v-6l-3-3z"/><path transform="translate(492,211)" d="m0 0h9l3 3-1 14-5 31-2 12-4 5h-7l-3-3v-12l4-34 3-12zm2 3-3 7-6 37v15l5 1 4-6 4-29 2-16v-8l-1-1z"/><path transform="translate(582,221)" d="m0 0h7l4 3v15l-6 29-2 9-4 5-4 1-5-3-2-3 1-14 4-22 3-15zm2 3-3 4-5 22-3 19v9l1 1h6l3-4 4-20 1-9 3-14-1-7-1-1z"/><path transform="translate(463,226)" d="m0 0h6l3 3v13l-4 32-3 6-2 2h-6l-3-4v-11l2-20 3-16 2-4zm0 4-3 9-1 14-2 15v10l4 1 3-2 4-29 1-8v-9l-1-1z"/><path transform="translate(613,236)" d="m0 0h7l4 3v10l-5 26-4 13-3 2h-6l-3-2v-18l6-28zm1 4-3 6-2 10-2 12-2 9v8l2 2 5-1 2-3 7-32v-10l-1-1z"/><path transform="translate(517,240)" d="m0 0h1v10l-3 18h-2l2-18z"/><path transform="translate(438,241)" d="m0 0h6l2 2v15l-4 25-4 5h-6l-2-2 1-17 4-25zm2 2-3 3-3 21v16h4l4-20 2-12v-7z"/><path transform="translate(252,282)" d="m0 0 2 2 5 15 7 22 2 10 9 32 4 18 14 55 5 21 2 11 3 8v5l-3-1-7-28-7-25-3-14-9-33-2-11-9-33-2-10-7-24-5-17z"/><path transform="translate(644,282)" d="m0 0 1 4-3 16-1 4h-2l2-11z"/><path transform="translate(494,288)" d="m0 0h11v1l-33 6-31 7-16 5h-2v-2l15-5 38-9z"/><path transform="translate(527,288)" d="m0 0 17 2 11 2v2l-16-2-12-2z"/><path transform="translate(669,288)" d="m0 0h2l-3 20v5l-1 3h-2l1-14 2-13z"/><path transform="translate(280,304)" d="m0 0 2 1 6 23v10l-2-1-7-29z"/><path transform="translate(230,305)" d="m0 0h2l4 17 6 18 3 12 9 24v6h-2l-10-26-2-8-7-22-3-15z"/><path transform="translate(475,324)" d="m0 0h10l5 4v5l-3 3-14 1-13 3-1-3 6-8zm1 2-9 5-2 4 21-1 1-5-4-3z"/><path transform="translate(566,325)" d="m0 0h12l10 5 5 6 1 4-3 1-9-3-19-1-1-2v-6zm2 2-4 3 1 4 4 1 19 1-2-4-6-4-3-1z"/><path transform="translate(669,338)" d="m0 0 4 1-5 6-1 11 3-6 2-2 4 1-4 7 2 3-6 4-1 6 7 2v3h-6l-4-4-2-7v-10l2-8z"/><path transform="translate(470,344)" d="m0 0 11 1 8 4 7 8 1 6h-3l-8-5-8-2h-10l-8 1v-3l5-3 9-1v-2l-13 2 2-4z"/><path transform="translate(577,345)" d="m0 0h9l5 3v4l-13-2v2h7l6 3 2 3-4 1-2-1h-18l-10 5-5 1v-5l7-7 8-5z"/><path transform="translate(520,349)" d="m0 0h2l2 7 3 2-11 1-2 3 1 6 5 2v2l-7-2-4-3v-7l5-5 5-4z"/><path transform="translate(293,375)" d="m0 0 2 1 3 13 2 13v3h-2l-4-14-2-10v-5z"/><path transform="translate(537,378)" d="m0 0h3v5l-8 7-3 1h-16l-7-6v-3l4 2 12 3 9-3 5-4z"/><path transform="translate(434,383)" d="m0 0 9 3 21 9 19 7v1l-7-1-17-6-8-4-13-5z"/><path transform="translate(264,391)" d="m0 0 4 1 9 29 4 17v3h-2l-4-13-10-33z"/><path transform="translate(438,402)" d="m0 0h2l5 17v3l-3-1-5-16z"/><path transform="translate(507,403)" d="m0 0 2 3 14 1v2l-11 1h-10v-3z"/><path transform="translate(561,421)" d="m0 0h2l1 2v17h-2l-1-7z"/><path transform="translate(662,434)" d="m0 0 5 2 15 14 4 5-1 2-16-16-7-6z"/><path transform="translate(679,494)" d="m0 0h34l12 2 12 5 14 8 16 13 8 10 7 11 8 19 4 15v39l-5 19-8 21-8 14-8 13-10 13-10 11-10 8-13 9-12 7-10 4h-7l-16-7-13-7-17-13-20-20-12-17-6-11-6-14-5-16-3-17v-30l4-21 5-13 8-15 11-12 8-8 11-8 14-6 9-4zm2 2-16 4-8 5-1 2-1-1-7 1-9 6-5 5v11l-1-1v-6l-3-2-5 4-8 10-3 5v7l-3-1-5 7-6 19-2 10v33l6 26 5 11 3 6h2v-30h2v34l1 7 7 10 8 10 4 2v-31h2v31l2 7 5 5 6 5 4-1 2 5 9 7 12 7 12 5h5v-28h2v27l5 1 13-6 2-4v-20h2v18l4 2 8-7 3-2v-2l4-2 12-11 10-12 10-14 1-9 7-7 6-15 6-23 2-16-1-15-3-16-4-11h-2l-1-9-5-9-6-9-7-7h-2l-1 6-2-11-9-7h-2v-2l-22-10-5-1-1 1v14h-2v-15l-6-3h-12l-1 1v8h-2l-1-7-2-2z"/><path transform="translate(490,498)" d="m0 0 8 2 5-1 1 5-1 3 4 1 1 2-3 5-2 4 4 2-2 5 1 4 1 3-3 4 2 2v5l-3 5 14-8h2v-20l3-3 21-8 12-3h13v1l-17 3-16 5-9 3-4 3-1 19-12 9-2 4-7-5-1-2v-31l6-4v-1l-5-1v-7l-7 3h-3v-5zm13 23 1 2zm-1 9v2l2-1z"/><path transform="translate(335,501)" d="m0 0 3 1-8 4-21 7-17 4-4-1 4-2 21-6 18-5z"/><path transform="translate(486,501)" d="m0 0 2 1-1 4-9 2-6 4-2 2-12 2 1-4 10-1 5-4 9-4z"/><path transform="translate(356,503)" d="m0 0h3v2l-19 10h-3v-2l12-7z"/><path transform="translate(566,510)" d="m0 0h5v2l-19 6-8 2-13 5-1 1v11l-3 9-3 2h-3l2-4 2-2 2-15 3-5 8-4 25-7z"/><path transform="translate(456,516)" d="m0 0h2l1 9 18-2-1 4-9 3v3l-3-1-1-4h-6l-1-1z"/><path transform="translate(490,525)" d="m0 0v3l-3 5 1 3-2 1-3-1 1 2h4l-1 3-7 1 1 3h3l2-2-1 20-2-2-1-5h-6v5l3 2-3 1 3 8 2 3 4 1v8l-2 5-7 2 2 5-1 2 8 1 7-3 1-4 1-3h1v10l-7 1-3 3-10-2-2-6-1-2 5-5 5-1v-6l-6 1-6 3-5 2-6-5-1-8 2-3h8v2h-3v2l-2 1 2 6 2 1 10-5-1-4-5-3 1-2 1-17 5-12 4-7-4-1-6 3-5-1v-1l21-6zm-12 22-2 2v3l7 1 1-4-3-2z"/><path transform="translate(299,529)" d="m0 0h6v3l-8 2-9 1h-14v-3z"/><path transform="translate(550,529)" d="m0 0 11 1 4 2v2l-15-2-3-2z"/><path transform="translate(572,531)" d="m0 0 3 2-1 4-8 5-3 2 1-4 7-6z"/><path transform="translate(561,546)" d="m0 0 1 3-2 5-6 1 3 6-4-2-2-2-6 1-3 2 2-5 6-3 8-2z"/><path transform="translate(678,540)" d="m0 0h1v28l5-5 7-13 3-3h8l10 17 7 14 8 3 13 2 1-1 1-36h3l2 38 2 2 7 2 3 3-1 5-10 11-1 2-1 13h-3v-7l-5 3-3 3v15l2 20-2 6-1 1-9-1-10-5-12-5-4-2v22h-2l-1-22-10 4-11 5-2 43h-2l-1-2v-38l-10 1-3-3 1-17 2-16v-6l-7-7-2-1v14l-1 19-1 5h-2l-1-41-4-8-7-8 1-5 2-2 8-3 1-14 1-3h2l2 16 9-1 14-3 1-2 1-28zm18 11-5 6-10 18-4 7-15 4-19 3-3 2 1 5 12 12 7 8 4 4v9l-3 21v7l1 1 9-1 15-7 8-4 8 1 17 9 8 3 5-1v-12l-1-12v-14l17-17 7-8-1-4-5-2-9-2-13-2-10-2-8-18-8-13z"/><path transform="translate(514,564)" d="m0 0 8 1 6-1-4 5-4 1-4-2v-2h-2z"/><path transform="translate(533,576)" d="m0 0h3l4 8 5 3 7 2 1 2-3 5-4 1 2 5 4 1h2l7-3 1 3-5 1-2 3-11-1-3-6 2-4 6-3v-2l-7-1-1 1-1 7-7 4-9-1-4-3 1-5 2-1v4l6 2 9-1v-12l-3-4-5 1-2-1v-2z"/><path transform="translate(343,612)" d="m0 0 5 2 3 5v2h-2l-3-5h-6l-3 4v5l3 3 7-1 2-4h2l-1 5-4 4-8-1-4-5-1-6 4-6z"/><path transform="translate(744,648)" d="m0 0 2 2v35h-2l-1-36z"/><path transform="translate(404,698)" d="m0 0 19 4 15 4v2l-15-3-18-5z"/><path transform="translate(530,718)" d="m0 0h44v2h-44z"/><path transform="translate(450,813)" d="m0 0 5 4 3 5 6 1v2l-18 2h-34v-2l35-1 6-1-1-5z"/><path transform="translate(618,836)" d="m0 0h32v2h-32z"/></svg>
