<?xml version="1.0" encoding="UTF-8"?>
<svg version="1.1" viewBox="0 0 1024 1024" xmlns="http://www.w3.org/2000/svg"><path transform="translate(535,150)" d="m0 0h10l18 5 31 10 30 11 18 8 12 5 24 12 12 11 6 7 5 5 9 10 10 14 2 4-1 12-6 32-3 23 1 6 2 7v20l-2 8-5 8-3 3-3 28-8 10 9-1 14 7 10 8 8 6 7 8 5 5 9 11 13 21-1 5v3l10 4 4 2v2l5 2 11 7 13 12 9 10 8 12 6 11 6 16 5 21 1 7v30l-4 22-5 19-7 16-7 15h-2l-2 6-7 11-12 16-13 14-11 9-15 11-24 13-15 5-8 1-20-7-16-9-3-1 3 7v13l-4 10v35l13 11 6 10 4 10v13l-3 6-4 3-14 4-8 1h-30l-18-3-20-6-12-6-4-5-2-10-2-24-5-25-5-8v-11l-1-2v-13l-2-5-24-1-15-2-3-3-2-7-2-1-1 10-1 8v10l-1 5 1 9-4 7-5 26-3 29-3 5-6 3-25 5-18 2h-39l-17-3-8-3-3-5v-15l5-12 8-8h2v-2l14-7 5-2v-21l-5-8-3-8v-13l4-11 2-6-29-10-6-4-1-1v-15l4-6 2-2 2-14 6-23 4-13 4-11 5-7v-10l2-13 2-6 1-4-2-5-1-9-13 4-6 5-20 4-8 1h-17v3l5 2 6 8 2 6v12l-3 8-7 8-6 3-11 2h-8l-11-3-5-4-6-9-1-3v-12l3-7 1-5-8-4-6-9-5-5-2-10-4-5-1-2v-14l-2-3v-10l1-2-19 2h-14l-9-3-4-8-5-17v-7l4-5 10-4 18-5 1-2-9-24-5-17-8-21-3-11-6-16-12-36-12-35-7-20-8-24v-9l7-25 7-22 3-10 8-22 2-2 5 1 8 7 10 9 16 15 20 18 8 8 3 12 10 46 1 9 10 50 3 18 8 38 2 14 6 28v2l13-4 10-3 8 1 1-5 8-15 12-16 13-13 8-7 11-7 7-3h3l-8-33-2-10-7-14-1-4v-20l3-10 3-5-3-15v-16l5-30 3-15 7-26 3-6 9-8 10-6 13-8 13-7 32-16 13-5zm6 6-2 5-10 52-1 11-5 32v7h-2l4-33 4-23 2-15 6-28 1-6-4-1-26 10-10 5-7 3-17 9-14 7-9 6-16 10-5 5-5 18-3 14-5 24-3 22h4l29-9 11-3 25-5 30-5h17l35 5 20 4 22 5 22 6 13 3 15 5 2-2 8-38 2-13 7-32-1-5-15-8-14-6-13-6-31-12-35-12-12-3-11-3zm137 54-5 24-6 28-1 8-6 25 2 5 12 20h3l4-4 8-3 9 1 5 4 3-1 7-40 2-17v-9l-6-8-8-9-9-11-8-8-4-5zm-457 7-10 31-4 13-8 28-1 7 9 24 3 11 9 24 3 11 8 21 3 11 9 25 3 11 6 16 7 21 12 35 2 2 11-1-3-11-3-10v-3l7 22 1 1h9l6-2v-7l3 6 11-4 1-3-3-13-1-7-6-28-3-20-1-3h2l2 16 5 27 2 10 4 18 6-1 3-2v-7l-2-12-10-49-2-10-2-12-9-45-1-9-10-47-4-23-2-9-16-16-8-7-11-10-8-7-11-10-6-3zm303 52-1 3 4 7 44 6 16 3 19 3 29 7 15 4 5 5 14 21h3l1-6-10-17-4-6-21-7-14-4-26-6-25-6-46-7zm-6 0-25 4-26 5-31 8-17 5-5 4 3 15 2 1 3-14 9-4 16-4 60-8 17-2-1-4-3-6zm-2 14-10 1v10l4 6v7h7l9-4 4-5 1-2v7l-3 12h8l14-5 14-10 7-8 1-3-7-2-29-4zm-24 3-13 3-8 4-9 7-6 7-4 8-2 30-3 9v13l10 4 25 8 31 7 6 1h14l39-4 28-4 26-6 16-4 2-2-1-5-8-2 2-5 4-8 1-4v-11l-9-8-7-6-6-10-6-12-31-7h-7l-7 10-10 9-17 8-7 2h-12l2-5 3-5v-2l-9 3h-12v-8l-4-9-1-6zm-24 2-26 5-4 2-1 3v25l5 10 5 5h2l1-26 6-10 7-7 8-5-1-2zm-37 8-7 2-2 12-2 25v25l10 8 21 10 12 5 15 6 31 10 5-1 4-6v-2l-33-8-22-6-27-11-6-3h-2v-2l5 1v-39l2-25zm188 2 3 10h2l2 5 11 11 6 5 1 4v14l-2 8h-2v4l10-2 3-2 3-16 1-24-7-10-21-6zm68 18-7 4-6 10-2 6-1 13 2 9 5 10 6 4h9l9-6 6-10 2-7v-13l-4-12-4-5-6-3zm-271 3-3 7-1 5v17l2 9h2l2-38zm244 4-3 24-4 20-5 2-16 5-18 5-45 7-27 3-16 1-6 2-3 4 1 3 19-1 42-6 15-2 26-6 22-6 14-5 8-5 3-5 2-9v-22l-6-9zm-224 7v26l2 7 4 2 1-1 2-13 2-9-10-12zm212 30-1 5h3l1-5zm21 2-4 8-1 33-2 22 4-2 14-10 16-16 2-14v-9l-13 1-8-4-6-9zm-248 3v7l4 20 6 21 4 6 8 7 18 12 12 7 7 4 4-1v-4l3 8 16 8 17 7 3-1-1-7-3-13-4-26-1-16 3 17 1 11 7 34 2 2h8l26-5 22-5 22-7 14-4 12-5 20-9 9-6 3-42v-12l-6 1-12 5-10 3-3 3v25l-1-24-4-2-22 6-19 3-24 4-42 4h-8l-21-6-29-10-10-5-10-4-19-11zm275 49-12 3-5 3v2l11 8 10 9 8 8 11 14 7 9 3 5 24 5 5-1 4-3-2-6-6-10h-2l-2-4-7-9-9-10-12-11-10-7-8-5zm-272 2-11 6-11 8-13 12-10 13-6 8-5 9v6l13 15 12 12 10 8 7 6 9 6 5-1 8-8 7-8 26-26-1-6-1-1h-5v-7l-8-4 1-5 4-3 1-6 4-2 1-2h3v-2l-17-10-17-13-3-5zm252 6-14 10-12 6-9 5-15 15-2 3 1 4 5 1 2 7 3 2v5l-5 5v7l-8 6v5l5 4 4-2 13-9 18-10 22-7 16-3 26-1-2-5-8-11-9-11-10-10-5-4-5-5-9-7zm-213 26-1 4-4 1-1 5-5 4 7 4 2 6 4 1 2 4 4-2 8-8-1-5-5-7-3-6zm164 0-25 9-42 11-15 3-22 1-10-3-20-9-14-7h-2l2 5 6 8 7 7 13 8 12 5 4 1h14l24-4 16-5 19-7 24-12 10-8 2-3zm-7 17-10 11-3 5 1 5 8 10 5 1 3-3 4-2v-8l5-5-2-4-2-2-1-5-6-2zm-6-1-16 8-19 8-25 7-15 3h-20l-21-9-14-12-4 1-10 10-7 8-22 22-4 9-2 9-10 36-1 8-4 16v10l5 12 13 5 6 1-1-4-3-5 11 11 11 3 16 2h6l4-4 2-1h19l27 3 9 2 6 7h28l10-6v-34l1-15-5 3-9 2v4l4 3-1 5-4 11 2 8h-5l-4 5-4-2-6 1-1-4-3-2 3-6 7-3v-2l-10-2-2 4v6l-6 3-2 2-9-2-4-4 1-5 8-4 2-7v-2l-7 1-11 3-17 1-4 7 2 8h-9l-4 5-3-1-1-2-6 1v-6l-3-2 2-5 1-1 7-1 2-4-1-5-5 1-9 4-3 3h-3l-1-4-5-1-1-8 3-5h12l2-2v-18l4-10 7-12-5-1-10 5-4-2-3-4 1-2-4-1h-4l-1-3v-7l3-7 10 1 7-6 9-3 8-6 4-1 1 4 4-1 6-2-1 9 2 1h4l-1 5-5 4v2l4 2 1 3-5 5 4 4v3l-5 2 4 4v5l-4 3 1 3 4-1 5-4 9-4v-22l4-3 21-8 17-4 29-1-4 4-6 5-4 7v8l4 7v2l-9 3-6 7-1 9h-9l2 4 6 5 2 1h6l3-3 4-10 5-1h3l5-12 11-18 11-13-2-4-7-8-10-13-1-4 7-11 5-6zm97 15-23 4-14 5-16 8-12 8-10 9-8 8-7 10-9 15-4 11-4 12-3 15-1 9v22l3 21 6 22 4 10 9 19 11 16 8 10 11 12 12 11 17 12 13 8 25 11h8l12-5 14-7 15-10 7-7 8-7 12-12 7-8 14-21 9-17 6-16 5-15 4-20v-38l-4-19-6-15-8-16-8-11-9-10-10-9-13-9-17-8-11-4-22-4zm-363 4-16 6-3 2-1 3-10 6-12 5-25 5h-12l-4-1-19 6-7 2 1 3h11l19-2 25-6 16-5 8-2 16-6 9-4 11-6 3-4v-2zm11 3-1 3 4 11 2 8h2l-1-9-4-12zm9 2 1 10 1 4v9l-1 3 1 1h7l3-2v-2l5-2v-4l-10-10-6-7zm-14 3-21 10-8 4-22 7-21 5-37 5-1 1 1 9 5 14 1 1h14l24-4 19-4 21-8 16-7 8-5 9-5 1-3-3-9-1-2-1-8zm294 5-3 2v2l-5 2-13 11-10 11-7 10-9 17-3 7-4 17-2 14v32l5 25 5 17 10 22 10 15 9 12 9 10 15 15 16 12 14 9 24 11 6 1v-2l-16-7-15-8-12-8-14-12-8-7-8-8-7-8-11-15-9-17-4-8-7-20-4-16-1-13v-41l5-19 6-16 9-16 8-11 5-4 7-8 12-9zm-151 4-3 2v3l5-1 1-4zm12 1-7 4-13 1-7 3-6 5-8 1h-4l-1 3v9l3 1 15-4h4l-1 3-12 6 1 3 5-1 6-3 9-1 6-4 1-2v-6h2l-2 8-5 5-1 4 2 1-1 7-2 8v14l1 2-4-2-7 3 1 7 6 7 3-1 1-2-2 13-2 4-7 1-1 2 3 2-2 3 3 2 3-1 2 4 4-5h6l1-2-1-6h2l5-11 2 4h10l16-3 9-4 3-2 1 5 3 5 3 3 11 2-1 6-7 2-1 4h3v4l5-2v3h3l1-2 5-2 1-2v-9l3-9-4-2v-9l11-2 4-4 3-8 3-2-1-5h-4l-3 5-2 6-2 1h-8l-12-9-4 1-4 4-2 6-5-2h-8l-7 6-4-1-5-4-2-1h-8l-4 1 6-13-1-2-5-2-2-4 1-14v-15l-1-3 8-5-1-2h-7l3-8zm81 6-18 2-17 4-17 6-6 4v20l-5 4-8 5-2 5-1 4-2 3v3l10 1 7 4 4-2 8-3 9 1 5-8 5-3 11-3 4-9 4-4 6-4-1-14 3-8 5-6v-2zm-197 3-10 7-3 1 1 4 9 10 7 14 4 16v20l-1 6 9-1 9-6 7-26 5-21 4-12v-2l-4 2-6 6-7-1-19-14zm-23 10-22 11-8 5 1 4 5 6 4 8 3 10 1 7v14l-3 10-3 5h13l25-3 7-3 4-7 1-5v-18l-3-13-5-14-7-9-8-7zm-133 1-1 5 5 16 2 4 4 1 1-2-4-11-2-11zm274 0 1 4h2l-1-4zm-36 6-1 2h3v-2zm36 4 1 4 2-1-1-3zm-190 6-14 4-8 3v1h16l8-7zm171 1-2 1v2h5v-3zm-166 2-5 2-4 9-4 16 2 4 2 1h6l6-5 3-5 1-5 2 10 2 6 5 1-4 2 5 20 2 2 4-5 2-6v-21l-6-18-5-6-7-2zm185 1-1 5h3l-1-5zm-23 2-2 3v3h6l2-5-1-1zm-190 5-9 3-3 4v7l4 4 5 1h8l7-2 2-6 2-9-3-2zm186 2-2 5 3 2h5l1-1v-5zm-2 9-1 7 5 1 5-2v-6zm-150 8-1 3h2zm-44 2v11l5 4 3 1h13l10-3 5-4v-3l-10-2-3-4zm42 4-4 5 1 4 7-1 1-1v-7zm140 4 1 4h-4v2l2 2 2 6 4-2 9-3 2-4-4-5-10 1zm-137 5-4 3 1 8 5-2 3-2-1-7zm-12 1-5 3-8 1h-14l-1 4 3 6 9 3 11-1 6-3 4-4v-7l-2-2zm146 3m77 0-3 12h-5l-3 4 4 2-1 3h3v-2h2l1 4 4-3 4-1 1-7 1-5-5-7zm-208 6-8 4-1 2 1 7-5 4-10 4 1 2 4-1 7-3 16-1 2-3-2-5-1-1-1-9zm-14 7-8 3-11 1 2 4 4 2h8l5-3 3-4v-3zm12 13-8 4-4 5-2 5v11l3 7 7 6 3 1h10l8-6 4-4 2-5v-10l-6-9-8-5zm86 1-2 5-1 5v12l9 4 16 5 16 3 21 4 1-1 2-22-3-2-26-5-12-2-16-5zm-98 2-8 4-3 4-1 5v10l3 6 7 6 4 2h3v-2l-5-5-4-10 1-10 4-8zm167 6-3 3-2 7-1 8v12l3 7 8 3 24 3h22l4-4 2-6 1-10v-11l-3-7-8-3-16-2zm97 6v3h3v-3zm-35 6-2 25h46l1-5-5-19-1-1zm-134 7-4 7-6 13-5 17-4 17-3 16 5 3 26 7 21 5 39 6h7l2-5 9-25 3-5 3-2 1-27-22-4-6-4-5-5-29-6-15-4-14-4zm178 21-48 1-3 4-6 1h-24l-2 16v12l4 4 9 34 5 3h75l31-3 7-1v-3l-10-10-4-5h-2l-2-4-10-15-11-20-5-13zm-87 37-2 2-8 24-4 13-3 10v4l6-1 15-45 1-5-2-2zm6 10-5 12-8 27-3 5-5 2h-16l2 4 6 8 2 1h24l3-7 4-15 2-13-1-10-3-14zm-121 5-3 4v11l20 8 16 4 25 6 12 2 16 2h8l4-9 1-7-9-2-26-4-21-4-18-4-20-7zm249 21-7 1-51 3h-33l-23-1-1 3 3 15 7 2 17 1h28l36-2 27-3 19-3-1-3-7-5-8-8zm-214 12-5 8-3 9v8l3 10 5 8 7 6h12l13-2 12-5 10-8 3-5-1-6-6-8-8-8-28-6zm233 9-20 3-28 2-5 2-10 11-1 10 4 5 8 5 11 5 13 3 16 1 8-4v-2l4-2 6-5 4-8 1-4v-7l-4-11-3-4zm-64 6-21 1-1 1 1 7 4 2h15l8-9-1-2zm-108 9-1 1-2 11h22l4-2 2-5-1-5zm87 4-1 1v7l3 4 9 2h9v-3l-2-9-1-1zm-67 10-5 1h-23l-10 6-10 4-14 3h-10l-6-3h-3v16l2 2 13 1 13 4 11 6-6-2-8-4-9-2h-17l-2 1 1 3 12 4 11 8 8 9 6 9 5 1 23-4 10-3 2-6 5-35 3-9 2-2v-7zm68 5-2 4 4 5 4 13 3 14 1 24 8 5 9 4 9 2 6-9 6-8 9-7 13-6 3-1 18-1-1-2-10-3h-18l-11 3-5 1 11-5 5-1h19l8 2 2-5-1-23-5 2-9 6-2 1h-17l-16-4-16-8-21-2zm-162 32-11 7-7 8-4 10 1 3 6 2 12 1h38l9-1 1-2-7-11-7-7-10-6-12-4zm242 9-11 2-16 9-8 8-5 9 1 4 10 1 9 1h36l13-2 5-3-2-10-5-8-5-6-8-4-5-1zm-160 17-12 3-37 4h-33l-17-3-5 1 1 6 7 3 5 1 14 1h32l23-2 21-5 5-5v-4zm91 7 1 6 7 5 21 8 24 3h23l18-2 6-3 3-4v-5l-10 2-11 2h-30l-26-4-13-3-10-5z"/><path transform="translate(564,182)" d="m0 0h7l5 3 1 8-4 25-6 32-3 4h-10l-3-4-1-6 2-11 1-10 7-36 2-4zm1 3-2 3-5 28-5 26v7l4 3 5-1 2-2 10-55v-6l-3-3z"/><path transform="translate(501,185)" d="m0 0h9l3 4-1 10-5 32-2 18-3 5-4 2-6-1-3-3v-9l5-32 1-12 2-9zm3 3-4 4-6 38-1 11v11l1 1h5l3-7 4-27 2-18 1-5v-7z"/><path transform="translate(598,196)" d="m0 0h7l5 4v13l-8 41-3 6-3 3h-6l-4-4-1-6 2-16 7-34 3-6zm2 3-3 5-9 46v7l4 3 5-1 2-5 2-13 7-35-1-5-2-2z"/><path transform="translate(471,201)" d="m0 0 5 1 3 4-6 50-3 5-3 2-5-1-3-4 1-22 4-28 3-5zm-2 4-2 5-5 39v9l1 1h5l2-3 2-14 2-22 1-7v-8z"/><path transform="translate(633,212)" d="m0 0 7 1 4 4v8l-9 42-4 4h-6l-4-3v-15l7-35zm0 4-2 5-8 38v6l4 3 5-2 2-9 7-34-1-5-2-2z"/><path transform="translate(444,217)" d="m0 0 5 1 1 1v11l-2 19-3 16-5 4-5-1-2-3 1-14 3-22 1-7 3-4zm-1 3-2 3-4 25v17l5-1 6-38v-5z"/><path transform="translate(238,262)" d="m0 0 2 1 8 23 6 21 5 19 6 22 5 21 7 28 11 43 4 19 5 17v3h-2l-7-25-7-27-5-20-9-35-6-25-8-31-7-26-4-13-4-12z"/><path transform="translate(693,268)" d="m0 0h2l-2 15-3 17h-2l2-18z"/><path transform="translate(269,286)" d="m0 0h2l6 24 2 14h-2l-5-21-3-14z"/><path transform="translate(215,287)" d="m0 0h2l5 21 8 26 3 9 9 26-1 3-2-2-9-25-3-10-8-25-2-11z"/><path transform="translate(482,298)" d="m0 0h10l4 4v6l-5 3-14 1-10 4-1-4 6-8 6-5zm1 2-8 4-4 4v3l10-2 11-1 2-2-1-4-2-2z"/><path transform="translate(583,298)" d="m0 0h7l9 3 7 6 4 8-4 1-11-4-13-1-4-3v-7zm1 2-4 4 2 4 18 3h4l-2-4-8-6-3-1z"/><path transform="translate(480,320)" d="m0 0h11l6 3 5 6 2 6-1 9-8 7-7 1-13-6-8-1v-2l2-1 2-13 6-7zm5 2-6 3-5 6-1 4v7l5 3 3-1v-10l3-6 8-3-1-2zm1 7-2 2 1 4 5 1 2-4-2-3z"/><path transform="translate(582,321)" d="m0 0h10l6 3 4 5 2 5 1 10 2 2-15 4-6 3h-7l-5-3-1-3h-2l-2-6 1-9 6-8zm3 2-1 3 6 4 3 6-1 10 7-1 1-1v-9l-3-7-6-4z"/><path transform="translate(694,323)" d="m0 0h5l-3 2-4 4-3 13 1 4 4-9 3-3 4 1-4 4-2 5 5 2-2 1-5 1-3 6 2 4 8 2-3 3-5-1-4-4-2-6-1-9 2-11 6-8z"/><path transform="translate(532,334)" d="m0 0h1v8l5 2 1 2-5-1h-7l-4 4 1 6 2 2 5 1v2l-7-1-5-5v-6l4-5 6-3z"/><path transform="translate(283,363)" d="m0 0h2l3 12 1 9 2 9v4h-2l-3-15-3-14z"/><path transform="translate(551,366)" d="m0 0h2l-1 6-7 6-5 2h-17l-8-7-1-3 4 2 4 3 10 2 9-2 6-4z"/><path transform="translate(254,379)" d="m0 0 2 3 9 28 4 16 2 10h-2l-4-14-10-34-2-7z"/><path transform="translate(441,392)" d="m0 0h2l6 21v2h-2l-6-20z"/><path transform="translate(575,412)" d="m0 0h2l1 9v15l-2-1z"/><path transform="translate(709,492)" d="m0 0h26l20 4 18 8 11 7 11 9 9 9 11 16 9 21 4 16v45l-5 19-4 12-5 11-6 11-8 14-9 12-12 14-10 9-15 11-13 8-14 6h-8l-14-6-16-8-17-13-10-9-12-12-12-16-5-7-8-16-4-10-7-25-2-15v-23l3-19 7-21 8-15 7-9 13-13 11-9 17-8 10-4zm0 3-18 4-10 4-1 1-1 34-1-32-3-1-16 9-4 5v35l-1 1v-18l-1-16-4 1-11 12-5 8v33l-1-24-1-3h-2l-6 12-5 19-2 12v29l6 30 8 19 1 2h2l1-45h2l-1 19v21l1 14 10 16 9 10h2v-34h2v19l1 21 3 3h2l2 4 7 6 3-1v-26l1 1v17l1 12 11 8 18 10 12 4 1-1v-30h2v24l1 7 5-1 11-5 5-3 1-27 1 2v21l4 1 9-7 13-11 10-10 11-14 9-13 2-24v14h3l9-19 3-11 4-17 2-18v-10l-3-21-5-16-2-1v32h-2v-39l-3-7-9-14-4-4h-2l-1-4h-2l-1 24v22h-2v-50l-12-9-16-8-13-5-2 2v30l-1 1v-24l-1-9-4-2-6-1h-10l-1 1-1 30-1-26-2-5z"/><path transform="translate(355,502)" d="m0 0 2 1-10 6-15 7-2-1 10-6z"/><path transform="translate(484,511)" d="m0 0 5 1v5l-5 1-1-5z"/><path transform="translate(585,510)" d="m0 0h2v2l-22 6-13 4-10 4-1 3v9l-2 10-5 4-4-1 7-5 2-21 10-5 16-5z"/><path transform="translate(559,531)" d="m0 0 13 1 8 2v2l-21-3z"/><path transform="translate(296,531)" d="m0 0 4 1-4 2-10 2-11 1h-13v-2l22-2z"/><path transform="translate(702,541)" d="m0 0h2v34l4-4 9-17 4-4h7l6 9 14 27 24 5 1-43h2l2 44 12 4 2 2-1 5-7 8-6 7-1 15h-2l-1-11-10 10 1 15 2 20v6l-3 4-6-1-26-12-6-3v26l-2 1v-27l-10 4-15 7-1 48h-2l-1-46-6 2h-5l-3-4 2-20 2-15v-6l-10-10h-1l-1 31-1 12h-2v-45l-3-7-7-7-3-5 1-4 7-3 5-2 1-20h2l1 20 27-5 1-2zm21 12-10 16-11 20-7 2-32 6-3 3 28 30v8l-4 30 1 4 7-1 5-3 10-4 14-7 7 1 17 9 14 6 3-1-1-16-2-25 7-8 18-18 3-4-1-3-38-8h-3l-2-5-9-19-7-11z"/><path transform="translate(334,622)" d="m0 0h8l4 4 1 3v7l-3 5-2 1h-7l-5-4-2-7 3-7zm1 2-4 5v6l5 5 6-1 4-5-1-6-4-4z"/><path transform="translate(774,660)" d="m0 0h2v42l-2-1z"/></svg>
