<?xml version="1.0" encoding="UTF-8"?>
<svg version="1.1" viewBox="0 0 1024 1024" xmlns="http://www.w3.org/2000/svg"><path transform="translate(337,125)" d="m0 0h2l-1 12 8 16 7 18 1 4v8l-4 14-4 9-4 12-2 5 1 7h-2l-10-19-2-5h-2l-3-7-1-6v-13l2-13 12-37zm-2 20-2 5-3 11-4 14-1 6v11l4 10 6 13 3-1 8-21 2-7v-13l-6-18-5-10z"/><path transform="translate(321,135)" d="m0 0 2 2-6 29h-2l2-16z"/><path transform="translate(328,87)" d="m0 0h7l8 5 5 6 6 19 5 12 9 16 8 19 1 5v21l-5 18-3 7-8 22-2 11-1 11v17l7 77 4 43 1 18 1 14 9-1 6 3 4 6 1 5-1 13-4 8 1 11 9 7 5 5 12-1h5l8-6 14-12 10-10 11-9 10-7 14-7 7-3 13-10 7-6 9-1v-2l-15-4-20-6-15-7-11-6-14-11-8-10-5-11-2-5-8-3-9-7-9-11-3-9-1-4v-18l3-10 7-9 5-3h14l-2-13v-21l3-18 7-21 5-9 7-11 11-12 7-7 15-10 16-8 16-6 14-3 15-2h33l24 4 21 7 16 8 13 8 5 4 5 5 5 4 6 8 7 11 9 20 3 14 2 14v17l-2 17v7l4-1h7l10 5 6 8 3 7 1 5v14l-4 13-7 10-7 7-10 6-6 2h-12l-9-3-7 13h-2l-2 4-7 8-10 8-23 11-24 6h-5l1 3h9l7 4 5 4 3 3 6 4 5 4 16 8 13 12 9 13 7 14 8 17 10 28 2 10v21l-3 12-4 11-1 24-1 14-6 18-6 12 1 5 6 28 5 21 9 36 3 16-2 7-5 4-7 4 2 13 6 24 1 10-3 10-7 11-8 7-4 2-1 11-4 5-3 1v17l4 9 9 11 7 10 6 11-1 7-8 4-1 1-7 1-2 2-10 2-10 1-5 3-6 1-9-3-3-5-8-8-1-3-1-15-1-2v-40l-9-4-2-5-1-6-13-6-8-5-6-5-4-6-2-9-3-28h-13v12l1 11v9l-3 9h-2l-2 4-7 6-10 5-2 10-3 3-3 1-1 3v11l2 13v15l-5 6-4 2-18 2-8 3-9 6-3 1-15 1-8 4-9-1-9-5-9-6-4-5v-2h-2v8l-6 4-8 2-10-1-5-3-2-8-4-43-2-31-10-110v-9l-4-45-1-4-6-4-6-8-6-13-3-11-5-22-3-23v-30l3-25 4-17v-5l-6-5-5-8-5-14-2-14v-9l1-3 1-13 3-5 9-9 3-2-6-62-2-28-6-60-4-12-8-20-10-20-8-15-3-8-1-6v-13l3-19 2-23 4-5 8-1 2-13 3-23 6-7zm0 5-6 4-4 6-2 19-8 37-4 16v7h-2l3-19 4-18-1-4-5-1-2 2-1 6-1 22-2 12v14l3 11 21 42 5 15 4 10 2 1 7-2 13-1 1-1 3-29 4-16 9-22 3-13v-21l-5-16-9-16-7-15-5-15-1-6-7-8-3-1zm224 48-22 3-25 7-16 8-11 6-11 9-9 9-9 13-8 16-4 11-3 19v26l3 25v34l-1 6v12l2 11 5 10 11 12 8 6 14 8 24 9 19 5 16 3h23l11-1v2l-6 2-4 2-15 3h-18l-4 9-2 3 2 9 6 16 5 8 4-1 17-13 16-13 13-11-2-16-1-2 12-2 24-8 14-6 13-9 10-10 10-16 3-5 7 5 9 2 8-2 9-5 10-9 5-9 3-10v-13l-4-12-7-7-3-1h-10l-10 6-5 4 5-7 3-15 2-18v-10l-2-17-4-15-4-12-7-12-10-13-11-10-15-10-19-9-21-6-16-3-11-1zm-209 133-12 3v6l3 2 9-2h10l1-1v-6l-5-2zm76 8-6 4-4 5-4 10v17l4 10 8 11 10 7h4l3-30-4-6-5 2-2 4v10l-1-2v-8l3-7 2-1-1-5-6-5h-6l2-2 7 1 6 5 4 7h2l-1-12-2-11-3-3-3-1zm-80 3-7 2 1 10 10-1 11-1 1-1v-7l-2-2zm9 12-13 2-2 1 1 9 11-2h10l1-1v-6l-2-3zm-4 12-9 2-1 5 10 100 1 9 1 1 20 2 1-2-10-104v-9l-2-4zm244 106-2 3 4 1-7 9-12 11-11 9-14 12-11 8-19 14-9 7-13 10-18 13-3 2 1 3 10 2 13 2 8 4 5-1 13-10 16-13 14-11 5-5 14-12 11-10 8-7 17-16 8-8-2-4-9-5-10-8zm-69 3-6 2-12 10-6 4v10l6 21 6 16 4 1 10-8 9-7-1-5-5-8-5-13-1-8-1-10 4-2-1-3zm-171 11-10 5-7 6-2 4-2 16 1 10 2 14 4 10 4 7 10 9 2-1v-8l-1-2 18-5 5-4v-6l-5-2h-8l-10 1 11-3h12l3-3v-6l-4-4-9-2-13 1-5 1 3-2 8-2h18v-4l-6-10-5-1h-12l-8 1 1-1 10-3h15l4-4-1-6-5-3-10-3zm26 4 1 8-3 5 1 8 6 5 5-1 2-3v-17l-5-5zm243 1-7 8-8 7-11 11-8 7-10 9-11 9-13 11-10 8-9 7-8 7-9 7-2 3 5 2 7-8 5-2 20-2 29-5 6-2 6-8 5-3 4-18 2-4-2 7v8l8-10 4-3-11 18-2 4-8 5-1 3h19l15 3 10 3-24-4h-14l-23 6-40 5-9 4-1 3 10 2 7 6 9 16 5 15 4 17 4 22 5 42 3 14-5-3-9-8-9-13-12-24-4-13-4-19-5 1-2 1 1 10 6 18 4 11 8 16 8 14 16 20 9 10 8 6 6 3h9l13-4 16-9 9-5 16-15 7-7 7-10 7-14 4-11 3-15 1-8v-10l-4 2-11 14-9 9 3-4 4-6 5-5 8-13 6-12 5-22v-14l-5-22-9-21-5-12-4-8-6-11-7-9-5-5-9-7-11-6zm-130 4-17 9-9 7-17 16-11 10-12 8v4l4 5 7 12v3l-8-13-5-5-4-2v-2l-6-1-3 3 7 6 7 11 5 15v6l-4-12-8-18-5-4-8-6-10-10-5-1-1 4 6 11 3 18v32l-2 15-1 11-4 16 1 17 4 41v8l1 7 3 1 12-4 8-4 12-8 8-7 3-27 2-11 6-24v-11l-5-4-2-6 4-10 8-9 5-16-2-30h2v11l1 8h2l5-17 4-9v-2h2l-4 11-5 19-1 9 5-2 16-12 9-8 11-8 6-5-8-19-4-14-2-12-1-1zm-109 24-2 2 1 5 1 1v8l-1 1v11h2l3-14v-12zm4 26-1 2-3 1v11l1 10v10l2 17 6 4h3l1-6v-17l-2-18-4-13zm-11 7-16 5-1 1 1 19 1 10v10l10 104 2 23v9l8 86 3 34v9l10 108 5 3h9l8-4 1-2-9-93-1-17-10-102-1-18-10-102-2-28-5-54zm-26 19-2 14-3 22v40l3 22 3 16 6 18 8 13 3 1v-11l-2-18-4-8-5-14-4-21-1-8v-33l4-26-1-5-2-2zm122 5-4 3v5l4 1 7-2h9l1 2h-9l-11 3-11 7-7 7-4 8 2 6 4 1 5-3 4-5 9-6-9 11-4 6v7l4 5 3-1 6-8 5-4-3 4-6 9-1 5 3 5 5 1 8-9h3l-7 8-1 5 3 4h7l11-7 2-1 14-1 9-3 10-6h21l1-2-9-25-8-11-4-4h-12l-22-10-14-3-10-2zm-9 7-2 5 5-2-1-3zm-108 8-1 9v36l4 25 5 17 2 1-3-37-1-17-3-33zm32 12 2 26h2l4-22-5-4zm67 28-3 17-5 21-2 17-3 41-10 56-2 19v6l5 5 8 4 20 7 13 4 14 3 26 6 23 3h37l32-4 29-6 17-4 21-7 12-5 4-3-1-13-5-22-11-45-4-23-4 2-8 10-10 10-14 10-14 8-18 7-9 1-9-3-11-8-6-7-5-4-13-18-12-20-7-16-4-10-4-16-2-9h-18l-10 7-4 2h-7l-4-5-2-3-7-3-4-8-6-4zm80 4-3 3 3 15 3 12 10 23 12 18 9 10 2-1-4-20-6-39-3-17-4-2-11-2zm-98 67-7 7-16 8-13 5-2 2 1 14 8 82v9l11 110 1 22h3l3-5 12-5 13-8 16-10 5-4 3-5v-8l-8-5-1-9-4-4-10-7-6-5-6-10-1-3v-13l4-38-6-4-10-5-1-2v-15l6-34 1-11 6-35 1-13zm10 121-1 1-3 30v20l6 9 9 8 9 6 12 4h5v2l-14-2-1 4 2 5 11 3 8 1h18l13-2 4-2 1-7-3-1-8 1v-2l8-1 9-4 11-7 5-6 1-3v-20l-1-14-4-2-20-2-24-4-23-6-18-5zm226 1-12 4-35 9-9 2-45 5-1 2 5 30 3 8 5 5 11 7 11 5 10 3h8v2l-15-1-1 3 4 6 11 2h17l17-3 7-3 1-9-12 2-2 1v-2l10-3 8-4 6-5v-2l3-1 6-9 2-7v-9l-3-16-5-21zm-195 93-1 9-4 6-10 8-25 14-3 3 3 1-7 4-1 6 3-1 4-5 7-2-8 5-1 6h3l2-5 5-2 9-2 3-2-3 3-2 1 1 5-1 1-11-1 1 5 5 4h10l6-4h11l10-5 5-3 11-2 12-2 6-4 3-5-1-10-2-10-1-15-4-1zm173 1-5 1-25 1-1 1-2 13 2 6-1 18 2 3 1 17 6 5 2 5 6 3h7l5-3 2-5-6-9 1-1 5 5 2 9 1 1 7-1 2-3-1-5-3-6 4 4 2 8h5l2-2-1-6-2-4 4 4 2 6 4-2 1-4-3-5 3 2 2 5 4-2-2-6-10-13-10-14-5-13-2-13zm-218 39m-4 2-1 4 4-4zm16 7-2 2 7 1v-3z"/><path transform="translate(355,146)" d="m0 0h2l6 15 3 7 1 7h-2l-5-14-3-7z"/><path transform="translate(544,163)" d="m0 0 5 1 12 18 8 15v5l-4 2-12-7-3-1-1 16-1 10v12l3 4 1 3v8l-3 3-5-2-4-3-5 1-7 3-2-2v-8l3-6 2-7 3-30 1-2-9 3-5 2-5-1 1-7 6-8 15-16zm0 3-8 8-9 11-8 10v3l10-3 4-2h4l-2 23-1 14h10l4-37 10 4 5 3h3l-3-9-3-6h-2l-2-5-9-14zm-7 65-8 7v9l6-2 4-1 7 4h3v-7l-4-6-5-4z"/><path transform="translate(360,197)" d="m0 0h1l-1 10-8 22-4 12-2-1 2-9 5-13 4-11 2-9z"/><path transform="translate(311,203)" d="m0 0 2 3 5 12 6 10 6 13v2h-2l-8-16-6-10-3-8z"/><path transform="translate(474,233)" d="m0 0h14l7 3 3 3-1 4-12-1h-16l-9 2-9 4h-2l2-4 9-7 9-3z"/><path transform="translate(597,235)" d="m0 0h17l9 3 10 5 6 7-2 1-10-5-11-3h-16l-6 1h-8l1-5 6-3z"/><path transform="translate(470,264)" d="m0 0h10l8 2 6 4 6 7 4 9 1 9h-3l-1 5-4 6-6 5-3 1h-9l-7-3-5-5-3-5-1-10 4-10 6-5 4-2h9v-2l-5-1h-8l-9 4-6 7-4 11v8l-3-1-2-11 3-9 6-8 7-5zm5 13-4 4v6l2 2 7-1 2-3-1-5-4-3z"/><path transform="translate(603,266)" d="m0 0h13l10 5 5 4 6 12v10l-3 7-2-1v-13l-5-10-8-6-7-2h-12v2h8l9 4 5 6 1 5v11l-4 9-8 5-4 1h-8l-8-4-5-5-2-6v-11h-2l-2 9h-2l1-9 6-11 9-8zm-9 14-3 3v6l3 3h6l2-2v-7l-4-3z"/><path transform="translate(698,300)" d="m0 0h7l3 3-1 2-2-1h-6l-9 8 1 4 5 8-1 8-2 4-3-1 2-3v-9l-3-5-4 1-5 5-2-1 3-7 5-7h2l2-4z"/><path transform="translate(462,311)" d="m0 0 9 3 12 2v2h-8l-11-4-2-1z"/><path transform="translate(521,314)" d="m0 0 2 1-5 6v8l-2 1-1-2v-7l3-5z"/><path transform="translate(621,315)" d="m0 0v3l-8 3h-13l-3-1v-2h14z"/><path transform="translate(573,351)" d="m0 0h2l-1 3-12 5-14 3h-18l-16-4-6-4 2-1 8 3 23 2 19-2z"/><path transform="translate(484,658)" d="m0 0 2 3 12 29 13 25 7 11-1 2-8-11-8-14-6-12-9-23-3-9z"/><path transform="translate(630,919)" d="m0 0h7v1l-7 2 1 1 10-1-1 2-9 2-5-1 1-4z"/></svg>
