<?xml version="1.0" encoding="UTF-8"?>
<svg version="1.1" viewBox="0 0 1024 1024" xmlns="http://www.w3.org/2000/svg"><path transform="translate(351,156)" d="m0 0 2 1v11l10 21 4 11v11l-6 17-3 7-3 9v7l-2 2-9-17-3-5-3-4-2-7v-16l4-16 5-16 5-15zm-2 18-4 10-2 10-3 11v14l5 12 4 8 4-2 7-19 1-4v-16l-4-12-6-12z"/><path transform="translate(336,166)" d="m0 0h2l-1 9-3 14-2 4-1-2 3-20z"/><path transform="translate(342,121)" d="m0 0h8l8 6 4 5 7 21 12 24 6 14 1 4v23l-9 27-6 17-2 13v25l9 90 2 37 1 7h10l6 5 2 5v9l-2 8-2 4 1 11 11 9 1 1 17-1 11-9 10-9 5-6 11-9 13-8 13-7 5-2 16-13 8-2-3-2-17-4-16-6-8-4-11-6-12-9-9-11-6-14-7-3-9-7-7-9-4-11v-20l4-9 7-8 2-1 13-1-1-9v-24l3-18 7-18 8-14 11-12 9-9 13-8 15-8 15-5 14-3 8-1h37l21 4 18 6 24 13 10 8 9 9 10 16 8 19 4 20v23l-2 18 2-1h8l8 4 7 8 3 8v18l-3 11-4 6-5 5-8 7-10 4h-14l-6-2-6 11-4 4-5 6-8 7-8 5-12 5-6 3-18 4-6 1v1l9 1 8 5 11 8 5 5 12 5 14 12 10 15 13 28 4 10 3 10 3 11v24l-6 18-1 31-2 9-4 12-5 10 2 16 10 41 4 17 5 22-1 7-5 6-4 1v2l-2 1 3 18 4 19v8l-3 8-6 9-7 7-3 2-2 11-6 6v14l5 10 7 8 10 15 1 9-1 3-8 4-15 4-12 2-7 3-6-1-6-3-6-8-4-5-2-15-1-38-7-4-3-7-1-3-14-7-9-7-4-5-2-7-3-25-1-2h-10v30l-3 7h-2l-2 4-7 6-7 3-3 11-5 4v13l1 7v17l-8 7-18 3-9 4-7 4-16 2-6 3-10-1-15-9-5-6-2 7-6 3-10 1-9-2-3-7-3-29-1-20-4-47-6-61-1-27-4-39-7-6-6-10-5-11-7-32-2-15v-32l3-22 3-11v-8l-6-5-5-10-4-13-1-7v-12l2-14 7-9 6-5-1-16-5-50-2-25-1-17-3-27-4-13-4-11-5-12-8-16-9-17-1-6v-17l4-36 4-5 8-1 1-13 3-21 8-7zm-1 5-7 6-3 23-7 30h-1l2-9v-6l-5-1-3 5-2 26-1 5v17l4 11 10 21 7 14 8 21 2 4 20-3 2-5 2-22 4-16 7-17 3-12v-24l-4-13-9-16-8-19-4-13-7-7zm204 44-22 3-18 6-17 8-10 7-10 9-8 8-4 6v2h-2l-8 17-4 13-2 12v28l2 16v54l2 9 6 11 11 11 11 7 12 6 14 5 19 6 14 2h32l1 2-6 1-15 4-18 1-6 12 4 13 8 16 6-2 13-10 14-11 11-9 2-3-1-16 16-4 23-8 10-6 10-7 9-10 6-10 4-6 6 4 3 1h11l13-8 8-8 5-11 1-3v-15l-4-11-7-6h-12l-8 5h-2l3-9 3-18v-20l-3-16-5-18-8-14-5-7h-2l-2-4-6-5-5-5-14-9-18-8-16-5-21-3zm-189 122-10 2-1 5 2 4-1 4 2 6 10-1v2l-10 1-1 5 2 4 18-1 2-3-1-5-2-2-4-1 6-2v-6l-2-2h-12v-2h12l1-1v-5l-3-2zm70 7-8 7-4 9v21l5 9 10 11 4 2 5-1 2-21v-6l-3-4-5 1 2-6-6-7h-4v-2l8 3 4 4 3 5h2l-1-14-3-9-5-2zm-71 25-6 2-1 8 8 74v9l2 14 7 2 13 1 1-1-1-16-8-78-1-13-2-2zm227 98-1 3h2l-4 6-13 13-14 11-8 7-2 1v2l-4 2-14 10-19 14-10 8-8 6-10 7 1 4 7 2 11 1 11 4 6-3 12-9 11-9 13-10 7-7 6-4 5-6 8-7 10-9 8-7 14-14-1-4-9-6-8-6zm-65 3-7 3-5 5-9 7-1 4-1-1h-6l-16 9-14 12-7 7-8 7-5 4-10 7 1 5 7 10v2l-8-11-8-5-4 1v3l7 7 5 11 4 12h-2l-2-9-6-14-9-8-8-7-5-4-4-1-2 4 6 12 2 11v36l-3 22-3 11 1 21 3 29 1 15 1 4 9-1 11-4 16-12 3-3 3-21 4-20 3-14v-12l-4-5-1-5 4-10 6-6 5-15v-12h3l5-15 2-5v-3 4l-6 20-1 9 3 1 19-14 8-7 12-9 1-2-1-3 7 1 7-7 9-7-2-7h-2l-2-5-4-11-1-17 2-1v-3zm-157 10-10 5-6 7-2 13 1 15 3 16 6 10 8 7h3v-10l7-1 10-3 3-3v-6l-4-2 7-3v-8l-5-3-4-1h-16l4-1 18-1 1-5-5-8-2-1h-19l6-2 17-1 2-3-1-6-4-3-7-2zm26 3-1 3v6l-2 3 1 8 3 3 6 1 3-2v-18l-4-4zm223 1-7 8-8 7-9 9-11 9-11 10-10 8-13 11-11 9-16 13v4l4-1 4-5 4-2 22-2 26-5 5-3 10-10 1-9h2v2l3-1 5-5-6 10-5 7-5 3 1 3 19 1 9 1v2l-9-2h-16l-19 5-35 4-11 4-2 3 4 2 7 2 5 5 9 17 6 20 4 23 5 38 1 4h-2l-1-9-5-30-1-11-2-11-4-3-8-2h-11l-2 4 1 3-4-2-4 2-1 4 3 12 10 26 11 20 12 15 9 11 9 8 8 4h8l14-5 10-6 8-4 12-11 14-14 2-5h2l7-14 5-17 2-10v-13l-4 1-10 12-4 4 6-8 4-5 9-16 3-9 2-11v-20l-4-18-4-8-9-21-9-18-5-5-7-8-13-9-4-2zm-220 26-2 2 1 5v18l1 2v14l2 29 5 5 4-1 1-1v-23l-2-15-4-9-4-1 1-9v-15zm-8 30-12 4-2 2 1 39 10 97 1 12v16l10 101 2 30 1 18 6 60 2 7 4 2h8l8-5-1-16-4-39-1-17-5-54-5-47-3-44-9-87-1-22-5-51-2-6zm-22 18-2 5-2 19-1 6v42l4 30 6 18 8 13h3v-13l-2-13-4-10 3 1-2-28-1-23-2-23-2-6h-2l1-14-2-4zm110 5-2 2 1 5 17-1v2h-9l-12 4-12 11-3 4-1 7 3 3 6-2 7-7h2l-6 8-2 3v9l2 2 5-1 2-4h2l1-1-4 6-1 7 3 3h6l5-6 1 1-4 5-1 5 3 4h7l11-7 17-3 8-3 5-3 20-1 1-4-6-16-3-7-10-12-13-1-21-9-14-3zm-6 6-2 3 4-1zm-69 18-2 2 2 21 3-1 3-15-1-4-3-3zm61 26-3 8-6 31-3 32-2 20-4 22-3 19-3 22v9l5 5 19 8 13 4 42 10 18 2h41l21-2 29-6 12-3 9-2 17-6 13-6 1-1v-8l-5-27-9-35-4-23-4-1-8 9-7 8-14 10-11 6v2l-11 3-13 4-8-1-10-5-15-15-8-10-13-22-9-20-3-7-4-20-1-1h-18l-10 7h-8l-6-7-6-3-5-8-3-2zm-17 65-8 7-17 8-9 4-2 4 5 52 3 28 2 26 2 20 1 17 5 47 2 25h3l5-5 10-4 10-6v-2l5-2 9-5 8-7 1-3-1-7-6-4-2-9-9-8-9-7-6-11v-17l3-26-1-5-11-7-3-2v-17l5-26 5-32 2-17v-8zm8 113-3 24v23l6 7 5 5 11 8 8 3-5 1v6l4 3 6 2h33l7-3 1-7-1-1h-7l8-2 10-5 10-8 2-3v-27l-2-7-8-2-37-5-42-12zm206 0-39 11-14 2-34 4-4 2 2 18 3 14 4 6 11 8 13 6 14 3h-11l-1 5 2 3 8 2h20l14-2 6-3 1-8-3-1-8 2-1-1 6-1 12-6 4-5 5-5 4-7 1-3v-13l-6-25-2-5-1-1zm-176 85-2 6-3 8-10 7-18 10-6 5-1 3-4 3 1 4 5-4h2l-4 4 1 4 2-1 2-4 11-2-1 5-2 1-1-4h-3l-3 4 1 5 3 2h10l4-2 12-1 15-8 19-3 6-4 3-4-1-13-3-20-1-1zm156 1-25 2-2 5-1 9 1 3v19l1 1 2 17 5 5 2 4 4 2h8l6-4v-2l2-1 1 4h6l3-4v-1l2 3 5-1 1-5v-2l2 5 4-1 1-4 5 1 1-2-3-6-12-16-6-9-4-13-1-7-2-2z"/><path transform="translate(368,176)" d="m0 0h2l8 19 1 6-3-1-8-20z"/><path transform="translate(540,191)" d="m0 0 6 1 4 5 6 9 8 14v7l-4 2-11-7h-1l-2 19v16l3 4v10l-4 2-7-4-12 2-1-1v-8l4-10 2-29-10 3-4-1-1-3 2-7 12-13 9-9zm1 3-11 11-12 16 2 2 9-3 6-1-2 16-1 17v3l-4 5v7l9-1 5 3 4-1v-6l-4-6-3-2 3-5 3-26 1-3 5 1 8 4 3-1-5-12-3-2-4-9-4-6z"/><path transform="translate(371,223)" d="m0 0h2v7l-4 12-7 19h-3l2-8 7-18z"/><path transform="translate(327,230)" d="m0 0 3 1 7 16 7 12 1 4h-3l-12-22-3-7z"/><path transform="translate(476,275)" d="m0 0h8l12 2 8 5 3 3-1 3-14-6-11-2-12 1-9 2 2-4 7-3z"/><path transform="translate(592,276)" d="m0 0h18l9 3 3 3v2l-14-3h-14l-8 2-12 5h-3l2-4 6-5 6-2z"/><path transform="translate(488,300)" d="m0 0 9 3 8 7v2l-4-2-10-7-4-2z"/><path transform="translate(585,302)" d="m0 0h2v2l-11 6-5 4-1-2 5-5z"/><path transform="translate(473,304)" d="m0 0h10l12 5 8 6 4 6-1 4-3 1-13-9-9-3h-10l-10 5-4-1-1-4 5-5 8-4z"/><path transform="translate(597,306)" d="m0 0 13 1 11 6 3 4-1 7-5-1-10-5-11-1-10 2-10 5-4 3-4-1-1-3 6-7 6-5 12-4z"/><path transform="translate(682,317)" d="m0 0h9l1 4-9 1-6 6 3 9 1 1-1 10-3 1v-11l-2-3-4 1-2 2h-3l1-7 5-6 7-6z"/><path transform="translate(519,330)" d="m0 0h2l-1 4-2 4v5l-3 1v-9z"/><path transform="translate(552,366)" d="m0 0h2v3l-11 4-4 1h-14l-8-3 1-3 7 1h13z"/><path transform="translate(496,449)" d="m0 0 2 4 9 27h-2l-7-17-3-11z"/><path transform="translate(360,541)" d="m0 0h2l1 35 6 30-1 3-4-11-4-21z"/><path transform="translate(530,600)" d="m0 0 3 4 8 18 7 10v2h2l4 6v2l4 2 3 1-1-5h2l2 10-5-2-8-7-7-9v-2h-2l-13-28z"/><path transform="translate(485,647)" d="m0 0 3 1 7 15 3 9 8 15 7 14 4 5-1 4-10-14-10-19-11-28z"/><path transform="translate(620,886)" d="m0 0h6v2h-4v2l7-1-1 3-9 1-2-3z"/></svg>
