<?xml version="1.0" encoding="UTF-8"?>
<svg version="1.1" viewBox="0 0 1024 1024" xmlns="http://www.w3.org/2000/svg"><path transform="translate(745,193)" d="m0 0h9l10 4 8 7 8 10 12 22 8 25 3 15 1 11-1 21-4 18-5 16-5 12-12 23-3 4 1 4 8 7 11 14 8 13 10 23 5 16 3 12 9 8 7 10 2 6-4 2 2 6v8l-5 1v8l-3 7-6 2-4 5 1 4 6 8 3 8v20l-4 10-6 8-8 7 6 7 8 9 4 7 3 10v12l-4 11-6 7-10 6-9 1-1 103 9 3 9 6 5 8 1 9v4l8 5 2 2v6l-6 5-13 4-13 2h-23l-19-3-11-4-4-4v-7l1-3-11-4-6-6v-13l1-15-2-19-3-9h-20l-6 10-5 14-1 5-1 25-3 8-6 5-16 7-11 3-6 1h-25l-14-4-5-4v-2h-2l-1-3v-8l6-10 10-8 11-4 5-2-4-17-3-19-1-10v-12h-9l-9-4-10-9-6-12-1-5v-9l2-3 3-2v-11l4-10 3-4h7l10 3-5-15v-8l4-14 9-14 11-12 10-9 9-6h2v-2l-13-3-16-7-4 6-8 5h-11l-7-3-8 7-12 10-8 5-4 2-8-1-5-1h-10l-7 3-1 12-4 9-7 9-7 7-13 8-16 5h-16l-10-3 4 18 4 28h8l12-3 8-4 7-5 5 1v6l-1 2 12-5 14-10 11-11 10-16 4 1 5 8 4 13v19l-1 5 4 1 1 1-1 9-4 11-9 13-4 5h4l-1 7-7 6-16 8-5 2-13 2 2 3-1 4-4 2h-20l-15-4-11-5-1 4-6 21-1 4 19 2 10 3 10 6 6 8 3 8-1 7-5 5-11 4-9 2-19 1-23-2-25-5-10-3-5-5-1-2-1-28-2-12-4-9-7-12-30 1-9 15-5 15-1 28-3 6-8 5-16 5-17 3-10 1h-18l-14-2-8-3-6-4-3-4v-8l5-10 4-2 2-4 10-5 11-2 7-1-3-10v-3h-9l-14-5-10-6-5-5-8-7-12-19-10-23-3-9-4-20v-18l4-16 6-11 9-10 8-6 2-12 6-12 7-9 8-8 15-11 19-11-10-4-20-7-6-3-26-7-6-4-1-5 3-5-7-1-9-5-2-2 1-5 6-4 1-2-7-1-5-3-1-4 9-9 6-5 3-4h2l5-25 5-23 4-16-1-7-8-23-4-14-1-9-4-24-1-10v-27l3-20 4-14 8-7 6-1 14 5 4 2v2l5 2 13 9 14 12 13 13 9 11 5 6v2l8-4 9-10 8-7 6-4 5-2h7l1 4-4 7 12-5 5-1h14l9 3 1 4-6 5v1h7l13-23 4-6h2l2-5 9-11 11-12 9-8 13-9h11l6 5 6 12 5 17 4 24 1 11v26l-3 23-3 16-1 7 13 28 6 15 8 16 10 6 10 5 3 3v5l-6 6h-2v2l10 2-1 6-9 10-4 4 6 1 1 5-8 8-30 19-12 9-11 8-11 6-17 8 1 3 12 8 16 13 15 11 15-5 2-9 4-6 3-3 8-1 5 4 1 4 6-1 12-5 2-6 3-7 2-2 6-1 1-2-4-2-1-7 4-4 6-1 6 3 1 7-3 5 13-2v-2l-4-2-1-1v-6l5-4 5-1 5 3 2 2v5l-2 4 11-2-4-4v-7l1-3v-8l2-5-4-1v-6l4-6 8-10 7-29 4-15 8-21 8-15 4-5-1-5-11-14-7-10v-2h-2l-9-16-10-19-7-18-4-17-3-20v-28l3-17 6-17 7-8 6-3h11l10 5 11 11 8 12 4 7 10 18 12 32 7 29 3 15 2 19v13l2-3 6-8 4-5 3-2h5l2 2v5l9-4 11-1 3-1v-117l3-15 3-9 7-10zm0 3-6 4-4 5-5 14-3 19v113l1 5-1 1v6l7 4 8 1 2-6 3-25v-74l2-16 5-7 6-1 8 6 8 15 5 14 3 18v28l-4 21-7 17-9 17v3l2 2 5-1 11-18 8-18 4-12 5-22 1-10v-17l-3-18-5-18-11-24-9-12-7-8-8-5-3-1zm-144 11-7 6-6 10-2 8-3 16v33l4 25 6 18 5 11 6 12 12 20 9 13 7 8 4 5 4-1 4-4-3-6h-2l-2-5-8-13-8-14-9-21-4-16-3-18v-22l3-14 4-8 2-1h6l9 7 10 18 4 8 9 27 3 13 6 35 2 16 2 1 10-5 1-1-1-21-4-26-6-26-10-28-16-32-8-12-5-5-5-6-6-4-5-1zm-139 25-9 4-11 8-10 9-12 14-17 26-6 12 5 3 14 4h4l4-15 4-12 11-20 11-13 8-5h6l5 5 4 12 3 16 1 10v21l-2 18-5 22 1 5 5 8h3l4-16 2-20v-32l-2-21-5-20-7-18-4-4zm293 10-4 9-2 11v72l-2 25-1 11 12 5 4-2 8-14 5-13 5-14 2-10v-31l-4-18-5-13-6-12-6-6zm-296 7-9 7-6 8-4 4-12 23-3 11-2 8 1 5 9 6 11 7 3 3 3-1-1-8 2-3-1-4-7 1 3-15-3-2-5 5-3 4h-2l2-5 6-5 5-1 2 2v7l-1 6 6 1 1 1-1 7-1 3v7l-1 3 7 6 7 8h3l3-9 3-24v-30l-3-21-4-10-5-5zm157 2-5 5-2 6-1 8v27l2 15 8 24 4 9 7 13 9 15 8 11 5-2 9-6-2-22-4-27-6-22-6-18-10-21-8-11-6-4zm-388 2-5 6-4 11-2 18v33l3 27 5 21 8 25 1 2h2l7-15-1-6-5-10-6-18-5-28-1-12v-14l2-15 4-8 2-2h8l9 5 10 8 9 10 7 10 9 15 4 9 5-1 14-8 1-2-7-8-9-10-7-8-13-12-10-8-10-7-16-8zm7 17-5 5-2 14v24l3 25 6 20 6 15h4l10-16-1-4-2-2v-7l1-4-1-2v-7l7-2-2-7v-6l1-1 7 1 7 6 1 2-7-4-4-3-3 1 1 6 3 10-8-1-1 4 3 3v4l-4 4 4 4 4-2 5-6 8-7 11-9-5-12-9-16-5-5-9-11-11-9-8-5zm113 19-10 6-10 9-8 9-15 8-11 6-12 8-12 11-10 11-7 11-12 22-10 30-3 17-5 25 2 1 18-5 19-3 1-4v-20l3-20 4-9 6-10 5-5 5-4 7-3 3-1h15l11 4 10 8 8 9 7 12h2l2 6 11 24 3 6 3 1 17-3h14l1-1 4-28 4-14 6-16 6-10 5-5 4-3 9-3 10 1 9 4h2l2 4 4 5h2l2 5 7 17 5 19 2 10 14-2 5-1-1-5-12-29-10-21-8-12-11-14-13-13-16-12-19-9-16-4-17-2-2 1v3l9 4 6 4 5 6 3 8h-21l-9-1-1-2 15 1h11v-4l-7-8-10-5-7-2 6-7 10-6v-3l-3-1h-18l-12 4-6 4-2-1 2-7 2-3v-3zm347 62-6 5-6 11-4 4-13 5-15 9-13 12-7 10-7 12-12 36-5 22 1 3 15-4 9-1h17l10 1 1-2-2-6v-9l4 2h6v-6l-2-3-3-2 4-2h9l4 2 4 8 1 3v7l-4 10-1 4 6 3h6l9-6 16-5h15l13 4 8 5 4-2 5-2-1-4-4-8-1-10v-3l5 4 4-1 1-1v-6l-5-3v-2l7-3 7 2 5 6 2 7v14l14-2h19l-1-8-5-16-5-15-11-20-7-9-8-9-8-7-7-5-18-8-7-1-2 7-8 1 2 7v5h-8l-7-3-5-3h3l10 4h4l-1-6-4-5-2-1v-2l14 1 1-4-6-5-9-3h-7l2-5 6-2 3-3-1-1h-11l-10 4-6 6h-2l1-5 2-7zm-259 17-8 4-4 4v2l-3 1-6 11-7 21-5 24v11l7 3 9 3 7 2 8-4-6-8-2-6-1-11 5 3 5-1 1-1v-6l-6-3 1-3 9-3 7 3 4 5 3 7v9l-1 5 6-1 19-6 2-3-4-18-5-17-7-13-8-9-7-4-4-1zm-137 12-9 3-11 9-8 13-5 15-1 7v26l1 1 20 1 17 1-2-7-1-12 5 3h5l1-1v-7l-2-2-4-2 4-3 7-1 7 3 4 5 3 8v7l-3 9-2 5 7 2h8l15-9 7-4-3-9-5-13-10-18-7-10h-2l-2-5-6-5h-2l-1-3-12-6-5-1zm200 51-19 4-17 5-36 16-4 1-12-6-8-2h-28l-15 5-14 8-6 4-10-1-21-5-18-2h-34l-15 2-15 5-6 3-7 9-7 7-4 3 1 3 5 2 9 2-5 5-6 4 1 3 10 5 12 3-3 3-5 2 1 4 16 6 11 2 25 10 30 9 8 2 33 4h36l25-5 20-7 7-3 16-8 15-8 12-8 7-5v-2l4-2 15-9 13-8 7-6v-2l-10-2v-2l12-9 5-6-1-4-11-1v-3l10-8v-4l-17-8-3-1-2-4zm289 41-18 6-13 6h-6l-11-5-6-2h-19l-16 6-8 5-6-1-14-5-19-4h-24l-21 5-7 7-6 9 1 3 5-1-4 10v4l5-1 1 5 4 3 1 9 12 2 8 5 4 6 1 7 8 5 11 5 9 3 27 5 9 1h27l23-3 5-1 2-13 4-10 6-8 9-6 11-4h12l13 4 5 3 3-1 6-10 5 1 1-2v-10l-1-6 5 2-1-7-3-5-1-4 5 1-1-4-9-10-6-5zm-190 49-4 3 1 5h7l2-2-1-5zm-24 4-2 2 1 5 6 1 3-3-1-4-1-1zm-21 3-2 1v5l1 1h6l3-3-1-3zm229 0-9 3-10 9-4 5-4 11 4 4 7 3 15 2h19l11-1 12-4 2-2-1-5-6-12-7-7-9-5-4-1zm-182 3m6 4-31 5-25 3-5 2-4 12 1 3 5-1 6-4v-6l3-3 6 1 1 6-4 3-7 2-8 5v2l9-2 17-8 5-3 1-7 1-1h5l2 2-1 6-22 9-12 5-3 1 1 4 6-2 21-9 16-7 6-3 1-8 6-1h2v7l-1 2-13 4-10 5-13 5-15 7-5 3 2 6 2 2 15 4 5-1 14-10 12-11 6-2 9 3 10-1 6-7 1-8-3-7-5-5-5-2zm-6 8-2 4 4 1 1-4zm-172 3-12 5-5 2 2 4 9 14 5 10 7 16 2 1 10-4 1-3-8-18h2l6 12 2 6 6-1 19-7 4-4-10-7-14-11-11-9-10-6zm150 0-1 4 4 1 1-4zm-21 3v4l4-2-1-2zm-266 2-14 7-11 8-10 8-9 8-7 10-5 10-1 8 3 12 6 11 8 10 14 14 6 11h2l2 4 5 6 9 5 4 1h7l-1-3-7-4-2-4 7 4 7 3h8l5-2 4-6-7-3-10-5v-2l5 2 5 3h9v-8l-4-7-9-9-1-2 7 4h4l1-5-6-5-22-6-12-24-2-6h2l4 6 7-6 8-6-3 5-5 4v2h20l5-12 8-20 5-8v-2h2l1-5-19-3-15-3zm114 3-18 4-8 1h-27l-15-1-7 10-8 16-5 15v4l9-2 10-5 15-13 12-10 11-7 17-5h10l10 4 4 5 1 6-3 6v2l-5 2-11 7-6 8-1 4v9l3 1 21-8 16-7 1-4-8-19-8-13-7-9zm105 3-5 2-3 6v5l2 1 14-7-2-5zm25 4-16 6-27 11-10 4-9 4-11 4-35 14-12 5-13 5-27 11-5 3 4 1 17-7 13-5 44-18 13-5 30-12 14-6 11-4 12-5 11-5zm220 1v5l7 4 18 4h20l15-3 9-4 1-5-10 2-9 2-18 1-18-2-13-4zm-369 2-12 5-11 7-10 9-8 7-9 7-11 5-7 2-30 1-1 1 1 8 7 10 6 3 12 3 8 4 2 4-1 8 10-3 12-4 11-5 12-5 1-5 8-4 11-4v-13l4-9 5-6 14-9 4-5-1-6-6-5-2-1zm151 1-14 6v2l3 1 14-6v-3zm130 4-12 8-13 11-9 10-7 11v2h-2l-3 10v16l6 10 5 6 10 7h2l3 9 4 6 6 5 3 1h8l-8-8-1-3 10 8 2 1h6l7-6v-3l-7-3-7-6 1-2 8 7 2 1h6l1-1v-8l-10-15 5 3 5 1 2-2-1-5-5-4-13-4-11-11-7-5h3l5 3 4-1 7-8v3l-6 7 1 5 6 5 7 1 7-21 7-13 7-8 14-7 12-1 10 2 11 6 7 7 8 14 6 19 2 12h1l2-9v-12l-3-22-11-10-7-14-2-5-13 2-19 2h-17l-26-3zm-127 1-10 5 1 2 11-3v-4zm216 2 3 10 1 2h2l2 4 8 7 6 3 13 1 12-2 10-6 6-7 5-10-4-1-13 3-10 1h-13l-20-3-5-2zm-213 3-8 4 1 3 6-2 3-2-1-3zm-25 0-3 1 2 4 6 7h2l1 9-2-2-4-8-6-5-5-2-6 1-6 5-1 3 10 8 3 6-1 4-4-8-6-5-4-1-4 5-1 2v9l4 9-1 2-5-7-23 9-2 3 3 8 10 4 14 1 12-3 9-3 10-7 9-8 7-14 1-9-2-7-8-9-4-2zm27 6-7 3v2l6-1 3-3zm-54 3-20 8-12 5-7 2-11 5-12 5-14 5-11 5-11 4-15 6-6 3 1 3 11-3 21-9 21-8 8-4 14-5 19-8 18-7 9-5 1-2zm226 0-11 4-5 5-8 9-5 12-5 16 2 4 5 4 2 4v5l-4 4 2 6v11l-6 9-3 3 2 9 8 11 9 7 9 4 11 2 13-1 10-3 6-3v-2l4-2 5-4 6-10 4-12 1-6v-26l-4-21-8-20-7-8-5-6-13-5zm-231 8-11 5-14 5-11 5-25 10-18 7-19 8-13 5v4h3l35-14 11-5 12-4 8-4 28-11 8-4 7-3 1-4zm-3 8-21 9-13 5-14 6-13 5-16 7-14 5-15 7 1 3 6-1 12-5 16-7 13-5 36-15 10-4 14-6 1-4zm293 0-1 1 1 14 1 7 4-1 10-5 11-2 2-3v-10l-3-1-4 1h-15zm31 3-1 11 8 4v2l-7-2h-15l-9 5-5 6-1 4h17l1 2h-13l-5 2-2 2 1 8 4 2 13 1 2 2h-16l1 4 7 6 9 3h7l10-3 6-4 6-7 3-9v-11l-4-10-10-13-5-5zm-324 4-24 10-20 8-16 7-13 5-13 6-16 6v4l19-8 13-5 13-6 10-4 18-8 14-5 14-6 4-2v-2zm-27 17-12 6 2 16v14l-3 16-8 17-7 8-10 7-8 4-17 4-9 1-21-1-7-1-10 11-9 11-12 11-15 10-11 5-17 4-1 2 5 12 12 2 3 3-16-3-14 1-13 5-9 8-4 9 1 7 3 3h4l2-10 6-9 4-3 5-1v2l-5 2-7 8-2 5v7l2 2 9 2h7l1-1 2-11 4-6 5-4 2 1-7 6-4 10 1 5h18l19-3 16-4 9-6 1-2 1-20 3-16 3-9 7-13v-4l-8-2v-1l11 1h29l22-5 1 1-10 4-6 2 8 16 4 16 1 6 1 25 4 4 8 3 16 3 23 3h22l3-2-2-9-5-5-7-5 3-1 8 6 6 15 13-2 3-2-1-9-6-9-9-6 5 1 7 4 6 12 1 5 3-3v-7l-6-10-10-7-13-4h-25l-6 1 3-2 9-3 4-13 5-21 2-14v-46l-4-27-8-32zm-18 8-12 5-14 6-10 4-6 3-2 2 1 9 5 6 11 4h23l6 6 3-12v-24l-2-9zm-73 2-22 9-16 6-4 2 2 4 7-2 11-5 25-10v-4zm2 6-36 15-5 2 1 4 10-3 10-4 24-10 1-3zm195 3-7 11-9 11-12 9-6 4-3 11-3 6v3l10-1 9-2-1 11-5 9 3 1 4-1h7l1 3-3 5v2h6l8-8 9-14 4-8 1-6-4 1-4 2 1-5 3-12v-10l-2-10-5-12zm-191 3-19 8-20 8-6 4v3l11-3 20-9 9-3 8-4v-4zm237 1-6 9-1 5v7l2 9-6-2v10l3 9 6 8 9 6 3 1h8l1-1 2-27 4-20-1-4-6-6-12-2zm164 0-1 2h2zm-542-32-5 5-8 9v2h-2l-6 12-2 9v28l6 20 9 21 11 18 11 12 12 8 12 4 7 1h8l10-2 12-4 11-7 11-9 15-15 9-11 9-8 8-4 4-1 33-2 12-3 10-5 6-5 3-5v-6l-4-4-17 1-11-2-8-6-3-1-1-7v-3-2l-6 1-7 1-4-3-15 6-19 8-17 7-7 8v8l-18 7-4-1-3-6-3-1-9 4 1 5 1 6-3 3-6 2-5-3-5-13-6-15-3-7-1-8 9-3 1-2-6-4-12-12-8-13-5-13zm542 36-2 26-4 12-7 11-9 8-8 4-11 2h-15l-13-3-8-4-8-7-5-8-4-9-3-1-6 2h-8l-7-3-7-6-5-11-5-3-2 2-3 12-1 11v31l1 19 4 21 4 14 1 1 13 2 2 3-12-2-12 1-12 5-6 4-4 5-2 5v9l5 4 1-1 2-10 5-8 6-4 2 1-9 8-3 9v6l6 3 11 1 5-15 5-5 4-2-8 11-1 2v8l1 1 15-1 16-5 10-4 7-6 2-4 1-29 4-14 6-10-1-4h-3v-2l9 1h14l15-3 16-6-5 5-11 4-5 1 4 20v37l4 4 15 5 10-3 15-3 2-2v-20l-1-1-10 1 1-2 9-3 1-1v-108l-6-9zm-510 11-6 3 1 6 8 20 5 12 2 2 6-1 1-5-6-16-7-16-2-5zm522 2-1 1v137l3 3h9l2-2v-135l-7-2zm-275 12-15 8-8 2-10 1-1 1-1 39-2 16 6 5 20 6 7 1h11l3-1v-2l-7-4v-1l15-2 12-3 15-8 6-5v-2l-12 1-6 1 5-11-3-1-9 2h-5l6-11 3-8-5-1-6 1h-10l1-5 5-9v-5h-4l-7 3h-5l2-4 1-4zm-234 3 1 4h2l-1-4zm6 4-4 3 2 4 7-3-1-3zm29 0-15 5 2 5 6-1 11-5-1-4zm114 15-7 3-13 2-30 2-10 4-4 4 5 1h26l12-2 12-5 11-8zm378 76-2 4v16l2 2 13 2 1-3-5-8-5-4h-2v-2l8 3 5 8 2 6h2v-8l-4-6-8-7zm-26 25-17 4-9 4-2 5 5 4 16 4 7 1h29l16-3 9-4 2-4-6-5-16-5-9-1-1 1v5l-5 2h-9l-5-1-2-7z"/><path transform="translate(436,376)" d="m0 0 10 2 6 4 3 5-3 1-10-4-10-2v-4z"/><path transform="translate(304,388)" d="m0 0 6 1 1 4-12 5-7 5-4-1 4-8 8-5z"/><path transform="translate(765,407)" d="m0 0h8l8 5 3 4v3l-10-4-9-2-1-5z"/><path transform="translate(663,412)" d="m0 0h7l1 4-5 3-10 4-4 3h-2l1-5 5-6z"/><path transform="translate(382,452)" d="m0 0h15l9 3 6 5 1 2v7l-6 10-9 8-6 4v10l4 3 3 1h16l8-4 6-7 5-12-2-2v-3l5-1 6 3 1 4-6-1-1 6-6 10-7 7-4 2-9 21-3 1-2 4-8 7-10 3h-15l-10-3-6-4-12-11-10-12-9-16v-2l-5 3h-2l1-5 6-4h5v3 4l9 8 11 5 9 2h7l13-4 7-5 1-3v-7l-10-4-12-6-7-8-1-8 4-6 12-6zm-1 5-7 3 1 3h16l6-2v-3l-2-1zm7 48-8 6-10 3h-14l-12-4-7-4v3l9 13 3 3 5-1 8-3h9l8 1 6-1 10 3 7 5 4-1 5-8 4-9-2-2-13-1-9-3zm-28 19-6 3 1 4 14 8 7 2h9l11-4 5-3v-3l-9-6-3-1h-8v2l5 5-5-3-8-4z"/><path transform="translate(718,481)" d="m0 0h14l9 3 2 2v7l-2 3h-2l-2 4-5 4-4 3v8l6 3h12l7-3 5-6 1-6v-3l6 1 4 3v3h-5l-7 10-7 5-4 9-6 9-8 6-6 2h-12l-8-4-7-6-9-14-3-6-5-6v-2l-5 3-1-4 5-4h6v2h-2l3 5 6 5 8 3h10l8-3 4-5v-5l-12-7-5-6-1-6 5-5zm4 2-5 3 1 2h10l4-2-3-3zm5 36-1 1-1 5-1-5-10 3-1 2 5 8h11l5-5 1-5zm-33 2-1 2 5 8 12-2v-4l-1-1-12-2zm44 2-3 9-2 4 4 2 9-13v-2zm-33 9-3 2 2 5 6 4 6 2h8l9-4-5-5h-8l-8-4z"/></svg>
