<?xml version="1.0" encoding="UTF-8"?>
<svg version="1.1" viewBox="0 0 1024 1024" xmlns="http://www.w3.org/2000/svg"><path transform="translate(724,219)" d="m0 0h14l8 4 4 5 6 5 6 10 8 14 5 17 3 9 3 17v16l-2 15-4 15-4 12-4 9-13 26 5 6 5 5 7 9 11 18 6 16 4 11 4 15 10 10 5 8 1 4-3 1 1 5v8l-4 3-2 12-5 3-4 3 1 7 5 6 2 6v20l-5 10-9 10-1 4 11 12 5 8 1 6v17l-3 7-8 8-6 4-9 1v93l11 6 6 5 3 5 2 13 8 5v7l-6 5-14 4-6 1h-28l-16-3-10-4-2-2v-11l-9-3-5-5-1-38-3-13-19-1-2 5-4 8-4 12-1 26-3 6-5 5-20 8-9 2h-27l-12-4-6-6v-11l5-8 8-7 14-6-1-9-2-9-1-12-2-22-9-1-10-6-7-7-5-10v-14l3-3 1-12 5-10 2-2h7l7 2-3-10v-15l4-11h2l2-5 7-9 15-15 9-6-4-2-12-4-5-3-5 1-4 5-5 3h-11l-7-2-12 11-14 9-7 1-5-1h-13l-5 1v8l-2 7-6 10-9 10-14 8-12 4h-18l-6-2 1 9 3 15 2 14 1 2h8l12-3 9-6 1-1h5l1 1v6l10-4 12-8 7-8 5-5 7-11 4-1 4 5 5 13v23l4 3-1 10-4 9-9 13v3l1 4-7 8-16 8-13 3-1 2-1 5-2 1h-22l-12-3-7-3h-3l-4 16-1 8 20 3 12 6 7 8 3 7-1 9-6 5-10 3-13 2h-18l-18-2-15-3-13-3-6-6-2-29-2-10-9-18h-11l-17 1-7 12-5 14-2 28-3 5-8 5-9 2-16 4-8 1h-26l-13-3-9-6-2-2v-11l4-6 5-5 5-4 7-3 13-2-1-7-1-3-9-1-14-6-10-7-10-10-6-10v-2h-2l-3-5-5-13-5-11-4-20v-21l2-12 5-9 9-10 8-7 2-12 7-12 8-10 7-6 14-10 12-7 1-2-9-3-16-5-8-4-21-5-7-5v-9l-9-3-5-3 1-6 5-6-8-1-3-3 1-5 7-7 8-7 2-2 8-37 4-17v-10l-11-32-2-18-3-18v-34l3-17 3-11 7-6 8-1 10 4 16 10 13 10 13 12 10 11 7 9 3 1 6-4 8-9 8-6 6-4h8l2 4-2 5 10-4h19l6 3v4l-4 5 5-1 11-19 5-7 2-1 3-6 9-11 15-15 12-8h13l5 5 6 11 5 23 3 18v35l-6 35 1 5 8 16 11 26 4 8 12 8 9 5v7l-5 5 6 3 1 3-2 5-8 9-1 2 4 1 1 5-7 7-15 9-9 6-17 12-10 7-19 10-3 1v3l2 1v2l5 2 10 8 13 10 7 5 8-1 6-3 4-9 4-6 10-1 5 6 8-2 8-4 5-12 7-1v-3l-3-1-1-7 3-3 8-1 5 5v5 3l8-2-4-3v-7l7-4 5 1 4 3v8l6-1-1-2v-9l1-13-2-1v-7l8-11 3-5 3-13 4-17 6-18 7-16 7-12-2-7-13-17-7-10-9-17-5-10-6-14-5-21-1-12v-32l2-14 6-15 8-8 3-1h12l10 5 8 8 10 15 3 6 9 16 3 9 5 13 3 9 4 17 5 24 2 22 9-10 3-3h6l1 1v5l6-3 14-2 1-110 4-16 5-10 6-5zm2 2-9 8-4 11-3 17v118l7 4 5 1 3-4 3-22 1-76 2-11 3-4 7-1 7 6 8 16 2 7 3 15v32l-3 18-6 13-8 16 1 5 3 1 5-5 7-12 8-17 4-13 4-17 1-7v-21l-4-21-4-13-10-21-9-12-7-7-8-4zm-132 10-7 6-6 11-4 18v35l4 22 7 20 9 17 3 6 15 23 11 13 5-2 2-5-3-4h-2l-1-5-10-17-6-10-8-22-4-18v-34l3-9 3-5h7l8 7 5 9 7 13 10 31 6 35 3 18 7-1 5-4-1-21-5-28-3-16-10-27-17-34h-2l-2-5-9-10-7-6-2-1zm-129 23-9 5-12 9-10 10-8 10-7 11v2h-2l-9 16-1 5 5 3 11 3 4-1 3-8 6-17 7-14 9-11 5-5 5-3h7l3 4 5 17 2 12v30l-3 18-3 12 1 6 5 8 4-2 4-27v-37l-2-18-3-14-5-14-5-8-4-2zm270 10-4 11-1 4-1 76-2 26 8 4h6l6-9 7-16 5-13 1-7v-36l-3-13-8-18-4-6-4-3zm-272 6-9 7-10 13-10 20-4 15 1 6 21 14h3v-9l1-4-4-1-3-1 2-12h-4l-7 6 3-5 5-4h4l1 12 5 3-2 18 13 13 4-2 4-25v-34l-4-20-3-7-4-3zm145 2-6 6-2 8v31l3 15 6 18 8 16 7 13 8 11 2 3 6-1 7-4 1-1-1-15-3-27-7-25-4-13-9-19-7-11-6-5zm-357 2-5 5-4 10-1 13v37l2 24 10 35 3 7 4-2 5-11-2-9-5-10-4-11-2-14-3-18v-23l2-11 3-6v-2l11 1 11 7 6 5 8 10 9 14 6 11 4 4 14-7 2-4-14-15-7-8-9-9-14-11-8-6-13-6zm6 15-4 4-2 12v28l2 19 6 19 5 12 4 1 6-8 3-5-1-7v-11l-1-8 5-1 1-2-1-3v-7l8 1 3 3h2v2l-9-5-3 1 3 13h-5l-3 4 2 2v6l-2 3 2 2 5-1 5-5v-2l4-2 12-10-1-7-7-14-6-8-9-11-11-10-8-5zm103 18-11 7-15 15-27 15-6 4v2l-4 2-15 15-6 8-11 20-5 12-7 21-5 27-1 5v7l16-4 11-2 7-1 2-2v-24h2v24l1 1 11 1 2-2v-16l2-9 6-8 6-4 3-1h11l8 4 6 8 3 9v15l-2 9 4 2h9l9-6 9-5-1-8-6-16-8-13-6-9-3-2-3-5-6-4-4-4-5-3 7 2 9 7 8 10 5 9 2 1 12 28 5 5 6-1v2l-9 2-16 8-6 4-11-1-16-4-14-2h-39l-14 3-15 6-12 14-5 4 2 4 10 3-5 5-3 2 2 4 9 5 8 1-1 3-4 2 1 5 17 6 10 2 22 9 15 4 17 5 22 3h48l18-4 20-7 16-8 21-11 9-7 7-6 16-9 14-10 3-4-2-2-6-1-1-2 4-2 11-10 1-3-2-2-9-2 4-5 5-4-1-4-18-9-3-3-11 1-23 6-22 9-12 6-8 1-15-6h-27v-2l21-1 2-4 4-25 4-15 8-16 4-6 5-4 7-2 8-1-2 1-10 2-8 7-4 5-5 11-6 18-3 17v13l17 6h6l2-2-1-4-4-8-2-9 1-11 5-10 7-4 8-1 9 3 6 5 5 10 2 13 2 1 7-3v-7l-6-22-5-12-4-6-10-10 6 2 6 8 2 1 4 10 5 14 3 13 2 7 1 1 13-1 4-2-3-9-8-21-11-22-12-16-9-10-11-11-13-9-18-8-16-4-13-1-1 4 14 8 6 10 1 2-19-1h13l1-5-6-7-11-5-3-1 2-4 8-6 3-2-1-4h-19l-12 5-5 2 2-7 1-4zm319 57-6 7-5 8v2l-6 2-16 8-11 8-9 9-12 20-12 38-3 14 2 2 7-1 9-2h27l16 4 12 4h6l11-6 10-3h17l10 3 5 3 10-1 9-5 13-4 6-1 21-1 1-2-3-12-5-14-3-10-6-10-7-11-12-13-9-8-19-9-6-1-2 2-1 4-6 2v9l-1 1h-7l-6-3-1-2 8 4 5-1-2-7-4-4h11l1-5-6-4-12-3 2-4 6-3v-2h-11l-8 3-7 5 2-9zm-234 48-6 3-4 5 1 2 6-2 7 1 5 3 5 8 1 12 3 1 7-3v-11l-3-8-8-9-5-2zm-125 10-8 3-6 5-5 10-1 5 1 13 3 2h10v-16l2-5 3 5 3 2 5-1v-6l-3-3-4-1 5-4h12l-3-5-5-3zm113 4-1 4 3 4h6l1-1v-5l-2-2zm332 49-22 8-4 2h-8l-10-4-4-1h-20l-9 3-8 4-2 2-9-1-10-4-16-3h-26l-15 3-8 7-6 7 1 5 3 1-3 6v4l5 2 1 3 2 1 3 9 13 4 5 3 3 6 2 7 16 8 13 4 15 3 10 1h32l20-2 3-2 4-15 3-7 7-8 13-6h15l12 4 5 1 6-9h5l1-1v-12l-1-3 3 1 1-3-4-11h3l-1-5-12-12zm-174 45-4 4 3 4h5l2-5-3-3zm-22 4-2 4 4 3 5-1v-5l-1-1zm-20 3-1 5 1 1h5l3-4-5-2zm210 0-9 4-11 11-3 7 1 5 3 3 10 3 7 1h23l11-2 8-4 1-3-8-16-9-7-6-2zm-163 6-37 6-15 2-3 4-2 10 3 1 8-5 2-7 6 1v5l-9 4-8 5 3 2 12-5 14-7 2-7h5l-1 7-25 10-7 4 1 3 14-5h2l-12 5-3 2 1 7 7 3 7 2 6-1 11-7 12-11 5-2 6 1 7 1 7-2 5-6 1-8-5-8-7-4zm-162 10-9 4-5 2 1 5 8 13 12 24 9-3 2-1-1-5-5-13h2l1 5 5 10 3 1 18-7 5-5-18-13-5-5-12-9-5-3zm139 1v3l3-1-1-2zm-19 2-1 3h3l-1-3zm-246 2-14 7-16 12-13 13-6 10-2 4-1 10 4 12 6 10 11 12 7 7 1 2h2l2 7 4 2 2 5 7 6 7 3h7v-3l-6-4h2l9 4h8l5-4 1-4-13-7-1-2 9 5h7l1-1v-8l-6-8-4-5 7 1 1-5-6-5-18-4-10-18-4-10h2l2 4h4l8-7-4 5 1 3h17l6-13 8-20 5-8-1-3-2-1-17-2-9-2zm103 3-17 3h-43l-7 10-8 16-3 11v4l9-1 11-7 12-11 15-11 12-5 7-2h13l8 4 3 5v6l-3 5-6 3-9 7-5 8v10l2 1 16-6 13-5 6-3 1-4-7-16-8-14-6-7zm96 3-4 6v6l5-1 8-4 2-3-4-4zm22 4-12 5-13 5-14 6-13 5-17 7-11 4-27 11-20 8-17 7-2 1v3l9-3 33-13 12-5 30-12 16-6 11-5 12-5 15-6 13-5v-2zm207 0v5l5 3 17 4h20l16-4 5-2 1-4-2-1-13 3-8 1h-15l-14-2zm-341 2-12 5-12 9-12 11-10 7-11 5-32 2-1 4 2 7 6 8 8 3 9 2 6 4 2 9 7-1 15-5 15-7 4-2 1-5 6-2 11-4 1-13 5-10 7-6 9-6 3-4-2-7-5-4zm139 1-12 5 1 2 8-1 7-4-1-2zm120 3-14 10-8 7-5 5-6 7-6 11-3 7v17l3 5h2l2 5 8 7 6 4 6 12 7 6h8l-5-7 4 2 5 4h6l6-6-1-4-8-4-3-4 9 7h6l1-1v-8l-7-10 2-1 5 1 2-4-5-6-14-5-6-7-5-5 6 1 7-6-5 7 2 6 4 4h6l2-4 7-18 2-2-7 20v6l7 8v6l-2 2v17l-8 11 3 10 10 11 10 6h2v2l-14-7-8-9-4-10-3-2-5 1h-10l-8-4-5-6-3-7-3-2-4 1-3 9-1 9v37l1 14 6 25 2 5 5 2 8 2-2 1-11-1-9 1-14 7-5 6-2 4v8l3 3 4-2 3-10 5-6 4-2-7 8-3 7v8l5 2 9 1 3-5 4-10 4-3-2 5-3 4v8l5 1 13-2 18-6 6-4 5-6 2-29 3-12 5-8-3-6 5 1h17l17-4 8-3-3 3-14 5 1 11 1 5 1 36 6 5 11 4 16-4 9-3 1-1v-18l-5-1-5 1 1-2 9-4v-99l-6-8-2 1-3 25-3 10-7 10-8 6-8 4-14 2v-2h8l14-5 5-5 7-8 4-9 2-6v-36l-4-16-7-17-8-9-8-5-6-2h-15l-10 4-10 10 2-4 8-7 8-4 14-1 10 3 10 7 4 5 7 12 5 18 1 7 3 1 1-4v-16l-3-18-10-10-7-16-4-1-22 3h-25l-23-3zm-117 1-8 4 1 2 7-1 3-3zm201 2-1 5 3 6 5 5 7 6 5 2 14 1 11-3 8-5 6-8 2-4v-3l-5-1-14 3h-20l-16-3zm-199 3-5 3v2l7-1v-4zm-22 0-1 4 8 10 1 3-4-4-6-7-4-2-9 1-4 4 1 5 7 6 2 6-4-6-5-4-5 1-3 4v10l3 7h-2l-2-3-7 1-11 4-5 3 1 8 4 3 5 2 16 1 19-6 14-12 4-5 4-8 1-11-3-7-7-7-2-1zm22 6-2 1v3l6-2v-2zm-47 2-45 18-21 8-12 5-30 12 1 4 14-4 23-10 14-5 8-4 9-3-8 4-21 8-10 4-11 5-13 5-4 3 1 3 9-3 15-6 13-5 8-4 13-4 10-5 12-5 13-5 10-6-1-2-5 1-24 10h-2l21-9 11-4 5-3-1-3zm-8 15-14 6-27 11-20 8-9 4-13 5-8 4-4 1v4l6-1 16-6 10-5 12-4 18-8 24-10 11-5 2-3zm271 0-1 5 1 11 1 3 7-1 7-3 9-2 2-2v-10l-5-1zm29 3-2 6 1 4 4 3 1 1-19-1-9 6-3 4v4h14v2h-11l-5 3-1 4 2 5 10 2h5v2h-13l2 5 5 4 7 3h9l12-5 7-8 3-8v-11l-4-9-8-11-5-5zm-299 3-23 10-9 3-18 8-13 5-15 7-14 5-2 3 3 1 16-7 14-5 12-6 11-4 10-5 17-6 11-5 3-3zm-25 16-11 6 1 9v22l-3 13-8 16-7 7-16 8-17 4h-15l-16-1-7 7-12 15-8 7-19 12-15 5-7 2-1 2 4 9 4 2 9 2-1 1-10-2-16 1-14 7-6 6-3 7 1 7 4 3 3-1 4-12 6-7 4-1 1 2-4 1-7 8-2 4v6l5 3 4 1h8l1-3 3 3h19l23-4 8-3 8-6 2-27 5-16 6-11-2-4 1-1h32l18-5v2l-5 1-8 4 2 6 5 9 3 14 2 28 6 5 8 3 11 2 19 2h25l1-7 2 5h13l3-2-1-8-6-9-4-4 6 3 7 14 3-1v-7l-5-8-11-8-10-3-23-1 5-3 4-10 4-18 2-13v-48l-3-23-7-26-3-3zm-17 7-23 10-14 6-3 3 2 10 6 5 7 2 23 1 3 3 3-1 2-7v-25l-2-5zm-67 2-16 7-12 4-8 4v4l7-1 17-8 14-5 2-1-2-4zm1 6-20 8-8 4-8 3 1 3 7-1 12-4 20-9v-4zm180 3-7 11-10 11-13 9-6 18 4 1 13-2-1 10-3 6 1 3h11l-2 4 1 4h5l8-8 6-9 5-10 1-5-2-1-5 2 3-13v-14l-3-12-3-5zm-175 2-29 12-9 4v2l-3 1v2l8-1 20-9 13-5 3-2-1-4zm217 2-5 10v10l1 6-4-1-1 1v9l4 9 6 7 8 5h9l1-1 3-28 2-13-1-6-5-5-13-3zm-347-30-10 10-6 9-4 9-1 4v28l7 21 8 18 9 15 5 5 6 7 12 7 14 4h11l17-5 11-6 10-9 23-23 7-8 9-4 35-3 13-4 9-6 5-6v-6l-4-4h-18l-8-2-8-5-2-10-3-1-10 1-4-2-14 5-13 6-18 7-7 7-1 9-12 4-7 1-3-5-4-1-7 3v12l-5 2-5-1-6-13-7-18-1-9 7-3v-3l-8-6-8-9-4-7h-2l-3-9-3-6zm29 43-5 3 2 8 11 26 4 3 4-2 1-5-10-24-4-9zm480 3v126l3 3h8l2-2v-124l-8-3zm-253 10-14 7-15 3-1 1-2 41-1 9 6 5 17 6 5 1h14l2-3-4-3h-2l1-2 20-3 16-8 6-5v-2l-15 1 2-6v-4l-14 1 7-13-1-5h-17l4-10 1-1v-5l-4-1-10 3 2-6zm-213 4m4 2-3 4 4 2 3-2v-3zm26 0-12 5 2 4 7-1 8-4-2-4zm105 14-8 3-15 2-24 2-7 3-2 4 1 1h28l12-3 12-6 5-5zm349 71-2 2v15l5 3h9l-1-5-6-7 4 1 5 9 1 2h2v-6l-4-6-8-7zm-26 22-15 4-7 3-1 1v5l4 3 18 4h32l15-3 6-4-1-5-5-3-11-4-10-1-1 1v5h-18v-5l-1-1z"/><path transform="translate(441,387)" d="m0 0 9 1 9 6v4l-6-1-7-3-7-2v-4z"/><path transform="translate(311,390)" d="m0 0 3 1-9 5-7 6-7 11-5 18h-2l1-10 5-13 6-8 7-7z"/><path transform="translate(318,398)" d="m0 0h7l2 2v3l-12 5-5 4h-3l1-6 5-5z"/><path transform="translate(389,457)" d="m0 0h19l9 4 4 3v9l-6 9-7 7-5 3v10l4 3h16l8-5 5-6 2-7v-6l2-2h5l4 3v3h-4l-4 9-6 9-3 3-5 3-7 17-10 10-4 3-10 2h-13l-9-3-10-8-10-10-6-8-7-13v-2l-6 2-1-2 6-6h5l1 5 4 5 6 4 14 5h10l14-5 3-3v-8l-19-9-7-7-1-9 5-6zm2 4-5 2 1 4h15l4-2-1-4zm6 45-7 5-7 2h-16l-13-5h-3l5 9 6 7 8-2 2-1h25l8 3 7 4 5-5 5-9 1-3-2-2-17-3zm-26 17-3 2v5l14 8 4 1h10l10-4 4-3-2-4-5-4-3-1h-8l1 4-8-4z"/><path transform="translate(753,460)" d="m0 0h8l6 3 3 5-3 1-3-1h-12l-12 6-5 6h-2l3-9 9-8z"/><path transform="translate(654,463)" d="m0 0 10 1 9 5 7 8 1 4-4-2-9-6-5-1h-13l-7 2-3 1 1-6 5-4z"/><path transform="translate(700,483)" d="m0 0h16l7 3 2 4v5l-5 5-8 7v8l6 2 10-1 8-5-1 4-4 9-6 12-8 7-5 2-9-1-6-4-7-8-7-14-4-5h3l6 4h13l5-4v-6l-10-6-5-6-1-6 6-5zm4 2-3 4 1 1h10v-4l-1-1zm1 34-4 2v5l3 3h11l3-7-3-3h-4v6l-2-1-1-5zm17 1-4 9 1 4 4 1 5-10-1-4zm-32 1 1 6 5 3 3-2-2-5-3-2zm6 10 1 4 6 6h13l3-2-1-4-3-2h-8l-5-2z"/><path transform="translate(592,539)" d="m0 0h5l1 1v6l-9 4-9 2 4-3 4-2 2-6zm1 2v3l2-2z"/><path transform="translate(722,548)" d="m0 0 3 1-5 5-5 2h-7l-4-2v-1l14-2z"/><path transform="translate(303,776)" d="m0 0h2v3l-5 4-3 8h-2l1-7 4-6z"/></svg>
